G04 Layer_Color=16711935*
%FSLAX24Y24*%
%MOIN*%
G70*
G01*
G75*
%ADD12C,0.0100*%
%ADD120C,0.0300*%
%ADD136C,0.0840*%
%ADD213C,0.0631*%
G04:AMPARAMS|DCode=216|XSize=118.7mil|YSize=118.7mil|CornerRadius=59.4mil|HoleSize=0mil|Usage=FLASHONLY|Rotation=90.000|XOffset=0mil|YOffset=0mil|HoleType=Round|Shape=RoundedRectangle|*
%AMROUNDEDRECTD216*
21,1,0.1187,0.0000,0,0,90.0*
21,1,0.0000,0.1187,0,0,90.0*
1,1,0.1187,0.0000,0.0000*
1,1,0.1187,0.0000,0.0000*
1,1,0.1187,0.0000,0.0000*
1,1,0.1187,0.0000,0.0000*
%
%ADD216ROUNDEDRECTD216*%
G04:AMPARAMS|DCode=231|XSize=54mil|YSize=54mil|CornerRadius=27mil|HoleSize=0mil|Usage=FLASHONLY|Rotation=270.000|XOffset=0mil|YOffset=0mil|HoleType=Round|Shape=RoundedRectangle|*
%AMROUNDEDRECTD231*
21,1,0.0540,0.0000,0,0,270.0*
21,1,0.0000,0.0540,0,0,270.0*
1,1,0.0540,0.0000,0.0000*
1,1,0.0540,0.0000,0.0000*
1,1,0.0540,0.0000,0.0000*
1,1,0.0540,0.0000,0.0000*
%
%ADD231ROUNDEDRECTD231*%
%ADD265R,0.0640X0.1240*%
%ADD266O,0.0640X0.1240*%
G04:AMPARAMS|DCode=267|XSize=137mil|YSize=87mil|CornerRadius=0mil|HoleSize=0mil|Usage=FLASHONLY|Rotation=270.000|XOffset=0mil|YOffset=0mil|HoleType=Round|Shape=Octagon|*
%AMOCTAGOND267*
4,1,8,-0.0217,-0.0685,0.0217,-0.0685,0.0435,-0.0467,0.0435,0.0467,0.0217,0.0685,-0.0217,0.0685,-0.0435,0.0467,-0.0435,-0.0467,-0.0217,-0.0685,0.0*
%
%ADD267OCTAGOND267*%

%ADD268O,0.1240X0.0640*%
%ADD269P,0.0801X8X292.5*%
%ADD270C,0.1040*%
%ADD271C,0.0580*%
%ADD272C,0.1345*%
%ADD273P,0.0714X8X22.5*%
%ADD274O,0.0865X0.1690*%
%ADD275R,0.0631X0.0631*%
%ADD276C,0.0631*%
%ADD277O,0.1340X0.1400*%
%ADD278R,0.0631X0.0631*%
%ADD279R,0.0704X0.0354*%
G04:AMPARAMS|DCode=280|XSize=50mil|YSize=67mil|CornerRadius=13.5mil|HoleSize=0mil|Usage=FLASHONLY|Rotation=270.000|XOffset=0mil|YOffset=0mil|HoleType=Round|Shape=RoundedRectangle|*
%AMROUNDEDRECTD280*
21,1,0.0500,0.0400,0,0,270.0*
21,1,0.0230,0.0670,0,0,270.0*
1,1,0.0270,-0.0200,-0.0115*
1,1,0.0270,-0.0200,0.0115*
1,1,0.0270,0.0200,0.0115*
1,1,0.0270,0.0200,-0.0115*
%
%ADD280ROUNDEDRECTD280*%
G04:AMPARAMS|DCode=281|XSize=54mil|YSize=54mil|CornerRadius=27mil|HoleSize=0mil|Usage=FLASHONLY|Rotation=0.000|XOffset=0mil|YOffset=0mil|HoleType=Round|Shape=RoundedRectangle|*
%AMROUNDEDRECTD281*
21,1,0.0540,0.0000,0,0,0.0*
21,1,0.0000,0.0540,0,0,0.0*
1,1,0.0540,0.0000,0.0000*
1,1,0.0540,0.0000,0.0000*
1,1,0.0540,0.0000,0.0000*
1,1,0.0540,0.0000,0.0000*
%
%ADD281ROUNDEDRECTD281*%
%ADD282R,0.0532X0.0375*%
G04:AMPARAMS|DCode=283|XSize=62mil|YSize=62mil|CornerRadius=31mil|HoleSize=0mil|Usage=FLASHONLY|Rotation=270.000|XOffset=0mil|YOffset=0mil|HoleType=Round|Shape=RoundedRectangle|*
%AMROUNDEDRECTD283*
21,1,0.0620,0.0000,0,0,270.0*
21,1,0.0000,0.0620,0,0,270.0*
1,1,0.0620,0.0000,0.0000*
1,1,0.0620,0.0000,0.0000*
1,1,0.0620,0.0000,0.0000*
1,1,0.0620,0.0000,0.0000*
%
%ADD283ROUNDEDRECTD283*%
%ADD284R,0.0631X0.0631*%
G36*
X29756Y84441D02*
X28966Y84141D01*
X29086Y84261D01*
Y84621D01*
X28966Y84741D01*
X29756Y84441D01*
D02*
G37*
G36*
Y83441D02*
X28966Y83141D01*
X29086Y83261D01*
Y83621D01*
X28966Y83741D01*
X29756Y83441D01*
D02*
G37*
G36*
Y82441D02*
X28966Y82141D01*
X29086Y82261D01*
Y82621D01*
X28966Y82741D01*
X29756Y82441D01*
D02*
G37*
G36*
Y81441D02*
X28966Y81141D01*
X29086Y81261D01*
Y81621D01*
X28966Y81741D01*
X29756Y81441D01*
D02*
G37*
G36*
Y80441D02*
X28966Y80141D01*
X29086Y80261D01*
Y80621D01*
X28966Y80741D01*
X29756Y80441D01*
D02*
G37*
G36*
X37020Y74670D02*
X36110D01*
Y76060D01*
X37020D01*
Y74670D01*
D02*
G37*
G36*
Y69370D02*
X36110D01*
Y70760D01*
X37020D01*
Y69370D01*
D02*
G37*
G36*
X34069Y64544D02*
X33159D01*
Y65934D01*
X34069D01*
Y64544D01*
D02*
G37*
G36*
X36970Y64540D02*
X36060D01*
Y65930D01*
X36970D01*
Y64540D01*
D02*
G37*
G36*
X34069Y59244D02*
X33159D01*
Y60634D01*
X34069D01*
Y59244D01*
D02*
G37*
G36*
X36970Y59240D02*
X36060D01*
Y60630D01*
X36970D01*
Y59240D01*
D02*
G37*
G36*
X29756Y56449D02*
X28966Y56149D01*
X29086Y56269D01*
Y56629D01*
X28966Y56749D01*
X29756Y56449D01*
D02*
G37*
G36*
Y55449D02*
X28966Y55149D01*
X29086Y55269D01*
Y55629D01*
X28966Y55749D01*
X29756Y55449D01*
D02*
G37*
G36*
Y54449D02*
X28966Y54149D01*
X29086Y54269D01*
Y54629D01*
X28966Y54749D01*
X29756Y54449D01*
D02*
G37*
G36*
Y53449D02*
X28966Y53149D01*
X29086Y53269D01*
Y53629D01*
X28966Y53749D01*
X29756Y53449D01*
D02*
G37*
G36*
Y52449D02*
X28966Y52149D01*
X29086Y52269D01*
Y52629D01*
X28966Y52749D01*
X29756Y52449D01*
D02*
G37*
G36*
X37020Y46678D02*
X36110D01*
Y48068D01*
X37020D01*
Y46678D01*
D02*
G37*
G36*
Y41378D02*
X36110D01*
Y42768D01*
X37020D01*
Y41378D01*
D02*
G37*
G36*
X34069Y36551D02*
X33159D01*
Y37942D01*
X34069D01*
Y36551D01*
D02*
G37*
G36*
X36970Y36548D02*
X36060D01*
Y37938D01*
X36970D01*
Y36548D01*
D02*
G37*
G36*
X34069Y31251D02*
X33159D01*
Y32641D01*
X34069D01*
Y31251D01*
D02*
G37*
G36*
X36970Y31248D02*
X36060D01*
Y32638D01*
X36970D01*
Y31248D01*
D02*
G37*
G36*
X29756Y28456D02*
X28966Y28156D01*
X29086Y28276D01*
Y28636D01*
X28966Y28756D01*
X29756Y28456D01*
D02*
G37*
G36*
Y27456D02*
X28966Y27156D01*
X29086Y27276D01*
Y27636D01*
X28966Y27756D01*
X29756Y27456D01*
D02*
G37*
G36*
Y26456D02*
X28966Y26156D01*
X29086Y26276D01*
Y26636D01*
X28966Y26756D01*
X29756Y26456D01*
D02*
G37*
G36*
Y25456D02*
X28966Y25156D01*
X29086Y25276D01*
Y25636D01*
X28966Y25756D01*
X29756Y25456D01*
D02*
G37*
G36*
Y24456D02*
X28966Y24156D01*
X29086Y24276D01*
Y24636D01*
X28966Y24756D01*
X29756Y24456D01*
D02*
G37*
G36*
X37020Y18685D02*
X36110D01*
Y20075D01*
X37020D01*
Y18685D01*
D02*
G37*
G36*
Y13385D02*
X36110D01*
Y14775D01*
X37020D01*
Y13385D01*
D02*
G37*
G36*
X34069Y8559D02*
X33159D01*
Y9949D01*
X34069D01*
Y8559D01*
D02*
G37*
G36*
X36970Y8555D02*
X36060D01*
Y9945D01*
X36970D01*
Y8555D01*
D02*
G37*
G36*
X34069Y3259D02*
X33159D01*
Y4649D01*
X34069D01*
Y3259D01*
D02*
G37*
G36*
X36970Y3255D02*
X36060D01*
Y4645D01*
X36970D01*
Y3255D01*
D02*
G37*
G54D12*
X27728Y99328D02*
Y98728D01*
X28028D01*
X28128Y98828D01*
Y98928D01*
X28028Y99028D01*
X27728D01*
X28028D01*
X28128Y99128D01*
Y99228D01*
X28028Y99328D01*
X27728D01*
X28428Y98728D02*
X28628D01*
X28728Y98828D01*
Y99028D01*
X28628Y99128D01*
X28428D01*
X28328Y99028D01*
Y98828D01*
X28428Y98728D01*
X29028Y99228D02*
Y99128D01*
X28928D01*
X29128D01*
X29028D01*
Y98828D01*
X29128Y98728D01*
X29528Y99228D02*
Y99128D01*
X29428D01*
X29628D01*
X29528D01*
Y98828D01*
X29628Y98728D01*
X30028D02*
X30228D01*
X30328Y98828D01*
Y99028D01*
X30228Y99128D01*
X30028D01*
X29928Y99028D01*
Y98828D01*
X30028Y98728D01*
X30527D02*
Y99128D01*
X30627D01*
X30727Y99028D01*
Y98728D01*
Y99028D01*
X30827Y99128D01*
X30927Y99028D01*
Y98728D01*
X32127Y99228D02*
X32027Y99328D01*
X31827D01*
X31727Y99228D01*
Y99128D01*
X31827Y99028D01*
X32027D01*
X32127Y98928D01*
Y98828D01*
X32027Y98728D01*
X31827D01*
X31727Y98828D01*
X32427Y98728D02*
X32627D01*
X32727Y98828D01*
Y99028D01*
X32627Y99128D01*
X32427D01*
X32327Y99028D01*
Y98828D01*
X32427Y98728D01*
X32927D02*
X33127D01*
X33027D01*
Y99328D01*
X32927D01*
X33826D02*
Y98728D01*
X33526D01*
X33426Y98828D01*
Y99028D01*
X33526Y99128D01*
X33826D01*
X34326Y98728D02*
X34126D01*
X34026Y98828D01*
Y99028D01*
X34126Y99128D01*
X34326D01*
X34426Y99028D01*
Y98928D01*
X34026D01*
X34626Y99128D02*
Y98728D01*
Y98928D01*
X34726Y99028D01*
X34826Y99128D01*
X34926D01*
X35226Y98728D02*
Y99128D01*
X35326D01*
X35426Y99028D01*
Y98728D01*
Y99028D01*
X35526Y99128D01*
X35626Y99028D01*
Y98728D01*
X35926Y99128D02*
X36126D01*
X36226Y99028D01*
Y98728D01*
X35926D01*
X35826Y98828D01*
X35926Y98928D01*
X36226D01*
X36426Y98728D02*
X36725D01*
X36825Y98828D01*
X36725Y98928D01*
X36525D01*
X36426Y99028D01*
X36525Y99128D01*
X36825D01*
X37025Y98728D02*
Y99328D01*
Y98928D02*
X37325Y99128D01*
X37025Y98928D02*
X37325Y98728D01*
X28128Y100578D02*
X27728D01*
Y99978D01*
X28128D01*
X27728Y100278D02*
X27928D01*
X28328Y99978D02*
X28528D01*
X28428D01*
Y100378D01*
X28328D01*
X28828Y99978D02*
Y100378D01*
X29128D01*
X29228Y100278D01*
Y99978D01*
X29428D02*
X29728D01*
X29828Y100078D01*
X29728Y100178D01*
X29528D01*
X29428Y100278D01*
X29528Y100378D01*
X29828D01*
X30028D02*
Y100078D01*
X30128Y99978D01*
X30427D01*
Y99878D01*
X30328Y99778D01*
X30228D01*
X30427Y99978D02*
Y100378D01*
X30627Y99978D02*
Y100578D01*
X30927D01*
X31027Y100478D01*
Y100278D01*
X30927Y100178D01*
X30627D01*
X30827D02*
X31027Y99978D01*
X31527D02*
X31327D01*
X31227Y100078D01*
Y100278D01*
X31327Y100378D01*
X31527D01*
X31627Y100278D01*
Y100178D01*
X31227D01*
X31927Y100478D02*
Y100378D01*
X31827D01*
X32027D01*
X31927D01*
Y100078D01*
X32027Y99978D01*
X32327Y100378D02*
Y99978D01*
Y100178D01*
X32427Y100278D01*
X32527Y100378D01*
X32627D01*
X33027Y99978D02*
X33227D01*
X33327Y100078D01*
Y100278D01*
X33227Y100378D01*
X33027D01*
X32927Y100278D01*
Y100078D01*
X33027Y99978D01*
X34126D02*
X34326D01*
X34226D01*
Y100578D01*
X34126Y100478D01*
X34626Y99978D02*
Y100078D01*
X34726D01*
Y99978D01*
X34626D01*
X35126Y100478D02*
X35226Y100578D01*
X35426D01*
X35526Y100478D01*
Y100078D01*
X35426Y99978D01*
X35226D01*
X35126Y100078D01*
Y100478D01*
X35826Y100378D02*
X36026D01*
X36126Y100278D01*
Y99978D01*
X35826D01*
X35726Y100078D01*
X35826Y100178D01*
X36126D01*
G54D120*
X23356Y9390D02*
D03*
X24222Y8090D02*
D03*
X23789D02*
D03*
X23356D02*
D03*
X24222Y8523D02*
D03*
X23789D02*
D03*
X23356D02*
D03*
X24222Y8956D02*
D03*
X23789D02*
D03*
X23356D02*
D03*
X24222Y9390D02*
D03*
X23789D02*
D03*
X14149D02*
D03*
X14582D02*
D03*
X13716Y8956D02*
D03*
X14149D02*
D03*
X14582D02*
D03*
X13716Y8523D02*
D03*
X14149D02*
D03*
X14582D02*
D03*
X13716Y8090D02*
D03*
X14149D02*
D03*
X14582D02*
D03*
X13716Y9390D02*
D03*
X9216D02*
D03*
X10082Y8090D02*
D03*
X9649D02*
D03*
X9216D02*
D03*
X10082Y8523D02*
D03*
X9649D02*
D03*
X9216D02*
D03*
X10082Y8956D02*
D03*
X9649D02*
D03*
X9216D02*
D03*
X10082Y9390D02*
D03*
X9649D02*
D03*
X5176Y9750D02*
D03*
X5609D02*
D03*
X4743Y9316D02*
D03*
X5176D02*
D03*
X5609D02*
D03*
X4743Y8883D02*
D03*
X5176D02*
D03*
X5609D02*
D03*
X4743Y8450D02*
D03*
X5176D02*
D03*
X5609D02*
D03*
X4743Y9750D02*
D03*
X30707Y8016D02*
D03*
Y8416D02*
D03*
X30307D02*
D03*
Y8016D02*
D03*
X29907D02*
D03*
Y8416D02*
D03*
X29507D02*
D03*
Y8016D02*
D03*
Y7216D02*
D03*
Y6816D02*
D03*
X29907D02*
D03*
Y7216D02*
D03*
X30307D02*
D03*
Y6816D02*
D03*
X30707D02*
D03*
Y7216D02*
D03*
Y7616D02*
D03*
X30307D02*
D03*
X29507D02*
D03*
X29907D02*
D03*
X33961Y21627D02*
D03*
Y22027D02*
D03*
Y21227D02*
D03*
Y20827D02*
D03*
X33561D02*
D03*
X33161D02*
D03*
Y21227D02*
D03*
X33561D02*
D03*
Y21627D02*
D03*
X33161D02*
D03*
Y22027D02*
D03*
X33561D02*
D03*
X34361D02*
D03*
X34761D02*
D03*
Y21627D02*
D03*
X34361D02*
D03*
Y21227D02*
D03*
X34761D02*
D03*
Y20827D02*
D03*
X34361D02*
D03*
X10873Y20173D02*
D03*
Y19799D02*
D03*
Y19425D02*
D03*
X10499D02*
D03*
X10125Y19416D02*
D03*
X10127Y19799D02*
D03*
X10123Y20177D02*
D03*
X10499Y20173D02*
D03*
Y19799D02*
D03*
X23356Y37382D02*
D03*
X24222Y36082D02*
D03*
X23789D02*
D03*
X23356D02*
D03*
X24222Y36516D02*
D03*
X23789D02*
D03*
X23356D02*
D03*
X24222Y36949D02*
D03*
X23789D02*
D03*
X23356D02*
D03*
X24222Y37382D02*
D03*
X23789D02*
D03*
X14149D02*
D03*
X14582D02*
D03*
X13716Y36949D02*
D03*
X14149D02*
D03*
X14582D02*
D03*
X13716Y36516D02*
D03*
X14149D02*
D03*
X14582D02*
D03*
X13716Y36082D02*
D03*
X14149D02*
D03*
X14582D02*
D03*
X13716Y37382D02*
D03*
X9216D02*
D03*
X10082Y36082D02*
D03*
X9649D02*
D03*
X9216D02*
D03*
X10082Y36516D02*
D03*
X9649D02*
D03*
X9216D02*
D03*
X10082Y36949D02*
D03*
X9649D02*
D03*
X9216D02*
D03*
X10082Y37382D02*
D03*
X9649D02*
D03*
X5176Y37742D02*
D03*
X5609D02*
D03*
X4743Y37309D02*
D03*
X5176D02*
D03*
X5609D02*
D03*
X4743Y36876D02*
D03*
X5176D02*
D03*
X5609D02*
D03*
X4743Y36442D02*
D03*
X5176D02*
D03*
X5609D02*
D03*
X4743Y37742D02*
D03*
X30707Y36008D02*
D03*
Y36408D02*
D03*
X30307D02*
D03*
Y36008D02*
D03*
X29907D02*
D03*
Y36408D02*
D03*
X29507D02*
D03*
Y36008D02*
D03*
Y35208D02*
D03*
Y34808D02*
D03*
X29907D02*
D03*
Y35208D02*
D03*
X30307D02*
D03*
Y34808D02*
D03*
X30707D02*
D03*
Y35208D02*
D03*
Y35608D02*
D03*
X30307D02*
D03*
X29507D02*
D03*
X29907D02*
D03*
X33961Y49619D02*
D03*
Y50019D02*
D03*
Y49219D02*
D03*
Y48819D02*
D03*
X33561D02*
D03*
X33161D02*
D03*
Y49219D02*
D03*
X33561D02*
D03*
Y49619D02*
D03*
X33161D02*
D03*
Y50019D02*
D03*
X33561D02*
D03*
X34361D02*
D03*
X34761D02*
D03*
Y49619D02*
D03*
X34361D02*
D03*
Y49219D02*
D03*
X34761D02*
D03*
Y48819D02*
D03*
X34361D02*
D03*
X10873Y48166D02*
D03*
Y47792D02*
D03*
Y47417D02*
D03*
X10499D02*
D03*
X10125Y47408D02*
D03*
X10127Y47792D02*
D03*
X10123Y48169D02*
D03*
X10499Y48166D02*
D03*
Y47792D02*
D03*
X23356Y65374D02*
D03*
X24222Y64075D02*
D03*
X23789D02*
D03*
X23356D02*
D03*
X24222Y64508D02*
D03*
X23789D02*
D03*
X23356D02*
D03*
X24222Y64941D02*
D03*
X23789D02*
D03*
X23356D02*
D03*
X24222Y65374D02*
D03*
X23789D02*
D03*
X14149D02*
D03*
X14582D02*
D03*
X13716Y64941D02*
D03*
X14149D02*
D03*
X14582D02*
D03*
X13716Y64508D02*
D03*
X14149D02*
D03*
X14582D02*
D03*
X13716Y64075D02*
D03*
X14149D02*
D03*
X14582D02*
D03*
X13716Y65374D02*
D03*
X9216D02*
D03*
X10082Y64075D02*
D03*
X9649D02*
D03*
X9216D02*
D03*
X10082Y64508D02*
D03*
X9649D02*
D03*
X9216D02*
D03*
X10082Y64941D02*
D03*
X9649D02*
D03*
X9216D02*
D03*
X10082Y65374D02*
D03*
X9649D02*
D03*
X5176Y65734D02*
D03*
X5609D02*
D03*
X4743Y65301D02*
D03*
X5176D02*
D03*
X5609D02*
D03*
X4743Y64868D02*
D03*
X5176D02*
D03*
X5609D02*
D03*
X4743Y64435D02*
D03*
X5176D02*
D03*
X5609D02*
D03*
X4743Y65734D02*
D03*
X30707Y64000D02*
D03*
Y64400D02*
D03*
X30307D02*
D03*
Y64000D02*
D03*
X29907D02*
D03*
Y64400D02*
D03*
X29507D02*
D03*
Y64000D02*
D03*
Y63200D02*
D03*
Y62800D02*
D03*
X29907D02*
D03*
Y63200D02*
D03*
X30307D02*
D03*
Y62800D02*
D03*
X30707D02*
D03*
Y63200D02*
D03*
Y63600D02*
D03*
X30307D02*
D03*
X29507D02*
D03*
X29907D02*
D03*
X33961Y77611D02*
D03*
Y78011D02*
D03*
Y77211D02*
D03*
Y76811D02*
D03*
X33561D02*
D03*
X33161D02*
D03*
Y77211D02*
D03*
X33561D02*
D03*
Y77611D02*
D03*
X33161D02*
D03*
Y78011D02*
D03*
X33561D02*
D03*
X34361D02*
D03*
X34761D02*
D03*
Y77611D02*
D03*
X34361D02*
D03*
Y77211D02*
D03*
X34761D02*
D03*
Y76811D02*
D03*
X34361D02*
D03*
X10873Y76158D02*
D03*
Y75784D02*
D03*
Y75410D02*
D03*
X10499D02*
D03*
X10125Y75400D02*
D03*
X10127Y75784D02*
D03*
X10123Y76161D02*
D03*
X10499Y76158D02*
D03*
Y75784D02*
D03*
G54D136*
X42906Y6754D02*
D03*
Y34747D02*
D03*
Y62739D02*
D03*
G54D213*
X28866Y28456D02*
D03*
Y27456D02*
D03*
Y26456D02*
D03*
Y25456D02*
D03*
Y24456D02*
D03*
Y56449D02*
D03*
Y55449D02*
D03*
Y54449D02*
D03*
Y53449D02*
D03*
Y52449D02*
D03*
Y84441D02*
D03*
Y83441D02*
D03*
Y82441D02*
D03*
Y81441D02*
D03*
Y80441D02*
D03*
G54D216*
X42528Y87726D02*
D03*
Y1328D02*
D03*
X3789Y1289D02*
D03*
G54D231*
X21699Y11699D02*
D03*
X10699Y26699D02*
D03*
X16699Y22699D02*
D03*
X6699Y19699D02*
D03*
X7699Y18699D02*
D03*
X21699Y10699D02*
D03*
X19699Y9699D02*
D03*
X17699Y10699D02*
D03*
X8699Y5699D02*
D03*
X6699D02*
D03*
X7699D02*
D03*
X26699Y24699D02*
D03*
X24699Y14699D02*
D03*
X30669Y4379D02*
D03*
X3699Y6699D02*
D03*
X14699Y5699D02*
D03*
X12699D02*
D03*
X13699D02*
D03*
X9699D02*
D03*
X20699D02*
D03*
X18699D02*
D03*
X19699D02*
D03*
X17699D02*
D03*
X24699D02*
D03*
X22699D02*
D03*
X23699D02*
D03*
X21699D02*
D03*
X30699Y19699D02*
D03*
X31699Y17699D02*
D03*
X32699Y14699D02*
D03*
X24699Y4699D02*
D03*
X23699D02*
D03*
X15699D02*
D03*
X12699D02*
D03*
X10699D02*
D03*
X9699D02*
D03*
X8699D02*
D03*
X7699D02*
D03*
X6699Y24699D02*
D03*
X21699Y39692D02*
D03*
X10699Y54692D02*
D03*
X16699Y50691D02*
D03*
X6699Y47691D02*
D03*
X7699Y46691D02*
D03*
X21699Y38691D02*
D03*
X19699Y37692D02*
D03*
X17699Y38691D02*
D03*
X8699Y33691D02*
D03*
X6699D02*
D03*
X7699D02*
D03*
X26699Y52691D02*
D03*
X24699Y42691D02*
D03*
X30669Y32371D02*
D03*
X3699Y34692D02*
D03*
X14699Y33691D02*
D03*
X12699D02*
D03*
X13699D02*
D03*
X9699D02*
D03*
X20699D02*
D03*
X18699D02*
D03*
X19699D02*
D03*
X17699D02*
D03*
X24699D02*
D03*
X22699D02*
D03*
X23699D02*
D03*
X21699D02*
D03*
X30699Y47691D02*
D03*
X31699Y45691D02*
D03*
X32699Y42691D02*
D03*
X24699Y32692D02*
D03*
X23699D02*
D03*
X15699D02*
D03*
X12699D02*
D03*
X10699D02*
D03*
X9699D02*
D03*
X8699D02*
D03*
X7699D02*
D03*
X6699Y52691D02*
D03*
X21699Y67684D02*
D03*
X10699Y82684D02*
D03*
X16699Y78684D02*
D03*
X6699Y75684D02*
D03*
X7699Y74684D02*
D03*
X21699Y66684D02*
D03*
X19699Y65684D02*
D03*
X17699Y66684D02*
D03*
X8699Y61684D02*
D03*
X6699D02*
D03*
X7699D02*
D03*
X26699Y80684D02*
D03*
X24699Y70684D02*
D03*
X30669Y60364D02*
D03*
X3699Y62684D02*
D03*
X14699Y61684D02*
D03*
X12699D02*
D03*
X13699D02*
D03*
X9699D02*
D03*
X20699D02*
D03*
X18699D02*
D03*
X19699D02*
D03*
X17699D02*
D03*
X24699D02*
D03*
X22699D02*
D03*
X23699D02*
D03*
X21699D02*
D03*
X30699Y75684D02*
D03*
X31699Y73684D02*
D03*
X32699Y70684D02*
D03*
X24699Y60684D02*
D03*
X23699D02*
D03*
X15699D02*
D03*
X12699D02*
D03*
X10699D02*
D03*
X9699D02*
D03*
X8699D02*
D03*
X7699D02*
D03*
X6699Y80684D02*
D03*
G54D265*
X15321Y26164D02*
D03*
X25700Y3726D02*
D03*
X20578Y3722D02*
D03*
Y6478D02*
D03*
X15460Y3722D02*
D03*
X10342D02*
D03*
X17321Y28526D02*
D03*
X9054D02*
D03*
X13188D02*
D03*
X7054Y26164D02*
D03*
X11188D02*
D03*
X15321Y54156D02*
D03*
X25700Y31718D02*
D03*
X20578Y31714D02*
D03*
Y34470D02*
D03*
X15460Y31714D02*
D03*
X10342D02*
D03*
X17321Y56518D02*
D03*
X9054D02*
D03*
X13188D02*
D03*
X7054Y54156D02*
D03*
X11188D02*
D03*
X15321Y82148D02*
D03*
X25700Y59710D02*
D03*
X20578Y59706D02*
D03*
Y62462D02*
D03*
X15460Y59706D02*
D03*
X10342D02*
D03*
X17321Y84510D02*
D03*
X9054D02*
D03*
X13188D02*
D03*
X7054Y82148D02*
D03*
X11188D02*
D03*
G54D266*
X16321Y26164D02*
D03*
X17321D02*
D03*
X24700Y3726D02*
D03*
X23700D02*
D03*
X22700D02*
D03*
X17578Y3722D02*
D03*
X18578D02*
D03*
X19578D02*
D03*
Y6478D02*
D03*
X18578D02*
D03*
X17578D02*
D03*
X12460Y3722D02*
D03*
X13460D02*
D03*
X14460D02*
D03*
X9342D02*
D03*
X8342D02*
D03*
X7342D02*
D03*
X16321Y28526D02*
D03*
X15321D02*
D03*
X8054D02*
D03*
X7054D02*
D03*
X12188D02*
D03*
X11188D02*
D03*
X8054Y26164D02*
D03*
X9054D02*
D03*
X12188D02*
D03*
X13188D02*
D03*
X16321Y54156D02*
D03*
X17321D02*
D03*
X24700Y31718D02*
D03*
X23700D02*
D03*
X22700D02*
D03*
X17578Y31714D02*
D03*
X18578D02*
D03*
X19578D02*
D03*
Y34470D02*
D03*
X18578D02*
D03*
X17578D02*
D03*
X12460Y31714D02*
D03*
X13460D02*
D03*
X14460D02*
D03*
X9342D02*
D03*
X8342D02*
D03*
X7342D02*
D03*
X16321Y56518D02*
D03*
X15321D02*
D03*
X8054D02*
D03*
X7054D02*
D03*
X12188D02*
D03*
X11188D02*
D03*
X8054Y54156D02*
D03*
X9054D02*
D03*
X12188D02*
D03*
X13188D02*
D03*
X16321Y82148D02*
D03*
X17321D02*
D03*
X24700Y59710D02*
D03*
X23700D02*
D03*
X22700D02*
D03*
X17578Y59706D02*
D03*
X18578D02*
D03*
X19578D02*
D03*
Y62462D02*
D03*
X18578D02*
D03*
X17578D02*
D03*
X12460Y59706D02*
D03*
X13460D02*
D03*
X14460D02*
D03*
X9342D02*
D03*
X8342D02*
D03*
X7342D02*
D03*
X16321Y84510D02*
D03*
X15321D02*
D03*
X8054D02*
D03*
X7054D02*
D03*
X12188D02*
D03*
X11188D02*
D03*
X8054Y82148D02*
D03*
X9054D02*
D03*
X12188D02*
D03*
X13188D02*
D03*
G54D267*
X37189Y3949D02*
D03*
X35849D02*
D03*
Y9249D02*
D03*
X37189D02*
D03*
X35899Y14079D02*
D03*
X37239D02*
D03*
Y19379D02*
D03*
X35899D02*
D03*
X34289Y3953D02*
D03*
X32949D02*
D03*
Y9253D02*
D03*
X34289D02*
D03*
X37189Y31941D02*
D03*
X35849D02*
D03*
Y37241D02*
D03*
X37189D02*
D03*
X35899Y42071D02*
D03*
X37239D02*
D03*
Y47372D02*
D03*
X35899D02*
D03*
X34289Y31945D02*
D03*
X32949D02*
D03*
Y37245D02*
D03*
X34289D02*
D03*
X37189Y59934D02*
D03*
X35849D02*
D03*
Y65234D02*
D03*
X37189D02*
D03*
X35899Y70064D02*
D03*
X37239D02*
D03*
Y75364D02*
D03*
X35899D02*
D03*
X34289Y59938D02*
D03*
X32949D02*
D03*
Y65238D02*
D03*
X34289D02*
D03*
G54D268*
X26203Y17806D02*
D03*
Y16806D02*
D03*
Y14695D02*
D03*
Y13695D02*
D03*
Y20916D02*
D03*
Y19916D02*
D03*
X28639Y18909D02*
D03*
Y19909D02*
D03*
Y20909D02*
D03*
X28629Y14769D02*
D03*
Y15769D02*
D03*
Y16769D02*
D03*
X26203Y45798D02*
D03*
Y44798D02*
D03*
Y42688D02*
D03*
Y41688D02*
D03*
Y48908D02*
D03*
Y47908D02*
D03*
X28639Y46901D02*
D03*
Y47902D02*
D03*
Y48902D02*
D03*
X28629Y42762D02*
D03*
Y43762D02*
D03*
Y44762D02*
D03*
X26203Y73790D02*
D03*
Y72790D02*
D03*
Y70680D02*
D03*
Y69680D02*
D03*
Y76900D02*
D03*
Y75900D02*
D03*
X28639Y74894D02*
D03*
Y75894D02*
D03*
Y76894D02*
D03*
X28629Y70754D02*
D03*
Y71754D02*
D03*
Y72754D02*
D03*
G54D269*
X3627Y25479D02*
D03*
Y23699D02*
D03*
Y53471D02*
D03*
Y51691D02*
D03*
Y81463D02*
D03*
Y79683D02*
D03*
G54D270*
X4607Y25969D02*
D03*
Y23209D02*
D03*
Y53961D02*
D03*
Y51201D02*
D03*
Y81953D02*
D03*
Y79193D02*
D03*
G54D271*
X7158Y17396D02*
D03*
Y18388D02*
D03*
X6368D02*
D03*
Y17396D02*
D03*
X7158Y45388D02*
D03*
Y46380D02*
D03*
X6368D02*
D03*
Y45388D02*
D03*
X7158Y73380D02*
D03*
Y74373D02*
D03*
X6368D02*
D03*
Y73380D02*
D03*
G54D272*
X5298Y20258D02*
D03*
Y15526D02*
D03*
Y48251D02*
D03*
Y43518D02*
D03*
Y76243D02*
D03*
Y71510D02*
D03*
G54D273*
X8025Y22345D02*
D03*
Y23345D02*
D03*
X9025Y22345D02*
D03*
Y23345D02*
D03*
X10025Y22345D02*
D03*
Y23345D02*
D03*
X8025Y50337D02*
D03*
Y51337D02*
D03*
X9025Y50337D02*
D03*
Y51337D02*
D03*
X10025Y50337D02*
D03*
Y51337D02*
D03*
X8025Y78329D02*
D03*
Y79329D02*
D03*
X9025Y78329D02*
D03*
Y79329D02*
D03*
X10025Y78329D02*
D03*
Y79329D02*
D03*
G54D274*
X28809Y12129D02*
D03*
X30809D02*
D03*
X28809Y40121D02*
D03*
X30809D02*
D03*
X28809Y68114D02*
D03*
X30809D02*
D03*
G54D275*
X20439Y28139D02*
D03*
Y24389D02*
D03*
Y56132D02*
D03*
Y52382D02*
D03*
Y84124D02*
D03*
Y80374D02*
D03*
G54D276*
Y29139D02*
D03*
X21439Y28139D02*
D03*
Y29139D02*
D03*
X22439Y28139D02*
D03*
Y29139D02*
D03*
X23439Y28139D02*
D03*
Y29139D02*
D03*
X24439Y28139D02*
D03*
Y29139D02*
D03*
X20439Y25389D02*
D03*
X21439Y24389D02*
D03*
Y25389D02*
D03*
X22439Y24389D02*
D03*
Y25389D02*
D03*
X23439Y24389D02*
D03*
Y25389D02*
D03*
X24439Y24389D02*
D03*
Y25389D02*
D03*
X27866Y24456D02*
D03*
Y25456D02*
D03*
Y26456D02*
D03*
Y27456D02*
D03*
X20439Y57132D02*
D03*
X21439Y56132D02*
D03*
Y57132D02*
D03*
X22439Y56132D02*
D03*
Y57132D02*
D03*
X23439Y56132D02*
D03*
Y57132D02*
D03*
X24439Y56132D02*
D03*
Y57132D02*
D03*
X20439Y53382D02*
D03*
X21439Y52382D02*
D03*
Y53382D02*
D03*
X22439Y52382D02*
D03*
Y53382D02*
D03*
X23439Y52382D02*
D03*
Y53382D02*
D03*
X24439Y52382D02*
D03*
Y53382D02*
D03*
X27866Y52449D02*
D03*
Y53449D02*
D03*
Y54449D02*
D03*
Y55449D02*
D03*
X20439Y85124D02*
D03*
X21439Y84124D02*
D03*
Y85124D02*
D03*
X22439Y84124D02*
D03*
Y85124D02*
D03*
X23439Y84124D02*
D03*
Y85124D02*
D03*
X24439Y84124D02*
D03*
Y85124D02*
D03*
X20439Y81374D02*
D03*
X21439Y80374D02*
D03*
Y81374D02*
D03*
X22439Y80374D02*
D03*
Y81374D02*
D03*
X23439Y80374D02*
D03*
Y81374D02*
D03*
X24439Y80374D02*
D03*
Y81374D02*
D03*
X27866Y80441D02*
D03*
Y81441D02*
D03*
Y82441D02*
D03*
Y83441D02*
D03*
G54D277*
X39069Y8394D02*
D03*
Y11644D02*
D03*
Y14894D02*
D03*
Y18144D02*
D03*
Y21394D02*
D03*
Y24644D02*
D03*
Y36386D02*
D03*
Y39636D02*
D03*
Y42887D02*
D03*
Y46136D02*
D03*
Y49387D02*
D03*
Y52636D02*
D03*
Y64379D02*
D03*
Y67629D02*
D03*
Y70879D02*
D03*
Y74129D02*
D03*
Y77379D02*
D03*
Y80629D02*
D03*
G54D278*
X27866Y28456D02*
D03*
Y56449D02*
D03*
Y84441D02*
D03*
G54D279*
X5994Y26942D02*
D03*
X6174Y3332D02*
D03*
X41914Y26282D02*
D03*
X11323Y21203D02*
D03*
X41917Y6700D02*
D03*
X5994Y54934D02*
D03*
X6174Y31324D02*
D03*
X41914Y54274D02*
D03*
X11323Y49195D02*
D03*
X41917Y34692D02*
D03*
X5994Y82926D02*
D03*
X6174Y59316D02*
D03*
X41914Y82266D02*
D03*
X11323Y77188D02*
D03*
X41917Y62684D02*
D03*
G54D280*
X6002Y26632D02*
D03*
Y27232D02*
D03*
X6182Y3022D02*
D03*
Y3622D02*
D03*
X41922Y25972D02*
D03*
Y26572D02*
D03*
X11331Y21493D02*
D03*
Y20893D02*
D03*
X41909Y7009D02*
D03*
Y6409D02*
D03*
X6002Y54624D02*
D03*
Y55224D02*
D03*
X6182Y31014D02*
D03*
Y31614D02*
D03*
X41922Y53964D02*
D03*
Y54564D02*
D03*
X11331Y49486D02*
D03*
Y48886D02*
D03*
X41909Y35001D02*
D03*
Y34402D02*
D03*
X6002Y82616D02*
D03*
Y83216D02*
D03*
X6182Y59006D02*
D03*
Y59606D02*
D03*
X41922Y81956D02*
D03*
Y82556D02*
D03*
X11331Y77478D02*
D03*
Y76878D02*
D03*
X41909Y62994D02*
D03*
Y62394D02*
D03*
G54D281*
X13699Y15699D02*
D03*
X14699D02*
D03*
X13699Y16699D02*
D03*
X10699Y18699D02*
D03*
Y17699D02*
D03*
Y15699D02*
D03*
X40699Y21699D02*
D03*
X28699Y10699D02*
D03*
X40699Y19699D02*
D03*
X32699Y15699D02*
D03*
X24699Y16699D02*
D03*
Y19699D02*
D03*
X13699Y21699D02*
D03*
X20699Y23699D02*
D03*
X15699Y21699D02*
D03*
X9699Y26699D02*
D03*
X12699Y27699D02*
D03*
X9699Y20699D02*
D03*
X8699Y21699D02*
D03*
X6699Y22699D02*
D03*
X9699Y21699D02*
D03*
X6699Y16699D02*
D03*
X5699Y17699D02*
D03*
X17699Y29699D02*
D03*
X33699Y6699D02*
D03*
X35699D02*
D03*
X37699D02*
D03*
X13699Y43692D02*
D03*
X14699D02*
D03*
X13699Y44692D02*
D03*
X10699Y46691D02*
D03*
Y45691D02*
D03*
Y43692D02*
D03*
X40699Y49692D02*
D03*
X28699Y38691D02*
D03*
X40699Y47691D02*
D03*
X32699Y43692D02*
D03*
X24699Y44692D02*
D03*
Y47691D02*
D03*
X13699Y49692D02*
D03*
X20699Y51691D02*
D03*
X15699Y49692D02*
D03*
X9699Y54692D02*
D03*
X12699Y55691D02*
D03*
X9699Y48692D02*
D03*
X8699Y49692D02*
D03*
X6699Y50691D02*
D03*
X9699Y49692D02*
D03*
X6699Y44692D02*
D03*
X5699Y45691D02*
D03*
X17699Y57691D02*
D03*
X33699Y34692D02*
D03*
X35699D02*
D03*
X37699D02*
D03*
X13699Y71684D02*
D03*
X14699D02*
D03*
X13699Y72684D02*
D03*
X10699Y74684D02*
D03*
Y73684D02*
D03*
Y71684D02*
D03*
X40699Y77684D02*
D03*
X28699Y66684D02*
D03*
X40699Y75684D02*
D03*
X32699Y71684D02*
D03*
X24699Y72684D02*
D03*
Y75684D02*
D03*
X13699Y77684D02*
D03*
X20699Y79684D02*
D03*
X15699Y77684D02*
D03*
X9699Y82684D02*
D03*
X12699Y83684D02*
D03*
X9699Y76684D02*
D03*
X8699Y77684D02*
D03*
X6699Y78684D02*
D03*
X9699Y77684D02*
D03*
X6699Y72684D02*
D03*
X5699Y73684D02*
D03*
X17699Y85684D02*
D03*
X33699Y62684D02*
D03*
X35699D02*
D03*
X37699D02*
D03*
G54D282*
X4142Y20738D02*
D03*
Y21466D02*
D03*
X3122Y20738D02*
D03*
Y21466D02*
D03*
X4142Y48730D02*
D03*
Y49458D02*
D03*
X3122Y48730D02*
D03*
Y49458D02*
D03*
X4142Y76722D02*
D03*
Y77450D02*
D03*
X3122Y76722D02*
D03*
Y77450D02*
D03*
G54D283*
X14699Y25699D02*
D03*
Y53692D02*
D03*
Y81684D02*
D03*
G54D284*
X30146Y28456D02*
D03*
Y27456D02*
D03*
Y26456D02*
D03*
Y25456D02*
D03*
Y24456D02*
D03*
Y56449D02*
D03*
Y55449D02*
D03*
Y54449D02*
D03*
Y53449D02*
D03*
Y52449D02*
D03*
Y84441D02*
D03*
Y83441D02*
D03*
Y82441D02*
D03*
Y81441D02*
D03*
Y80441D02*
D03*
M02*
