M48
;Layer_Color=9474304
;FILE_FORMAT=2:4
INCH,TZ
;TYPE=PLATED
T1F00S00C0.0100
T2F00S00C0.0150
T3F00S00C0.0354
T4F00S00C0.0380
T5F00S00C0.0400
T6F00S00C0.0550
T7F00S00C0.0590
T8F00S00C0.0600
T9F00S00C0.0630
T10F00S00C0.0870
;TYPE=NON_PLATED
T11F00S00C0.1181
%
T01
X2792Y2792
X5462Y2852
X6162Y4082
X6172Y4742
X6252Y5672
X5984
X6319Y5989
X5749Y6169
X4752Y6242
X4209Y6319
X3929
X3522Y6282
X2872Y5552
X7102Y5572
Y5312
X7112Y5882
X8052Y5592
Y5332
X8792Y5379
Y5139
X8809Y6149
X10202Y5642
X10042Y5322
X10032Y5062
X10922Y4232
X11012Y3472
X11952Y3502
X13952Y3332
X16102Y3382
X16092Y4372
X17012Y4382
Y6092
X16029Y6349
X15962Y5632
X15692
X15109Y5189
X14192Y5422
X14189Y5679
X14729Y6189
X12119Y6139
X11849
X11822Y5812
Y5552
X11432Y5672
X8852Y3342
X6732Y3372
X6712Y4322
X18132Y5362
X19082Y3362
X21172Y3402
X21202Y4502
X21192Y5412
X21929Y4859
X21789Y6299
X22129Y5869
X22389
X22772Y6222
X24089Y6029
X24339
X24929Y6249
X26349Y5679
X26292Y4592
X26322Y3382
X27162Y3952
X27142Y5172
X23579Y5209
X24212Y3382
X22142Y3412
X22132Y4182
X35082Y5942
X36522Y4922
X39309Y5239
X39609Y5559
X42702Y5952
X43352Y5312
X43092Y8622
X43022Y10942
X43072Y14252
X43102Y16142
X43112Y18192
X41592Y17672
X40662Y17492
X40622Y18982
X41602Y19742
X40202Y16282
X41112Y15122
X41092Y13172
X40862Y9722
X40902Y6772
X37699Y7119
X35412Y7932
X36452Y10602
X36682Y12702
X37452Y12372
X29469Y14249
X30226Y16693
X31229Y16989
X31699Y18159
X31492Y19832
X31972
X33161Y20827
X33561
X33961
Y21227
Y21627
X33561
Y21227
X33161
Y21627
X34361
X34761
Y21227
X34361
Y20827
X34761
X33459Y18429
X29832Y21742
X24742Y21662
X22519Y21632
X22352Y18542
X22529Y17889
X23652Y17552
X25312Y16532
X26802Y15852
X27152
X26942Y13112
X27159Y12719
X25782Y12612
X25589Y11299
X25009Y11329
Y11579
X24499
X24489Y11339
X24079Y11159
X23999Y10929
X22959Y10629
Y10379
X22779Y10139
X22824Y9905
X23356Y9390
Y8956
X23789
Y9390
X24222
Y8956
Y8523
Y8090
X23789
X23356
Y8523
X23789
X25079Y8800
X25269Y9464
X24979Y7579
X24713
X24929Y7219
X24789Y6969
X24449Y7039
Y6819
X25759Y6549
X26019
X26109Y7049
X29507Y7216
Y6816
X29907
Y7216
X30307
Y6816
X30707
Y7216
Y7616
Y8016
Y8416
X30307
Y8016
X29907
Y8416
X29507
Y8016
Y7616
X29907
X30307
X30389Y9569
X26309Y10859
X26669Y11669
X24249Y12349
X23509Y12659
X23519Y13209
X23019
X22649Y12939
X22189Y12919
X22509Y12449
X22909Y12139
X22639Y15099
X24852Y14262
X26782Y19132
X27162Y19142
X22819Y7579
X22559
X22312Y7572
X22772Y6742
X21789Y6549
X21702Y8372
X21332Y8367
X21279Y8919
X20559Y9279
X20552Y9751
X20670Y10499
X20474Y11011
X20662Y11494
X21079Y11829
X21829Y12439
X21519Y12919
X20819Y13399
X20489Y13079
X20129Y13049
X19809
X19169
X18759Y12949
X18149Y12999
X17879
X17289Y13999
X15809Y13949
X15199Y13989
X15309Y14459
X15059Y15739
X15039Y16049
X15049Y16624
Y16939
X14882Y17202
X14652Y17482
X14099Y16169
X14279Y15469
X16999Y15489
X16959Y16159
X17212Y16492
X17329Y17009
X17002Y17012
X17722Y17022
X18092Y17482
X18889Y16969
X19474Y15864
X19472Y15362
X20622Y15502
X20299Y16109
X20787Y16919
X21097
X21407
X20602Y17402
X20319Y18849
Y19439
X20149Y20249
X20379Y20459
X18809Y20060
X18092Y20063
X17259Y20069
X16949
X16638
X16328
X16329Y19139
X16639
X16638Y18699
X16328
X16638Y18249
X16948
X17262Y18242
X17089Y18699
X16948Y17699
X16638
X16328
X18092Y18852
X18912
X18469Y15669
X18142Y15662
X17679Y15359
Y15989
X15989Y12969
X15689
X14669Y12769
X13789Y12929
X13589Y12739
X12859Y12369
X12479Y12379
X12099
X11909Y12746
X11749Y13039
X10929Y12489
X10609
X10319Y12399
X10069
X9862Y12622
X9049Y12839
Y13099
X9409Y13209
X8749Y12529
X8392Y11882
X8142Y12052
X7852Y12152
X7829Y11569
X6872Y11502
X6382Y11562
Y11792
X6379Y12099
X6609Y13649
X7159Y13489
X7329Y11029
X8619Y10949
X8869Y10549
Y10299
X8623Y10109
X8703Y9889
X9216Y9390
Y8956
X9649
Y9390
X10082
Y8956
Y8523
Y8090
X9649
X9216
Y8523
X9649
X10959Y8809
X11159Y9454
X11372Y11192
X10849Y11279
Y11519
X10359
Y11279
X9809Y11139
X9939Y10939
X11999Y11229
X12839Y10549
X13339Y10639
X13119Y10139
X13199Y9909
X13716Y9390
X14149
Y8956
X13716
Y8523
X14149
X14582
Y8956
Y9390
X15629Y9474
X15459Y8819
X15512Y7882
X15309Y7579
X15073
X15369Y7219
Y6969
X15902Y7462
X16322Y7682
X16209Y6679
X16342Y6402
X14582Y8090
X14149
X13716
X13179Y7599
Y7379
X13079Y7069
X13329
X12862Y7512
X12269Y7419
X11979Y7509
X11939Y7979
X12379Y7789
X10972Y7452
X10789Y7599
X10569
X10449Y7219
Y6959
X11682Y6732
X8789Y7059
X8479Y7069
X8689Y7359
Y7579
X7849Y7649
Y7949
Y8249
X7412Y7622
X7332Y6932
X6792
X6459Y7659
X6359Y7949
X6450Y9160
X6669Y9829
X7872Y6942
X8022Y6692
X11279Y12039
X14109Y11399
X14309Y11139
X14439Y10939
X15749Y10979
X15669Y11189
X15932Y11359
X16159
X16489Y10769
X16959Y11069
X16859Y11919
X18432Y11522
X18852
X18741Y11011
X18751Y10499
X19499Y10430
Y11523
X19579Y8509
X19349
X18729Y9039
X18359Y8159
X18109
X17599Y9449
X16819Y9499
X21289Y10039
X20699Y8129
X20369Y13889
X11172Y16142
X10862Y16132
X10242Y15632
X10319Y17389
X11009Y17289
X10989Y18409
X11824Y18458
X11729Y18089
X12812Y18212
X12842Y19252
X13479Y19679
X13862Y19662
X13907Y20807
X13362Y20552
X14734Y20443
Y20807
X14520Y21699
X14109Y21629
X15269Y21809
X10602Y21042
X10499Y20173
X10873
Y19799
Y19425
X10499
Y19799
X10127
X10123Y20177
X10125Y19416
X8109Y17139
X5439Y13059
Y12799
X5382Y12502
X5909Y11849
X5829Y11619
X5439Y11259
X5219
X4259Y10969
Y10749
X4149Y10469
X4229Y10249
X4743Y9750
X5176
Y9316
X4743
Y8883
X5176
X5609
Y9316
Y9750
Y8450
X5176
X4743
X4212Y7963
Y7733
X3299Y7829
X3302Y8182
X3169Y8709
X3299Y7069
X3519
X4602Y7052
X5869Y7329
X6199Y7169
X6209Y7589
X6099Y7949
X4159Y12399
Y12679
X3819Y13449
X3409Y13719
X3262Y13982
X4669Y13519
X4929Y13299
X3332Y20402
X5479Y21539
X5632Y22072
X5872Y23622
X5952Y25192
X4412Y25092
X4442Y24512
X2762Y24562
X2812Y26322
X3872Y26642
X5372Y27062
X5132Y30122
X5462Y30844
X6162Y32074
X6172Y32734
X6252Y33664
X5984
X6319Y33981
X5749Y34162
X4752Y34234
X4209Y34311
X3929
X3522Y34274
X3519Y35062
X3299
Y35821
X3302Y36174
X3169Y36702
X4743Y36876
X5176
Y37309
X4743
X5609
Y36876
Y36442
X5176
X4743
X4212Y35955
Y35725
X4602Y35044
X5869Y35322
X6199Y35161
X6209Y35582
X6099Y35942
X2872Y33544
X2792Y30784
X2862Y28212
X2832Y22002
X6892Y24282
X7815Y25118
X8602
X9116Y25131
X9489Y25359
X10119Y24419
X10699Y24369
X10649Y24689
X8799Y24350
X12096Y23917
X12978Y23381
X12835Y22923
X14452Y22952
X14912Y23132
X14932Y23762
X15389Y23549
X15402Y22932
X15909Y22859
X15989Y22429
X15394Y22018
X14370Y21988
X14369Y22229
X13559Y24119
X12849Y24629
X15215Y24506
X15594Y24525
X16142Y24744
X16659Y23259
X18332Y23322
X18622Y23402
X19812Y24052
X20592Y22362
X20588Y21980
X21140Y21990
X21139Y22359
X21749Y22369
X21728Y21990
X21262Y26462
X21812Y27432
X21892Y27902
X20112Y27052
X19082Y27192
X19002Y27932
X19213Y28583
X19587Y29567
X19082Y31354
X21172Y31394
X21202Y32494
X21192Y33404
X21929Y32852
X21789Y34292
Y34541
X21702Y36364
X21332Y36359
X21279Y36911
X20559Y37271
X20699Y36121
X19579Y36502
X19349
X18729Y37032
X18359Y36151
X18109
X17599Y37441
X16819Y37492
X15629Y37466
X15459Y36811
X15512Y35874
X15309Y35571
X15073
X15369Y35212
Y34962
X15902Y35454
X16322Y35674
X16209Y34671
X16342Y34394
X16029Y34341
X15962Y33624
X15692
X15109Y33182
X14192Y33414
X14189Y33672
X14729Y34181
X14582Y36082
Y36516
Y36949
Y37382
X14149
Y36949
X13716
Y37382
Y36516
X14149
Y36082
X13716
X13179Y35591
Y35371
X13079Y35062
X13329
X12862Y35504
X12269Y35412
X11979Y35501
X11939Y35972
X12379Y35782
X10972Y35444
X10789Y35591
X10569
X10449Y35212
Y34952
X11682Y34724
X11849Y34132
X12119
X11822Y33804
Y33544
X11432Y33664
X10202Y33634
X10042Y33314
X10032Y33054
X8792Y33131
Y33372
X8052Y33324
Y33584
X7102Y33564
Y33304
X7112Y33874
X7332Y34924
X6792
X6459Y35652
X6359Y35942
X6450Y37152
X7849Y36242
Y35942
Y35642
X7412Y35614
X7872Y34934
X8022Y34684
X8479Y35062
X8789Y35052
X8689Y35352
Y35571
X9216Y36082
X9649
X10082
Y36516
X9649
X9216
Y36949
Y37382
X9649
Y36949
X10082
Y37382
X11159Y37446
X10959Y36802
X10922Y32224
X11012Y31464
X11952Y31494
X13952Y31324
X13172Y29982
X11472Y29772
X9752Y30012
X10192Y28852
X8852Y31334
X6732Y31364
X6712Y32314
X7062Y30002
X7012Y27372
X10787Y22598
X15382Y30012
X16102Y31374
X16092Y32364
X17012Y32374
Y34084
X18132Y33354
X8809Y34141
X22129Y33861
X22389
X22772Y34214
Y34734
X22819Y35571
X22559
X22312Y35564
X23356Y36082
X23789
X24222
Y36516
X23789
X23356
Y36949
Y37382
X23789
Y36949
X24222
Y37382
X25269Y37457
X25079Y36792
X24979Y35571
X24713
X24929Y35212
X24789Y34962
X24449Y35031
Y34811
X24339Y34021
X24089
X24929Y34241
X25759Y34541
X26019
X26109Y35041
X26349Y33672
X26292Y32584
X26322Y31374
X27162Y31944
X27142Y33164
X23579Y33201
X24212Y31374
X22142Y31404
X22132Y32174
X22439Y29913
X22942Y27332
X23752Y26882
X24402Y27472
X24962Y28282
Y29002
X25832Y28202
X26812Y28332
X26342Y27552
X25569Y26929
X25542Y26202
X26812Y25812
X27009Y24389
X25589Y23659
Y23329
X26529Y22199
X28049
Y22539
X30662Y22892
X31152Y22912
X31342Y23262
X31832Y24122
X33161Y22027
X33561
X33961
X34361
X34761
X35722Y27632
X36522Y32914
X35082Y33934
X35412Y35924
X30707Y36008
Y36408
X30307
Y36008
X29907
Y36408
X29507
Y36008
Y35608
Y35208
Y34808
X29907
Y35208
X30307
Y34808
X30707
Y35208
Y35608
X30307
X29907
X30389Y37562
X31329Y30069
X31699Y30079
X30949Y29139
X30549
X24819Y24879
X38532Y26412
X39532Y26092
X39388Y27652
Y28479
X37927Y28418
X39812Y29732
X43182Y29902
X43082Y26762
X43102Y25042
X41702Y25032
Y23742
X41032Y22272
X40699Y22139
X40062Y24592
X40742Y27102
X39309Y33231
X39609Y33551
X40902Y34764
X42702Y33944
X43352Y33304
X43092Y36614
X37699Y35111
X40862Y37714
X43022Y38934
X43072Y42244
X43102Y44134
X43112Y46184
X41592Y45664
X40662Y45484
X40622Y46974
X41602Y47734
X41032Y50264
X40699Y50132
X41702Y51734
Y53024
X43102Y53034
X40062Y52584
X40202Y44274
X41112Y43114
X41092Y41164
X37452Y40364
X36682Y40694
X36452Y38594
X26309Y38851
X25589Y39292
X25009Y39321
Y39571
X24499
X24489Y39332
X24079Y39151
X23999Y38921
X22959Y38621
Y38372
X22779Y38131
X22824Y37897
X22909Y40132
X22509Y40441
X22649Y40932
X22189Y40911
X23019Y41202
X23519
X23509Y40651
X24249Y40342
X25782Y40604
X27159Y40711
X26942Y41104
X26669Y39662
X26802Y43844
X27152
X25312Y44524
X23652Y45544
X22529Y45882
X22352Y46534
X22519Y49624
X24742Y49654
X26529Y50191
X28049
Y50532
X29832Y49734
X30662Y50884
X31152Y50904
X31342Y51254
X31832Y52114
X33161Y50019
Y49619
Y49219
Y48819
X33561
X33961
Y49219
Y49619
Y50019
X33561
Y49619
Y49219
X34361
Y49619
Y50019
X34761
Y49619
Y49219
Y48819
X34361
X33459Y46421
X31699Y46151
X31229Y44981
X30226Y44685
X29469Y42242
X24852Y42254
X22639Y43092
X26782Y47124
X27162Y47134
X31492Y47824
X31972
X27009Y52382
X25589Y51652
Y51322
X24819Y52871
X21749Y50361
X21728Y49983
X21140
X21139Y50352
X20592Y50354
X20588Y49973
X20379Y48451
X20149Y48242
X20319Y47432
Y46842
X18912Y46844
X18092
X17089Y46691
X16638
X16328
X16329Y47132
X16639
X16638Y46241
X16948
X17262Y46234
X16948Y45691
X16638
X16328
X17002Y45004
X17329Y45002
X17722Y45014
X18092Y45474
X18889Y44962
X19474Y43857
X19472Y43354
X20622Y43494
X20299Y44102
X20787Y44911
X21097
X21407
X20602Y45394
X20369Y41881
X20489Y41072
X20129Y41041
X19809
X19169
X18759Y40942
X18149Y40992
X17879
X17289Y41992
X15809Y41941
X15199Y41982
X15309Y42452
X15059Y43731
X15039Y44042
X15049Y44616
Y44931
X14882Y45194
X14652Y45474
X14099Y44162
X14279Y43461
X16999Y43481
X16959Y44152
X17212Y44484
X17679Y43981
Y43351
X18142Y43654
X18469Y43661
X18432Y39514
X18852
X18741Y39003
X18751Y38491
X19499Y38422
Y39515
X20662Y39486
X20474Y39003
X20670Y38491
X20552Y37743
X21289Y38031
X21079Y39822
X21829Y40431
X21519Y40911
X20819Y41392
X15989Y40961
X15689
X14669Y40761
X13789Y40922
X13589Y40732
X12859Y40361
X12479Y40371
X12099
X11909Y40738
X11749Y41031
X10929Y40482
X10609
X10319Y40392
X10069
X9862Y40614
X9049Y40831
Y41091
X9409Y41202
X8749Y40521
X8392Y39874
X8142Y40044
X7852Y40144
X7829Y39562
X6872Y39494
X6382Y39554
Y39784
X6379Y40092
X6609Y41642
X7159Y41481
X7329Y39021
X8619Y38942
X8869Y38542
Y38291
X8623Y38101
X8703Y37882
X6669Y37822
X9939Y38932
X9809Y39132
X10359Y39272
Y39511
X10849
Y39272
X11372Y39184
X11999Y39221
X12839Y38542
X13339Y38631
X13119Y38131
X13199Y37901
X14439Y38932
X14309Y39132
X14109Y39392
X15669Y39181
X15749Y38972
X15932Y39351
X16159
X16489Y38761
X16959Y39062
X16859Y39911
X11279Y40031
X11172Y44134
X10862Y44124
X10242Y43624
X10319Y45381
X11009Y45282
X10989Y46402
X11824Y46451
X11729Y46082
X12812Y46204
X12842Y47244
X13479Y47671
X13862Y47654
X13907Y48799
X13362Y48544
X14734Y48435
Y48799
X14520Y49692
X14370Y49980
X14369Y50222
X14452Y50944
X14912Y51124
X14932Y51754
X15389Y51542
X15402Y50924
X15909Y50851
X15989Y50422
X15394Y50010
X15269Y49802
X14109Y49622
X12835Y50915
X12978Y51373
X13559Y52112
X12849Y52621
X12096Y51909
X10699Y52361
X10649Y52681
X10119Y52411
X8799Y52343
X8602Y53110
X9116Y53123
X7815Y53110
X6892Y52274
X10787Y50591
X10602Y49034
X10499Y48166
X10873
Y47792
Y47417
X10499
Y47792
X10127
X10123Y48169
X10125Y47408
X8109Y45132
X16328Y48061
X16638
X16949
X17259
X18092Y48055
X18809Y48052
X18622Y51394
X18332Y51314
X16659Y51252
X16142Y52736
X15594Y52517
X15215Y52498
X19812Y52044
X5872Y51614
X5952Y53184
X4412Y53084
X4442Y52504
X2762Y52554
X2832Y49994
X3332Y48394
X5479Y49531
X5632Y50064
X5439Y41052
Y40792
X5382Y40494
X5909Y39841
X5829Y39611
X5439Y39251
X5219
X4259Y38962
Y38742
X4149Y38461
X4229Y38242
X4743Y37742
X5176
X5609
X4159Y40392
Y40672
X3819Y41441
X3409Y41712
X3262Y41974
X4669Y41512
X4929Y41291
X5372Y55054
X3872Y54634
X2812Y54314
X2862Y56204
X2792Y58776
X5462Y58836
X5132Y58114
X6162Y60066
X6172Y60726
X6252Y61656
X5984
X6319Y61974
X5749Y62154
X4752Y62226
X4209Y62304
X3929
X3522Y62266
X3519Y63054
X3299
Y63814
X3302Y64166
X3169Y64694
X4743Y64868
X5176
Y65301
Y65734
X4743
Y65301
X5609
Y65734
Y64868
Y64435
X5176
X4743
X4212Y63947
Y63717
X4602Y63036
X5869Y63314
X6199Y63154
X6209Y63574
X6099Y63934
X5829Y67604
X5909Y67834
X5439Y67244
X5219
X4259Y66954
Y66734
X4149Y66454
X4229Y66234
X4159Y68384
Y68664
X5382Y68486
X5439Y68784
X2872Y61536
X7102Y61556
Y61296
X7112Y61866
X8052Y61576
Y61316
X8792Y61364
Y61124
X8809Y62134
X8789Y63044
X8479Y63054
X8689Y63344
Y63564
X7849Y63634
Y63934
Y64234
X7412Y63606
X7332Y62916
X6792
X6459Y63644
X6359Y63934
X6450Y65145
X6669Y65814
X7329Y67014
X6872Y67486
X6382Y67546
Y67776
X6379Y68084
X7852Y68136
X8142Y68036
X8392Y67866
X7829Y67554
X8619Y66934
X8869Y66534
Y66284
X8623Y66094
X8703Y65874
X9216Y65374
Y64941
X9649
Y65374
X10082
Y64941
Y64508
Y64075
X9649
X9216
Y64508
X9649
X10959Y64794
X11159Y65439
X11372Y67176
X10849Y67264
Y67504
X10359
Y67264
X9809Y67124
X9939Y66924
X10069Y68384
X10319
X10609Y68474
X10929
X11279Y68024
X12099Y68364
X12479
X12859Y68354
X13589Y68724
X14669Y68754
X14109Y67384
X14309Y67124
X14439Y66924
X15749Y66964
X15669Y67174
X15932Y67344
X16159
X16489Y66754
X16959Y67054
X16859Y67904
X18432Y67506
X18852
X18741Y66995
X18751Y66483
X19499Y66414
Y67507
X20662Y67478
X20474Y66995
X20670Y66483
X20552Y65735
X20559Y65264
X21279Y64904
X21332Y64351
X21702Y64356
X20699Y64114
X19579Y64494
X19349
X18729Y65024
X18359Y64144
X18109
X17599Y65434
X16819Y65484
X15629Y65459
X15459Y64804
X15512Y63866
X15309Y63564
X15073
X15369Y63204
Y62954
X15902Y63446
X16322Y63666
X16209Y62664
X16342Y62386
X16029Y62334
X15962Y61616
X15692
X15109Y61174
X14192Y61406
X14189Y61664
X14729Y62174
X14582Y64075
Y64508
Y64941
Y65374
X14149
Y64941
X13716
Y65374
Y64508
X14149
Y64075
X13716
X13179Y63584
Y63364
X13079Y63054
X13329
X12862Y63496
X12269Y63404
X11979Y63494
X11939Y63964
X12379Y63774
X10972Y63436
X10789Y63584
X10569
X10449Y63204
Y62944
X11682Y62716
X11849Y62124
X12119
X11822Y61796
Y61536
X11432Y61656
X10202Y61626
X10042Y61306
X10032Y61046
X10922Y60216
X11012Y59456
X11952Y59486
X13952Y59316
X13172Y57974
X11472Y57764
X9752Y58004
X10192Y56844
X8852Y59326
X6732Y59356
X6712Y60306
X7062Y57994
X7012Y55364
X9489Y53351
X15382Y58004
X16102Y59366
X16092Y60356
X17012Y60366
Y62076
X18132Y61346
X19082Y59346
X21172Y59386
X21202Y60486
X21192Y61396
X21929Y60844
X21789Y62284
Y62534
X21289Y66024
X21079Y67814
X21829Y68424
X11909Y68730
X11999Y67214
X12839Y66534
X13339Y66624
X13119Y66124
X13199Y65894
X9862Y68606
X9049Y68824
X8749Y68514
X7872Y62926
X8022Y62676
X19587Y57559
X19213Y56575
X19002Y55924
X19082Y55184
X20112Y55044
X21262Y54454
X21812Y55424
X21892Y55894
X22942Y55324
X23752Y54874
X24402Y55464
X24962Y56274
Y56994
X25832Y56194
X26812Y56324
X26342Y55544
X25569Y54921
X25542Y54194
X26812Y53804
X26322Y59366
X26292Y60576
X26349Y61664
X26019Y62534
X25759
X26109Y63034
X24929Y63204
X24789Y62954
X24449Y63024
Y62804
X24339Y62014
X24089
X24929Y62234
X24979Y63564
X24713
X24222Y64075
X23789
X23356
Y64508
X23789
X24222
Y64941
Y65374
X23789
X23356
Y64941
X23789
X25079Y64785
X25269Y65449
X25009Y67314
Y67564
X24499
X24489Y67324
X24079Y67144
X23999Y66914
X22959Y66614
Y66364
X22779Y66124
X22824Y65889
X22909Y68124
X22509Y68434
X23509Y68644
X24249Y68334
X25782Y68596
X27159Y68704
X26669Y67654
X26309Y66844
X25589Y67284
X22819Y63564
X22559
X22312Y63556
X22772Y62726
Y62206
X22389Y61854
X22129
X22132Y60166
X22142Y59396
X22439Y57905
X24212Y59366
X23579Y61194
X27142Y61156
X27162Y59936
X29507Y62800
Y63200
X29907
Y62800
X30307
Y63200
X30707
Y62800
Y63600
Y64000
Y64400
X30307
Y64000
X29907
Y64400
X29507
Y64000
Y63600
X29907
X30307
X30389Y65554
X35412Y63916
X35082Y61926
X36522Y60906
X36452Y66586
X36682Y68686
X37452Y68356
X35722Y55624
X30949Y57132
X30549
X31329Y58061
X31699Y58071
X37927Y56410
X39388Y56471
Y55644
X39532Y54084
X38532Y54404
X40742Y55094
X43082Y54754
X43182Y57894
X39812Y57724
X39309Y61224
X39609Y61544
X40902Y62756
X42702Y61936
X43352Y61296
X43092Y64606
X43022Y66926
X40862Y65706
X37699Y63104
X41092Y69156
X41112Y71106
X40202Y72266
X40662Y73476
X41592Y73656
X43112Y74176
X43102Y72126
X43072Y70236
X41602Y75726
X40622Y74966
X40699Y78124
X41032Y78256
X41702Y79726
Y81016
X43102Y81026
X43082Y82746
X40742Y83086
X39388Y83636
Y84463
X37927Y84402
X38532Y82396
X39532Y82076
X40062Y80576
X35722Y83616
X34761Y78011
X34361
X33961
Y77611
Y77211
Y76811
X33561
X33161
Y77211
X33561
Y77611
X33161
Y78011
X33561
X34361Y77611
X34761
Y77211
X34361
Y76811
X34761
X33459Y74414
X31699Y74144
X31229Y72974
X30226Y72677
X29469Y70234
X26942Y69096
X26802Y71836
X27152
X25312Y72516
X23652Y73536
X22529Y73874
X22352Y74526
X22519Y77616
X24742Y77646
X26529Y78184
X28049
Y78524
X29832Y77726
X30662Y78876
X31152Y78896
X31342Y79246
X31832Y80106
X31972Y75816
X31492
X27162Y75126
X26782Y75116
X25589Y79314
Y79644
X24819Y80864
X25542Y82186
X25569Y82914
X26342Y83536
X25832Y84186
X24962Y84266
X24402Y83456
X23752Y82866
X22942Y83316
X26812Y84316
Y81796
X27009Y80374
X24852Y70246
X23519Y69194
X23019
X22649Y68924
X22189Y68904
X22639Y71084
X20622Y71486
X20299Y72094
X19474Y71849
X19472Y71346
X18469Y71654
X18142Y71646
X17679Y71344
Y71974
X16959Y72144
X17212Y72476
X17329Y72994
X17002Y72996
X17722Y73006
X18092Y73466
X18889Y72954
X18912Y74836
X18092
X17089Y74684
X16638
X16328
X16329Y75124
X16639
X16638Y74234
X16948
X17262Y74226
X16948Y73684
X16638
X16328
X14652Y73466
X14882Y73186
X15049Y72923
Y72608
X15039Y72034
X15059Y71724
X14279Y71454
X14099Y72154
X15309Y70444
X15199Y69974
X15809Y69934
X15689Y68954
X15989
X17879Y68984
X18149
X18759Y68934
X19169Y69034
X19809
X20129
X20489Y69064
X20819Y69384
X20369Y69874
X21519Y68904
X21407Y72904
X21097
X20787
X20602Y73386
X20319Y74834
Y75424
X20149Y76234
X20379Y76444
X20588Y77965
X20592Y78346
X21139Y78344
X21140Y77975
X21728
X21749Y78354
X19812Y80036
X18622Y79386
X18332Y79306
X16659Y79244
X15909Y78844
X15989Y78414
X15394Y78002
X15269Y77794
X14520Y77684
X14370Y77972
X14369Y78214
X14452Y78936
X14912Y79116
X14932Y79746
X15389Y79534
X15402Y78916
X15215Y80490
X15594Y80509
X16142Y80728
X13559Y80104
X12849Y80614
X12978Y79365
X12835Y78907
X12096Y79902
X10699Y80354
X10649Y80674
X10119Y80404
X8799Y80335
X8602Y81102
X9116Y81115
X9489Y81344
X7815Y81102
X6892Y80267
X7012Y83356
X10787Y78583
X10602Y77026
X10499Y76158
X10873
Y75784
Y75410
X10499
Y75784
X10127
X10123Y76161
X10125Y75400
X10989Y74394
X11824Y74443
X11729Y74074
X12812Y74196
X12842Y75236
X13479Y75664
X13862Y75646
X13907Y76791
X13362Y76536
X14734Y76427
Y76791
X14109Y77614
X16328Y76054
X16638
X16949
X17259
X18092Y76047
X18809Y76044
X16999Y71474
X17289Y69984
X13789Y68914
X11749Y69024
X9409Y69194
X9049Y69084
X7159Y69474
X6609Y69634
X8109Y73124
X10319Y73374
X11009Y73274
X10862Y72116
X11172Y72126
X10242Y71616
X19082Y83176
X19002Y83916
X20112Y83036
X21262Y82446
X21812Y83416
X21892Y83886
X5372Y83046
X3872Y82626
X2812Y82306
X2762Y80546
X4442Y80496
X4412Y81076
X5952Y81176
X5872Y79606
X5632Y78056
X5479Y77524
X2832Y77986
X3332Y76386
X3262Y69966
X3409Y69704
X3819Y69434
X4669Y69504
X4929Y69284
X5439Y69044
X2862Y84196
X5132Y86106
X7062Y85986
X9752Y85996
X10192Y84836
X11472Y85756
X13172Y85966
X15382Y85996
X19587Y85551
X19213Y84567
X22439Y85897
X24962Y84986
X30549Y85124
X30949
X31329Y86054
X31699Y86064
X39812Y85716
X43182Y85886
T02
X3810Y3810
X3510Y4510
X3810Y5210
X4510Y5510
X5210Y5210
X5510Y4510
X5210Y3810
X4510Y3510
X27869Y3409
Y3919
Y4439
X28789
Y3929
Y3409
X29540Y3891
X30609Y3759
X30589Y3409
X31339Y3379
X31819
X32269Y3539
Y3959
Y4389
X32979Y4889
X30562Y4927
Y5347
X31089Y5979
X28789Y5959
Y5439
X27869
Y5959
X29549Y5189
X35839Y4889
X37182Y4942
X36209Y6299
X35279Y3949
X38012Y4322
X38269Y4799
X38849Y4809
X38569Y5309
X39109Y3719
X41212Y3810
X40912Y4510
X41212Y5210
X41912Y5510
X42612Y5210
X42912Y4510
X42612Y3810
X41912Y3510
X40072Y6062
X38569Y6519
X39099Y7439
X38239Y7949
X40019Y8389
X40459Y8889
X39079Y9349
X38789Y10519
X37839Y10509
X37789Y11079
X37879Y11459
X38139Y11769
X39079Y12519
X38909Y13049
X39069Y13889
X38069Y14089
X38149Y14869
X39079Y15789
X39069Y17219
X39979Y18139
X39739Y19219
X39869Y20509
X39079Y20449
X38249Y20499
X37969Y19379
X38159Y18149
X40699Y20289
X40709Y21069
X40039Y21369
X42842Y20222
X40439Y15419
X39989Y14899
X40659Y14329
X40459Y13219
X40039Y11659
X36699Y11429
X36249
X35209Y11679
X35099Y11079
X35199Y10479
X34809Y10099
X34319Y10269
X34109Y11019
Y11539
Y12049
X33189
Y11539
Y11019
X32979Y10279
X33559Y8429
X34279Y8279
X34209Y7649
X34039Y7049
X35229Y6709
X35859Y7319
X35889Y8269
X36532Y8402
X37159Y8229
X36509Y9999
X35444Y12424
X35909Y13049
X37229Y13029
Y15089
X36672Y15042
X36139Y15089
X36789Y15699
X36562Y18262
X35899Y18179
X37249Y18189
X36579Y20089
X35699Y20699
Y21699
X36699
X35189Y19369
X34433Y19481
X34197Y19245
X33724
X33961Y19481
X33449
X33213Y19245
X32780Y19481
Y19875
Y20268
X32549Y20739
X32559Y21459
X31749Y20969
X30979Y21079
X31172Y20006
X32772Y17572
X33089Y17149
X33589
X34099
X34402Y17152
X34422Y17492
X34779Y14104
X35179Y14069
X32969Y13709
X32312Y15062
X31639Y15939
X30239Y15619
X30219Y15159
X30089Y11849
X30179Y10939
X28579Y10149
X28229Y10189
Y9689
X28609
Y9169
X28229Y9179
X28199Y8149
Y7639
Y7119
X27279
Y7639
Y8149
X27149Y8509
X28849Y7869
X28789Y6489
X27869Y6487
X31969Y6859
X32282Y6862
Y7362
X31969Y7359
Y7859
X32282Y7852
X27479Y11059
X27559Y13509
X24259Y13939
X23019Y14029
X23052Y15182
X22659Y15869
X22822Y16312
X24619Y16219
X24729Y15799
Y15339
X25109Y17489
X23949Y18519
X24389Y19019
X23612Y19392
X23509Y19809
X23489Y20319
X23929Y21189
X25079Y20769
Y20319
X23969Y12809
X19199Y14169
X18259
X14539Y15129
X13832Y14646
X14509Y16439
X14489Y16889
X13439Y17491
X14519Y19299
X14989Y18869
X15030Y19754
X11823Y19904
X12176Y21171
X10810Y21873
X10169Y21459
X8669Y20529
X8659Y18689
X9039Y18699
X10139Y18139
X10521Y18147
X10721Y16833
X10722Y16442
X10741Y15111
Y14727
X9399Y15339
Y15659
X8649Y16099
X7689Y16089
X7699Y15669
Y15349
X8169Y17889
X7699Y19129
X7419Y19849
X7649Y21489
X7049
X6719Y21929
X19802Y21762
X21662Y21032
X4092Y20292
X3329Y15229
X6341Y22089
X6119Y22349
X6099Y23179
X5879Y24549
X5169Y23889
X5210Y27826
X5510Y28526
X5210Y29226
X4510Y29526
X3810Y29226
X3510Y28526
X3810Y27826
X4510Y27526
Y31503
X3810Y31803
X3510Y32503
X3810Y33203
X4510Y33503
X5210Y33203
X5510Y32503
X5210Y31803
X7221Y23150
X11075Y22148
X19802Y22142
X17289Y29969
X27869Y31402
Y31911
Y32431
X28789
Y31922
Y31402
X29540Y31883
X30609Y31751
X30589Y31402
X31339Y31372
X31819
X32269Y31532
Y31951
Y32381
X32979Y32882
X30562Y32919
Y33339
X31089Y33972
X31969Y34852
X32282Y34854
Y35354
X31969Y35352
Y35852
X32282Y35844
X33559Y36421
X34279Y36272
X34209Y35642
X34039Y35041
X35229Y34701
X35859Y35312
X35889Y36261
X36532Y36394
X37159Y36221
X36209Y34292
X35839Y32882
X37182Y32934
X37140Y30160
X36392Y29963
Y29559
X35859Y29109
X35535
X35152Y29933
X34827
X33813Y29835
X33380Y29500
Y29107
X32790Y28467
Y28063
X32849Y27679
X33223Y27650
X33597
X32534Y27296
Y26961
Y26626
X31648
Y26961
Y27296
Y27630
X32612Y25622
Y25278
Y24933
Y24589
X33459Y24079
X33899Y23469
X34689Y23329
X34699Y22699
X33699
X32699
X32569Y22169
X35699Y22509
X36589Y22689
X36659Y23699
X36669Y24089
X37572Y23452
X35379Y23289
X34954Y24079
X35279Y31941
X29549Y33182
X28789Y33431
Y33951
Y34481
X27869Y34479
Y33951
Y33431
X28199Y35111
Y35631
Y36142
X27279
X27149Y36502
X27279Y35631
Y35111
X28849Y35861
X28609Y37162
X28229Y37171
X39079Y37341
X40459Y36881
X40019Y36381
X39099Y35431
X38239Y35942
X38569Y34511
X38569Y33301
X38849Y32801
X38269Y32792
X38012Y32314
X39109Y31711
X41212Y31803
X40912Y32503
X41212Y33203
X41912Y33503
X42612Y33203
X42912Y32503
X42612Y31803
X41912Y31503
Y29526
X42612Y29226
X42912Y28526
X42612Y27826
X41912Y27526
X41212Y27826
X40912Y28526
X41212Y29226
X38272Y29786
X37922Y28762
X37654Y27989
X39069Y25619
X38169Y24639
X39069Y23659
X39079Y22359
X42699Y23109
X40072Y34054
X40039Y39652
X39079Y40511
X38909Y41041
X39069Y41881
X38069Y42081
X38149Y42861
X39079Y43781
X39069Y45212
X39979Y46132
X39739Y47211
X39869Y48502
X39079Y48442
X38249Y48492
X37969Y47372
X38159Y46142
X40699Y48281
X40709Y49061
X40039Y49362
X39079Y50352
X39069Y51652
X38169Y52632
X42699Y51101
X42842Y48214
X40439Y43411
X39989Y42892
X40659Y42322
X40459Y41212
X38139Y39762
X37879Y39451
X37789Y39072
X37839Y38502
X38789Y38512
X36509Y37991
X36699Y39422
X36249
X35209Y39671
X35099Y39072
X35199Y38472
X34809Y38091
X34319Y38261
X34109Y39011
Y39532
Y40041
X33189
Y39532
Y39011
X32979Y38272
X32969Y41701
X32312Y43054
X31639Y43931
X30239Y43611
X30219Y43151
X30089Y39841
X30179Y38932
X28579Y38142
X28229Y38182
Y37682
X28609
X27479Y39051
X27559Y41501
X24259Y41932
X23019Y42021
X23052Y43174
X22659Y43861
X22822Y44304
X24619Y44212
X24729Y43791
Y43331
X25109Y45482
X23949Y46512
X24389Y47011
X23612Y47384
X23509Y47801
X23489Y48312
X23929Y49181
X25079Y48762
Y48312
X31172Y47998
X30979Y49071
X31749Y48962
X32549Y48731
X32780Y48261
Y47867
Y47473
X33449
X33213Y47237
X33724
X33961Y47473
X34433
X34197Y47237
X35189Y47361
X35699Y48692
Y49692
Y50501
X36589Y50682
X36659Y51691
X36669Y52081
X37572Y51444
X35379Y51281
X34689Y51322
X34699Y50691
X33699
X33899Y51462
X33459Y52071
X32612Y52581
Y52925
X32699Y50691
X32569Y50161
X32559Y49451
X32772Y45564
X33089Y45142
X33589
X34099
X34402Y45144
X34422Y45484
X35899Y46171
X36562Y46254
X37249Y46182
X36579Y48081
X36699Y49692
X34954Y52071
X34779Y42096
X35179Y42062
X35909Y41041
X35444Y40417
X37229Y41021
Y43081
X36672Y43034
X36139Y43081
X36789Y43692
X23969Y40802
X19199Y42161
X18259
X14539Y43122
X13832Y42638
X14509Y44432
X14489Y44882
X13439Y45483
X14519Y47291
X14989Y46862
X15030Y47746
X11823Y47896
X12176Y49163
X10810Y49865
X11075Y50140
X10169Y49451
X8669Y48521
X8659Y46681
X9039Y46691
X10139Y46132
X10521Y46139
X10721Y44825
X10722Y44434
X10741Y43103
Y42719
X9399Y43331
Y43651
X8649Y44092
X7689Y44082
X7699Y43661
Y43341
X8169Y45882
X7699Y47122
X7419Y47842
X7649Y49482
X7049
X6719Y49921
X7221Y51142
X19802Y50134
Y49754
X21662Y49024
X6341Y50082
X6119Y50342
X6099Y51171
X5879Y52541
X5169Y51881
X4092Y48284
X3329Y43222
X3810Y55818
X3510Y56518
X3810Y57218
X4510Y57518
X5210Y57218
X5510Y56518
X5210Y55818
X4510Y55518
Y59495
X3810Y59795
X3510Y60495
X3810Y61195
X4510Y61495
X5210Y61195
X5510Y60495
X5210Y59795
X17289Y57962
X27869Y59394
Y59904
Y60424
X28789
Y59914
Y59394
X29540Y59875
X30609Y59744
X30589Y59394
X31339Y59364
X31819
X32269Y59524
Y59944
Y60374
X32979Y60874
X30562Y60911
Y61331
X31089Y61964
X31969Y62844
X32282Y62846
Y63346
X31969Y63344
Y63844
X32282Y63836
X33559Y64414
X34279Y64264
X34209Y63634
X34039Y63034
X35229Y62694
X35859Y63304
X35889Y64254
X36532Y64386
X37159Y64214
X36509Y65984
X36699Y67414
X36249
X35209Y67664
X35099Y67064
X35199Y66464
X34809Y66084
X34319Y66254
X34109Y67004
Y67524
Y68034
X33189
Y67524
Y67004
X32979Y66264
X30179Y66924
X30089Y67834
X28579Y66134
X28229Y66174
Y65674
X28609
Y65154
X28229Y65164
X28199Y64134
Y63624
Y63104
X27279
Y63624
Y64134
X27149Y64494
X28849Y63854
X28789Y62474
Y61944
Y61424
X27869
Y61944
Y62471
X29549Y61174
X35839Y60874
X37182Y60926
X36209Y62284
X35279Y59934
X35152Y57925
X34827
X33813Y57827
X33380Y57492
Y57099
X32790Y56459
Y56055
X32849Y55672
X33223Y55642
X33597
X32534Y55288
Y54953
Y54618
X31648
Y54953
Y55288
Y55622
X32612Y53614
Y53270
X35535Y57101
X35859
X36392Y57551
Y57955
X37140Y58152
X35444Y68409
X27479Y67044
X23969Y68794
X38139Y67754
X37879Y67444
X37789Y67064
X37839Y66494
X38789Y66504
X39079Y65334
X40459Y64874
X40019Y64374
X39099Y63424
X38239Y63934
X38569Y62504
X38569Y61294
X38849Y60794
X38269Y60784
X38012Y60306
X39109Y59704
X41212Y59795
X40912Y60495
X41212Y61195
X41912Y61495
X42612Y61195
X42912Y60495
X42612Y59795
X41912Y59495
Y57518
X42612Y57218
X42912Y56518
X42612Y55818
X41912Y55518
X41212Y55818
X40912Y56518
X41212Y57218
X38272Y57778
X37922Y56754
X37654Y55981
X39069Y53611
X40072Y62046
X40039Y67644
X39079Y68504
X38909Y69034
X39069Y69874
X38069Y70074
X38149Y70854
X39079Y71774
X39069Y73204
X39979Y74124
X39739Y75204
X39869Y76494
X39079Y76434
X38249Y76484
X37969Y75364
X38159Y74134
X40699Y76274
X40709Y77054
X40039Y77354
X39079Y78344
X39069Y79644
X38169Y80624
X39069Y81604
X37654Y83973
X41212Y83810
X41912Y83510
X42612Y83810
X42699Y79094
X42842Y76206
X40439Y71404
X39989Y70884
X40659Y70314
X40459Y69204
X37229Y69014
X35909Y69034
X35179Y70054
X34779Y70088
X32969Y69694
X32312Y71046
X31639Y71924
X30239Y71604
X30219Y71144
X27559Y69494
X24259Y69924
X23019Y70014
X23052Y71166
X22659Y71854
X22822Y72296
X24619Y72204
X24729Y71784
Y71324
X25109Y73474
X23949Y74504
X24389Y75004
X23612Y75376
X23509Y75794
X23489Y76304
X23929Y77174
X25079Y76754
Y76304
X31172Y75991
X30979Y77064
X31749Y76954
X32549Y76724
X32780Y76253
Y75859
Y75465
X33449
X33213Y75229
X33724
X33961Y75465
X34433
X34197Y75229
X35189Y75354
X35699Y76684
Y77684
Y78494
X36589Y78674
X36659Y79684
X36669Y80074
X37572Y79436
X35379Y79274
X34689Y79314
X34699Y78684
X33699
X33899Y79454
X33459Y80064
X32612Y80573
Y80918
Y81262
Y81607
X32534Y82610
Y82945
Y83280
X32849Y83664
X33223Y83634
X33597
X32790Y84047
Y84451
X31648Y83614
Y83280
Y82945
Y82610
X32699Y78684
X32569Y78154
X32559Y77444
X32772Y73556
X33089Y73134
X33589
X34099
X34402Y73136
X34422Y73476
X35899Y74164
X36562Y74246
X37249Y74174
X36579Y76074
X36699Y77684
X34954Y80064
X36139Y71074
X36672Y71026
X37229Y71074
X36789Y71684
X19199Y70154
X18259
X14539Y71114
X13832Y70631
X14509Y72424
X14489Y72874
X13439Y73475
X14519Y75284
X14989Y74854
X15030Y75738
X11823Y75888
X12176Y77155
X10810Y77857
X11075Y78132
X10169Y77444
X8669Y76514
X8659Y74674
X9039Y74684
X10139Y74124
X10521Y74131
X10721Y72817
X10722Y72426
X10741Y71095
Y70711
X9399Y71324
Y71644
X8649Y72084
X7689Y72074
X7699Y71654
Y71334
X8169Y73874
X7699Y75114
X7419Y75834
X7649Y77474
X7049
X6719Y77914
X7221Y79134
X19802Y78126
Y77746
X21662Y77016
X6341Y78074
X6119Y78334
X6099Y79164
X5879Y80534
X5169Y79874
X5210Y83810
X4510Y83510
X3810Y83810
X4092Y76276
X3329Y71214
X3510Y84510
X3810Y85210
X4510Y85510
X5210Y85210
X5510Y84510
X17289Y85954
X33380Y85484
Y85091
X33813Y85819
X34827Y85918
X35152
X35535Y85094
X35859
X36392Y85544
Y85947
X37140Y86144
X38272Y85770
X37922Y84746
X40912Y84510
X41212Y85210
X41912Y85510
X42612Y85210
X42912Y84510
T03
X20439Y24389
Y25389
X21439
Y24389
Y28139
X20439
Y29139
X21439
X22439
Y28139
X23439
Y29139
X24439
Y28139
Y25389
X23439
X22439
Y24389
X23439
X24439
X27866Y24456
X28866
Y25456
X27866
Y26456
X28866
Y27456
X27866
Y28456
X28866
Y52449
X27866
X24439Y52382
X23439
X22439
X21439
X20439
Y53382
X21439
Y56132
X20439
Y57132
X21439
X22439
Y56132
X23439
Y57132
X24439
Y56132
Y53382
X23439
X22439
X27866Y53449
X28866
Y54449
X27866
Y55449
X28866
Y56449
X27866
Y80441
X28866
Y81441
X27866
Y82441
X28866
Y83441
X27866
Y84441
X28866
X24439Y84124
X23439
X22439
Y81374
Y80374
X23439
Y81374
X24439
Y80374
X21439
X20439
Y81374
X21439
Y84124
X20439
Y85124
X21439
X22439
X23439
X24439
T04
X6368Y17396
X7158
Y18388
X6368
X8025Y22345
Y23345
X9025
Y22345
X10025
Y23345
X7158Y45388
X6368
Y46380
X7158
X8025Y50337
Y51337
X9025
Y50337
X10025
Y51337
X7158Y73380
X6368
Y74373
X7158
X8025Y78329
Y79329
X9025
Y78329
X10025
Y79329
T05
X7342Y3722
X8342
X9342
X10342
X12460
X13460
X14460
X15460
X17578
X18578
X19578
X20578
X22700Y3726
X23700
X24700
X25700
X42906Y6754
X28629Y14769
Y15769
Y16769
X28639Y18909
Y19909
Y20909
X26203Y20916
Y19916
Y17806
Y16806
Y14695
Y13695
X20578Y6478
X19578
X18578
X17578
X3627Y23699
Y25479
X7054Y26164
X8054
X9054
X11188
X12188
X13188
X15321
X16321
X17321
Y28526
X16321
X15321
X13188
X12188
X11188
X9054
X8054
X7054
X7342Y31714
X8342
X9342
X10342
X12460
X13460
X14460
X15460
X17578
X18578
X19578
X20578
Y34470
X19578
X18578
X17578
X22700Y31718
X23700
X24700
X25700
X42906Y34747
X28629Y42762
Y43762
Y44762
X28639Y46901
Y47902
Y48902
X26203Y48908
Y47908
Y45798
Y44798
Y42688
Y41688
X3627Y51691
Y53471
X7054Y54156
X8054
X9054
X11188
X12188
X13188
X15321
X16321
X17321
Y56518
X16321
X15321
X13188
X12188
X11188
X9054
X8054
X7054
X7342Y59706
X8342
X9342
X10342
X12460
X13460
X14460
X15460
X17578
X18578
X19578
X20578
Y62462
X19578
X18578
X17578
X22700Y59710
X23700
X24700
X25700
X42906Y62739
X28629Y70754
Y71754
Y72754
X28639Y74894
Y75894
Y76894
X26203Y76900
Y75900
Y73790
Y72790
Y70680
Y69680
X17321Y82148
X16321
X15321
X13188
X12188
X11188
X9054
X8054
X7054
X3627Y81463
Y79683
X7054Y84510
X8054
X9054
X11188
X12188
X13188
X15321
X16321
X17321
T06
X28809Y12129
X30809
Y40121
X28809
Y68114
X30809
T07
X4607Y23209
Y25969
Y51201
Y53961
Y79193
Y81953
T08
X39069Y8394
Y11644
Y14894
Y18144
Y21394
Y24644
Y36386
Y39636
Y42887
Y46136
Y49387
Y52636
Y64379
Y67629
Y70879
Y74129
Y77379
Y80629
T09
X32949Y3953
X34289
X35849Y3949
X37189
Y9249
X35849
X34289Y9253
X32949
X35899Y14079
X37239
Y19379
X35899
X35849Y31941
X37189
X34289Y31945
X32949
Y37245
X34289
X35849Y37241
X37189
X37239Y42071
X35899
Y47372
X37239
X37189Y59934
X35849
X34289Y59938
X32949
Y65238
X34289
X35849Y65234
X37189
X37239Y70064
X35899
Y75364
X37239
T10
X5298Y15526
Y20258
Y43518
Y48251
Y71510
Y76243
T11
X1329Y1329
X4510Y4510
X41912
X45108Y1329
X4510Y28526
Y32503
X41912
Y28526
X4510Y56518
Y60495
X41912
Y56518
X4510Y84510
X1329Y87687
X41912Y84510
X45108Y87687
M30
