G04 Layer_Color=12703346*
%FSLAX24Y24*%
%MOIN*%
G70*
G01*
G75*
%ADD12C,0.0100*%
G54D12*
X0Y58504D02*
X46000D01*
X43898Y-0D02*
Y89016D01*
X2500Y39D02*
Y89016D01*
X30Y86516D02*
X46000D01*
X0Y2500D02*
X46000D01*
X0Y30512D02*
X46000D01*
X28778Y96728D02*
Y96328D01*
X28978Y96128D01*
X29178Y96328D01*
Y96728D01*
X29378Y96428D02*
X29778D01*
X30378Y96628D02*
X30278Y96728D01*
X30078D01*
X29978Y96628D01*
Y96528D01*
X30078Y96428D01*
X30278D01*
X30378Y96328D01*
Y96228D01*
X30278Y96128D01*
X30078D01*
X29978Y96228D01*
X30978Y96528D02*
X30678D01*
X30578Y96428D01*
Y96228D01*
X30678Y96128D01*
X30978D01*
X31278D02*
X31477D01*
X31577Y96228D01*
Y96428D01*
X31477Y96528D01*
X31278D01*
X31178Y96428D01*
Y96228D01*
X31278Y96128D01*
X31777Y96528D02*
Y96128D01*
Y96328D01*
X31877Y96428D01*
X31977Y96528D01*
X32077D01*
X32677Y96128D02*
X32477D01*
X32377Y96228D01*
Y96428D01*
X32477Y96528D01*
X32677D01*
X32777Y96428D01*
Y96328D01*
X32377D01*
X29178Y97928D02*
X28778D01*
Y97328D01*
X29178D01*
X28778Y97628D02*
X28978D01*
X29378Y97328D02*
X29578D01*
X29478D01*
Y97728D01*
X29378D01*
X29878Y97328D02*
Y97728D01*
X30178D01*
X30278Y97628D01*
Y97328D01*
X30478D02*
X30778D01*
X30878Y97428D01*
X30778Y97528D01*
X30578D01*
X30478Y97628D01*
X30578Y97728D01*
X30878D01*
X31078D02*
Y97428D01*
X31178Y97328D01*
X31477D01*
Y97228D01*
X31378Y97128D01*
X31278D01*
X31477Y97328D02*
Y97728D01*
X31677Y97328D02*
Y97928D01*
X31977D01*
X32077Y97828D01*
Y97628D01*
X31977Y97528D01*
X31677D01*
X31877D02*
X32077Y97328D01*
X32577D02*
X32377D01*
X32277Y97428D01*
Y97628D01*
X32377Y97728D01*
X32577D01*
X32677Y97628D01*
Y97528D01*
X32277D01*
X32977Y97828D02*
Y97728D01*
X32877D01*
X33077D01*
X32977D01*
Y97428D01*
X33077Y97328D01*
X33377Y97728D02*
Y97328D01*
Y97528D01*
X33477Y97628D01*
X33577Y97728D01*
X33677D01*
X34077Y97328D02*
X34277D01*
X34377Y97428D01*
Y97628D01*
X34277Y97728D01*
X34077D01*
X33977Y97628D01*
Y97428D01*
X34077Y97328D01*
X35176D02*
X35376D01*
X35276D01*
Y97928D01*
X35176Y97828D01*
X35676Y97328D02*
Y97428D01*
X35776D01*
Y97328D01*
X35676D01*
X36176Y97828D02*
X36276Y97928D01*
X36476D01*
X36576Y97828D01*
Y97428D01*
X36476Y97328D01*
X36276D01*
X36176Y97428D01*
Y97828D01*
X36876Y97728D02*
X37076D01*
X37176Y97628D01*
Y97328D01*
X36876D01*
X36776Y97428D01*
X36876Y97528D01*
X37176D01*
M02*
