G04 Layer_Physical_Order=2*
G04 Layer_Color=32768*
%FSLAX24Y24*%
%MOIN*%
G70*
G01*
G75*
%ADD12C,0.0100*%
%ADD74C,0.0200*%
%ADD124C,0.1581*%
%ADD125C,0.0594*%
G04:AMPARAMS|DCode=126|XSize=83.433mil|YSize=83.433mil|CornerRadius=0mil|HoleSize=0mil|Usage=FLASHONLY|Rotation=0.000|XOffset=0mil|YOffset=0mil|HoleType=Round|Shape=Relief|Width=8mil|Gap=12mil|Entries=4|*
%AMTHD126*
7,0,0,0.0834,0.0594,0.0080,45*
%
%ADD126THD126*%
%ADD127C,0.0640*%
G04:AMPARAMS|DCode=128|XSize=88mil|YSize=88mil|CornerRadius=0mil|HoleSize=0mil|Usage=FLASHONLY|Rotation=0.000|XOffset=0mil|YOffset=0mil|HoleType=Round|Shape=Relief|Width=8mil|Gap=12mil|Entries=4|*
%AMTHD128*
7,0,0,0.0880,0.0640,0.0080,45*
%
%ADD128THD128*%
%ADD129C,0.0840*%
G04:AMPARAMS|DCode=130|XSize=108mil|YSize=108mil|CornerRadius=0mil|HoleSize=0mil|Usage=FLASHONLY|Rotation=0.000|XOffset=0mil|YOffset=0mil|HoleType=Round|Shape=Relief|Width=8mil|Gap=12mil|Entries=4|*
%AMTHD130*
7,0,0,0.1080,0.0840,0.0080,45*
%
%ADD130THD130*%
%ADD131C,0.0790*%
G04:AMPARAMS|DCode=132|XSize=86mil|YSize=86mil|CornerRadius=0mil|HoleSize=0mil|Usage=FLASHONLY|Rotation=0.000|XOffset=0mil|YOffset=0mil|HoleType=Round|Shape=Relief|Width=8mil|Gap=12mil|Entries=4|*
%AMTHD132*
7,0,0,0.0860,0.0620,0.0080,45*
%
%ADD132THD132*%
%ADD133C,0.0620*%
%ADD134C,0.1110*%
%ADD135C,0.0830*%
%ADD136C,0.1421*%
%ADD137C,0.0390*%
%ADD138C,0.0870*%
%ADD139C,0.0340*%
G54D12*
X8828Y92728D02*
Y92128D01*
X9228D01*
X9528Y92528D02*
X9728D01*
X9828Y92428D01*
Y92128D01*
X9528D01*
X9428Y92228D01*
X9528Y92328D01*
X9828D01*
X10028Y92528D02*
Y92228D01*
X10128Y92128D01*
X10428D01*
Y92028D01*
X10328Y91928D01*
X10228D01*
X10428Y92128D02*
Y92528D01*
X10928Y92128D02*
X10728D01*
X10628Y92228D01*
Y92428D01*
X10728Y92528D01*
X10928D01*
X11028Y92428D01*
Y92328D01*
X10628D01*
X11228Y92528D02*
Y92128D01*
Y92328D01*
X11328Y92428D01*
X11428Y92528D01*
X11527D01*
X12827Y92128D02*
X12427D01*
X12827Y92528D01*
Y92628D01*
X12727Y92728D01*
X12527D01*
X12427Y92628D01*
X9228Y93828D02*
X9128Y93928D01*
X8928D01*
X8828Y93828D01*
Y93428D01*
X8928Y93328D01*
X9128D01*
X9228Y93428D01*
Y93628D01*
X9028D01*
X9428Y93328D02*
Y93928D01*
X9828Y93328D01*
Y93928D01*
X10028D02*
Y93328D01*
X10328D01*
X10428Y93428D01*
Y93828D01*
X10328Y93928D01*
X10028D01*
X11228Y93328D02*
Y93928D01*
X11527D01*
X11627Y93828D01*
Y93628D01*
X11527Y93528D01*
X11228D01*
X11827Y93328D02*
X12027D01*
X11927D01*
Y93928D01*
X11827D01*
X12427Y93728D02*
X12627D01*
X12727Y93628D01*
Y93328D01*
X12427D01*
X12327Y93428D01*
X12427Y93528D01*
X12727D01*
X12927Y93328D02*
Y93728D01*
X13227D01*
X13327Y93628D01*
Y93328D01*
X13827D02*
X13627D01*
X13527Y93428D01*
Y93628D01*
X13627Y93728D01*
X13827D01*
X13927Y93628D01*
Y93528D01*
X13527D01*
X9228Y95128D02*
X8828D01*
Y94528D01*
X9228D01*
X8828Y94828D02*
X9028D01*
X9428Y94528D02*
X9628D01*
X9528D01*
Y94928D01*
X9428D01*
X9928Y94528D02*
Y94928D01*
X10228D01*
X10328Y94828D01*
Y94528D01*
X10528D02*
X10828D01*
X10928Y94628D01*
X10828Y94728D01*
X10628D01*
X10528Y94828D01*
X10628Y94928D01*
X10928D01*
X11128D02*
Y94628D01*
X11228Y94528D01*
X11527D01*
Y94428D01*
X11428Y94328D01*
X11328D01*
X11527Y94528D02*
Y94928D01*
X11727Y94528D02*
Y95128D01*
X12027D01*
X12127Y95028D01*
Y94828D01*
X12027Y94728D01*
X11727D01*
X11927D02*
X12127Y94528D01*
X12627D02*
X12427D01*
X12327Y94628D01*
Y94828D01*
X12427Y94928D01*
X12627D01*
X12727Y94828D01*
Y94728D01*
X12327D01*
X13027Y95028D02*
Y94928D01*
X12927D01*
X13127D01*
X13027D01*
Y94628D01*
X13127Y94528D01*
X13427Y94928D02*
Y94528D01*
Y94728D01*
X13527Y94828D01*
X13627Y94928D01*
X13727D01*
X14127Y94528D02*
X14327D01*
X14427Y94628D01*
Y94828D01*
X14327Y94928D01*
X14127D01*
X14027Y94828D01*
Y94628D01*
X14127Y94528D01*
X15226D02*
X15426D01*
X15326D01*
Y95128D01*
X15226Y95028D01*
X15726Y94528D02*
Y94628D01*
X15826D01*
Y94528D01*
X15726D01*
X16226Y95028D02*
X16326Y95128D01*
X16526D01*
X16626Y95028D01*
Y94628D01*
X16526Y94528D01*
X16326D01*
X16226Y94628D01*
Y95028D01*
X16826Y95128D02*
Y94528D01*
X17126D01*
X17226Y94628D01*
Y94728D01*
Y94828D01*
X17126Y94928D01*
X16826D01*
X2542Y21099D02*
X6252D01*
Y22752D01*
X7499Y23999D01*
X12660Y17574D02*
Y22414D01*
Y17574D02*
X13172Y17062D01*
Y14552D02*
Y17062D01*
X12982Y14362D02*
X13172Y14552D01*
X2777Y14362D02*
X12982D01*
X10599Y22414D02*
X12660D01*
X10599D02*
Y23619D01*
X10219Y23999D02*
X10599Y23619D01*
X7499Y23999D02*
X10219D01*
X2542Y14127D02*
X2777Y14362D01*
X2542Y49092D02*
X6252D01*
Y50744D01*
X7499Y51992D01*
X12660Y45566D02*
Y50406D01*
Y45566D02*
X13172Y45054D01*
Y42544D02*
Y45054D01*
X12982Y42354D02*
X13172Y42544D01*
X2777Y42354D02*
X12982D01*
X10599Y50406D02*
X12660D01*
X10599D02*
Y51611D01*
X10219Y51992D02*
X10599Y51611D01*
X7499Y51992D02*
X10219D01*
X2542Y42119D02*
X2777Y42354D01*
X2542Y77084D02*
X6252D01*
Y78736D01*
X7499Y79984D01*
X12660Y73558D02*
Y78398D01*
Y73558D02*
X13172Y73046D01*
Y70536D02*
Y73046D01*
X12982Y70346D02*
X13172Y70536D01*
X2777Y70346D02*
X12982D01*
X10599Y78398D02*
X12660D01*
X10599D02*
Y79604D01*
X10219Y79984D02*
X10599Y79604D01*
X7499Y79984D02*
X10219D01*
X2542Y70111D02*
X2777Y70346D01*
G54D74*
X0Y0D02*
X46000D01*
Y89016D01*
X0D02*
X46000D01*
X0Y0D02*
Y89016D01*
X2539Y2539D02*
X43879D01*
Y30489D01*
X2539D02*
X43879D01*
X2539Y2539D02*
Y30489D01*
Y30531D02*
X43879D01*
Y58481D01*
X2539D02*
X43879D01*
X2539Y30531D02*
Y58481D01*
Y58524D02*
X43879D01*
Y86474D01*
X2539D02*
X43879D01*
X2539Y58524D02*
Y86474D01*
G54D124*
X1329Y87687D02*
D03*
X45108D02*
D03*
Y1329D02*
D03*
X1329D02*
D03*
G54D125*
X27866Y28456D02*
D03*
X28866D02*
D03*
X27866Y27456D02*
D03*
Y26456D02*
D03*
X28866D02*
D03*
Y25456D02*
D03*
X27866Y24456D02*
D03*
X28866D02*
D03*
X24439Y25389D02*
D03*
Y24389D02*
D03*
X23439Y25389D02*
D03*
Y24389D02*
D03*
X22439Y25389D02*
D03*
Y24389D02*
D03*
X21439Y25389D02*
D03*
Y24389D02*
D03*
X20439D02*
D03*
X24439Y29139D02*
D03*
Y28139D02*
D03*
X23439Y29139D02*
D03*
Y28139D02*
D03*
X22439Y29139D02*
D03*
Y28139D02*
D03*
X21439Y29139D02*
D03*
Y28139D02*
D03*
X20439D02*
D03*
X27866Y56449D02*
D03*
X28866D02*
D03*
X27866Y55449D02*
D03*
Y54449D02*
D03*
X28866D02*
D03*
Y53449D02*
D03*
X27866Y52449D02*
D03*
X28866D02*
D03*
X24439Y53382D02*
D03*
Y52382D02*
D03*
X23439Y53382D02*
D03*
Y52382D02*
D03*
X22439Y53382D02*
D03*
Y52382D02*
D03*
X21439Y53382D02*
D03*
Y52382D02*
D03*
X20439D02*
D03*
X24439Y57132D02*
D03*
Y56132D02*
D03*
X23439Y57132D02*
D03*
Y56132D02*
D03*
X22439Y57132D02*
D03*
Y56132D02*
D03*
X21439Y57132D02*
D03*
Y56132D02*
D03*
X20439D02*
D03*
X27866Y84441D02*
D03*
X28866D02*
D03*
X27866Y83441D02*
D03*
Y82441D02*
D03*
X28866D02*
D03*
Y81441D02*
D03*
X27866Y80441D02*
D03*
X28866D02*
D03*
X24439Y81374D02*
D03*
Y80374D02*
D03*
X23439Y81374D02*
D03*
Y80374D02*
D03*
X22439Y81374D02*
D03*
Y80374D02*
D03*
X21439Y81374D02*
D03*
Y80374D02*
D03*
X20439D02*
D03*
X24439Y85124D02*
D03*
Y84124D02*
D03*
X23439Y85124D02*
D03*
Y84124D02*
D03*
X22439Y85124D02*
D03*
Y84124D02*
D03*
X21439Y85124D02*
D03*
Y84124D02*
D03*
X20439D02*
D03*
G54D126*
X28866Y27456D02*
D03*
X27866Y25456D02*
D03*
X20439Y25389D02*
D03*
Y29139D02*
D03*
X28866Y55449D02*
D03*
X27866Y53449D02*
D03*
X20439Y53382D02*
D03*
Y57132D02*
D03*
X28866Y83441D02*
D03*
X27866Y81441D02*
D03*
X20439Y81374D02*
D03*
Y85124D02*
D03*
G54D127*
X13188Y26164D02*
D03*
X11188D02*
D03*
X9054D02*
D03*
X7054D02*
D03*
X11188Y28526D02*
D03*
X13188D02*
D03*
X7054D02*
D03*
X9054D02*
D03*
X15321D02*
D03*
X17321D02*
D03*
X7342Y3722D02*
D03*
X8342D02*
D03*
X9342D02*
D03*
X10342D02*
D03*
X15460D02*
D03*
X14460D02*
D03*
X13460D02*
D03*
X12460D02*
D03*
X17578Y6478D02*
D03*
X18578D02*
D03*
X19578D02*
D03*
X20578D02*
D03*
Y3722D02*
D03*
X19578D02*
D03*
X18578D02*
D03*
X17578D02*
D03*
X22700Y3726D02*
D03*
X23700D02*
D03*
X24700D02*
D03*
X25700D02*
D03*
X28629Y16769D02*
D03*
Y15769D02*
D03*
Y14769D02*
D03*
X28639Y20909D02*
D03*
Y19909D02*
D03*
Y18909D02*
D03*
X26203Y19916D02*
D03*
Y13695D02*
D03*
X3627Y25479D02*
D03*
X42906Y6754D02*
D03*
X26203Y16806D02*
D03*
X17321Y26164D02*
D03*
X15321D02*
D03*
X13188Y54156D02*
D03*
X11188D02*
D03*
X9054D02*
D03*
X7054D02*
D03*
X11188Y56518D02*
D03*
X13188D02*
D03*
X7054D02*
D03*
X9054D02*
D03*
X15321D02*
D03*
X17321D02*
D03*
X7342Y31714D02*
D03*
X8342D02*
D03*
X9342D02*
D03*
X10342D02*
D03*
X15460D02*
D03*
X14460D02*
D03*
X13460D02*
D03*
X12460D02*
D03*
X17578Y34470D02*
D03*
X18578D02*
D03*
X19578D02*
D03*
X20578D02*
D03*
Y31714D02*
D03*
X19578D02*
D03*
X18578D02*
D03*
X17578D02*
D03*
X22700Y31718D02*
D03*
X23700D02*
D03*
X24700D02*
D03*
X25700D02*
D03*
X28629Y44762D02*
D03*
Y43762D02*
D03*
Y42762D02*
D03*
X28639Y48902D02*
D03*
Y47902D02*
D03*
Y46901D02*
D03*
X26203Y47908D02*
D03*
Y41688D02*
D03*
X3627Y53471D02*
D03*
X42906Y34747D02*
D03*
X26203Y44798D02*
D03*
X17321Y54156D02*
D03*
X15321D02*
D03*
X13188Y82148D02*
D03*
X11188D02*
D03*
X9054D02*
D03*
X7054D02*
D03*
X11188Y84510D02*
D03*
X13188D02*
D03*
X7054D02*
D03*
X9054D02*
D03*
X15321D02*
D03*
X17321D02*
D03*
X7342Y59706D02*
D03*
X8342D02*
D03*
X9342D02*
D03*
X10342D02*
D03*
X15460D02*
D03*
X14460D02*
D03*
X13460D02*
D03*
X12460D02*
D03*
X17578Y62462D02*
D03*
X18578D02*
D03*
X19578D02*
D03*
X20578D02*
D03*
Y59706D02*
D03*
X19578D02*
D03*
X18578D02*
D03*
X17578D02*
D03*
X22700Y59710D02*
D03*
X23700D02*
D03*
X24700D02*
D03*
X25700D02*
D03*
X28629Y72754D02*
D03*
Y71754D02*
D03*
Y70754D02*
D03*
X28639Y76894D02*
D03*
Y75894D02*
D03*
Y74894D02*
D03*
X26203Y75900D02*
D03*
Y69680D02*
D03*
X3627Y81463D02*
D03*
X42906Y62739D02*
D03*
X26203Y72790D02*
D03*
X17321Y82148D02*
D03*
X15321D02*
D03*
G54D128*
X12188Y26164D02*
D03*
X8054D02*
D03*
X12188Y28526D02*
D03*
X8054D02*
D03*
X16321D02*
D03*
X26203Y20916D02*
D03*
Y14695D02*
D03*
X3627Y23699D02*
D03*
X26203Y17806D02*
D03*
X16321Y26164D02*
D03*
X12188Y54156D02*
D03*
X8054D02*
D03*
X12188Y56518D02*
D03*
X8054D02*
D03*
X16321D02*
D03*
X26203Y48908D02*
D03*
Y42688D02*
D03*
X3627Y51691D02*
D03*
X26203Y45798D02*
D03*
X16321Y54156D02*
D03*
X12188Y82148D02*
D03*
X8054D02*
D03*
X12188Y84510D02*
D03*
X8054D02*
D03*
X16321D02*
D03*
X26203Y76900D02*
D03*
Y70680D02*
D03*
X3627Y79683D02*
D03*
X26203Y73790D02*
D03*
X16321Y82148D02*
D03*
G54D129*
X39069Y24644D02*
D03*
Y21394D02*
D03*
Y14894D02*
D03*
Y8394D02*
D03*
Y52636D02*
D03*
Y49387D02*
D03*
Y42887D02*
D03*
Y36386D02*
D03*
Y80629D02*
D03*
Y77379D02*
D03*
Y70879D02*
D03*
Y64379D02*
D03*
G54D130*
Y18144D02*
D03*
Y11644D02*
D03*
Y46136D02*
D03*
Y39636D02*
D03*
Y74129D02*
D03*
Y67629D02*
D03*
G54D131*
X30809Y12129D02*
D03*
X28809D02*
D03*
X30809Y40121D02*
D03*
X28809D02*
D03*
X30809Y68114D02*
D03*
X28809D02*
D03*
G54D132*
X10025Y23345D02*
D03*
X6368Y17396D02*
D03*
X10025Y51337D02*
D03*
X6368Y45388D02*
D03*
X10025Y79329D02*
D03*
X6368Y73380D02*
D03*
G54D133*
X10025Y22345D02*
D03*
X9025Y23345D02*
D03*
Y22345D02*
D03*
X8025Y23345D02*
D03*
Y22345D02*
D03*
X6368Y18388D02*
D03*
X7158D02*
D03*
Y17396D02*
D03*
X10025Y50337D02*
D03*
X9025Y51337D02*
D03*
Y50337D02*
D03*
X8025Y51337D02*
D03*
Y50337D02*
D03*
X6368Y46380D02*
D03*
X7158D02*
D03*
Y45388D02*
D03*
X10025Y78329D02*
D03*
X9025Y79329D02*
D03*
Y78329D02*
D03*
X8025Y79329D02*
D03*
Y78329D02*
D03*
X6368Y74373D02*
D03*
X7158D02*
D03*
Y73380D02*
D03*
G54D134*
X5298Y15526D02*
D03*
Y20258D02*
D03*
Y43518D02*
D03*
Y48251D02*
D03*
Y71510D02*
D03*
Y76243D02*
D03*
G54D135*
X4607Y23209D02*
D03*
Y25969D02*
D03*
Y51201D02*
D03*
Y53961D02*
D03*
Y79193D02*
D03*
Y81953D02*
D03*
G54D136*
X41912Y4510D02*
D03*
Y28526D02*
D03*
X4510D02*
D03*
Y4510D02*
D03*
X41912Y32503D02*
D03*
Y56518D02*
D03*
X4510D02*
D03*
Y32503D02*
D03*
X41912Y60495D02*
D03*
Y84510D02*
D03*
X4510D02*
D03*
Y60495D02*
D03*
G54D137*
X41912Y3510D02*
D03*
Y5510D02*
D03*
X42912Y4510D02*
D03*
X40912D02*
D03*
X41212Y5210D02*
D03*
X42612D02*
D03*
Y3810D02*
D03*
X41212D02*
D03*
X41912Y27526D02*
D03*
Y29526D02*
D03*
X42912Y28526D02*
D03*
X40912D02*
D03*
X41212Y29226D02*
D03*
X42612D02*
D03*
Y27826D02*
D03*
X41212D02*
D03*
X4510Y27526D02*
D03*
Y29526D02*
D03*
X5510Y28526D02*
D03*
X3510D02*
D03*
X3810Y29226D02*
D03*
X5210D02*
D03*
Y27826D02*
D03*
X3810D02*
D03*
X4510Y3510D02*
D03*
Y5510D02*
D03*
X5510Y4510D02*
D03*
X3510D02*
D03*
X3810Y5210D02*
D03*
X5210D02*
D03*
Y3810D02*
D03*
X3810D02*
D03*
X35535Y29109D02*
D03*
X35859D02*
D03*
X32612Y24589D02*
D03*
Y24933D02*
D03*
Y25278D02*
D03*
Y25622D02*
D03*
X35152Y29933D02*
D03*
X34827D02*
D03*
X37182Y4942D02*
D03*
X36532Y8402D02*
D03*
X32312Y15062D02*
D03*
X4092Y20292D02*
D03*
X34039Y7049D02*
D03*
X32569Y22169D02*
D03*
X32549Y20739D02*
D03*
X39069Y25619D02*
D03*
X23019Y14029D02*
D03*
X6119Y22349D02*
D03*
X6341Y22089D02*
D03*
X7689Y16089D02*
D03*
X7699Y15349D02*
D03*
Y15669D02*
D03*
X9039Y18699D02*
D03*
X25109Y17489D02*
D03*
X24619Y16219D02*
D03*
X24729Y15339D02*
D03*
X24389Y19019D02*
D03*
X25079Y20319D02*
D03*
X23052Y15182D02*
D03*
X24259Y13939D02*
D03*
X22659Y15869D02*
D03*
X14489Y16889D02*
D03*
X28229Y9179D02*
D03*
X28609Y9169D02*
D03*
X38169Y24639D02*
D03*
X39069Y23659D02*
D03*
X28789Y6489D02*
D03*
X27869Y6487D02*
D03*
Y5959D02*
D03*
X28789D02*
D03*
X27869Y5439D02*
D03*
X28789D02*
D03*
X32269Y3959D02*
D03*
X31819Y3379D02*
D03*
X31339D02*
D03*
X32269Y4389D02*
D03*
Y3539D02*
D03*
X32559Y21459D02*
D03*
X7419Y19849D02*
D03*
X7699Y19129D02*
D03*
X10721Y16833D02*
D03*
X11823Y19904D02*
D03*
X7221Y23150D02*
D03*
X10741Y15111D02*
D03*
X12176Y21171D02*
D03*
X11075Y22148D02*
D03*
X8169Y17889D02*
D03*
X10810Y21873D02*
D03*
X6719Y21929D02*
D03*
X10169Y21459D02*
D03*
X10521Y18147D02*
D03*
X18259Y14169D02*
D03*
X23969Y12809D02*
D03*
X6099Y23179D02*
D03*
X35189Y19369D02*
D03*
X35899Y18179D02*
D03*
X37249Y18189D02*
D03*
X36579Y20089D02*
D03*
X37969Y19379D02*
D03*
X39079Y20449D02*
D03*
Y22359D02*
D03*
X40039Y21369D02*
D03*
X40709Y21069D02*
D03*
X40699Y20289D02*
D03*
X39739Y19219D02*
D03*
X38249Y20499D02*
D03*
X39869Y20509D02*
D03*
X35179Y14069D02*
D03*
X35909Y13049D02*
D03*
X36139Y15089D02*
D03*
X37229D02*
D03*
X38069Y14089D02*
D03*
X37229Y13029D02*
D03*
X40459Y13219D02*
D03*
X40439Y15419D02*
D03*
X39989Y14899D02*
D03*
X39079Y15789D02*
D03*
X38149Y14869D02*
D03*
X39069Y13889D02*
D03*
X40659Y14329D02*
D03*
X36789Y15699D02*
D03*
X38909Y13049D02*
D03*
X32979Y10279D02*
D03*
X33559Y8429D02*
D03*
X34279Y8279D02*
D03*
X35209Y11679D02*
D03*
X35099Y11079D02*
D03*
X35199Y10479D02*
D03*
X34809Y10099D02*
D03*
X34319Y10269D02*
D03*
X37879Y11459D02*
D03*
X37839Y10509D02*
D03*
X37789Y11079D02*
D03*
X38789Y10519D02*
D03*
X40459Y8889D02*
D03*
X39079Y9349D02*
D03*
X39099Y7439D02*
D03*
X38239Y7949D02*
D03*
X40019Y8389D02*
D03*
X38569Y6519D02*
D03*
X38569Y5309D02*
D03*
X40072Y6062D02*
D03*
X32979Y4889D02*
D03*
X32699Y22699D02*
D03*
X34699D02*
D03*
X35699Y22509D02*
D03*
X35379Y23289D02*
D03*
X36659Y23699D02*
D03*
X36589Y22689D02*
D03*
X36699Y21699D02*
D03*
X35699D02*
D03*
Y20699D02*
D03*
X37572Y23452D02*
D03*
X28229Y9689D02*
D03*
Y10189D02*
D03*
X30219Y15159D02*
D03*
X5879Y24549D02*
D03*
X14539Y15129D02*
D03*
X19802Y21762D02*
D03*
X23929Y21189D02*
D03*
X30179Y10939D02*
D03*
X30089Y11849D02*
D03*
X28609Y9689D02*
D03*
X28579Y10149D02*
D03*
X33699Y22699D02*
D03*
X34689Y23329D02*
D03*
X33899Y23469D02*
D03*
X35279Y3949D02*
D03*
X36509Y9999D02*
D03*
X37159Y8229D02*
D03*
X35889Y8269D02*
D03*
X36209Y6299D02*
D03*
X35859Y7319D02*
D03*
X38269Y4799D02*
D03*
X38849Y4809D02*
D03*
X35839Y4889D02*
D03*
X38012Y4322D02*
D03*
X36672Y15042D02*
D03*
X36562Y18262D02*
D03*
X15030Y19754D02*
D03*
X41912Y31503D02*
D03*
Y33503D02*
D03*
X42912Y32503D02*
D03*
X40912D02*
D03*
X41212Y33203D02*
D03*
X42612D02*
D03*
Y31803D02*
D03*
X41212D02*
D03*
X41912Y55518D02*
D03*
Y57518D02*
D03*
X42912Y56518D02*
D03*
X40912D02*
D03*
X41212Y57218D02*
D03*
X42612D02*
D03*
Y55818D02*
D03*
X41212D02*
D03*
X4510Y55518D02*
D03*
Y57518D02*
D03*
X5510Y56518D02*
D03*
X3510D02*
D03*
X3810Y57218D02*
D03*
X5210D02*
D03*
Y55818D02*
D03*
X3810D02*
D03*
X4510Y31503D02*
D03*
Y33503D02*
D03*
X5510Y32503D02*
D03*
X3510D02*
D03*
X3810Y33203D02*
D03*
X5210D02*
D03*
Y31803D02*
D03*
X3810D02*
D03*
X35535Y57101D02*
D03*
X35859D02*
D03*
X32612Y52581D02*
D03*
Y52925D02*
D03*
Y53270D02*
D03*
Y53614D02*
D03*
X35152Y57925D02*
D03*
X34827D02*
D03*
X37182Y32934D02*
D03*
X36532Y36394D02*
D03*
X32312Y43054D02*
D03*
X4092Y48284D02*
D03*
X34039Y35041D02*
D03*
X32569Y50161D02*
D03*
X32549Y48731D02*
D03*
X39069Y53611D02*
D03*
X23019Y42021D02*
D03*
X6119Y50342D02*
D03*
X6341Y50082D02*
D03*
X7689Y44082D02*
D03*
X7699Y43341D02*
D03*
Y43661D02*
D03*
X9039Y46691D02*
D03*
X25109Y45482D02*
D03*
X24619Y44212D02*
D03*
X24729Y43331D02*
D03*
X24389Y47011D02*
D03*
X25079Y48312D02*
D03*
X23052Y43174D02*
D03*
X24259Y41932D02*
D03*
X22659Y43861D02*
D03*
X14489Y44882D02*
D03*
X28229Y37171D02*
D03*
X28609Y37162D02*
D03*
X38169Y52632D02*
D03*
X39069Y51652D02*
D03*
X28789Y34481D02*
D03*
X27869Y34479D02*
D03*
Y33951D02*
D03*
X28789D02*
D03*
X27869Y33431D02*
D03*
X28789D02*
D03*
X32269Y31951D02*
D03*
X31819Y31372D02*
D03*
X31339D02*
D03*
X32269Y32381D02*
D03*
Y31532D02*
D03*
X32559Y49451D02*
D03*
X7419Y47842D02*
D03*
X7699Y47122D02*
D03*
X10721Y44825D02*
D03*
X11823Y47896D02*
D03*
X7221Y51142D02*
D03*
X10741Y43103D02*
D03*
X12176Y49163D02*
D03*
X11075Y50140D02*
D03*
X8169Y45882D02*
D03*
X10810Y49865D02*
D03*
X6719Y49921D02*
D03*
X10169Y49451D02*
D03*
X10521Y46139D02*
D03*
X18259Y42161D02*
D03*
X23969Y40802D02*
D03*
X6099Y51171D02*
D03*
X35189Y47361D02*
D03*
X35899Y46171D02*
D03*
X37249Y46182D02*
D03*
X36579Y48081D02*
D03*
X37969Y47372D02*
D03*
X39079Y48442D02*
D03*
Y50352D02*
D03*
X40039Y49362D02*
D03*
X40709Y49061D02*
D03*
X40699Y48281D02*
D03*
X39739Y47211D02*
D03*
X38249Y48492D02*
D03*
X39869Y48502D02*
D03*
X35179Y42062D02*
D03*
X35909Y41041D02*
D03*
X36139Y43081D02*
D03*
X37229D02*
D03*
X38069Y42081D02*
D03*
X37229Y41021D02*
D03*
X40459Y41212D02*
D03*
X40439Y43411D02*
D03*
X39989Y42892D02*
D03*
X39079Y43781D02*
D03*
X38149Y42861D02*
D03*
X39069Y41881D02*
D03*
X40659Y42322D02*
D03*
X36789Y43692D02*
D03*
X38909Y41041D02*
D03*
X32979Y38272D02*
D03*
X33559Y36421D02*
D03*
X34279Y36272D02*
D03*
X35209Y39671D02*
D03*
X35099Y39072D02*
D03*
X35199Y38472D02*
D03*
X34809Y38091D02*
D03*
X34319Y38261D02*
D03*
X37879Y39451D02*
D03*
X37839Y38502D02*
D03*
X37789Y39072D02*
D03*
X38789Y38512D02*
D03*
X40459Y36881D02*
D03*
X39079Y37341D02*
D03*
X39099Y35431D02*
D03*
X38239Y35942D02*
D03*
X40019Y36381D02*
D03*
X38569Y34511D02*
D03*
X38569Y33301D02*
D03*
X40072Y34054D02*
D03*
X32979Y32882D02*
D03*
X32699Y50691D02*
D03*
X34699D02*
D03*
X35699Y50501D02*
D03*
X35379Y51281D02*
D03*
X36659Y51691D02*
D03*
X36589Y50682D02*
D03*
X36699Y49692D02*
D03*
X35699D02*
D03*
Y48692D02*
D03*
X37572Y51444D02*
D03*
X28229Y37682D02*
D03*
Y38182D02*
D03*
X30219Y43151D02*
D03*
X5879Y52541D02*
D03*
X14539Y43122D02*
D03*
X19802Y49754D02*
D03*
X23929Y49181D02*
D03*
X30179Y38932D02*
D03*
X30089Y39841D02*
D03*
X28609Y37682D02*
D03*
X28579Y38142D02*
D03*
X33699Y50691D02*
D03*
X34689Y51322D02*
D03*
X33899Y51462D02*
D03*
X35279Y31941D02*
D03*
X36509Y37991D02*
D03*
X37159Y36221D02*
D03*
X35889Y36261D02*
D03*
X36209Y34292D02*
D03*
X35859Y35312D02*
D03*
X38269Y32792D02*
D03*
X38849Y32801D02*
D03*
X35839Y32882D02*
D03*
X38012Y32314D02*
D03*
X36672Y43034D02*
D03*
X36562Y46254D02*
D03*
X15030Y47746D02*
D03*
X41912Y59495D02*
D03*
Y61495D02*
D03*
X42912Y60495D02*
D03*
X40912D02*
D03*
X41212Y61195D02*
D03*
X42612D02*
D03*
Y59795D02*
D03*
X41212D02*
D03*
X41912Y83510D02*
D03*
Y85510D02*
D03*
X42912Y84510D02*
D03*
X40912D02*
D03*
X41212Y85210D02*
D03*
X42612D02*
D03*
Y83810D02*
D03*
X41212D02*
D03*
X4510Y83510D02*
D03*
Y85510D02*
D03*
X5510Y84510D02*
D03*
X3510D02*
D03*
X3810Y85210D02*
D03*
X5210D02*
D03*
Y83810D02*
D03*
X3810D02*
D03*
X4510Y59495D02*
D03*
Y61495D02*
D03*
X5510Y60495D02*
D03*
X3510D02*
D03*
X3810Y61195D02*
D03*
X5210D02*
D03*
Y59795D02*
D03*
X3810D02*
D03*
X35535Y85094D02*
D03*
X35859D02*
D03*
X32612Y80573D02*
D03*
Y80918D02*
D03*
Y81262D02*
D03*
Y81607D02*
D03*
X35152Y85918D02*
D03*
X34827D02*
D03*
X37182Y60926D02*
D03*
X36532Y64386D02*
D03*
X32312Y71046D02*
D03*
X4092Y76276D02*
D03*
X34039Y63034D02*
D03*
X32569Y78154D02*
D03*
X32549Y76724D02*
D03*
X39069Y81604D02*
D03*
X23019Y70014D02*
D03*
X6119Y78334D02*
D03*
X6341Y78074D02*
D03*
X7689Y72074D02*
D03*
X7699Y71334D02*
D03*
Y71654D02*
D03*
X9039Y74684D02*
D03*
X25109Y73474D02*
D03*
X24619Y72204D02*
D03*
X24729Y71324D02*
D03*
X24389Y75004D02*
D03*
X25079Y76304D02*
D03*
X23052Y71166D02*
D03*
X24259Y69924D02*
D03*
X22659Y71854D02*
D03*
X14489Y72874D02*
D03*
X28229Y65164D02*
D03*
X28609Y65154D02*
D03*
X38169Y80624D02*
D03*
X39069Y79644D02*
D03*
X28789Y62474D02*
D03*
X27869Y62471D02*
D03*
Y61944D02*
D03*
X28789D02*
D03*
X27869Y61424D02*
D03*
X28789D02*
D03*
X32269Y59944D02*
D03*
X31819Y59364D02*
D03*
X31339D02*
D03*
X32269Y60374D02*
D03*
Y59524D02*
D03*
X32559Y77444D02*
D03*
X7419Y75834D02*
D03*
X7699Y75114D02*
D03*
X10721Y72817D02*
D03*
X11823Y75888D02*
D03*
X7221Y79134D02*
D03*
X10741Y71095D02*
D03*
X12176Y77155D02*
D03*
X11075Y78132D02*
D03*
X8169Y73874D02*
D03*
X10810Y77857D02*
D03*
X6719Y77914D02*
D03*
X10169Y77444D02*
D03*
X10521Y74131D02*
D03*
X18259Y70154D02*
D03*
X23969Y68794D02*
D03*
X6099Y79164D02*
D03*
X35189Y75354D02*
D03*
X35899Y74164D02*
D03*
X37249Y74174D02*
D03*
X36579Y76074D02*
D03*
X37969Y75364D02*
D03*
X39079Y76434D02*
D03*
Y78344D02*
D03*
X40039Y77354D02*
D03*
X40709Y77054D02*
D03*
X40699Y76274D02*
D03*
X39739Y75204D02*
D03*
X38249Y76484D02*
D03*
X39869Y76494D02*
D03*
X35179Y70054D02*
D03*
X35909Y69034D02*
D03*
X36139Y71074D02*
D03*
X37229D02*
D03*
X38069Y70074D02*
D03*
X37229Y69014D02*
D03*
X40459Y69204D02*
D03*
X40439Y71404D02*
D03*
X39989Y70884D02*
D03*
X39079Y71774D02*
D03*
X38149Y70854D02*
D03*
X39069Y69874D02*
D03*
X40659Y70314D02*
D03*
X36789Y71684D02*
D03*
X38909Y69034D02*
D03*
X32979Y66264D02*
D03*
X33559Y64414D02*
D03*
X34279Y64264D02*
D03*
X35209Y67664D02*
D03*
X35099Y67064D02*
D03*
X35199Y66464D02*
D03*
X34809Y66084D02*
D03*
X34319Y66254D02*
D03*
X37879Y67444D02*
D03*
X37839Y66494D02*
D03*
X37789Y67064D02*
D03*
X38789Y66504D02*
D03*
X40459Y64874D02*
D03*
X39079Y65334D02*
D03*
X39099Y63424D02*
D03*
X38239Y63934D02*
D03*
X40019Y64374D02*
D03*
X38569Y62504D02*
D03*
X38569Y61294D02*
D03*
X40072Y62046D02*
D03*
X32979Y60874D02*
D03*
X32699Y78684D02*
D03*
X34699D02*
D03*
X35699Y78494D02*
D03*
X35379Y79274D02*
D03*
X36659Y79684D02*
D03*
X36589Y78674D02*
D03*
X36699Y77684D02*
D03*
X35699D02*
D03*
Y76684D02*
D03*
X37572Y79436D02*
D03*
X28229Y65674D02*
D03*
Y66174D02*
D03*
X30219Y71144D02*
D03*
X5879Y80534D02*
D03*
X14539Y71114D02*
D03*
X19802Y77746D02*
D03*
X23929Y77174D02*
D03*
X30179Y66924D02*
D03*
X30089Y67834D02*
D03*
X28609Y65674D02*
D03*
X28579Y66134D02*
D03*
X33699Y78684D02*
D03*
X34689Y79314D02*
D03*
X33899Y79454D02*
D03*
X35279Y59934D02*
D03*
X36509Y65984D02*
D03*
X37159Y64214D02*
D03*
X35889Y64254D02*
D03*
X36209Y62284D02*
D03*
X35859Y63304D02*
D03*
X38269Y60784D02*
D03*
X38849Y60794D02*
D03*
X35839Y60874D02*
D03*
X38012Y60306D02*
D03*
X36672Y71026D02*
D03*
X36562Y74246D02*
D03*
X15030Y75738D02*
D03*
G54D138*
X34289Y9253D02*
D03*
X32949D02*
D03*
Y3953D02*
D03*
X34289D02*
D03*
X35899Y19379D02*
D03*
X37239D02*
D03*
Y14079D02*
D03*
X35899D02*
D03*
X37189Y9249D02*
D03*
X35849D02*
D03*
Y3949D02*
D03*
X37189D02*
D03*
X34289Y37245D02*
D03*
X32949D02*
D03*
Y31945D02*
D03*
X34289D02*
D03*
X35899Y47372D02*
D03*
X37239D02*
D03*
Y42071D02*
D03*
X35899D02*
D03*
X37189Y37241D02*
D03*
X35849D02*
D03*
Y31941D02*
D03*
X37189D02*
D03*
X34289Y65238D02*
D03*
X32949D02*
D03*
Y59938D02*
D03*
X34289D02*
D03*
X35899Y75364D02*
D03*
X37239D02*
D03*
Y70064D02*
D03*
X35899D02*
D03*
X37189Y65234D02*
D03*
X35849D02*
D03*
Y59934D02*
D03*
X37189D02*
D03*
G54D139*
X14219Y25029D02*
D03*
X17049Y22309D02*
D03*
X30549Y29139D02*
D03*
X30949D02*
D03*
X26529Y22199D02*
D03*
X31229Y16989D02*
D03*
X13559Y24119D02*
D03*
X22439Y29913D02*
D03*
X9116Y25131D02*
D03*
X7815Y25118D02*
D03*
X8799Y24350D02*
D03*
X15049Y16624D02*
D03*
X10119Y24419D02*
D03*
X10649Y24689D02*
D03*
X12096Y23917D02*
D03*
X12835Y22923D02*
D03*
X39388Y27652D02*
D03*
X37927Y28418D02*
D03*
X35722Y27632D02*
D03*
X27159Y12719D02*
D03*
X36682Y12702D02*
D03*
X37452Y12372D02*
D03*
X22352Y18542D02*
D03*
X31972Y19832D02*
D03*
X31492D02*
D03*
X11729Y18089D02*
D03*
X40699Y22139D02*
D03*
X37699Y7119D02*
D03*
X15269Y21809D02*
D03*
X15394Y22018D02*
D03*
X14734Y20807D02*
D03*
X15989Y22429D02*
D03*
X15909Y22859D02*
D03*
X17089Y18699D02*
D03*
X18359Y8159D02*
D03*
X31329Y30069D02*
D03*
X27009Y24389D02*
D03*
X17329Y17009D02*
D03*
X20149Y20249D02*
D03*
X20299Y16109D02*
D03*
X18142Y15662D02*
D03*
X34361Y20827D02*
D03*
X34761D02*
D03*
Y21227D02*
D03*
X34361D02*
D03*
Y21627D02*
D03*
X34761D02*
D03*
Y22027D02*
D03*
X34361D02*
D03*
X33561D02*
D03*
X33161D02*
D03*
Y21627D02*
D03*
X33561D02*
D03*
Y21227D02*
D03*
X33161D02*
D03*
Y20827D02*
D03*
X33561D02*
D03*
X33961D02*
D03*
Y21227D02*
D03*
Y22027D02*
D03*
Y21627D02*
D03*
X29907Y7616D02*
D03*
X29507D02*
D03*
X30307D02*
D03*
X30707D02*
D03*
Y7216D02*
D03*
Y6816D02*
D03*
X30307D02*
D03*
Y7216D02*
D03*
X29907D02*
D03*
Y6816D02*
D03*
X29507D02*
D03*
Y7216D02*
D03*
Y8016D02*
D03*
Y8416D02*
D03*
X29907D02*
D03*
Y8016D02*
D03*
X30307D02*
D03*
Y8416D02*
D03*
X30707D02*
D03*
Y8016D02*
D03*
X5479Y21539D02*
D03*
X14109Y21629D02*
D03*
X25589Y23329D02*
D03*
X5872Y23622D02*
D03*
X19812Y24052D02*
D03*
X24819Y24879D02*
D03*
X14192Y5422D02*
D03*
X6209Y7589D02*
D03*
X24929Y7219D02*
D03*
X10359Y11279D02*
D03*
X31699Y18159D02*
D03*
X29469Y14249D02*
D03*
X23019Y13209D02*
D03*
X11824Y18458D02*
D03*
X10989Y18409D02*
D03*
X11009Y17289D02*
D03*
X11172Y16142D02*
D03*
X15039Y16049D02*
D03*
X14099Y16169D02*
D03*
X13362Y20552D02*
D03*
X13862Y19662D02*
D03*
X14279Y15469D02*
D03*
X15059Y15739D02*
D03*
X20787Y16919D02*
D03*
X17289Y13999D02*
D03*
X16328Y20069D02*
D03*
X16638D02*
D03*
X16949D02*
D03*
X16329Y19139D02*
D03*
X16328Y18699D02*
D03*
X16638D02*
D03*
Y18249D02*
D03*
X16328Y17699D02*
D03*
X16948D02*
D03*
X17002Y17012D02*
D03*
X14882Y17202D02*
D03*
X21407Y16919D02*
D03*
X22529Y17889D02*
D03*
X22639Y15099D02*
D03*
X21097Y16919D02*
D03*
X16639Y19139D02*
D03*
X16948Y18249D02*
D03*
X16638Y17699D02*
D03*
X15049Y16939D02*
D03*
X19472Y15362D02*
D03*
X19474Y15864D02*
D03*
X18469Y15669D02*
D03*
X17679Y15359D02*
D03*
Y15989D02*
D03*
X25589Y23659D02*
D03*
X22519Y21632D02*
D03*
X18622Y23402D02*
D03*
X19809Y13049D02*
D03*
X18109Y8159D02*
D03*
X24079Y11159D02*
D03*
X23999Y10929D02*
D03*
X24449Y7039D02*
D03*
X18759Y12949D02*
D03*
X6379Y12099D02*
D03*
X3819Y13449D02*
D03*
X4669Y13519D02*
D03*
X4929Y13299D02*
D03*
X8619Y10949D02*
D03*
X7829Y11569D02*
D03*
X11279Y12039D02*
D03*
X10359Y11519D02*
D03*
X9409Y13209D02*
D03*
X7852Y12152D02*
D03*
X8142Y12052D02*
D03*
X7159Y13489D02*
D03*
X6609Y13649D02*
D03*
X15309Y14459D02*
D03*
X5909Y11849D02*
D03*
X8392Y11882D02*
D03*
X8869Y10299D02*
D03*
X12099Y12379D02*
D03*
X12859Y12369D02*
D03*
X12479Y12379D02*
D03*
X21829Y12439D02*
D03*
X11979Y7509D02*
D03*
X11939Y7979D02*
D03*
X14669Y12769D02*
D03*
X15809Y13949D02*
D03*
X16159Y11359D02*
D03*
X16489Y10769D02*
D03*
X24489Y11339D02*
D03*
X23519Y13209D02*
D03*
X14309Y11139D02*
D03*
X14439Y10939D02*
D03*
X4259Y10969D02*
D03*
X21929Y4859D02*
D03*
X20552Y9751D02*
D03*
X22389Y5869D02*
D03*
X24089Y6029D02*
D03*
X5439Y11259D02*
D03*
X5219D02*
D03*
X4259Y10749D02*
D03*
X3299Y7069D02*
D03*
X3519D02*
D03*
X10449Y7219D02*
D03*
X3169Y8709D02*
D03*
X5829Y11619D02*
D03*
X6459Y7659D02*
D03*
X12379Y7789D02*
D03*
X9809Y11139D02*
D03*
X7849Y7649D02*
D03*
Y7949D02*
D03*
Y8249D02*
D03*
X20369Y13889D02*
D03*
X20819Y13399D02*
D03*
X20489Y13079D02*
D03*
X20129Y13049D02*
D03*
X3409Y13719D02*
D03*
X15369Y6969D02*
D03*
X24789D02*
D03*
X26309Y10859D02*
D03*
X25589Y11299D02*
D03*
X18741Y11011D02*
D03*
X20474Y11011D02*
D03*
X22649Y12939D02*
D03*
X22189Y12919D02*
D03*
X21519D02*
D03*
X22509Y12449D02*
D03*
X19169Y13049D02*
D03*
X6872Y11502D02*
D03*
X17599Y9449D02*
D03*
X13339Y10639D02*
D03*
X12839Y10549D02*
D03*
X11999Y11229D02*
D03*
X15932Y11359D02*
D03*
X11749Y13039D02*
D03*
X11909Y12746D02*
D03*
X24449Y6819D02*
D03*
X22129Y5869D02*
D03*
X24339Y6029D02*
D03*
X25759Y6549D02*
D03*
X26019D02*
D03*
X21079Y11829D02*
D03*
X19579Y8509D02*
D03*
X19349D02*
D03*
X5869Y7329D02*
D03*
X6199Y7169D02*
D03*
X7332Y6932D02*
D03*
X6792D02*
D03*
X8479Y7069D02*
D03*
X8789Y7059D02*
D03*
X13079Y7069D02*
D03*
X13329D02*
D03*
X15369Y7219D02*
D03*
X10449Y6959D02*
D03*
X24499Y11579D02*
D03*
X7329Y11029D02*
D03*
X8869Y10549D02*
D03*
X16859Y11919D02*
D03*
X21139Y22359D02*
D03*
X20592Y22362D02*
D03*
X15402Y22932D02*
D03*
X15389Y23489D02*
D03*
X21749Y22369D02*
D03*
X14679Y22969D02*
D03*
X14932Y23762D02*
D03*
X10609Y12489D02*
D03*
X10929D02*
D03*
X5439Y12799D02*
D03*
Y13059D02*
D03*
X15199Y13989D02*
D03*
X15689Y12969D02*
D03*
X15989D02*
D03*
X10602Y21042D02*
D03*
X10242Y15632D02*
D03*
X10862Y16132D02*
D03*
X16999Y15489D02*
D03*
X18092Y17482D02*
D03*
X23652Y17552D02*
D03*
X18432Y11522D02*
D03*
X28049Y22199D02*
D03*
X30662Y22892D02*
D03*
X31152Y22912D02*
D03*
X31342Y23262D02*
D03*
X30389Y9569D02*
D03*
X5984Y5672D02*
D03*
X6252D02*
D03*
X7102Y5312D02*
D03*
Y5572D02*
D03*
X8052Y5592D02*
D03*
Y5332D02*
D03*
X8792Y5379D02*
D03*
Y5139D02*
D03*
X10042Y5322D02*
D03*
X10032Y5062D02*
D03*
X11682Y6732D02*
D03*
X11822Y5812D02*
D03*
Y5552D02*
D03*
X14189Y5679D02*
D03*
X15692Y5632D02*
D03*
X15962D02*
D03*
X21728Y21990D02*
D03*
X21140D02*
D03*
X20588Y21980D02*
D03*
X16659Y23259D02*
D03*
X16142Y24744D02*
D03*
X14369Y22229D02*
D03*
X9939Y10939D02*
D03*
X11372Y11192D02*
D03*
X22959Y10629D02*
D03*
Y10379D02*
D03*
X9862Y12622D02*
D03*
X30226Y16693D02*
D03*
X14370Y21988D02*
D03*
X15129Y24409D02*
D03*
X15594D02*
D03*
X13907Y20807D02*
D03*
X18332Y23322D02*
D03*
X14219Y53021D02*
D03*
X17049Y50301D02*
D03*
X30549Y57132D02*
D03*
X30949D02*
D03*
X26529Y50191D02*
D03*
X31229Y44981D02*
D03*
X13559Y52112D02*
D03*
X22439Y57905D02*
D03*
X9116Y53123D02*
D03*
X7815Y53110D02*
D03*
X8799Y52343D02*
D03*
X15049Y44616D02*
D03*
X10119Y52411D02*
D03*
X10649Y52681D02*
D03*
X12096Y51909D02*
D03*
X12835Y50915D02*
D03*
X39388Y55644D02*
D03*
X37927Y56410D02*
D03*
X35722Y55624D02*
D03*
X27159Y40711D02*
D03*
X36682Y40694D02*
D03*
X37452Y40364D02*
D03*
X22352Y46534D02*
D03*
X31972Y47824D02*
D03*
X31492D02*
D03*
X11729Y46082D02*
D03*
X40699Y50132D02*
D03*
X37699Y35111D02*
D03*
X15269Y49802D02*
D03*
X15394Y50010D02*
D03*
X14734Y48799D02*
D03*
X15989Y50422D02*
D03*
X15909Y50851D02*
D03*
X17089Y46691D02*
D03*
X18359Y36151D02*
D03*
X31329Y58061D02*
D03*
X27009Y52382D02*
D03*
X17329Y45002D02*
D03*
X20149Y48242D02*
D03*
X20299Y44102D02*
D03*
X18142Y43654D02*
D03*
X34361Y48819D02*
D03*
X34761D02*
D03*
Y49219D02*
D03*
X34361D02*
D03*
Y49619D02*
D03*
X34761D02*
D03*
Y50019D02*
D03*
X34361D02*
D03*
X33561D02*
D03*
X33161D02*
D03*
Y49619D02*
D03*
X33561D02*
D03*
Y49219D02*
D03*
X33161D02*
D03*
Y48819D02*
D03*
X33561D02*
D03*
X33961D02*
D03*
Y49219D02*
D03*
Y50019D02*
D03*
Y49619D02*
D03*
X29907Y35608D02*
D03*
X29507D02*
D03*
X30307D02*
D03*
X30707D02*
D03*
Y35208D02*
D03*
Y34808D02*
D03*
X30307D02*
D03*
Y35208D02*
D03*
X29907D02*
D03*
Y34808D02*
D03*
X29507D02*
D03*
Y35208D02*
D03*
Y36008D02*
D03*
Y36408D02*
D03*
X29907D02*
D03*
Y36008D02*
D03*
X30307D02*
D03*
Y36408D02*
D03*
X30707D02*
D03*
Y36008D02*
D03*
X5479Y49531D02*
D03*
X14109Y49622D02*
D03*
X25589Y51322D02*
D03*
X5872Y51614D02*
D03*
X19812Y52044D02*
D03*
X24819Y52871D02*
D03*
X14192Y33414D02*
D03*
X6209Y35582D02*
D03*
X24929Y35212D02*
D03*
X10359Y39272D02*
D03*
X31699Y46151D02*
D03*
X29469Y42242D02*
D03*
X23019Y41202D02*
D03*
X11824Y46451D02*
D03*
X10989Y46402D02*
D03*
X11009Y45282D02*
D03*
X11172Y44134D02*
D03*
X15039Y44042D02*
D03*
X14099Y44162D02*
D03*
X13362Y48544D02*
D03*
X13862Y47654D02*
D03*
X14279Y43461D02*
D03*
X15059Y43731D02*
D03*
X20787Y44911D02*
D03*
X17289Y41992D02*
D03*
X16328Y48061D02*
D03*
X16638D02*
D03*
X16949D02*
D03*
X16329Y47132D02*
D03*
X16328Y46691D02*
D03*
X16638D02*
D03*
Y46241D02*
D03*
X16328Y45691D02*
D03*
X16948D02*
D03*
X17002Y45004D02*
D03*
X14882Y45194D02*
D03*
X21407Y44911D02*
D03*
X22529Y45882D02*
D03*
X22639Y43092D02*
D03*
X21097Y44911D02*
D03*
X16639Y47132D02*
D03*
X16948Y46241D02*
D03*
X16638Y45691D02*
D03*
X15049Y44931D02*
D03*
X19472Y43354D02*
D03*
X19474Y43857D02*
D03*
X18469Y43661D02*
D03*
X17679Y43351D02*
D03*
Y43981D02*
D03*
X25589Y51652D02*
D03*
X22519Y49624D02*
D03*
X18622Y51394D02*
D03*
X19809Y41041D02*
D03*
X18109Y36151D02*
D03*
X24079Y39151D02*
D03*
X23999Y38921D02*
D03*
X24449Y35031D02*
D03*
X18759Y40942D02*
D03*
X6379Y40092D02*
D03*
X3819Y41441D02*
D03*
X4669Y41512D02*
D03*
X4929Y41291D02*
D03*
X8619Y38942D02*
D03*
X7829Y39562D02*
D03*
X11279Y40031D02*
D03*
X10359Y39511D02*
D03*
X9409Y41202D02*
D03*
X7852Y40144D02*
D03*
X8142Y40044D02*
D03*
X7159Y41481D02*
D03*
X6609Y41642D02*
D03*
X15309Y42452D02*
D03*
X5909Y39841D02*
D03*
X8392Y39874D02*
D03*
X8869Y38291D02*
D03*
X12099Y40371D02*
D03*
X12859Y40361D02*
D03*
X12479Y40371D02*
D03*
X21829Y40431D02*
D03*
X11979Y35501D02*
D03*
X11939Y35972D02*
D03*
X14669Y40761D02*
D03*
X15809Y41941D02*
D03*
X16159Y39351D02*
D03*
X16489Y38761D02*
D03*
X24489Y39332D02*
D03*
X23519Y41202D02*
D03*
X14309Y39132D02*
D03*
X14439Y38932D02*
D03*
X4259Y38962D02*
D03*
X21929Y32852D02*
D03*
X20552Y37743D02*
D03*
X22389Y33861D02*
D03*
X24089Y34021D02*
D03*
X5439Y39251D02*
D03*
X5219D02*
D03*
X4259Y38742D02*
D03*
X3299Y35062D02*
D03*
X3519D02*
D03*
X10449Y35212D02*
D03*
X3169Y36702D02*
D03*
X5829Y39611D02*
D03*
X6459Y35652D02*
D03*
X12379Y35782D02*
D03*
X9809Y39132D02*
D03*
X7849Y35642D02*
D03*
Y35942D02*
D03*
Y36242D02*
D03*
X20369Y41881D02*
D03*
X20819Y41392D02*
D03*
X20489Y41072D02*
D03*
X20129Y41041D02*
D03*
X3409Y41712D02*
D03*
X15369Y34962D02*
D03*
X24789D02*
D03*
X26309Y38851D02*
D03*
X25589Y39292D02*
D03*
X18741Y39003D02*
D03*
X20474Y39003D02*
D03*
X22649Y40932D02*
D03*
X22189Y40911D02*
D03*
X21519D02*
D03*
X22509Y40441D02*
D03*
X19169Y41041D02*
D03*
X6872Y39494D02*
D03*
X17599Y37441D02*
D03*
X13339Y38631D02*
D03*
X12839Y38542D02*
D03*
X11999Y39221D02*
D03*
X15932Y39351D02*
D03*
X11749Y41031D02*
D03*
X11909Y40738D02*
D03*
X24449Y34811D02*
D03*
X22129Y33861D02*
D03*
X24339Y34021D02*
D03*
X25759Y34541D02*
D03*
X26019D02*
D03*
X21079Y39822D02*
D03*
X19579Y36502D02*
D03*
X19349D02*
D03*
X5869Y35322D02*
D03*
X6199Y35161D02*
D03*
X7332Y34924D02*
D03*
X6792D02*
D03*
X8479Y35062D02*
D03*
X8789Y35052D02*
D03*
X13079Y35062D02*
D03*
X13329D02*
D03*
X15369Y35212D02*
D03*
X10449Y34952D02*
D03*
X24499Y39571D02*
D03*
X7329Y39021D02*
D03*
X8869Y38542D02*
D03*
X16859Y39911D02*
D03*
X21139Y50352D02*
D03*
X20592Y50354D02*
D03*
X15402Y50924D02*
D03*
X15389Y51481D02*
D03*
X21749Y50361D02*
D03*
X14679Y50961D02*
D03*
X14932Y51754D02*
D03*
X10609Y40482D02*
D03*
X10929D02*
D03*
X5439Y40792D02*
D03*
Y41052D02*
D03*
X15199Y41982D02*
D03*
X15689Y40961D02*
D03*
X15989D02*
D03*
X10602Y49034D02*
D03*
X10242Y43624D02*
D03*
X10862Y44124D02*
D03*
X16999Y43481D02*
D03*
X18092Y45474D02*
D03*
X23652Y45544D02*
D03*
X18432Y39514D02*
D03*
X28049Y50191D02*
D03*
X30662Y50884D02*
D03*
X31152Y50904D02*
D03*
X31342Y51254D02*
D03*
X30389Y37562D02*
D03*
X5984Y33664D02*
D03*
X6252D02*
D03*
X7102Y33304D02*
D03*
Y33564D02*
D03*
X8052Y33584D02*
D03*
Y33324D02*
D03*
X8792Y33372D02*
D03*
Y33131D02*
D03*
X10042Y33314D02*
D03*
X10032Y33054D02*
D03*
X11682Y34724D02*
D03*
X11822Y33804D02*
D03*
Y33544D02*
D03*
X14189Y33672D02*
D03*
X15692Y33624D02*
D03*
X15962D02*
D03*
X21728Y49983D02*
D03*
X21140D02*
D03*
X20588Y49973D02*
D03*
X16659Y51252D02*
D03*
X16142Y52736D02*
D03*
X14369Y50222D02*
D03*
X9939Y38932D02*
D03*
X11372Y39184D02*
D03*
X22959Y38621D02*
D03*
Y38372D02*
D03*
X9862Y40614D02*
D03*
X30226Y44685D02*
D03*
X14370Y49980D02*
D03*
X15129Y52401D02*
D03*
X15594D02*
D03*
X13907Y48799D02*
D03*
X18332Y51314D02*
D03*
X14219Y81014D02*
D03*
X17049Y78294D02*
D03*
X30549Y85124D02*
D03*
X30949D02*
D03*
X26529Y78184D02*
D03*
X31229Y72974D02*
D03*
X13559Y80104D02*
D03*
X22439Y85897D02*
D03*
X9116Y81115D02*
D03*
X7815Y81102D02*
D03*
X8799Y80335D02*
D03*
X15049Y72608D02*
D03*
X10119Y80404D02*
D03*
X10649Y80674D02*
D03*
X12096Y79902D02*
D03*
X12835Y78907D02*
D03*
X39388Y83636D02*
D03*
X37927Y84402D02*
D03*
X35722Y83616D02*
D03*
X27159Y68704D02*
D03*
X36682Y68686D02*
D03*
X37452Y68356D02*
D03*
X22352Y74526D02*
D03*
X31972Y75816D02*
D03*
X31492D02*
D03*
X11729Y74074D02*
D03*
X40699Y78124D02*
D03*
X37699Y63104D02*
D03*
X15269Y77794D02*
D03*
X15394Y78002D02*
D03*
X14734Y76791D02*
D03*
X15989Y78414D02*
D03*
X15909Y78844D02*
D03*
X17089Y74684D02*
D03*
X18359Y64144D02*
D03*
X31329Y86054D02*
D03*
X27009Y80374D02*
D03*
X17329Y72994D02*
D03*
X20149Y76234D02*
D03*
X20299Y72094D02*
D03*
X18142Y71646D02*
D03*
X34361Y76811D02*
D03*
X34761D02*
D03*
Y77211D02*
D03*
X34361D02*
D03*
Y77611D02*
D03*
X34761D02*
D03*
Y78011D02*
D03*
X34361D02*
D03*
X33561D02*
D03*
X33161D02*
D03*
Y77611D02*
D03*
X33561D02*
D03*
Y77211D02*
D03*
X33161D02*
D03*
Y76811D02*
D03*
X33561D02*
D03*
X33961D02*
D03*
Y77211D02*
D03*
Y78011D02*
D03*
Y77611D02*
D03*
X29907Y63600D02*
D03*
X29507D02*
D03*
X30307D02*
D03*
X30707D02*
D03*
Y63200D02*
D03*
Y62800D02*
D03*
X30307D02*
D03*
Y63200D02*
D03*
X29907D02*
D03*
Y62800D02*
D03*
X29507D02*
D03*
Y63200D02*
D03*
Y64000D02*
D03*
Y64400D02*
D03*
X29907D02*
D03*
Y64000D02*
D03*
X30307D02*
D03*
Y64400D02*
D03*
X30707D02*
D03*
Y64000D02*
D03*
X5479Y77524D02*
D03*
X14109Y77614D02*
D03*
X25589Y79314D02*
D03*
X5872Y79606D02*
D03*
X19812Y80036D02*
D03*
X24819Y80864D02*
D03*
X14192Y61406D02*
D03*
X6209Y63574D02*
D03*
X24929Y63204D02*
D03*
X10359Y67264D02*
D03*
X31699Y74144D02*
D03*
X29469Y70234D02*
D03*
X23019Y69194D02*
D03*
X11824Y74443D02*
D03*
X10989Y74394D02*
D03*
X11009Y73274D02*
D03*
X11172Y72126D02*
D03*
X15039Y72034D02*
D03*
X14099Y72154D02*
D03*
X13362Y76536D02*
D03*
X13862Y75646D02*
D03*
X14279Y71454D02*
D03*
X15059Y71724D02*
D03*
X20787Y72904D02*
D03*
X17289Y69984D02*
D03*
X16328Y76054D02*
D03*
X16638D02*
D03*
X16949D02*
D03*
X16329Y75124D02*
D03*
X16328Y74684D02*
D03*
X16638D02*
D03*
Y74234D02*
D03*
X16328Y73684D02*
D03*
X16948D02*
D03*
X17002Y72996D02*
D03*
X14882Y73186D02*
D03*
X21407Y72904D02*
D03*
X22529Y73874D02*
D03*
X22639Y71084D02*
D03*
X21097Y72904D02*
D03*
X16639Y75124D02*
D03*
X16948Y74234D02*
D03*
X16638Y73684D02*
D03*
X15049Y72923D02*
D03*
X19472Y71346D02*
D03*
X19474Y71849D02*
D03*
X18469Y71654D02*
D03*
X17679Y71344D02*
D03*
Y71974D02*
D03*
X25589Y79644D02*
D03*
X22519Y77616D02*
D03*
X18622Y79386D02*
D03*
X19809Y69034D02*
D03*
X18109Y64144D02*
D03*
X24079Y67144D02*
D03*
X23999Y66914D02*
D03*
X24449Y63024D02*
D03*
X18759Y68934D02*
D03*
X6379Y68084D02*
D03*
X3819Y69434D02*
D03*
X4669Y69504D02*
D03*
X4929Y69284D02*
D03*
X8619Y66934D02*
D03*
X7829Y67554D02*
D03*
X11279Y68024D02*
D03*
X10359Y67504D02*
D03*
X9409Y69194D02*
D03*
X7852Y68136D02*
D03*
X8142Y68036D02*
D03*
X7159Y69474D02*
D03*
X6609Y69634D02*
D03*
X15309Y70444D02*
D03*
X5909Y67834D02*
D03*
X8392Y67866D02*
D03*
X8869Y66284D02*
D03*
X12099Y68364D02*
D03*
X12859Y68354D02*
D03*
X12479Y68364D02*
D03*
X21829Y68424D02*
D03*
X11979Y63494D02*
D03*
X11939Y63964D02*
D03*
X14669Y68754D02*
D03*
X15809Y69934D02*
D03*
X16159Y67344D02*
D03*
X16489Y66754D02*
D03*
X24489Y67324D02*
D03*
X23519Y69194D02*
D03*
X14309Y67124D02*
D03*
X14439Y66924D02*
D03*
X4259Y66954D02*
D03*
X21929Y60844D02*
D03*
X20552Y65735D02*
D03*
X22389Y61854D02*
D03*
X24089Y62014D02*
D03*
X5439Y67244D02*
D03*
X5219D02*
D03*
X4259Y66734D02*
D03*
X3299Y63054D02*
D03*
X3519D02*
D03*
X10449Y63204D02*
D03*
X3169Y64694D02*
D03*
X5829Y67604D02*
D03*
X6459Y63644D02*
D03*
X12379Y63774D02*
D03*
X9809Y67124D02*
D03*
X7849Y63634D02*
D03*
Y63934D02*
D03*
Y64234D02*
D03*
X20369Y69874D02*
D03*
X20819Y69384D02*
D03*
X20489Y69064D02*
D03*
X20129Y69034D02*
D03*
X3409Y69704D02*
D03*
X15369Y62954D02*
D03*
X24789D02*
D03*
X26309Y66844D02*
D03*
X25589Y67284D02*
D03*
X18741Y66995D02*
D03*
X20474Y66995D02*
D03*
X22649Y68924D02*
D03*
X22189Y68904D02*
D03*
X21519D02*
D03*
X22509Y68434D02*
D03*
X19169Y69034D02*
D03*
X6872Y67486D02*
D03*
X17599Y65434D02*
D03*
X13339Y66624D02*
D03*
X12839Y66534D02*
D03*
X11999Y67214D02*
D03*
X15932Y67344D02*
D03*
X11749Y69024D02*
D03*
X11909Y68730D02*
D03*
X24449Y62804D02*
D03*
X22129Y61854D02*
D03*
X24339Y62014D02*
D03*
X25759Y62534D02*
D03*
X26019D02*
D03*
X21079Y67814D02*
D03*
X19579Y64494D02*
D03*
X19349D02*
D03*
X5869Y63314D02*
D03*
X6199Y63154D02*
D03*
X7332Y62916D02*
D03*
X6792D02*
D03*
X8479Y63054D02*
D03*
X8789Y63044D02*
D03*
X13079Y63054D02*
D03*
X13329D02*
D03*
X15369Y63204D02*
D03*
X10449Y62944D02*
D03*
X24499Y67564D02*
D03*
X7329Y67014D02*
D03*
X8869Y66534D02*
D03*
X16859Y67904D02*
D03*
X21139Y78344D02*
D03*
X20592Y78346D02*
D03*
X15402Y78916D02*
D03*
X15389Y79474D02*
D03*
X21749Y78354D02*
D03*
X14679Y78954D02*
D03*
X14932Y79746D02*
D03*
X10609Y68474D02*
D03*
X10929D02*
D03*
X5439Y68784D02*
D03*
Y69044D02*
D03*
X15199Y69974D02*
D03*
X15689Y68954D02*
D03*
X15989D02*
D03*
X10602Y77026D02*
D03*
X10242Y71616D02*
D03*
X10862Y72116D02*
D03*
X16999Y71474D02*
D03*
X18092Y73466D02*
D03*
X23652Y73536D02*
D03*
X18432Y67506D02*
D03*
X28049Y78184D02*
D03*
X30662Y78876D02*
D03*
X31152Y78896D02*
D03*
X31342Y79246D02*
D03*
X30389Y65554D02*
D03*
X5984Y61656D02*
D03*
X6252D02*
D03*
X7102Y61296D02*
D03*
Y61556D02*
D03*
X8052Y61576D02*
D03*
Y61316D02*
D03*
X8792Y61364D02*
D03*
Y61124D02*
D03*
X10042Y61306D02*
D03*
X10032Y61046D02*
D03*
X11682Y62716D02*
D03*
X11822Y61796D02*
D03*
Y61536D02*
D03*
X14189Y61664D02*
D03*
X15692Y61616D02*
D03*
X15962D02*
D03*
X21728Y77975D02*
D03*
X21140D02*
D03*
X20588Y77965D02*
D03*
X16659Y79244D02*
D03*
X16142Y80728D02*
D03*
X14369Y78214D02*
D03*
X9939Y66924D02*
D03*
X11372Y67176D02*
D03*
X22959Y66614D02*
D03*
Y66364D02*
D03*
X9862Y68606D02*
D03*
X30226Y72677D02*
D03*
X14370Y77972D02*
D03*
X15129Y80394D02*
D03*
X15594D02*
D03*
X13907Y76791D02*
D03*
X18332Y79306D02*
D03*
M02*
