G04 Layer_Color=13278208*
%FSLAX24Y24*%
%MOIN*%
G70*
G01*
G75*
%ADD12C,0.0100*%
G54D12*
X0Y0D02*
X46000D01*
Y89016D01*
X0D02*
X46000D01*
X0Y0D02*
Y89016D01*
X19328Y96128D02*
Y96728D01*
X19628D01*
X19728Y96628D01*
Y96428D01*
X19628Y96328D01*
X19328D01*
X20028Y96528D02*
X20228D01*
X20328Y96428D01*
Y96128D01*
X20028D01*
X19928Y96228D01*
X20028Y96328D01*
X20328D01*
X20528Y96128D02*
Y96528D01*
X20828D01*
X20928Y96428D01*
Y96128D01*
X21428D02*
X21228D01*
X21128Y96228D01*
Y96428D01*
X21228Y96528D01*
X21428D01*
X21528Y96428D01*
Y96328D01*
X21128D01*
X21728Y96128D02*
X21928D01*
X21828D01*
Y96728D01*
X21728D01*
X23127D02*
X22927D01*
X22827Y96628D01*
Y96228D01*
X22927Y96128D01*
X23127D01*
X23227Y96228D01*
Y96628D01*
X23127Y96728D01*
X23427Y96528D02*
Y96228D01*
X23527Y96128D01*
X23827D01*
Y96528D01*
X24127Y96628D02*
Y96528D01*
X24027D01*
X24227D01*
X24127D01*
Y96228D01*
X24227Y96128D01*
X24527D02*
X24727D01*
X24627D01*
Y96728D01*
X24527D01*
X25027Y96128D02*
X25226D01*
X25126D01*
Y96528D01*
X25027D01*
X25526Y96128D02*
Y96528D01*
X25826D01*
X25926Y96428D01*
Y96128D01*
X26426D02*
X26226D01*
X26126Y96228D01*
Y96428D01*
X26226Y96528D01*
X26426D01*
X26526Y96428D01*
Y96328D01*
X26126D01*
X19728Y97928D02*
X19328D01*
Y97328D01*
X19728D01*
X19328Y97628D02*
X19528D01*
X19928Y97328D02*
X20128D01*
X20028D01*
Y97728D01*
X19928D01*
X20428Y97328D02*
Y97728D01*
X20728D01*
X20828Y97628D01*
Y97328D01*
X21028D02*
X21328D01*
X21428Y97428D01*
X21328Y97528D01*
X21128D01*
X21028Y97628D01*
X21128Y97728D01*
X21428D01*
X21628D02*
Y97428D01*
X21728Y97328D01*
X22027D01*
Y97228D01*
X21928Y97128D01*
X21828D01*
X22027Y97328D02*
Y97728D01*
X22227Y97328D02*
Y97928D01*
X22527D01*
X22627Y97828D01*
Y97628D01*
X22527Y97528D01*
X22227D01*
X22427D02*
X22627Y97328D01*
X23127D02*
X22927D01*
X22827Y97428D01*
Y97628D01*
X22927Y97728D01*
X23127D01*
X23227Y97628D01*
Y97528D01*
X22827D01*
X23527Y97828D02*
Y97728D01*
X23427D01*
X23627D01*
X23527D01*
Y97428D01*
X23627Y97328D01*
X23927Y97728D02*
Y97328D01*
Y97528D01*
X24027Y97628D01*
X24127Y97728D01*
X24227D01*
X24627Y97328D02*
X24827D01*
X24927Y97428D01*
Y97628D01*
X24827Y97728D01*
X24627D01*
X24527Y97628D01*
Y97428D01*
X24627Y97328D01*
X25726D02*
X25926D01*
X25826D01*
Y97928D01*
X25726Y97828D01*
X26226Y97328D02*
Y97428D01*
X26326D01*
Y97328D01*
X26226D01*
X26726Y97828D02*
X26826Y97928D01*
X27026D01*
X27126Y97828D01*
Y97428D01*
X27026Y97328D01*
X26826D01*
X26726Y97428D01*
Y97828D01*
X27326Y97928D02*
Y97328D01*
X27626D01*
X27726Y97428D01*
Y97528D01*
Y97628D01*
X27626Y97728D01*
X27326D01*
M02*
