G04 Layer_Color=8388736*
%FSLAX25Y25*%
%MOIN*%
G70*
G01*
G75*
%ADD40C,0.06000*%
%ADD121C,0.03000*%
%ADD127C,0.08400*%
%ADD212C,0.06305*%
%ADD213R,0.05300X0.01700*%
%ADD214R,0.04600X0.01300*%
%ADD215R,0.04140X0.11030*%
G04:AMPARAMS|DCode=216|XSize=26mil|YSize=28mil|CornerRadius=6.4mil|HoleSize=0mil|Usage=FLASHONLY|Rotation=270.000|XOffset=0mil|YOffset=0mil|HoleType=Round|Shape=RoundedRectangle|*
%AMROUNDEDRECTD216*
21,1,0.02600,0.01520,0,0,270.0*
21,1,0.01320,0.02800,0,0,270.0*
1,1,0.01280,-0.00760,-0.00660*
1,1,0.01280,-0.00760,0.00660*
1,1,0.01280,0.00760,0.00660*
1,1,0.01280,0.00760,-0.00660*
%
%ADD216ROUNDEDRECTD216*%
G04:AMPARAMS|DCode=217|XSize=26mil|YSize=28mil|CornerRadius=6.4mil|HoleSize=0mil|Usage=FLASHONLY|Rotation=0.000|XOffset=0mil|YOffset=0mil|HoleType=Round|Shape=RoundedRectangle|*
%AMROUNDEDRECTD217*
21,1,0.02600,0.01520,0,0,0.0*
21,1,0.01320,0.02800,0,0,0.0*
1,1,0.01280,0.00660,-0.00760*
1,1,0.01280,-0.00660,-0.00760*
1,1,0.01280,-0.00660,0.00760*
1,1,0.01280,0.00660,0.00760*
%
%ADD217ROUNDEDRECTD217*%
%ADD218R,0.11030X0.04140*%
G04:AMPARAMS|DCode=219|XSize=33.13mil|YSize=43.37mil|CornerRadius=7.83mil|HoleSize=0mil|Usage=FLASHONLY|Rotation=90.000|XOffset=0mil|YOffset=0mil|HoleType=Round|Shape=RoundedRectangle|*
%AMROUNDEDRECTD219*
21,1,0.03313,0.02772,0,0,90.0*
21,1,0.01748,0.04337,0,0,90.0*
1,1,0.01565,0.01386,0.00874*
1,1,0.01565,0.01386,-0.00874*
1,1,0.01565,-0.01386,-0.00874*
1,1,0.01565,-0.01386,0.00874*
%
%ADD219ROUNDEDRECTD219*%
%ADD220R,0.02368X0.02565*%
%ADD221R,0.02565X0.02368*%
G04:AMPARAMS|DCode=222|XSize=27.62mil|YSize=28mil|CornerRadius=6.72mil|HoleSize=0mil|Usage=FLASHONLY|Rotation=90.000|XOffset=0mil|YOffset=0mil|HoleType=Round|Shape=RoundedRectangle|*
%AMROUNDEDRECTD222*
21,1,0.02762,0.01455,0,0,90.0*
21,1,0.01417,0.02800,0,0,90.0*
1,1,0.01345,0.00728,0.00709*
1,1,0.01345,0.00728,-0.00709*
1,1,0.01345,-0.00728,-0.00709*
1,1,0.01345,-0.00728,0.00709*
%
%ADD222ROUNDEDRECTD222*%
G04:AMPARAMS|DCode=223|XSize=14.96mil|YSize=35.43mil|CornerRadius=6.38mil|HoleSize=0mil|Usage=FLASHONLY|Rotation=180.000|XOffset=0mil|YOffset=0mil|HoleType=Round|Shape=RoundedRectangle|*
%AMROUNDEDRECTD223*
21,1,0.01496,0.02268,0,0,180.0*
21,1,0.00220,0.03543,0,0,180.0*
1,1,0.01276,-0.00110,0.01134*
1,1,0.01276,0.00110,0.01134*
1,1,0.01276,0.00110,-0.01134*
1,1,0.01276,-0.00110,-0.01134*
%
%ADD223ROUNDEDRECTD223*%
G04:AMPARAMS|DCode=224|XSize=14.96mil|YSize=35.43mil|CornerRadius=6.38mil|HoleSize=0mil|Usage=FLASHONLY|Rotation=270.000|XOffset=0mil|YOffset=0mil|HoleType=Round|Shape=RoundedRectangle|*
%AMROUNDEDRECTD224*
21,1,0.01496,0.02268,0,0,270.0*
21,1,0.00220,0.03543,0,0,270.0*
1,1,0.01276,-0.01134,-0.00110*
1,1,0.01276,-0.01134,0.00110*
1,1,0.01276,0.01134,0.00110*
1,1,0.01276,0.01134,-0.00110*
%
%ADD224ROUNDEDRECTD224*%
%ADD225R,0.14100X0.14100*%
%ADD226O,0.05518X0.01384*%
%ADD227O,0.01384X0.05518*%
%ADD228R,0.03865X0.03038*%
%ADD229R,0.03038X0.03865*%
%ADD230R,0.03200X0.06000*%
%ADD231R,0.20100X0.17400*%
%ADD232R,0.17400X0.20100*%
%ADD233R,0.06000X0.03200*%
G04:AMPARAMS|DCode=234|XSize=33.13mil|YSize=43.37mil|CornerRadius=7.83mil|HoleSize=0mil|Usage=FLASHONLY|Rotation=180.000|XOffset=0mil|YOffset=0mil|HoleType=Round|Shape=RoundedRectangle|*
%AMROUNDEDRECTD234*
21,1,0.03313,0.02772,0,0,180.0*
21,1,0.01748,0.04337,0,0,180.0*
1,1,0.01565,-0.00874,0.01386*
1,1,0.01565,0.00874,0.01386*
1,1,0.01565,0.00874,-0.01386*
1,1,0.01565,-0.00874,-0.01386*
%
%ADD234ROUNDEDRECTD234*%
%ADD235R,0.05912X0.13786*%
%ADD236R,0.13786X0.05912*%
G04:AMPARAMS|DCode=237|XSize=56mil|YSize=64mil|CornerRadius=15mil|HoleSize=0mil|Usage=FLASHONLY|Rotation=180.000|XOffset=0mil|YOffset=0mil|HoleType=Round|Shape=RoundedRectangle|*
%AMROUNDEDRECTD237*
21,1,0.05600,0.03400,0,0,180.0*
21,1,0.02600,0.06400,0,0,180.0*
1,1,0.03000,-0.01300,0.01700*
1,1,0.03000,0.01300,0.01700*
1,1,0.03000,0.01300,-0.01700*
1,1,0.03000,-0.01300,-0.01700*
%
%ADD237ROUNDEDRECTD237*%
G04:AMPARAMS|DCode=238|XSize=67mil|YSize=75mil|CornerRadius=17.75mil|HoleSize=0mil|Usage=FLASHONLY|Rotation=180.000|XOffset=0mil|YOffset=0mil|HoleType=Round|Shape=RoundedRectangle|*
%AMROUNDEDRECTD238*
21,1,0.06700,0.03950,0,0,180.0*
21,1,0.03150,0.07500,0,0,180.0*
1,1,0.03550,-0.01575,0.01975*
1,1,0.03550,0.01575,0.01975*
1,1,0.03550,0.01575,-0.01975*
1,1,0.03550,-0.01575,-0.01975*
%
%ADD238ROUNDEDRECTD238*%
G04:AMPARAMS|DCode=239|XSize=67mil|YSize=75mil|CornerRadius=17.75mil|HoleSize=0mil|Usage=FLASHONLY|Rotation=90.000|XOffset=0mil|YOffset=0mil|HoleType=Round|Shape=RoundedRectangle|*
%AMROUNDEDRECTD239*
21,1,0.06700,0.03950,0,0,90.0*
21,1,0.03150,0.07500,0,0,90.0*
1,1,0.03550,0.01975,0.01575*
1,1,0.03550,0.01975,-0.01575*
1,1,0.03550,-0.01975,-0.01575*
1,1,0.03550,-0.01975,0.01575*
%
%ADD239ROUNDEDRECTD239*%
%ADD240R,0.02400X0.03000*%
%ADD241R,0.05400X0.01900*%
G04:AMPARAMS|DCode=242|XSize=80mil|YSize=80mil|CornerRadius=40mil|HoleSize=0mil|Usage=FLASHONLY|Rotation=0.000|XOffset=0mil|YOffset=0mil|HoleType=Round|Shape=RoundedRectangle|*
%AMROUNDEDRECTD242*
21,1,0.08000,0.00000,0,0,0.0*
21,1,0.00000,0.08000,0,0,0.0*
1,1,0.08000,0.00000,0.00000*
1,1,0.08000,0.00000,0.00000*
1,1,0.08000,0.00000,0.00000*
1,1,0.08000,0.00000,0.00000*
%
%ADD242ROUNDEDRECTD242*%
%ADD243R,0.02800X0.06400*%
%ADD244R,0.05200X0.05200*%
%ADD245R,0.05833X0.07487*%
%ADD246R,0.05600X0.04600*%
%ADD247R,0.02762X0.03550*%
%ADD248R,0.02400X0.03200*%
%ADD249R,0.08300X0.08300*%
%ADD250R,0.13000X0.06700*%
%ADD251R,0.02800X0.02800*%
%ADD252R,0.03550X0.02762*%
%ADD253R,0.05200X0.05200*%
%ADD254R,0.04600X0.05600*%
G04:AMPARAMS|DCode=255|XSize=54mil|YSize=54mil|CornerRadius=27mil|HoleSize=0mil|Usage=FLASHONLY|Rotation=270.000|XOffset=0mil|YOffset=0mil|HoleType=Round|Shape=RoundedRectangle|*
%AMROUNDEDRECTD255*
21,1,0.05400,0.00000,0,0,270.0*
21,1,0.00000,0.05400,0,0,270.0*
1,1,0.05400,0.00000,0.00000*
1,1,0.05400,0.00000,0.00000*
1,1,0.05400,0.00000,0.00000*
1,1,0.05400,0.00000,0.00000*
%
%ADD255ROUNDEDRECTD255*%
%ADD256R,0.07487X0.05833*%
%ADD257R,0.14573X0.16542*%
%ADD258O,0.01384X0.03747*%
%ADD259O,0.03747X0.01384*%
%ADD260R,0.03200X0.02400*%
%ADD261R,0.01581X0.02172*%
%ADD262R,0.14179X0.16542*%
%ADD263R,0.09849X0.12605*%
%ADD264R,0.05321X0.02565*%
%ADD265R,0.05400X0.08700*%
%ADD266R,0.06305X0.06305*%
%ADD267C,0.06305*%
%ADD268O,0.06400X0.12400*%
%ADD269R,0.06400X0.12400*%
%ADD270O,0.13400X0.14000*%
%ADD271R,0.06305X0.06305*%
%ADD272O,0.12400X0.06400*%
%ADD273O,0.08650X0.16900*%
%ADD274P,0.07144X8X22.5*%
%ADD275C,0.13450*%
%ADD276C,0.05800*%
%ADD277C,0.10400*%
%ADD278P,0.08010X8X292.5*%
G04:AMPARAMS|DCode=279|XSize=137mil|YSize=87mil|CornerRadius=0mil|HoleSize=0mil|Usage=FLASHONLY|Rotation=270.000|XOffset=0mil|YOffset=0mil|HoleType=Round|Shape=Octagon|*
%AMOCTAGOND279*
4,1,8,-0.02175,-0.06850,0.02175,-0.06850,0.04350,-0.04675,0.04350,0.04675,0.02175,0.06850,-0.02175,0.06850,-0.04350,0.04675,-0.04350,-0.04675,-0.02175,-0.06850,0.0*
%
%ADD279OCTAGOND279*%

%ADD280C,0.01000*%
G54D40*
X403175Y15773D02*
D03*
Y23647D02*
D03*
X397663Y29159D02*
D03*
X389789D02*
D03*
X384277Y23647D02*
D03*
Y15773D02*
D03*
X389789Y10261D02*
D03*
X397663D02*
D03*
X403175Y255931D02*
D03*
Y263805D02*
D03*
X397663Y269317D02*
D03*
X389789D02*
D03*
X384277Y263805D02*
D03*
Y255931D02*
D03*
X389789Y250419D02*
D03*
X397663D02*
D03*
X29159Y255931D02*
D03*
Y263805D02*
D03*
X23647Y269317D02*
D03*
X15773D02*
D03*
X10261Y263805D02*
D03*
Y255931D02*
D03*
X15773Y250419D02*
D03*
X23647D02*
D03*
X29159Y15773D02*
D03*
Y23647D02*
D03*
X23647Y29159D02*
D03*
X15773D02*
D03*
X10261Y23647D02*
D03*
Y15773D02*
D03*
X15773Y10261D02*
D03*
X23647D02*
D03*
G54D121*
X79600Y172600D02*
D03*
Y176340D02*
D03*
X75831Y176376D02*
D03*
X75880Y172600D02*
D03*
X75860Y168761D02*
D03*
X79600Y168860D02*
D03*
X83340D02*
D03*
Y172600D02*
D03*
Y176340D02*
D03*
X316900Y168239D02*
D03*
X320900D02*
D03*
Y172239D02*
D03*
X316900D02*
D03*
Y176239D02*
D03*
X320900D02*
D03*
Y180239D02*
D03*
X316900D02*
D03*
X308900D02*
D03*
X304900D02*
D03*
Y176239D02*
D03*
X308900D02*
D03*
Y172239D02*
D03*
X304900D02*
D03*
Y168239D02*
D03*
X308900D02*
D03*
X312900D02*
D03*
Y172239D02*
D03*
Y180239D02*
D03*
Y176239D02*
D03*
X273681Y50768D02*
D03*
X269681D02*
D03*
X277681D02*
D03*
X281681D02*
D03*
Y46768D02*
D03*
Y42768D02*
D03*
X277681D02*
D03*
Y46768D02*
D03*
X273681D02*
D03*
Y42768D02*
D03*
X269681D02*
D03*
Y46768D02*
D03*
Y54768D02*
D03*
Y58768D02*
D03*
X273681D02*
D03*
Y54768D02*
D03*
X277681D02*
D03*
Y58768D02*
D03*
X281681D02*
D03*
Y54768D02*
D03*
X22031Y72102D02*
D03*
X30693Y59109D02*
D03*
X26362D02*
D03*
X22031D02*
D03*
X30693Y63440D02*
D03*
X26362D02*
D03*
X22031D02*
D03*
X30693Y67771D02*
D03*
X26362D02*
D03*
X22031D02*
D03*
X30693Y72102D02*
D03*
X26362D02*
D03*
X71100Y68502D02*
D03*
X75431D02*
D03*
X66769Y64171D02*
D03*
X71100D02*
D03*
X75431D02*
D03*
X66769Y59840D02*
D03*
X71100D02*
D03*
X75431D02*
D03*
X66769Y55510D02*
D03*
X71100D02*
D03*
X75431D02*
D03*
X66769Y68502D02*
D03*
X111769D02*
D03*
X120431Y55510D02*
D03*
X116100D02*
D03*
X111769D02*
D03*
X120431Y59840D02*
D03*
X116100D02*
D03*
X111769D02*
D03*
X120431Y64171D02*
D03*
X116100D02*
D03*
X111769D02*
D03*
X120431Y68502D02*
D03*
X116100D02*
D03*
X212500D02*
D03*
X216831D02*
D03*
X208169Y64171D02*
D03*
X212500D02*
D03*
X216831D02*
D03*
X208169Y59840D02*
D03*
X212500D02*
D03*
X216831D02*
D03*
X208169Y55510D02*
D03*
X212500D02*
D03*
X216831D02*
D03*
X208169Y68502D02*
D03*
G54D127*
X403667Y42151D02*
D03*
G54D212*
X263268Y219171D02*
D03*
Y229171D02*
D03*
Y239171D02*
D03*
Y249171D02*
D03*
Y259171D02*
D03*
G54D213*
X90563Y141354D02*
D03*
Y138854D02*
D03*
X90563Y136354D02*
D03*
Y133854D02*
D03*
X90563Y131354D02*
D03*
X90563Y128854D02*
D03*
Y126354D02*
D03*
X90563Y123854D02*
D03*
X111063Y123854D02*
D03*
X111063Y126354D02*
D03*
X111063Y128854D02*
D03*
X111063Y131354D02*
D03*
X111063Y133854D02*
D03*
X111063Y136354D02*
D03*
X111063Y138854D02*
D03*
X111063Y141354D02*
D03*
G54D214*
X90613Y141354D02*
D03*
X90613Y138854D02*
D03*
X90613Y136354D02*
D03*
Y133854D02*
D03*
X90613Y131354D02*
D03*
X90613Y128854D02*
D03*
Y126354D02*
D03*
X90613Y123854D02*
D03*
X111012D02*
D03*
X111013Y126354D02*
D03*
Y128854D02*
D03*
X111013Y131354D02*
D03*
X111012Y133854D02*
D03*
X111013Y136354D02*
D03*
X111013Y138854D02*
D03*
X111012Y141354D02*
D03*
G54D215*
X337902Y223700D02*
D03*
X350698D02*
D03*
X337902Y210700D02*
D03*
X350698D02*
D03*
G54D216*
X326100Y264615D02*
D03*
Y268385D02*
D03*
X357600Y254285D02*
D03*
Y250515D02*
D03*
X334500Y274085D02*
D03*
Y270315D02*
D03*
X357500Y269890D02*
D03*
Y266100D02*
D03*
X136100Y217810D02*
D03*
Y221600D02*
D03*
X195100Y122770D02*
D03*
Y119000D02*
D03*
X198300Y52830D02*
D03*
Y56600D02*
D03*
X229800Y65500D02*
D03*
Y69270D02*
D03*
X101900Y53030D02*
D03*
Y56800D02*
D03*
X133300Y69270D02*
D03*
Y65500D02*
D03*
X56800Y51930D02*
D03*
Y55700D02*
D03*
X88300Y65400D02*
D03*
Y69170D02*
D03*
X45053Y186500D02*
D03*
Y182730D02*
D03*
X84868Y142840D02*
D03*
Y139070D02*
D03*
X116659Y139661D02*
D03*
Y143431D02*
D03*
X116757Y122165D02*
D03*
Y125935D02*
D03*
X84966Y125646D02*
D03*
Y121876D02*
D03*
X169900Y191530D02*
D03*
Y195300D02*
D03*
X108400Y160670D02*
D03*
Y156900D02*
D03*
X58900Y142230D02*
D03*
Y146000D02*
D03*
X29300Y213500D02*
D03*
Y217270D02*
D03*
X199600Y139527D02*
D03*
Y135757D02*
D03*
X124900Y169570D02*
D03*
Y165800D02*
D03*
X43700Y69100D02*
D03*
Y72870D02*
D03*
X12200Y55330D02*
D03*
Y59100D02*
D03*
X278700Y266800D02*
D03*
Y263030D02*
D03*
X100689Y207609D02*
D03*
Y203819D02*
D03*
X46256Y216891D02*
D03*
Y220681D02*
D03*
X91939Y220502D02*
D03*
Y216713D02*
D03*
X106900Y207200D02*
D03*
Y210990D02*
D03*
X76125Y127015D02*
D03*
Y123225D02*
D03*
X199400Y119000D02*
D03*
Y122790D02*
D03*
X213900Y141410D02*
D03*
Y145200D02*
D03*
X293900Y181410D02*
D03*
Y185200D02*
D03*
X143700Y204500D02*
D03*
Y200710D02*
D03*
X110200Y218010D02*
D03*
Y221800D02*
D03*
X107300Y195400D02*
D03*
Y191630D02*
D03*
X92348Y203814D02*
D03*
Y207584D02*
D03*
X88248Y203814D02*
D03*
Y207584D02*
D03*
X234600Y69300D02*
D03*
Y65510D02*
D03*
X138100D02*
D03*
Y69300D02*
D03*
X94400Y61200D02*
D03*
Y57410D02*
D03*
X357500Y262090D02*
D03*
Y258300D02*
D03*
X330300Y274090D02*
D03*
Y270300D02*
D03*
X155000Y198800D02*
D03*
Y195010D02*
D03*
X214300Y173190D02*
D03*
Y169400D02*
D03*
X212300Y115800D02*
D03*
Y119590D02*
D03*
X218000Y141410D02*
D03*
Y145200D02*
D03*
X147500Y203290D02*
D03*
Y199500D02*
D03*
X51053Y182701D02*
D03*
Y186491D02*
D03*
X288300Y129000D02*
D03*
Y132790D02*
D03*
X202298Y187597D02*
D03*
Y183807D02*
D03*
X41898Y197621D02*
D03*
Y201411D02*
D03*
X33400Y217290D02*
D03*
Y213500D02*
D03*
X49500Y63200D02*
D03*
Y59410D02*
D03*
X159100Y191710D02*
D03*
Y195500D02*
D03*
X289700Y181400D02*
D03*
Y185190D02*
D03*
X162425Y97325D02*
D03*
Y101115D02*
D03*
X189400Y198300D02*
D03*
Y194510D02*
D03*
X183700Y198300D02*
D03*
Y194510D02*
D03*
X177900Y198200D02*
D03*
Y194410D02*
D03*
X150800Y191800D02*
D03*
Y195590D02*
D03*
X42100Y215715D02*
D03*
Y219485D02*
D03*
X96000Y216930D02*
D03*
Y220700D02*
D03*
X50390Y216891D02*
D03*
Y220681D02*
D03*
X87779Y216683D02*
D03*
Y220472D02*
D03*
X84258Y207604D02*
D03*
Y203814D02*
D03*
X96555Y207609D02*
D03*
Y203819D02*
D03*
X107300Y203200D02*
D03*
Y199410D02*
D03*
X122100Y217915D02*
D03*
Y221685D02*
D03*
X61300Y217500D02*
D03*
Y221270D02*
D03*
G54D217*
X322085Y264500D02*
D03*
X318315D02*
D03*
X322410Y272700D02*
D03*
X326200D02*
D03*
X318310Y268600D02*
D03*
X322100D02*
D03*
X353485Y270500D02*
D03*
X349715D02*
D03*
X213610Y203000D02*
D03*
X217400D02*
D03*
X202490Y198100D02*
D03*
X198700D02*
D03*
X213600Y198900D02*
D03*
X217390D02*
D03*
X202490Y194000D02*
D03*
X198700D02*
D03*
X245490Y196700D02*
D03*
X241700D02*
D03*
X234010Y202500D02*
D03*
X237800D02*
D03*
X342725Y98525D02*
D03*
X346515D02*
D03*
X72756Y217390D02*
D03*
X68966D02*
D03*
X210400Y192500D02*
D03*
X214170D02*
D03*
X231970Y60600D02*
D03*
X228200D02*
D03*
X220100Y79800D02*
D03*
X223870D02*
D03*
X228130Y73900D02*
D03*
X231900D02*
D03*
X132600Y61000D02*
D03*
X136370D02*
D03*
X123800Y79700D02*
D03*
X127570D02*
D03*
X136100Y73900D02*
D03*
X132330D02*
D03*
X90470Y60800D02*
D03*
X86700D02*
D03*
X78700Y79700D02*
D03*
X82470D02*
D03*
X86668Y73800D02*
D03*
X90438D02*
D03*
X207030Y162100D02*
D03*
X210800D02*
D03*
X161792Y76644D02*
D03*
X165562D02*
D03*
X166957Y92983D02*
D03*
X163187D02*
D03*
X169568Y76644D02*
D03*
X173338D02*
D03*
X174438Y92983D02*
D03*
X170668D02*
D03*
X181143Y76546D02*
D03*
X177373D02*
D03*
X178473Y92884D02*
D03*
X182243D02*
D03*
X206600Y177800D02*
D03*
X202830D02*
D03*
X208224Y168529D02*
D03*
X204454D02*
D03*
X113792Y149120D02*
D03*
X117562D02*
D03*
X79835Y158779D02*
D03*
X76065D02*
D03*
X78000Y152300D02*
D03*
X74230D02*
D03*
X61200Y176900D02*
D03*
X64970D02*
D03*
X109430Y168250D02*
D03*
X113200D02*
D03*
X61200Y164500D02*
D03*
X64970D02*
D03*
X54230Y135600D02*
D03*
X58000D02*
D03*
X159991Y115779D02*
D03*
X163761D02*
D03*
X206650Y172663D02*
D03*
X202880D02*
D03*
X45370Y64600D02*
D03*
X41600D02*
D03*
X33100Y82300D02*
D03*
X36870D02*
D03*
X41930Y77400D02*
D03*
X45700D02*
D03*
X156270Y274200D02*
D03*
X152500D02*
D03*
X61200Y158100D02*
D03*
X64970D02*
D03*
X84222Y211713D02*
D03*
X88012D02*
D03*
X116012Y179877D02*
D03*
X112222D02*
D03*
X218210Y194800D02*
D03*
X222000D02*
D03*
X279910Y274200D02*
D03*
X283700D02*
D03*
X292090D02*
D03*
X288300D02*
D03*
X212310Y123600D02*
D03*
X216100D02*
D03*
X207000Y158300D02*
D03*
X210790D02*
D03*
X280700Y126500D02*
D03*
X284490D02*
D03*
X284500Y130500D02*
D03*
X280710D02*
D03*
X144010Y212600D02*
D03*
X147800D02*
D03*
X218500Y173400D02*
D03*
X222290D02*
D03*
X277410Y140800D02*
D03*
X281200D02*
D03*
X61210Y172600D02*
D03*
X65000D02*
D03*
Y168500D02*
D03*
X61210D02*
D03*
X336110Y196200D02*
D03*
X339900D02*
D03*
X194472Y187495D02*
D03*
X198261D02*
D03*
X289340Y65650D02*
D03*
X293130D02*
D03*
X289310Y69700D02*
D03*
X293100D02*
D03*
X271800Y70300D02*
D03*
X275590D02*
D03*
X214010Y136900D02*
D03*
X217800D02*
D03*
X26600Y190000D02*
D03*
X22810D02*
D03*
X222290Y169200D02*
D03*
X218500D02*
D03*
X293800Y177300D02*
D03*
X290010D02*
D03*
X279610D02*
D03*
X283400D02*
D03*
X26625Y198100D02*
D03*
X22835D02*
D03*
X206000Y129750D02*
D03*
X202210D02*
D03*
X208800Y149250D02*
D03*
X205010D02*
D03*
X208800Y145350D02*
D03*
X205010D02*
D03*
X129900Y218300D02*
D03*
X126110D02*
D03*
X147800Y208500D02*
D03*
X144010D02*
D03*
X155700Y212600D02*
D03*
X151910D02*
D03*
X120900Y171100D02*
D03*
X117110D02*
D03*
X153470Y116400D02*
D03*
X149680D02*
D03*
X152400Y203300D02*
D03*
X156190D02*
D03*
X155700Y208000D02*
D03*
X151910D02*
D03*
X140100Y217600D02*
D03*
X143890D02*
D03*
X140800Y192500D02*
D03*
X137010D02*
D03*
X227200Y203200D02*
D03*
X223410D02*
D03*
X143900Y221600D02*
D03*
X140110D02*
D03*
X116485Y176000D02*
D03*
X112715D02*
D03*
X120165Y179926D02*
D03*
X123954D02*
D03*
X68930Y221500D02*
D03*
X72700D02*
D03*
X102885Y211600D02*
D03*
X99115D02*
D03*
X100915Y215800D02*
D03*
X104685D02*
D03*
X41300Y274200D02*
D03*
X45070D02*
D03*
X82400D02*
D03*
X86170D02*
D03*
X122700D02*
D03*
X126470D02*
D03*
X101200Y221800D02*
D03*
X104970D02*
D03*
X155300Y221600D02*
D03*
X151530D02*
D03*
G54D218*
X283700Y198002D02*
D03*
Y210798D02*
D03*
X296800Y193302D02*
D03*
Y206098D02*
D03*
G54D219*
X331200Y227877D02*
D03*
Y222523D02*
D03*
X215500Y94977D02*
D03*
Y89623D02*
D03*
X227800Y38700D02*
D03*
Y33346D02*
D03*
X239000Y40077D02*
D03*
Y34723D02*
D03*
X230600Y84277D02*
D03*
Y78923D02*
D03*
X118225Y35548D02*
D03*
Y40902D02*
D03*
X158200Y59723D02*
D03*
Y65077D02*
D03*
X77925Y33948D02*
D03*
Y39302D02*
D03*
X73900Y94877D02*
D03*
Y89523D02*
D03*
X88725Y33948D02*
D03*
Y39302D02*
D03*
X89200Y83877D02*
D03*
Y78523D02*
D03*
X304300Y120677D02*
D03*
Y115323D02*
D03*
X32900Y44177D02*
D03*
Y38823D02*
D03*
X38600Y37423D02*
D03*
Y42777D02*
D03*
X27900Y96777D02*
D03*
Y91423D02*
D03*
X44350Y36046D02*
D03*
Y41400D02*
D03*
X50150Y41377D02*
D03*
Y36023D02*
D03*
X44300Y81923D02*
D03*
Y87277D02*
D03*
X56100Y172923D02*
D03*
Y178277D02*
D03*
X56100Y162423D02*
D03*
Y167778D02*
D03*
X367700Y35477D02*
D03*
Y30123D02*
D03*
Y23677D02*
D03*
Y18323D02*
D03*
G54D220*
X84153Y216732D02*
D03*
Y220472D02*
D03*
X54800Y220770D02*
D03*
Y217030D02*
D03*
X276025Y129795D02*
D03*
Y126055D02*
D03*
G54D221*
X131086Y181365D02*
D03*
X127346D02*
D03*
X277530Y144500D02*
D03*
X281270D02*
D03*
X220970Y159600D02*
D03*
X217230D02*
D03*
X128230Y191900D02*
D03*
X131970D02*
D03*
G54D222*
X352325Y98425D02*
D03*
Y94635D02*
D03*
G54D223*
X72710Y163151D02*
D03*
X74679D02*
D03*
X76647D02*
D03*
X78616D02*
D03*
X80584D02*
D03*
X82553D02*
D03*
X84521D02*
D03*
X86490D02*
D03*
Y182100D02*
D03*
X84521D02*
D03*
X82553D02*
D03*
X80584D02*
D03*
X78616D02*
D03*
X76647D02*
D03*
X74679D02*
D03*
X72710D02*
D03*
G54D224*
X89049Y165710D02*
D03*
Y167679D02*
D03*
Y169647D02*
D03*
Y171616D02*
D03*
Y173584D02*
D03*
Y175553D02*
D03*
Y177521D02*
D03*
Y179490D02*
D03*
X70100D02*
D03*
Y177521D02*
D03*
Y175553D02*
D03*
Y173584D02*
D03*
Y171616D02*
D03*
Y169647D02*
D03*
Y167679D02*
D03*
Y165710D02*
D03*
G54D225*
X79600Y172600D02*
D03*
G54D226*
X193397Y177222D02*
D03*
Y175253D02*
D03*
Y173285D02*
D03*
Y171317D02*
D03*
Y169348D02*
D03*
Y167379D02*
D03*
Y165411D02*
D03*
Y163443D02*
D03*
Y161474D02*
D03*
Y159505D02*
D03*
Y157537D02*
D03*
Y155569D02*
D03*
Y153600D02*
D03*
Y151631D02*
D03*
Y149663D02*
D03*
Y147695D02*
D03*
Y145726D02*
D03*
Y143757D02*
D03*
Y141789D02*
D03*
Y139821D02*
D03*
Y137852D02*
D03*
Y135883D02*
D03*
Y133915D02*
D03*
Y131947D02*
D03*
Y129978D02*
D03*
X133161D02*
D03*
Y131947D02*
D03*
Y133915D02*
D03*
Y135883D02*
D03*
Y137852D02*
D03*
Y139821D02*
D03*
Y141789D02*
D03*
Y143757D02*
D03*
Y145726D02*
D03*
Y147695D02*
D03*
Y149663D02*
D03*
Y151631D02*
D03*
Y153600D02*
D03*
Y155569D02*
D03*
Y157537D02*
D03*
Y159505D02*
D03*
Y161474D02*
D03*
Y163443D02*
D03*
Y165411D02*
D03*
Y167379D02*
D03*
Y169348D02*
D03*
Y171317D02*
D03*
Y173285D02*
D03*
Y175253D02*
D03*
Y177222D02*
D03*
G54D227*
X186901Y123482D02*
D03*
X184932D02*
D03*
X182964D02*
D03*
X180995D02*
D03*
X179027D02*
D03*
X177058D02*
D03*
X175090D02*
D03*
X173121D02*
D03*
X171153D02*
D03*
X169184D02*
D03*
X167216D02*
D03*
X165247D02*
D03*
X163279D02*
D03*
X161310D02*
D03*
X159342D02*
D03*
X157373D02*
D03*
X155405D02*
D03*
X153436D02*
D03*
X151468D02*
D03*
X149499D02*
D03*
X147531D02*
D03*
X145562D02*
D03*
X143594D02*
D03*
X141625D02*
D03*
X139657D02*
D03*
Y183718D02*
D03*
X141625D02*
D03*
X143594D02*
D03*
X145562D02*
D03*
X147531D02*
D03*
X149499D02*
D03*
X151468D02*
D03*
X153436D02*
D03*
X155405D02*
D03*
X157373D02*
D03*
X159342D02*
D03*
X161310D02*
D03*
X163279D02*
D03*
X165247D02*
D03*
X167216D02*
D03*
X169184D02*
D03*
X171153D02*
D03*
X173121D02*
D03*
X175090D02*
D03*
X177058D02*
D03*
X179027D02*
D03*
X180995D02*
D03*
X182964D02*
D03*
X184932D02*
D03*
X186901D02*
D03*
G54D228*
X233400Y37118D02*
D03*
Y31882D02*
D03*
X199300Y31018D02*
D03*
Y25782D02*
D03*
X49325Y31643D02*
D03*
Y26407D02*
D03*
X204900Y118082D02*
D03*
Y123318D02*
D03*
X41025Y31643D02*
D03*
Y26407D02*
D03*
X58825Y31625D02*
D03*
Y26389D02*
D03*
X83325Y39943D02*
D03*
Y34707D02*
D03*
G54D229*
X215382Y30300D02*
D03*
X220618D02*
D03*
X171882Y53800D02*
D03*
X177118D02*
D03*
X160982D02*
D03*
X166218D02*
D03*
X147282D02*
D03*
X152518D02*
D03*
X123818Y191600D02*
D03*
X118582D02*
D03*
X113143Y31425D02*
D03*
X107907D02*
D03*
X198318Y45600D02*
D03*
X193082D02*
D03*
X206582Y182200D02*
D03*
X211818D02*
D03*
X59682Y153500D02*
D03*
X64918D02*
D03*
X66407Y26625D02*
D03*
X71643D02*
D03*
X78007Y26525D02*
D03*
X83243D02*
D03*
X96107Y31425D02*
D03*
X101343D02*
D03*
X131407Y27025D02*
D03*
X136643D02*
D03*
G54D230*
X305400Y159700D02*
D03*
X310400D02*
D03*
X315400D02*
D03*
X320400D02*
D03*
G54D231*
X312900Y174139D02*
D03*
G54D232*
X275781Y50768D02*
D03*
G54D233*
X290220Y58268D02*
D03*
Y53268D02*
D03*
Y48268D02*
D03*
Y43268D02*
D03*
G54D234*
X214823Y38900D02*
D03*
X220177D02*
D03*
X193277Y54300D02*
D03*
X187923D02*
D03*
X210577Y30700D02*
D03*
X205223D02*
D03*
X224177Y84500D02*
D03*
X218823D02*
D03*
X227223Y44100D02*
D03*
X232577D02*
D03*
X96023Y45500D02*
D03*
X101377D02*
D03*
X127123Y38200D02*
D03*
X132477D02*
D03*
X108723Y85100D02*
D03*
X114077D02*
D03*
X181577Y59700D02*
D03*
X176223D02*
D03*
X134123Y78700D02*
D03*
X139477D02*
D03*
X122523Y84400D02*
D03*
X127877D02*
D03*
X136577Y44800D02*
D03*
X131223D02*
D03*
X77623Y84400D02*
D03*
X82977D02*
D03*
X87377Y44700D02*
D03*
X82023D02*
D03*
X72377Y32000D02*
D03*
X67023D02*
D03*
X56302Y46925D02*
D03*
X50948D02*
D03*
X120223Y30200D02*
D03*
X125577D02*
D03*
X332073Y98950D02*
D03*
X337428D02*
D03*
X331323Y93200D02*
D03*
X336677D02*
D03*
X342023D02*
D03*
X347377D02*
D03*
X322377Y119700D02*
D03*
X317023D02*
D03*
X293877Y34400D02*
D03*
X288523D02*
D03*
X33023Y86900D02*
D03*
X38377D02*
D03*
X45977Y47900D02*
D03*
X40623D02*
D03*
X12277Y49500D02*
D03*
X6923D02*
D03*
X62727Y122700D02*
D03*
X57373D02*
D03*
X362677Y11800D02*
D03*
X357323D02*
D03*
G54D235*
X257900Y34236D02*
D03*
Y13764D02*
D03*
X252000Y71436D02*
D03*
Y50964D02*
D03*
X311100Y110436D02*
D03*
Y89964D02*
D03*
G54D236*
X130028Y100500D02*
D03*
X150500D02*
D03*
X81825Y103325D02*
D03*
X102298D02*
D03*
X36664Y103700D02*
D03*
X57136D02*
D03*
G54D237*
X63840Y129600D02*
D03*
X56300D02*
D03*
G54D238*
X196900Y38800D02*
D03*
X208098D02*
D03*
X110527Y91925D02*
D03*
X121725D02*
D03*
X70324Y39625D02*
D03*
X59125D02*
D03*
X100225Y38725D02*
D03*
X111424D02*
D03*
X15000Y42700D02*
D03*
X26198D02*
D03*
G54D239*
X208625Y96225D02*
D03*
Y85027D02*
D03*
X67100Y85202D02*
D03*
Y96400D02*
D03*
X21100Y89402D02*
D03*
Y100600D02*
D03*
G54D240*
X175897Y67350D02*
D03*
X172747D02*
D03*
X169572D02*
D03*
X166372D02*
D03*
Y72707D02*
D03*
X169572D02*
D03*
X172747D02*
D03*
X175897D02*
D03*
Y86683D02*
D03*
X172747D02*
D03*
X169572D02*
D03*
X166372D02*
D03*
Y81326D02*
D03*
X169572D02*
D03*
X172747D02*
D03*
X175897D02*
D03*
Y96877D02*
D03*
X172747D02*
D03*
X169572D02*
D03*
X166372D02*
D03*
Y102235D02*
D03*
X169572D02*
D03*
X172747D02*
D03*
X175897D02*
D03*
X98352Y196186D02*
D03*
X95202D02*
D03*
X92028D02*
D03*
X88828D02*
D03*
Y190829D02*
D03*
X92028D02*
D03*
X95202D02*
D03*
X98352D02*
D03*
G54D241*
X90576Y138854D02*
D03*
X111113Y133854D02*
D03*
X90576Y141354D02*
D03*
Y136354D02*
D03*
Y133854D02*
D03*
X111113Y136354D02*
D03*
X111113Y131304D02*
D03*
X111113Y128804D02*
D03*
X90576D02*
D03*
X111113Y123804D02*
D03*
X90576Y131304D02*
D03*
Y126304D02*
D03*
X111113D02*
D03*
X90576Y123804D02*
D03*
X111113Y138854D02*
D03*
Y141354D02*
D03*
G54D242*
X6423Y6816D02*
D03*
X406718Y6423D02*
D03*
X6423Y272860D02*
D03*
G54D243*
X279400Y150015D02*
D03*
X284400D02*
D03*
X294400D02*
D03*
X279400Y171742D02*
D03*
X284400D02*
D03*
X294400D02*
D03*
X289400Y150015D02*
D03*
Y171742D02*
D03*
G54D244*
X16234Y198100D02*
D03*
X7900D02*
D03*
X16234Y190100D02*
D03*
X7900D02*
D03*
X285966Y142100D02*
D03*
X294300D02*
D03*
X344566Y196700D02*
D03*
X352900D02*
D03*
X272466Y64600D02*
D03*
X280800D02*
D03*
G54D245*
X347310Y85400D02*
D03*
X331090D02*
D03*
G54D246*
X63872Y147800D02*
D03*
X73000D02*
D03*
Y140458D02*
D03*
X63872D02*
D03*
G54D247*
X222847Y154200D02*
D03*
X216154D02*
D03*
X215953Y182300D02*
D03*
X222646D02*
D03*
X215953Y177700D02*
D03*
X222646D02*
D03*
X222847Y149600D02*
D03*
X216154D02*
D03*
X212207Y128000D02*
D03*
X218900D02*
D03*
X212154Y132600D02*
D03*
X218847D02*
D03*
G54D248*
X46917Y202168D02*
D03*
Y196657D02*
D03*
X37600Y217956D02*
D03*
Y212444D02*
D03*
X275900Y185356D02*
D03*
Y179844D02*
D03*
G54D249*
X275672Y26368D02*
D03*
X291446D02*
D03*
X291355Y14383D02*
D03*
X275581D02*
D03*
X296874Y117900D02*
D03*
X281100D02*
D03*
X347974Y188100D02*
D03*
X332200D02*
D03*
G54D250*
X310933Y151119D02*
D03*
Y127408D02*
D03*
G54D251*
X38017Y191856D02*
D03*
Y183125D02*
D03*
G54D252*
X285200Y182853D02*
D03*
Y189547D02*
D03*
X199600Y109054D02*
D03*
Y115746D02*
D03*
X195000Y109054D02*
D03*
Y115746D02*
D03*
X280200Y182853D02*
D03*
Y189547D02*
D03*
G54D253*
X96876Y177683D02*
D03*
Y169349D02*
D03*
X96777Y154848D02*
D03*
Y163182D02*
D03*
X293600Y126766D02*
D03*
Y135100D02*
D03*
G54D254*
X113014Y154071D02*
D03*
Y163199D02*
D03*
X120356D02*
D03*
Y154071D02*
D03*
G54D255*
X186000Y82400D02*
D03*
X186700Y68700D02*
D03*
X158672Y83140D02*
D03*
X124500Y127600D02*
D03*
G54D256*
X360300Y17790D02*
D03*
Y34010D02*
D03*
G54D257*
X26362Y65605D02*
D03*
X71100Y62006D02*
D03*
X116100D02*
D03*
X212500D02*
D03*
G54D258*
X19473Y77121D02*
D03*
X21441D02*
D03*
X23410D02*
D03*
X25378D02*
D03*
X27347D02*
D03*
X29315D02*
D03*
X31284D02*
D03*
X33252D02*
D03*
Y54090D02*
D03*
X31284D02*
D03*
X29315D02*
D03*
X27347D02*
D03*
X25378D02*
D03*
X23410D02*
D03*
X21441D02*
D03*
X19473D02*
D03*
X64210Y50490D02*
D03*
X66179D02*
D03*
X68147D02*
D03*
X70116D02*
D03*
X72084D02*
D03*
X74053D02*
D03*
X76021D02*
D03*
X77990D02*
D03*
Y73521D02*
D03*
X76021D02*
D03*
X74053D02*
D03*
X72084D02*
D03*
X70116D02*
D03*
X68147D02*
D03*
X66179D02*
D03*
X64210D02*
D03*
X109210D02*
D03*
X111179D02*
D03*
X113147D02*
D03*
X115116D02*
D03*
X117084D02*
D03*
X119053D02*
D03*
X121021D02*
D03*
X122990D02*
D03*
Y50490D02*
D03*
X121021D02*
D03*
X119053D02*
D03*
X117084D02*
D03*
X115116D02*
D03*
X113147D02*
D03*
X111179D02*
D03*
X109210D02*
D03*
X205610D02*
D03*
X207579D02*
D03*
X209547D02*
D03*
X211516D02*
D03*
X213484D02*
D03*
X215453D02*
D03*
X217421D02*
D03*
X219390D02*
D03*
Y73521D02*
D03*
X217421D02*
D03*
X215453D02*
D03*
X213484D02*
D03*
X211516D02*
D03*
X209547D02*
D03*
X207579D02*
D03*
X205610D02*
D03*
G54D259*
X35929Y74464D02*
D03*
Y72495D02*
D03*
Y70527D02*
D03*
Y68558D02*
D03*
Y66590D02*
D03*
Y64621D02*
D03*
Y62653D02*
D03*
Y60684D02*
D03*
Y58716D02*
D03*
Y56747D02*
D03*
X16795D02*
D03*
Y58716D02*
D03*
Y60684D02*
D03*
Y62653D02*
D03*
Y64621D02*
D03*
Y66590D02*
D03*
Y68558D02*
D03*
Y70527D02*
D03*
Y72495D02*
D03*
Y74464D02*
D03*
X61533Y70864D02*
D03*
Y68895D02*
D03*
Y66927D02*
D03*
Y64958D02*
D03*
Y62990D02*
D03*
Y61021D02*
D03*
Y59053D02*
D03*
Y57084D02*
D03*
Y55116D02*
D03*
Y53147D02*
D03*
X80667D02*
D03*
Y55116D02*
D03*
Y57084D02*
D03*
Y59053D02*
D03*
Y61021D02*
D03*
Y62990D02*
D03*
Y64958D02*
D03*
Y66927D02*
D03*
Y68895D02*
D03*
Y70864D02*
D03*
X125667D02*
D03*
Y68895D02*
D03*
Y66927D02*
D03*
Y64958D02*
D03*
Y62990D02*
D03*
Y61021D02*
D03*
Y59053D02*
D03*
Y57084D02*
D03*
Y55116D02*
D03*
Y53147D02*
D03*
X106533D02*
D03*
Y55116D02*
D03*
Y57084D02*
D03*
Y59053D02*
D03*
Y61021D02*
D03*
Y62990D02*
D03*
Y64958D02*
D03*
Y66927D02*
D03*
Y68895D02*
D03*
Y70864D02*
D03*
X202933D02*
D03*
Y68895D02*
D03*
Y66927D02*
D03*
Y64958D02*
D03*
Y62990D02*
D03*
Y61021D02*
D03*
Y59053D02*
D03*
Y57084D02*
D03*
Y55116D02*
D03*
Y53147D02*
D03*
X222067D02*
D03*
Y55116D02*
D03*
Y57084D02*
D03*
Y59053D02*
D03*
Y61021D02*
D03*
Y62990D02*
D03*
Y64958D02*
D03*
Y66927D02*
D03*
Y68895D02*
D03*
Y70864D02*
D03*
G54D260*
X277444Y134800D02*
D03*
X282956D02*
D03*
G54D261*
X117968Y217143D02*
D03*
X114032D02*
D03*
X114018Y222458D02*
D03*
X116000D02*
D03*
X117982D02*
D03*
G54D262*
X307000Y216899D02*
D03*
Y254301D02*
D03*
G54D263*
X342400Y257800D02*
D03*
G54D264*
X332065Y265300D02*
D03*
Y260300D02*
D03*
Y255300D02*
D03*
Y250300D02*
D03*
X352735Y265300D02*
D03*
Y260300D02*
D03*
Y255300D02*
D03*
Y250300D02*
D03*
G54D265*
X331200Y238700D02*
D03*
X346800D02*
D03*
G54D266*
X253269Y259171D02*
D03*
G54D267*
Y249171D02*
D03*
Y239171D02*
D03*
Y229171D02*
D03*
Y219171D02*
D03*
X219000Y228500D02*
D03*
Y218500D02*
D03*
X209000Y228500D02*
D03*
Y218500D02*
D03*
X199000Y228500D02*
D03*
Y218500D02*
D03*
X189000Y228500D02*
D03*
Y218500D02*
D03*
X179000Y228500D02*
D03*
X219000Y266000D02*
D03*
Y256000D02*
D03*
X209000Y266000D02*
D03*
Y256000D02*
D03*
X199000Y266000D02*
D03*
Y256000D02*
D03*
X189000Y266000D02*
D03*
Y256000D02*
D03*
X179000Y266000D02*
D03*
G54D268*
X106482Y236246D02*
D03*
X96482D02*
D03*
X65143D02*
D03*
X55143D02*
D03*
X86482Y259868D02*
D03*
X96482D02*
D03*
X45143D02*
D03*
X55143D02*
D03*
X127821D02*
D03*
X137820D02*
D03*
X48025Y11825D02*
D03*
X58025D02*
D03*
X68025D02*
D03*
X119206D02*
D03*
X109206D02*
D03*
X99206D02*
D03*
X150387Y39384D02*
D03*
X160387D02*
D03*
X170387D02*
D03*
Y11825D02*
D03*
X160387D02*
D03*
X150387D02*
D03*
X201608Y11865D02*
D03*
X211608D02*
D03*
X221608D02*
D03*
X147820Y236246D02*
D03*
X137820D02*
D03*
G54D269*
X86482D02*
D03*
X45143D02*
D03*
X106482Y259868D02*
D03*
X65143D02*
D03*
X147820D02*
D03*
X78025Y11825D02*
D03*
X129206D02*
D03*
X180387Y39384D02*
D03*
Y11825D02*
D03*
X231608Y11865D02*
D03*
X127821Y236246D02*
D03*
G54D270*
X365300Y221050D02*
D03*
Y188550D02*
D03*
Y156050D02*
D03*
Y123550D02*
D03*
Y91050D02*
D03*
Y58550D02*
D03*
G54D271*
X179000Y218500D02*
D03*
Y256000D02*
D03*
G54D272*
X260900Y142300D02*
D03*
Y132300D02*
D03*
Y122300D02*
D03*
X261000Y183700D02*
D03*
Y173700D02*
D03*
Y163700D02*
D03*
X236639Y173765D02*
D03*
Y183765D02*
D03*
Y111561D02*
D03*
Y121561D02*
D03*
Y142663D02*
D03*
Y152663D02*
D03*
G54D273*
X282700Y95900D02*
D03*
X262700D02*
D03*
G54D274*
X74853Y208056D02*
D03*
Y198056D02*
D03*
X64853Y208056D02*
D03*
Y198056D02*
D03*
X54853Y208056D02*
D03*
Y198056D02*
D03*
X114900Y200000D02*
D03*
Y210000D02*
D03*
X124900Y200000D02*
D03*
Y210000D02*
D03*
X134900Y200000D02*
D03*
Y210000D02*
D03*
G54D275*
X27584Y129868D02*
D03*
Y177190D02*
D03*
G54D276*
X38284Y148568D02*
D03*
Y158490D02*
D03*
X46184D02*
D03*
Y148568D02*
D03*
G54D277*
X20673Y206698D02*
D03*
Y234298D02*
D03*
G54D278*
X10873Y211598D02*
D03*
Y229398D02*
D03*
G54D279*
X317495Y67139D02*
D03*
X304095D02*
D03*
Y14139D02*
D03*
X317495D02*
D03*
X333600Y168400D02*
D03*
X347000D02*
D03*
Y115400D02*
D03*
X333600D02*
D03*
X346500Y67100D02*
D03*
X333100D02*
D03*
Y14100D02*
D03*
X346500D02*
D03*
G54D280*
X340235Y262131D02*
D03*
X344565D02*
D03*
X340235Y257800D02*
D03*
X344565D02*
D03*
X340235Y253469D02*
D03*
X344565D02*
D03*
M02*
