M48
;Layer_Color=9474304
;FILE_FORMAT=4:4
METRIC,TZ
;TYPE=PLATED
T1F00S00C0.2540
T2F00S00C0.3810
T3F00S00C0.9000
T4F00S00C0.9652
T5F00S00C1.0160
T6F00S00C1.3970
T7F00S00C1.4986
T8F00S00C1.5240
T9F00S00C1.6002
T10F00S00C2.2098
;TYPE=NON_PLATED
T11F00S00C3.0000
%
T01
X-175450Y-607250
X-107632Y-605726
X-75374Y-592518
X-75882Y-568388
X-89852Y-574484
X-89598Y-557720
X-87566Y-534098
X-94369
X-85852Y-526034
X-100330Y-521462
X-125666Y-519620
X-139446Y-517652
X-146558
X-156908Y-518604
X-156972Y-498602
X-162560
Y-479298
X-162496Y-470344
X-139382Y-475906
Y-481748
X-129476Y-499046
X-97282Y-491998
X-88900Y-496062
X-88646Y-485394
X-82296Y-483616
X-84836Y-476250
X-91440
X-58102Y-484568
X-46990Y-483870
Y-476250
Y-468630
X-46418Y-501840
X-42608Y-508190
X-60134Y-502094
X-73850
X-65722Y-528764
X-65976Y-536638
Y-543242
X-41846Y-542734
Y-536130
X-173418Y-537146
X-23050Y-541528
Y-547624
X-22606Y-521970
X-23114Y-498856
X-30988Y-498602
X-25654Y-491236
Y-485648
X-12270Y-472670
X-1270
X9730
X22098Y-485140
X27686
X32322Y-488886
X19050Y-494792
Y-501396
X50356Y-507174
X54610Y-522224
X61468
X53912Y-530542
Y-537146
X44006Y-534098
X12764Y-534860
X8700Y-542988
X8446Y-549592
X31052Y-570674
X33338Y-589978
X57214Y-589216
X108014Y-593534
X162624Y-592264
X162370Y-567118
X185738Y-566864
Y-523430
X168720Y-515556
X160782Y-516890
X165354Y-508508
X157544Y-488632
X168212Y-483044
X147638Y-477964
X142494Y-485648
X136494
X144018Y-494792
Y-501142
X127762Y-520954
X114046Y-533908
X114110Y-540448
X137414Y-546354
X152210Y-535114
X159068
X214186Y-541972
X213614Y-470916
X219964
X279400Y-471678
X320358Y-485838
X326644Y-485648
X333248
X332042Y-506920
Y-520128
X322326Y-529082
X315722
X307086Y-518160
Y-511810
X291910Y-540702
X292164Y-563816
X310642Y-554736
X315786Y-571944
X316040Y-591502
X291402Y-591756
X238316Y-592772
X352552Y-545846
X357886Y-472670
X346886
X124030
X113030
X102030
X88392Y-485140
Y-490728
X85852Y-498602
X92202
X80328Y-487362
X65278Y-489712
X57912Y-487426
X56896Y-475488
X68072Y-480314
X-21526Y-593280
X368618Y-592264
X422212
X421450Y-561530
X422910Y-533908
X414528Y-511810
X407924
X416814Y-499110
X386842Y-494792
X383286Y-501142
X374650Y-499364
Y-504952
X371856Y-525018
X365506
X386842Y-519430
X388112Y-485648
X381350
X368886Y-472670
X503126Y-474554
X513286
X523446
X533606
Y-484714
Y-494874
X523446
X513286
X503126
Y-505034
X513286
X523446
X533606
X523446Y-484714
X513286
X503126
X443040Y-546798
X443548Y-577786
X644716Y-527240
X653098Y-476694
X711200Y-497332
X681292Y-553148
X752094Y-545084
X759714Y-536956
X792544Y-506158
X838264Y-526986
X854774Y-543242
X848170Y-459168
X846392Y-400240
X847662Y-316166
X848424Y-268160
X848678Y-216090
X810070Y-229298
X786448Y-233870
X785432Y-196024
X810324Y-176720
X795846Y-112458
X787400Y-115824
X812864Y-75120
X774764Y-264604
X797878Y-294068
X797370Y-343598
X791528Y-431228
X679514Y-408876
X685356Y-355536
X704914Y-363918
X502158Y-316230
X521386Y-254164
X546862Y-246634
X558800Y-216916
X553530Y-174434
X565722
X595918Y-149156
X606078
X616238
Y-138996
Y-128836
Y-118676
X606078
Y-128836
Y-138996
X595918
Y-128836
Y-118676
X626398
X636558
Y-128836
X626398
Y-138996
X636558
Y-149156
X626398
X603504Y-210058
X544894Y-96202
X532448Y-96710
X549720Y-87312
X511366Y-125920
X466090Y-114300
Y-105664
X427482Y-114300
X403606Y-85598
Y-77216
X382080Y-127952
X433896Y-192214
X443548Y-191960
X443294Y-275526
X434404
X396558Y-258254
X384874Y-315912
X369570Y-364490
X375920Y-384048
X375666Y-390144
X388874Y-390398
Y-384048
X403606Y-391160
X421894Y-402336
X431038Y-381762
X443484Y-355092
X437960Y-345122
X408496Y-357822
X365252Y-394716
X363220Y-400558
X368886Y-439670
Y-450670
Y-461670
X390652Y-454637
X395478Y-437769
X525526Y-435102
X523446Y-464394
X533606
X513286
X503126
X357886Y-461670
X346886
Y-450670
Y-439670
X357886
Y-450670
X333368Y-426586
X332232Y-420624
X336804Y-414528
Y-408178
X335534Y-369824
X325374Y-361950
X328930Y-349504
X317246Y-350012
X300228
X308102Y-362204
X289052Y-377698
X278447Y-386215
X273664Y-398488
X278664Y-411488
X275664Y-430488
X275844Y-442468
X294132Y-451612
X295460Y-465640
X304864Y-465518
X294386Y-423164
X248914Y-413238
X229914Y-411488
X229664Y-398488
X232474Y-385508
X221806
X248914Y-385488
X256794Y-346710
X264922
X274066Y-345948
X282448Y-337820
X271018Y-325374
X277432Y-284416
X269240Y-268986
X248286Y-275208
X248222Y-287972
X222758Y-280162
X214440Y-280352
X202692Y-288036
Y-272034
X184404Y-267716
X190818Y-259270
X193802Y-246126
X185484Y-246062
X203772Y-245808
X213170Y-234124
X233426Y-247142
X233998Y-199326
X213170
X187706Y-203200
X176232
X168358
X168402Y-192024
X176276
X176232Y-214630
X184106
X192088Y-214820
X184106Y-228600
X176232
X168358
X125794Y-234124
X131636Y-241236
X135886Y-247914
Y-255914
X135636Y-270510
X136144Y-278384
X116332Y-285242
X111760Y-267462
X142494Y-310896
X139700Y-322834
X155194Y-323850
X152146Y-348742
X159766
X126238Y-353822
X103886Y-349758
X98806Y-354584
X80264Y-363982
X70612Y-363728
X60960
X56117Y-354412
X52070Y-346964
X31242Y-360934
X23114
X15748Y-363220
X9398
X4128Y-357568
X-16510Y-352044
Y-345440
X-7366Y-342646
X-24130Y-359918
X-33210Y-376364
X-27432Y-400050
X-21082Y-410210
Y-416560
X-27336Y-421386
X-25304Y-426974
X-12270Y-439670
Y-450670
X-1270
Y-439670
X9730
Y-450670
Y-461670
X-1270
X-12270
X32004Y-454406
X37084Y-438023
X42482Y-393890
X29210Y-391668
Y-385572
X16764
Y-391668
X2794Y-395224
X6096Y-400304
X58420Y-392938
X79756Y-410210
X92456Y-407924
X86868Y-420624
X88900Y-426466
X102030Y-439670
X113030
Y-450670
X102030
Y-461670
X113030
X124030
Y-450670
Y-439670
X150622Y-437515
X146304Y-454152
X180848Y-436880
X200660Y-438150
X229362Y-448564
X245110Y-462026
X250952
X240538Y-346710
X230124Y-349250
X214630Y-347980
X207772
X192786Y-322580
X185420Y-284734
X181864Y-375412
X184404Y-397002
X172466Y-404622
X164084Y-389636
X158312
X151638Y-393954
X153670Y-399288
X120396Y-400304
X117094Y-395224
X112014Y-388620
X40132Y-372364
X37402Y-268160
X29528Y-268414
X13780Y-281114
X15748Y-236474
X33274Y-239014
X32766Y-210566
X53974Y-209318
X51562Y-218694
X79058Y-215582
X79820Y-189166
X96012Y-178308
X105728Y-178752
X106886Y-149664
X93028Y-156146
X127886Y-158914
Y-149664
X122440Y-127000
X118636Y-119664
X118618Y-113538
X112014Y-128778
X141478Y-124206
X144636Y-118914
X144844Y-95694
X144526Y-81534
X132906Y-74612
X126492Y-94742
X116586Y-87630
X83274Y-84290
X79636Y-95914
X65532Y-78486
X60886Y-70664
X27636Y-104164
X22924Y-143700
X20320Y-165760
X29820
Y-175260
Y-184760
X20320
Y-175260
X10870
X10748Y-165669
X10820Y-185010
X168358Y-168402
X176232
X184150
X192024
X213170Y-168572
X231394Y-168636
X265430Y-163830
X271272Y-158496
X269748Y-184404
Y-199390
X276924Y-236156
X281632Y-248412
X289506
X297380
X325882Y-223774
X321374Y-207200
X354394Y-232346
X328676Y-294640
X338328Y-342646
X351028
X350774Y-356616
X325628Y-128714
X305536Y-119608
X306070Y-109982
X290576Y-110236
X290602Y-119608
X276580Y-119862
X276670Y-110172
X226632Y-83756
X219266Y-85788
X176784Y-87376
X157734Y-97536
X159766Y-108458
X186690Y-111506
X-103314Y-117538
X-107188Y-131064
X-97218Y-78168
X-75946Y-72136
X-174434Y-119316
X-161734Y-159956
X-163512Y-323024
X-159766Y-329692
X-149352Y-336550
X-127762Y-334772
X-121158Y-340360
X-108204Y-346456
Y-353060
X-109664Y-360616
X-96266Y-377190
X-98298Y-383032
X-84264Y-384492
Y-378650
X-84328Y-370840
X-71818Y-386016
X-60198Y-398018
X-47498Y-384302
X-46926Y-369506
X-39560Y-372046
X-64516Y-335534
X-78486Y-331470
X-140716Y-356108
Y-363220
X-138176Y-399542
Y-405130
X-140970Y-412242
X-138938Y-417830
X-125904Y-430526
X-114904
Y-441526
X-125904
Y-452526
X-114904
X-103904
Y-441526
Y-430526
X-76962Y-428498
X-82527Y-445493
X-103904Y-463526
X-114904
X-125904
X-165862Y-456946
X-113792Y-392176
X-108204
X-40386Y-242824
X-36322Y-59436
X-42164Y-39116
X-61468Y-42418
X-95186Y-38290
X-134302Y-40830
X-133540Y-55562
X-176212Y-54292
X-174942Y-9588
X-148018Y-1460
X-109918Y9208
X-68262Y17082
X-76962Y75438
X-116014Y86932
X-173672Y38418
X12510Y54674
X27178Y74676
X1334Y84138
X88202Y83376
X130048Y75946
X251136Y72836
X241636Y47836
X236284Y31306
X238316Y12510
X264478Y8954
X293688Y-6032
X307658Y18606
X309690Y30544
X336360Y16066
X356934Y4636
X323596Y81626
X256858Y-67246
X203454Y-43942
X163636Y-49664
X149712Y-58166
X137922
X114808Y-42418
X104693Y-42717
X98044Y-65532
X77724Y-59182
X76962Y-45212
X24130Y-51054
X25400Y-59182
X10668Y-57912
X-18542
X-14818Y-39838
X-5334Y-34036
X384048Y-46228
X402400Y-12636
X403098Y5842
X422720Y21654
X409766Y38164
X387668Y40196
Y58484
X373444Y19622
X434658Y41466
Y-22542
X439674Y-58674
X562166Y-65468
X539750Y61976
X529590
X549402Y85598
X558800Y85852
X660972Y23686
X716990Y43642
X754080Y45190
Y24190
X757746Y-15430
X732346Y-7302
X788480Y10224
X847916Y1588
X848424Y-42100
X812864Y-42354
X771208Y-53530
X764858Y77026
X850456Y81344
T02
X-149580Y-581380
X-157200Y-563600
X-149580Y-545820
X-131800Y-538200
X-114020Y-545820
X-106400Y-563600
X-114020Y-581380
X-131800Y-589000
X461518Y-591566
Y-578612
Y-565404
X484886
Y-578358
Y-591566
X503960Y-579336
X531114Y-582676
X530606Y-591566
X549656Y-592328
X561848
X573278Y-588264
Y-577596
Y-566674
X591312Y-553974
X529908Y-553023
Y-542357
X543306Y-526288
X565658Y-503936
X573596Y-503872
Y-491172
X565658Y-491236
Y-478536
X573596Y-478726
X622554Y-483870
X624332Y-467868
X618236Y-499110
X648462Y-507746
X664464Y-492252
X665226Y-468122
X697484Y-469138
X724916Y-476250
X746760Y-489204
X733298Y-512572
X733298Y-543306
X740410Y-556006
X725678Y-556260
X719138Y-568388
X698056Y-552640
X663956Y-553974
X649732Y-577850
X673354Y-518160
X747014Y-583692
X504190Y-546354
X484886Y-540004
Y-526796
Y-513334
X461518Y-513404
Y-526796
Y-540004
X469900Y-497332
Y-484124
Y-471170
X446532
Y-484124
Y-497332
X486410Y-478282
X771462Y-524192
X800420Y-545820
X792800Y-563600
X800420Y-581380
X818200Y-589000
X835980Y-581380
X843600Y-563600
X835980Y-545820
X818200Y-538200
X770128Y-465074
X781304Y-452374
X770636Y-382016
X781304Y-342392
X786384Y-314198
X769366Y-299720
X780796Y-286512
X769112Y-217424
X763016Y-189992
X766318Y-157226
X770636Y-135382
X787654Y-143002
X787400Y-162814
X841820Y-164528
X838200Y-91186
X745998Y-77216
X746252Y-110236
Y-158750
X725170Y-157480
X718058Y-185928
X722884Y-217170
X699770Y-216154
X682308Y-214312
X665480Y-216408
X647446Y-186182
X628238Y-183346
X622238Y-189346
X610238
X616238Y-183346
X603238
X597238Y-189346
X586238Y-183346
Y-173346
Y-163346
X580390Y-151384
X580644Y-133096
X580898Y-115062
X584200Y-101600
X609600
X614680Y-82042
X634746Y-85598
X635000Y-101600
X660400Y-106426
Y-127000
Y-152400
X682752Y-167894
X685800Y-127000
X683006Y-101854
X684784Y-76200
X707962Y-82486
X652272Y-86614
X560070Y-145542
X540512Y-142748
X545408Y-170002
X586042Y-231838
X594106Y-242570
X606806
X619760
X627444Y-242506
X627952Y-233870
X637032Y-319924
X647192Y-320802
X665734Y-346710
X653924Y-362584
X647954Y-381508
X645160Y-396748
X647700Y-411988
X637794Y-421640
X625348Y-417322
X620014Y-398272
Y-385064
Y-372110
X596646
Y-385064
Y-398272
X591312Y-417068
X606044Y-464058
X681546Y-464756
X680974Y-424180
X685800Y-387858
X674370
X715772Y-387096
X713486Y-396748
X714756Y-411226
X738886Y-410972
X746252Y-440690
Y-360172
X741934Y-346710
X745998Y-325374
X720598Y-320294
X722630Y-300482
X699262Y-294894
X685102Y-296100
X671576Y-294894
X688086Y-279400
X746252Y-277114
X745998Y-240792
X699262Y-347218
X722376Y-379222
X591058Y-329946
X574358Y-295592
X557276Y-273304
X521716Y-281432
X521208Y-293116
X517906Y-377190
X520192Y-400304
X479552Y-420370
X470662Y-419354
Y-432054
X480314
Y-445262
X470662Y-445008
X443230Y-462026
X451612Y-397256
X453644Y-335026
X369824Y-324104
X362458Y-352806
X381762Y-288544
Y-276860
X378968Y-266192
X391414Y-233934
X361950Y-207772
X373126Y-195072
X390652Y-162052
Y-150622
X361442Y-139954
X350266Y-162052
X350774Y-175006
X353378Y-185610
X303848Y-143954
X256604Y-125412
Y-115760
X135386Y-176414
X134366Y-198882
X122428Y-187960
X121666Y-249174
X122174Y-260604
X122936Y-293878
X104980Y-306148
X26450Y-304100
Y-294350
X25972Y-260540
X25950Y-250600
X20860Y-217236
X11176Y-217424
X-16764Y-203200
X-26416Y-203454
X-26162Y-156718
X11938Y-133096
X28200Y-122600
X34950Y-115600
X62916Y-140421
X53950Y-172600
X94994Y-233898
X-7620Y-280416
Y-288544
X-26670Y-269240
X217424Y-318262
X241300
X338328Y-321818
X339154Y-292544
X329184Y-275082
X333312Y-263842
X-51054Y-269494
X-50800Y-280162
Y-288290
X-38862Y-223774
X-50800Y-192278
X-57912Y-173990
X-52070Y-132334
X-67310
X-75692Y-121158
X-85300Y-117094
X-90932Y-110490
X-91440Y-89408
X-62944Y-90156
X-115062Y-71374
X-142430Y-162750
X-161798Y-291338
X-97028Y-54610
X-114020Y28620
X-106400Y46400
X-114020Y64180
X-131800Y71800
X-149580Y64180
X-157200Y46400
X-149580Y28620
X-131800Y21000
X192786Y83058
X601490Y71142
Y61142
X612490Y79642
X638240Y82142
X646490
X656214Y61214
X664464
X677990Y72642
Y82892
X696990Y87892
X725740Y78392
X716852Y52388
X710052Y32748
X745998Y-27432
X723138Y-52324
X685038Y-66294
X641477Y-66548
X603504
X581990Y-53608
Y-44858
Y-36108
Y-27358
X579990Y-1858
Y6642
Y15142
X587990Y24892
X597490Y24142
X606990
X586490Y34642
Y44892
X557490Y23642
Y15142
Y6642
Y-1858
X800420Y28620
X792800Y46400
X800420Y64180
X818200Y71800
X835980Y64180
X843600Y46400
X835980Y28620
X818200Y21000
T03
X272796Y-58674
Y-33274
X298196
Y-58674
X323596
Y-33274
X348996
Y-58674
Y36576
X323596
X298196
X272796
Y61976
X298196
X323596
X348996
X374396
Y36576
Y-33274
Y-58674
X461438Y-56970
X486838
Y-31570
X461438
Y-6170
X486838
Y19230
X461438
Y44630
X486838
T04
X-17138Y-110602
Y-85202
X8262
Y-110602
X-42538
Y-85202
X-64556Y-211100
X-84622
Y-236300
X-64556
T05
X-59880Y-583628
X-34480
X-9080
X16320
X70120
X95520
X120920
X146320
X200120
X225520
X250920
X276320
X330220Y-583528
X355620
X276320Y-513628
X250920
X225520
X200120
X381020Y-583528
X406420
X843450Y-506600
X480822Y-303022
Y-277622
Y-252222
X481076Y-197866
Y-172466
Y-147066
X419200Y-146900
Y-172300
Y-225900
Y-251300
Y-304900
Y-330300
X-154246Y-76206
Y-30994
X-67200Y-13600
X-41800
Y46400
X-67200
X-16400
X37800
X63200
X88600
X142800
X168200
X193600
Y-13600
X168200
X142800
X88600
X63200
X37800
X-16400
T06
X485394Y-370078
X536194
T07
X-129354Y-88652
Y-18548
T08
X745998Y-464947
Y-382397
Y-299847
Y-217297
Y-134747
Y-52197
T09
X590538Y-577750
X624574
X664210Y-577850
X698246
Y-443230
X664210
X624574Y-443130
X590538
X665480Y-320548
X699516
Y-185928
X665480
T10
X-111800Y-283798
Y-163600
T11
X-131800Y-563600
X818200
X-131800Y46400
X818200
M30
