G04 Layer_Color=2752767*
%FSLAX25Y25*%
%MOIN*%
G70*
G01*
G75*
%ADD153C,0.00200*%
%ADD287C,0.00267*%
%ADD288C,0.00133*%
G54D153*
X55421Y-6154D02*
Y-4554D01*
X57020D01*
Y-6154D01*
X55421D01*
X65421D02*
Y-4554D01*
X67020D01*
Y-6154D01*
X65421D01*
X75420D02*
Y-4554D01*
X77021D01*
Y-6154D01*
X75420D01*
X164239Y-89737D02*
Y-88137D01*
X165839D01*
Y-89737D01*
X164239D01*
Y-99737D02*
Y-98137D01*
X165839D01*
Y-99737D01*
X164239D01*
X-58890Y-229690D02*
X-59690Y-228090D01*
X-58090D01*
X-58890Y-229690D01*
X-44890D02*
X-45690Y-228090D01*
X-44090D01*
X-44890Y-229690D01*
Y-215690D02*
X-45690Y-214090D01*
X-44090D01*
X-44890Y-215690D01*
X-58890D02*
X-59690Y-214090D01*
X-58090D01*
X-58890Y-215690D01*
X-61890Y-222690D02*
X-62690Y-221090D01*
X-61090D01*
X-61890Y-222690D01*
X-41890D02*
X-42690Y-221090D01*
X-41090D01*
X-41890Y-222690D01*
X-51890Y-212690D02*
X-52690Y-211090D01*
X-51090D01*
X-51890Y-212690D01*
Y-232690D02*
X-52690Y-231090D01*
X-51090D01*
X-51890Y-232690D01*
Y-222690D02*
X-51490Y-222290D01*
X-51090D01*
X-51490Y-221890D01*
X-51090Y-221490D01*
X-51490D01*
X-51890Y-221090D01*
X-52290Y-221490D01*
X-52690D01*
X-52290Y-221890D01*
X-52690Y-222290D01*
X-52290D01*
X-51890Y-222690D01*
X-58890Y10468D02*
X-59690Y12068D01*
X-58090D01*
X-58890Y10468D01*
X-44890D02*
X-45690Y12068D01*
X-44090D01*
X-44890Y10468D01*
Y24468D02*
X-45690Y26068D01*
X-44090D01*
X-44890Y24468D01*
X-58890D02*
X-59690Y26068D01*
X-58090D01*
X-58890Y24468D01*
X-61890Y17468D02*
X-62690Y19068D01*
X-61090D01*
X-61890Y17468D01*
X-41890D02*
X-42690Y19068D01*
X-41090D01*
X-41890Y17468D01*
X-51890Y27468D02*
X-52690Y29068D01*
X-51090D01*
X-51890Y27468D01*
Y7468D02*
X-52690Y9068D01*
X-51090D01*
X-51890Y7468D01*
Y17468D02*
X-51490Y17868D01*
X-51090D01*
X-51490Y18268D01*
X-51090Y18668D01*
X-51490D01*
X-51890Y19068D01*
X-52290Y18668D01*
X-52690D01*
X-52290Y18268D01*
X-52690Y17868D01*
X-52290D01*
X-51890Y17468D01*
X315126Y10468D02*
X314326Y12068D01*
X315926D01*
X315126Y10468D01*
X329126D02*
X328326Y12068D01*
X329926D01*
X329126Y10468D01*
Y24468D02*
X328326Y26068D01*
X329926D01*
X329126Y24468D01*
X315126D02*
X314326Y26068D01*
X315926D01*
X315126Y24468D01*
X312126Y17468D02*
X311326Y19068D01*
X312926D01*
X312126Y17468D01*
X332126D02*
X331326Y19068D01*
X332926D01*
X332126Y17468D01*
X322126Y27468D02*
X321326Y29068D01*
X322926D01*
X322126Y27468D01*
Y7468D02*
X321326Y9068D01*
X322926D01*
X322126Y7468D01*
Y17468D02*
X322526Y17868D01*
X322926D01*
X322526Y18268D01*
X322926Y18668D01*
X322526D01*
X322126Y19068D01*
X321726Y18668D01*
X321326D01*
X321726Y18268D01*
X321326Y17868D01*
X321726D01*
X322126Y17468D01*
X331267Y-200249D02*
Y-198649D01*
X332867D01*
Y-200249D01*
X331267D01*
X315126Y-229690D02*
X314326Y-228090D01*
X315926D01*
X315126Y-229690D01*
X329126D02*
X328326Y-228090D01*
X329926D01*
X329126Y-229690D01*
Y-215690D02*
X328326Y-214090D01*
X329926D01*
X329126Y-215690D01*
X315126D02*
X314326Y-214090D01*
X315926D01*
X315126Y-215690D01*
X312126Y-222690D02*
X311326Y-221090D01*
X312926D01*
X312126Y-222690D01*
X332126D02*
X331326Y-221090D01*
X332926D01*
X332126Y-222690D01*
X322126Y-212690D02*
X321326Y-211090D01*
X322926D01*
X322126Y-212690D01*
Y-232690D02*
X321326Y-231090D01*
X322926D01*
X322126Y-232690D01*
Y-222690D02*
X322526Y-222290D01*
X322926D01*
X322526Y-221890D01*
X322926Y-221490D01*
X322526D01*
X322126Y-221090D01*
X321726Y-221490D01*
X321326D01*
X321726Y-221890D01*
X321326Y-222290D01*
X321726D01*
X322126Y-222690D01*
X-61527Y-13002D02*
Y-11402D01*
X-59927D01*
Y-13002D01*
X-61527D01*
Y-30802D02*
Y-29202D01*
X-59927D01*
Y-30802D01*
X-61527D01*
X-51727Y-8102D02*
X-51327Y-7302D01*
X-51727Y-6502D01*
X-50927Y-6902D01*
X-50127Y-6502D01*
X-50527Y-7302D01*
X-50127Y-8102D01*
X-50927Y-7702D01*
X-51727Y-8102D01*
Y-35702D02*
X-51327Y-34902D01*
X-51727Y-34102D01*
X-50927Y-34502D01*
X-50127Y-34102D01*
X-50527Y-34902D01*
X-50127Y-35702D01*
X-50927Y-35302D01*
X-51727Y-35702D01*
X-25816Y-93432D02*
Y-93831D01*
X-25016D01*
Y-93432D01*
X-24616D01*
Y-92632D01*
X-25016D01*
Y-92232D01*
X-25816D01*
Y-92632D01*
X-26216D01*
Y-93432D01*
X-25816D01*
Y-83510D02*
Y-83910D01*
X-25016D01*
Y-83510D01*
X-24616D01*
Y-82710D01*
X-25016D01*
Y-82310D01*
X-25816D01*
Y-82710D01*
X-26216D01*
Y-83510D01*
X-25816D01*
X-33716D02*
Y-83910D01*
X-32916D01*
Y-83510D01*
X-32516D01*
Y-82710D01*
X-32916D01*
Y-82310D01*
X-33716D01*
Y-82710D01*
X-34116D01*
Y-83510D01*
X-33716D01*
Y-93432D02*
Y-93831D01*
X-32916D01*
Y-93432D01*
X-32516D01*
Y-92632D01*
X-32916D01*
Y-92232D01*
X-33716D01*
Y-92632D01*
X-34116D01*
Y-93432D01*
X-33716D01*
X-44816Y-65210D02*
X-44416D01*
X-44016Y-64810D01*
X-43616Y-65210D01*
X-43216D01*
Y-64810D01*
X-43616Y-64410D01*
X-43216Y-64009D01*
Y-63609D01*
X-43616D01*
X-44016Y-64009D01*
X-44416Y-63609D01*
X-44816D01*
Y-64009D01*
X-44416Y-64410D01*
X-44816Y-64810D01*
Y-65210D01*
Y-112531D02*
X-44416D01*
X-44016Y-112132D01*
X-43616Y-112531D01*
X-43216D01*
Y-112132D01*
X-43616Y-111732D01*
X-43216Y-111331D01*
Y-110932D01*
X-43616D01*
X-44016Y-111331D01*
X-44416Y-110932D01*
X-44816D01*
Y-111331D01*
X-44416Y-111732D01*
X-44816Y-112132D01*
Y-112531D01*
X-17147Y-43944D02*
Y-44344D01*
X-16347D01*
Y-43944D01*
X-15947D01*
Y-43144D01*
X-16347D01*
Y-42744D01*
X-17147D01*
Y-43144D01*
X-17547D01*
Y-43944D01*
X-17147D01*
Y-33944D02*
Y-34344D01*
X-16347D01*
Y-33944D01*
X-15947D01*
Y-33144D01*
X-16347D01*
Y-32744D01*
X-17147D01*
Y-33144D01*
X-17547D01*
Y-33944D01*
X-17147D01*
X-7147Y-43944D02*
Y-44344D01*
X-6347D01*
Y-43944D01*
X-5947D01*
Y-43144D01*
X-6347D01*
Y-42744D01*
X-7147D01*
Y-43144D01*
X-7547D01*
Y-43944D01*
X-7147D01*
Y-33944D02*
Y-34344D01*
X-6347D01*
Y-33944D01*
X-5947D01*
Y-33144D01*
X-6347D01*
Y-32744D01*
X-7147D01*
Y-33144D01*
X-7547D01*
Y-33944D01*
X-7147D01*
X2853Y-43944D02*
Y-44344D01*
X3653D01*
Y-43944D01*
X4053D01*
Y-43144D01*
X3653D01*
Y-42744D01*
X2853D01*
Y-43144D01*
X2453D01*
Y-43944D01*
X2853D01*
Y-33944D02*
Y-34344D01*
X3653D01*
Y-33944D01*
X4053D01*
Y-33144D01*
X3653D01*
Y-32744D01*
X2853D01*
Y-33144D01*
X2453D01*
Y-33944D01*
X2853D01*
X190300Y-145700D02*
X191100Y-144900D01*
X191900Y-145700D01*
X191100Y-146500D01*
X190300Y-145700D01*
X210300D02*
X211100Y-144900D01*
X211900Y-145700D01*
X211100Y-146500D01*
X210300Y-145700D01*
X164239Y-120839D02*
Y-119239D01*
X165839D01*
Y-120839D01*
X164239D01*
Y-130839D02*
Y-129239D01*
X165839D01*
Y-130839D01*
X164239D01*
Y-58635D02*
Y-57035D01*
X165839D01*
Y-58635D01*
X164239D01*
Y-68635D02*
Y-67035D01*
X165839D01*
Y-68635D01*
X164239D01*
X188600Y-78700D02*
Y-77100D01*
X190200D01*
Y-78700D01*
X188600D01*
Y-68700D02*
Y-67100D01*
X190200D01*
Y-68700D01*
X188600D01*
Y-58700D02*
Y-57100D01*
X190200D01*
Y-58700D01*
X188600D01*
X188500Y-120100D02*
Y-118500D01*
X190100D01*
Y-120100D01*
X188500D01*
Y-110100D02*
Y-108500D01*
X190100D01*
Y-110100D01*
X188500D01*
Y-100100D02*
Y-98500D01*
X190100D01*
Y-100100D01*
X188500D01*
X106600Y13600D02*
Y15200D01*
X108200D01*
Y13600D01*
X106600D01*
X107000Y14000D02*
Y14800D01*
X107800D01*
Y14000D01*
X107000D01*
X106600Y23600D02*
Y25200D01*
X108200D01*
Y23600D01*
X106600D01*
X107000Y24000D02*
Y24800D01*
X107800D01*
Y24000D01*
X107000D01*
X116600Y13600D02*
Y15200D01*
X118200D01*
Y13600D01*
X116600D01*
X117000Y14000D02*
Y14800D01*
X117800D01*
Y14000D01*
X117000D01*
X116600Y23600D02*
Y25200D01*
X118200D01*
Y23600D01*
X116600D01*
X117000Y24000D02*
Y24800D01*
X117800D01*
Y24000D01*
X117000D01*
X126600Y13600D02*
Y15200D01*
X128200D01*
Y13600D01*
X126600D01*
X127000Y14000D02*
Y14800D01*
X127800D01*
Y14000D01*
X127000D01*
X126600Y23600D02*
Y25200D01*
X128200D01*
Y23600D01*
X126600D01*
X127000Y24000D02*
Y24800D01*
X127800D01*
Y24000D01*
X127000D01*
X136600Y13600D02*
Y15200D01*
X138200D01*
Y13600D01*
X136600D01*
X137000Y14000D02*
Y14800D01*
X137800D01*
Y14000D01*
X137000D01*
X136600Y23600D02*
Y25200D01*
X138200D01*
Y23600D01*
X136600D01*
X137000Y24000D02*
Y24800D01*
X137800D01*
Y24000D01*
X137000D01*
X146600Y13600D02*
Y15200D01*
X148200D01*
Y13600D01*
X146600D01*
X147000Y14000D02*
Y14800D01*
X147800D01*
Y14000D01*
X147000D01*
X146600Y23600D02*
Y25200D01*
X148200D01*
Y23600D01*
X146600D01*
X147000Y24000D02*
Y24800D01*
X147800D01*
Y24000D01*
X147000D01*
X106600Y-23900D02*
Y-22300D01*
X108200D01*
Y-23900D01*
X106600D01*
X107000Y-23500D02*
Y-22700D01*
X107800D01*
Y-23500D01*
X107000D01*
X106600Y-13900D02*
Y-12300D01*
X108200D01*
Y-13900D01*
X106600D01*
X107000Y-13500D02*
Y-12700D01*
X107800D01*
Y-13500D01*
X107000D01*
X116600Y-23900D02*
Y-22300D01*
X118200D01*
Y-23900D01*
X116600D01*
X117000Y-23500D02*
Y-22700D01*
X117800D01*
Y-23500D01*
X117000D01*
X116600Y-13900D02*
Y-12300D01*
X118200D01*
Y-13900D01*
X116600D01*
X117000Y-13500D02*
Y-12700D01*
X117800D01*
Y-13500D01*
X117000D01*
X126600Y-23900D02*
Y-22300D01*
X128200D01*
Y-23900D01*
X126600D01*
X127000Y-23500D02*
Y-22700D01*
X127800D01*
Y-23500D01*
X127000D01*
X126600Y-13900D02*
Y-12300D01*
X128200D01*
Y-13900D01*
X126600D01*
X127000Y-13500D02*
Y-12700D01*
X127800D01*
Y-13500D01*
X127000D01*
X136600Y-23900D02*
Y-22300D01*
X138200D01*
Y-23900D01*
X136600D01*
X137000Y-23500D02*
Y-22700D01*
X137800D01*
Y-23500D01*
X137000D01*
X136600Y-13900D02*
Y-12300D01*
X138200D01*
Y-13900D01*
X136600D01*
X137000Y-13500D02*
Y-12700D01*
X137800D01*
Y-13500D01*
X137000D01*
X146600Y-23900D02*
Y-22300D01*
X148200D01*
Y-23900D01*
X146600D01*
X147000Y-23500D02*
Y-22700D01*
X147800D01*
Y-23500D01*
X147000D01*
X146600Y-13900D02*
Y-12300D01*
X148200D01*
Y-13900D01*
X146600D01*
X147000Y-13500D02*
Y-12700D01*
X147800D01*
Y-13500D01*
X147000D01*
X159208Y-230535D02*
Y-228935D01*
X160808D01*
Y-230535D01*
X159208D01*
X149208D02*
Y-228935D01*
X150808D01*
Y-230535D01*
X149208D01*
X139208D02*
Y-228935D01*
X140808D01*
Y-230535D01*
X139208D01*
X129208D02*
Y-228935D01*
X130808D01*
Y-230535D01*
X129208D01*
X77987Y-230575D02*
Y-228975D01*
X79587D01*
Y-230575D01*
X77987D01*
X87987D02*
Y-228975D01*
X89587D01*
Y-230575D01*
X87987D01*
X97987D02*
Y-228975D01*
X99587D01*
Y-230575D01*
X97987D01*
X107987D02*
Y-228975D01*
X109587D01*
Y-230575D01*
X107987D01*
Y-203016D02*
Y-201416D01*
X109587D01*
Y-203016D01*
X107987D01*
X97987D02*
Y-201416D01*
X99587D01*
Y-203016D01*
X97987D01*
X87987D02*
Y-201416D01*
X89587D01*
Y-203016D01*
X87987D01*
X77987D02*
Y-201416D01*
X79587D01*
Y-203016D01*
X77987D01*
X26806Y-230575D02*
Y-228975D01*
X28406D01*
Y-230575D01*
X26806D01*
X36806D02*
Y-228975D01*
X38406D01*
Y-230575D01*
X36806D01*
X46806D02*
Y-228975D01*
X48406D01*
Y-230575D01*
X46806D01*
X56806D02*
Y-228975D01*
X58406D01*
Y-230575D01*
X56806D01*
X5625D02*
Y-228975D01*
X7225D01*
Y-230575D01*
X5625D01*
X-4375D02*
Y-228975D01*
X-2775D01*
Y-230575D01*
X-4375D01*
X-14375D02*
Y-228975D01*
X-12775D01*
Y-230575D01*
X-14375D01*
X-24375D02*
Y-228975D01*
X-22775D01*
Y-230575D01*
X-24375D01*
X75420Y17468D02*
Y19068D01*
X77021D01*
Y17468D01*
X75420D01*
X65421D02*
Y19068D01*
X67020D01*
Y17468D01*
X65421D01*
X55421D02*
Y19068D01*
X57020D01*
Y17468D01*
X55421D01*
X-7257D02*
Y19068D01*
X-5657D01*
Y17468D01*
X-7257D01*
X-17257D02*
Y19068D01*
X-15657D01*
Y17468D01*
X-17257D01*
X-27257D02*
Y19068D01*
X-25657D01*
Y17468D01*
X-27257D01*
X34082D02*
Y19068D01*
X35682D01*
Y17468D01*
X34082D01*
X24082D02*
Y19068D01*
X25682D01*
Y17468D01*
X24082D01*
X14082D02*
Y19068D01*
X15682D01*
Y17468D01*
X14082D01*
X-27257Y-6154D02*
Y-4554D01*
X-25657D01*
Y-6154D01*
X-27257D01*
X-17257D02*
Y-4554D01*
X-15657D01*
Y-6154D01*
X-17257D01*
X-7257D02*
Y-4554D01*
X-5657D01*
Y-6154D01*
X-7257D01*
X14082D02*
Y-4554D01*
X15682D01*
Y-6154D01*
X14082D01*
X24082D02*
Y-4554D01*
X25682D01*
Y-6154D01*
X24082D01*
X34082D02*
Y-4554D01*
X35682D01*
Y-6154D01*
X34082D01*
X190868Y-23229D02*
Y-21629D01*
X192469D01*
Y-23229D01*
X190868D01*
X191269Y-22829D02*
Y-22029D01*
X192069D01*
Y-22829D01*
X191269D01*
X180868Y-23229D02*
Y-21629D01*
X182468D01*
Y-23229D01*
X180868D01*
X181269Y-22829D02*
Y-22029D01*
X182069D01*
Y-22829D01*
X181269D01*
X190868Y-13229D02*
Y-11629D01*
X192469D01*
Y-13229D01*
X190868D01*
X191269Y-12829D02*
Y-12029D01*
X192069D01*
Y-12829D01*
X191269D01*
X180868Y-13229D02*
Y-11629D01*
X182468D01*
Y-13229D01*
X180868D01*
X181269Y-12829D02*
Y-12029D01*
X182069D01*
Y-12829D01*
X181269D01*
X190868Y-3229D02*
Y-1629D01*
X192469D01*
Y-3229D01*
X190868D01*
X191269Y-2829D02*
Y-2029D01*
X192069D01*
Y-2829D01*
X191269D01*
X180868Y-3229D02*
Y-1629D01*
X182468D01*
Y-3229D01*
X180868D01*
X181269Y-2829D02*
Y-2029D01*
X182069D01*
Y-2829D01*
X181269D01*
X190868Y6771D02*
Y8371D01*
X192469D01*
Y6771D01*
X190868D01*
X191269Y7171D02*
Y7971D01*
X192069D01*
Y7171D01*
X191269D01*
X180868Y6771D02*
Y8371D01*
X182468D01*
Y6771D01*
X180868D01*
X181269Y7171D02*
Y7971D01*
X182069D01*
Y7171D01*
X181269D01*
X190868Y16771D02*
Y18371D01*
X192469D01*
Y16771D01*
X190868D01*
X191269Y17171D02*
Y17971D01*
X192069D01*
Y17171D01*
X191269D01*
X180868Y16771D02*
Y18371D01*
X182468D01*
Y16771D01*
X180868D01*
X181269Y17171D02*
Y17971D01*
X182069D01*
Y17171D01*
X181269D01*
X25800Y-31700D02*
X25000Y-30100D01*
X26600D01*
X25800Y-31700D01*
Y-31300D02*
X25400Y-30500D01*
X26200D01*
X25800Y-31300D01*
X-7300Y-23600D02*
X-8100Y-22000D01*
X-6500D01*
X-7300Y-23600D01*
Y-23200D02*
X-7700Y-22400D01*
X-6900D01*
X-7300Y-23200D01*
X-16600Y-16200D02*
X-17400Y-14600D01*
X-15800D01*
X-16600Y-16200D01*
Y-15800D02*
X-17000Y-15000D01*
X-16200D01*
X-16600Y-15800D01*
X-14300Y-24200D02*
X-15100Y-22600D01*
X-13500D01*
X-14300Y-24200D01*
Y-23800D02*
X-14700Y-23000D01*
X-13900D01*
X-14300Y-23800D01*
X-24200Y-17500D02*
X-25000Y-15900D01*
X-23400D01*
X-24200Y-17500D01*
Y-17100D02*
X-24600Y-16300D01*
X-23800D01*
X-24200Y-17100D01*
X-29900Y-29200D02*
X-30700Y-27600D01*
X-29100D01*
X-29900Y-29200D01*
Y-28800D02*
X-30300Y-28000D01*
X-29500D01*
X-29900Y-28800D01*
X30300Y-18600D02*
X29500Y-17000D01*
X31100D01*
X30300Y-18600D01*
Y-18200D02*
X29900Y-17400D01*
X30700D01*
X30300Y-18200D01*
X30600Y-24100D02*
X29800Y-22500D01*
X31400D01*
X30600Y-24100D01*
Y-23700D02*
X30200Y-22900D01*
X31000D01*
X30600Y-23700D01*
X-2100Y-14200D02*
X-2900Y-12600D01*
X-1300D01*
X-2100Y-14200D01*
Y-13800D02*
X-2500Y-13000D01*
X-1700D01*
X-2100Y-13800D01*
X80100Y-18100D02*
X79300Y-16500D01*
X80900D01*
X80100Y-18100D01*
Y-17700D02*
X79700Y-16900D01*
X80500D01*
X80100Y-17700D01*
X32785Y-33985D02*
X31985Y-32385D01*
X33585D01*
X32785Y-33985D01*
Y-33585D02*
X32385Y-32785D01*
X33185D01*
X32785Y-33585D01*
X50349Y-63365D02*
X49549Y-61765D01*
X51149D01*
X50349Y-63365D01*
Y-62965D02*
X49949Y-62165D01*
X50749D01*
X50349Y-62965D01*
X53302Y-70254D02*
X52502Y-68654D01*
X54102D01*
X53302Y-70254D01*
X86325Y-34575D02*
X85525Y-32975D01*
X87125D01*
X86325Y-34575D01*
Y-34175D02*
X85925Y-33375D01*
X86725D01*
X86325Y-34175D01*
X42081Y-59723D02*
X41281Y-58123D01*
X42881D01*
X42081Y-59723D01*
Y-59323D02*
X41681Y-58523D01*
X42481D01*
X42081Y-59323D01*
X58942Y-23700D02*
X58142Y-22100D01*
X59742D01*
X58942Y-23700D01*
Y-23300D02*
X58542Y-22500D01*
X59342D01*
X58942Y-23300D01*
X54300Y-23700D02*
X53500Y-22100D01*
X55100D01*
X54300Y-23700D01*
Y-23300D02*
X53900Y-22500D01*
X54700D01*
X54300Y-23300D01*
X46707Y-47912D02*
X45907Y-46312D01*
X47507D01*
X46707Y-47912D01*
Y-47512D02*
X46307Y-46712D01*
X47107D01*
X46707Y-47512D01*
X205270Y-100865D02*
X204470Y-99265D01*
X206070D01*
X205270Y-100865D01*
Y-100465D02*
X204870Y-99665D01*
X205670D01*
X205270Y-100465D01*
X330025Y-208275D02*
X329225Y-206675D01*
X330825D01*
X330025Y-208275D01*
Y-207875D02*
X329625Y-207075D01*
X330425D01*
X330025Y-207875D01*
X268625Y-85175D02*
X267825Y-83575D01*
X269425D01*
X268625Y-85175D01*
X269725Y-117375D02*
X268925Y-115775D01*
X270525D01*
X269725Y-117375D01*
X-15900Y-96400D02*
X-16700Y-94800D01*
X-15100D01*
X-15900Y-96400D01*
Y-96000D02*
X-16300Y-95200D01*
X-15500D01*
X-15900Y-96000D01*
X6200Y-93900D02*
X5400Y-92300D01*
X7000D01*
X6200Y-93900D01*
Y-93500D02*
X5800Y-92700D01*
X6600D01*
X6200Y-93500D01*
X1625Y-141575D02*
X825Y-139975D01*
X2425D01*
X1625Y-141575D01*
Y-141175D02*
X1225Y-140375D01*
X2025D01*
X1625Y-141175D01*
X132600Y-164000D02*
X131800Y-162400D01*
X133400D01*
X132600Y-164000D01*
Y-163600D02*
X132200Y-162800D01*
X133000D01*
X132600Y-163600D01*
Y-161500D02*
X131800Y-159900D01*
X133400D01*
X132600Y-161500D01*
Y-161100D02*
X132200Y-160300D01*
X133000D01*
X132600Y-161100D01*
X16725Y-155875D02*
X15925Y-154275D01*
X17525D01*
X16725Y-155875D01*
Y-155475D02*
X16325Y-154675D01*
X17125D01*
X16725Y-155475D01*
X2400Y-158400D02*
X1600Y-156800D01*
X3200D01*
X2400Y-158400D01*
Y-158000D02*
X2000Y-157200D01*
X2800D01*
X2400Y-158000D01*
X-10100Y-194200D02*
X-10900Y-192600D01*
X-9300D01*
X-10100Y-194200D01*
Y-193800D02*
X-10500Y-193000D01*
X-9700D01*
X-10100Y-193800D01*
X-43175Y-142775D02*
X-43975Y-141175D01*
X-42375D01*
X-43175Y-142775D01*
Y-142375D02*
X-43575Y-141575D01*
X-42775D01*
X-43175Y-142375D01*
X-25875Y-208975D02*
X-26675Y-207375D01*
X-25075D01*
X-25875Y-208975D01*
Y-208575D02*
X-26275Y-207775D01*
X-25475D01*
X-25875Y-208575D01*
X136569Y-173898D02*
X135769Y-172298D01*
X137369D01*
X136569Y-173898D01*
Y-173498D02*
X136169Y-172698D01*
X136969D01*
X136569Y-173498D01*
X145231Y-186891D02*
X144431Y-185291D01*
X146031D01*
X145231Y-186891D01*
Y-186491D02*
X144831Y-185691D01*
X145631D01*
X145231Y-186491D01*
X140900Y-186891D02*
X140100Y-185291D01*
X141700D01*
X140900Y-186891D01*
Y-186491D02*
X140500Y-185691D01*
X141300D01*
X140900Y-186491D01*
X136569Y-186891D02*
X135769Y-185291D01*
X137369D01*
X136569Y-186891D01*
Y-186491D02*
X136169Y-185691D01*
X136969D01*
X136569Y-186491D01*
X145231Y-182560D02*
X144431Y-180960D01*
X146031D01*
X145231Y-182560D01*
Y-182160D02*
X144831Y-181360D01*
X145631D01*
X145231Y-182160D01*
X140900Y-182560D02*
X140100Y-180960D01*
X141700D01*
X140900Y-182560D01*
Y-182160D02*
X140500Y-181360D01*
X141300D01*
X140900Y-182160D01*
X136569Y-182560D02*
X135769Y-180960D01*
X137369D01*
X136569Y-182560D01*
Y-182160D02*
X136169Y-181360D01*
X136969D01*
X136569Y-182160D01*
X145231Y-178229D02*
X144431Y-176629D01*
X146031D01*
X145231Y-178229D01*
Y-177829D02*
X144831Y-177029D01*
X145631D01*
X145231Y-177829D01*
X140900Y-178229D02*
X140100Y-176629D01*
X141700D01*
X140900Y-178229D01*
Y-177829D02*
X140500Y-177029D01*
X141300D01*
X140900Y-177829D01*
X136569Y-178229D02*
X135769Y-176629D01*
X137369D01*
X136569Y-178229D01*
Y-177829D02*
X136169Y-177029D01*
X136969D01*
X136569Y-177829D01*
X145231Y-173898D02*
X144431Y-172298D01*
X146031D01*
X145231Y-173898D01*
Y-173498D02*
X144831Y-172698D01*
X145631D01*
X145231Y-173498D01*
X140900Y-173898D02*
X140100Y-172298D01*
X141700D01*
X140900Y-173898D01*
Y-173498D02*
X140500Y-172698D01*
X141300D01*
X140900Y-173498D01*
X44500Y-173898D02*
X43700Y-172298D01*
X45300D01*
X44500Y-173898D01*
Y-173498D02*
X44100Y-172698D01*
X44900D01*
X44500Y-173498D01*
X48831Y-173898D02*
X48031Y-172298D01*
X49631D01*
X48831Y-173898D01*
Y-173498D02*
X48431Y-172698D01*
X49231D01*
X48831Y-173498D01*
X40169Y-178229D02*
X39369Y-176629D01*
X40969D01*
X40169Y-178229D01*
Y-177829D02*
X39769Y-177029D01*
X40569D01*
X40169Y-177829D01*
X44500Y-178229D02*
X43700Y-176629D01*
X45300D01*
X44500Y-178229D01*
Y-177829D02*
X44100Y-177029D01*
X44900D01*
X44500Y-177829D01*
X48831Y-178229D02*
X48031Y-176629D01*
X49631D01*
X48831Y-178229D01*
Y-177829D02*
X48431Y-177029D01*
X49231D01*
X48831Y-177829D01*
X40169Y-182560D02*
X39369Y-180960D01*
X40969D01*
X40169Y-182560D01*
Y-182160D02*
X39769Y-181360D01*
X40569D01*
X40169Y-182160D01*
X44500Y-182560D02*
X43700Y-180960D01*
X45300D01*
X44500Y-182560D01*
Y-182160D02*
X44100Y-181360D01*
X44900D01*
X44500Y-182160D01*
X48831Y-182560D02*
X48031Y-180960D01*
X49631D01*
X48831Y-182560D01*
Y-182160D02*
X48431Y-181360D01*
X49231D01*
X48831Y-182160D01*
X40169Y-186891D02*
X39369Y-185291D01*
X40969D01*
X40169Y-186891D01*
Y-186491D02*
X39769Y-185691D01*
X40569D01*
X40169Y-186491D01*
X44500Y-186891D02*
X43700Y-185291D01*
X45300D01*
X44500Y-186891D01*
Y-186491D02*
X44100Y-185691D01*
X44900D01*
X44500Y-186491D01*
X48831Y-186891D02*
X48031Y-185291D01*
X49631D01*
X48831Y-186891D01*
Y-186491D02*
X48431Y-185691D01*
X49231D01*
X48831Y-186491D01*
X40169Y-173898D02*
X39369Y-172298D01*
X40969D01*
X40169Y-173898D01*
Y-173498D02*
X39769Y-172698D01*
X40569D01*
X40169Y-173498D01*
X-4831Y-173898D02*
X-5631Y-172298D01*
X-4031D01*
X-4831Y-173898D01*
Y-173498D02*
X-5231Y-172698D01*
X-4431D01*
X-4831Y-173498D01*
X3831Y-186891D02*
X3031Y-185291D01*
X4631D01*
X3831Y-186891D01*
Y-186491D02*
X3431Y-185691D01*
X4231D01*
X3831Y-186491D01*
X-500Y-186891D02*
X-1300Y-185291D01*
X300D01*
X-500Y-186891D01*
Y-186491D02*
X-900Y-185691D01*
X-100D01*
X-500Y-186491D01*
X-4831Y-186891D02*
X-5631Y-185291D01*
X-4031D01*
X-4831Y-186891D01*
Y-186491D02*
X-5231Y-185691D01*
X-4431D01*
X-4831Y-186491D01*
X3831Y-182560D02*
X3031Y-180960D01*
X4631D01*
X3831Y-182560D01*
Y-182160D02*
X3431Y-181360D01*
X4231D01*
X3831Y-182160D01*
X-500Y-182560D02*
X-1300Y-180960D01*
X300D01*
X-500Y-182560D01*
Y-182160D02*
X-900Y-181360D01*
X-100D01*
X-500Y-182160D01*
X-4831Y-182560D02*
X-5631Y-180960D01*
X-4031D01*
X-4831Y-182560D01*
Y-182160D02*
X-5231Y-181360D01*
X-4431D01*
X-4831Y-182160D01*
X3831Y-178229D02*
X3031Y-176629D01*
X4631D01*
X3831Y-178229D01*
Y-177829D02*
X3431Y-177029D01*
X4231D01*
X3831Y-177829D01*
X-500Y-178229D02*
X-1300Y-176629D01*
X300D01*
X-500Y-178229D01*
Y-177829D02*
X-900Y-177029D01*
X-100D01*
X-500Y-177829D01*
X-4831Y-178229D02*
X-5631Y-176629D01*
X-4031D01*
X-4831Y-178229D01*
Y-177829D02*
X-5231Y-177029D01*
X-4431D01*
X-4831Y-177829D01*
X3831Y-173898D02*
X3031Y-172298D01*
X4631D01*
X3831Y-173898D01*
Y-173498D02*
X3431Y-172698D01*
X4231D01*
X3831Y-173498D01*
X-500Y-173898D02*
X-1300Y-172298D01*
X300D01*
X-500Y-173898D01*
Y-173498D02*
X-900Y-172698D01*
X-100D01*
X-500Y-173498D01*
X-45238Y-170298D02*
X-46038Y-168698D01*
X-44438D01*
X-45238Y-170298D01*
Y-169898D02*
X-45638Y-169098D01*
X-44838D01*
X-45238Y-169898D01*
X-40907Y-170298D02*
X-41707Y-168698D01*
X-40107D01*
X-40907Y-170298D01*
Y-169898D02*
X-41307Y-169098D01*
X-40507D01*
X-40907Y-169898D01*
X-49569Y-174629D02*
X-50368Y-173029D01*
X-48768D01*
X-49569Y-174629D01*
Y-174229D02*
X-49968Y-173429D01*
X-49169D01*
X-49569Y-174229D01*
X-45238Y-174629D02*
X-46038Y-173029D01*
X-44438D01*
X-45238Y-174629D01*
Y-174229D02*
X-45638Y-173429D01*
X-44838D01*
X-45238Y-174229D01*
X-40907Y-174629D02*
X-41707Y-173029D01*
X-40107D01*
X-40907Y-174629D01*
Y-174229D02*
X-41307Y-173429D01*
X-40507D01*
X-40907Y-174229D01*
X-49569Y-178960D02*
X-50368Y-177360D01*
X-48768D01*
X-49569Y-178960D01*
Y-178560D02*
X-49968Y-177760D01*
X-49169D01*
X-49569Y-178560D01*
X-45238Y-178960D02*
X-46038Y-177360D01*
X-44438D01*
X-45238Y-178960D01*
Y-178560D02*
X-45638Y-177760D01*
X-44838D01*
X-45238Y-178560D01*
X-40907Y-178960D02*
X-41707Y-177360D01*
X-40107D01*
X-40907Y-178960D01*
Y-178560D02*
X-41307Y-177760D01*
X-40507D01*
X-40907Y-178560D01*
X-49569Y-183291D02*
X-50368Y-181691D01*
X-48768D01*
X-49569Y-183291D01*
Y-182891D02*
X-49968Y-182091D01*
X-49169D01*
X-49569Y-182891D01*
X-45238Y-183291D02*
X-46038Y-181691D01*
X-44438D01*
X-45238Y-183291D01*
Y-182891D02*
X-45638Y-182091D01*
X-44838D01*
X-45238Y-182891D01*
X-40907Y-183291D02*
X-41707Y-181691D01*
X-40107D01*
X-40907Y-183291D01*
Y-182891D02*
X-41307Y-182091D01*
X-40507D01*
X-40907Y-182891D01*
X-49569Y-170298D02*
X-50368Y-168698D01*
X-48768D01*
X-49569Y-170298D01*
Y-169898D02*
X-49968Y-169098D01*
X-49169D01*
X-49569Y-169898D01*
X46700Y-45500D02*
X45900Y-43900D01*
X47500D01*
X46700Y-45500D01*
Y-45100D02*
X46300Y-44300D01*
X47100D01*
X46700Y-45100D01*
X64424Y-20353D02*
X63624Y-18753D01*
X65224D01*
X64424Y-20353D01*
Y-19953D02*
X64024Y-19153D01*
X64824D01*
X64424Y-19953D01*
X152625Y22225D02*
X151825Y23825D01*
X153425D01*
X152625Y22225D01*
Y22625D02*
X152225Y23425D01*
X153025D01*
X152625Y22625D01*
X247025Y-96275D02*
X246225Y-94675D01*
X247825D01*
X247025Y-96275D01*
X230725Y-92075D02*
X229925Y-90475D01*
X231525D01*
X230725Y-92075D01*
X247225Y-92875D02*
X246425Y-91275D01*
X248025D01*
X247225Y-92875D01*
X283125Y-224575D02*
X282325Y-222975D01*
X283925D01*
X283125Y-224575D01*
X268225Y-218575D02*
X267425Y-216975D01*
X269025D01*
X268225Y-218575D01*
Y-218175D02*
X267825Y-217375D01*
X268625D01*
X268225Y-218175D01*
X294100Y-230600D02*
X293300Y-229000D01*
X294900D01*
X294100Y-230600D01*
X261400Y-218900D02*
X260600Y-217300D01*
X262200D01*
X261400Y-218900D01*
X291500Y-219700D02*
X290700Y-218100D01*
X292300D01*
X291500Y-219700D01*
X285700Y-219800D02*
X284900Y-218200D01*
X286500D01*
X285700Y-219800D01*
X261600Y-194600D02*
X260800Y-193000D01*
X262400D01*
X261600Y-194600D01*
X265100Y-204800D02*
X264300Y-203200D01*
X265900D01*
X265100Y-204800D01*
X261900Y-185100D02*
X261100Y-183500D01*
X262700D01*
X261900Y-185100D01*
X274600Y-185500D02*
X273800Y-183900D01*
X275400D01*
X274600Y-185500D01*
X268100Y-167800D02*
X267300Y-166200D01*
X268900D01*
X268100Y-167800D01*
X299100Y-212200D02*
X298300Y-210600D01*
X299900D01*
X299100Y-212200D01*
Y-211800D02*
X298700Y-211000D01*
X299500D01*
X299100Y-211800D01*
X296100Y-215400D02*
X295300Y-213800D01*
X296900D01*
X296100Y-215400D01*
Y-215000D02*
X295700Y-214200D01*
X296500D01*
X296100Y-215000D01*
X255800Y-228300D02*
X255000Y-226700D01*
X256600D01*
X255800Y-228300D01*
X69600Y-35200D02*
X68800Y-33600D01*
X70400D01*
X69600Y-35200D01*
Y-34800D02*
X69200Y-34000D01*
X70000D01*
X69600Y-34800D01*
X108890Y-47990D02*
X108090Y-46390D01*
X109690D01*
X108890Y-47990D01*
Y-47590D02*
X108490Y-46790D01*
X109290D01*
X108890Y-47590D01*
X114410Y-47890D02*
X113610Y-46290D01*
X115210D01*
X114410Y-47890D01*
Y-47490D02*
X114010Y-46690D01*
X114810D01*
X114410Y-47490D01*
X120290Y-47890D02*
X119490Y-46290D01*
X121090D01*
X120290Y-47890D01*
Y-47490D02*
X119890Y-46690D01*
X120690D01*
X120290Y-47490D01*
X62625Y-211475D02*
X61825Y-209875D01*
X63425D01*
X62625Y-211475D01*
Y-211075D02*
X62225Y-210275D01*
X63025D01*
X62625Y-211075D01*
X59925Y-211475D02*
X59125Y-209875D01*
X60725D01*
X59925Y-211475D01*
Y-211075D02*
X59525Y-210275D01*
X60325D01*
X59925Y-211075D01*
X44900Y-211000D02*
X44100Y-209400D01*
X45700D01*
X44900Y-211000D01*
Y-210600D02*
X44500Y-209800D01*
X45300D01*
X44900Y-210600D01*
X21225Y-212275D02*
X20425Y-210675D01*
X22025D01*
X21225Y-212275D01*
Y-211875D02*
X20825Y-211075D01*
X21625D01*
X21225Y-211875D01*
Y-209675D02*
X20425Y-208075D01*
X22025D01*
X21225Y-209675D01*
Y-209275D02*
X20825Y-208475D01*
X21625D01*
X21225Y-209275D01*
X17325Y-211075D02*
X16525Y-209475D01*
X18125D01*
X17325Y-211075D01*
Y-210675D02*
X16925Y-209875D01*
X17725D01*
X17325Y-210675D01*
X19825Y-200475D02*
X19025Y-198875D01*
X20625D01*
X19825Y-200475D01*
Y-200075D02*
X19425Y-199275D01*
X20225D01*
X19825Y-200075D01*
X3325Y-217175D02*
X2525Y-215575D01*
X4125D01*
X3325Y-217175D01*
Y-216775D02*
X2925Y-215975D01*
X3725D01*
X3325Y-216775D01*
X3425Y-214575D02*
X2625Y-212975D01*
X4225D01*
X3425Y-214575D01*
Y-214175D02*
X3025Y-213375D01*
X3825D01*
X3425Y-214175D01*
X5025Y-211375D02*
X4225Y-209775D01*
X5825D01*
X5025Y-211375D01*
Y-210975D02*
X4625Y-210175D01*
X5425D01*
X5025Y-210975D01*
X-9075Y-216400D02*
X-9875Y-214800D01*
X-8275D01*
X-9075Y-216400D01*
Y-216000D02*
X-9475Y-215200D01*
X-8675D01*
X-9075Y-216000D01*
Y-214000D02*
X-9875Y-212400D01*
X-8275D01*
X-9075Y-214000D01*
Y-213600D02*
X-9475Y-212800D01*
X-8675D01*
X-9075Y-213600D01*
X-16475Y-214475D02*
X-17275Y-212875D01*
X-15675D01*
X-16475Y-214475D01*
Y-214075D02*
X-16875Y-213275D01*
X-16075D01*
X-16475Y-214075D01*
Y-211875D02*
X-17275Y-210275D01*
X-15675D01*
X-16475Y-211875D01*
Y-211475D02*
X-16875Y-210675D01*
X-16075D01*
X-16475Y-211475D01*
X-25975Y-212075D02*
X-26775Y-210475D01*
X-25175D01*
X-25975Y-212075D01*
Y-211675D02*
X-26375Y-210875D01*
X-25575D01*
X-25975Y-211675D01*
Y-214675D02*
X-26775Y-213075D01*
X-25175D01*
X-25975Y-214675D01*
Y-214275D02*
X-26375Y-213475D01*
X-25575D01*
X-25975Y-214275D01*
X-34475Y-211075D02*
X-35275Y-209475D01*
X-33675D01*
X-34475Y-211075D01*
Y-210675D02*
X-34875Y-209875D01*
X-34075D01*
X-34475Y-210675D01*
X-37153Y-211075D02*
X-37953Y-209475D01*
X-36353D01*
X-37153Y-211075D01*
Y-210675D02*
X-37553Y-209875D01*
X-36753D01*
X-37153Y-210675D01*
X42525Y-234475D02*
X41725Y-232875D01*
X43325D01*
X42525Y-234475D01*
Y-234075D02*
X42125Y-233275D01*
X42925D01*
X42525Y-234075D01*
X153800Y-60100D02*
X153000Y-58500D01*
X154600D01*
X153800Y-60100D01*
X237600Y-27000D02*
X236800Y-25400D01*
X238400D01*
X237600Y-27000D01*
X242000Y-33100D02*
X241200Y-31500D01*
X242800D01*
X242000Y-33100D01*
X249900Y-34500D02*
X249100Y-32900D01*
X250700D01*
X249900Y-34500D01*
X240000Y-40800D02*
X239200Y-39200D01*
X240800D01*
X240000Y-40800D01*
X221325Y-26575D02*
X220525Y-24975D01*
X222125D01*
X221325Y-26575D01*
Y-26175D02*
X220925Y-25375D01*
X221725D01*
X221325Y-26175D01*
X188800Y-166300D02*
X188000Y-164700D01*
X189600D01*
X188800Y-166300D01*
X189100Y-170900D02*
X188300Y-169300D01*
X189900D01*
X189100Y-170900D01*
X206900Y-172100D02*
X206100Y-170500D01*
X207700D01*
X206900Y-172100D01*
Y-171700D02*
X206500Y-170900D01*
X207300D01*
X206900Y-171700D01*
X203900Y-149300D02*
X203100Y-147700D01*
X204700D01*
X203900Y-149300D01*
X204800Y-158400D02*
X204000Y-156800D01*
X205600D01*
X204800Y-158400D01*
X216425Y-35175D02*
X215625Y-33575D01*
X217225D01*
X216425Y-35175D01*
Y-34775D02*
X216025Y-33975D01*
X216825D01*
X216425Y-34775D01*
X214525Y-38675D02*
X213725Y-37075D01*
X215325D01*
X214525Y-38675D01*
Y-38275D02*
X214125Y-37475D01*
X214925D01*
X214525Y-38275D01*
X209625Y-38875D02*
X208825Y-37275D01*
X210425D01*
X209625Y-38875D01*
Y-38475D02*
X209225Y-37675D01*
X210025D01*
X209625Y-38475D01*
X183500Y-45800D02*
X182700Y-44200D01*
X184300D01*
X183500Y-45800D01*
Y-45400D02*
X183100Y-44600D01*
X183900D01*
X183500Y-45400D01*
X87325Y-152575D02*
X86525Y-150975D01*
X88125D01*
X87325Y-152575D01*
Y-152175D02*
X86925Y-151375D01*
X87725D01*
X87325Y-152175D01*
X139525Y-92275D02*
X138725Y-90675D01*
X140325D01*
X139525Y-92275D01*
Y-91875D02*
X139125Y-91075D01*
X139925D01*
X139525Y-91875D01*
X83925Y-92975D02*
X83125Y-91375D01*
X84725D01*
X83925Y-92975D01*
Y-92575D02*
X83525Y-91775D01*
X84325D01*
X83925Y-92575D01*
X73000Y-112900D02*
X72200Y-111300D01*
X73800D01*
X73000Y-112900D01*
Y-112500D02*
X72600Y-111700D01*
X73400D01*
X73000Y-112500D01*
X31625Y-192675D02*
X30825Y-191075D01*
X32425D01*
X31625Y-192675D01*
Y-192275D02*
X31225Y-191475D01*
X32025D01*
X31625Y-192275D01*
X10880Y-41809D02*
X10080Y-40209D01*
X11680D01*
X10880Y-41809D01*
Y-41409D02*
X10480Y-40609D01*
X11280D01*
X10880Y-41409D01*
X172425Y-136675D02*
X171625Y-135075D01*
X173225D01*
X172425Y-136675D01*
Y-136275D02*
X172025Y-135475D01*
X172825D01*
X172425Y-136275D01*
X160825Y-141675D02*
X160025Y-140075D01*
X161625D01*
X160825Y-141675D01*
Y-141275D02*
X160425Y-140475D01*
X161225D01*
X160825Y-141275D01*
X-64375Y-127975D02*
X-65175Y-126375D01*
X-63575D01*
X-64375Y-127975D01*
Y-127575D02*
X-64775Y-126775D01*
X-63975D01*
X-64375Y-127575D01*
X31425Y-75275D02*
X30625Y-73675D01*
X32225D01*
X31425Y-75275D01*
Y-74875D02*
X31025Y-74075D01*
X31825D01*
X31425Y-74875D01*
X31125Y-85675D02*
X30325Y-84075D01*
X31925D01*
X31125Y-85675D01*
Y-85275D02*
X30725Y-84475D01*
X31525D01*
X31125Y-85275D01*
X-40675Y-47075D02*
X-41475Y-45475D01*
X-39875D01*
X-40675Y-47075D01*
Y-46675D02*
X-41075Y-45875D01*
X-40275D01*
X-40675Y-46675D01*
X-68675Y-47775D02*
X-69475Y-46175D01*
X-67875D01*
X-68675Y-47775D01*
Y-47375D02*
X-69075Y-46575D01*
X-68275D01*
X-68675Y-47375D01*
X-69375Y-22175D02*
X-70175Y-20575D01*
X-68575D01*
X-69375Y-22175D01*
Y-21775D02*
X-69775Y-20975D01*
X-68975D01*
X-69375Y-21775D01*
X-52575Y-22675D02*
X-53375Y-21075D01*
X-51775D01*
X-52575Y-22675D01*
Y-22275D02*
X-52975Y-21475D01*
X-52175D01*
X-52575Y-22275D01*
X-37475Y-15875D02*
X-38275Y-14275D01*
X-36675D01*
X-37475Y-15875D01*
Y-15475D02*
X-37875Y-14675D01*
X-37075D01*
X-37475Y-15475D01*
X-52875Y-16875D02*
X-53675Y-15275D01*
X-52075D01*
X-52875Y-16875D01*
Y-16475D02*
X-53275Y-15675D01*
X-52475D01*
X-52875Y-16475D01*
X-26875Y5925D02*
X-27675Y7525D01*
X-26075D01*
X-26875Y5925D01*
Y6325D02*
X-27275Y7125D01*
X-26475D01*
X-26875Y6325D01*
X-43275Y2825D02*
X-44075Y4425D01*
X-42475D01*
X-43275Y2825D01*
Y3225D02*
X-43675Y4025D01*
X-42875D01*
X-43275Y3225D01*
X-68875Y-4575D02*
X-69675Y-2975D01*
X-68075D01*
X-68875Y-4575D01*
Y-4175D02*
X-69275Y-3375D01*
X-68475D01*
X-68875Y-4175D01*
X-58275Y-1375D02*
X-59075Y225D01*
X-57475D01*
X-58275Y-1375D01*
Y-975D02*
X-58675Y-175D01*
X-57875D01*
X-58275Y-975D01*
X-68375Y14325D02*
X-69175Y15925D01*
X-67575D01*
X-68375Y14325D01*
Y14725D02*
X-68775Y15525D01*
X-67975D01*
X-68375Y14725D01*
X-45675Y33425D02*
X-46475Y35025D01*
X-44875D01*
X-45675Y33425D01*
Y33825D02*
X-46075Y34625D01*
X-45275D01*
X-45675Y33825D01*
X-30300Y28900D02*
X-31100Y30500D01*
X-29500D01*
X-30300Y28900D01*
Y29300D02*
X-30700Y30100D01*
X-29900D01*
X-30300Y29300D01*
X525Y32325D02*
X-275Y33925D01*
X1325D01*
X525Y32325D01*
Y32725D02*
X125Y33525D01*
X925D01*
X525Y32725D01*
X4925Y20725D02*
X4125Y22325D01*
X5725D01*
X4925Y20725D01*
Y21125D02*
X4525Y21925D01*
X5325D01*
X4925Y21125D01*
X10700Y28600D02*
X9900Y30200D01*
X11500D01*
X10700Y28600D01*
Y29000D02*
X10300Y29800D01*
X11100D01*
X10700Y29000D01*
X51200Y29100D02*
X50400Y30700D01*
X52000D01*
X51200Y29100D01*
Y29500D02*
X50800Y30300D01*
X51600D01*
X51200Y29500D01*
X115625Y-3175D02*
X114825Y-1575D01*
X116425D01*
X115625Y-3175D01*
Y-2775D02*
X115225Y-1975D01*
X116025D01*
X115625Y-2775D01*
X104125Y2725D02*
X103325Y4325D01*
X104925D01*
X104125Y2725D01*
Y3125D02*
X103725Y3925D01*
X104525D01*
X104125Y3125D01*
X93825Y4125D02*
X93025Y5725D01*
X94625D01*
X93825Y4125D01*
Y4525D02*
X93425Y5325D01*
X94225D01*
X93825Y4525D01*
X93025Y11525D02*
X92225Y13125D01*
X93825D01*
X93025Y11525D01*
Y11925D02*
X92625Y12725D01*
X93425D01*
X93025Y11925D01*
X95132Y18033D02*
X94332Y19633D01*
X95932D01*
X95132Y18033D01*
Y18433D02*
X94732Y19233D01*
X95532D01*
X95132Y18433D01*
X98872Y27876D02*
X98072Y29476D01*
X99672D01*
X98872Y27876D01*
Y28276D02*
X98472Y29076D01*
X99272D01*
X98872Y28276D01*
X121925Y11225D02*
X121125Y12825D01*
X122725D01*
X121925Y11225D01*
Y11625D02*
X121525Y12425D01*
X122325D01*
X121925Y11625D01*
X121125Y6525D02*
X120325Y8125D01*
X121925D01*
X121125Y6525D01*
Y6925D02*
X120725Y7725D01*
X121525D01*
X121125Y6925D01*
X132425Y5525D02*
X131625Y7125D01*
X133225D01*
X132425Y5525D01*
Y5925D02*
X132025Y6725D01*
X132825D01*
X132425Y5925D01*
X140525Y1025D02*
X139725Y2625D01*
X141325D01*
X140525Y1025D01*
Y1425D02*
X140125Y2225D01*
X140925D01*
X140525Y1425D01*
X147025Y6925D02*
X146225Y8525D01*
X147825D01*
X147025Y6925D01*
Y7325D02*
X146625Y8125D01*
X147425D01*
X147025Y7325D01*
X152625Y15025D02*
X151825Y16625D01*
X153425D01*
X152625Y15025D01*
Y15425D02*
X152225Y16225D01*
X153025D01*
X152625Y15425D01*
X158700Y1500D02*
X157900Y3100D01*
X159500D01*
X158700Y1500D01*
Y1900D02*
X158300Y2700D01*
X159100D01*
X158700Y1900D01*
X158425Y-5775D02*
X157625Y-4175D01*
X159225D01*
X158425Y-5775D01*
Y-5375D02*
X158025Y-4575D01*
X158825D01*
X158425Y-5375D01*
X161325Y14225D02*
X160525Y15825D01*
X162125D01*
X161325Y14225D01*
Y14625D02*
X160925Y15425D01*
X161725D01*
X161325Y14625D01*
X171125Y15525D02*
X170325Y17125D01*
X171925D01*
X171125Y15525D01*
Y15925D02*
X170725Y16725D01*
X171525D01*
X171125Y15925D01*
X166425Y7725D02*
X165625Y9325D01*
X167225D01*
X166425Y7725D01*
Y8125D02*
X166025Y8925D01*
X166825D01*
X166425Y8125D01*
X171125Y-9675D02*
X170325Y-8075D01*
X171925D01*
X171125Y-9675D01*
Y-9275D02*
X170725Y-8475D01*
X171525D01*
X171125Y-9275D01*
X151525Y-125175D02*
X150725Y-123575D01*
X152325D01*
X151525Y-125175D01*
Y-124775D02*
X151125Y-123975D01*
X151925D01*
X151525Y-124775D01*
X156125Y-102475D02*
X155325Y-100875D01*
X156925D01*
X156125Y-102475D01*
Y-102075D02*
X155725Y-101275D01*
X156525D01*
X156125Y-102075D01*
X174525Y-109275D02*
X173725Y-107675D01*
X175325D01*
X174525Y-109275D01*
Y-108875D02*
X174125Y-108075D01*
X174925D01*
X174525Y-108875D01*
X171025Y-109275D02*
X170225Y-107675D01*
X171825D01*
X171025Y-109275D01*
Y-108875D02*
X170625Y-108075D01*
X171425D01*
X171025Y-108875D01*
X174625Y-76375D02*
X173825Y-74775D01*
X175425D01*
X174625Y-76375D01*
Y-75975D02*
X174225Y-75175D01*
X175025D01*
X174625Y-75975D01*
X170825Y-76475D02*
X170025Y-74875D01*
X171625D01*
X170825Y-76475D01*
Y-76075D02*
X170425Y-75275D01*
X171225D01*
X170825Y-76075D01*
X150425Y-51175D02*
X149625Y-49575D01*
X151225D01*
X150425Y-51175D01*
Y-50775D02*
X150025Y-49975D01*
X150825D01*
X150425Y-50775D01*
X201325Y-50375D02*
X200525Y-48775D01*
X202125D01*
X201325Y-50375D01*
Y-49975D02*
X200925Y-49175D01*
X201725D01*
X201325Y-49975D01*
X183500Y-42400D02*
X182700Y-40800D01*
X184300D01*
X183500Y-42400D01*
Y-42000D02*
X183100Y-41200D01*
X183900D01*
X183500Y-42000D01*
X334825Y31225D02*
X334025Y32825D01*
X335625D01*
X334825Y31225D01*
Y31625D02*
X334425Y32425D01*
X335225D01*
X334825Y31625D01*
X288325Y-3675D02*
X287525Y-2075D01*
X289125D01*
X288325Y-3675D01*
Y-3275D02*
X287925Y-2475D01*
X288725D01*
X288325Y-3275D01*
X298325Y-6875D02*
X297525Y-5275D01*
X299125D01*
X298325Y-6875D01*
Y-6475D02*
X297925Y-5675D01*
X298725D01*
X298325Y-6475D01*
X333825Y-175D02*
X333025Y1425D01*
X334625D01*
X333825Y-175D01*
Y225D02*
X333425Y1025D01*
X334225D01*
X333825Y225D01*
X334025Y-17375D02*
X333225Y-15775D01*
X334825D01*
X334025Y-17375D01*
Y-16975D02*
X333625Y-16175D01*
X334425D01*
X334025Y-16975D01*
X320025Y-17475D02*
X319225Y-15875D01*
X320825D01*
X320025Y-17475D01*
Y-17075D02*
X319625Y-16275D01*
X320425D01*
X320025Y-17075D01*
X310425Y3225D02*
X309625Y4825D01*
X311225D01*
X310425Y3225D01*
Y3625D02*
X310025Y4425D01*
X310825D01*
X310425Y3625D01*
X320025Y-30375D02*
X319225Y-28775D01*
X320825D01*
X320025Y-30375D01*
Y-29975D02*
X319625Y-29175D01*
X320425D01*
X320025Y-29975D01*
X301125Y29525D02*
X300325Y31125D01*
X301925D01*
X301125Y29525D01*
Y29925D02*
X300725Y30725D01*
X301525D01*
X301125Y29925D01*
X303625Y-21875D02*
X302825Y-20275D01*
X304425D01*
X303625Y-21875D01*
Y-21475D02*
X303225Y-20675D01*
X304025D01*
X303625Y-21475D01*
X313325Y-45075D02*
X312525Y-43475D01*
X314125D01*
X313325Y-45075D01*
Y-44675D02*
X312925Y-43875D01*
X313725D01*
X313325Y-44675D01*
X309625Y-92875D02*
X308825Y-91275D01*
X310425D01*
X309625Y-92875D01*
Y-92475D02*
X309225Y-91675D01*
X310025D01*
X309625Y-92475D01*
X319025Y-70375D02*
X318225Y-68775D01*
X319825D01*
X319025Y-70375D01*
Y-69975D02*
X318625Y-69175D01*
X319425D01*
X319025Y-69975D01*
X309225Y-77975D02*
X308425Y-76375D01*
X310025D01*
X309225Y-77975D01*
Y-77575D02*
X308825Y-76775D01*
X309625D01*
X309225Y-77575D01*
X305025Y-104975D02*
X304225Y-103375D01*
X305825D01*
X305025Y-104975D01*
Y-104575D02*
X304625Y-103775D01*
X305425D01*
X305025Y-104575D01*
X318925Y-91075D02*
X318125Y-89475D01*
X319725D01*
X318925Y-91075D01*
Y-90675D02*
X318525Y-89875D01*
X319325D01*
X318925Y-90675D01*
X334125Y-85875D02*
X333325Y-84275D01*
X334925D01*
X334125Y-85875D01*
Y-85475D02*
X333725Y-84675D01*
X334525D01*
X334125Y-85475D01*
X334025Y-106375D02*
X333225Y-104775D01*
X334825D01*
X334025Y-106375D01*
Y-105975D02*
X333625Y-105175D01*
X334425D01*
X334025Y-105975D01*
X333725Y-125275D02*
X332925Y-123675D01*
X334525D01*
X333725Y-125275D01*
Y-124875D02*
X333325Y-124075D01*
X334125D01*
X333725Y-124875D01*
X314125Y-116575D02*
X313325Y-114975D01*
X314925D01*
X314125Y-116575D01*
Y-116175D02*
X313725Y-115375D01*
X314525D01*
X314125Y-116175D01*
X313925Y-136075D02*
X313125Y-134475D01*
X314725D01*
X313925Y-136075D01*
Y-135675D02*
X313525Y-134875D01*
X314325D01*
X313925Y-135675D01*
X267525Y-161775D02*
X266725Y-160175D01*
X268325D01*
X267525Y-161775D01*
Y-161375D02*
X267125Y-160575D01*
X267925D01*
X267525Y-161375D01*
X333225Y-158375D02*
X332425Y-156775D01*
X334025D01*
X333225Y-158375D01*
Y-157975D02*
X332825Y-157175D01*
X333625D01*
X333225Y-157975D01*
X333925Y-181575D02*
X333125Y-179975D01*
X334725D01*
X333925Y-181575D01*
Y-181175D02*
X333525Y-180375D01*
X334325D01*
X333925Y-181175D01*
X311625Y-170575D02*
X310825Y-168975D01*
X312425D01*
X311625Y-170575D01*
Y-170175D02*
X311225Y-169375D01*
X312025D01*
X311625Y-170175D01*
X312025Y-200075D02*
X311225Y-198475D01*
X312825D01*
X312025Y-200075D01*
Y-199675D02*
X311625Y-198875D01*
X312425D01*
X312025Y-199675D01*
X336525Y-214675D02*
X335725Y-213075D01*
X337325D01*
X336525Y-214675D01*
Y-214275D02*
X336125Y-213475D01*
X336925D01*
X336525Y-214275D01*
X253825Y-208375D02*
X253025Y-206775D01*
X254625D01*
X253825Y-208375D01*
Y-207975D02*
X253425Y-207175D01*
X254225D01*
X253825Y-207975D01*
X257125Y-188475D02*
X256325Y-186875D01*
X257925D01*
X257125Y-188475D01*
Y-188075D02*
X256725Y-187275D01*
X257525D01*
X257125Y-188075D01*
X174425Y-216075D02*
X173625Y-214475D01*
X175225D01*
X174425Y-216075D01*
Y-215675D02*
X174025Y-214875D01*
X174825D01*
X174425Y-215675D01*
X174625Y-228275D02*
X173825Y-226675D01*
X175425D01*
X174625Y-228275D01*
Y-227875D02*
X174225Y-227075D01*
X175025D01*
X174625Y-227875D01*
X166225Y-233975D02*
X165425Y-232375D01*
X167025D01*
X166225Y-233975D01*
Y-233575D02*
X165825Y-232775D01*
X166625D01*
X166225Y-233575D01*
X165925Y-221875D02*
X165125Y-220275D01*
X166725D01*
X165925Y-221875D01*
Y-221475D02*
X165525Y-220675D01*
X166325D01*
X165925Y-221475D01*
X130725Y-205575D02*
X129925Y-203975D01*
X131525D01*
X130725Y-205575D01*
Y-205175D02*
X130325Y-204375D01*
X131125D01*
X130725Y-205175D01*
Y-200375D02*
X129925Y-198775D01*
X131525D01*
X130725Y-200375D01*
Y-199975D02*
X130325Y-199175D01*
X131125D01*
X130725Y-199975D01*
X145125Y-233975D02*
X144325Y-232375D01*
X145925D01*
X145125Y-233975D01*
Y-233575D02*
X144725Y-232775D01*
X145525D01*
X145125Y-233575D01*
X124425Y-233675D02*
X123625Y-232075D01*
X125225D01*
X124425Y-233675D01*
Y-233275D02*
X124025Y-232475D01*
X124825D01*
X124425Y-233275D01*
X124325Y-225975D02*
X123525Y-224375D01*
X125125D01*
X124325Y-225975D01*
Y-225575D02*
X123925Y-224775D01*
X124725D01*
X124325Y-225575D01*
X114725Y-233775D02*
X113925Y-232175D01*
X115525D01*
X114725Y-233775D01*
Y-233375D02*
X114325Y-232575D01*
X115125D01*
X114725Y-233375D01*
X115025Y-222775D02*
X114225Y-221175D01*
X115825D01*
X115025Y-222775D01*
Y-222375D02*
X114625Y-221575D01*
X115425D01*
X115025Y-222375D01*
X114925Y-213675D02*
X114125Y-212075D01*
X115725D01*
X114925Y-213675D01*
Y-213275D02*
X114525Y-212475D01*
X115325D01*
X114925Y-213275D01*
X120025Y-184075D02*
X119225Y-182475D01*
X120825D01*
X120025Y-184075D01*
Y-183675D02*
X119625Y-182875D01*
X120425D01*
X120025Y-183675D01*
X84325Y-214175D02*
X83525Y-212575D01*
X85125D01*
X84325Y-214175D01*
Y-213775D02*
X83925Y-212975D01*
X84725D01*
X84325Y-213775D01*
X66225Y-190975D02*
X65425Y-189375D01*
X67025D01*
X66225Y-190975D01*
Y-190575D02*
X65825Y-189775D01*
X66625D01*
X66225Y-190575D01*
X93825Y-234175D02*
X93025Y-232575D01*
X94625D01*
X93825Y-234175D01*
Y-233775D02*
X93425Y-232975D01*
X94225D01*
X93825Y-233775D01*
X-8475Y-234375D02*
X-9275Y-232775D01*
X-7675D01*
X-8475Y-234375D01*
Y-233975D02*
X-8875Y-233175D01*
X-8075D01*
X-8475Y-233975D01*
X73125Y-223975D02*
X72325Y-222375D01*
X73925D01*
X73125Y-223975D01*
Y-223575D02*
X72725Y-222775D01*
X73525D01*
X73125Y-223575D01*
X63925Y-224075D02*
X63125Y-222475D01*
X64725D01*
X63925Y-224075D01*
Y-223675D02*
X63525Y-222875D01*
X64325D01*
X63925Y-223675D01*
X64025Y-233975D02*
X63225Y-232375D01*
X64825D01*
X64025Y-233975D01*
Y-233575D02*
X63625Y-232775D01*
X64425D01*
X64025Y-233575D01*
X66425Y-203775D02*
X65625Y-202175D01*
X67225D01*
X66425Y-203775D01*
Y-203375D02*
X66025Y-202575D01*
X66825D01*
X66425Y-203375D01*
X62025Y-193175D02*
X61225Y-191575D01*
X62825D01*
X62025Y-193175D01*
Y-192775D02*
X61625Y-191975D01*
X62425D01*
X62025Y-192775D01*
X58125Y-188975D02*
X57325Y-187375D01*
X58925D01*
X58125Y-188975D01*
Y-188575D02*
X57725Y-187775D01*
X58525D01*
X58125Y-188575D01*
X-29675Y-234075D02*
X-30475Y-232475D01*
X-28875D01*
X-29675Y-234075D01*
Y-233675D02*
X-30075Y-232875D01*
X-29275D01*
X-29675Y-233675D01*
X-29875Y-224575D02*
X-30675Y-222975D01*
X-29075D01*
X-29875Y-224575D01*
Y-224175D02*
X-30275Y-223375D01*
X-29475D01*
X-29875Y-224175D01*
X12225Y-225475D02*
X11425Y-223875D01*
X13025D01*
X12225Y-225475D01*
Y-225075D02*
X11825Y-224275D01*
X12625D01*
X12225Y-225075D01*
X-49475Y-205375D02*
X-50275Y-203775D01*
X-48675D01*
X-49475Y-205375D01*
Y-204975D02*
X-49875Y-204175D01*
X-49075D01*
X-49475Y-204975D01*
X-63975Y-185975D02*
X-64775Y-184375D01*
X-63175D01*
X-63975Y-185975D01*
Y-185575D02*
X-64375Y-184775D01*
X-63575D01*
X-63975Y-185575D01*
X-50975Y-197275D02*
X-51775Y-195675D01*
X-50175D01*
X-50975Y-197275D01*
Y-196875D02*
X-51375Y-196075D01*
X-50575D01*
X-50975Y-196875D01*
X22525Y-232775D02*
X21725Y-231175D01*
X23325D01*
X22525Y-232775D01*
Y-232375D02*
X22125Y-231575D01*
X22925D01*
X22525Y-232375D01*
X13125Y-233075D02*
X12325Y-231475D01*
X13925D01*
X13125Y-233075D01*
Y-232675D02*
X12725Y-231875D01*
X13525D01*
X13125Y-232675D01*
X-35275Y-220375D02*
X-36075Y-218775D01*
X-34475D01*
X-35275Y-220375D01*
Y-219975D02*
X-35675Y-219175D01*
X-34875D01*
X-35275Y-219975D01*
X-35375Y-226975D02*
X-36175Y-225375D01*
X-34575D01*
X-35375Y-226975D01*
Y-226575D02*
X-35775Y-225775D01*
X-34975D01*
X-35375Y-226575D01*
X-61775Y-204975D02*
X-62575Y-203375D01*
X-60975D01*
X-61775Y-204975D01*
Y-204575D02*
X-62175Y-203775D01*
X-61375D01*
X-61775Y-204575D01*
X-68275Y-212275D02*
X-69075Y-210675D01*
X-67475D01*
X-68275Y-212275D01*
Y-211875D02*
X-68675Y-211075D01*
X-67875D01*
X-68275Y-211875D01*
X-69075Y-239875D02*
X-69875Y-238275D01*
X-68275D01*
X-69075Y-239875D01*
Y-239475D02*
X-69475Y-238675D01*
X-68675D01*
X-69075Y-239475D01*
X-42375Y-239275D02*
X-43175Y-237675D01*
X-41575D01*
X-42375Y-239275D01*
Y-238875D02*
X-42775Y-238075D01*
X-41975D01*
X-42375Y-238875D01*
X109225Y-112775D02*
X108425Y-111175D01*
X110025D01*
X109225Y-112775D01*
Y-112375D02*
X108825Y-111575D01*
X109625D01*
X109225Y-112375D01*
X72600Y-106200D02*
X71800Y-104600D01*
X73400D01*
X72600Y-106200D01*
Y-105800D02*
X72200Y-105000D01*
X73000D01*
X72600Y-105800D01*
X106200Y-79300D02*
X105400Y-77700D01*
X107000D01*
X106200Y-79300D01*
Y-78900D02*
X105800Y-78100D01*
X106600D01*
X106200Y-78900D01*
Y-73400D02*
X105400Y-71800D01*
X107000D01*
X106200Y-73400D01*
Y-73000D02*
X105800Y-72200D01*
X106600D01*
X106200Y-73000D01*
X83925Y-67167D02*
X83125Y-65567D01*
X84725D01*
X83925Y-67167D01*
Y-66767D02*
X83525Y-65967D01*
X84325D01*
X83925Y-66767D01*
X92125Y-79275D02*
X91325Y-77675D01*
X92925D01*
X92125Y-79275D01*
Y-78875D02*
X91725Y-78075D01*
X92525D01*
X92125Y-78875D01*
X83925Y-79275D02*
X83125Y-77675D01*
X84725D01*
X83925Y-79275D01*
Y-78875D02*
X83525Y-78075D01*
X84325D01*
X83925Y-78875D01*
X75125Y-102875D02*
X74325Y-101275D01*
X75925D01*
X75125Y-102875D01*
Y-102475D02*
X74725Y-101675D01*
X75525D01*
X75125Y-102475D01*
X119625Y-57475D02*
X118825Y-55875D01*
X120425D01*
X119625Y-57475D01*
X11625Y-106475D02*
X10825Y-104875D01*
X12425D01*
X11625Y-106475D01*
Y-106075D02*
X11225Y-105275D01*
X12025D01*
X11625Y-106075D01*
X5425Y-111475D02*
X4625Y-109875D01*
X6225D01*
X5425Y-111475D01*
Y-111075D02*
X5025Y-110275D01*
X5825D01*
X5425Y-111075D01*
X9025Y-57375D02*
X8225Y-55775D01*
X9825D01*
X9025Y-57375D01*
Y-56975D02*
X8625Y-56175D01*
X9425D01*
X9025Y-56975D01*
X244100Y-147300D02*
X243300Y-145700D01*
X244900D01*
X244100Y-147300D01*
X234900D02*
X234100Y-145700D01*
X235700D01*
X234900Y-147300D01*
Y-152400D02*
X234100Y-150800D01*
X235700D01*
X234900Y-152400D01*
X244100D02*
X243300Y-150800D01*
X244900D01*
X244100Y-152400D01*
X234900Y-157600D02*
X234100Y-156000D01*
X235700D01*
X234900Y-157600D01*
X244100D02*
X243300Y-156000D01*
X244900D01*
X244100Y-157600D01*
X62900Y-138100D02*
X62100Y-136500D01*
X63700D01*
X62900Y-138100D01*
Y-137700D02*
X62500Y-136900D01*
X63300D01*
X62900Y-137700D01*
X59900Y-138100D02*
X59100Y-136500D01*
X60700D01*
X59900Y-138100D01*
Y-137700D02*
X59500Y-136900D01*
X60300D01*
X59900Y-137700D01*
X55000Y-127900D02*
X54200Y-126300D01*
X55800D01*
X55000Y-127900D01*
Y-127500D02*
X54600Y-126700D01*
X55400D01*
X55000Y-127500D01*
X-42600Y-137200D02*
X-43400Y-135600D01*
X-41800D01*
X-42600Y-137200D01*
Y-136800D02*
X-43000Y-136000D01*
X-42200D01*
X-42600Y-136800D01*
Y-139800D02*
X-43400Y-138200D01*
X-41800D01*
X-42600Y-139800D01*
Y-139400D02*
X-43000Y-138600D01*
X-42200D01*
X-42600Y-139400D01*
X12300Y-142900D02*
X11500Y-141300D01*
X13100D01*
X12300Y-142900D01*
Y-142500D02*
X11900Y-141700D01*
X12700D01*
X12300Y-142500D01*
X9100Y-142900D02*
X8300Y-141300D01*
X9900D01*
X9100Y-142900D01*
Y-142500D02*
X8700Y-141700D01*
X9500D01*
X9100Y-142500D01*
X60500Y-158000D02*
X59700Y-156400D01*
X61300D01*
X60500Y-158000D01*
Y-157600D02*
X60100Y-156800D01*
X60900D01*
X60500Y-157600D01*
X57600Y-179600D02*
X56800Y-178000D01*
X58400D01*
X57600Y-179600D01*
Y-179200D02*
X57200Y-178400D01*
X58000D01*
X57600Y-179200D01*
X24200Y-206400D02*
X23400Y-204800D01*
X25000D01*
X24200Y-206400D01*
Y-206000D02*
X23800Y-205200D01*
X24600D01*
X24200Y-206000D01*
X25700Y-193600D02*
X24900Y-192000D01*
X26500D01*
X25700Y-193600D01*
Y-193200D02*
X25300Y-192400D01*
X26100D01*
X25700Y-193200D01*
X84500Y-137800D02*
X83700Y-136200D01*
X85300D01*
X84500Y-137800D01*
Y-137400D02*
X84100Y-136600D01*
X84900D01*
X84500Y-137400D01*
X81800Y-137800D02*
X81000Y-136200D01*
X82600D01*
X81800Y-137800D01*
Y-137400D02*
X81400Y-136600D01*
X82200D01*
X81800Y-137400D01*
X53738Y-192000D02*
X52938Y-190400D01*
X54538D01*
X53738Y-192000D01*
Y-191600D02*
X53338Y-190800D01*
X54138D01*
X53738Y-191600D01*
X56100Y-192000D02*
X55300Y-190400D01*
X56900D01*
X56100Y-192000D01*
Y-191600D02*
X55700Y-190800D01*
X56500D01*
X56100Y-191600D01*
X34800Y-194000D02*
X34000Y-192400D01*
X35600D01*
X34800Y-194000D01*
Y-193600D02*
X34400Y-192800D01*
X35200D01*
X34800Y-193600D01*
X35000Y-168700D02*
X34200Y-167100D01*
X35800D01*
X35000Y-168700D01*
Y-168300D02*
X34600Y-167500D01*
X35400D01*
X35000Y-168300D01*
X34200Y-166400D02*
X33400Y-164800D01*
X35000D01*
X34200Y-166400D01*
Y-166000D02*
X33800Y-165200D01*
X34600D01*
X34200Y-166000D01*
X-22875Y-191575D02*
X-23675Y-189975D01*
X-22075D01*
X-22875Y-191575D01*
Y-191175D02*
X-23275Y-190375D01*
X-22475D01*
X-22875Y-191175D01*
X10900Y-191800D02*
X10100Y-190200D01*
X11700D01*
X10900Y-191800D01*
Y-191400D02*
X10500Y-190600D01*
X11300D01*
X10900Y-191400D01*
X8700Y-191800D02*
X7900Y-190200D01*
X9500D01*
X8700Y-191800D01*
Y-191400D02*
X8300Y-190600D01*
X9100D01*
X8700Y-191400D01*
X-55400Y-143800D02*
X-56200Y-142200D01*
X-54600D01*
X-55400Y-143800D01*
Y-143400D02*
X-55800Y-142600D01*
X-55000D01*
X-55400Y-143400D01*
X142300Y-55900D02*
X141500Y-54300D01*
X143100D01*
X142300Y-55900D01*
X101025Y-50175D02*
X100225Y-48575D01*
X101825D01*
X101025Y-50175D01*
X48100Y-103400D02*
X47300Y-101800D01*
X48900D01*
X48100Y-103400D01*
X48400Y-116500D02*
X47600Y-114900D01*
X49200D01*
X48400Y-116500D01*
X52325Y-30175D02*
X51525Y-28575D01*
X53125D01*
X52325Y-30175D01*
Y-29775D02*
X51925Y-28975D01*
X52725D01*
X52325Y-29775D01*
X49800Y-38100D02*
X49000Y-36500D01*
X50600D01*
X49800Y-38100D01*
Y-37700D02*
X49400Y-36900D01*
X50200D01*
X49800Y-37700D01*
X-45300Y-28900D02*
X-46100Y-27300D01*
X-44500D01*
X-45300Y-28900D01*
X-38200Y-22300D02*
X-39000Y-20700D01*
X-37400D01*
X-38200Y-22300D01*
X37800Y-71000D02*
X37000Y-69400D01*
X38600D01*
X37800Y-71000D01*
Y-70600D02*
X37400Y-69800D01*
X38200D01*
X37800Y-70600D01*
X205200Y-116200D02*
X204400Y-114600D01*
X206000D01*
X205200Y-116200D01*
X205400Y-111600D02*
X204600Y-110000D01*
X206200D01*
X205400Y-111600D01*
X232700Y-130700D02*
X231900Y-129100D01*
X233500D01*
X232700Y-130700D01*
X185300Y-165900D02*
X184500Y-164300D01*
X186100D01*
X185300Y-165900D01*
Y-170900D02*
X184500Y-169300D01*
X186100D01*
X185300Y-170900D01*
X209100Y-230200D02*
X208300Y-228600D01*
X209900D01*
X209100Y-230200D01*
X198409Y-228885D02*
X197609Y-227285D01*
X199209D01*
X198409Y-228885D01*
X213900Y-208000D02*
X213100Y-206400D01*
X214700D01*
X213900Y-208000D01*
X278725Y-33275D02*
X277925Y-31675D01*
X279525D01*
X278725Y-33275D01*
X260000Y-60800D02*
X259200Y-59200D01*
X260800D01*
X260000Y-60800D01*
Y-50800D02*
X259200Y-49200D01*
X260800D01*
X260000Y-50800D01*
X270000D02*
X269200Y-49200D01*
X270800D01*
X270000Y-50800D01*
X268900Y-40900D02*
X268100Y-39300D01*
X269700D01*
X268900Y-40900D01*
X269600Y-30800D02*
X268800Y-29200D01*
X270400D01*
X269600Y-30800D01*
X256800Y-34900D02*
X256000Y-33300D01*
X257600D01*
X256800Y-34900D01*
X260000Y-42700D02*
X259200Y-41100D01*
X260800D01*
X260000Y-42700D01*
X250000Y-40800D02*
X249200Y-39200D01*
X250800D01*
X250000Y-40800D01*
X230000D02*
X229200Y-39200D01*
X230800D01*
X230000Y-40800D01*
X174500Y-182700D02*
X173700Y-181100D01*
X175300D01*
X174500Y-182700D01*
X232800Y-218900D02*
X232000Y-217300D01*
X233600D01*
X232800Y-218900D01*
X198500Y-215900D02*
X197700Y-214300D01*
X199300D01*
X198500Y-215900D01*
X208625Y-218526D02*
X207825Y-216926D01*
X209425D01*
X208625Y-218526D01*
X303725Y-207175D02*
X302925Y-205575D01*
X304525D01*
X303725Y-207175D01*
X288700Y-214700D02*
X287900Y-213100D01*
X289500D01*
X288700Y-214700D01*
X288700Y-202600D02*
X287900Y-201000D01*
X289500D01*
X288700Y-202600D01*
X303200Y-183900D02*
X302400Y-182300D01*
X304000D01*
X303200Y-183900D01*
X285400Y-188300D02*
X284600Y-186700D01*
X286200D01*
X285400Y-188300D01*
X294000Y-193400D02*
X293200Y-191800D01*
X294800D01*
X294000Y-193400D01*
X293800Y-174300D02*
X293000Y-172700D01*
X294600D01*
X293800Y-174300D01*
X307600Y-178900D02*
X306800Y-177300D01*
X308400D01*
X307600Y-178900D01*
X290900Y-162600D02*
X290100Y-161000D01*
X291700D01*
X290900Y-162600D01*
X280900Y-157000D02*
X280100Y-155400D01*
X281700D01*
X280900Y-157000D01*
X281400Y-162700D02*
X280600Y-161100D01*
X282200D01*
X281400Y-162700D01*
X281800Y-153200D02*
X281000Y-151600D01*
X282600D01*
X281800Y-153200D01*
X246200Y-165100D02*
X245400Y-163500D01*
X247000D01*
X246200Y-165100D01*
X251100Y-166800D02*
X250300Y-165200D01*
X251900D01*
X251100Y-166800D01*
X255000Y-163000D02*
X254200Y-161400D01*
X255800D01*
X255000Y-163000D01*
X270000Y-153500D02*
X269200Y-151900D01*
X270800D01*
X270000Y-153500D01*
X265500D02*
X264700Y-151900D01*
X266300D01*
X265500Y-153500D01*
X254000Y-157000D02*
X253200Y-155400D01*
X254800D01*
X254000Y-157000D01*
X255100Y-151000D02*
X254300Y-149400D01*
X255900D01*
X255100Y-151000D01*
X245800Y-185000D02*
X245000Y-183400D01*
X246600D01*
X245800Y-185000D01*
X238600Y-183500D02*
X237800Y-181900D01*
X239400D01*
X238600Y-183500D01*
X232800Y-165000D02*
X232000Y-163400D01*
X233600D01*
X232800Y-165000D01*
X292100Y-137300D02*
X291300Y-135700D01*
X292900D01*
X292100Y-137300D01*
X270900Y-110800D02*
X270100Y-109200D01*
X271700D01*
X270900Y-110800D01*
X309600Y-124500D02*
X308800Y-122900D01*
X310400D01*
X309600Y-124500D01*
X293700Y-128900D02*
X292900Y-127300D01*
X294500D01*
X293700Y-128900D01*
X284500Y-119100D02*
X283700Y-117500D01*
X285300D01*
X284500Y-119100D01*
X293800Y-109900D02*
X293000Y-108300D01*
X294600D01*
X293800Y-109900D01*
X302900Y-118800D02*
X302100Y-117200D01*
X303700D01*
X302900Y-118800D01*
X307400Y-113600D02*
X306600Y-112000D01*
X308200D01*
X307400Y-113600D01*
X307600Y-135600D02*
X306800Y-134000D01*
X308400D01*
X307600Y-135600D01*
X275300Y-137500D02*
X274500Y-135900D01*
X276100D01*
X275300Y-137500D01*
X283700Y-126900D02*
X282900Y-125300D01*
X284500D01*
X283700Y-126900D01*
X275300Y-116900D02*
X274500Y-115300D01*
X276100D01*
X275300Y-116900D01*
X264400D02*
X263600Y-115300D01*
X265200D01*
X264400Y-116900D01*
X262100Y-137300D02*
X261300Y-135700D01*
X262900D01*
X262100Y-137300D01*
X254800Y-127100D02*
X254000Y-125500D01*
X255600D01*
X254800Y-127100D01*
X257450Y-143550D02*
X256650Y-141950D01*
X258250D01*
X257450Y-143550D01*
X301700Y-62700D02*
X300900Y-61100D01*
X302500D01*
X301700Y-62700D01*
X285500Y-62800D02*
X284700Y-61200D01*
X286300D01*
X285500Y-62800D01*
X300400Y-75600D02*
X299600Y-74000D01*
X301200D01*
X300400Y-75600D01*
X310000Y-64900D02*
X309200Y-63300D01*
X310800D01*
X310000Y-64900D01*
X310100Y-57100D02*
X309300Y-55500D01*
X310900D01*
X310100Y-57100D01*
X303400Y-54100D02*
X302600Y-52500D01*
X304200D01*
X303400Y-54100D01*
X293800Y-44200D02*
X293000Y-42600D01*
X294600D01*
X293800Y-44200D01*
Y-63300D02*
X293000Y-61700D01*
X294600D01*
X293800Y-63300D01*
X282700Y-74000D02*
X281900Y-72400D01*
X283500D01*
X282700Y-74000D01*
X268800Y-66900D02*
X268000Y-65300D01*
X269600D01*
X268800Y-66900D01*
X275500Y-85900D02*
X274700Y-84300D01*
X276300D01*
X275500Y-85900D01*
X262000Y-86000D02*
X261200Y-84400D01*
X262800D01*
X262000Y-86000D01*
X254900Y-74100D02*
X254100Y-72500D01*
X255700D01*
X254900Y-74100D01*
X120500Y-44100D02*
X119700Y-42500D01*
X121300D01*
X120500Y-44100D01*
Y-43700D02*
X120100Y-42900D01*
X120900D01*
X120500Y-43700D01*
X56900Y-32900D02*
X56100Y-31300D01*
X57700D01*
X56900Y-32900D01*
Y-32500D02*
X56500Y-31700D01*
X57300D01*
X56900Y-32500D01*
X-36000Y-36000D02*
X-36800Y-34400D01*
X-35200D01*
X-36000Y-36000D01*
X57025Y-38475D02*
X56225Y-36875D01*
X57825D01*
X57025Y-38475D01*
Y-38075D02*
X56625Y-37275D01*
X57425D01*
X57025Y-38075D01*
X108925Y-44175D02*
X108125Y-42575D01*
X109725D01*
X108925Y-44175D01*
Y-43775D02*
X108525Y-42975D01*
X109325D01*
X108925Y-43775D01*
X114400Y-44200D02*
X113600Y-42600D01*
X115200D01*
X114400Y-44200D01*
Y-43800D02*
X114000Y-43000D01*
X114800D01*
X114400Y-43800D01*
X208900Y-233700D02*
X208100Y-232100D01*
X209700D01*
X208900Y-233700D01*
X-64000Y-189500D02*
X-64800Y-187900D01*
X-63200D01*
X-64000Y-189500D01*
Y-189100D02*
X-64400Y-188300D01*
X-63600D01*
X-64000Y-189100D01*
X71600Y-148600D02*
X70800Y-147000D01*
X72400D01*
X71600Y-148600D01*
Y-148200D02*
X71200Y-147400D01*
X72000D01*
X71600Y-148200D01*
X-8300Y-162300D02*
X-9100Y-160700D01*
X-7500D01*
X-8300Y-162300D01*
Y-161900D02*
X-8700Y-161100D01*
X-7900D01*
X-8300Y-161900D01*
X-23700Y-157500D02*
X-24500Y-155900D01*
X-22900D01*
X-23700Y-157500D01*
Y-157100D02*
X-24100Y-156300D01*
X-23300D01*
X-23700Y-157100D01*
X148000Y-152000D02*
X147200Y-150400D01*
X148800D01*
X148000Y-152000D01*
Y-151600D02*
X147600Y-150800D01*
X148400D01*
X148000Y-151600D01*
X7500Y-198200D02*
X6700Y-196600D01*
X8300D01*
X7500Y-198200D01*
Y-197800D02*
X7100Y-197000D01*
X7900D01*
X7500Y-197800D01*
X56700Y-195600D02*
X55900Y-194000D01*
X57500D01*
X56700Y-195600D01*
Y-195200D02*
X56300Y-194400D01*
X57100D01*
X56700Y-195200D01*
X36300Y-197100D02*
X35500Y-195500D01*
X37100D01*
X36300Y-197100D01*
Y-196700D02*
X35900Y-195900D01*
X36700D01*
X36300Y-196700D01*
X33800Y-197100D02*
X33000Y-195500D01*
X34600D01*
X33800Y-197100D01*
Y-196700D02*
X33400Y-195900D01*
X34200D01*
X33800Y-196700D01*
X-9100Y-197200D02*
X-9900Y-195600D01*
X-8300D01*
X-9100Y-197200D01*
Y-196800D02*
X-9500Y-196000D01*
X-8700D01*
X-9100Y-196800D01*
X-12200Y-197100D02*
X-13000Y-195500D01*
X-11400D01*
X-12200Y-197100D01*
Y-196700D02*
X-12600Y-195900D01*
X-11800D01*
X-12200Y-196700D01*
X-29075Y-198475D02*
X-29875Y-196875D01*
X-28275D01*
X-29075Y-198475D01*
Y-198075D02*
X-29475Y-197275D01*
X-28675D01*
X-29075Y-198075D01*
X-39500Y-206100D02*
X-40300Y-204500D01*
X-38700D01*
X-39500Y-206100D01*
Y-205700D02*
X-39900Y-204900D01*
X-39100D01*
X-39500Y-205700D01*
X-33800Y-207900D02*
X-34600Y-206300D01*
X-33000D01*
X-33800Y-207900D01*
Y-207500D02*
X-34200Y-206700D01*
X-33400D01*
X-33800Y-207500D01*
X-23675Y-198475D02*
X-24475Y-196875D01*
X-22875D01*
X-23675Y-198475D01*
Y-198075D02*
X-24075Y-197275D01*
X-23275D01*
X-23675Y-198075D01*
X-8900Y-206300D02*
X-9700Y-204700D01*
X-8100D01*
X-8900Y-206300D01*
Y-205900D02*
X-9300Y-205100D01*
X-8500D01*
X-8900Y-205900D01*
X-16775Y-200875D02*
X-17575Y-199275D01*
X-15975D01*
X-16775Y-200875D01*
Y-200475D02*
X-17175Y-199675D01*
X-16375D01*
X-16775Y-200475D01*
X-18275Y-198375D02*
X-19075Y-196775D01*
X-17475D01*
X-18275Y-198375D01*
Y-197975D02*
X-18675Y-197175D01*
X-17875D01*
X-18275Y-197975D01*
X-54900Y-204600D02*
X-55700Y-203000D01*
X-54100D01*
X-54900Y-204600D01*
Y-204200D02*
X-55300Y-203400D01*
X-54500D01*
X-54900Y-204200D01*
X-57700Y-204600D02*
X-58500Y-203000D01*
X-56900D01*
X-57700Y-204600D01*
Y-204200D02*
X-58100Y-203400D01*
X-57300D01*
X-57700Y-204200D01*
X-35000Y-196100D02*
X-35800Y-194500D01*
X-34200D01*
X-35000Y-196100D01*
Y-195700D02*
X-35400Y-194900D01*
X-34600D01*
X-35000Y-195700D01*
X-38300Y-194500D02*
X-39100Y-192900D01*
X-37500D01*
X-38300Y-194500D01*
Y-194100D02*
X-38700Y-193300D01*
X-37900D01*
X-38300Y-194100D01*
X50300Y-205900D02*
X49500Y-204300D01*
X51100D01*
X50300Y-205900D01*
Y-205500D02*
X49900Y-204700D01*
X50700D01*
X50300Y-205500D01*
X12725Y-193275D02*
X11925Y-191675D01*
X13525D01*
X12725Y-193275D01*
Y-192875D02*
X12325Y-192075D01*
X13125D01*
X12725Y-192875D01*
X54100Y-215900D02*
X53300Y-214300D01*
X54900D01*
X54100Y-215900D01*
Y-215500D02*
X53700Y-214700D01*
X54500D01*
X54100Y-215500D01*
X21500Y-206400D02*
X20700Y-204800D01*
X22300D01*
X21500Y-206400D01*
Y-206000D02*
X21100Y-205200D01*
X21900D01*
X21500Y-206000D01*
X63300Y-204300D02*
X62500Y-202700D01*
X64100D01*
X63300Y-204300D01*
Y-203900D02*
X62900Y-203100D01*
X63700D01*
X63300Y-203900D01*
X65100Y-201000D02*
X64300Y-199400D01*
X65900D01*
X65100Y-201000D01*
Y-200600D02*
X64700Y-199800D01*
X65500D01*
X65100Y-200600D01*
X96500Y-182700D02*
X95700Y-181100D01*
X97300D01*
X96500Y-182700D01*
Y-182300D02*
X96100Y-181500D01*
X96900D01*
X96500Y-182300D01*
X98800Y-182700D02*
X98000Y-181100D01*
X99600D01*
X98800Y-182700D01*
Y-182300D02*
X98400Y-181500D01*
X99200D01*
X98800Y-182300D01*
X142700Y-139700D02*
X141900Y-138100D01*
X143500D01*
X142700Y-139700D01*
X145500Y-144300D02*
X144700Y-142700D01*
X146300D01*
X145500Y-144300D01*
Y-143900D02*
X145100Y-143100D01*
X145900D01*
X145500Y-143900D01*
X113800Y-149500D02*
X113000Y-147900D01*
X114600D01*
X113800Y-149500D01*
Y-149100D02*
X113400Y-148300D01*
X114200D01*
X113800Y-149100D01*
X138800Y-215700D02*
X138000Y-214100D01*
X139600D01*
X138800Y-215700D01*
Y-215300D02*
X138400Y-214500D01*
X139200D01*
X138800Y-215300D01*
X163200Y-202300D02*
X162400Y-200700D01*
X164000D01*
X163200Y-202300D01*
Y-201900D02*
X162800Y-201100D01*
X163600D01*
X163200Y-201900D01*
X160600Y-202300D02*
X159800Y-200700D01*
X161400D01*
X160600Y-202300D01*
Y-201900D02*
X160200Y-201100D01*
X161000D01*
X160600Y-201900D01*
X146400Y-207500D02*
X145600Y-205900D01*
X147200D01*
X146400Y-207500D01*
Y-207100D02*
X146000Y-206300D01*
X146800D01*
X146400Y-207100D01*
X124300Y-209100D02*
X123500Y-207500D01*
X125100D01*
X124300Y-209100D01*
Y-208700D02*
X123900Y-207900D01*
X124700D01*
X124300Y-208700D01*
X147500Y-199600D02*
X146700Y-198000D01*
X148300D01*
X147500Y-199600D01*
Y-199200D02*
X147100Y-198400D01*
X147900D01*
X147500Y-199200D01*
X22093Y-140332D02*
X21293Y-138732D01*
X22893D01*
X22093Y-140332D01*
Y-139932D02*
X21693Y-139132D01*
X22493D01*
X22093Y-139932D01*
X20500Y-137400D02*
X19700Y-135800D01*
X21300D01*
X20500Y-137400D01*
Y-137000D02*
X20100Y-136200D01*
X20900D01*
X20500Y-137000D01*
X38900Y-140400D02*
X38100Y-138800D01*
X39700D01*
X38900Y-140400D01*
Y-140000D02*
X38500Y-139200D01*
X39300D01*
X38900Y-140000D01*
X40900Y-138500D02*
X40100Y-136900D01*
X41700D01*
X40900Y-138500D01*
Y-138100D02*
X40500Y-137300D01*
X41300D01*
X40900Y-138100D01*
X62328Y-154200D02*
X61528Y-152600D01*
X63128D01*
X62328Y-154200D01*
Y-153800D02*
X61928Y-153000D01*
X62728D01*
X62328Y-153800D01*
X44100D02*
X43300Y-152200D01*
X44900D01*
X44100Y-153800D01*
Y-153400D02*
X43700Y-152600D01*
X44500D01*
X44100Y-153400D01*
X23000Y-155500D02*
X22200Y-153900D01*
X23800D01*
X23000Y-155500D01*
Y-155100D02*
X22600Y-154300D01*
X23400D01*
X23000Y-155100D01*
X31400Y-162300D02*
X30600Y-160700D01*
X32200D01*
X31400Y-162300D01*
Y-161900D02*
X31000Y-161100D01*
X31800D01*
X31400Y-161900D01*
X36400Y-161400D02*
X35600Y-159800D01*
X37200D01*
X36400Y-161400D01*
Y-161000D02*
X36000Y-160200D01*
X36800D01*
X36400Y-161000D01*
X79000Y-173300D02*
X78200Y-171700D01*
X79800D01*
X79000Y-173300D01*
Y-172900D02*
X78600Y-172100D01*
X79400D01*
X79000Y-172900D01*
X-28275Y-152775D02*
X-29075Y-151175D01*
X-27475D01*
X-28275Y-152775D01*
Y-152375D02*
X-28675Y-151575D01*
X-27875D01*
X-28275Y-152375D01*
X94700Y-137300D02*
X93900Y-135700D01*
X95500D01*
X94700Y-137300D01*
Y-136900D02*
X94300Y-136100D01*
X95100D01*
X94700Y-136900D01*
X128100Y-143300D02*
X127300Y-141700D01*
X128900D01*
X128100Y-143300D01*
Y-142900D02*
X127700Y-142100D01*
X128500D01*
X128100Y-142900D01*
X118200Y-138600D02*
X117400Y-137000D01*
X119000D01*
X118200Y-138600D01*
Y-138200D02*
X117800Y-137400D01*
X118600D01*
X118200Y-138200D01*
X124900Y-138600D02*
X124100Y-137000D01*
X125700D01*
X124900Y-138600D01*
Y-138200D02*
X124500Y-137400D01*
X125300D01*
X124900Y-138200D01*
X129500Y-138400D02*
X128700Y-136800D01*
X130300D01*
X129500Y-138400D01*
Y-138000D02*
X129100Y-137200D01*
X129900D01*
X129500Y-138000D01*
X109625Y-152853D02*
X108825Y-151253D01*
X110425D01*
X109625Y-152853D01*
Y-152453D02*
X109225Y-151653D01*
X110025D01*
X109625Y-152453D01*
X107742Y-157685D02*
X106942Y-156085D01*
X108542D01*
X107742Y-157685D01*
Y-157285D02*
X107342Y-156485D01*
X108142D01*
X107742Y-157285D01*
X90419Y-157685D02*
X89619Y-156085D01*
X91219D01*
X90419Y-157685D01*
Y-157285D02*
X90019Y-156485D01*
X90819D01*
X90419Y-157285D01*
X158900Y-154800D02*
X158100Y-153200D01*
X159700D01*
X158900Y-154800D01*
Y-154400D02*
X158500Y-153600D01*
X159300D01*
X158900Y-154400D01*
X166100Y-159200D02*
X165300Y-157600D01*
X166900D01*
X166100Y-159200D01*
Y-158800D02*
X165700Y-158000D01*
X166500D01*
X166100Y-158800D01*
X108600Y-175000D02*
X107800Y-173400D01*
X109400D01*
X108600Y-175000D01*
Y-174600D02*
X108200Y-173800D01*
X109000D01*
X108600Y-174600D01*
X150900Y-198100D02*
X150100Y-196500D01*
X151700D01*
X150900Y-198100D01*
Y-197700D02*
X150500Y-196900D01*
X151300D01*
X150900Y-197700D01*
X150138Y-192000D02*
X149338Y-190400D01*
X150938D01*
X150138Y-192000D01*
Y-191600D02*
X149738Y-190800D01*
X150538D01*
X150138Y-191600D01*
X56700Y-198100D02*
X55900Y-196500D01*
X57500D01*
X56700Y-198100D01*
Y-197700D02*
X56300Y-196900D01*
X57100D01*
X56700Y-197700D01*
X-62900Y-130600D02*
X-63700Y-129000D01*
X-62100D01*
X-62900Y-130600D01*
Y-130200D02*
X-63300Y-129400D01*
X-62500D01*
X-62900Y-130200D01*
X85600Y-126100D02*
X84800Y-124500D01*
X86400D01*
X85600Y-126100D01*
X104300Y-137300D02*
X103500Y-135700D01*
X105100D01*
X104300Y-137300D01*
Y-136900D02*
X103900Y-136100D01*
X104700D01*
X104300Y-136900D01*
X107900Y-137000D02*
X107100Y-135400D01*
X108700D01*
X107900Y-137000D01*
Y-136600D02*
X107500Y-135800D01*
X108300D01*
X107900Y-136600D01*
X111200Y-133800D02*
X110400Y-132200D01*
X112000D01*
X111200Y-133800D01*
Y-133400D02*
X110800Y-132600D01*
X111600D01*
X111200Y-133400D01*
X131200Y-192000D02*
X130400Y-190400D01*
X132000D01*
X131200Y-192000D01*
Y-191600D02*
X130800Y-190800D01*
X131600D01*
X131200Y-191600D01*
X131247Y-168747D02*
X130447Y-167147D01*
X132047D01*
X131247Y-168747D01*
Y-168347D02*
X130847Y-167547D01*
X131647D01*
X131247Y-168347D01*
X155700Y-173150D02*
X154900Y-171550D01*
X156500D01*
X155700Y-173150D01*
Y-172750D02*
X155300Y-171950D01*
X156100D01*
X155700Y-172750D01*
X153800Y-179791D02*
X153000Y-178191D01*
X154600D01*
X153800Y-179791D01*
Y-179391D02*
X153400Y-178591D01*
X154200D01*
X153800Y-179391D01*
X59300Y-173050D02*
X58500Y-171450D01*
X60100D01*
X59300Y-173050D01*
Y-172650D02*
X58900Y-171850D01*
X59700D01*
X59300Y-172650D01*
X106700Y-128900D02*
X105900Y-127300D01*
X107500D01*
X106700Y-128900D01*
Y-128500D02*
X106300Y-127700D01*
X107100D01*
X106700Y-128500D01*
X-18500Y-185300D02*
X-19300Y-183700D01*
X-17700D01*
X-18500Y-185300D01*
Y-184900D02*
X-18900Y-184100D01*
X-18100D01*
X-18500Y-184900D01*
Y-188300D02*
X-19300Y-186700D01*
X-17700D01*
X-18500Y-188300D01*
Y-187900D02*
X-18900Y-187100D01*
X-18100D01*
X-18500Y-187900D01*
Y-191300D02*
X-19300Y-189700D01*
X-17700D01*
X-18500Y-191300D01*
Y-190900D02*
X-18900Y-190100D01*
X-18100D01*
X-18500Y-190900D01*
X-30300Y-169500D02*
X-31100Y-167900D01*
X-29500D01*
X-30300Y-169500D01*
Y-169100D02*
X-30700Y-168300D01*
X-29900D01*
X-30300Y-169100D01*
X14600Y-173250D02*
X13800Y-171650D01*
X15400D01*
X14600Y-173250D01*
Y-172850D02*
X14200Y-172050D01*
X15000D01*
X14600Y-172850D01*
X1100Y-156400D02*
X300Y-154800D01*
X1900D01*
X1100Y-156400D01*
Y-156000D02*
X700Y-155200D01*
X1500D01*
X1100Y-156000D01*
X12600Y-179700D02*
X11800Y-178100D01*
X13400D01*
X12600Y-179700D01*
Y-179300D02*
X12200Y-178500D01*
X13000D01*
X12600Y-179300D01*
X26800Y-189900D02*
X26000Y-188300D01*
X27600D01*
X26800Y-189900D01*
Y-189500D02*
X26400Y-188700D01*
X27200D01*
X26800Y-189500D01*
X34800Y-191800D02*
X34000Y-190200D01*
X35600D01*
X34800Y-191800D01*
Y-191400D02*
X34400Y-190600D01*
X35200D01*
X34800Y-191400D01*
X-32400Y-191200D02*
X-33200Y-189600D01*
X-31600D01*
X-32400Y-191200D01*
Y-190800D02*
X-32800Y-190000D01*
X-32000D01*
X-32400Y-190800D01*
X11500Y-155000D02*
X10700Y-153400D01*
X12300D01*
X11500Y-155000D01*
Y-154600D02*
X11100Y-153800D01*
X11900D01*
X11500Y-154600D01*
X-38700Y-151600D02*
X-39500Y-150000D01*
X-37900D01*
X-38700Y-151600D01*
Y-151200D02*
X-39100Y-150400D01*
X-38300D01*
X-38700Y-151200D01*
X-32491Y-176191D02*
X-33291Y-174591D01*
X-31691D01*
X-32491Y-176191D01*
Y-175791D02*
X-32891Y-174991D01*
X-32091D01*
X-32491Y-175791D01*
X-65300Y-180700D02*
X-66100Y-179100D01*
X-64500D01*
X-65300Y-180700D01*
Y-180300D02*
X-65700Y-179500D01*
X-64900D01*
X-65300Y-180300D01*
X7500Y-195600D02*
X6700Y-194000D01*
X8300D01*
X7500Y-195600D01*
Y-195200D02*
X7100Y-194400D01*
X7900D01*
X7500Y-195200D01*
X-10100Y-192000D02*
X-10900Y-190400D01*
X-9300D01*
X-10100Y-192000D01*
Y-191600D02*
X-10500Y-190800D01*
X-9700D01*
X-10100Y-191600D01*
X-61800Y-197100D02*
X-62600Y-195500D01*
X-61000D01*
X-61800Y-197100D01*
Y-196700D02*
X-62200Y-195900D01*
X-61400D01*
X-61800Y-196700D01*
X-64000Y-197100D02*
X-64800Y-195500D01*
X-63200D01*
X-64000Y-197100D01*
Y-196700D02*
X-64400Y-195900D01*
X-63600D01*
X-64000Y-196700D01*
X-54400Y-160300D02*
X-55200Y-158700D01*
X-53600D01*
X-54400Y-160300D01*
Y-159900D02*
X-54800Y-159100D01*
X-54000D01*
X-54400Y-159900D01*
X-44800Y-155200D02*
X-45600Y-153600D01*
X-44000D01*
X-44800Y-155200D01*
Y-154800D02*
X-45200Y-154000D01*
X-44400D01*
X-44800Y-154800D01*
X-42600Y-155200D02*
X-43400Y-153600D01*
X-41800D01*
X-42600Y-155200D01*
Y-154800D02*
X-43000Y-154000D01*
X-42200D01*
X-42600Y-154800D01*
X8213Y-86326D02*
X7413Y-84726D01*
X9013D01*
X8213Y-86326D01*
X214728Y-67730D02*
X213928Y-66130D01*
X215528D01*
X214728Y-67730D01*
X269700Y-26900D02*
X268900Y-25300D01*
X270500D01*
X269700Y-26900D01*
X252550Y-27000D02*
X251750Y-25400D01*
X253350D01*
X252550Y-27000D01*
X143900Y-207500D02*
X143100Y-205900D01*
X144700D01*
X143900Y-207500D01*
Y-207100D02*
X143500Y-206300D01*
X144300D01*
X143900Y-207100D01*
X126900Y-209100D02*
X126100Y-207500D01*
X127700D01*
X126900Y-209100D01*
Y-208700D02*
X126500Y-207900D01*
X127300D01*
X126900Y-208700D01*
X4700Y-53200D02*
X3900Y-51600D01*
X5500D01*
X4700Y-53200D01*
X-29800Y-48500D02*
X-30600Y-46900D01*
X-29000D01*
X-29800Y-48500D01*
X208625Y-214326D02*
X207825Y-212726D01*
X209425D01*
X208625Y-214326D01*
X237495Y-72983D02*
X236695Y-71384D01*
X238295D01*
X237495Y-72983D01*
X230802D02*
X230002Y-71384D01*
X231602D01*
X230802Y-72983D01*
Y-69046D02*
X230002Y-67447D01*
X231602D01*
X230802Y-69046D01*
X240251Y-75346D02*
X239451Y-73746D01*
X241051D01*
X240251Y-75346D01*
X247338Y-72983D02*
X246538Y-71384D01*
X248138D01*
X247338Y-72983D01*
X244976Y-75346D02*
X244176Y-73746D01*
X245776D01*
X244976Y-75346D01*
X242613Y-72983D02*
X241813Y-71384D01*
X243413D01*
X242613Y-72983D01*
X222700Y-194200D02*
X221900Y-192600D01*
X223500D01*
X222700Y-194200D01*
Y-199200D02*
X221900Y-197600D01*
X223500D01*
X222700Y-199200D01*
X11102Y-49068D02*
X10302Y-47468D01*
X11902D01*
X11102Y-49068D01*
X-10500Y-106800D02*
X-11300Y-105200D01*
X-9700D01*
X-10500Y-106800D01*
X-15300Y-88900D02*
X-16100Y-87300D01*
X-14500D01*
X-15300Y-88900D01*
X13760Y-46312D02*
X12960Y-44712D01*
X14560D01*
X13760Y-46312D01*
X91525Y-152575D02*
X90725Y-150975D01*
X92325D01*
X91525Y-152575D01*
Y-152175D02*
X91125Y-151375D01*
X91925D01*
X91525Y-152175D01*
X108529Y-170283D02*
X107729Y-168684D01*
X109329D01*
X108529Y-170283D01*
Y-169884D02*
X108129Y-169083D01*
X108929D01*
X108529Y-169884D01*
X24770Y-56084D02*
X23970Y-54484D01*
X25570D01*
X24770Y-56084D01*
X90517Y-162803D02*
X89717Y-161203D01*
X91317D01*
X90517Y-162803D01*
Y-162403D02*
X90117Y-161603D01*
X90917D01*
X90517Y-162403D01*
X10413Y-116686D02*
X9613Y-115086D01*
X11213D01*
X10413Y-116686D01*
Y-120524D02*
X9613Y-118924D01*
X11213D01*
X10413Y-120524D01*
X-24781Y-36294D02*
X-25581Y-34694D01*
X-23981D01*
X-24781Y-36294D01*
X-10300Y-62500D02*
X-11100Y-60900D01*
X-9500D01*
X-10300Y-62500D01*
X21240Y-68753D02*
X20440Y-67153D01*
X22040D01*
X21240Y-68753D01*
X137900Y-64600D02*
X137100Y-63000D01*
X138700D01*
X137900Y-64600D01*
X97998Y-163492D02*
X97198Y-161892D01*
X98798D01*
X97998Y-163492D01*
Y-163092D02*
X97598Y-162292D01*
X98398D01*
X97998Y-163092D01*
X109710Y-162803D02*
X108910Y-161203D01*
X110510D01*
X109710Y-162803D01*
Y-162403D02*
X109310Y-161603D01*
X110110D01*
X109710Y-162403D01*
X97998Y-152567D02*
X97198Y-150967D01*
X98798D01*
X97998Y-152567D01*
Y-152167D02*
X97598Y-151367D01*
X98398D01*
X97998Y-152167D01*
X37399Y-92886D02*
X36599Y-91286D01*
X38199D01*
X37399Y-92886D01*
X52900Y-79100D02*
X52100Y-77500D01*
X53700D01*
X52900Y-79100D01*
X95000Y-126100D02*
X94200Y-124500D01*
X95800D01*
X95000Y-126100D01*
X139125Y-73875D02*
X138325Y-72275D01*
X139925D01*
X139125Y-73875D01*
X138100Y-69700D02*
X137300Y-68100D01*
X138900D01*
X138100Y-69700D01*
X244000Y-96300D02*
X243200Y-94700D01*
X244800D01*
X244000Y-96300D01*
X4400Y-86400D02*
X3600Y-84800D01*
X5200D01*
X4400Y-86400D01*
X10225Y-103375D02*
X9425Y-101775D01*
X11025D01*
X10225Y-103375D01*
X10216Y-99461D02*
X9416Y-97861D01*
X11016D01*
X10216Y-99461D01*
X-20000Y-76500D02*
X-20800Y-74900D01*
X-19200D01*
X-20000Y-76500D01*
X-22800Y-69300D02*
X-23600Y-67700D01*
X-22000D01*
X-22800Y-69300D01*
X122300Y-219200D02*
X121500Y-217600D01*
X123100D01*
X122300Y-219200D01*
Y-218800D02*
X121900Y-218000D01*
X122700D01*
X122300Y-218800D01*
X228600Y-53200D02*
X227800Y-51600D01*
X229400D01*
X228600Y-53200D01*
X-10400Y-80900D02*
X-11200Y-79300D01*
X-9600D01*
X-10400Y-80900D01*
X-63700Y-115500D02*
X-64500Y-113900D01*
X-62900D01*
X-63700Y-115500D01*
X-54400Y-158100D02*
X-55200Y-156500D01*
X-53600D01*
X-54400Y-158100D01*
Y-157700D02*
X-54800Y-156900D01*
X-54000D01*
X-54400Y-157700D01*
X-54700Y-165300D02*
X-55500Y-163700D01*
X-53900D01*
X-54700Y-165300D01*
Y-164900D02*
X-55100Y-164100D01*
X-54300D01*
X-54700Y-164900D01*
X-36000Y-188300D02*
X-36800Y-186700D01*
X-35200D01*
X-36000Y-188300D01*
Y-187900D02*
X-36400Y-187100D01*
X-35600D01*
X-36000Y-187900D01*
X47400Y-158400D02*
X46600Y-156800D01*
X48200D01*
X47400Y-158400D01*
Y-158000D02*
X47000Y-157200D01*
X47800D01*
X47400Y-158000D01*
X46100Y-156400D02*
X45300Y-154800D01*
X46900D01*
X46100Y-156400D01*
Y-156000D02*
X45700Y-155200D01*
X46500D01*
X46100Y-156000D01*
X138200Y-135700D02*
X137400Y-134100D01*
X139000D01*
X138200Y-135700D01*
Y-135300D02*
X137800Y-134500D01*
X138600D01*
X138200Y-135300D01*
X147900Y-154400D02*
X147100Y-152800D01*
X148700D01*
X147900Y-154400D01*
Y-154000D02*
X147500Y-153200D01*
X148300D01*
X147900Y-154000D01*
X153100Y-152000D02*
X152300Y-150400D01*
X153900D01*
X153100Y-152000D01*
Y-151600D02*
X152700Y-150800D01*
X153500D01*
X153100Y-151600D01*
X67900Y-160100D02*
X67100Y-158500D01*
X68700D01*
X67900Y-160100D01*
Y-159700D02*
X67500Y-158900D01*
X68300D01*
X67900Y-159700D01*
X59700Y-155900D02*
X58900Y-154300D01*
X60500D01*
X59700Y-155900D01*
Y-155500D02*
X59300Y-154700D01*
X60100D01*
X59700Y-155500D01*
X64600Y-154200D02*
X63800Y-152600D01*
X65400D01*
X64600Y-154200D01*
Y-153800D02*
X64200Y-153000D01*
X65000D01*
X64600Y-153800D01*
X61100Y-128300D02*
X60300Y-126700D01*
X61900D01*
X61100Y-128300D01*
Y-127900D02*
X60700Y-127100D01*
X61500D01*
X61100Y-127900D01*
X49700Y-140100D02*
X48900Y-138500D01*
X50500D01*
X49700Y-140100D01*
Y-139700D02*
X49300Y-138900D01*
X50100D01*
X49700Y-139700D01*
X22400Y-188000D02*
X21600Y-186400D01*
X23200D01*
X22400Y-188000D01*
Y-187600D02*
X22000Y-186800D01*
X22800D01*
X22400Y-187600D01*
X22800Y-192700D02*
X22000Y-191100D01*
X23600D01*
X22800Y-192700D01*
Y-192300D02*
X22400Y-191500D01*
X23200D01*
X22800Y-192300D01*
X41331Y-121331D02*
X40531Y-119731D01*
X42131D01*
X41331Y-121331D01*
X121300Y-143400D02*
X120500Y-141800D01*
X122100D01*
X121300Y-143400D01*
Y-143000D02*
X120900Y-142200D01*
X121700D01*
X121300Y-143000D01*
X27800Y-144000D02*
X27000Y-142400D01*
X28600D01*
X27800Y-144000D01*
Y-143600D02*
X27400Y-142800D01*
X28200D01*
X27800Y-143600D01*
X31600Y-144100D02*
X30800Y-142500D01*
X32400D01*
X31600Y-144100D01*
Y-143700D02*
X31200Y-142900D01*
X32000D01*
X31600Y-143700D01*
X24000Y-144000D02*
X23200Y-142400D01*
X24800D01*
X24000Y-144000D01*
Y-143600D02*
X23600Y-142800D01*
X24400D01*
X24000Y-143600D01*
X-8300Y-164800D02*
X-9100Y-163200D01*
X-7500D01*
X-8300Y-164800D01*
Y-164400D02*
X-8700Y-163600D01*
X-7900D01*
X-8300Y-164400D01*
X-13075Y-148975D02*
X-13875Y-147375D01*
X-12275D01*
X-13075Y-148975D01*
Y-148575D02*
X-13475Y-147775D01*
X-12675D01*
X-13075Y-148575D01*
X-37900Y-149300D02*
X-38700Y-147700D01*
X-37100D01*
X-37900Y-149300D01*
Y-148900D02*
X-38300Y-148100D01*
X-37500D01*
X-37900Y-148900D01*
X-33175Y-152175D02*
X-33975Y-150575D01*
X-32375D01*
X-33175Y-152175D01*
Y-151775D02*
X-33575Y-150975D01*
X-32775D01*
X-33175Y-151775D01*
Y-149875D02*
X-33975Y-148275D01*
X-32375D01*
X-33175Y-149875D01*
Y-149475D02*
X-33575Y-148675D01*
X-32775D01*
X-33175Y-149475D01*
X56100Y-123200D02*
X55300Y-121600D01*
X56900D01*
X56100Y-123200D01*
Y-122800D02*
X55700Y-122000D01*
X56500D01*
X56100Y-122800D01*
X-30900Y-131300D02*
X-31700Y-129700D01*
X-30100D01*
X-30900Y-131300D01*
Y-130900D02*
X-31300Y-130100D01*
X-30500D01*
X-30900Y-130900D01*
X-25400Y-132900D02*
X-26200Y-131300D01*
X-24600D01*
X-25400Y-132900D01*
Y-132500D02*
X-25800Y-131700D01*
X-25000D01*
X-25400Y-132500D01*
X-15575Y-147275D02*
X-16375Y-145675D01*
X-14775D01*
X-15575Y-147275D01*
Y-146875D02*
X-15975Y-146075D01*
X-15175D01*
X-15575Y-146875D01*
X-18475Y-146275D02*
X-19275Y-144675D01*
X-17675D01*
X-18475Y-146275D01*
Y-145875D02*
X-18875Y-145075D01*
X-18075D01*
X-18475Y-145875D01*
X-2900Y-135700D02*
X-3700Y-134100D01*
X-2100D01*
X-2900Y-135700D01*
Y-135300D02*
X-3300Y-134500D01*
X-2500D01*
X-2900Y-135300D01*
X6600Y-152600D02*
X5800Y-151000D01*
X7400D01*
X6600Y-152600D01*
Y-152200D02*
X6200Y-151400D01*
X7000D01*
X6600Y-152200D01*
X15800Y-147400D02*
X15000Y-145800D01*
X16600D01*
X15800Y-147400D01*
Y-147000D02*
X15400Y-146200D01*
X16200D01*
X15800Y-147000D01*
X-6500Y-139400D02*
X-7300Y-137800D01*
X-5700D01*
X-6500Y-139400D01*
Y-139000D02*
X-6900Y-138200D01*
X-6100D01*
X-6500Y-139000D01*
Y-136800D02*
X-7300Y-135200D01*
X-5700D01*
X-6500Y-136800D01*
Y-136400D02*
X-6900Y-135600D01*
X-6100D01*
X-6500Y-136400D01*
X3700Y-143800D02*
X2900Y-142200D01*
X4500D01*
X3700Y-143800D01*
Y-143400D02*
X3300Y-142600D01*
X4100D01*
X3700Y-143400D01*
X-9500Y-142500D02*
X-10300Y-140900D01*
X-8700D01*
X-9500Y-142500D01*
Y-142100D02*
X-9900Y-141300D01*
X-9100D01*
X-9500Y-142100D01*
X-18700Y-152100D02*
X-19500Y-150500D01*
X-17900D01*
X-18700Y-152100D01*
Y-151700D02*
X-19100Y-150900D01*
X-18300D01*
X-18700Y-151700D01*
X-10800Y-158300D02*
X-11600Y-156700D01*
X-10000D01*
X-10800Y-158300D01*
Y-157900D02*
X-11200Y-157100D01*
X-10400D01*
X-10800Y-157900D01*
X-47700Y-134800D02*
X-48500Y-133200D01*
X-46900D01*
X-47700Y-134800D01*
Y-134400D02*
X-48100Y-133600D01*
X-47300D01*
X-47700Y-134400D01*
X-50300Y-132600D02*
X-51100Y-131000D01*
X-49500D01*
X-50300Y-132600D01*
Y-132200D02*
X-50700Y-131400D01*
X-49900D01*
X-50300Y-132200D01*
X-58800Y-133300D02*
X-59600Y-131700D01*
X-58000D01*
X-58800Y-133300D01*
Y-132900D02*
X-59200Y-132100D01*
X-58400D01*
X-58800Y-132900D01*
X-55400Y-141000D02*
X-56200Y-139400D01*
X-54600D01*
X-55400Y-141000D01*
Y-140600D02*
X-55800Y-139800D01*
X-55000D01*
X-55400Y-140600D01*
X-33200Y-146800D02*
X-34000Y-145200D01*
X-32400D01*
X-33200Y-146800D01*
Y-146400D02*
X-33600Y-145600D01*
X-32800D01*
X-33200Y-146400D01*
X222700Y-189200D02*
X221900Y-187600D01*
X223500D01*
X222700Y-189200D01*
X255300Y-200700D02*
X254500Y-199100D01*
X256100D01*
X255300Y-200700D01*
X190900Y-233700D02*
X190100Y-232100D01*
X191700D01*
X190900Y-233700D01*
X181700D02*
X180900Y-232100D01*
X182500D01*
X181700Y-233700D01*
X190900Y-228500D02*
X190100Y-226900D01*
X191700D01*
X190900Y-228500D01*
X181700Y-228600D02*
X180900Y-227000D01*
X182500D01*
X181700Y-228600D01*
Y-223400D02*
X180900Y-221800D01*
X182500D01*
X181700Y-223400D01*
X190900D02*
X190100Y-221800D01*
X191700D01*
X190900Y-223400D01*
X185000Y-196600D02*
X184200Y-195000D01*
X185800D01*
X185000Y-196600D01*
X175800D02*
X175000Y-195000D01*
X176600D01*
X175800Y-196600D01*
X185000Y-191400D02*
X184200Y-189800D01*
X185800D01*
X185000Y-191400D01*
X175800D02*
X175000Y-189800D01*
X176600D01*
X175800Y-191400D01*
Y-186300D02*
X175000Y-184700D01*
X176600D01*
X175800Y-186300D01*
X185000D02*
X184200Y-184700D01*
X185800D01*
X185000Y-186300D01*
X225700Y-232400D02*
X224900Y-230800D01*
X226500D01*
X225700Y-232400D01*
Y-223900D02*
X224900Y-222300D01*
X226500D01*
X225700Y-223900D01*
X216400Y-234000D02*
X215600Y-232400D01*
X217200D01*
X216400Y-234000D01*
X221200D02*
X220400Y-232400D01*
X222000D01*
X221200Y-234000D01*
X225700Y-228200D02*
X224900Y-226600D01*
X226500D01*
X225700Y-228200D01*
X190900Y-213400D02*
X190100Y-211800D01*
X191700D01*
X190900Y-213400D01*
X181700D02*
X180900Y-211800D01*
X182500D01*
X181700Y-213400D01*
X190900Y-208200D02*
X190100Y-206600D01*
X191700D01*
X190900Y-208200D01*
X181700D02*
X180900Y-206600D01*
X182500D01*
X181700Y-208200D01*
Y-202928D02*
X180900Y-201328D01*
X182500D01*
X181700Y-202928D01*
X190900Y-202900D02*
X190100Y-201300D01*
X191700D01*
X190900Y-202900D01*
X250800Y-126754D02*
X250000Y-125154D01*
X251600D01*
X250800Y-126754D01*
X90600Y-138300D02*
X89800Y-136700D01*
X91400D01*
X90600Y-138300D01*
Y-137900D02*
X90200Y-137100D01*
X91000D01*
X90600Y-137900D01*
X147500Y-197400D02*
X146700Y-195800D01*
X148300D01*
X147500Y-197400D01*
Y-197000D02*
X147100Y-196200D01*
X147900D01*
X147500Y-197000D01*
X120900Y-204800D02*
X120100Y-203200D01*
X121700D01*
X120900Y-204800D01*
Y-204400D02*
X120500Y-203600D01*
X121300D01*
X120900Y-204400D01*
Y-202300D02*
X120100Y-200700D01*
X121700D01*
X120900Y-202300D01*
Y-201900D02*
X120500Y-201100D01*
X121300D01*
X120900Y-201900D01*
X132100Y-146400D02*
X131300Y-144800D01*
X132900D01*
X132100Y-146400D01*
Y-146000D02*
X131700Y-145200D01*
X132500D01*
X132100Y-146000D01*
X138100Y-141200D02*
X137300Y-139600D01*
X138900D01*
X138100Y-141200D01*
Y-140800D02*
X137700Y-140000D01*
X138500D01*
X138100Y-140800D01*
X143000Y-158500D02*
X142200Y-156900D01*
X143800D01*
X143000Y-158500D01*
Y-158100D02*
X142600Y-157300D01*
X143400D01*
X143000Y-158100D01*
X143800Y-156200D02*
X143000Y-154600D01*
X144600D01*
X143800Y-156200D01*
Y-155800D02*
X143400Y-155000D01*
X144200D01*
X143800Y-155800D01*
X153100Y-154500D02*
X152300Y-152900D01*
X153900D01*
X153100Y-154500D01*
Y-154100D02*
X152700Y-153300D01*
X153500D01*
X153100Y-154100D01*
X115800Y-178600D02*
X115000Y-177000D01*
X116600D01*
X115800Y-178600D01*
Y-178200D02*
X115400Y-177400D01*
X116200D01*
X115800Y-178200D01*
X115900Y-167400D02*
X115100Y-165800D01*
X116700D01*
X115900Y-167400D01*
Y-167000D02*
X115500Y-166200D01*
X116300D01*
X115900Y-167000D01*
X128600Y-192000D02*
X127800Y-190400D01*
X129400D01*
X128600Y-192000D01*
Y-191600D02*
X128200Y-190800D01*
X129000D01*
X128600Y-191600D01*
X164100Y-197300D02*
X163300Y-195700D01*
X164900D01*
X164100Y-197300D01*
Y-196900D02*
X163700Y-196100D01*
X164500D01*
X164100Y-196900D01*
X71200Y-172800D02*
X70400Y-171200D01*
X72000D01*
X71200Y-172800D01*
Y-172400D02*
X70800Y-171600D01*
X71600D01*
X71200Y-172400D01*
X72600Y-157100D02*
X71800Y-155500D01*
X73400D01*
X72600Y-157100D01*
Y-156700D02*
X72200Y-155900D01*
X73000D01*
X72600Y-156700D01*
X169700Y-151100D02*
X168900Y-149500D01*
X170500D01*
X169700Y-151100D01*
Y-150700D02*
X169300Y-149900D01*
X170100D01*
X169700Y-150700D01*
X152300Y-205300D02*
X151500Y-203700D01*
X153100D01*
X152300Y-205300D01*
Y-204900D02*
X151900Y-204100D01*
X152700D01*
X152300Y-204900D01*
X166500Y-211000D02*
X165700Y-209400D01*
X167300D01*
X166500Y-211000D01*
Y-210600D02*
X166100Y-209800D01*
X166900D01*
X166500Y-210600D01*
X293700Y-31200D02*
X292900Y-29600D01*
X294500D01*
X293700Y-31200D01*
X284700Y-21400D02*
X283900Y-19800D01*
X285500D01*
X284700Y-21400D01*
X284600Y-86300D02*
X283800Y-84700D01*
X285400D01*
X284600Y-86300D01*
X293700Y-95600D02*
X292900Y-94000D01*
X294500D01*
X293700Y-95600D01*
X302800Y-86400D02*
X302000Y-84800D01*
X303600D01*
X302800Y-86400D01*
X303400Y-151200D02*
X302600Y-149600D01*
X304200D01*
X303400Y-151200D01*
X293800Y-142600D02*
X293000Y-141000D01*
X294600D01*
X293800Y-142600D01*
X284400Y-150100D02*
X283600Y-148500D01*
X285200D01*
X284400Y-150100D01*
X189100Y-176100D02*
X188300Y-174500D01*
X189900D01*
X189100Y-176100D01*
X185300Y-176000D02*
X184500Y-174400D01*
X186100D01*
X185300Y-176000D01*
X191500Y-189100D02*
X190700Y-187500D01*
X192300D01*
X191500Y-189100D01*
X245100Y-191300D02*
X244300Y-189700D01*
X245900D01*
X245100Y-191300D01*
X331425Y-65575D02*
X330625Y-63975D01*
X332225D01*
X331425Y-65575D01*
X330000Y-36700D02*
X329200Y-35100D01*
X330800D01*
X330000Y-36700D01*
X84100Y-186200D02*
X83300Y-184600D01*
X84900D01*
X84100Y-186200D01*
Y-185800D02*
X83700Y-185000D01*
X84500D01*
X84100Y-185800D01*
X178600Y-132700D02*
X177800Y-131100D01*
X179400D01*
X178600Y-132700D01*
X230802Y-65109D02*
X230002Y-63510D01*
X231602D01*
X230802Y-65109D01*
X47900Y-98900D02*
X47100Y-97300D01*
X48700D01*
X47900Y-98900D01*
X129600Y-109100D02*
X128800Y-107500D01*
X130400D01*
X129600Y-109100D01*
X101025Y-46375D02*
X100225Y-44775D01*
X101825D01*
X101025Y-46375D01*
X145600Y-128400D02*
X144800Y-126800D01*
X146400D01*
X145600Y-128400D01*
X133525Y-115975D02*
X132725Y-114375D01*
X134325D01*
X133525Y-115975D01*
X131225Y-104675D02*
X130425Y-103075D01*
X132025D01*
X131225Y-104675D01*
X153800Y-64600D02*
X153000Y-63000D01*
X154600D01*
X153800Y-64600D01*
X233900Y-96300D02*
X233100Y-94700D01*
X234700D01*
X233900Y-96300D01*
X238900D02*
X238100Y-94700D01*
X239700D01*
X238900Y-96300D01*
X146900Y-77600D02*
X146100Y-76000D01*
X147700D01*
X146900Y-77600D01*
X150300Y-114400D02*
X149500Y-112800D01*
X151100D01*
X150300Y-114400D01*
X149200Y-105600D02*
X148400Y-104000D01*
X150000D01*
X149200Y-105600D01*
X154100Y-92900D02*
X153300Y-91300D01*
X154900D01*
X154100Y-92900D01*
X150300Y-109800D02*
X149500Y-108200D01*
X151100D01*
X150300Y-109800D01*
X212800Y-57000D02*
X212000Y-55400D01*
X213600D01*
X212800Y-57000D01*
X220500Y-58100D02*
X219700Y-56500D01*
X221300D01*
X220500Y-58100D01*
X101100Y-137300D02*
X100300Y-135700D01*
X101900D01*
X101100Y-137300D01*
Y-136900D02*
X100700Y-136100D01*
X101500D01*
X101100Y-136900D01*
X89225Y-33775D02*
X88425Y-32175D01*
X90025D01*
X89225Y-33775D01*
Y-33375D02*
X88825Y-32575D01*
X89625D01*
X89225Y-33375D01*
X128200Y-51475D02*
X127400Y-49875D01*
X129000D01*
X128200Y-51475D01*
Y-51075D02*
X127800Y-50275D01*
X128600D01*
X128200Y-51075D01*
X158900Y-31200D02*
X158100Y-29600D01*
X159700D01*
X158900Y-31200D01*
Y-30800D02*
X158500Y-30000D01*
X159300D01*
X158900Y-30800D01*
X75900Y31900D02*
X75100Y33500D01*
X76700D01*
X75900Y31900D01*
X79800Y-107900D02*
X79000Y-106300D01*
X80600D01*
X79800Y-107900D01*
Y-107500D02*
X79400Y-106700D01*
X80200D01*
X79800Y-107500D01*
Y-114200D02*
X79000Y-112600D01*
X80600D01*
X79800Y-114200D01*
Y-113800D02*
X79400Y-113000D01*
X80200D01*
X79800Y-113800D01*
X87700Y-111100D02*
X86900Y-109500D01*
X88500D01*
X87700Y-111100D01*
Y-110700D02*
X87300Y-109900D01*
X88100D01*
X87700Y-110700D01*
X97750Y-109150D02*
X96950Y-107550D01*
X98550D01*
X97750Y-109150D01*
Y-108750D02*
X97350Y-107950D01*
X98150D01*
X97750Y-108750D01*
X97725Y-114175D02*
X96925Y-112575D01*
X98525D01*
X97725Y-114175D01*
Y-113775D02*
X97325Y-112975D01*
X98125D01*
X97725Y-113775D01*
X53498Y-98404D02*
X52698Y-96804D01*
X54298D01*
X53498Y-98404D01*
Y-98004D02*
X53098Y-97204D01*
X53898D01*
X53498Y-98004D01*
X69383Y-90800D02*
X68583Y-89200D01*
X70183D01*
X69383Y-90800D01*
Y-90400D02*
X68983Y-89600D01*
X69783D01*
X69383Y-90400D01*
X72483Y-85300D02*
X71683Y-83700D01*
X73283D01*
X72483Y-85300D01*
Y-84900D02*
X72083Y-84100D01*
X72883D01*
X72483Y-84900D01*
X69400Y-76400D02*
X68600Y-74800D01*
X70200D01*
X69400Y-76400D01*
Y-76000D02*
X69000Y-75200D01*
X69800D01*
X69400Y-76000D01*
X113979Y-98600D02*
X113179Y-97000D01*
X114779D01*
X113979Y-98600D01*
Y-98200D02*
X113579Y-97400D01*
X114379D01*
X113979Y-98200D01*
X129400Y-116800D02*
X128600Y-115200D01*
X130200D01*
X129400Y-116800D01*
Y-116400D02*
X129000Y-115600D01*
X129800D01*
X129400Y-116400D01*
X128300Y-88900D02*
X127500Y-87300D01*
X129100D01*
X128300Y-88900D01*
Y-88500D02*
X127900Y-87700D01*
X128700D01*
X128300Y-88500D01*
X117079Y-98600D02*
X116279Y-97000D01*
X117879D01*
X117079Y-98600D01*
Y-98200D02*
X116679Y-97400D01*
X117479D01*
X117079Y-98200D01*
X51825Y-95775D02*
X51025Y-94175D01*
X52625D01*
X51825Y-95775D01*
Y-95375D02*
X51425Y-94575D01*
X52225D01*
X51825Y-95375D01*
X73025Y-97675D02*
X72225Y-96075D01*
X73825D01*
X73025Y-97675D01*
Y-97275D02*
X72625Y-96475D01*
X73425D01*
X73025Y-97275D01*
X72483Y-90800D02*
X71683Y-89200D01*
X73283D01*
X72483Y-90800D01*
Y-90400D02*
X72083Y-89600D01*
X72883D01*
X72483Y-90400D01*
X66283Y-90800D02*
X65483Y-89200D01*
X67083D01*
X66283Y-90800D01*
Y-90400D02*
X65883Y-89600D01*
X66683D01*
X66283Y-90400D01*
X69383Y-85300D02*
X68583Y-83700D01*
X70183D01*
X69383Y-85300D01*
Y-84900D02*
X68983Y-84100D01*
X69783D01*
X69383Y-84900D01*
Y-80800D02*
X68583Y-79200D01*
X70183D01*
X69383Y-80800D01*
Y-80400D02*
X68983Y-79600D01*
X69783D01*
X69383Y-80400D01*
X66283Y-80800D02*
X65483Y-79200D01*
X67083D01*
X66283Y-80800D01*
Y-80400D02*
X65883Y-79600D01*
X66683D01*
X66283Y-80400D01*
X66300Y-76400D02*
X65500Y-74800D01*
X67100D01*
X66300Y-76400D01*
Y-76000D02*
X65900Y-75200D01*
X66700D01*
X66300Y-76000D01*
X72500Y-67100D02*
X71700Y-65500D01*
X73300D01*
X72500Y-67100D01*
Y-66700D02*
X72100Y-65900D01*
X72900D01*
X72500Y-66700D01*
X69383Y-67100D02*
X68583Y-65500D01*
X70183D01*
X69383Y-67100D01*
Y-66700D02*
X68983Y-65900D01*
X69783D01*
X69383Y-66700D01*
X66283Y-67100D02*
X65483Y-65500D01*
X67083D01*
X66283Y-67100D01*
Y-66700D02*
X65883Y-65900D01*
X66683D01*
X66283Y-66700D01*
X75900Y-127800D02*
X75100Y-126200D01*
X76700D01*
X75900Y-127800D01*
Y-127400D02*
X75500Y-126600D01*
X76300D01*
X75900Y-127400D01*
X110879Y-98600D02*
X110079Y-97000D01*
X111679D01*
X110879Y-98600D01*
Y-98200D02*
X110479Y-97400D01*
X111279D01*
X110879Y-98200D01*
X106800Y-63200D02*
X106000Y-61600D01*
X107600D01*
X106800Y-63200D01*
Y-62800D02*
X106400Y-62000D01*
X107200D01*
X106800Y-62800D01*
X91100Y-67192D02*
X90300Y-65592D01*
X91900D01*
X91100Y-67192D01*
Y-66792D02*
X90700Y-65992D01*
X91500D01*
X91100Y-66792D01*
X53600Y-110400D02*
X52800Y-108800D01*
X54400D01*
X53600Y-110400D01*
Y-110000D02*
X53200Y-109200D01*
X54000D01*
X53600Y-110000D01*
X45800Y-113100D02*
X45000Y-111500D01*
X46600D01*
X45800Y-113100D01*
Y-112700D02*
X45400Y-111900D01*
X46200D01*
X45800Y-112700D01*
X41625Y-71175D02*
X40825Y-69575D01*
X42425D01*
X41625Y-71175D01*
Y-70775D02*
X41225Y-69975D01*
X42025D01*
X41625Y-70775D01*
X36625Y-62275D02*
X35825Y-60675D01*
X37425D01*
X36625Y-62275D01*
Y-61875D02*
X36225Y-61075D01*
X37025D01*
X36625Y-61875D01*
X44000Y-106100D02*
X43200Y-104500D01*
X44800D01*
X44000Y-106100D01*
Y-105700D02*
X43600Y-104900D01*
X44400D01*
X44000Y-105700D01*
X48200Y-74800D02*
X47400Y-73200D01*
X49000D01*
X48200Y-74800D01*
X53400Y-107300D02*
X52600Y-105700D01*
X54200D01*
X53400Y-107300D01*
Y-106900D02*
X53000Y-106100D01*
X53800D01*
X53400Y-106900D01*
X14725Y-106375D02*
X13925Y-104775D01*
X15525D01*
X14725Y-106375D01*
Y-105975D02*
X14325Y-105175D01*
X15125D01*
X14725Y-105975D01*
X13100Y-94900D02*
X12300Y-93300D01*
X13900D01*
X13100Y-94900D01*
Y-94500D02*
X12700Y-93700D01*
X13500D01*
X13100Y-94500D01*
X12900Y-83700D02*
X12100Y-82100D01*
X13700D01*
X12900Y-83700D01*
Y-83300D02*
X12500Y-82500D01*
X13300D01*
X12900Y-83300D01*
X21249Y-83209D02*
X20449Y-81609D01*
X22050D01*
X21249Y-83209D01*
Y-82809D02*
X20850Y-82009D01*
X21650D01*
X21249Y-82809D01*
X-6600Y-80800D02*
X-7400Y-79200D01*
X-5800D01*
X-6600Y-80800D01*
X-20000Y-111100D02*
X-20800Y-109500D01*
X-19200D01*
X-20000Y-111100D01*
Y-114300D02*
X-20800Y-112700D01*
X-19200D01*
X-20000Y-114300D01*
X-3000Y-114400D02*
X-3800Y-112800D01*
X-2200D01*
X-3000Y-114400D01*
Y-111200D02*
X-3800Y-109600D01*
X-2200D01*
X-3000Y-111200D01*
X-20100Y-106900D02*
X-20900Y-105300D01*
X-19300D01*
X-20100Y-106900D01*
X-33583Y-46900D02*
X-34383Y-45300D01*
X-32783D01*
X-33583Y-46900D01*
X-35800Y-44300D02*
X-36600Y-42700D01*
X-35000D01*
X-35800Y-44300D01*
X-26500Y-52900D02*
X-27300Y-51300D01*
X-25700D01*
X-26500Y-52900D01*
X-20500D02*
X-21300Y-51300D01*
X-19700D01*
X-20500Y-52900D01*
X133200Y-135700D02*
X132400Y-134100D01*
X134000D01*
X133200Y-135700D01*
Y-135300D02*
X132800Y-134500D01*
X133600D01*
X133200Y-135300D01*
Y-127500D02*
X132400Y-125900D01*
X134000D01*
X133200Y-127500D01*
X197700Y-125300D02*
X196900Y-123700D01*
X198500D01*
X197700Y-125300D01*
Y-124900D02*
X197300Y-124100D01*
X198100D01*
X197700Y-124900D01*
X220000Y-86200D02*
X219200Y-84600D01*
X220800D01*
X220000Y-86200D01*
Y-85800D02*
X219600Y-85000D01*
X220400D01*
X220000Y-85800D01*
X11500Y-152600D02*
X10700Y-151000D01*
X12300D01*
X11500Y-152600D01*
Y-152200D02*
X11100Y-151400D01*
X11900D01*
X11500Y-152200D01*
X6600Y-155000D02*
X5800Y-153400D01*
X7400D01*
X6600Y-155000D01*
Y-154600D02*
X6200Y-153800D01*
X7000D01*
X6600Y-154600D01*
X-54875Y-188165D02*
X-55675Y-186565D01*
X-54075D01*
X-54875Y-188165D01*
Y-187765D02*
X-55275Y-186965D01*
X-54475D01*
X-54875Y-187765D01*
X-55500Y-163100D02*
X-56300Y-161500D01*
X-54700D01*
X-55500Y-163100D01*
Y-162700D02*
X-55900Y-161900D01*
X-55100D01*
X-55500Y-162700D01*
X-54875Y-190465D02*
X-55675Y-188865D01*
X-54075D01*
X-54875Y-190465D01*
Y-190065D02*
X-55275Y-189265D01*
X-54475D01*
X-54875Y-190065D01*
X-33400Y-188300D02*
X-34200Y-186700D01*
X-32600D01*
X-33400Y-188300D01*
Y-187900D02*
X-33800Y-187100D01*
X-33000D01*
X-33400Y-187900D01*
X-10762Y-166700D02*
X-11562Y-165100D01*
X-9962D01*
X-10762Y-166700D01*
Y-166300D02*
X-11162Y-165500D01*
X-10362D01*
X-10762Y-166300D01*
X-9962Y-168900D02*
X-10762Y-167300D01*
X-9162D01*
X-9962Y-168900D01*
Y-168500D02*
X-10362Y-167700D01*
X-9562D01*
X-9962Y-168500D01*
X6200Y-143800D02*
X5400Y-142200D01*
X7000D01*
X6200Y-143800D01*
Y-143400D02*
X5800Y-142600D01*
X6600D01*
X6200Y-143400D01*
X152300Y-195600D02*
X151500Y-194000D01*
X153100D01*
X152300Y-195600D01*
Y-195200D02*
X151900Y-194400D01*
X152700D01*
X152300Y-195200D01*
X152800Y-192000D02*
X152000Y-190400D01*
X153600D01*
X152800Y-192000D01*
Y-191600D02*
X152400Y-190800D01*
X153200D01*
X152800Y-191600D01*
X-34900Y-191900D02*
X-35700Y-190300D01*
X-34100D01*
X-34900Y-191900D01*
Y-191500D02*
X-35300Y-190700D01*
X-34500D01*
X-34900Y-191500D01*
X44925Y-213575D02*
X44125Y-211975D01*
X45725D01*
X44925Y-213575D01*
Y-213175D02*
X44525Y-212375D01*
X45325D01*
X44925Y-213175D01*
X130800Y-166400D02*
X130000Y-164800D01*
X131600D01*
X130800Y-166400D01*
Y-166000D02*
X130400Y-165200D01*
X131200D01*
X130800Y-166000D01*
X109025Y-93775D02*
X108225Y-92175D01*
X109825D01*
X109025Y-93775D01*
Y-93375D02*
X108625Y-92575D01*
X109425D01*
X109025Y-93375D01*
X91900Y-98100D02*
X91100Y-96500D01*
X92700D01*
X91900Y-98100D01*
Y-97700D02*
X91500Y-96900D01*
X92300D01*
X91900Y-97700D01*
X80225Y-97575D02*
X79425Y-95975D01*
X81025D01*
X80225Y-97575D01*
Y-97175D02*
X79825Y-96375D01*
X80625D01*
X80225Y-97175D01*
X75625Y-85375D02*
X74825Y-83775D01*
X76425D01*
X75625Y-85375D01*
Y-84975D02*
X75225Y-84175D01*
X76025D01*
X75625Y-84975D01*
X75600Y-67100D02*
X74800Y-65500D01*
X76400D01*
X75600Y-67100D01*
Y-66700D02*
X75200Y-65900D01*
X76000D01*
X75600Y-66700D01*
X151200Y-19000D02*
X150400Y-17400D01*
X152000D01*
X151200Y-19000D01*
Y-18600D02*
X150800Y-17800D01*
X151600D01*
X151200Y-18600D01*
X101125Y-27275D02*
X100325Y-25675D01*
X101925D01*
X101125Y-27275D01*
Y-26875D02*
X100725Y-26075D01*
X101525D01*
X101125Y-26875D01*
X49525Y-92975D02*
X48725Y-91375D01*
X50325D01*
X49525Y-92975D01*
Y-92575D02*
X49125Y-91775D01*
X49925D01*
X49525Y-92575D01*
X-38275Y-31575D02*
X-39075Y-29975D01*
X-37475D01*
X-38275Y-31575D01*
Y-31175D02*
X-38675Y-30375D01*
X-37875D01*
X-38275Y-31175D01*
X158900Y-34500D02*
X158100Y-32900D01*
X159700D01*
X158900Y-34500D01*
Y-34100D02*
X158500Y-33300D01*
X159300D01*
X158900Y-34100D01*
X44100Y-51500D02*
X43300Y-49900D01*
X44900D01*
X44100Y-51500D01*
Y-51100D02*
X43700Y-50300D01*
X44500D01*
X44100Y-51100D01*
X-42200Y-52400D02*
X-43000Y-50800D01*
X-41400D01*
X-42200Y-52400D01*
Y-52000D02*
X-42600Y-51200D01*
X-41800D01*
X-42200Y-52000D01*
X210081Y-187632D02*
X209281Y-186032D01*
X210881D01*
X210081Y-187632D01*
Y-187232D02*
X209681Y-186432D01*
X210481D01*
X210081Y-187232D01*
Y-183632D02*
X209281Y-182032D01*
X210881D01*
X210081Y-183632D01*
Y-183232D02*
X209681Y-182432D01*
X210481D01*
X210081Y-183232D01*
X206081Y-183632D02*
X205281Y-182032D01*
X206881D01*
X206081Y-183632D01*
Y-183232D02*
X205681Y-182432D01*
X206481D01*
X206081Y-183232D01*
Y-187632D02*
X205281Y-186032D01*
X206881D01*
X206081Y-187632D01*
Y-187232D02*
X205681Y-186432D01*
X206481D01*
X206081Y-187232D01*
X202081Y-187632D02*
X201281Y-186032D01*
X202881D01*
X202081Y-187632D01*
Y-187232D02*
X201681Y-186432D01*
X202481D01*
X202081Y-187232D01*
Y-183632D02*
X201281Y-182032D01*
X202881D01*
X202081Y-183632D01*
Y-183232D02*
X201681Y-182432D01*
X202481D01*
X202081Y-183232D01*
X198081Y-183632D02*
X197281Y-182032D01*
X198881D01*
X198081Y-183632D01*
Y-183232D02*
X197681Y-182432D01*
X198481D01*
X198081Y-183232D01*
Y-187632D02*
X197281Y-186032D01*
X198881D01*
X198081Y-187632D01*
Y-187232D02*
X197681Y-186432D01*
X198481D01*
X198081Y-187232D01*
Y-195632D02*
X197281Y-194032D01*
X198881D01*
X198081Y-195632D01*
Y-195232D02*
X197681Y-194432D01*
X198481D01*
X198081Y-195232D01*
Y-199632D02*
X197281Y-198032D01*
X198881D01*
X198081Y-199632D01*
Y-199232D02*
X197681Y-198432D01*
X198481D01*
X198081Y-199232D01*
X202081Y-199632D02*
X201281Y-198032D01*
X202881D01*
X202081Y-199632D01*
Y-199232D02*
X201681Y-198432D01*
X202481D01*
X202081Y-199232D01*
Y-195632D02*
X201281Y-194032D01*
X202881D01*
X202081Y-195632D01*
Y-195232D02*
X201681Y-194432D01*
X202481D01*
X202081Y-195232D01*
X206081Y-195632D02*
X205281Y-194032D01*
X206881D01*
X206081Y-195632D01*
Y-195232D02*
X205681Y-194432D01*
X206481D01*
X206081Y-195232D01*
Y-199632D02*
X205281Y-198032D01*
X206881D01*
X206081Y-199632D01*
Y-199232D02*
X205681Y-198432D01*
X206481D01*
X206081Y-199232D01*
X210081Y-199632D02*
X209281Y-198032D01*
X210881D01*
X210081Y-199632D01*
Y-199232D02*
X209681Y-198432D01*
X210481D01*
X210081Y-199232D01*
Y-195632D02*
X209281Y-194032D01*
X210881D01*
X210081Y-195632D01*
Y-195232D02*
X209681Y-194432D01*
X210481D01*
X210081Y-195232D01*
Y-191632D02*
X209281Y-190032D01*
X210881D01*
X210081Y-191632D01*
Y-191232D02*
X209681Y-190432D01*
X210481D01*
X210081Y-191232D01*
X206081Y-191632D02*
X205281Y-190032D01*
X206881D01*
X206081Y-191632D01*
Y-191232D02*
X205681Y-190432D01*
X206481D01*
X206081Y-191232D01*
X198081Y-191632D02*
X197281Y-190032D01*
X198881D01*
X198081Y-191632D01*
Y-191232D02*
X197681Y-190432D01*
X198481D01*
X198081Y-191232D01*
X202081Y-191632D02*
X201281Y-190032D01*
X202881D01*
X202081Y-191632D01*
Y-191232D02*
X201681Y-190432D01*
X202481D01*
X202081Y-191232D01*
X242613Y-51523D02*
X241813Y-49923D01*
X243413D01*
X242613Y-51523D01*
Y-51123D02*
X242213Y-50323D01*
X243013D01*
X242613Y-51123D01*
Y-47523D02*
X241813Y-45923D01*
X243413D01*
X242613Y-47523D01*
Y-47123D02*
X242213Y-46323D01*
X243013D01*
X242613Y-47123D01*
Y-55523D02*
X241813Y-53923D01*
X243413D01*
X242613Y-55523D01*
Y-55123D02*
X242213Y-54323D01*
X243013D01*
X242613Y-55123D01*
Y-59523D02*
X241813Y-57923D01*
X243413D01*
X242613Y-59523D01*
Y-59123D02*
X242213Y-58323D01*
X243013D01*
X242613Y-59123D01*
X238613Y-59523D02*
X237813Y-57923D01*
X239413D01*
X238613Y-59523D01*
Y-59123D02*
X238213Y-58323D01*
X239013D01*
X238613Y-59123D01*
X234613Y-59523D02*
X233813Y-57923D01*
X235413D01*
X234613Y-59523D01*
Y-59123D02*
X234213Y-58323D01*
X235013D01*
X234613Y-59123D01*
Y-55523D02*
X233813Y-53923D01*
X235413D01*
X234613Y-55523D01*
Y-55123D02*
X234213Y-54323D01*
X235013D01*
X234613Y-55123D01*
X238613Y-55523D02*
X237813Y-53923D01*
X239413D01*
X238613Y-55523D01*
Y-55123D02*
X238213Y-54323D01*
X239013D01*
X238613Y-55123D01*
Y-51523D02*
X237813Y-49923D01*
X239413D01*
X238613Y-51523D01*
Y-51123D02*
X238213Y-50323D01*
X239013D01*
X238613Y-51123D01*
X234613Y-51523D02*
X233813Y-49923D01*
X235413D01*
X234613Y-51523D01*
Y-51123D02*
X234213Y-50323D01*
X235013D01*
X234613Y-51123D01*
Y-47523D02*
X233813Y-45923D01*
X235413D01*
X234613Y-47523D01*
Y-47123D02*
X234213Y-46323D01*
X235013D01*
X234613Y-47123D01*
X238613Y-47523D02*
X237813Y-45923D01*
X239413D01*
X238613Y-47523D01*
Y-47123D02*
X238213Y-46323D01*
X239013D01*
X238613Y-47123D01*
X246613Y-47523D02*
X245813Y-45923D01*
X247413D01*
X246613Y-47523D01*
Y-47123D02*
X246213Y-46323D01*
X247013D01*
X246613Y-47123D01*
X250613Y-47523D02*
X249813Y-45923D01*
X251413D01*
X250613Y-47523D01*
Y-47123D02*
X250213Y-46323D01*
X251013D01*
X250613Y-47123D01*
Y-51523D02*
X249813Y-49923D01*
X251413D01*
X250613Y-51523D01*
Y-51123D02*
X250213Y-50323D01*
X251013D01*
X250613Y-51123D01*
X246613Y-51523D02*
X245813Y-49923D01*
X247413D01*
X246613Y-51523D01*
Y-51123D02*
X246213Y-50323D01*
X247013D01*
X246613Y-51123D01*
Y-55523D02*
X245813Y-53923D01*
X247413D01*
X246613Y-55523D01*
Y-55123D02*
X246213Y-54323D01*
X247013D01*
X246613Y-55123D01*
X250613Y-55523D02*
X249813Y-53923D01*
X251413D01*
X250613Y-55523D01*
Y-55123D02*
X250213Y-54323D01*
X251013D01*
X250613Y-55123D01*
Y-59523D02*
X249813Y-57923D01*
X251413D01*
X250613Y-59523D01*
Y-59123D02*
X250213Y-58323D01*
X251013D01*
X250613Y-59123D01*
X246613Y-59523D02*
X245813Y-57923D01*
X247413D01*
X246613Y-59523D01*
Y-59123D02*
X246213Y-58323D01*
X247013D01*
X246613Y-59123D01*
X73125Y-206875D02*
X72325Y-205275D01*
X73925D01*
X73125Y-206875D01*
Y-206475D02*
X72725Y-205675D01*
X73525D01*
X73125Y-206475D01*
X84425Y-111175D02*
X83625Y-109575D01*
X85225D01*
X84425Y-111175D01*
Y-110775D02*
X84025Y-109975D01*
X84825D01*
X84425Y-110775D01*
X293700Y-11600D02*
X292900Y-10000D01*
X294500D01*
X293700Y-11600D01*
X106000Y-106700D02*
X105200Y-105100D01*
X106800D01*
X106000Y-106700D01*
Y-106300D02*
X105600Y-105500D01*
X106400D01*
X106000Y-106300D01*
X104500Y-65300D02*
X103700Y-63700D01*
X105300D01*
X104500Y-65300D01*
Y-64900D02*
X104100Y-64100D01*
X104900D01*
X104500Y-64900D01*
X76300Y-97700D02*
X75500Y-96100D01*
X77100D01*
X76300Y-97700D01*
Y-97300D02*
X75900Y-96500D01*
X76700D01*
X76300Y-97300D01*
X45900Y-35300D02*
X45100Y-33700D01*
X46700D01*
X45900Y-35300D01*
Y-34900D02*
X45500Y-34100D01*
X46300D01*
X45900Y-34900D01*
X173100Y-23900D02*
X172300Y-22300D01*
X173900D01*
X173100Y-23900D01*
Y-23500D02*
X172700Y-22700D01*
X173500D01*
X173100Y-23500D01*
X228500Y-60400D02*
X227700Y-58800D01*
X229300D01*
X228500Y-60400D01*
X228700Y-46100D02*
X227900Y-44500D01*
X229500D01*
X228700Y-46100D01*
X216300Y32900D02*
X215500Y34500D01*
X217100D01*
X216300Y32900D01*
Y33300D02*
X215900Y34100D01*
X216700D01*
X216300Y33300D01*
X220000Y33000D02*
X219200Y34600D01*
X220800D01*
X220000Y33000D01*
Y33400D02*
X219600Y34200D01*
X220400D01*
X220000Y33400D01*
X86600Y-186200D02*
X85800Y-184600D01*
X87400D01*
X86600Y-186200D01*
Y-185800D02*
X86200Y-185000D01*
X87000D01*
X86600Y-185800D01*
X90300Y-177400D02*
X89500Y-175800D01*
X91100D01*
X90300Y-177400D01*
Y-177000D02*
X89900Y-176200D01*
X90700D01*
X90300Y-177000D01*
X110000Y-186500D02*
X109200Y-184900D01*
X110800D01*
X110000Y-186500D01*
Y-186100D02*
X109600Y-185300D01*
X110400D01*
X110000Y-186100D01*
X116323Y-184123D02*
X115523Y-182523D01*
X117123D01*
X116323Y-184123D01*
Y-183723D02*
X115923Y-182923D01*
X116723D01*
X116323Y-183723D01*
X126125Y-192075D02*
X125325Y-190475D01*
X126925D01*
X126125Y-192075D01*
Y-191675D02*
X125725Y-190875D01*
X126525D01*
X126125Y-191675D01*
X73900Y-80800D02*
X73100Y-79200D01*
X74700D01*
X73900Y-80800D01*
Y-80400D02*
X73500Y-79600D01*
X74300D01*
X73900Y-80400D01*
X62100Y-39200D02*
X61300Y-37600D01*
X62900D01*
X62100Y-39200D01*
Y-38800D02*
X61700Y-38000D01*
X62500D01*
X62100Y-38800D01*
X62900Y-43500D02*
X62100Y-41900D01*
X63700D01*
X62900Y-43500D01*
Y-43100D02*
X62500Y-42300D01*
X63300D01*
X62900Y-43100D01*
X50349Y-59723D02*
X49549Y-58123D01*
X51149D01*
X50349Y-59723D01*
Y-59323D02*
X49949Y-58523D01*
X50749D01*
X50349Y-59323D01*
X56943Y-47616D02*
X56143Y-46016D01*
X57743D01*
X56943Y-47616D01*
Y-47216D02*
X56543Y-46417D01*
X57343D01*
X56943Y-47216D01*
X55700Y-49700D02*
X54900Y-48100D01*
X56500D01*
X55700Y-49700D01*
Y-49300D02*
X55300Y-48500D01*
X56100D01*
X55700Y-49300D01*
X48205Y-50800D02*
X47405Y-49200D01*
X49005D01*
X48205Y-50800D01*
Y-50400D02*
X47805Y-49600D01*
X48605D01*
X48205Y-50400D01*
X243400Y-197300D02*
X242600Y-195700D01*
X244200D01*
X243400Y-197300D01*
X280000Y-196600D02*
X279200Y-195000D01*
X280800D01*
X280000Y-196600D01*
Y-196200D02*
X279600Y-195400D01*
X280400D01*
X280000Y-196200D01*
X310000Y-46400D02*
X309200Y-44800D01*
X310800D01*
X310000Y-46400D01*
Y-46000D02*
X309600Y-45200D01*
X310400D01*
X310000Y-46000D01*
X20300Y-86900D02*
X19500Y-85300D01*
X21100D01*
X20300Y-86900D01*
Y-86500D02*
X19900Y-85700D01*
X20700D01*
X20300Y-86500D01*
X34725Y32025D02*
X33925Y33625D01*
X35525D01*
X34725Y32025D01*
Y32425D02*
X34325Y33225D01*
X35125D01*
X34725Y32425D01*
X217925Y-69475D02*
X217125Y-67875D01*
X218725D01*
X217925Y-69475D01*
Y-69075D02*
X217525Y-68275D01*
X218325D01*
X217925Y-69075D01*
X222725Y-69475D02*
X221925Y-67875D01*
X223525D01*
X222725Y-69475D01*
Y-69075D02*
X222325Y-68275D01*
X223125D01*
X222725Y-69075D01*
X126525Y-82375D02*
X125725Y-80775D01*
X127325D01*
X126525Y-82375D01*
Y-81975D02*
X126125Y-81175D01*
X126925D01*
X126525Y-81975D01*
X277525Y-144075D02*
X276725Y-142475D01*
X278325D01*
X277525Y-144075D01*
Y-143675D02*
X277125Y-142875D01*
X277925D01*
X277525Y-143675D01*
X269825Y-140775D02*
X269025Y-139175D01*
X270625D01*
X269825Y-140775D01*
Y-140375D02*
X269425Y-139575D01*
X270225D01*
X269825Y-140375D01*
X235133Y-75346D02*
X234333Y-73746D01*
X235933D01*
X235133Y-75346D01*
X142500Y-82600D02*
X141700Y-81000D01*
X143300D01*
X142500Y-82600D01*
X174600Y-140600D02*
X173800Y-139000D01*
X175400D01*
X174600Y-140600D01*
Y-140200D02*
X174200Y-139400D01*
X175000D01*
X174600Y-140200D01*
X177800Y-157200D02*
X177000Y-155600D01*
X178600D01*
X177800Y-157200D01*
X-56075Y-64875D02*
X-56875Y-63275D01*
X-55275D01*
X-56075Y-64875D01*
X-63675Y-63775D02*
X-64475Y-62175D01*
X-62875D01*
X-63675Y-63775D01*
Y-63375D02*
X-64075Y-62575D01*
X-63275D01*
X-63675Y-63375D01*
X219400Y-108400D02*
X218600Y-106800D01*
X220200D01*
X219400Y-108400D01*
X226125Y-117175D02*
X225325Y-115575D01*
X226925D01*
X226125Y-117175D01*
X225825Y-189275D02*
X225025Y-187675D01*
X226625D01*
X225825Y-189275D01*
Y-194175D02*
X225025Y-192575D01*
X226625D01*
X225825Y-194175D01*
Y-199175D02*
X225025Y-197575D01*
X226625D01*
X225825Y-199175D01*
X11740Y-66060D02*
X10940Y-64460D01*
X12540D01*
X11740Y-66060D01*
Y-65660D02*
X11340Y-64860D01*
X12140D01*
X11740Y-65660D01*
Y-69800D02*
X10940Y-68200D01*
X12540D01*
X11740Y-69800D01*
Y-69400D02*
X11340Y-68600D01*
X12140D01*
X11740Y-69400D01*
Y-73540D02*
X10940Y-71940D01*
X12540D01*
X11740Y-73540D01*
Y-73140D02*
X11340Y-72340D01*
X12140D01*
X11740Y-73140D01*
X8000Y-73540D02*
X7200Y-71940D01*
X8800D01*
X8000Y-73540D01*
Y-73140D02*
X7600Y-72340D01*
X8400D01*
X8000Y-73140D01*
X4260Y-73639D02*
X3460Y-72039D01*
X5060D01*
X4260Y-73639D01*
Y-73239D02*
X3860Y-72439D01*
X4660D01*
X4260Y-73239D01*
X4279Y-69800D02*
X3480Y-68200D01*
X5080D01*
X4279Y-69800D01*
Y-69400D02*
X3880Y-68600D01*
X4679D01*
X4279Y-69400D01*
X4231Y-66024D02*
X3431Y-64424D01*
X5031D01*
X4231Y-66024D01*
Y-65624D02*
X3831Y-64824D01*
X4631D01*
X4231Y-65624D01*
X8000Y-66060D02*
X7200Y-64460D01*
X8800D01*
X8000Y-66060D01*
Y-65660D02*
X7600Y-64860D01*
X8400D01*
X8000Y-65660D01*
Y-69800D02*
X7200Y-68200D01*
X8800D01*
X8000Y-69800D01*
Y-69400D02*
X7600Y-68600D01*
X8400D01*
X8000Y-69400D01*
X268325Y-183775D02*
X267525Y-182175D01*
X269125D01*
X268325Y-183775D01*
X274825Y-218375D02*
X274025Y-216775D01*
X275625D01*
X274825Y-218375D01*
X279548Y12093D02*
X278748Y13693D01*
X280348D01*
X279548Y12093D01*
X282225Y19825D02*
X281425Y21425D01*
X283025D01*
X282225Y19825D01*
X260225Y8525D02*
X259425Y10125D01*
X261025D01*
X260225Y8525D01*
Y8925D02*
X259825Y9725D01*
X260625D01*
X260225Y8925D01*
X282279Y16382D02*
X281480Y17982D01*
X283080D01*
X282279Y16382D01*
Y16782D02*
X281879Y17582D01*
X282680D01*
X282279Y16782D01*
X266925Y27799D02*
X266125Y29399D01*
X267725D01*
X266925Y27799D01*
X274406Y33803D02*
X273605Y35403D01*
X275205D01*
X274406Y33803D01*
X266925Y31835D02*
X266125Y33435D01*
X267725D01*
X266925Y31835D01*
X285724Y30063D02*
X284924Y31663D01*
X286524D01*
X285724Y30063D01*
X236807Y27209D02*
X236007Y28809D01*
X237607D01*
X236807Y27209D01*
Y23272D02*
X236007Y24872D01*
X237607D01*
X236807Y23272D01*
X241138Y30555D02*
X240338Y32155D01*
X241938D01*
X241138Y30555D01*
X231492Y9000D02*
X230692Y10600D01*
X232292D01*
X231492Y9000D01*
X230902Y12839D02*
X230102Y14439D01*
X231702D01*
X230902Y12839D01*
Y16874D02*
X230102Y18474D01*
X231702D01*
X230902Y16874D01*
X235232Y8705D02*
X234432Y10305D01*
X236032D01*
X235232Y8705D01*
X238972D02*
X238172Y10305D01*
X239772D01*
X238972Y8705D01*
X228343Y-1531D02*
X227542Y68D01*
X229142D01*
X228343Y-1531D01*
Y1815D02*
X227542Y3415D01*
X229142D01*
X228343Y1815D01*
Y5161D02*
X227542Y6761D01*
X229142D01*
X228343Y5161D01*
X219484Y-1531D02*
X218684Y68D01*
X220284D01*
X219484Y-1531D01*
Y1815D02*
X218684Y3415D01*
X220284D01*
X219484Y1815D01*
Y5161D02*
X218684Y6761D01*
X220284D01*
X219484Y5161D01*
Y8508D02*
X218684Y10108D01*
X220284D01*
X219484Y8508D01*
X296882Y8724D02*
X296082Y10324D01*
X297682D01*
X296882Y8724D01*
Y9124D02*
X296482Y9924D01*
X297282D01*
X296882Y9124D01*
Y16991D02*
X296082Y18591D01*
X297682D01*
X296882Y16991D01*
Y17391D02*
X296482Y18191D01*
X297282D01*
X296882Y17391D01*
X251276Y31539D02*
X250476Y33139D01*
X252076D01*
X251276Y31539D01*
X254524D02*
X253724Y33139D01*
X255324D01*
X254524Y31539D01*
X229130Y-11571D02*
X228330Y-9971D01*
X229930D01*
X229130Y-11571D01*
Y-15016D02*
X228330Y-13416D01*
X229930D01*
X229130Y-15016D01*
Y-18461D02*
X228330Y-16861D01*
X229930D01*
X229130Y-18461D01*
Y-21905D02*
X228330Y-20305D01*
X229930D01*
X229130Y-21905D01*
X31353Y-38561D02*
X30553Y-36961D01*
X32153D01*
X31353Y-38561D01*
Y-38161D02*
X30953Y-37361D01*
X31753D01*
X31353Y-38161D01*
X23971Y-28620D02*
X23171Y-27020D01*
X24771D01*
X23971Y-28620D01*
Y-28220D02*
X23571Y-27420D01*
X24371D01*
X23971Y-28220D01*
X9500Y-20900D02*
X8700Y-19300D01*
X10300D01*
X9500Y-20900D01*
Y-20500D02*
X9100Y-19700D01*
X9900D01*
X9500Y-20500D01*
X4200Y-23600D02*
X3400Y-22000D01*
X5000D01*
X4200Y-23600D01*
Y-23200D02*
X3800Y-22400D01*
X4600D01*
X4200Y-23200D01*
X53498Y-101553D02*
X52698Y-99954D01*
X54298D01*
X53498Y-101553D01*
Y-101154D02*
X53098Y-100354D01*
X53898D01*
X53498Y-101154D01*
X-5834Y-16484D02*
X-6634Y-14884D01*
X-5034D01*
X-5834Y-16484D01*
Y-16084D02*
X-6234Y-15284D01*
X-5434D01*
X-5834Y-16084D01*
X127400Y31336D02*
X126600Y32936D01*
X128200D01*
X127400Y31336D01*
Y31736D02*
X127000Y32536D01*
X127800D01*
X127400Y31736D01*
X237600Y-83500D02*
X236800Y-81900D01*
X238400D01*
X237600Y-83500D01*
Y-83100D02*
X237200Y-82300D01*
X238000D01*
X237600Y-83100D01*
X10000Y-24100D02*
X9200Y-22500D01*
X10800D01*
X10000Y-24100D01*
Y-23700D02*
X9600Y-22900D01*
X10400D01*
X10000Y-23700D01*
X38600Y-26600D02*
X37800Y-25000D01*
X39400D01*
X38600Y-26600D01*
Y-26200D02*
X38200Y-25400D01*
X39000D01*
X38600Y-26200D01*
X261600Y23300D02*
X260800Y24900D01*
X262400D01*
X261600Y23300D01*
X258352D02*
X257552Y24900D01*
X259152D01*
X258352Y23300D01*
X215300Y-97900D02*
X214500Y-96300D01*
X216100D01*
X215300Y-97900D01*
Y-97500D02*
X214900Y-96700D01*
X215700D01*
X215300Y-97500D01*
X168300Y-45800D02*
X167500Y-44200D01*
X169100D01*
X168300Y-45800D01*
Y-45400D02*
X167900Y-44600D01*
X168700D01*
X168300Y-45400D01*
X212500Y23600D02*
X211700Y25200D01*
X213300D01*
X212500Y23600D01*
Y24000D02*
X212100Y24800D01*
X212900D01*
X212500Y24000D01*
X208500Y23600D02*
X207700Y25200D01*
X209300D01*
X208500Y23600D01*
Y24000D02*
X208100Y24800D01*
X208900D01*
X208500Y24000D01*
X41218Y-17618D02*
X40418Y-16018D01*
X42018D01*
X41218Y-17618D01*
Y-17218D02*
X40818Y-16418D01*
X41618D01*
X41218Y-17218D01*
X73500Y-44700D02*
X72700Y-43100D01*
X74300D01*
X73500Y-44700D01*
Y-44300D02*
X73100Y-43500D01*
X73900D01*
X73500Y-44300D01*
X45200Y-17500D02*
X44400Y-15900D01*
X46000D01*
X45200Y-17500D01*
Y-17100D02*
X44800Y-16300D01*
X45600D01*
X45200Y-17100D01*
G54D287*
X275700Y-227500D02*
X275147Y-226739D01*
X274253Y-227030D01*
Y-227970D01*
X275147Y-228261D01*
X275700Y-227500D01*
X262300D02*
X261747Y-226739D01*
X260853Y-227030D01*
Y-227970D01*
X261747Y-228261D01*
X262300Y-227500D01*
Y-174500D02*
X261747Y-173739D01*
X260853Y-174030D01*
Y-174970D01*
X261747Y-175261D01*
X262300Y-174500D01*
X275700D02*
X275147Y-173739D01*
X274253Y-174030D01*
Y-174970D01*
X275147Y-175261D01*
X275700Y-174500D01*
X262800Y-126200D02*
X262247Y-125439D01*
X261353Y-125730D01*
Y-126670D01*
X262247Y-126961D01*
X262800Y-126200D01*
X276200D02*
X275647Y-125439D01*
X274753Y-125730D01*
Y-126670D01*
X275647Y-126961D01*
X276200Y-126200D01*
Y-73200D02*
X275647Y-72439D01*
X274753Y-72730D01*
Y-73670D01*
X275647Y-73961D01*
X276200Y-73200D01*
X262800D02*
X262247Y-72439D01*
X261353Y-72730D01*
Y-73670D01*
X262247Y-73961D01*
X262800Y-73200D01*
X246695Y-227461D02*
X246143Y-226700D01*
X245248Y-226990D01*
Y-227931D01*
X246143Y-228222D01*
X246695Y-227461D01*
X233295D02*
X232743Y-226700D01*
X231848Y-226990D01*
Y-227931D01*
X232743Y-228222D01*
X233295Y-227461D01*
Y-174461D02*
X232743Y-173700D01*
X231848Y-173990D01*
Y-174931D01*
X232743Y-175222D01*
X233295Y-174461D01*
X246695D02*
X246143Y-173700D01*
X245248Y-173990D01*
Y-174931D01*
X246143Y-175222D01*
X246695Y-174461D01*
X294500Y-183050D02*
X293947Y-182289D01*
X293053Y-182580D01*
Y-183520D01*
X293947Y-183811D01*
X294500Y-183050D01*
Y-150550D02*
X293947Y-149789D01*
X293053Y-150080D01*
Y-151020D01*
X293947Y-151311D01*
X294500Y-150550D01*
Y-118050D02*
X293947Y-117289D01*
X293053Y-117580D01*
Y-118520D01*
X293947Y-118811D01*
X294500Y-118050D01*
Y-85550D02*
X293947Y-84789D01*
X293053Y-85080D01*
Y-86020D01*
X293947Y-86311D01*
X294500Y-85550D01*
Y-53050D02*
X293947Y-52289D01*
X293053Y-52580D01*
Y-53520D01*
X293947Y-53811D01*
X294500Y-53050D01*
Y-20550D02*
X293947Y-19789D01*
X293053Y-20080D01*
Y-21020D01*
X293947Y-21311D01*
X294500Y-20550D01*
G54D288*
X294100Y-183050D02*
X293500Y-182704D01*
Y-183396D01*
X294100Y-183050D01*
Y-150550D02*
X293500Y-150204D01*
Y-150896D01*
X294100Y-150550D01*
Y-118050D02*
X293500Y-117704D01*
Y-118396D01*
X294100Y-118050D01*
Y-85550D02*
X293500Y-85204D01*
Y-85896D01*
X294100Y-85550D01*
Y-53050D02*
X293500Y-52704D01*
Y-53396D01*
X294100Y-53050D01*
Y-20550D02*
X293500Y-20204D01*
Y-20896D01*
X294100Y-20550D01*
M02*
