G04 Layer_Color=65535*
%FSLAX25Y25*%
%MOIN*%
G70*
G01*
G75*
%ADD11C,0.00800*%
%ADD63C,0.00600*%
%ADD66C,0.01000*%
%ADD67C,0.00700*%
%ADD120C,0.03000*%
%ADD146C,0.00984*%
%ADD147C,0.00500*%
%ADD148C,0.02362*%
%ADD149C,0.02500*%
%ADD150C,0.02000*%
%ADD151C,0.01968*%
%ADD152C,0.00787*%
%ADD153C,0.00200*%
%ADD154C,0.00400*%
%ADD155C,0.00197*%
%ADD156R,0.08790X0.02953*%
%ADD157R,0.02953X0.08790*%
%ADD158R,0.01200X0.00590*%
%ADD159R,0.01200X0.00600*%
%ADD160R,0.01200X0.01190*%
%ADD161R,0.00590X0.01200*%
%ADD162R,0.00600X0.01200*%
%ADD163R,0.01190X0.01200*%
%ADD164R,0.24505X0.04921*%
G36*
X-23346Y-20354D02*
X-30207D01*
Y-16604D01*
X-23346D01*
Y-20354D01*
D02*
G37*
G36*
X17992D02*
X11132D01*
Y-16604D01*
X17992D01*
Y-20354D01*
D02*
G37*
G36*
X222029Y-169100D02*
X221417D01*
Y-165214D01*
X221410Y-165222D01*
X221379Y-165252D01*
X221326Y-165290D01*
X221258Y-165343D01*
X221175Y-165411D01*
X221077Y-165479D01*
X220964Y-165562D01*
X220835Y-165638D01*
X220828D01*
X220820Y-165645D01*
X220775Y-165675D01*
X220707Y-165713D01*
X220623Y-165759D01*
X220525Y-165811D01*
X220419Y-165857D01*
X220306Y-165910D01*
X220200Y-165955D01*
Y-165358D01*
X220208D01*
X220223Y-165350D01*
X220253Y-165335D01*
X220283Y-165312D01*
X220328Y-165290D01*
X220381Y-165267D01*
X220502Y-165199D01*
X220638Y-165116D01*
X220790Y-165018D01*
X220941Y-164904D01*
X221084Y-164783D01*
X221092Y-164776D01*
X221100Y-164768D01*
X221145Y-164723D01*
X221213Y-164655D01*
X221296Y-164572D01*
X221387Y-164466D01*
X221478Y-164352D01*
X221561Y-164231D01*
X221629Y-164110D01*
X222029D01*
Y-169100D01*
D02*
G37*
G36*
X193152Y-164118D02*
X193213Y-164126D01*
X193281Y-164133D01*
X193356Y-164141D01*
X193439Y-164163D01*
X193621Y-164209D01*
X193810Y-164277D01*
X193908Y-164322D01*
X193999Y-164375D01*
X194082Y-164443D01*
X194165Y-164511D01*
X194173Y-164519D01*
X194180Y-164526D01*
X194203Y-164549D01*
X194233Y-164579D01*
X194264Y-164625D01*
X194301Y-164670D01*
X194377Y-164783D01*
X194453Y-164927D01*
X194521Y-165093D01*
X194573Y-165282D01*
X194581Y-165388D01*
X194589Y-165494D01*
Y-165509D01*
Y-165547D01*
X194581Y-165607D01*
X194573Y-165683D01*
X194558Y-165774D01*
X194536Y-165872D01*
X194505Y-165978D01*
X194460Y-166084D01*
X194453Y-166099D01*
X194437Y-166137D01*
X194407Y-166189D01*
X194362Y-166265D01*
X194309Y-166356D01*
X194241Y-166462D01*
X194150Y-166567D01*
X194052Y-166688D01*
X194037Y-166703D01*
X193999Y-166749D01*
X193931Y-166817D01*
X193886Y-166862D01*
X193833Y-166915D01*
X193772Y-166976D01*
X193696Y-167044D01*
X193621Y-167112D01*
X193538Y-167195D01*
X193447Y-167278D01*
X193341Y-167369D01*
X193235Y-167459D01*
X193114Y-167565D01*
X193107Y-167573D01*
X193092Y-167588D01*
X193061Y-167611D01*
X193024Y-167641D01*
X192933Y-167717D01*
X192820Y-167815D01*
X192706Y-167921D01*
X192585Y-168026D01*
X192487Y-168117D01*
X192449Y-168155D01*
X192411Y-168193D01*
X192404Y-168200D01*
X192389Y-168223D01*
X192358Y-168253D01*
X192321Y-168299D01*
X192237Y-168397D01*
X192154Y-168518D01*
X194596D01*
Y-169100D01*
X191308D01*
Y-169092D01*
Y-169062D01*
Y-169017D01*
X191315Y-168964D01*
X191323Y-168903D01*
X191330Y-168835D01*
X191353Y-168760D01*
X191376Y-168684D01*
Y-168677D01*
X191383Y-168669D01*
X191398Y-168624D01*
X191428Y-168563D01*
X191474Y-168473D01*
X191527Y-168374D01*
X191602Y-168261D01*
X191678Y-168147D01*
X191776Y-168026D01*
Y-168019D01*
X191791Y-168011D01*
X191829Y-167966D01*
X191890Y-167898D01*
X191980Y-167807D01*
X192094Y-167701D01*
X192230Y-167573D01*
X192396Y-167429D01*
X192578Y-167271D01*
X192585Y-167263D01*
X192615Y-167240D01*
X192653Y-167210D01*
X192706Y-167157D01*
X192774Y-167104D01*
X192850Y-167036D01*
X193016Y-166893D01*
X193198Y-166719D01*
X193379Y-166545D01*
X193470Y-166462D01*
X193545Y-166378D01*
X193613Y-166295D01*
X193674Y-166220D01*
Y-166212D01*
X193689Y-166205D01*
X193704Y-166182D01*
X193719Y-166152D01*
X193765Y-166076D01*
X193817Y-165978D01*
X193870Y-165864D01*
X193916Y-165743D01*
X193946Y-165607D01*
X193961Y-165479D01*
Y-165471D01*
Y-165464D01*
X193954Y-165418D01*
X193946Y-165350D01*
X193931Y-165267D01*
X193893Y-165169D01*
X193848Y-165070D01*
X193787Y-164965D01*
X193696Y-164866D01*
X193681Y-164859D01*
X193651Y-164829D01*
X193591Y-164791D01*
X193515Y-164738D01*
X193417Y-164692D01*
X193303Y-164655D01*
X193167Y-164625D01*
X193016Y-164617D01*
X192971D01*
X192940Y-164625D01*
X192865Y-164632D01*
X192767Y-164647D01*
X192653Y-164685D01*
X192532Y-164730D01*
X192419Y-164798D01*
X192313Y-164889D01*
X192306Y-164904D01*
X192275Y-164934D01*
X192230Y-164995D01*
X192184Y-165078D01*
X192132Y-165184D01*
X192094Y-165305D01*
X192064Y-165448D01*
X192048Y-165615D01*
X191421Y-165547D01*
Y-165539D01*
Y-165517D01*
X191428Y-165479D01*
X191436Y-165433D01*
X191451Y-165373D01*
X191459Y-165305D01*
X191504Y-165154D01*
X191565Y-164980D01*
X191648Y-164806D01*
X191761Y-164632D01*
X191822Y-164556D01*
X191897Y-164481D01*
X191905Y-164473D01*
X191920Y-164466D01*
X191943Y-164443D01*
X191973Y-164420D01*
X192018Y-164398D01*
X192071Y-164360D01*
X192132Y-164330D01*
X192200Y-164292D01*
X192275Y-164262D01*
X192358Y-164224D01*
X192457Y-164194D01*
X192555Y-164171D01*
X192782Y-164126D01*
X192903Y-164118D01*
X193031Y-164110D01*
X193099D01*
X193152Y-164118D01*
D02*
G37*
G36*
X38632Y29518D02*
X31772D01*
Y33268D01*
X38632D01*
Y29518D01*
D02*
G37*
G36*
X79971D02*
X73110D01*
Y33268D01*
X79971D01*
Y29518D01*
D02*
G37*
G36*
X59331Y-20354D02*
X52470D01*
Y-16604D01*
X59331D01*
Y-20354D01*
D02*
G37*
G36*
X-2707Y29518D02*
X-9567D01*
Y33268D01*
X-2707D01*
Y29518D01*
D02*
G37*
G54D11*
X227505Y-55784D02*
X226961Y-55035D01*
X226081Y-55321D01*
Y-56247D01*
X226961Y-56533D01*
X227505Y-55784D01*
X265400Y-45300D02*
X265886Y-44335D01*
X266200Y-43300D01*
X266300Y-40500D02*
X265928Y-39561D01*
X265400Y-38700D01*
X263300Y-36700D02*
X262431Y-36230D01*
X261500Y-35900D01*
X258600Y-36000D02*
X257723Y-36285D01*
X256900Y-36700D01*
X254800Y-38700D02*
X254326Y-39567D01*
X254000Y-40500D01*
Y-43500D02*
X254328Y-44432D01*
X254800Y-45300D01*
X261300Y-44400D02*
X262083Y-43824D01*
X262614Y-43010D01*
X262826Y-42061D01*
X262692Y-41099D01*
X262229Y-40244D01*
X261496Y-39606D01*
X260586Y-39265D01*
X259614D01*
X258704Y-39606D01*
X257971Y-40244D01*
X257508Y-41099D01*
X257374Y-42061D01*
X257586Y-43010D01*
X258117Y-43824D01*
X258900Y-44400D01*
X145225Y-78475D02*
X148825Y-79675D01*
X207225Y-173275D02*
X208425Y-169175D01*
X118125Y-172775D02*
X119925Y-172675D01*
X117725Y-158975D02*
X121925Y-156875D01*
X80625Y-161275D02*
X84025Y-159675D01*
X-53625Y-30375D02*
X-47825D01*
X-53625D02*
Y-11675D01*
X-47825D01*
Y-30375D02*
Y-11675D01*
X149325Y-141575D02*
X150825Y-143075D01*
X147825D02*
X149325Y-141575D01*
Y-149475D02*
Y-141575D01*
X234933Y-100181D02*
X238933Y-105649D01*
X242870Y-100181D01*
X234933D02*
X242870D01*
X205800Y-69485D02*
Y-56473D01*
Y-54504D01*
X224749Y-56473D02*
Y-54504D01*
Y-69485D02*
Y-56473D01*
X205800D02*
X224749D01*
X261300Y-44400D02*
X262700Y-47800D01*
X263500Y-47400D01*
X265300Y-48600D01*
X266700Y-47200D01*
X265400Y-45400D02*
X266700Y-47200D01*
X266200Y-43400D02*
X268400Y-43000D01*
Y-41000D01*
X266200Y-40600D02*
X268400Y-41000D01*
X265300Y-38700D02*
X266700Y-36800D01*
X265300Y-35400D02*
X266700Y-36800D01*
X263300Y-36700D02*
X265300Y-35400D01*
X261000Y-33600D02*
X261500Y-36000D01*
X259100Y-33600D02*
X261000D01*
X258600Y-36000D02*
X259100Y-33600D01*
X254900Y-35400D02*
X256800Y-36700D01*
X253500Y-36800D02*
X254900Y-35400D01*
X253500Y-36800D02*
X254800Y-38700D01*
X251700Y-41000D02*
X254000Y-40600D01*
X251700Y-43000D02*
Y-41000D01*
Y-43000D02*
X253900Y-43400D01*
X253500Y-47200D02*
X254700Y-45400D01*
X253500Y-47200D02*
X254900Y-48600D01*
X256700Y-47400D01*
X257400Y-47800D01*
X258900Y-44400D01*
X22032Y-118296D02*
Y-99747D01*
X36513D01*
Y-118296D02*
Y-99747D01*
X22032Y-118296D02*
X36513D01*
X107387Y-1500D02*
X110373Y1487D01*
X104400D02*
X107387Y-1500D01*
Y-39000D02*
X110373Y-36013D01*
X104400D02*
X107387Y-39000D01*
X213404Y-200281D02*
X216258D01*
X213404Y-181332D02*
X216258D01*
X252113Y-64900D02*
Y-62046D01*
X233165Y-64900D02*
Y-62046D01*
X273985Y26393D02*
Y34857D01*
X256465Y26393D02*
X273985D01*
X256465D02*
Y34857D01*
X273985D01*
X237865Y21793D02*
Y30257D01*
X255385D01*
Y21793D02*
Y30257D01*
X237865Y21793D02*
X255385D01*
X165769Y17584D02*
X168755Y14598D01*
X165769Y17584D02*
X168755Y20571D01*
X164825Y-157876D02*
X168157Y-162875D01*
Y-157876D02*
X164825Y-162875D01*
X169824D02*
X171490D01*
X170657D01*
Y-157876D01*
X169824Y-158710D01*
X173989D02*
X174822Y-157876D01*
X176488D01*
X177321Y-158710D01*
Y-159543D01*
X176488Y-160376D01*
X175655D01*
X176488D01*
X177321Y-161209D01*
Y-162042D01*
X176488Y-162875D01*
X174822D01*
X173989Y-162042D01*
X58100Y-51102D02*
Y-55267D01*
X58933Y-56100D01*
X60599D01*
X61432Y-55267D01*
Y-51102D01*
X66431Y-56100D02*
X63098D01*
X66431Y-52768D01*
Y-51935D01*
X65598Y-51102D01*
X63931D01*
X63098Y-51935D01*
X-66500Y-171702D02*
Y-175867D01*
X-65667Y-176700D01*
X-64001D01*
X-63168Y-175867D01*
Y-171702D01*
X-59002Y-176700D02*
Y-171702D01*
X-61502Y-174201D01*
X-58169D01*
X-22000Y-169602D02*
Y-173767D01*
X-21167Y-174600D01*
X-19501D01*
X-18668Y-173767D01*
Y-169602D01*
X-13669D02*
X-17002D01*
Y-172101D01*
X-15336Y-171268D01*
X-14502D01*
X-13669Y-172101D01*
Y-173767D01*
X-14502Y-174600D01*
X-16169D01*
X-17002Y-173767D01*
X23200Y-169902D02*
Y-174067D01*
X24033Y-174900D01*
X25699D01*
X26532Y-174067D01*
Y-169902D01*
X31531D02*
X29864Y-170735D01*
X28198Y-172401D01*
Y-174067D01*
X29031Y-174900D01*
X30698D01*
X31531Y-174067D01*
Y-173234D01*
X30698Y-172401D01*
X28198D01*
X154625Y-185176D02*
Y-189342D01*
X155458Y-190175D01*
X157124D01*
X157957Y-189342D01*
Y-185176D01*
X159624D02*
X162956D01*
Y-186010D01*
X159624Y-189342D01*
Y-190175D01*
X336002Y-48800D02*
X341000D01*
Y-46301D01*
X340167Y-45468D01*
X339334D01*
X338501Y-46301D01*
Y-48800D01*
Y-46301D01*
X337668Y-45468D01*
X336835D01*
X336002Y-46301D01*
Y-48800D01*
Y-40469D02*
Y-43802D01*
X341000D01*
Y-40469D01*
X338501Y-43802D02*
Y-42136D01*
X336002Y-38803D02*
X341000D01*
Y-36304D01*
X340167Y-35471D01*
X336835D01*
X336002Y-36304D01*
Y-38803D01*
Y-26307D02*
Y-27973D01*
X336835Y-28806D01*
X340167D01*
X341000Y-27973D01*
Y-26307D01*
X340167Y-25474D01*
X336835D01*
X336002Y-26307D01*
Y-23808D02*
X340167D01*
X341000Y-22975D01*
Y-21309D01*
X340167Y-20476D01*
X336002D01*
Y-18810D02*
Y-15477D01*
Y-17144D01*
X341000D01*
X338501Y-57400D02*
Y-54068D01*
X336835Y-55734D02*
X340167D01*
X338501Y-12415D02*
Y-9082D01*
Y-121400D02*
Y-118068D01*
X336835Y-119734D02*
X340167D01*
X338501Y-86411D02*
Y-83079D01*
X336002Y-116300D02*
X341000D01*
Y-113801D01*
X340167Y-112968D01*
X339334D01*
X338501Y-113801D01*
Y-116300D01*
Y-113801D01*
X337668Y-112968D01*
X336835D01*
X336002Y-113801D01*
Y-116300D01*
Y-107969D02*
Y-111302D01*
X341000D01*
Y-107969D01*
X338501Y-111302D02*
Y-109635D01*
X336002Y-106303D02*
X341000D01*
Y-103804D01*
X340167Y-102971D01*
X336835D01*
X336002Y-103804D01*
Y-106303D01*
Y-96307D02*
Y-94640D01*
Y-95473D01*
X341000D01*
Y-96307D01*
Y-94640D01*
Y-92141D02*
X336002D01*
X341000Y-88809D01*
X336002D01*
X341400Y-181200D02*
X336402D01*
Y-178701D01*
X337235Y-177868D01*
X338901D01*
X339734Y-178701D01*
Y-181200D01*
X336402Y-176202D02*
X341400D01*
X339734Y-174536D01*
X341400Y-172869D01*
X336402D01*
X341400Y-171203D02*
X336402D01*
Y-168704D01*
X337235Y-167871D01*
X338901D01*
X339734Y-168704D01*
Y-171203D01*
Y-169537D02*
X341400Y-167871D01*
X336402Y-161206D02*
Y-159540D01*
Y-160373D01*
X341400D01*
Y-161206D01*
Y-159540D01*
Y-157041D02*
X336402D01*
X341400Y-153709D01*
X336402D01*
X-70399Y-162634D02*
Y-165300D01*
X-66400D01*
Y-162634D01*
X-68399Y-165300D02*
Y-163967D01*
X-66400Y-161301D02*
Y-159968D01*
Y-160635D01*
X-69066D01*
Y-161301D01*
X-66400Y-157969D02*
X-69066D01*
Y-155970D01*
X-68399Y-155303D01*
X-66400D01*
Y-153970D02*
Y-151971D01*
X-67066Y-151304D01*
X-67733Y-151971D01*
Y-153304D01*
X-68399Y-153970D01*
X-69066Y-153304D01*
Y-151304D01*
Y-149972D02*
X-67066D01*
X-66400Y-149305D01*
Y-147306D01*
X-65734D01*
X-65067Y-147972D01*
Y-148639D01*
X-66400Y-147306D02*
X-69066D01*
X-66400Y-145973D02*
X-70399D01*
Y-143974D01*
X-69732Y-143307D01*
X-68399D01*
X-67733Y-143974D01*
Y-145973D01*
Y-144640D02*
X-66400Y-143307D01*
Y-139975D02*
Y-141308D01*
X-67066Y-141974D01*
X-68399D01*
X-69066Y-141308D01*
Y-139975D01*
X-68399Y-139308D01*
X-67733D01*
Y-141974D01*
X-69732Y-137309D02*
X-69066D01*
Y-137976D01*
Y-136643D01*
Y-137309D01*
X-67066D01*
X-66400Y-136643D01*
X-69066Y-134643D02*
X-66400D01*
X-67733D01*
X-68399Y-133977D01*
X-69066Y-133310D01*
Y-132644D01*
X-66400Y-129978D02*
Y-128645D01*
X-67066Y-127979D01*
X-68399D01*
X-69066Y-128645D01*
Y-129978D01*
X-68399Y-130645D01*
X-67066D01*
X-66400Y-129978D01*
X159025Y-41676D02*
X162357D01*
X160691D01*
Y-46675D01*
X164024Y-42509D02*
X164857Y-41676D01*
X166523D01*
X167356Y-42509D01*
Y-45842D01*
X166523Y-46675D01*
X164857D01*
X164024Y-45842D01*
Y-42509D01*
X140125Y-134776D02*
X143457D01*
X141791D01*
Y-139775D01*
X148456D02*
X145124D01*
X148456Y-136442D01*
Y-135609D01*
X147623Y-134776D01*
X145957D01*
X145124Y-135609D01*
X338501Y-185900D02*
Y-182568D01*
X336835Y-184234D02*
X340167D01*
X338501Y-150911D02*
Y-147579D01*
X33700Y-125900D02*
Y-120902D01*
X35366Y-122568D01*
X37032Y-120902D01*
Y-125900D01*
X39531D02*
X41198D01*
X42031Y-125067D01*
Y-123401D01*
X41198Y-122568D01*
X39531D01*
X38698Y-123401D01*
Y-125067D01*
X39531Y-125900D01*
X44530Y-121735D02*
Y-122568D01*
X43697D01*
X45363D01*
X44530D01*
Y-125067D01*
X45363Y-125900D01*
X48695D02*
X50361D01*
X51194Y-125067D01*
Y-123401D01*
X50361Y-122568D01*
X48695D01*
X47862Y-123401D01*
Y-125067D01*
X48695Y-125900D01*
X52860Y-122568D02*
Y-125900D01*
Y-124234D01*
X53693Y-123401D01*
X54527Y-122568D01*
X55360D01*
X57859Y-125900D02*
X60358D01*
X61191Y-125067D01*
X60358Y-124234D01*
X58692D01*
X57859Y-123401D01*
X58692Y-122568D01*
X61191D01*
X151625Y-145276D02*
X154957D01*
X153291D01*
Y-150275D01*
X156624Y-145276D02*
Y-150275D01*
Y-147776D01*
X157457Y-146942D01*
X159123D01*
X159956Y-147776D01*
Y-150275D01*
X164121D02*
X162455D01*
X161622Y-149442D01*
Y-147776D01*
X162455Y-146942D01*
X164121D01*
X164954Y-147776D01*
Y-148609D01*
X161622D01*
X166620Y-146942D02*
Y-150275D01*
Y-148609D01*
X167453Y-147776D01*
X168287Y-146942D01*
X169120D01*
X171619Y-150275D02*
Y-146942D01*
X172452D01*
X173285Y-147776D01*
Y-150275D01*
Y-147776D01*
X174118Y-146942D01*
X174951Y-147776D01*
Y-150275D01*
X-58200Y-148500D02*
Y-147167D01*
Y-147834D01*
X-62199D01*
X-61532Y-148500D01*
X-58200Y-145168D02*
X-58866D01*
Y-144501D01*
X-58200D01*
Y-145168D01*
X-61532Y-141835D02*
X-62199Y-141169D01*
Y-139836D01*
X-61532Y-139170D01*
X-58866D01*
X-58200Y-139836D01*
Y-141169D01*
X-58866Y-141835D01*
X-61532D01*
X-60866Y-135171D02*
Y-137170D01*
X-60199Y-137837D01*
X-58866D01*
X-58200Y-137170D01*
Y-135171D01*
G54D63*
X191100Y-131700D02*
X190128Y-131745D01*
X189164Y-131880D01*
X188217Y-132104D01*
X187294Y-132414D01*
X186404Y-132808D01*
X185555Y-133284D01*
X184753Y-133835D01*
X184006Y-134459D01*
X183319Y-135149D01*
X182700Y-135900D01*
X199500D02*
X198881Y-135149D01*
X198194Y-134459D01*
X197447Y-133835D01*
X196645Y-133284D01*
X195796Y-132808D01*
X194906Y-132414D01*
X193983Y-132104D01*
X193036Y-131880D01*
X192072Y-131745D01*
X191100Y-131700D01*
X211100D02*
X210128Y-131745D01*
X209164Y-131880D01*
X208217Y-132104D01*
X207294Y-132414D01*
X206404Y-132808D01*
X205555Y-133284D01*
X204753Y-133835D01*
X204006Y-134459D01*
X203320Y-135149D01*
X202700Y-135900D01*
X219500D02*
X218881Y-135149D01*
X218194Y-134459D01*
X217447Y-133835D01*
X216645Y-133284D01*
X215796Y-132808D01*
X214906Y-132414D01*
X213983Y-132104D01*
X213036Y-131880D01*
X212072Y-131745D01*
X211100Y-131700D01*
X26013Y-102296D02*
X25661Y-101447D01*
X24813Y-101096D01*
X23964Y-101447D01*
X23613Y-102296D01*
X23964Y-103145D01*
X24813Y-103496D01*
X25661Y-103145D01*
X26013Y-102296D01*
X-30783Y-58075D02*
Y-50138D01*
X-36339Y-58075D02*
Y-50138D01*
X-69827Y-35602D02*
X-55827D01*
X-69827D02*
Y-31102D01*
Y-6602D02*
X-55827D01*
X-68827Y-18602D02*
Y-7602D01*
X-70827Y-11102D02*
X-69827D01*
X-70827Y-16102D02*
Y-11102D01*
Y-31102D02*
X-69827D01*
Y-6602D01*
X-70827Y-26102D02*
Y-16102D01*
Y-31102D02*
Y-26102D01*
X-68827Y-18602D02*
X-64827D01*
X-68827Y-23602D02*
Y-18602D01*
X-64827Y-23602D02*
Y-18602D01*
X-68827Y-23602D02*
X-64827D01*
X-68827Y-34602D02*
Y-23602D01*
X-55827Y-10602D02*
Y-7602D01*
Y-10602D02*
X-54827D01*
Y-13602D02*
Y-10602D01*
X-55827Y-13602D02*
X-54827D01*
X-55827Y-18102D02*
Y-13602D01*
X-56827Y-18102D02*
X-55827D01*
X-56827Y-24102D02*
Y-18102D01*
Y-24102D02*
X-55827D01*
Y-28102D02*
Y-24102D01*
Y-28102D02*
X-54827D01*
Y-31602D02*
Y-28102D01*
X-55827Y-31602D02*
X-54827D01*
X-55827Y-34602D02*
Y-31602D01*
X-57827Y-7602D02*
X-55827D01*
X-68827D02*
X-63827D01*
X-68827Y-34602D02*
X-63827D01*
X-57827D02*
X-55827D01*
X-21747Y-46044D02*
X-19247Y-48544D01*
X-14247D02*
X-11747Y-46044D01*
X-9247Y-48544D01*
X-4247D02*
X-1747Y-46044D01*
X-21747D02*
Y-31044D01*
X-19247Y-28544D01*
X-14247D01*
X-11747Y-31044D01*
X-9247Y-28544D01*
X-4247D01*
X-1747Y-31044D01*
X-11747Y-46044D02*
Y-31044D01*
X-1747Y-46044D02*
Y-31044D01*
X-9247Y-48544D02*
X-4247D01*
X-19247D02*
X-14247D01*
X-1747Y-46044D02*
X753Y-48544D01*
X5753D02*
X8253Y-46044D01*
X-1747Y-31044D02*
X753Y-28544D01*
X5753D01*
X8253Y-31044D01*
Y-46044D02*
Y-31044D01*
X753Y-48544D02*
X5753D01*
X178600Y-163700D02*
X189100D01*
X178600D02*
Y-161700D01*
Y-130700D01*
X181100Y-156700D02*
Y-135700D01*
X182800D01*
X181100Y-156700D02*
X189100D01*
X178600Y-161700D02*
X188100D01*
X181100Y-157700D02*
X188100D01*
Y-161700D02*
X189100Y-163700D01*
X188100Y-157700D02*
X189100Y-156700D01*
X181100Y-157700D02*
Y-156700D01*
X193100D02*
X194100Y-157700D01*
Y-161700D02*
Y-157700D01*
X193100Y-163700D02*
X194100Y-161700D01*
X188100Y-157700D02*
X189100Y-156700D01*
X188100Y-161700D02*
X189100Y-163700D01*
X188100Y-161700D02*
Y-157700D01*
X189100Y-163700D02*
Y-156700D01*
X193100Y-163700D02*
Y-156700D01*
X181100Y-135700D02*
X182600D01*
X208100Y-157700D02*
X209100Y-156700D01*
X213100D02*
X214100Y-157700D01*
X213100Y-163700D02*
X214100Y-161700D01*
X208100D02*
X209100Y-163700D01*
X208100Y-161700D02*
Y-157700D01*
X214100Y-161700D02*
Y-157700D01*
X213100Y-163700D02*
Y-156700D01*
X209100Y-163700D02*
Y-156700D01*
X214100Y-157700D02*
X221100D01*
X194100D02*
X208100D01*
X194100Y-161700D02*
X208100D01*
X214100D02*
X223600D01*
X189100Y-163700D02*
X193100D01*
X209100D01*
X213100D01*
X223600D01*
X189100Y-156700D02*
X193100D01*
X209100D01*
X213100D01*
X221100D01*
X219400Y-135700D02*
X221100D01*
X199600D02*
X202600D01*
X221100Y-157700D02*
Y-156700D01*
Y-135700D01*
X223600Y-161700D02*
Y-130700D01*
Y-163700D02*
Y-161700D01*
X178600Y-130700D02*
X223600D01*
X136258Y1487D02*
Y6802D01*
X118542Y1487D02*
Y6802D01*
X87597Y1487D02*
Y37313D01*
X167203D01*
Y1487D02*
Y37313D01*
X87597Y1487D02*
X167203D01*
X136258Y-36013D02*
Y-30698D01*
X118542Y-36013D02*
Y-30698D01*
X87597Y-36013D02*
Y-187D01*
X167203D01*
Y-36013D02*
Y-187D01*
X87597Y-36013D02*
X167203D01*
X157008Y-241035D02*
X160008Y-242735D01*
X163008Y-241035D01*
X124908Y-234135D02*
X165087D01*
X73687Y-234175D02*
X113866D01*
X108787Y-242775D02*
X111787Y-241075D01*
X105787D02*
X108787Y-242775D01*
X105787Y-213516D02*
X108787Y-215216D01*
X111787Y-213516D01*
X73687Y-206616D02*
X113866D01*
X22506Y-234175D02*
X62685D01*
X57606Y-242775D02*
X60606Y-241075D01*
X54606D02*
X57606Y-242775D01*
X3425Y-241075D02*
X6425Y-242775D01*
X9425Y-241075D01*
X-28675Y-234175D02*
X11504D01*
X168755Y-11287D02*
X174070D01*
X168755Y6429D02*
X174070D01*
X168755Y37374D02*
X204582D01*
Y-42232D02*
Y37374D01*
X168755Y-42232D02*
X204582D01*
X168755D02*
Y37374D01*
X178633Y-43301D02*
X177466D01*
X178049D01*
Y-46217D01*
X177466Y-46800D01*
X176883D01*
X176300Y-46217D01*
X181548Y-46800D02*
Y-43301D01*
X179799Y-45051D01*
X182131D01*
X-48925Y-29175D02*
X-52424D01*
Y-27425D01*
X-51841Y-26842D01*
X-50675D01*
X-50091Y-27425D01*
Y-29175D01*
Y-28008D02*
X-48925Y-26842D01*
X-52424Y-23343D02*
Y-25676D01*
X-48925D01*
Y-23343D01*
X-50675Y-25676D02*
Y-24510D01*
X-51841Y-19845D02*
X-52424Y-20428D01*
Y-21594D01*
X-51841Y-22177D01*
X-51258D01*
X-50675Y-21594D01*
Y-20428D01*
X-50091Y-19845D01*
X-49508D01*
X-48925Y-20428D01*
Y-21594D01*
X-49508Y-22177D01*
X-52424Y-16346D02*
Y-18678D01*
X-48925D01*
Y-16346D01*
X-50675Y-18678D02*
Y-17512D01*
X-52424Y-15179D02*
Y-12847D01*
Y-14013D01*
X-48925D01*
X32025Y-84975D02*
X28826D01*
Y-83375D01*
X29359Y-82842D01*
X30426D01*
X30959Y-83375D01*
Y-84975D01*
Y-83908D02*
X32025Y-82842D01*
X28826Y-81776D02*
X32025Y-79643D01*
X28826D02*
X32025Y-81776D01*
X136233Y-236801D02*
X134100D01*
Y-240000D01*
X136233D01*
X134100Y-238401D02*
X135166D01*
X140498Y-240000D02*
Y-236801D01*
X141564Y-237867D01*
X142631Y-236801D01*
Y-240000D01*
X145296Y-236801D02*
X144230D01*
X143697Y-237334D01*
Y-239467D01*
X144230Y-240000D01*
X145296D01*
X145829Y-239467D01*
Y-237334D01*
X145296Y-236801D01*
X146896D02*
X149029D01*
X147962D01*
Y-240000D01*
X151694Y-236801D02*
X150628D01*
X150095Y-237334D01*
Y-239467D01*
X150628Y-240000D01*
X151694D01*
X152227Y-239467D01*
Y-237334D01*
X151694Y-236801D01*
X153294Y-240000D02*
Y-236801D01*
X154893D01*
X155427Y-237334D01*
Y-238401D01*
X154893Y-238934D01*
X153294D01*
X154360D02*
X155427Y-240000D01*
X229699Y-29001D02*
X228633D01*
X228100Y-29534D01*
Y-31667D01*
X228633Y-32200D01*
X229699D01*
X230233Y-31667D01*
Y-29534D01*
X229699Y-29001D01*
X231299Y-33266D02*
Y-30067D01*
X232898D01*
X233432Y-30601D01*
Y-31667D01*
X232898Y-32200D01*
X231299D01*
X236097D02*
X235031D01*
X234498Y-31667D01*
Y-30601D01*
X235031Y-30067D01*
X236097D01*
X236631Y-30601D01*
Y-31134D01*
X234498D01*
X237697Y-32200D02*
Y-30067D01*
X239296D01*
X239830Y-30601D01*
Y-32200D01*
X246228Y-29534D02*
X245694Y-29001D01*
X244628D01*
X244095Y-29534D01*
Y-30067D01*
X244628Y-30601D01*
X245694D01*
X246228Y-31134D01*
Y-31667D01*
X245694Y-32200D01*
X244628D01*
X244095Y-31667D01*
X247827Y-32200D02*
X248893D01*
X249427Y-31667D01*
Y-30601D01*
X248893Y-30067D01*
X247827D01*
X247294Y-30601D01*
Y-31667D01*
X247827Y-32200D01*
X250493Y-30067D02*
Y-31667D01*
X251026Y-32200D01*
X252625D01*
Y-30067D01*
X253692D02*
Y-32200D01*
Y-31134D01*
X254225Y-30601D01*
X254758Y-30067D01*
X255291D01*
X259023D02*
X257424D01*
X256891Y-30601D01*
Y-31667D01*
X257424Y-32200D01*
X259023D01*
X261689D02*
X260623D01*
X260090Y-31667D01*
Y-30601D01*
X260623Y-30067D01*
X261689D01*
X262222Y-30601D01*
Y-31134D01*
X260090D01*
X228200Y-34501D02*
Y-37700D01*
Y-36101D01*
X230333D01*
Y-34501D01*
Y-37700D01*
X231932Y-35567D02*
X232998D01*
X233532Y-36101D01*
Y-37700D01*
X231932D01*
X231399Y-37167D01*
X231932Y-36634D01*
X233532D01*
X234598Y-35567D02*
Y-37700D01*
Y-36634D01*
X235131Y-36101D01*
X235664Y-35567D01*
X236197D01*
X239930Y-34501D02*
Y-37700D01*
X238330D01*
X237797Y-37167D01*
Y-36101D01*
X238330Y-35567D01*
X239930D01*
X240996D02*
Y-37167D01*
X241529Y-37700D01*
X242062Y-37167D01*
X242595Y-37700D01*
X243128Y-37167D01*
Y-35567D01*
X244728D02*
X245794D01*
X246327Y-36101D01*
Y-37700D01*
X244728D01*
X244195Y-37167D01*
X244728Y-36634D01*
X246327D01*
X247394Y-35567D02*
Y-37700D01*
Y-36634D01*
X247927Y-36101D01*
X248460Y-35567D01*
X248993D01*
X252192Y-37700D02*
X251126D01*
X250593Y-37167D01*
Y-36101D01*
X251126Y-35567D01*
X252192D01*
X252725Y-36101D01*
Y-36634D01*
X250593D01*
X31400Y-236801D02*
Y-237334D01*
X32466Y-238401D01*
X33533Y-237334D01*
Y-236801D01*
X32466Y-238401D02*
Y-240000D01*
X37798D02*
Y-236801D01*
X38864Y-237867D01*
X39931Y-236801D01*
Y-240000D01*
X42596Y-236801D02*
X41530D01*
X40997Y-237334D01*
Y-239467D01*
X41530Y-240000D01*
X42596D01*
X43130Y-239467D01*
Y-237334D01*
X42596Y-236801D01*
X44196D02*
X46328D01*
X45262D01*
Y-240000D01*
X48994Y-236801D02*
X47928D01*
X47395Y-237334D01*
Y-239467D01*
X47928Y-240000D01*
X48994D01*
X49527Y-239467D01*
Y-237334D01*
X48994Y-236801D01*
X50594Y-240000D02*
Y-236801D01*
X52193D01*
X52727Y-237334D01*
Y-238401D01*
X52193Y-238934D01*
X50594D01*
X51660D02*
X52727Y-240000D01*
X-48100Y-110801D02*
X-45967D01*
X78200Y-236701D02*
X80333D01*
Y-237234D01*
X78200Y-239367D01*
Y-239900D01*
X80333D01*
X84598D02*
Y-236701D01*
X85664Y-237767D01*
X86731Y-236701D01*
Y-239900D01*
X89396Y-236701D02*
X88330D01*
X87797Y-237234D01*
Y-239367D01*
X88330Y-239900D01*
X89396D01*
X89929Y-239367D01*
Y-237234D01*
X89396Y-236701D01*
X90996D02*
X93129D01*
X92062D01*
Y-239900D01*
X95794Y-236701D02*
X94728D01*
X94195Y-237234D01*
Y-239367D01*
X94728Y-239900D01*
X95794D01*
X96328Y-239367D01*
Y-237234D01*
X95794Y-236701D01*
X97394Y-239900D02*
Y-236701D01*
X98993D01*
X99527Y-237234D01*
Y-238300D01*
X98993Y-238834D01*
X97394D01*
X98460D02*
X99527Y-239900D01*
X103792D02*
X104858D01*
X104325D01*
Y-236701D01*
X103792Y-237234D01*
X106458Y-238300D02*
X108590D01*
X107524Y-237234D02*
Y-239367D01*
X111789Y-239900D02*
X109657D01*
X111789Y-237767D01*
Y-237234D01*
X111256Y-236701D01*
X110190D01*
X109657Y-237234D01*
X-42100Y-111300D02*
X-40501D01*
X-39967Y-110767D01*
X-40501Y-110234D01*
X-41567D01*
X-42100Y-109701D01*
X-41567Y-109167D01*
X-39967D01*
X-19800Y-236801D02*
X-17667Y-240000D01*
Y-236801D02*
X-19800Y-240000D01*
X-13402D02*
Y-236801D01*
X-12336Y-237867D01*
X-11269Y-236801D01*
Y-240000D01*
X-8604Y-236801D02*
X-9670D01*
X-10203Y-237334D01*
Y-239467D01*
X-9670Y-240000D01*
X-8604D01*
X-8070Y-239467D01*
Y-237334D01*
X-8604Y-236801D01*
X-7004D02*
X-4871D01*
X-5938D01*
Y-240000D01*
X-2206Y-236801D02*
X-3272D01*
X-3805Y-237334D01*
Y-239467D01*
X-3272Y-240000D01*
X-2206D01*
X-1672Y-239467D01*
Y-237334D01*
X-2206Y-236801D01*
X-606Y-240000D02*
Y-236801D01*
X993D01*
X1527Y-237334D01*
Y-238401D01*
X993Y-238934D01*
X-606D01*
X460D02*
X1527Y-240000D01*
X-63100Y-117702D02*
Y-122700D01*
X-62100Y-123700D01*
X-60101D01*
X-59101Y-122700D01*
Y-117702D01*
X28826Y-71475D02*
Y-69342D01*
Y-70408D01*
X32025D01*
X28826Y-68276D02*
X32025Y-66143D01*
X28826D02*
X32025Y-68276D01*
X-22775Y37424D02*
X-20642Y34225D01*
Y37424D02*
X-22775Y34225D01*
X-19576Y35825D02*
X-17443D01*
X-16377Y34225D02*
Y37424D01*
X-15311Y36358D01*
X-14244Y37424D01*
Y34225D01*
X-13178Y37424D02*
X-12112D01*
X-12645D01*
Y34225D01*
X-13178D01*
X-12112D01*
X-10512D02*
Y37424D01*
X-8379Y34225D01*
Y37424D01*
X17125D02*
Y36891D01*
X18192Y35825D01*
X19258Y36891D01*
Y37424D01*
X18192Y35825D02*
Y34225D01*
X20324Y35825D02*
X22457D01*
X23523Y34225D02*
Y37424D01*
X24589Y36358D01*
X25656Y37424D01*
Y34225D01*
X26722Y37424D02*
X27788D01*
X27255D01*
Y34225D01*
X26722D01*
X27788D01*
X29388D02*
Y37424D01*
X31521Y34225D01*
Y37424D01*
X58625Y37524D02*
X60758D01*
Y36991D01*
X58625Y34858D01*
Y34325D01*
X60758D01*
X61824Y35925D02*
X63957D01*
X65023Y34325D02*
Y37524D01*
X66089Y36458D01*
X67156Y37524D01*
Y34325D01*
X68222Y37524D02*
X69288D01*
X68755D01*
Y34325D01*
X68222D01*
X69288D01*
X70888D02*
Y37524D01*
X73021Y34325D01*
Y37524D01*
X-9000Y-49401D02*
X-7934D01*
X-8467D01*
Y-52600D01*
X-9000D01*
X-7934D01*
X-4202Y-49934D02*
X-4735Y-49401D01*
X-5801D01*
X-6334Y-49934D01*
Y-52067D01*
X-5801Y-52600D01*
X-4735D01*
X-4202Y-52067D01*
X-1003Y-49934D02*
X-1536Y-49401D01*
X-2602D01*
X-3135Y-49934D01*
Y-50467D01*
X-2602Y-51000D01*
X-1536D01*
X-1003Y-51534D01*
Y-52067D01*
X-1536Y-52600D01*
X-2602D01*
X-3135Y-52067D01*
X64Y-52600D02*
Y-49401D01*
X1663D01*
X2196Y-49934D01*
Y-51000D01*
X1663Y-51534D01*
X64D01*
X3263Y-51000D02*
X5395D01*
X6462Y-49401D02*
Y-52067D01*
X6995Y-52600D01*
X8061D01*
X8594Y-52067D01*
Y-49401D01*
X9661Y-52600D02*
X10727D01*
X10194D01*
Y-49401D01*
X9661Y-49934D01*
G54D66*
X207383Y-51049D02*
X206723Y-50668D01*
Y-51430D01*
X207383Y-51049D01*
X205497Y-100758D02*
X204837Y-100376D01*
Y-101139D01*
X205497Y-100758D01*
X-30902Y-29943D02*
X-31563Y-29562D01*
Y-30325D01*
X-30902Y-29943D01*
X-26900Y-38644D02*
X-27560Y-38263D01*
Y-39025D01*
X-26900Y-38644D01*
X80020Y-16604D02*
X86221D01*
X80020Y-20354D02*
Y-16604D01*
X52470Y-20354D02*
X80020D01*
X52470D02*
Y-16604D01*
X46220D02*
X52470D01*
X46220D02*
Y5946D01*
X86221D01*
Y-16604D02*
Y5946D01*
X52470Y-16604D02*
X80020D01*
X282632Y-55478D02*
Y-37720D01*
X272711Y-55478D02*
Y-37720D01*
X208500Y-118779D02*
X226258D01*
X208500Y-128700D02*
X226258D01*
X202981Y-222296D02*
X220739D01*
X202981Y-232217D02*
X220739D01*
X153789Y-108937D02*
Y-107737D01*
X150039D02*
X153789D01*
X150039D02*
Y-80187D01*
X153789D01*
Y-78937D01*
X176339D01*
Y-108937D02*
Y-78937D01*
X153789Y-108937D02*
X176339D01*
X203072Y-220232D02*
X220830D01*
X203072Y-210311D02*
X220830D01*
X-21916Y-111331D02*
Y-64803D01*
X-83976Y-111331D02*
X-21916D01*
X-83976D02*
Y-64803D01*
X-21916D01*
X153789Y-140039D02*
Y-138839D01*
X150039D02*
X153789D01*
X150039D02*
Y-111289D01*
X153789D01*
Y-110039D01*
X176339D01*
Y-140039D02*
Y-110039D01*
X153789Y-140039D02*
X176339D01*
X153789Y-77835D02*
Y-76635D01*
X150039D02*
X153789D01*
X150039D02*
Y-49085D01*
X153789D01*
Y-47835D01*
X176339D01*
Y-77835D02*
Y-47835D01*
X153789Y-77835D02*
X176339D01*
X200650Y-54100D02*
Y-47900D01*
Y-54100D02*
X204400D01*
Y-81650D02*
Y-54100D01*
X200650Y-81650D02*
X204400D01*
X200650Y-87900D02*
Y-81650D01*
X178100Y-87900D02*
X200650D01*
X178100D02*
Y-47900D01*
X200650D01*
Y-81650D02*
Y-54100D01*
X200550Y-95500D02*
Y-89300D01*
Y-95500D02*
X204300D01*
Y-123050D02*
Y-95500D01*
X200550Y-123050D02*
X204300D01*
X200550Y-129300D02*
Y-123050D01*
X178000Y-129300D02*
X200550D01*
X178000D02*
Y-89300D01*
X200550D01*
Y-123050D02*
Y-95500D01*
X152894Y-119196D02*
Y-111289D01*
X151914Y-119196D02*
Y-111317D01*
X150994Y-119196D02*
Y-111296D01*
X150039Y-119196D02*
X153789D01*
Y-111289D01*
X152894Y-88094D02*
Y-80187D01*
X151914Y-88094D02*
Y-80214D01*
X150994Y-88094D02*
Y-80194D01*
X150039Y-88094D02*
X153789D01*
Y-80187D01*
X152894Y-56991D02*
Y-49085D01*
X151914Y-56991D02*
Y-49112D01*
X150994Y-56991D02*
Y-49091D01*
X150039Y-56991D02*
X153789D01*
Y-49085D01*
X201546Y-81650D02*
Y-73743D01*
X202525Y-81623D02*
Y-73743D01*
X203446Y-81643D02*
Y-73743D01*
X200650D02*
X204400D01*
X200650Y-81650D02*
Y-73743D01*
X201446Y-123050D02*
Y-115143D01*
X202425Y-123023D02*
Y-115143D01*
X203346Y-123043D02*
Y-115143D01*
X200550D02*
X204300D01*
X200550Y-123050D02*
Y-115143D01*
X153008Y-217635D02*
X158758D01*
X153008Y-216735D02*
X158658D01*
X153008Y-218513D02*
Y-214735D01*
Y-215735D02*
X158758D01*
Y-218485D02*
Y-214735D01*
X131208D02*
X158758D01*
X131134Y-218513D02*
X158684D01*
X124408Y-224027D02*
X165520D01*
X124408Y-235535D02*
Y-224027D01*
Y-235535D02*
X165520D01*
Y-224027D01*
X120008Y-241035D02*
Y-218485D01*
Y-241035D02*
X170008D01*
Y-218485D01*
X158758D02*
X170008D01*
X131208D02*
Y-214735D01*
X120008Y-218485D02*
X131208D01*
X68787Y-218525D02*
X79987D01*
Y-214775D01*
X107537Y-218525D02*
X118787D01*
Y-241075D02*
Y-218525D01*
X68787Y-241075D02*
X118787D01*
X68787D02*
Y-218525D01*
X114299Y-235575D02*
Y-224066D01*
X73187Y-235575D02*
X114299D01*
X73187D02*
Y-224066D01*
X114299D01*
X79914Y-218552D02*
X107464D01*
X79987Y-214775D02*
X107537D01*
Y-218525D02*
Y-214775D01*
X101787Y-215775D02*
X107537D01*
X101787Y-218552D02*
Y-214775D01*
Y-216775D02*
X107437D01*
X101787Y-217675D02*
X107537D01*
X101787Y-190116D02*
X107537D01*
X101787Y-189216D02*
X107437D01*
X101787Y-190993D02*
Y-187216D01*
Y-188216D02*
X107537D01*
Y-190966D02*
Y-187216D01*
X79987D02*
X107537D01*
X79914Y-190993D02*
X107464D01*
X73187Y-196507D02*
X114299D01*
X73187Y-208016D02*
Y-196507D01*
Y-208016D02*
X114299D01*
Y-196507D01*
X68787Y-213516D02*
Y-190966D01*
Y-213516D02*
X118787D01*
Y-190966D01*
X107537D02*
X118787D01*
X79987D02*
Y-187216D01*
X68787Y-190966D02*
X79987D01*
X17606Y-218525D02*
X28806D01*
Y-214775D01*
X56356Y-218525D02*
X67606D01*
Y-241075D02*
Y-218525D01*
X17606Y-241075D02*
X67606D01*
X17606D02*
Y-218525D01*
X63118Y-235575D02*
Y-224066D01*
X22006Y-235575D02*
X63118D01*
X22006D02*
Y-224066D01*
X63118D01*
X28733Y-218552D02*
X56283D01*
X28806Y-214775D02*
X56356D01*
Y-218525D02*
Y-214775D01*
X50606Y-215775D02*
X56356D01*
X50606Y-218552D02*
Y-214775D01*
Y-216775D02*
X56256D01*
X50606Y-217675D02*
X56356D01*
X-575D02*
X5175D01*
X-575Y-216775D02*
X5075D01*
X-575Y-218552D02*
Y-214775D01*
Y-215775D02*
X5175D01*
Y-218525D02*
Y-214775D01*
X-22375D02*
X5175D01*
X-22448Y-218552D02*
X5102D01*
X-29175Y-224066D02*
X11937D01*
X-29175Y-235575D02*
Y-224066D01*
Y-235575D02*
X11937D01*
Y-224066D01*
X-33575Y-241075D02*
Y-218525D01*
Y-241075D02*
X16425D01*
Y-218525D01*
X5175D02*
X16425D01*
X-22375D02*
Y-214775D01*
X-33575Y-218525D02*
X-22375D01*
X-12889Y-131994D02*
Y-125302D01*
Y-150498D02*
Y-143806D01*
X-36511Y-147742D02*
Y-143806D01*
Y-147742D02*
X-33755Y-150498D01*
Y-150498D02*
X-12889D01*
X-36511Y-131994D02*
Y-128058D01*
X-33755Y-125302D02*
X-12889D01*
X-36511Y-128058D02*
X-33755Y-125302D01*
X245406Y-153211D02*
X252098D01*
X226902D02*
X233594D01*
X229658Y-129589D02*
X233594D01*
X226902Y-132345D02*
X229658Y-129589D01*
X226902Y-153211D02*
Y-132345D01*
X245406Y-129589D02*
X249342D01*
X252098Y-153211D02*
Y-132345D01*
X249342Y-129589D02*
X252098Y-132345D01*
X186305Y-192211D02*
X192998D01*
X167802D02*
X174495D01*
X170557Y-168589D02*
X174495D01*
X167802Y-171345D02*
X170557Y-168589D01*
X167802Y-192211D02*
Y-171345D01*
X186305Y-168589D02*
X190243D01*
X192998Y-192211D02*
Y-171345D01*
X190243Y-168589D02*
X192998Y-171345D01*
X32272Y-132369D02*
Y-125676D01*
Y-150873D02*
Y-144180D01*
X8650Y-148117D02*
Y-144180D01*
Y-148117D02*
X11406Y-150873D01*
Y-150873D02*
X32272D01*
X8650Y-132369D02*
Y-128432D01*
X11406Y-125676D02*
X32272D01*
X8650Y-128432D02*
X11406Y-125676D01*
X80475Y-135195D02*
Y-128502D01*
Y-153698D02*
Y-147005D01*
X56853Y-150943D02*
Y-147005D01*
Y-150943D02*
X59609Y-153698D01*
Y-153698D02*
X80475D01*
X56853Y-135195D02*
Y-131257D01*
X59609Y-128502D02*
X80475D01*
X56853Y-131257D02*
X59609Y-128502D01*
X192206Y-229411D02*
X198898D01*
X173702D02*
X180394D01*
X176458Y-205789D02*
X180394D01*
X173702Y-208545D02*
X176458Y-205789D01*
X173702Y-229411D02*
Y-208545D01*
X192206Y-205789D02*
X196142D01*
X198898Y-229411D02*
Y-208545D01*
X196142Y-205789D02*
X198898Y-208545D01*
X284700Y-202550D02*
Y-1050D01*
X334700D01*
Y-202550D02*
Y-1050D01*
X284700Y-202550D02*
X334700D01*
X46220Y29518D02*
X52421D01*
Y33268D01*
X79971D01*
Y29518D02*
Y33268D01*
Y29518D02*
X86221D01*
Y6968D02*
Y29518D01*
X46220Y6968D02*
X86221D01*
X46220D02*
Y29518D01*
X52421D02*
X79971D01*
X-36457D02*
X-30257D01*
Y33268D01*
X-2707D01*
Y29518D02*
Y33268D01*
Y29518D02*
X3543D01*
Y6968D02*
Y29518D01*
X-36457Y6968D02*
X3543D01*
X-36457D02*
Y29518D01*
X-30257D02*
X-2707D01*
X4882D02*
X11082D01*
Y33268D01*
X38632D01*
Y29518D02*
Y33268D01*
Y29518D02*
X44882D01*
Y6968D02*
Y29518D01*
X4882Y6968D02*
X44882D01*
X4882D02*
Y29518D01*
X11082D02*
X38632D01*
X-2657Y-16604D02*
X3543D01*
X-2657Y-20354D02*
Y-16604D01*
X-30207Y-20354D02*
X-2657D01*
X-30207D02*
Y-16604D01*
X-36457D02*
X-30207D01*
X-36457D02*
Y5946D01*
X3543D01*
Y-16604D02*
Y5946D01*
X-30207Y-16604D02*
X-2657D01*
X211327Y6036D02*
X218020D01*
X229831D02*
X236524D01*
X229831Y-17586D02*
X233768D01*
X236524Y-14830D01*
X236524D02*
Y6036D01*
X214083Y-17586D02*
X218020D01*
X211327Y-14830D02*
Y6036D01*
X211327Y-14830D02*
X214083Y-17586D01*
X235625Y20146D02*
X253383D01*
X235625Y10225D02*
X253383D01*
X293500Y5700D02*
X298900Y6800D01*
X38682Y-16604D02*
X44882D01*
X38682Y-20354D02*
Y-16604D01*
X11132Y-20354D02*
X38682D01*
X11132D02*
Y-16604D01*
X4882D02*
X11132D01*
X4882D02*
Y5946D01*
X44882D01*
Y-16604D02*
Y5946D01*
X11132Y-16604D02*
X38682D01*
X333200Y-207700D02*
Y-205701D01*
Y-206700D01*
X327202D01*
X328202Y-207700D01*
G54D67*
X285966Y-235701D02*
X283300D01*
Y-237701D01*
X284633D01*
X283300D01*
Y-239700D01*
X287299D02*
X288632D01*
X287965D01*
Y-235701D01*
X287299Y-236368D01*
X79600Y-30800D02*
Y-26801D01*
X81599D01*
X82266Y-27468D01*
Y-28801D01*
X81599Y-29467D01*
X79600D01*
X86264Y-30800D02*
X83599D01*
X86264Y-28134D01*
Y-27468D01*
X85598Y-26801D01*
X84265D01*
X83599Y-27468D01*
X80900Y-25800D02*
Y-21801D01*
X82899D01*
X83566Y-22468D01*
Y-23801D01*
X82899Y-24467D01*
X80900D01*
X84899Y-25800D02*
X86232D01*
X85565D01*
Y-21801D01*
X84899Y-22468D01*
X265791Y-55376D02*
X263125D01*
Y-57376D01*
X264458D01*
X263125D01*
Y-59375D01*
X267124Y-56042D02*
X267790Y-55376D01*
X269123D01*
X269790Y-56042D01*
Y-56709D01*
X269123Y-57376D01*
X268457D01*
X269123D01*
X269790Y-58042D01*
Y-58708D01*
X269123Y-59375D01*
X267790D01*
X267124Y-58708D01*
X219866Y-236101D02*
X217200D01*
Y-238101D01*
X218533D01*
X217200D01*
Y-240100D01*
X223865D02*
X221199D01*
X223865Y-237434D01*
Y-236768D01*
X223198Y-236101D01*
X221865D01*
X221199Y-236768D01*
X23900Y-94701D02*
Y-98034D01*
X24566Y-98700D01*
X25899D01*
X26566Y-98034D01*
Y-94701D01*
X27899Y-98700D02*
X29232D01*
X28565D01*
Y-94701D01*
X27899Y-95368D01*
X31231D02*
X31897Y-94701D01*
X33230D01*
X33897Y-95368D01*
Y-98034D01*
X33230Y-98700D01*
X31897D01*
X31231Y-98034D01*
Y-95368D01*
X252434Y-74934D02*
X249768D01*
X249101Y-75601D01*
Y-76934D01*
X249768Y-77600D01*
X252434D01*
X253100Y-76934D01*
Y-75601D01*
X251767Y-76267D02*
X253100Y-74934D01*
Y-75601D02*
X252434Y-74934D01*
X249101Y-70935D02*
Y-73601D01*
X251101D01*
X250434Y-72268D01*
Y-71602D01*
X251101Y-70935D01*
X252434D01*
X253100Y-71602D01*
Y-72935D01*
X252434Y-73601D01*
X-70900Y-59601D02*
X-68234Y-63600D01*
Y-59601D02*
X-70900Y-63600D01*
X-64236D02*
X-66901D01*
X-64236Y-60934D01*
Y-60268D01*
X-64902Y-59601D01*
X-66235D01*
X-66901Y-60268D01*
X-63734Y-1568D02*
X-64401Y-901D01*
X-65734D01*
X-66400Y-1568D01*
Y-2234D01*
X-65734Y-2901D01*
X-64401D01*
X-63734Y-3567D01*
Y-4234D01*
X-64401Y-4900D01*
X-65734D01*
X-66400Y-4234D01*
X-62401Y-4900D02*
X-61068D01*
X-61735D01*
Y-901D01*
X-62401Y-1568D01*
X203891Y-205008D02*
Y-202343D01*
X203224Y-201676D01*
X201892D01*
X201225Y-202343D01*
Y-205008D01*
X201892Y-205675D01*
X203224D01*
X202558Y-204342D02*
X203891Y-205675D01*
X203224D02*
X203891Y-205008D01*
X205224Y-205675D02*
X206557D01*
X205890D01*
Y-201676D01*
X205224Y-202343D01*
X228734Y-72734D02*
X226068D01*
X225401Y-73401D01*
Y-74734D01*
X226068Y-75400D01*
X228734D01*
X229400Y-74734D01*
Y-73401D01*
X228067Y-74067D02*
X229400Y-72734D01*
Y-73401D02*
X228734Y-72734D01*
X229400Y-68735D02*
Y-71401D01*
X226734Y-68735D01*
X226068D01*
X225401Y-69402D01*
Y-70735D01*
X226068Y-71401D01*
X152291Y-42276D02*
X150958D01*
X151625D01*
Y-45608D01*
X150958Y-46275D01*
X150292D01*
X149625Y-45608D01*
X156290Y-46275D02*
X153624D01*
X156290Y-43609D01*
Y-42943D01*
X155623Y-42276D01*
X154290D01*
X153624Y-42943D01*
X132491Y-75676D02*
X131158D01*
X131825D01*
Y-79008D01*
X131158Y-79675D01*
X130492D01*
X129825Y-79008D01*
X133824Y-76342D02*
X134490Y-75676D01*
X135823D01*
X136490Y-76342D01*
Y-77009D01*
X135823Y-77675D01*
X135157D01*
X135823D01*
X136490Y-78342D01*
Y-79008D01*
X135823Y-79675D01*
X134490D01*
X133824Y-79008D01*
X143091Y-129376D02*
X141758D01*
X142424D01*
Y-132708D01*
X141758Y-133375D01*
X141092D01*
X140425Y-132708D01*
X147090Y-129376D02*
X145757Y-130043D01*
X144424Y-131376D01*
Y-132708D01*
X145090Y-133375D01*
X146423D01*
X147090Y-132708D01*
Y-132042D01*
X146423Y-131376D01*
X144424D01*
X-38809Y-236576D02*
X-40142D01*
X-39476D01*
Y-239908D01*
X-40142Y-240575D01*
X-40808D01*
X-41475Y-239908D01*
X-37476Y-237243D02*
X-36810Y-236576D01*
X-35477D01*
X-34810Y-237243D01*
Y-237909D01*
X-35477Y-238576D01*
X-34810Y-239242D01*
Y-239908D01*
X-35477Y-240575D01*
X-36810D01*
X-37476Y-239908D01*
Y-239242D01*
X-36810Y-238576D01*
X-37476Y-237909D01*
Y-237243D01*
X-36810Y-238576D02*
X-35477D01*
X21291Y-213376D02*
X19958D01*
X20625D01*
Y-216708D01*
X19958Y-217375D01*
X19292D01*
X18625Y-216708D01*
X22624D02*
X23290Y-217375D01*
X24623D01*
X25290Y-216708D01*
Y-214042D01*
X24623Y-213376D01*
X23290D01*
X22624Y-214042D01*
Y-214709D01*
X23290Y-215375D01*
X25290D01*
X73291Y-175176D02*
X71958D01*
X72624D01*
Y-178508D01*
X71958Y-179175D01*
X71292D01*
X70625Y-178508D01*
X74624Y-179175D02*
X75957D01*
X75290D01*
Y-175176D01*
X74624Y-175842D01*
X77956D02*
X78623Y-175176D01*
X79956D01*
X80622Y-175842D01*
Y-178508D01*
X79956Y-179175D01*
X78623D01*
X77956Y-178508D01*
Y-175842D01*
X73691Y-180476D02*
X72358D01*
X73024D01*
Y-183808D01*
X72358Y-184475D01*
X71692D01*
X71025Y-183808D01*
X75024Y-184475D02*
X76357D01*
X75690D01*
Y-180476D01*
X75024Y-181142D01*
X78356Y-184475D02*
X79689D01*
X79023D01*
Y-180476D01*
X78356Y-181142D01*
X173691Y-235776D02*
X172358D01*
X173024D01*
Y-239108D01*
X172358Y-239775D01*
X171692D01*
X171025Y-239108D01*
X175024Y-239775D02*
X176357D01*
X175690D01*
Y-235776D01*
X175024Y-236442D01*
X181022Y-239775D02*
X178356D01*
X181022Y-237109D01*
Y-236442D01*
X180356Y-235776D01*
X179023D01*
X178356Y-236442D01*
X-11075Y-55576D02*
Y-58908D01*
X-10408Y-59575D01*
X-9075D01*
X-8409Y-58908D01*
Y-55576D01*
X-7076Y-59575D02*
X-5743D01*
X-6410D01*
Y-55576D01*
X-7076Y-56243D01*
X307966Y4299D02*
X306633D01*
X307299D01*
Y967D01*
X306633Y300D01*
X305966D01*
X305300Y967D01*
X309299Y300D02*
X310632D01*
X309965D01*
Y4299D01*
X309299Y3632D01*
X273500Y-22301D02*
Y-26300D01*
X276166D01*
X280165D02*
X277499D01*
X280165Y-23634D01*
Y-22968D01*
X279498Y-22301D01*
X278165D01*
X277499Y-22968D01*
X288636Y24407D02*
Y21074D01*
X289303Y20408D01*
X290636D01*
X291302Y21074D01*
Y24407D01*
X292635Y23740D02*
X293301Y24407D01*
X294634D01*
X295301Y23740D01*
Y23074D01*
X294634Y22407D01*
X293968D01*
X294634D01*
X295301Y21741D01*
Y21074D01*
X294634Y20408D01*
X293301D01*
X292635Y21074D01*
X210200Y8400D02*
X206201D01*
Y10399D01*
X206868Y11066D01*
X208201D01*
X208867Y10399D01*
Y8400D01*
X206868Y12399D02*
X206201Y13065D01*
Y14398D01*
X206868Y15065D01*
X207534D01*
X208201Y14398D01*
Y13732D01*
Y14398D01*
X208867Y15065D01*
X209534D01*
X210200Y14398D01*
Y13065D01*
X209534Y12399D01*
X188666Y-132201D02*
X186000D01*
Y-136200D01*
X188666D01*
X186000Y-134201D02*
X187333D01*
X189999Y-132201D02*
X192665Y-136200D01*
Y-132201D02*
X189999Y-136200D01*
X193997Y-132201D02*
X196663D01*
X195330D01*
Y-136200D01*
X197996D02*
Y-132201D01*
X199996D01*
X200662Y-132868D01*
Y-134201D01*
X199996Y-134867D01*
X197996D01*
X199329D02*
X200662Y-136200D01*
X201995Y-132201D02*
Y-135533D01*
X202661Y-136200D01*
X203994D01*
X204661Y-135533D01*
Y-132201D01*
X205994D02*
Y-136200D01*
X207993D01*
X208659Y-135533D01*
Y-132868D01*
X207993Y-132201D01*
X205994D01*
X212658D02*
X209992D01*
Y-136200D01*
X212658D01*
X209992Y-134201D02*
X211325D01*
X213991Y-136200D02*
Y-132201D01*
X215990D01*
X216657Y-132868D01*
Y-134201D01*
X215990Y-134867D01*
X213991D01*
X215324D02*
X216657Y-136200D01*
X-53600Y-120301D02*
Y-123300D01*
X-53000Y-123900D01*
X-51801D01*
X-51201Y-123300D01*
Y-120301D01*
X-50001Y-123900D02*
X-48801D01*
X-49401D01*
Y-120301D01*
X-50001D01*
X-46402Y-120901D02*
Y-121501D01*
X-47002D01*
X-45803D01*
X-46402D01*
Y-123300D01*
X-45803Y-123900D01*
X-44003D02*
X-42803D01*
X-43403D01*
Y-121501D01*
X-44003D01*
X-41004Y-123900D02*
Y-120301D01*
X-39805Y-121501D01*
X-38605Y-120301D01*
Y-123900D01*
X-36805Y-121501D02*
X-35606D01*
X-35006Y-122101D01*
Y-123900D01*
X-36805D01*
X-37405Y-123300D01*
X-36805Y-122700D01*
X-35006D01*
X-31407Y-121501D02*
X-33207D01*
X-33806Y-122101D01*
Y-123300D01*
X-33207Y-123900D01*
X-31407D01*
X-30207Y-120301D02*
Y-123900D01*
Y-122101D01*
X-29608Y-121501D01*
X-28408D01*
X-27808Y-122101D01*
Y-123900D01*
X-26609D02*
X-25409D01*
X-26009D01*
Y-121501D01*
X-26609D01*
X-23610Y-123900D02*
Y-121501D01*
X-21810D01*
X-21211Y-122101D01*
Y-123900D01*
X-18211D02*
X-19411D01*
X-20011Y-123300D01*
Y-122101D01*
X-19411Y-121501D01*
X-18211D01*
X-17612Y-122101D01*
Y-122700D01*
X-20011D01*
X139325Y-75701D02*
X141991D01*
X140658D01*
Y-79700D01*
X143324D02*
X144657D01*
X143990D01*
Y-75701D01*
X143324Y-76368D01*
X72925Y-162476D02*
X75591Y-166475D01*
Y-162476D02*
X72925Y-166475D01*
X76924D02*
Y-162476D01*
X78923D01*
X79590Y-163143D01*
Y-164476D01*
X78923Y-165142D01*
X76924D01*
X78257D02*
X79590Y-166475D01*
X83588Y-162476D02*
X80923D01*
Y-166475D01*
X83588D01*
X80923Y-164476D02*
X82256D01*
X87587Y-162476D02*
X84921D01*
Y-164476D01*
X86254D01*
X84921D01*
Y-166475D01*
X120426Y-179675D02*
Y-177009D01*
X121093D01*
X123759Y-179675D01*
X124425D01*
Y-177009D01*
Y-175676D02*
X120426D01*
Y-173677D01*
X121093Y-173010D01*
X122426D01*
X123092Y-173677D01*
Y-175676D01*
Y-174343D02*
X124425Y-173010D01*
X120426Y-169012D02*
Y-171677D01*
X124425D01*
Y-169012D01*
X122426Y-171677D02*
Y-170344D01*
X120426Y-165013D02*
Y-167679D01*
X122426D01*
Y-166346D01*
Y-167679D01*
X124425D01*
X114166Y-151801D02*
X111500D01*
Y-155800D01*
X114166D01*
X111500Y-153801D02*
X112833D01*
X115499Y-155800D02*
Y-151801D01*
X117498D01*
X118165Y-152468D01*
Y-153801D01*
X117498Y-154467D01*
X115499D01*
X116832D02*
X118165Y-155800D01*
X122163Y-151801D02*
X119497D01*
Y-155800D01*
X122163D01*
X119497Y-153801D02*
X120830D01*
X126162Y-151801D02*
X123496D01*
Y-153801D01*
X124829D01*
X123496D01*
Y-155800D01*
X299900Y9199D02*
Y5200D01*
X301899D01*
X302566Y5866D01*
Y6533D01*
X301899Y7199D01*
X299900D01*
X301899D01*
X302566Y7866D01*
Y8532D01*
X301899Y9199D01*
X299900D01*
X306564D02*
X303899D01*
Y5200D01*
X306564D01*
X303899Y7199D02*
X305232D01*
X307897Y9199D02*
Y5200D01*
X309897D01*
X310563Y5866D01*
Y8532D01*
X309897Y9199D01*
X307897D01*
G54D120*
X-30083Y-48075D02*
D03*
X-17600Y-48800D02*
D03*
X115325Y-53575D02*
D03*
G54D146*
X48417Y-19142D02*
X47678Y-18716D01*
Y-19569D01*
X48417Y-19142D01*
X128203Y-167587D02*
X127465Y-167160D01*
Y-168013D01*
X128203Y-167587D01*
X31803D02*
X31065Y-167160D01*
Y-168013D01*
X31803Y-167587D01*
X-13197D02*
X-13935Y-167160D01*
Y-168013D01*
X-13197Y-167587D01*
X-57935Y-163987D02*
X-58673Y-163560D01*
Y-164413D01*
X-57935Y-163987D01*
X118450Y-57882D02*
X117712Y-57456D01*
Y-58308D01*
X118450Y-57882D01*
X-1449Y-81992D02*
X-2236D01*
X-1449D01*
X275395Y8452D02*
X274656Y8878D01*
Y8026D01*
X275395Y8452D01*
G54D147*
X-56800Y-120500D02*
X-56922Y-119495D01*
X-57281Y-118548D01*
X-57856Y-117715D01*
X-58614Y-117043D01*
X-59511Y-116573D01*
X-60494Y-116331D01*
X-61506D01*
X-62489Y-116573D01*
X-63386Y-117043D01*
X-64144Y-117715D01*
X-64719Y-118548D01*
X-65078Y-119495D01*
X-65200Y-120500D01*
X-65078Y-121505D01*
X-64719Y-122452D01*
X-64144Y-123285D01*
X-63386Y-123957D01*
X-62489Y-124427D01*
X-61506Y-124669D01*
X-60494D01*
X-59511Y-124427D01*
X-58614Y-123957D01*
X-57856Y-123285D01*
X-57281Y-122452D01*
X-56922Y-121505D01*
X-56800Y-120500D01*
X254450Y-240000D02*
Y-162000D01*
Y-240000D02*
X281950D01*
Y-162000D01*
X254450D02*
X281950D01*
X40115Y-76701D02*
X50036D01*
Y-89300D02*
Y-76701D01*
X40115Y-89300D02*
X50036D01*
X40115D02*
Y-76701D01*
X216993Y-23810D02*
X225458D01*
X216993Y-28140D02*
X225458D01*
X216796Y-23810D02*
X216993D01*
X216304Y-24302D02*
X216796Y-23810D01*
X216796Y-28140D02*
X216993D01*
X216304Y-27648D02*
X216796Y-28140D01*
X216304Y-27648D02*
Y-24302D01*
X215910Y-24695D02*
X216304Y-24302D01*
X215910Y-27254D02*
Y-24695D01*
Y-27254D02*
X216304Y-27648D01*
X216621Y-109127D02*
X217015Y-109520D01*
Y-112080D02*
Y-109520D01*
X216621Y-112473D02*
X217015Y-112080D01*
X216621Y-112473D02*
Y-109127D01*
X216129Y-108635D02*
X216621Y-109127D01*
X215932Y-108635D02*
X216129D01*
X216129Y-112965D02*
X216621Y-112473D01*
X215932Y-112965D02*
X216129D01*
X207468Y-108635D02*
X215932D01*
X207468Y-112965D02*
X215932D01*
X207468Y-113235D02*
X215932D01*
X207468Y-117565D02*
X215932D01*
X207271Y-113235D02*
X207468D01*
X206779Y-113727D02*
X207271Y-113235D01*
X207271Y-117565D02*
X207468D01*
X206779Y-117073D02*
X207271Y-117565D01*
X206779Y-117073D02*
Y-113727D01*
X206385Y-114120D02*
X206779Y-113727D01*
X206385Y-116680D02*
Y-114120D01*
Y-116680D02*
X206779Y-117073D01*
X226147Y-29202D02*
X226540Y-29595D01*
Y-32154D02*
Y-29595D01*
X226147Y-32548D02*
X226540Y-32154D01*
X226147Y-32548D02*
Y-29202D01*
X225654Y-28709D02*
X226147Y-29202D01*
X225458Y-28709D02*
X225654D01*
X225654Y-33040D02*
X226147Y-32548D01*
X225458Y-33040D02*
X225654D01*
X216993Y-28709D02*
X225458D01*
X216993Y-33040D02*
X225458D01*
X139668Y-106835D02*
X148132D01*
X139668Y-111165D02*
X148132D01*
X139471Y-106835D02*
X139668D01*
X138979Y-107327D02*
X139471Y-106835D01*
X139471Y-111165D02*
X139668D01*
X138979Y-110673D02*
X139471Y-111165D01*
X138979Y-110673D02*
Y-107327D01*
X138585Y-107720D02*
X138979Y-107327D01*
X138585Y-110280D02*
Y-107720D01*
Y-110280D02*
X138979Y-110673D01*
X148875Y-111927D02*
X149268Y-112320D01*
Y-114880D02*
Y-112320D01*
X148875Y-115273D02*
X149268Y-114880D01*
X148875Y-115273D02*
Y-111927D01*
X148383Y-111435D02*
X148875Y-111927D01*
X148186Y-111435D02*
X148383D01*
X148383Y-115765D02*
X148875Y-115273D01*
X148186Y-115765D02*
X148383D01*
X139721Y-111435D02*
X148186D01*
X139721Y-115765D02*
X148186D01*
X143668Y-94165D02*
X152132D01*
X143668Y-89835D02*
X152132D01*
Y-94165D02*
X152329D01*
X152821Y-93673D01*
X152132Y-89835D02*
X152329D01*
X152821Y-90327D01*
Y-93673D02*
Y-90327D01*
Y-93673D02*
X153215Y-93279D01*
Y-90720D01*
X152821Y-90327D02*
X153215Y-90720D01*
X152621Y-62227D02*
X153015Y-62621D01*
Y-65180D02*
Y-62621D01*
X152621Y-65573D02*
X153015Y-65180D01*
X152621Y-65573D02*
Y-62227D01*
X152129Y-61735D02*
X152621Y-62227D01*
X151932Y-61735D02*
X152129D01*
X152129Y-66065D02*
X152621Y-65573D01*
X151932Y-66065D02*
X152129D01*
X143468Y-61735D02*
X151932D01*
X143468Y-66065D02*
X151932D01*
X143468Y-57135D02*
X151932D01*
X143468Y-61465D02*
X151932D01*
X143271Y-57135D02*
X143468D01*
X142779Y-57627D02*
X143271Y-57135D01*
X143271Y-61465D02*
X143468D01*
X142779Y-60973D02*
X143271Y-61465D01*
X142779Y-60973D02*
Y-57627D01*
X142385Y-58021D02*
X142779Y-57627D01*
X142385Y-60580D02*
Y-58021D01*
Y-60580D02*
X142779Y-60973D01*
X142585Y-88679D02*
X142979Y-89073D01*
X142585Y-88679D02*
Y-86120D01*
X142979Y-85727D01*
Y-89073D02*
Y-85727D01*
Y-89073D02*
X143471Y-89565D01*
X143668D01*
X142979Y-85727D02*
X143471Y-85235D01*
X143668D01*
Y-89565D02*
X152132D01*
X143668Y-85235D02*
X152132D01*
X3100Y-102421D02*
Y-92500D01*
X-9499Y-102421D02*
X3100D01*
X-9499D02*
Y-92500D01*
X3100D01*
X254950Y-138700D02*
X282450D01*
X254950D02*
Y-60700D01*
X282450D01*
Y-138700D02*
Y-60700D01*
X225445Y-239961D02*
Y-161961D01*
Y-239961D02*
X252945D01*
Y-161961D01*
X225445D02*
X252945D01*
X-2000Y-59000D02*
X-819D01*
X16819D02*
X18000D01*
Y-60181D02*
Y-59000D01*
Y-79000D02*
Y-77819D01*
X-2000Y-79000D02*
X-819D01*
X16819D02*
X18000D01*
X-2000Y-60181D02*
Y-59000D01*
Y-79000D02*
Y-77819D01*
X259536Y20624D02*
Y22199D01*
X272725Y20624D02*
Y22199D01*
Y9010D02*
Y10585D01*
X259536Y9010D02*
Y10585D01*
Y22199D02*
X272725D01*
X259536Y9010D02*
X272725D01*
X271673Y-23823D02*
Y-21461D01*
X240177Y-23823D02*
X271673D01*
X240177D02*
Y-21461D01*
X271673Y5311D02*
Y7673D01*
X240177D02*
X271673D01*
X240177Y5311D02*
Y7673D01*
X-35934Y-17801D02*
X-36767D01*
X-36350D01*
Y-19884D01*
X-36767Y-20300D01*
X-37183D01*
X-37600Y-19884D01*
X-35101Y-20300D02*
X-34268D01*
X-34684D01*
Y-17801D01*
X-35101Y-18217D01*
X-31352Y-17801D02*
X-32185Y-18217D01*
X-33018Y-19050D01*
Y-19884D01*
X-32602Y-20300D01*
X-31769D01*
X-31352Y-19884D01*
Y-19467D01*
X-31769Y-19050D01*
X-33018D01*
X-27300Y-28201D02*
X-25634Y-30700D01*
Y-28201D02*
X-27300Y-30700D01*
X-24801D02*
X-23968D01*
X-24384D01*
Y-28201D01*
X-24801Y-28617D01*
X-22718Y-28201D02*
X-21052D01*
Y-28617D01*
X-22718Y-30283D01*
Y-30700D01*
X-70375Y-37476D02*
Y-39975D01*
X-68709D01*
X-66210Y-37476D02*
X-67876D01*
Y-39975D01*
X-66210D01*
X-67876Y-38725D02*
X-67043D01*
X-65376Y-37476D02*
Y-39975D01*
X-64127D01*
X-63710Y-39558D01*
Y-37892D01*
X-64127Y-37476D01*
X-65376D01*
X-62877Y-39975D02*
X-62044D01*
X-62461D01*
Y-37476D01*
X-62877Y-37892D01*
X-70075Y-55076D02*
Y-57575D01*
X-68409D01*
X-65909Y-55076D02*
X-67576D01*
Y-57575D01*
X-65909D01*
X-67576Y-56325D02*
X-66743D01*
X-65076Y-55076D02*
Y-57575D01*
X-63827D01*
X-63410Y-57158D01*
Y-55492D01*
X-63827Y-55076D01*
X-65076D01*
X-62577D02*
X-60911D01*
Y-55492D01*
X-62577Y-57158D01*
Y-57575D01*
X201926Y-126909D02*
Y-127742D01*
Y-127325D01*
X204009D01*
X204425Y-127742D01*
Y-128158D01*
X204009Y-128575D01*
X201926Y-124409D02*
Y-126076D01*
X203176D01*
X202759Y-125243D01*
Y-124826D01*
X203176Y-124409D01*
X204009D01*
X204425Y-124826D01*
Y-125659D01*
X204009Y-126076D01*
X-36834Y34999D02*
X-37667D01*
X-37250D01*
Y32917D01*
X-37667Y32500D01*
X-38083D01*
X-38500Y32917D01*
X-36001Y32500D02*
X-35168D01*
X-35584D01*
Y34999D01*
X-36001Y34583D01*
X-33918D02*
X-33502Y34999D01*
X-32669D01*
X-32252Y34583D01*
Y34166D01*
X-32669Y33750D01*
X-33085D01*
X-32669D01*
X-32252Y33333D01*
Y32917D01*
X-32669Y32500D01*
X-33502D01*
X-33918Y32917D01*
X4566Y35099D02*
X3733D01*
X4150D01*
Y33016D01*
X3733Y32600D01*
X3317D01*
X2900Y33016D01*
X5399Y32600D02*
X6232D01*
X5816D01*
Y35099D01*
X5399Y34683D01*
X8731Y32600D02*
Y35099D01*
X7482Y33850D01*
X9148D01*
X44466Y34999D02*
X43633D01*
X44050D01*
Y32917D01*
X43633Y32500D01*
X43216D01*
X42800Y32917D01*
X45299Y32500D02*
X46132D01*
X45716D01*
Y34999D01*
X45299Y34583D01*
X49048Y34999D02*
X47382D01*
Y33750D01*
X48215Y34166D01*
X48632D01*
X49048Y33750D01*
Y32917D01*
X48632Y32500D01*
X47798D01*
X47382Y32917D01*
X55000Y-116601D02*
X56666D01*
X55833D01*
Y-119100D01*
X57499D02*
Y-116601D01*
X58749D01*
X59165Y-117017D01*
Y-117850D01*
X58749Y-118267D01*
X57499D01*
X59998Y-119100D02*
X60831D01*
X60415D01*
Y-116601D01*
X59998Y-117017D01*
X62081Y-119100D02*
X62914D01*
X62498D01*
Y-116601D01*
X62081Y-117017D01*
X4732Y-17809D02*
X3898D01*
X4315D01*
Y-19892D01*
X3898Y-20309D01*
X3482D01*
X3065Y-19892D01*
X5565Y-20309D02*
X6398D01*
X5981D01*
Y-17809D01*
X5565Y-18226D01*
X7647Y-17809D02*
X9313D01*
Y-18226D01*
X7647Y-19892D01*
Y-20309D01*
X64966Y-21501D02*
X64133D01*
X64550D01*
Y-23584D01*
X64133Y-24000D01*
X63717D01*
X63300Y-23584D01*
X65799Y-24000D02*
X66632D01*
X66216D01*
Y-21501D01*
X65799Y-21917D01*
X67882D02*
X68298Y-21501D01*
X69131D01*
X69548Y-21917D01*
Y-22334D01*
X69131Y-22750D01*
X69548Y-23167D01*
Y-23584D01*
X69131Y-24000D01*
X68298D01*
X67882Y-23584D01*
Y-23167D01*
X68298Y-22750D01*
X67882Y-22334D01*
Y-21917D01*
X68298Y-22750D02*
X69131D01*
X200425Y-165376D02*
Y-167875D01*
Y-166625D01*
X202091D01*
Y-165376D01*
Y-167875D01*
X204591Y-165376D02*
X202924D01*
Y-167875D01*
X204591D01*
X202924Y-166625D02*
X203757D01*
X205424Y-167875D02*
Y-166209D01*
X206257Y-165376D01*
X207090Y-166209D01*
Y-167875D01*
Y-166625D01*
X205424D01*
X207923Y-165376D02*
X209589D01*
X208756D01*
Y-167875D01*
X210422Y-166625D02*
X212088D01*
X212921Y-165792D02*
X213338Y-165376D01*
X214171D01*
X214587Y-165792D01*
Y-167458D01*
X214171Y-167875D01*
X213338D01*
X212921Y-167458D01*
Y-165792D01*
X195166Y-43901D02*
X193500D01*
Y-45150D01*
X194333D01*
X193500D01*
Y-46400D01*
X195999D02*
Y-44734D01*
X196832Y-43901D01*
X197665Y-44734D01*
Y-46400D01*
Y-45150D01*
X195999D01*
X198498Y-46400D02*
Y-43901D01*
X200165Y-46400D01*
Y-43901D01*
X200998Y-46400D02*
X201831D01*
X201414D01*
Y-43901D01*
X200998Y-44317D01*
X191680Y-125420D02*
X190014D01*
Y-126669D01*
X190847D01*
X190014D01*
Y-127919D01*
X192513D02*
Y-126253D01*
X193346Y-125420D01*
X194179Y-126253D01*
Y-127919D01*
Y-126669D01*
X192513D01*
X195013Y-127919D02*
Y-125420D01*
X196679Y-127919D01*
Y-125420D01*
X197512Y-125836D02*
X197928Y-125420D01*
X198761D01*
X199178Y-125836D01*
Y-127502D01*
X198761Y-127919D01*
X197928D01*
X197512Y-127502D01*
Y-125836D01*
X-50375Y-48275D02*
Y-46609D01*
X-49542Y-45776D01*
X-48709Y-46609D01*
Y-48275D01*
Y-47025D01*
X-50375D01*
X-46209Y-46192D02*
X-46626Y-45776D01*
X-47459D01*
X-47876Y-46192D01*
Y-47858D01*
X-47459Y-48275D01*
X-46626D01*
X-46209Y-47858D01*
X-45376Y-45776D02*
X-43710D01*
X-44543D01*
Y-48275D01*
X-50375Y-56475D02*
Y-53976D01*
X-49125D01*
X-48709Y-54392D01*
Y-55225D01*
X-49125Y-55642D01*
X-50375D01*
X-47876Y-53976D02*
Y-56475D01*
X-47043Y-55642D01*
X-46209Y-56475D01*
Y-53976D01*
X-45376Y-56475D02*
Y-53976D01*
X-44127D01*
X-43710Y-54392D01*
Y-55225D01*
X-44127Y-55642D01*
X-45376D01*
X-44543D02*
X-43710Y-56475D01*
G54D148*
X114907Y-65953D02*
X114462Y-65029D01*
X113463Y-64801D01*
X112662Y-65440D01*
Y-66465D01*
X113463Y-67104D01*
X114462Y-66876D01*
X114907Y-65953D01*
X279902Y16169D02*
X279458Y17092D01*
X278458Y17320D01*
X277657Y16681D01*
Y15656D01*
X278458Y15017D01*
X279458Y15245D01*
X279902Y16169D01*
G54D149*
X272101Y-57348D02*
D03*
X228128Y-129310D02*
D03*
X19213Y-97496D02*
D03*
X255254Y9615D02*
D03*
G54D150*
X-675Y-9475D02*
D03*
X9525Y-21175D02*
D03*
X141925Y-56575D02*
D03*
X153925Y-66475D02*
D03*
X142137Y-84661D02*
D03*
X153700Y-94600D02*
D03*
X137925Y-106375D02*
D03*
X148325Y-117075D02*
D03*
X205825Y-117975D02*
D03*
X215825Y-107175D02*
D03*
X228825Y-118575D02*
D03*
X251025Y-117275D02*
D03*
X282325Y-57375D02*
D03*
X214325Y-22675D02*
D03*
X227125Y-33475D02*
D03*
X210825Y11225D02*
D03*
X222625Y-222175D02*
D03*
X225125Y-211175D02*
D03*
X-53475Y-161575D02*
D03*
X-41575D02*
D03*
X-53475Y-193775D02*
D03*
X-38875Y-191375D02*
D03*
X-8175Y-193575D02*
D03*
X5525Y-198475D02*
D03*
X-6775Y-165475D02*
D03*
X3725Y-165575D02*
D03*
X36525D02*
D03*
X50025Y-165075D02*
D03*
X36425Y-198075D02*
D03*
X50625Y-199475D02*
D03*
X132625Y-193875D02*
D03*
X145425Y-199775D02*
D03*
X132925Y-165475D02*
D03*
X146125Y-165275D02*
D03*
X258158Y21412D02*
D03*
G54D151*
X44900Y-42400D02*
D03*
Y-130100D02*
D03*
X135800D02*
D03*
G54D152*
X46546Y-21997D02*
Y-21603D01*
X39854Y-21997D02*
Y-21603D01*
X46546D01*
X39854Y-21997D02*
X46546D01*
X130270Y-192193D02*
X131943D01*
X130270D02*
Y-190520D01*
X149857Y-192193D02*
X151530D01*
Y-190520D01*
Y-168669D02*
Y-166996D01*
X149857D02*
X151530D01*
X130270D02*
X131943D01*
X130270Y-168669D02*
Y-166996D01*
X33870Y-168669D02*
Y-166996D01*
X35543D01*
X53457D02*
X55130D01*
Y-168669D02*
Y-166996D01*
Y-192193D02*
Y-190520D01*
X53457Y-192193D02*
X55130D01*
X33870D02*
Y-190520D01*
Y-192193D02*
X35543D01*
X-11130D02*
X-9457D01*
X-11130D02*
Y-190520D01*
X8457Y-192193D02*
X10130D01*
Y-190520D01*
Y-168669D02*
Y-166996D01*
X8457D02*
X10130D01*
X-11130D02*
X-9457D01*
X-11130Y-168669D02*
Y-166996D01*
X-55868Y-165069D02*
Y-163396D01*
X-54194D01*
X-36281D02*
X-34608D01*
Y-165069D02*
Y-163396D01*
Y-188593D02*
Y-186920D01*
X-36281Y-188593D02*
X-34608D01*
X-55868D02*
Y-186920D01*
Y-188593D02*
X-54194D01*
X291850Y-219637D02*
Y-211763D01*
X285550Y-219637D02*
Y-211763D01*
X263663Y-153050D02*
X271537D01*
X263663Y-159350D02*
X271537D01*
X162872Y6802D02*
Y31998D01*
X91928Y6802D02*
Y31998D01*
X162872D01*
X91928Y6802D02*
X162872D01*
Y-30698D02*
Y-5502D01*
X91928Y-30698D02*
Y-5502D01*
X162872D01*
X91928Y-30698D02*
X162872D01*
X65694Y-62016D02*
X117663D01*
X65694Y-113984D02*
X117663D01*
Y-62016D01*
X65694Y-113984D02*
Y-62016D01*
X286989Y12231D02*
Y21287D01*
X274784Y12231D02*
Y21287D01*
X286989D01*
X274784Y12231D02*
X286989D01*
X174070Y-37902D02*
X199267D01*
X174070Y33043D02*
X199267D01*
Y-37902D02*
Y33043D01*
X174070Y-37902D02*
Y33043D01*
G54D153*
X43200Y-33414D02*
Y-25815D01*
X47102D01*
Y-33414D02*
Y-25815D01*
X43200Y-33414D02*
X47102D01*
X36725Y-41974D02*
X40627D01*
Y-34375D01*
X36725D02*
X40627D01*
X36725Y-41974D02*
Y-34375D01*
X22955Y-39691D02*
X26857D01*
Y-32091D01*
X22955D02*
X26857D01*
X22955Y-39691D02*
Y-32091D01*
X10658Y-39695D02*
X14560D01*
Y-32096D01*
X10658D02*
X14560D01*
X10658Y-39695D02*
Y-32096D01*
X36414Y-27800D02*
Y-23898D01*
X28815D02*
X36414D01*
X28815Y-27800D02*
Y-23898D01*
Y-27800D02*
X36414D01*
X27086Y-31902D02*
Y-28000D01*
Y-31902D02*
X34685D01*
Y-28000D01*
X27086D02*
X34685D01*
X3029Y-22100D02*
Y-18198D01*
X-4570D02*
X3029D01*
X-4570Y-22100D02*
Y-18198D01*
Y-22100D02*
X3029D01*
X58164Y-60874D02*
Y-56972D01*
X50564D02*
X58164D01*
X50564Y-60874D02*
Y-56972D01*
Y-60874D02*
X58164D01*
X14277Y-19218D02*
X18179D01*
X14277Y-26817D02*
Y-19218D01*
Y-26817D02*
X18179D01*
Y-19218D01*
X-23112Y-19010D02*
X-19210D01*
X-23112Y-26609D02*
Y-19010D01*
Y-26609D02*
X-19210D01*
Y-19010D01*
X42571Y-64702D02*
Y-60800D01*
Y-64702D02*
X50170D01*
Y-60800D01*
X42571D02*
X50170D01*
X22498Y-18971D02*
X26400D01*
X22498Y-26570D02*
Y-18971D01*
Y-26570D02*
X26400D01*
Y-18971D01*
X-31402Y-20186D02*
X-27500D01*
X-31402Y-27785D02*
Y-20186D01*
Y-27785D02*
X-27500D01*
Y-20186D01*
X293344Y-225620D02*
X298856D01*
Y-215580D01*
X293344D02*
X298856D01*
X293344Y-225620D02*
Y-215580D01*
X298856Y-213820D02*
Y-203780D01*
X293344Y-213820D02*
X298856D01*
X293344D02*
Y-203780D01*
X298856D01*
X283380Y-232556D02*
Y-227044D01*
Y-232556D02*
X293420D01*
Y-227044D01*
X283380D02*
X293420D01*
X53242Y-27852D02*
Y-23950D01*
Y-27852D02*
X60842D01*
Y-23950D01*
X53242D02*
X60842D01*
X149901Y-40302D02*
Y-36400D01*
Y-40302D02*
X157500D01*
Y-36400D01*
X149901D02*
X157500D01*
X48401Y-34302D02*
Y-30400D01*
Y-34302D02*
X56000D01*
Y-30400D01*
X48401D02*
X56000D01*
X53201Y-42402D02*
Y-38500D01*
Y-42402D02*
X60800D01*
Y-38500D01*
X53201D02*
X60800D01*
X78401Y-35502D02*
Y-31600D01*
Y-35502D02*
X86000D01*
Y-31600D01*
X78401D02*
X86000D01*
X79298Y-42701D02*
X83200D01*
X79298Y-50300D02*
Y-42701D01*
Y-50300D02*
X83200D01*
Y-42701D01*
X86628Y-42320D02*
Y-38419D01*
X79029D02*
X86628D01*
X79029Y-42320D02*
Y-38419D01*
Y-42320D02*
X86628D01*
X76171Y-127102D02*
Y-123200D01*
Y-127102D02*
X83770D01*
Y-123200D01*
X76171D02*
X83770D01*
X39701Y-69402D02*
Y-65500D01*
Y-69402D02*
X47300D01*
Y-65500D01*
X39701D02*
X47300D01*
X58050Y-37599D02*
X61952D01*
Y-30000D01*
X58050D02*
X61952D01*
X58050Y-37599D02*
Y-30000D01*
X66201Y-39302D02*
Y-35400D01*
Y-39302D02*
X73800D01*
Y-35400D01*
X66201D02*
X73800D01*
X104300Y-49099D02*
X108202D01*
Y-41500D01*
X104300D02*
X108202D01*
X104300Y-49099D02*
Y-41500D01*
X110100Y-48999D02*
X114002D01*
Y-41400D01*
X110100D02*
X114002D01*
X110100Y-48999D02*
Y-41400D01*
X115800Y-48999D02*
X119702D01*
Y-41400D01*
X115800D02*
X119702D01*
X115800Y-48999D02*
Y-41400D01*
X47600Y-25609D02*
X51502D01*
Y-18010D01*
X47600D02*
X51502D01*
X47600Y-25609D02*
Y-18010D01*
X131501Y-98151D02*
Y-94250D01*
Y-98151D02*
X139100D01*
Y-94250D01*
X131501D02*
X139100D01*
X131501Y-94251D02*
Y-90350D01*
Y-94251D02*
X139100D01*
Y-90350D01*
X131501D02*
X139100D01*
X128701Y-113751D02*
Y-109850D01*
Y-113751D02*
X136300D01*
Y-109850D01*
X128701D02*
X136300D01*
X88924Y-138576D02*
X92825D01*
X88924Y-146175D02*
Y-138576D01*
Y-146175D02*
X92825D01*
Y-138576D01*
X-50674Y-45402D02*
Y-41500D01*
Y-45402D02*
X-43075D01*
Y-41500D01*
X-50674D02*
X-43075D01*
X207249Y-28901D02*
X211150D01*
X207249Y-36500D02*
Y-28901D01*
Y-36500D02*
X211150D01*
Y-28901D01*
X207226Y-43575D02*
X214825D01*
Y-47476D02*
Y-43575D01*
X207226Y-47476D02*
X214825D01*
X207226D02*
Y-43575D01*
X216526Y-47476D02*
Y-43575D01*
Y-47476D02*
X224125D01*
Y-43575D01*
X216526D02*
X224125D01*
X207225Y-43275D02*
X214824D01*
X207225D02*
Y-39373D01*
X214824D01*
Y-43275D02*
Y-39373D01*
X-24100Y-184099D02*
X-20198D01*
Y-176500D01*
X-24100D02*
X-20198D01*
X-24100Y-184099D02*
Y-176500D01*
X-18256Y-81519D02*
Y-71480D01*
X-12744D01*
Y-81519D02*
Y-71480D01*
X-18256Y-81519D02*
X-12744D01*
X-18256Y-60981D02*
X-12744D01*
X-18256Y-71020D02*
Y-60981D01*
Y-71020D02*
X-12744D01*
Y-60981D01*
X145000Y-74400D02*
X152599D01*
X145000D02*
Y-70498D01*
X152599D01*
Y-74400D02*
Y-70498D01*
X-50699Y-53502D02*
Y-49600D01*
Y-53502D02*
X-43100D01*
Y-49600D01*
X-50699D02*
X-43100D01*
X140501Y-102700D02*
X148100D01*
Y-106602D02*
Y-102700D01*
X140501Y-106602D02*
X148100D01*
X140501D02*
Y-102700D01*
X205899Y-173300D02*
Y-169398D01*
X198300D02*
X205899D01*
X198300Y-173300D02*
Y-169398D01*
Y-173300D02*
X205899D01*
X215801Y-169900D02*
X223400D01*
Y-173802D02*
Y-169900D01*
X215801Y-173802D02*
X223400D01*
X215801D02*
Y-169900D01*
X223439Y-177950D02*
Y-174049D01*
X215840D02*
X223439D01*
X215840Y-177950D02*
Y-174049D01*
Y-177950D02*
X223439D01*
X-36200Y-30000D02*
Y-22401D01*
X-40102Y-30000D02*
X-36200D01*
X-40102D02*
Y-22401D01*
X-36200D01*
X-31702Y-45888D02*
Y-38289D01*
X-27801D01*
Y-45888D02*
Y-38289D01*
X-31702Y-45888D02*
X-27801D01*
X231262Y-77005D02*
X238861D01*
Y-80906D02*
Y-77005D01*
X231262Y-80906D02*
X238861D01*
X231262D02*
Y-77005D01*
X238998Y-84602D02*
X242900D01*
Y-77003D01*
X238998D02*
X242900D01*
X238998Y-84602D02*
Y-77003D01*
X293104Y790D02*
X300703D01*
X293104D02*
Y4691D01*
X300703D01*
Y790D02*
Y4691D01*
X-12299Y-75002D02*
Y-71100D01*
Y-75002D02*
X-4700D01*
Y-71100D01*
X-12299D02*
X-4700D01*
X-12299Y-67000D02*
X-4700D01*
Y-70902D02*
Y-67000D01*
X-12299Y-70902D02*
X-4700D01*
X-12299D02*
Y-67000D01*
X214798Y-98201D02*
X218700D01*
X214798Y-105800D02*
Y-98201D01*
Y-105800D02*
X218700D01*
Y-98201D01*
X203826Y-84675D02*
X211425D01*
Y-88576D02*
Y-84675D01*
X203826Y-88576D02*
X211425D01*
X203826D02*
Y-84675D01*
X-22449Y-53200D02*
X-18547D01*
X-22449Y-60799D02*
Y-53200D01*
Y-60799D02*
X-18547D01*
Y-53200D01*
X78700Y-47000D02*
Y-39401D01*
X74798Y-47000D02*
X78700D01*
X74798D02*
Y-39401D01*
X78700D01*
X152599Y-70200D02*
Y-66298D01*
X145000D02*
X152599D01*
X145000Y-70200D02*
Y-66298D01*
Y-70200D02*
X152599D01*
X144400Y-102099D02*
Y-94500D01*
X148302D01*
Y-102099D02*
Y-94500D01*
X144400Y-102099D02*
X148302D01*
X138798Y-120101D02*
X142700D01*
X138798Y-127700D02*
Y-120101D01*
Y-127700D02*
X142700D01*
Y-120101D01*
X144700Y-74100D02*
Y-66501D01*
X140798Y-74100D02*
X144700D01*
X140798D02*
Y-66501D01*
X144700D01*
X224124Y-43275D02*
Y-39373D01*
X216525D02*
X224124D01*
X216525Y-43275D02*
Y-39373D01*
Y-43275D02*
X224124D01*
X288653Y11524D02*
X296253D01*
Y7622D02*
Y11524D01*
X288653Y7622D02*
X296253D01*
X288653D02*
Y11524D01*
X293725Y26226D02*
Y33825D01*
X297627D01*
Y26226D02*
Y33825D01*
X293725Y26226D02*
X297627D01*
X20800Y-186099D02*
X24702D01*
Y-178500D01*
X20800D02*
X24702D01*
X20800Y-186099D02*
Y-178500D01*
X64500Y-177999D02*
Y-170400D01*
X68402D01*
Y-177999D02*
Y-170400D01*
X64500Y-177999D02*
X68402D01*
X161000D02*
X164902D01*
Y-170400D01*
X161000D02*
X164902D01*
X161000Y-177999D02*
Y-170400D01*
X14746Y-32087D02*
X18648D01*
X14746Y-39686D02*
Y-32087D01*
Y-39686D02*
X18648D01*
Y-32087D01*
X18846D02*
X22748D01*
X18846Y-39686D02*
Y-32087D01*
Y-39686D02*
X22748D01*
Y-32087D01*
X32601Y-34326D02*
X36502D01*
X32601Y-41925D02*
Y-34326D01*
Y-41925D02*
X36502D01*
Y-34326D01*
X40800Y-45699D02*
Y-38100D01*
X44702D01*
Y-45699D02*
Y-38100D01*
X40800Y-45699D02*
X44702D01*
X73099Y-43300D02*
Y-39398D01*
X65500D02*
X73099D01*
X65500Y-43300D02*
Y-39398D01*
Y-43300D02*
X73099D01*
X62150Y-37599D02*
Y-30000D01*
X66052D01*
Y-37599D02*
Y-30000D01*
X62150Y-37599D02*
X66052D01*
X207201Y-104302D02*
Y-100400D01*
Y-104302D02*
X214800D01*
Y-100400D01*
X207201D02*
X214800D01*
X211250Y-36509D02*
Y-28910D01*
X215152D01*
Y-36509D02*
Y-28910D01*
X211250Y-36509D02*
X215152D01*
X214799Y-108400D02*
Y-104498D01*
X207200D02*
X214799D01*
X207200Y-108400D02*
Y-104498D01*
Y-108400D02*
X214799D01*
X140300Y-102099D02*
Y-94500D01*
X144202D01*
Y-102099D02*
Y-94500D01*
X140300Y-102099D02*
X144202D01*
X141099Y-85300D02*
Y-81398D01*
X133500D02*
X141099D01*
X133500Y-85300D02*
Y-81398D01*
Y-85300D02*
X141099D01*
X138801Y-116000D02*
X146400D01*
Y-119902D02*
Y-116000D01*
X138801Y-119902D02*
X146400D01*
X138801D02*
Y-116000D01*
X223999Y-117200D02*
Y-113298D01*
X216400D02*
X223999D01*
X216400Y-117200D02*
Y-113298D01*
Y-117200D02*
X223999D01*
X210525Y25126D02*
Y32725D01*
X214427D01*
Y25126D02*
Y32725D01*
X210525Y25126D02*
X214427D01*
X206525D02*
Y32725D01*
X210427D01*
Y25126D02*
Y32725D01*
X206525Y25126D02*
X210427D01*
X-16570Y-121656D02*
X-6530D01*
X-16570D02*
Y-116144D01*
X-6530D01*
Y-121656D02*
Y-116144D01*
X211200Y-28050D02*
Y-20450D01*
X207298Y-28050D02*
X211200D01*
X207298D02*
Y-20450D01*
X211200D01*
X6525Y-120275D02*
Y-112676D01*
X2624Y-120275D02*
X6525D01*
X2624D02*
Y-112676D01*
X6525D01*
X-54400Y-155950D02*
X-46630D01*
Y-137250D01*
X-54400D02*
X-46630D01*
X-54400Y-155950D02*
Y-137250D01*
X-60350Y-202800D02*
X-41650D01*
X-60350D02*
Y-195030D01*
X-41650D01*
Y-202800D02*
Y-195030D01*
X-8400Y-160150D02*
X-630D01*
Y-141450D01*
X-8400D02*
X-630D01*
X-8400Y-160150D02*
Y-141450D01*
X24875Y-206775D02*
X43576D01*
X24875D02*
Y-199005D01*
X43576D01*
Y-206775D02*
Y-199005D01*
X2476Y-205875D02*
Y-198105D01*
X-16225D02*
X2476D01*
X-16225Y-205875D02*
Y-198105D01*
Y-205875D02*
X2476D01*
X133125Y-160325D02*
Y-141624D01*
X140895D01*
Y-160325D02*
Y-141624D01*
X133125Y-160325D02*
X140895D01*
X35175Y-153545D02*
Y-145775D01*
Y-153545D02*
X53876D01*
Y-145775D01*
X35175D02*
X53876D01*
X121550Y-206700D02*
X140250D01*
X121550D02*
Y-198930D01*
X140250D01*
Y-206700D02*
Y-198930D01*
X42613Y-60824D02*
Y-56923D01*
Y-60824D02*
X50212D01*
Y-56923D01*
X42613D02*
X50212D01*
X36735Y-26580D02*
X40636D01*
X36735Y-34179D02*
Y-26580D01*
Y-34179D02*
X40636D01*
Y-26580D01*
X18339Y-26797D02*
X22240D01*
Y-19198D01*
X18339D02*
X22240D01*
X18339Y-26797D02*
Y-19198D01*
X-27246Y-19010D02*
X-23344D01*
X-27246Y-26609D02*
Y-19010D01*
Y-26609D02*
X-23344D01*
Y-19010D01*
X27089Y-39691D02*
X30991D01*
Y-32091D01*
X27089D02*
X30991D01*
X27089Y-39691D02*
Y-32091D01*
X18321Y-31887D02*
Y-27986D01*
X10722D02*
X18321D01*
X10722Y-31887D02*
Y-27986D01*
Y-31887D02*
X18321D01*
X-4701Y-85500D02*
Y-81598D01*
X-12300D02*
X-4701D01*
X-12300Y-85500D02*
Y-81598D01*
Y-85500D02*
X-4701D01*
X221999Y28800D02*
Y32702D01*
X214400D02*
X221999D01*
X214400Y28800D02*
Y32702D01*
Y28800D02*
X221999D01*
X79000Y30600D02*
X86599D01*
X79000D02*
Y34502D01*
X86599D01*
Y30600D02*
Y34502D01*
X-30056Y-162020D02*
Y-151980D01*
X-24544D01*
Y-162020D02*
Y-151980D01*
X-30056Y-162020D02*
X-24544D01*
X-31599Y-162200D02*
X-24000D01*
Y-166102D02*
Y-162200D01*
X-31599Y-166102D02*
X-24000D01*
X-31599D02*
Y-162200D01*
X-32801Y-161300D02*
Y-157398D01*
X-40400D02*
X-32801D01*
X-40400Y-161300D02*
Y-157398D01*
Y-161300D02*
X-32801D01*
X-61400Y-188199D02*
Y-180600D01*
X-57498D01*
Y-188199D02*
Y-180600D01*
X-61400Y-188199D02*
X-57498D01*
X-29802Y-166801D02*
X-25900D01*
X-29802Y-174400D02*
Y-166801D01*
Y-174400D02*
X-25900D01*
Y-166801D01*
X-31900Y-179000D02*
X-24301D01*
X-31900D02*
Y-175098D01*
X-24301D01*
Y-179000D02*
Y-175098D01*
X-18694Y-207920D02*
Y-197880D01*
X-24205Y-207920D02*
X-18694D01*
X-24205D02*
Y-197880D01*
X-18694D01*
X-30005Y-197857D02*
X-24494D01*
X-30005Y-207897D02*
Y-197857D01*
Y-207897D02*
X-24494D01*
Y-197857D01*
X-40944Y-152520D02*
Y-142480D01*
X-46456Y-152520D02*
X-40944D01*
X-46456D02*
Y-142480D01*
X-40944D01*
X-35756Y-196480D02*
X-30244D01*
X-35756Y-206520D02*
Y-196480D01*
Y-206520D02*
X-30244D01*
Y-196480D01*
X-67020Y-194856D02*
X-56980D01*
X-67020D02*
Y-189344D01*
X-56980D01*
Y-194856D02*
Y-189344D01*
X-41456Y-205120D02*
X-35944D01*
Y-195080D01*
X-41456D02*
X-35944D01*
X-41456Y-205120D02*
Y-195080D01*
X-33320Y-196456D02*
X-23280D01*
X-33320D02*
Y-190944D01*
X-23280D01*
Y-196456D02*
Y-190944D01*
X-30880Y-157456D02*
Y-151944D01*
X-40920D02*
X-30880D01*
X-40920Y-157456D02*
Y-151944D01*
Y-157456D02*
X-30880D01*
X129350Y-70839D02*
Y-66937D01*
Y-70839D02*
X136950D01*
Y-66937D01*
X129350D02*
X136950D01*
X55300Y-77700D02*
Y-70101D01*
X51398Y-77700D02*
X55300D01*
X51398D02*
Y-70101D01*
X55300D01*
X126000Y-107772D02*
X129902D01*
Y-100173D01*
X126000D02*
X129902D01*
X126000Y-107772D02*
Y-100173D01*
X86462Y-123820D02*
X94061D01*
Y-127722D02*
Y-123820D01*
X86462Y-127722D02*
X94061D01*
X86462D02*
Y-123820D01*
X-44202Y-22401D02*
X-40300D01*
X-44202Y-30000D02*
Y-22401D01*
Y-30000D02*
X-40300D01*
Y-22401D01*
X-19299Y-104000D02*
X-11700D01*
Y-107902D02*
Y-104000D01*
X-19299Y-107902D02*
X-11700D01*
X-19299D02*
Y-104000D01*
X-4701Y-79100D02*
Y-75198D01*
X-12300D02*
X-4701D01*
X-12300Y-79100D02*
Y-75198D01*
Y-79100D02*
X-4701D01*
X35901Y-71350D02*
X43500D01*
Y-75251D02*
Y-71350D01*
X35901Y-75251D02*
X43500D01*
X35901D02*
Y-71350D01*
X-4701Y-66700D02*
Y-62798D01*
X-12300D02*
X-4701D01*
X-12300Y-66700D02*
Y-62798D01*
Y-66700D02*
X-4701D01*
X-14700Y-101299D02*
Y-93700D01*
X-10798D01*
Y-101299D02*
Y-93700D01*
X-14700Y-101299D02*
X-10798D01*
X701Y-91202D02*
Y-87300D01*
Y-91202D02*
X8300D01*
Y-87300D01*
X701D02*
X8300D01*
X2565Y-84821D02*
X10165D01*
X2565D02*
Y-80920D01*
X10165D01*
Y-84821D02*
Y-80920D01*
X47891Y-94480D02*
Y-90578D01*
X40292D02*
X47891D01*
X40292Y-94480D02*
Y-90578D01*
Y-94480D02*
X47891D01*
X38800Y-86600D02*
Y-79001D01*
X34898Y-86600D02*
X38800D01*
X34898D02*
Y-79001D01*
X38800D01*
X130925Y-74972D02*
Y-71071D01*
Y-74972D02*
X138524D01*
Y-71071D01*
X130925D02*
X138524D01*
X-19300Y-115900D02*
X-3732D01*
X-19300Y-108130D02*
X-3732D01*
Y-115900D02*
Y-108130D01*
X-19300Y-115900D02*
Y-108130D01*
X129301Y-65702D02*
Y-61800D01*
Y-65702D02*
X136900D01*
Y-61800D01*
X129301D02*
X136900D01*
X96300Y-51999D02*
Y-44400D01*
X100202D01*
Y-51999D02*
Y-44400D01*
X96300Y-51999D02*
X100202D01*
X214580Y-209956D02*
X224620D01*
X214580D02*
Y-204444D01*
X224620D01*
Y-209956D02*
Y-204444D01*
X243080Y-124656D02*
Y-119144D01*
Y-124656D02*
X253120D01*
Y-119144D01*
X243080D02*
X253120D01*
X11366Y-121653D02*
X15268D01*
Y-114054D01*
X11366D02*
X15268D01*
X11366Y-121653D02*
Y-114054D01*
X43158Y-121365D02*
Y-113765D01*
X47059D01*
Y-121365D02*
Y-113765D01*
X43158Y-121365D02*
X47059D01*
X43158Y-96240D02*
X47059D01*
X43158Y-103839D02*
Y-96240D01*
Y-103839D02*
X47059D01*
Y-96240D01*
X15268Y-104430D02*
Y-96831D01*
X11366Y-104430D02*
X15268D01*
X11366D02*
Y-96831D01*
X15268D01*
X-28547Y-60799D02*
X-24646D01*
Y-53200D01*
X-28547D02*
X-24646D01*
X-28547Y-60799D02*
Y-53200D01*
X104944Y-146716D02*
X112543D01*
Y-150617D02*
Y-146716D01*
X104944Y-150617D02*
X112543D01*
X104944D02*
Y-146716D01*
X103844Y-166956D02*
Y-163054D01*
Y-166956D02*
X111443D01*
Y-163054D01*
X103844D02*
X111443D01*
X97168Y-150617D02*
X104767D01*
X97168D02*
Y-146716D01*
X104767D01*
Y-150617D02*
Y-146716D01*
X103667Y-166956D02*
Y-163054D01*
X96068D02*
X103667D01*
X96068Y-166956D02*
Y-163054D01*
Y-166956D02*
X103667D01*
X89687Y-150617D02*
X97287D01*
X89687D02*
Y-146716D01*
X97287D01*
Y-150617D02*
Y-146716D01*
X95891Y-166956D02*
Y-163054D01*
X88292D02*
X95891D01*
X88292Y-166956D02*
Y-163054D01*
Y-166956D02*
X95891D01*
X133501Y-77500D02*
X141100D01*
Y-81402D02*
Y-77500D01*
X133501Y-81402D02*
X141100D01*
X133501D02*
Y-77500D01*
X287969Y25005D02*
Y35045D01*
X293481D01*
Y25005D02*
Y35045D01*
X287969Y25005D02*
X293481D01*
X278120Y-151156D02*
Y-145644D01*
X268080D02*
X278120D01*
X268080Y-151156D02*
Y-145644D01*
Y-151156D02*
X278120D01*
X257380Y-145644D02*
X267420D01*
Y-151156D02*
Y-145644D01*
X257380Y-151156D02*
X267420D01*
X257380D02*
Y-145644D01*
X268170Y-145405D02*
Y-139894D01*
X258131D02*
X268170D01*
X258131Y-145405D02*
Y-139894D01*
Y-145405D02*
X268170D01*
X235456Y-128620D02*
Y-118580D01*
X229944Y-128620D02*
X235456D01*
X229944D02*
Y-118580D01*
X235456D01*
X14844Y-165420D02*
X20356D01*
Y-155380D01*
X14844D02*
X20356D01*
X14844Y-165420D02*
Y-155380D01*
X13139Y-165800D02*
X20738D01*
Y-169702D02*
Y-165800D01*
X13139Y-169702D02*
X20738D01*
X13139D02*
Y-165800D01*
X14798Y-170501D02*
X18700D01*
X14798Y-178100D02*
Y-170501D01*
Y-178100D02*
X18700D01*
Y-170501D01*
X-16800Y-191599D02*
Y-184000D01*
X-12898D01*
Y-191599D02*
Y-184000D01*
X-16800Y-191599D02*
X-12898D01*
X12799Y-163900D02*
Y-159998D01*
X5200D02*
X12799D01*
X5200Y-163900D02*
Y-159998D01*
Y-163900D02*
X12799D01*
X13200Y-182800D02*
X20799D01*
X13200D02*
Y-178898D01*
X20799D01*
Y-182800D02*
Y-178898D01*
X46280Y-208644D02*
X56320D01*
Y-214156D02*
Y-208644D01*
X46280Y-214156D02*
X56320D01*
X46280D02*
Y-208644D01*
X14369Y-199955D02*
X19881D01*
X14369Y-209995D02*
Y-199955D01*
Y-209995D02*
X19881D01*
Y-199955D01*
X5056Y-154420D02*
Y-144380D01*
X-456Y-154420D02*
X5056D01*
X-456D02*
Y-144380D01*
X5056D01*
X3569Y-199955D02*
X9081D01*
X3569Y-209995D02*
Y-199955D01*
Y-209995D02*
X9081D01*
Y-199955D01*
X-22995Y-197431D02*
X-12955D01*
X-22995D02*
Y-191919D01*
X-12955D01*
Y-197431D02*
Y-191919D01*
X-6920Y-212356D02*
Y-206844D01*
Y-212356D02*
X3120D01*
Y-206844D01*
X-6920D02*
X3120D01*
X8080Y-199656D02*
X18120D01*
X8080D02*
Y-194144D01*
X18120D01*
Y-199656D02*
Y-194144D01*
X13720Y-159956D02*
Y-154444D01*
X3680D02*
X13720D01*
X3680Y-159956D02*
Y-154444D01*
Y-159956D02*
X13720D01*
X57280Y-199556D02*
X67320D01*
X57280D02*
Y-194044D01*
X67320D01*
Y-199556D02*
Y-194044D01*
X58620Y-159956D02*
Y-154444D01*
X48580D02*
X58620D01*
X48580Y-159956D02*
Y-154444D01*
Y-159956D02*
X58620D01*
X60180Y-160144D02*
X70220D01*
Y-165656D02*
Y-160144D01*
X60180Y-165656D02*
X70220D01*
X60180D02*
Y-160144D01*
X58801Y-169602D02*
Y-165700D01*
Y-169602D02*
X66400D01*
Y-165700D01*
X58801D02*
X66400D01*
X63700Y-178000D02*
Y-170401D01*
X59798Y-178000D02*
X63700D01*
X59798D02*
Y-170401D01*
X63700D01*
X57899Y-163900D02*
Y-159998D01*
X50300D02*
X57899D01*
X50300Y-163900D02*
Y-159998D01*
Y-163900D02*
X57899D01*
X28300Y-190499D02*
Y-182900D01*
X32202D01*
Y-190499D02*
Y-182900D01*
X28300Y-190499D02*
X32202D01*
X66699Y-182600D02*
Y-178698D01*
X59100D02*
X66699D01*
X59100Y-182600D02*
Y-178698D01*
Y-182600D02*
X66699D01*
X102280Y-184656D02*
Y-179144D01*
Y-184656D02*
X112320D01*
Y-179144D01*
X102280D02*
X112320D01*
X83844Y-184220D02*
Y-174180D01*
X89356D01*
Y-184220D02*
Y-174180D01*
X83844Y-184220D02*
X89356D01*
X44820Y-159256D02*
Y-153744D01*
X34780D02*
X44820D01*
X34780Y-159256D02*
Y-153744D01*
Y-159256D02*
X44820D01*
X53180Y-200644D02*
X63220D01*
Y-206156D02*
Y-200644D01*
X53180Y-206156D02*
X63220D01*
X53180D02*
Y-200644D01*
X32120Y-198856D02*
Y-193344D01*
X22080D02*
X32120D01*
X22080Y-198856D02*
Y-193344D01*
Y-198856D02*
X32120D01*
X43869Y-208395D02*
Y-198355D01*
X49381D01*
Y-208395D02*
Y-198355D01*
X43869Y-208395D02*
X49381D01*
X163320Y-200256D02*
Y-194744D01*
X153280D02*
X163320D01*
X153280Y-200256D02*
Y-194744D01*
Y-200256D02*
X163320D01*
X144880Y-159856D02*
X154920D01*
X144880D02*
Y-154344D01*
X154920D01*
Y-159856D02*
Y-154344D01*
X156244Y-165020D02*
X161756D01*
Y-154980D01*
X156244D02*
X161756D01*
X156244Y-165020D02*
Y-154980D01*
X154601Y-165700D02*
X162200D01*
Y-169602D02*
Y-165700D01*
X154601Y-169602D02*
X162200D01*
X154601D02*
Y-165700D01*
X156298Y-170401D02*
X160200D01*
X156298Y-178000D02*
Y-170401D01*
Y-178000D02*
X160200D01*
Y-170401D01*
X124700Y-190699D02*
Y-183100D01*
X128602D01*
Y-190699D02*
Y-183100D01*
X124700Y-190699D02*
X128602D01*
X154199Y-163800D02*
Y-159898D01*
X146600D02*
X154199D01*
X146600Y-163800D02*
Y-159898D01*
Y-163800D02*
X154199D01*
X154700Y-183000D02*
X162299D01*
X154700D02*
Y-179098D01*
X162299D01*
Y-183000D02*
Y-179098D01*
X170156Y-209220D02*
Y-199180D01*
X164644Y-209220D02*
X170156D01*
X164644D02*
Y-199180D01*
X170156D01*
X153444Y-210597D02*
X158956D01*
Y-200557D01*
X153444D02*
X158956D01*
X153444Y-210597D02*
Y-200557D01*
X146656Y-154320D02*
Y-144280D01*
X141144Y-154320D02*
X146656D01*
X141144D02*
Y-144280D01*
X146656D01*
X131280Y-213656D02*
Y-208144D01*
Y-213656D02*
X141320D01*
Y-208144D01*
X131280D02*
X141320D01*
X113980Y-190056D02*
X124020D01*
X113980D02*
Y-184544D01*
X124020D01*
Y-190056D02*
Y-184544D01*
X150920Y-205456D02*
Y-199944D01*
X140880D02*
X150920D01*
X140880Y-205456D02*
Y-199944D01*
Y-205456D02*
X150920D01*
X216400Y-112900D02*
X223999D01*
X216400D02*
Y-108998D01*
X223999D01*
Y-112900D02*
Y-108998D01*
X211298Y-20450D02*
X215200D01*
X211298Y-28050D02*
Y-20450D01*
Y-28050D02*
X215200D01*
Y-20450D01*
X-4534Y-26210D02*
X3065D01*
X-4534D02*
Y-22309D01*
X3065D01*
Y-26210D02*
Y-22309D01*
X45400Y-42400D02*
X52999D01*
X45400D02*
Y-38498D01*
X52999D01*
Y-42400D02*
Y-38498D01*
X284642Y28107D02*
Y33619D01*
X274602D02*
X284642D01*
X274602Y28107D02*
Y33619D01*
Y28107D02*
X284642D01*
X288653Y19791D02*
X296253D01*
Y15890D02*
Y19791D01*
X288653Y15890D02*
X296253D01*
X288653D02*
Y19791D01*
X288638Y15657D02*
X296238D01*
Y11756D02*
Y15657D01*
X288638Y11756D02*
X296238D01*
X288638D02*
Y15657D01*
X168691Y-43000D02*
X176290D01*
Y-46902D02*
Y-43000D01*
X168691Y-46902D02*
X176290D01*
X168691D02*
Y-43000D01*
X184700Y-47000D02*
X192299D01*
X184700D02*
Y-43098D01*
X192299D01*
Y-47000D02*
Y-43098D01*
X210600Y16101D02*
Y23700D01*
X214502D01*
Y16101D02*
Y23700D01*
X210600Y16101D02*
X214502D01*
X140091Y-40700D02*
X147690D01*
Y-44602D02*
Y-40700D01*
X140091Y-44602D02*
X147690D01*
X140091D02*
Y-40700D01*
X206500Y16101D02*
Y23700D01*
X210402D01*
Y16101D02*
Y23700D01*
X206500Y16101D02*
X210402D01*
X140101Y-36600D02*
X147700D01*
Y-40502D02*
Y-36600D01*
X140101Y-40502D02*
X147700D01*
X140101D02*
Y-36600D01*
G54D154*
X205861Y-49828D02*
Y-45105D01*
X202686Y-49828D02*
Y-45105D01*
X206277Y-99675D02*
X211000D01*
X206277Y-96500D02*
X211000D01*
X226133Y-116161D02*
Y-88581D01*
X251728Y-116161D02*
Y-88581D01*
X-35600Y-28723D02*
Y-24000D01*
X-32425Y-28723D02*
Y-24000D01*
X-26258Y-44587D02*
Y-39865D01*
X-23083Y-44587D02*
Y-39865D01*
X15828Y-51071D02*
Y-45118D01*
X28130Y-51071D02*
Y-45118D01*
X105675Y-145023D02*
Y-139070D01*
X93372Y-145023D02*
Y-139070D01*
Y-160574D02*
Y-154621D01*
X105675Y-160574D02*
Y-154621D01*
Y-174550D02*
Y-168598D01*
X93372Y-174550D02*
Y-168598D01*
G54D155*
X58095Y-216937D02*
Y-212213D01*
X66756Y-216937D02*
Y-212213D01*
X58095D02*
X66756D01*
X58095Y-216937D02*
X66756D01*
X22794Y-212537D02*
Y-207813D01*
X31456Y-212537D02*
Y-207813D01*
X22794D02*
X31456D01*
X22794Y-212537D02*
X31456D01*
X9363Y-199944D02*
X14087D01*
X9363Y-208606D02*
X14087D01*
Y-199944D01*
X9363Y-208606D02*
Y-199944D01*
X4694Y-217437D02*
Y-212713D01*
X13356Y-217437D02*
Y-212713D01*
X4694D02*
X13356D01*
X4694Y-217437D02*
X13356D01*
X-6905Y-217337D02*
Y-212613D01*
X1756Y-217337D02*
Y-212613D01*
X-6905D02*
X1756D01*
X-6905Y-217337D02*
X1756D01*
X-15137Y-208262D02*
X-10413D01*
X-15137Y-216924D02*
X-10413D01*
Y-208262D01*
X-15137Y-216924D02*
Y-208262D01*
X-32937Y-208244D02*
X-28213D01*
X-32937Y-216905D02*
X-28213D01*
Y-208244D01*
X-32937Y-216905D02*
Y-208244D01*
X-13631Y-90462D02*
Y-85738D01*
X-4969Y-90462D02*
Y-85738D01*
X-13631D02*
X-4969D01*
X-13631Y-90462D02*
X-4969D01*
X133269Y-57038D02*
X141931D01*
X133269Y-61762D02*
X141931D01*
X133269D02*
Y-57038D01*
X141931Y-61762D02*
Y-57038D01*
X130938Y-125231D02*
Y-116569D01*
X135662Y-125231D02*
Y-116569D01*
X130938Y-125231D02*
X135662D01*
X130938Y-116569D02*
X135662D01*
X128431Y-198362D02*
Y-193638D01*
X119769Y-198362D02*
Y-193638D01*
Y-198362D02*
X128431D01*
X119769Y-193638D02*
X128431D01*
X43256Y-212537D02*
Y-207813D01*
X34595Y-212537D02*
Y-207813D01*
Y-212537D02*
X43256D01*
X34595Y-207813D02*
X43256D01*
X47669Y-48262D02*
X56331D01*
X47669Y-43538D02*
X56331D01*
Y-48262D02*
Y-43538D01*
X47669Y-48262D02*
Y-43538D01*
X55350Y-51475D02*
Y-48325D01*
X49050Y-51475D02*
Y-48325D01*
Y-51475D02*
X55350D01*
X49050Y-48325D02*
X55350D01*
X150650Y-83575D02*
Y-80425D01*
X144350Y-83575D02*
Y-80425D01*
Y-83575D02*
X150650D01*
X144350Y-80425D02*
X150650D01*
X-24637Y-208244D02*
X-19913D01*
X-24637Y-216905D02*
X-19913D01*
Y-208244D01*
X-24637Y-216905D02*
Y-208244D01*
X73969Y-190162D02*
Y-185438D01*
X82631Y-190162D02*
Y-185438D01*
X73969D02*
X82631D01*
X73969Y-190162D02*
X82631D01*
X87669D02*
Y-185438D01*
X96331Y-190162D02*
Y-185438D01*
X87669D02*
X96331D01*
X87669Y-190162D02*
X96331D01*
X98569D02*
Y-185438D01*
X107231Y-190162D02*
Y-185438D01*
X98569D02*
X107231D01*
X98569Y-190162D02*
X107231D01*
X125338Y-208869D02*
X130062D01*
X125338Y-217531D02*
X130062D01*
Y-208869D01*
X125338Y-217531D02*
Y-208869D01*
X142069Y-213662D02*
Y-208938D01*
X150731Y-213662D02*
Y-208938D01*
X142069D02*
X150731D01*
X142069Y-213662D02*
X150731D01*
X159438Y-202769D02*
X164162D01*
X159438Y-211431D02*
X164162D01*
Y-202769D01*
X159438Y-211431D02*
Y-202769D01*
X206000Y-108124D02*
Y-101825D01*
X202850Y-108124D02*
Y-101825D01*
X206000D01*
X202850Y-108124D02*
X206000D01*
X203676Y-77200D02*
X209975D01*
X203676Y-80350D02*
X209975D01*
X203676D02*
Y-77200D01*
X209975Y-80350D02*
Y-77200D01*
X274391Y5735D02*
X287383D01*
X274391Y27783D02*
X287383D01*
X274391Y5735D02*
Y27783D01*
X287383Y5735D02*
Y27783D01*
X51235Y-64139D02*
Y-60990D01*
X57534Y-64139D02*
Y-60990D01*
X51235D02*
X57534D01*
X51235Y-64139D02*
X57534D01*
X-18375Y-19550D02*
X-15225D01*
X-18375Y-25850D02*
X-15225D01*
Y-19550D01*
X-18375Y-25850D02*
Y-19550D01*
X10979Y-26147D02*
X14128D01*
X10979Y-19848D02*
X14128D01*
X10979Y-26147D02*
Y-19848D01*
X14128Y-26147D02*
Y-19848D01*
G54D156*
X277706Y-48549D02*
D03*
G54D157*
X219329Y-123705D02*
D03*
X213810Y-227222D02*
D03*
X213902Y-215241D02*
D03*
X246454Y15220D02*
D03*
G54D158*
X205600Y-174640D02*
D03*
X285084Y428D02*
D03*
X-60100Y-53862D02*
D03*
Y-45862D02*
D03*
G54D159*
X205600Y-179402D02*
D03*
X285084Y5190D02*
D03*
X-60100Y-49100D02*
D03*
Y-41100D02*
D03*
G54D160*
X205600Y-177007D02*
D03*
X285084Y2795D02*
D03*
X-60100Y-51495D02*
D03*
Y-43495D02*
D03*
G54D161*
X212463Y-83575D02*
D03*
X219338Y-98100D02*
D03*
X22815Y-82018D02*
D03*
X27634Y-68651D02*
D03*
G54D162*
X217226Y-83575D02*
D03*
X224100Y-98100D02*
D03*
X27577Y-82018D02*
D03*
X22872Y-68651D02*
D03*
G54D163*
X214830Y-83575D02*
D03*
X221705Y-98100D02*
D03*
X25182Y-82018D02*
D03*
X25267Y-68651D02*
D03*
G54D164*
X238887Y-108194D02*
D03*
M02*
