G04 Layer_Color=16711935*
%FSLAX25Y25*%
%MOIN*%
G70*
G01*
G75*
%ADD120C,0.03000*%
%ADD135C,0.08400*%
%ADD213C,0.06305*%
G04:AMPARAMS|DCode=231|XSize=54mil|YSize=54mil|CornerRadius=27mil|HoleSize=0mil|Usage=FLASHONLY|Rotation=270.000|XOffset=0mil|YOffset=0mil|HoleType=Round|Shape=RoundedRectangle|*
%AMROUNDEDRECTD231*
21,1,0.05400,0.00000,0,0,270.0*
21,1,0.00000,0.05400,0,0,270.0*
1,1,0.05400,0.00000,0.00000*
1,1,0.05400,0.00000,0.00000*
1,1,0.05400,0.00000,0.00000*
1,1,0.05400,0.00000,0.00000*
%
%ADD231ROUNDEDRECTD231*%
%ADD265R,0.06400X0.12400*%
%ADD266O,0.06400X0.12400*%
G04:AMPARAMS|DCode=267|XSize=137mil|YSize=87mil|CornerRadius=0mil|HoleSize=0mil|Usage=FLASHONLY|Rotation=270.000|XOffset=0mil|YOffset=0mil|HoleType=Round|Shape=Octagon|*
%AMOCTAGOND267*
4,1,8,-0.02175,-0.06850,0.02175,-0.06850,0.04350,-0.04675,0.04350,0.04675,0.02175,0.06850,-0.02175,0.06850,-0.04350,0.04675,-0.04350,-0.04675,-0.02175,-0.06850,0.0*
%
%ADD267OCTAGOND267*%

%ADD268O,0.12400X0.06400*%
%ADD269P,0.08010X8X292.5*%
%ADD270C,0.10400*%
%ADD271C,0.05800*%
%ADD272C,0.13450*%
%ADD273P,0.07144X8X22.5*%
%ADD274O,0.08650X0.16900*%
%ADD275R,0.06305X0.06305*%
%ADD276C,0.06305*%
%ADD277O,0.13400X0.14000*%
%ADD278R,0.06305X0.06305*%
%ADD279R,0.07045X0.03543*%
G04:AMPARAMS|DCode=280|XSize=50mil|YSize=67mil|CornerRadius=13.5mil|HoleSize=0mil|Usage=FLASHONLY|Rotation=90.000|XOffset=0mil|YOffset=0mil|HoleType=Round|Shape=RoundedRectangle|*
%AMROUNDEDRECTD280*
21,1,0.05000,0.04000,0,0,90.0*
21,1,0.02300,0.06700,0,0,90.0*
1,1,0.02700,0.02000,0.01150*
1,1,0.02700,0.02000,-0.01150*
1,1,0.02700,-0.02000,-0.01150*
1,1,0.02700,-0.02000,0.01150*
%
%ADD280ROUNDEDRECTD280*%
G04:AMPARAMS|DCode=281|XSize=54mil|YSize=54mil|CornerRadius=27mil|HoleSize=0mil|Usage=FLASHONLY|Rotation=0.000|XOffset=0mil|YOffset=0mil|HoleType=Round|Shape=RoundedRectangle|*
%AMROUNDEDRECTD281*
21,1,0.05400,0.00000,0,0,0.0*
21,1,0.00000,0.05400,0,0,0.0*
1,1,0.05400,0.00000,0.00000*
1,1,0.05400,0.00000,0.00000*
1,1,0.05400,0.00000,0.00000*
1,1,0.05400,0.00000,0.00000*
%
%ADD281ROUNDEDRECTD281*%
%ADD282R,0.05321X0.03747*%
G04:AMPARAMS|DCode=283|XSize=62mil|YSize=62mil|CornerRadius=31mil|HoleSize=0mil|Usage=FLASHONLY|Rotation=270.000|XOffset=0mil|YOffset=0mil|HoleType=Round|Shape=RoundedRectangle|*
%AMROUNDEDRECTD283*
21,1,0.06200,0.00000,0,0,270.0*
21,1,0.00000,0.06200,0,0,270.0*
1,1,0.06200,0.00000,0.00000*
1,1,0.06200,0.00000,0.00000*
1,1,0.06200,0.00000,0.00000*
1,1,0.06200,0.00000,0.00000*
%
%ADD283ROUNDEDRECTD283*%
%ADD284R,0.06305X0.06305*%
G36*
X243700Y-181400D02*
X234600D01*
Y-167500D01*
X243700D01*
Y-181400D01*
D02*
G37*
G36*
X273205Y-133139D02*
X264105D01*
Y-119239D01*
X273205D01*
Y-133139D01*
D02*
G37*
G36*
X272705Y-181439D02*
X263605D01*
Y-167539D01*
X272705D01*
Y-181439D01*
D02*
G37*
G36*
Y-234439D02*
X263605D01*
Y-220539D01*
X272705D01*
Y-234439D01*
D02*
G37*
G36*
X243700Y-234400D02*
X234600D01*
Y-220500D01*
X243700D01*
Y-234400D01*
D02*
G37*
G36*
X273205Y-80139D02*
X264105D01*
Y-66239D01*
X273205D01*
Y-80139D01*
D02*
G37*
G36*
X200569Y7571D02*
X192668Y4571D01*
X193869Y5771D01*
Y9371D01*
X192668Y10571D01*
X200569Y7571D01*
D02*
G37*
G36*
Y17571D02*
X192668Y14571D01*
X193869Y15771D01*
Y19371D01*
X192668Y20571D01*
X200569Y17571D01*
D02*
G37*
G36*
Y-2429D02*
X192668Y-5429D01*
X193869Y-4229D01*
Y-629D01*
X192668Y571D01*
X200569Y-2429D01*
D02*
G37*
G36*
Y-22429D02*
X192668Y-25429D01*
X193869Y-24229D01*
Y-20629D01*
X192668Y-19429D01*
X200569Y-22429D01*
D02*
G37*
G36*
Y-12429D02*
X192668Y-15429D01*
X193869Y-14229D01*
Y-10629D01*
X192668Y-9429D01*
X200569Y-12429D01*
D02*
G37*
G54D120*
X136569Y-173098D02*
D03*
X145231Y-186091D02*
D03*
X140900D02*
D03*
X136569D02*
D03*
X145231Y-181760D02*
D03*
X140900D02*
D03*
X136569D02*
D03*
X145231Y-177429D02*
D03*
X140900D02*
D03*
X136569D02*
D03*
X145231Y-173098D02*
D03*
X140900D02*
D03*
X44500D02*
D03*
X48831D02*
D03*
X40169Y-177429D02*
D03*
X44500D02*
D03*
X48831D02*
D03*
X40169Y-181760D02*
D03*
X44500D02*
D03*
X48831D02*
D03*
X40169Y-186091D02*
D03*
X44500D02*
D03*
X48831D02*
D03*
X40169Y-173098D02*
D03*
X-4831D02*
D03*
X3831Y-186091D02*
D03*
X-500D02*
D03*
X-4831D02*
D03*
X3831Y-181760D02*
D03*
X-500D02*
D03*
X-4831D02*
D03*
X3831Y-177429D02*
D03*
X-500D02*
D03*
X-4831D02*
D03*
X3831Y-173098D02*
D03*
X-500D02*
D03*
X-45238Y-169498D02*
D03*
X-40907D02*
D03*
X-49569Y-173829D02*
D03*
X-45238D02*
D03*
X-40907D02*
D03*
X-49569Y-178160D02*
D03*
X-45238D02*
D03*
X-40907D02*
D03*
X-49569Y-182491D02*
D03*
X-45238D02*
D03*
X-40907D02*
D03*
X-49569Y-169498D02*
D03*
X210081Y-186832D02*
D03*
Y-182832D02*
D03*
X206081D02*
D03*
Y-186832D02*
D03*
X202081D02*
D03*
Y-182832D02*
D03*
X198081D02*
D03*
Y-186832D02*
D03*
Y-194832D02*
D03*
Y-198832D02*
D03*
X202081D02*
D03*
Y-194832D02*
D03*
X206081D02*
D03*
Y-198832D02*
D03*
X210081D02*
D03*
Y-194832D02*
D03*
Y-190832D02*
D03*
X206081D02*
D03*
X198081D02*
D03*
X202081D02*
D03*
X242613Y-50723D02*
D03*
Y-46723D02*
D03*
Y-54723D02*
D03*
Y-58723D02*
D03*
X238613D02*
D03*
X234613D02*
D03*
Y-54723D02*
D03*
X238613D02*
D03*
Y-50723D02*
D03*
X234613D02*
D03*
Y-46723D02*
D03*
X238613D02*
D03*
X246613D02*
D03*
X250613D02*
D03*
Y-50723D02*
D03*
X246613D02*
D03*
Y-54723D02*
D03*
X250613D02*
D03*
Y-58723D02*
D03*
X246613D02*
D03*
X11740Y-65260D02*
D03*
Y-69000D02*
D03*
Y-72740D02*
D03*
X8000D02*
D03*
X4260Y-72839D02*
D03*
X4279Y-69000D02*
D03*
X4231Y-65224D02*
D03*
X8000Y-65260D02*
D03*
Y-69000D02*
D03*
G54D135*
X332067Y-199449D02*
D03*
G54D213*
X191668Y17571D02*
D03*
Y7571D02*
D03*
Y-2429D02*
D03*
Y-12429D02*
D03*
Y-22429D02*
D03*
G54D231*
X120000Y-150000D02*
D03*
X10000Y0D02*
D03*
X70000Y-40000D02*
D03*
X-30000Y-70000D02*
D03*
X-20000Y-80000D02*
D03*
X120000Y-160000D02*
D03*
X100000Y-170000D02*
D03*
X80000Y-160000D02*
D03*
X-10000Y-210000D02*
D03*
X-30000D02*
D03*
X-20000D02*
D03*
X170000Y-20000D02*
D03*
X150000Y-120000D02*
D03*
X209700Y-223200D02*
D03*
X-60000Y-200000D02*
D03*
X50000Y-210000D02*
D03*
X30000D02*
D03*
X40000D02*
D03*
X0D02*
D03*
X110000D02*
D03*
X90000D02*
D03*
X100000D02*
D03*
X80000D02*
D03*
X150000D02*
D03*
X130000D02*
D03*
X140000D02*
D03*
X120000D02*
D03*
X210000Y-70000D02*
D03*
X220000Y-90000D02*
D03*
X230000Y-120000D02*
D03*
X150000Y-220000D02*
D03*
X140000D02*
D03*
X60000D02*
D03*
X30000D02*
D03*
X10000D02*
D03*
X0D02*
D03*
X-10000D02*
D03*
X-20000D02*
D03*
X-30000Y-20000D02*
D03*
G54D265*
X56221Y-5354D02*
D03*
X160008Y-229735D02*
D03*
X108787Y-229775D02*
D03*
Y-202216D02*
D03*
X57606Y-229775D02*
D03*
X6425D02*
D03*
X76221Y18268D02*
D03*
X-6457D02*
D03*
X34882D02*
D03*
X-26457Y-5354D02*
D03*
X14882D02*
D03*
G54D266*
X66220D02*
D03*
X76221D02*
D03*
X150008Y-229735D02*
D03*
X140008D02*
D03*
X130008D02*
D03*
X78787Y-229775D02*
D03*
X88787D02*
D03*
X98787D02*
D03*
Y-202216D02*
D03*
X88787D02*
D03*
X78787D02*
D03*
X27606Y-229775D02*
D03*
X37606D02*
D03*
X47606D02*
D03*
X-3575D02*
D03*
X-13575D02*
D03*
X-23575D02*
D03*
X66220Y18268D02*
D03*
X56221D02*
D03*
X-16457D02*
D03*
X-26457D02*
D03*
X24882D02*
D03*
X14882D02*
D03*
X-16457Y-5354D02*
D03*
X-6457D02*
D03*
X24882D02*
D03*
X34882D02*
D03*
G54D267*
X274900Y-227500D02*
D03*
X261500D02*
D03*
Y-174500D02*
D03*
X274900D02*
D03*
X262000Y-126200D02*
D03*
X275400D02*
D03*
Y-73200D02*
D03*
X262000D02*
D03*
X245895Y-227461D02*
D03*
X232495D02*
D03*
Y-174461D02*
D03*
X245895D02*
D03*
G54D268*
X165039Y-88937D02*
D03*
Y-98937D02*
D03*
Y-120039D02*
D03*
Y-130039D02*
D03*
Y-57835D02*
D03*
Y-67835D02*
D03*
X189400Y-77900D02*
D03*
Y-67900D02*
D03*
Y-57900D02*
D03*
X189300Y-119300D02*
D03*
Y-109300D02*
D03*
Y-99300D02*
D03*
G54D269*
X-60727Y-12202D02*
D03*
Y-30002D02*
D03*
G54D270*
X-50927Y-7302D02*
D03*
Y-34902D02*
D03*
G54D271*
X-25416Y-93032D02*
D03*
Y-83110D02*
D03*
X-33316D02*
D03*
Y-93032D02*
D03*
G54D272*
X-44016Y-64410D02*
D03*
Y-111732D02*
D03*
G54D273*
X-16747Y-43544D02*
D03*
Y-33544D02*
D03*
X-6747Y-43544D02*
D03*
Y-33544D02*
D03*
X3253Y-43544D02*
D03*
Y-33544D02*
D03*
G54D274*
X191100Y-145700D02*
D03*
X211100D02*
D03*
G54D275*
X107400Y14400D02*
D03*
Y-23100D02*
D03*
G54D276*
Y24400D02*
D03*
X117400Y14400D02*
D03*
Y24400D02*
D03*
X127400Y14400D02*
D03*
Y24400D02*
D03*
X137400Y14400D02*
D03*
Y24400D02*
D03*
X147400Y14400D02*
D03*
Y24400D02*
D03*
X107400Y-13100D02*
D03*
X117400Y-23100D02*
D03*
Y-13100D02*
D03*
X127400Y-23100D02*
D03*
Y-13100D02*
D03*
X137400Y-23100D02*
D03*
Y-13100D02*
D03*
X147400Y-23100D02*
D03*
Y-13100D02*
D03*
X181668Y-22429D02*
D03*
Y-12429D02*
D03*
Y-2429D02*
D03*
Y7571D02*
D03*
G54D277*
X293700Y-183050D02*
D03*
Y-150550D02*
D03*
Y-118050D02*
D03*
Y-85550D02*
D03*
Y-53050D02*
D03*
Y-20550D02*
D03*
G54D278*
X181668Y17571D02*
D03*
G54D279*
X322178Y-199998D02*
D03*
X-37052Y2424D02*
D03*
X-35252Y-233676D02*
D03*
X322148Y-4176D02*
D03*
X16241Y-54961D02*
D03*
G54D280*
X322100Y-196900D02*
D03*
Y-202900D02*
D03*
X-36975Y-675D02*
D03*
Y5325D02*
D03*
X-35175Y-236775D02*
D03*
Y-230775D02*
D03*
X322225Y-7275D02*
D03*
Y-1275D02*
D03*
X16319Y-52059D02*
D03*
Y-58059D02*
D03*
G54D281*
X40000Y-110000D02*
D03*
X50000D02*
D03*
X40000Y-100000D02*
D03*
X10000Y-80000D02*
D03*
Y-90000D02*
D03*
Y-110000D02*
D03*
X310000Y-50000D02*
D03*
X190000Y-160000D02*
D03*
X310000Y-70000D02*
D03*
X230000Y-110000D02*
D03*
X150000Y-100000D02*
D03*
Y-70000D02*
D03*
X40000Y-50000D02*
D03*
X110000Y-30000D02*
D03*
X60000Y-50000D02*
D03*
X0Y0D02*
D03*
X30000Y10000D02*
D03*
X0Y-60000D02*
D03*
X-10000Y-50000D02*
D03*
X-30000Y-40000D02*
D03*
X0Y-50000D02*
D03*
X-30000Y-100000D02*
D03*
X-40000Y-90000D02*
D03*
X80000Y30000D02*
D03*
X240000Y-200000D02*
D03*
X260000D02*
D03*
X280000D02*
D03*
G54D282*
X-55575Y-59617D02*
D03*
Y-52333D02*
D03*
X-65775Y-59617D02*
D03*
Y-52333D02*
D03*
G54D283*
X50000Y-10000D02*
D03*
G54D284*
X204468Y17571D02*
D03*
Y7571D02*
D03*
Y-2429D02*
D03*
Y-12429D02*
D03*
Y-22429D02*
D03*
M02*
