G04 Layer_Color=65535*
%FSLAX25Y25*%
%MOIN*%
G70*
G01*
G75*
%ADD11C,0.00800*%
%ADD65C,0.00600*%
%ADD67C,0.01000*%
%ADD70C,0.00700*%
%ADD121C,0.03000*%
%ADD145C,0.00984*%
%ADD146C,0.02362*%
%ADD147C,0.00500*%
%ADD148C,0.01968*%
%ADD149C,0.02000*%
%ADD150C,0.02500*%
%ADD151C,0.00200*%
%ADD152C,0.00787*%
%ADD153C,0.00197*%
%ADD154C,0.00400*%
%ADD155R,0.01200X0.01190*%
%ADD156R,0.01200X0.00600*%
%ADD157R,0.01200X0.00590*%
%ADD158R,0.02953X0.08790*%
%ADD159R,0.24505X0.04921*%
%ADD160R,0.01190X0.01200*%
%ADD161R,0.00600X0.01200*%
%ADD162R,0.00590X0.01200*%
G36*
X48254Y221246D02*
X41393D01*
Y224996D01*
X48254D01*
Y221246D01*
D02*
G37*
G36*
X89592D02*
X82732D01*
Y224996D01*
X89592D01*
Y221246D01*
D02*
G37*
G36*
X264752Y77482D02*
X264813Y77474D01*
X264881Y77467D01*
X264956Y77459D01*
X265039Y77437D01*
X265221Y77391D01*
X265410Y77323D01*
X265508Y77278D01*
X265599Y77225D01*
X265682Y77157D01*
X265765Y77089D01*
X265773Y77081D01*
X265780Y77074D01*
X265803Y77051D01*
X265833Y77021D01*
X265863Y76976D01*
X265901Y76930D01*
X265977Y76817D01*
X266053Y76673D01*
X266121Y76507D01*
X266174Y76318D01*
X266181Y76212D01*
X266189Y76106D01*
Y76091D01*
Y76053D01*
X266181Y75993D01*
X266174Y75917D01*
X266158Y75826D01*
X266136Y75728D01*
X266105Y75622D01*
X266060Y75516D01*
X266053Y75501D01*
X266037Y75463D01*
X266007Y75411D01*
X265962Y75335D01*
X265909Y75244D01*
X265841Y75138D01*
X265750Y75033D01*
X265652Y74912D01*
X265637Y74897D01*
X265599Y74851D01*
X265531Y74783D01*
X265486Y74738D01*
X265433Y74685D01*
X265372Y74624D01*
X265297Y74556D01*
X265221Y74488D01*
X265138Y74405D01*
X265047Y74322D01*
X264941Y74231D01*
X264835Y74141D01*
X264714Y74035D01*
X264707Y74027D01*
X264692Y74012D01*
X264662Y73989D01*
X264624Y73959D01*
X264533Y73883D01*
X264420Y73785D01*
X264306Y73679D01*
X264185Y73573D01*
X264087Y73483D01*
X264049Y73445D01*
X264011Y73407D01*
X264004Y73400D01*
X263989Y73377D01*
X263958Y73347D01*
X263921Y73301D01*
X263837Y73203D01*
X263754Y73082D01*
X266196D01*
Y72500D01*
X262908D01*
Y72508D01*
Y72538D01*
Y72583D01*
X262915Y72636D01*
X262923Y72697D01*
X262930Y72765D01*
X262953Y72840D01*
X262976Y72916D01*
Y72923D01*
X262983Y72931D01*
X262998Y72976D01*
X263029Y73037D01*
X263074Y73128D01*
X263127Y73226D01*
X263202Y73339D01*
X263278Y73453D01*
X263376Y73573D01*
Y73581D01*
X263391Y73589D01*
X263429Y73634D01*
X263490Y73702D01*
X263580Y73793D01*
X263694Y73899D01*
X263830Y74027D01*
X263996Y74171D01*
X264178Y74330D01*
X264185Y74337D01*
X264215Y74360D01*
X264253Y74390D01*
X264306Y74443D01*
X264374Y74496D01*
X264450Y74564D01*
X264616Y74708D01*
X264798Y74881D01*
X264979Y75055D01*
X265070Y75138D01*
X265145Y75222D01*
X265213Y75305D01*
X265274Y75380D01*
Y75388D01*
X265289Y75396D01*
X265304Y75418D01*
X265319Y75448D01*
X265365Y75524D01*
X265418Y75622D01*
X265470Y75736D01*
X265516Y75857D01*
X265546Y75993D01*
X265561Y76121D01*
Y76129D01*
Y76136D01*
X265554Y76182D01*
X265546Y76250D01*
X265531Y76333D01*
X265493Y76431D01*
X265448Y76530D01*
X265387Y76635D01*
X265297Y76734D01*
X265281Y76741D01*
X265251Y76771D01*
X265191Y76809D01*
X265115Y76862D01*
X265017Y76907D01*
X264903Y76945D01*
X264767Y76976D01*
X264616Y76983D01*
X264571D01*
X264541Y76976D01*
X264465Y76968D01*
X264367Y76953D01*
X264253Y76915D01*
X264132Y76870D01*
X264019Y76802D01*
X263913Y76711D01*
X263906Y76696D01*
X263875Y76666D01*
X263830Y76605D01*
X263785Y76522D01*
X263732Y76416D01*
X263694Y76295D01*
X263664Y76152D01*
X263648Y75985D01*
X263021Y76053D01*
Y76061D01*
Y76083D01*
X263029Y76121D01*
X263036Y76167D01*
X263051Y76227D01*
X263059Y76295D01*
X263104Y76446D01*
X263165Y76620D01*
X263248Y76794D01*
X263361Y76968D01*
X263422Y77044D01*
X263497Y77119D01*
X263505Y77127D01*
X263520Y77134D01*
X263543Y77157D01*
X263573Y77180D01*
X263618Y77202D01*
X263671Y77240D01*
X263732Y77270D01*
X263800Y77308D01*
X263875Y77338D01*
X263958Y77376D01*
X264057Y77406D01*
X264155Y77429D01*
X264382Y77474D01*
X264503Y77482D01*
X264631Y77490D01*
X264699D01*
X264752Y77482D01*
D02*
G37*
G36*
X293630Y72500D02*
X293017D01*
Y76386D01*
X293010Y76378D01*
X292979Y76348D01*
X292926Y76310D01*
X292858Y76257D01*
X292775Y76189D01*
X292677Y76121D01*
X292564Y76038D01*
X292435Y75963D01*
X292427D01*
X292420Y75955D01*
X292375Y75925D01*
X292306Y75887D01*
X292223Y75841D01*
X292125Y75789D01*
X292019Y75743D01*
X291906Y75690D01*
X291800Y75645D01*
Y76242D01*
X291808D01*
X291823Y76250D01*
X291853Y76265D01*
X291883Y76288D01*
X291929Y76310D01*
X291981Y76333D01*
X292102Y76401D01*
X292238Y76484D01*
X292390Y76582D01*
X292541Y76696D01*
X292685Y76817D01*
X292692Y76824D01*
X292700Y76832D01*
X292745Y76877D01*
X292813Y76945D01*
X292896Y77028D01*
X292987Y77134D01*
X293078Y77248D01*
X293161Y77369D01*
X293229Y77490D01*
X293630D01*
Y72500D01*
D02*
G37*
G36*
X110232Y271118D02*
X103372D01*
Y274868D01*
X110232D01*
Y271118D01*
D02*
G37*
G36*
X151570D02*
X144710D01*
Y274868D01*
X151570D01*
Y271118D01*
D02*
G37*
G36*
X130931Y221246D02*
X124071D01*
Y224996D01*
X130931D01*
Y221246D01*
D02*
G37*
G36*
X68893Y271118D02*
X62033D01*
Y274868D01*
X68893D01*
Y271118D01*
D02*
G37*
G54D11*
X370500Y254400D02*
X371283Y254976D01*
X371814Y255790D01*
X372026Y256738D01*
X371892Y257701D01*
X371429Y258556D01*
X370696Y259194D01*
X369786Y259535D01*
X368814D01*
X367904Y259194D01*
X367171Y258556D01*
X366708Y257701D01*
X366574Y256738D01*
X366786Y255790D01*
X367317Y254976D01*
X368100Y254400D01*
X363200Y255300D02*
X363528Y254368D01*
X364000Y253500D01*
X364000Y260100D02*
X363526Y259233D01*
X363200Y258300D01*
X367800Y262800D02*
X366923Y262515D01*
X366100Y262100D01*
X372500Y262100D02*
X371631Y262570D01*
X370700Y262900D01*
X375500Y258300D02*
X375128Y259239D01*
X374600Y260100D01*
Y253500D02*
X375086Y254466D01*
X375400Y255500D01*
X299105Y167116D02*
X298561Y167865D01*
X297681Y167579D01*
Y166653D01*
X298561Y166367D01*
X299105Y167116D01*
X237368Y259184D02*
X240355Y262171D01*
X237368Y259184D02*
X240355Y256198D01*
X303451Y162062D02*
Y164917D01*
X322400Y162062D02*
Y164917D01*
X285004Y60268D02*
X287858D01*
X285004Y41319D02*
X287858D01*
X176000Y205587D02*
X178987Y202600D01*
X181973Y205587D01*
X176000Y243087D02*
X178987Y240100D01*
X181973Y243087D01*
X93632Y123304D02*
X108113D01*
Y141853D01*
X93632D02*
X108113D01*
X93632Y123304D02*
Y141853D01*
X366600Y251000D02*
X368100Y254400D01*
X365900Y251400D02*
X366600Y251000D01*
X364100Y250200D02*
X365900Y251400D01*
X362700Y251600D02*
X364100Y250200D01*
X362700Y251600D02*
X363900Y253400D01*
X360900Y255800D02*
X363100Y255400D01*
X360900Y255800D02*
Y257800D01*
X363200Y258200D01*
X362700Y262000D02*
X364000Y260100D01*
X362700Y262000D02*
X364100Y263400D01*
X366000Y262100D01*
X367800Y262800D02*
X368300Y265200D01*
X370200D01*
X370700Y262800D01*
X372500Y262100D02*
X374500Y263400D01*
X375900Y262000D01*
X374500Y260100D02*
X375900Y262000D01*
X375400Y258200D02*
X377600Y257800D01*
Y255800D02*
Y257800D01*
X375400Y255400D02*
X377600Y255800D01*
X374600Y253400D02*
X375900Y251600D01*
X374500Y250200D02*
X375900Y251600D01*
X372700Y251400D02*
X374500Y250200D01*
X371900Y251000D02*
X372700Y251400D01*
X370500Y254400D02*
X371900Y251000D01*
X277400Y166427D02*
X296349D01*
Y153415D02*
Y166427D01*
Y168396D01*
X277400Y166427D02*
Y168396D01*
Y153415D02*
Y166427D01*
X306933Y141419D02*
X314870D01*
X310933Y135951D02*
X314870Y141419D01*
X306933D02*
X310933Y135951D01*
X220925Y92125D02*
Y100025D01*
X219425Y98525D02*
X220925Y100025D01*
X222425Y98525D01*
X23775Y211225D02*
Y229925D01*
X17975D02*
X23775D01*
X17975Y211225D02*
Y229925D01*
Y211225D02*
X23775D01*
X152225Y80325D02*
X155625Y81925D01*
X189325Y82625D02*
X193525Y84725D01*
X189725Y68825D02*
X191525Y68925D01*
X278825Y68325D02*
X280025Y72425D01*
X216825Y163125D02*
X220425Y161925D01*
X286921Y215521D02*
Y255679D01*
X299520D01*
X286921Y215521D02*
X299520D01*
X314480Y255679D02*
X327079D01*
X314480Y215521D02*
X327079D01*
Y255679D01*
X226225Y56424D02*
Y52258D01*
X227058Y51425D01*
X228724D01*
X229557Y52258D01*
Y56424D01*
X231224D02*
X234556D01*
Y55590D01*
X231224Y52258D01*
Y51425D01*
X94800Y71698D02*
Y67533D01*
X95633Y66700D01*
X97299D01*
X98132Y67533D01*
Y71698D01*
X103131D02*
X101464Y70865D01*
X99798Y69199D01*
Y67533D01*
X100631Y66700D01*
X102298D01*
X103131Y67533D01*
Y68366D01*
X102298Y69199D01*
X99798D01*
X49600Y71998D02*
Y67833D01*
X50433Y67000D01*
X52099D01*
X52932Y67833D01*
Y71998D01*
X57931D02*
X54598D01*
Y69499D01*
X56265Y70332D01*
X57098D01*
X57931Y69499D01*
Y67833D01*
X57098Y67000D01*
X55431D01*
X54598Y67833D01*
X5100Y69898D02*
Y65733D01*
X5933Y64900D01*
X7599D01*
X8432Y65733D01*
Y69898D01*
X12598Y64900D02*
Y69898D01*
X10098Y67399D01*
X13431D01*
X129400Y188798D02*
Y184633D01*
X130233Y183800D01*
X131899D01*
X132732Y184633D01*
Y188798D01*
X137731Y183800D02*
X134398D01*
X137731Y187132D01*
Y187965D01*
X136898Y188798D01*
X135231D01*
X134398Y187965D01*
X236425Y83724D02*
X239757Y78725D01*
Y83724D02*
X236425Y78725D01*
X241424D02*
X243090D01*
X242257D01*
Y83724D01*
X241424Y82890D01*
X245589D02*
X246422Y83724D01*
X248088D01*
X248921Y82890D01*
Y82057D01*
X248088Y81224D01*
X247255D01*
X248088D01*
X248921Y80391D01*
Y79558D01*
X248088Y78725D01*
X246422D01*
X245589Y79558D01*
X13400Y93100D02*
Y94433D01*
Y93766D01*
X9401D01*
X10068Y93100D01*
X13400Y96432D02*
X12733D01*
Y97099D01*
X13400D01*
Y96432D01*
X10068Y99765D02*
X9401Y100431D01*
Y101764D01*
X10068Y102430D01*
X12733D01*
X13400Y101764D01*
Y100431D01*
X12733Y99765D01*
X10068D01*
X10734Y104430D02*
Y105763D01*
X11401Y106429D01*
X13400D01*
Y104430D01*
X12733Y103763D01*
X12067Y104430D01*
Y106429D01*
X223225Y96324D02*
X226557D01*
X224891D01*
Y91325D01*
X228224Y96324D02*
Y91325D01*
Y93824D01*
X229057Y94657D01*
X230723D01*
X231556Y93824D01*
Y91325D01*
X235721D02*
X234055D01*
X233222Y92158D01*
Y93824D01*
X234055Y94657D01*
X235721D01*
X236554Y93824D01*
Y92991D01*
X233222D01*
X238220Y94657D02*
Y91325D01*
Y92991D01*
X239053Y93824D01*
X239886Y94657D01*
X240720D01*
X243219Y91325D02*
Y94657D01*
X244052D01*
X244885Y93824D01*
Y91325D01*
Y93824D01*
X245718Y94657D01*
X246551Y93824D01*
Y91325D01*
X105300Y115700D02*
Y120698D01*
X106966Y119032D01*
X108632Y120698D01*
Y115700D01*
X111131D02*
X112798D01*
X113631Y116533D01*
Y118199D01*
X112798Y119032D01*
X111131D01*
X110298Y118199D01*
Y116533D01*
X111131Y115700D01*
X116130Y119865D02*
Y119032D01*
X115297D01*
X116963D01*
X116130D01*
Y116533D01*
X116963Y115700D01*
X120295D02*
X121961D01*
X122794Y116533D01*
Y118199D01*
X121961Y119032D01*
X120295D01*
X119462Y118199D01*
Y116533D01*
X120295Y115700D01*
X124460Y119032D02*
Y115700D01*
Y117366D01*
X125294Y118199D01*
X126127Y119032D01*
X126960D01*
X129459Y115700D02*
X131958D01*
X132791Y116533D01*
X131958Y117366D01*
X130292D01*
X129459Y118199D01*
X130292Y119032D01*
X132791D01*
X410101Y55700D02*
Y59032D01*
X408435Y57366D02*
X411767D01*
X410101Y90689D02*
Y94021D01*
X211725Y106824D02*
X215057D01*
X213391D01*
Y101825D01*
X220056D02*
X216724D01*
X220056Y105157D01*
Y105991D01*
X219223Y106824D01*
X217557D01*
X216724Y105991D01*
X230625Y199924D02*
X233958D01*
X232291D01*
Y194925D01*
X235624Y199091D02*
X236457Y199924D01*
X238123D01*
X238956Y199091D01*
Y195758D01*
X238123Y194925D01*
X236457D01*
X235624Y195758D01*
Y199091D01*
X1201Y78966D02*
Y76300D01*
X5200D01*
Y78966D01*
X3201Y76300D02*
Y77633D01*
X5200Y80299D02*
Y81632D01*
Y80965D01*
X2534D01*
Y80299D01*
X5200Y83631D02*
X2534D01*
Y85630D01*
X3201Y86297D01*
X5200D01*
Y87630D02*
Y89629D01*
X4534Y90295D01*
X3867Y89629D01*
Y88296D01*
X3201Y87630D01*
X2534Y88296D01*
Y90295D01*
Y91628D02*
X4534D01*
X5200Y92295D01*
Y94294D01*
X5866D01*
X6533Y93628D01*
Y92961D01*
X5200Y94294D02*
X2534D01*
X5200Y99626D02*
X1201D01*
Y101625D01*
X1868Y102292D01*
X3201D01*
X3867Y101625D01*
Y99626D01*
Y100959D02*
X5200Y102292D01*
Y105624D02*
Y104291D01*
X4534Y103624D01*
X3201D01*
X2534Y104291D01*
Y105624D01*
X3201Y106290D01*
X3867D01*
Y103624D01*
X1868Y108290D02*
X2534D01*
Y107623D01*
Y108956D01*
Y108290D01*
X4534D01*
X5200Y108956D01*
X2534Y110956D02*
X5200D01*
X3867D01*
X3201Y111622D01*
X2534Y112288D01*
Y112955D01*
X5200Y115621D02*
Y116954D01*
X4534Y117620D01*
X3201D01*
X2534Y116954D01*
Y115621D01*
X3201Y114954D01*
X4534D01*
X5200Y115621D01*
X413000Y60400D02*
X408002D01*
Y62899D01*
X408835Y63732D01*
X410501D01*
X411334Y62899D01*
Y60400D01*
X408002Y65398D02*
X413000D01*
X411334Y67064D01*
X413000Y68731D01*
X408002D01*
X413000Y70397D02*
X408002D01*
Y72896D01*
X408835Y73729D01*
X410501D01*
X411334Y72896D01*
Y70397D01*
Y72063D02*
X413000Y73729D01*
X408002Y80393D02*
Y82060D01*
Y81227D01*
X413000D01*
Y80393D01*
Y82060D01*
Y84559D02*
X408002D01*
X413000Y87891D01*
X408002D01*
X407602Y125300D02*
X412600D01*
Y127799D01*
X411767Y128632D01*
X410934D01*
X410101Y127799D01*
Y125300D01*
Y127799D01*
X409268Y128632D01*
X408435D01*
X407602Y127799D01*
Y125300D01*
Y133631D02*
Y130298D01*
X412600D01*
Y133631D01*
X410101Y130298D02*
Y131965D01*
X407602Y135297D02*
X412600D01*
Y137796D01*
X411767Y138629D01*
X408435D01*
X407602Y137796D01*
Y135297D01*
Y145293D02*
Y146960D01*
Y146127D01*
X412600D01*
Y145293D01*
Y146960D01*
Y149459D02*
X407602D01*
X412600Y152791D01*
X407602D01*
X410101Y120200D02*
Y123532D01*
X408435Y121866D02*
X411767D01*
X410101Y155189D02*
Y158521D01*
Y184200D02*
Y187532D01*
X408435Y185866D02*
X411767D01*
X410101Y229185D02*
Y232518D01*
X407602Y192800D02*
X412600D01*
Y195299D01*
X411767Y196132D01*
X410934D01*
X410101Y195299D01*
Y192800D01*
Y195299D01*
X409268Y196132D01*
X408435D01*
X407602Y195299D01*
Y192800D01*
Y201131D02*
Y197798D01*
X412600D01*
Y201131D01*
X410101Y197798D02*
Y199464D01*
X407602Y202797D02*
X412600D01*
Y205296D01*
X411767Y206129D01*
X408435D01*
X407602Y205296D01*
Y202797D01*
Y215293D02*
Y213627D01*
X408435Y212793D01*
X411767D01*
X412600Y213627D01*
Y215293D01*
X411767Y216126D01*
X408435D01*
X407602Y215293D01*
Y217792D02*
X411767D01*
X412600Y218625D01*
Y220291D01*
X411767Y221124D01*
X407602D01*
Y222790D02*
Y226122D01*
Y224456D01*
X412600D01*
G54D65*
X97613Y139304D02*
X97261Y140153D01*
X96413Y140504D01*
X95564Y140153D01*
X95213Y139304D01*
X95564Y138455D01*
X96413Y138104D01*
X97261Y138455D01*
X97613Y139304D01*
X291100Y105700D02*
X290480Y106451D01*
X289794Y107141D01*
X289047Y107765D01*
X288245Y108316D01*
X287396Y108791D01*
X286506Y109186D01*
X285583Y109496D01*
X284636Y109720D01*
X283672Y109855D01*
X282700Y109900D01*
X281728Y109855D01*
X280764Y109720D01*
X279817Y109496D01*
X278894Y109186D01*
X278004Y108791D01*
X277155Y108316D01*
X276353Y107765D01*
X275606Y107141D01*
X274920Y106451D01*
X274300Y105700D01*
X271100D02*
X270480Y106451D01*
X269794Y107141D01*
X269047Y107765D01*
X268245Y108316D01*
X267396Y108791D01*
X266506Y109186D01*
X265583Y109496D01*
X264636Y109720D01*
X263672Y109855D01*
X262700Y109900D01*
X261728Y109855D01*
X260764Y109720D01*
X259817Y109496D01*
X258894Y109186D01*
X258004Y108791D01*
X257155Y108316D01*
X256353Y107765D01*
X255606Y107141D01*
X254920Y106451D01*
X254300Y105700D01*
X240355Y199368D02*
Y278974D01*
Y199368D02*
X276182D01*
Y278974D01*
X240355D02*
X276182D01*
X240355Y248029D02*
X245670D01*
X240355Y230313D02*
X245670D01*
X42925Y7425D02*
X83104D01*
X78025Y-1175D02*
X81025Y525D01*
X75025D02*
X78025Y-1175D01*
X126206Y525D02*
X129206Y-1175D01*
X132206Y525D01*
X94106Y7425D02*
X134285D01*
X145287Y34984D02*
X185466D01*
X180387Y26384D02*
X183387Y28084D01*
X177387D02*
X180387Y26384D01*
X177387Y525D02*
X180387Y-1175D01*
X183387Y525D01*
X145287Y7425D02*
X185466D01*
X196508Y7465D02*
X236687D01*
X231608Y-1135D02*
X234608Y565D01*
X228608D02*
X231608Y-1135D01*
X159197Y205587D02*
X238803D01*
Y241413D01*
X159197D02*
X238803D01*
X159197Y205587D02*
Y241413D01*
X190142Y205587D02*
Y210902D01*
X207858Y205587D02*
Y210902D01*
X159197Y243087D02*
X238803D01*
Y278913D01*
X159197D02*
X238803D01*
X159197Y243087D02*
Y278913D01*
X190142Y243087D02*
Y248402D01*
X207858Y243087D02*
Y248402D01*
X250200Y110900D02*
X295200D01*
Y77900D02*
Y79900D01*
Y110900D01*
X292700Y84900D02*
Y105900D01*
Y83900D02*
Y84900D01*
X271200Y105900D02*
X274200D01*
X291000D02*
X292700D01*
X284700Y84900D02*
X292700D01*
X280700D02*
X284700D01*
X264700D02*
X280700D01*
X260700D02*
X264700D01*
X284700Y77900D02*
X295200D01*
X280700D02*
X284700D01*
X264700D02*
X280700D01*
X260700D02*
X264700D01*
X285700Y79900D02*
X295200D01*
X265700D02*
X279700D01*
X265700Y83900D02*
X279700D01*
X285700D02*
X292700D01*
X280700Y77900D02*
Y84900D01*
X284700Y77900D02*
Y84900D01*
X285700Y79900D02*
Y83900D01*
X279700Y79900D02*
Y83900D01*
Y79900D02*
X280700Y77900D01*
X284700D02*
X285700Y79900D01*
X284700Y84900D02*
X285700Y83900D01*
X279700D02*
X280700Y84900D01*
X252700Y105900D02*
X254200D01*
X264700Y77900D02*
Y84900D01*
X260700Y77900D02*
Y84900D01*
X259700Y79900D02*
Y83900D01*
Y79900D02*
X260700Y77900D01*
X259700Y83900D02*
X260700Y84900D01*
X264700Y77900D02*
X265700Y79900D01*
Y83900D01*
X264700Y84900D02*
X265700Y83900D01*
X252700D02*
Y84900D01*
X259700Y83900D02*
X260700Y84900D01*
X259700Y79900D02*
X260700Y77900D01*
X252700Y83900D02*
X259700D01*
X250200Y79900D02*
X259700D01*
X252700Y84900D02*
X260700D01*
X252700Y105900D02*
X254400D01*
X252700Y84900D02*
Y105900D01*
X250200Y79900D02*
Y110900D01*
Y77900D02*
Y79900D01*
Y77900D02*
X260700D01*
X72353Y193056D02*
X77353D01*
X79853Y195556D02*
Y210556D01*
X77353Y213056D02*
X79853Y210556D01*
X72353Y213056D02*
X77353D01*
X69853Y210556D02*
X72353Y213056D01*
X77353Y193056D02*
X79853Y195556D01*
X69853D02*
X72353Y193056D01*
X52353D02*
X57353D01*
X62353D02*
X67353D01*
X69853Y195556D02*
Y210556D01*
X59853Y195556D02*
Y210556D01*
X67353Y213056D02*
X69853Y210556D01*
X62353Y213056D02*
X67353D01*
X59853Y210556D02*
X62353Y213056D01*
X57353D02*
X59853Y210556D01*
X52353Y213056D02*
X57353D01*
X49853Y210556D02*
X52353Y213056D01*
X49853Y195556D02*
Y210556D01*
X67353Y193056D02*
X69853Y195556D01*
X59853D02*
X62353Y193056D01*
X57353D02*
X59853Y195556D01*
X49853D02*
X52353Y193056D01*
X13773Y206998D02*
X15773D01*
X2773D02*
X7773D01*
X2773Y233998D02*
X7773D01*
X13773D02*
X15773D01*
Y206998D02*
Y209998D01*
X16773D01*
Y213498D01*
X15773D02*
X16773D01*
X15773D02*
Y217498D01*
X14773D02*
X15773D01*
X14773D02*
Y223498D01*
X15773D01*
Y227998D01*
X16773D01*
Y230998D01*
X15773D02*
X16773D01*
X15773D02*
Y233998D01*
X2773Y206998D02*
Y217998D01*
X6773D01*
Y222998D01*
X2773Y217998D02*
Y222998D01*
X6773D01*
X773Y210498D02*
Y215498D01*
Y225498D01*
X1773Y210498D02*
Y234998D01*
X773Y210498D02*
X1773D01*
X773Y225498D02*
Y230498D01*
X1773D01*
X2773Y222998D02*
Y233998D01*
X1773Y234998D02*
X15773D01*
X1773Y205998D02*
Y210498D01*
Y205998D02*
X15773D01*
X35261Y183525D02*
Y191462D01*
X40817Y183525D02*
Y191462D01*
X109900Y197500D02*
X112400Y195000D01*
X117400D02*
X119900Y197500D01*
X122400Y195000D01*
X127400D02*
X129900Y197500D01*
X109900D02*
Y212500D01*
X112400Y215000D01*
X117400D01*
X119900Y212500D01*
X122400Y215000D01*
X127400D01*
X129900Y212500D01*
X119900Y197500D02*
Y212500D01*
X129900Y197500D02*
Y212500D01*
X122400Y195000D02*
X127400D01*
X112400D02*
X117400D01*
X129900Y197500D02*
X132400Y195000D01*
X137400D02*
X139900Y197500D01*
X129900Y212500D02*
X132400Y215000D01*
X137400D01*
X139900Y212500D01*
Y197500D02*
Y212500D01*
X132400Y195000D02*
X137400D01*
X250233Y198299D02*
X249066D01*
X249649D01*
Y195383D01*
X249066Y194800D01*
X248483D01*
X247900Y195383D01*
X253148Y194800D02*
Y198299D01*
X251399Y196549D01*
X253731D01*
X62600Y192199D02*
X63666D01*
X63133D01*
Y189000D01*
X62600D01*
X63666D01*
X67398Y191666D02*
X66865Y192199D01*
X65799D01*
X65266Y191666D01*
Y189533D01*
X65799Y189000D01*
X66865D01*
X67398Y189533D01*
X70597Y191666D02*
X70064Y192199D01*
X68998D01*
X68465Y191666D01*
Y191133D01*
X68998Y190600D01*
X70064D01*
X70597Y190066D01*
Y189533D01*
X70064Y189000D01*
X68998D01*
X68465Y189533D01*
X71664Y189000D02*
Y192199D01*
X73263D01*
X73796Y191666D01*
Y190600D01*
X73263Y190066D01*
X71664D01*
X74863Y190600D02*
X76995D01*
X78062Y192199D02*
Y189533D01*
X78595Y189000D01*
X79661D01*
X80194Y189533D01*
Y192199D01*
X81261Y189000D02*
X82327D01*
X81794D01*
Y192199D01*
X81261Y191666D01*
X129900Y278999D02*
X132033D01*
Y278466D01*
X129900Y276333D01*
Y275800D01*
X132033D01*
X133099Y277399D02*
X135232D01*
X136298Y275800D02*
Y278999D01*
X137364Y277933D01*
X138431Y278999D01*
Y275800D01*
X139497Y278999D02*
X140563D01*
X140030D01*
Y275800D01*
X139497D01*
X140563D01*
X142163D02*
Y278999D01*
X144295Y275800D01*
Y278999D01*
X88725Y279024D02*
Y278491D01*
X89792Y277425D01*
X90858Y278491D01*
Y279024D01*
X89792Y277425D02*
Y275825D01*
X91924Y277425D02*
X94057D01*
X95123Y275825D02*
Y279024D01*
X96189Y277958D01*
X97256Y279024D01*
Y275825D01*
X98322Y279024D02*
X99388D01*
X98855D01*
Y275825D01*
X98322D01*
X99388D01*
X100988D02*
Y279024D01*
X103121Y275825D01*
Y279024D01*
X48825D02*
X50958Y275825D01*
Y279024D02*
X48825Y275825D01*
X52024Y277425D02*
X54157D01*
X55223Y275825D02*
Y279024D01*
X56289Y277958D01*
X57356Y279024D01*
Y275825D01*
X58422Y279024D02*
X59488D01*
X58955D01*
Y275825D01*
X58422D01*
X59488D01*
X61088D02*
Y279024D01*
X63221Y275825D01*
Y279024D01*
X100426Y170125D02*
Y172258D01*
Y171192D01*
X103625D01*
X100426Y173324D02*
X103625Y175457D01*
X100426D02*
X103625Y173324D01*
X8500Y123898D02*
Y118900D01*
X9500Y117900D01*
X11499D01*
X12499Y118900D01*
Y123898D01*
X51800Y4799D02*
X53933Y1600D01*
Y4799D02*
X51800Y1600D01*
X58198D02*
Y4799D01*
X59264Y3733D01*
X60331Y4799D01*
Y1600D01*
X62996Y4799D02*
X61930D01*
X61397Y4266D01*
Y2133D01*
X61930Y1600D01*
X62996D01*
X63529Y2133D01*
Y4266D01*
X62996Y4799D01*
X64596D02*
X66729D01*
X65662D01*
Y1600D01*
X69394Y4799D02*
X68328D01*
X67795Y4266D01*
Y2133D01*
X68328Y1600D01*
X69394D01*
X69928Y2133D01*
Y4266D01*
X69394Y4799D01*
X70994Y1600D02*
Y4799D01*
X72593D01*
X73127Y4266D01*
Y3199D01*
X72593Y2666D01*
X70994D01*
X72060D02*
X73127Y1600D01*
X29500Y130300D02*
X31100D01*
X31633Y130833D01*
X31100Y131366D01*
X30033D01*
X29500Y131899D01*
X30033Y132433D01*
X31633D01*
X149800Y4899D02*
X151933D01*
Y4366D01*
X149800Y2233D01*
Y1700D01*
X151933D01*
X156198D02*
Y4899D01*
X157264Y3833D01*
X158331Y4899D01*
Y1700D01*
X160996Y4899D02*
X159930D01*
X159397Y4366D01*
Y2233D01*
X159930Y1700D01*
X160996D01*
X161530Y2233D01*
Y4366D01*
X160996Y4899D01*
X162596D02*
X164728D01*
X163662D01*
Y1700D01*
X167394Y4899D02*
X166328D01*
X165795Y4366D01*
Y2233D01*
X166328Y1700D01*
X167394D01*
X167928Y2233D01*
Y4366D01*
X167394Y4899D01*
X168994Y1700D02*
Y4899D01*
X170593D01*
X171126Y4366D01*
Y3300D01*
X170593Y2766D01*
X168994D01*
X170060D02*
X171126Y1700D01*
X175392D02*
X176458D01*
X175925D01*
Y4899D01*
X175392Y4366D01*
X178058Y3300D02*
X180190D01*
X179124Y4366D02*
Y2233D01*
X183389Y1700D02*
X181256D01*
X183389Y3833D01*
Y4366D01*
X182856Y4899D01*
X181790D01*
X181256Y4366D01*
X23500Y130799D02*
X25633D01*
X103000Y4799D02*
Y4266D01*
X104066Y3199D01*
X105133Y4266D01*
Y4799D01*
X104066Y3199D02*
Y1600D01*
X109398D02*
Y4799D01*
X110464Y3733D01*
X111531Y4799D01*
Y1600D01*
X114196Y4799D02*
X113130D01*
X112597Y4266D01*
Y2133D01*
X113130Y1600D01*
X114196D01*
X114729Y2133D01*
Y4266D01*
X114196Y4799D01*
X115796D02*
X117929D01*
X116862D01*
Y1600D01*
X120594Y4799D02*
X119528D01*
X118995Y4266D01*
Y2133D01*
X119528Y1600D01*
X120594D01*
X121127Y2133D01*
Y4266D01*
X120594Y4799D01*
X122194Y1600D02*
Y4799D01*
X123793D01*
X124327Y4266D01*
Y3199D01*
X123793Y2666D01*
X122194D01*
X123260D02*
X124327Y1600D01*
X304400Y197099D02*
Y193900D01*
Y195500D01*
X306533D01*
Y197099D01*
Y193900D01*
X308132Y196033D02*
X309198D01*
X309732Y195500D01*
Y193900D01*
X308132D01*
X307599Y194433D01*
X308132Y194966D01*
X309732D01*
X310798Y196033D02*
Y193900D01*
Y194966D01*
X311331Y195500D01*
X311864Y196033D01*
X312397D01*
X316130Y197099D02*
Y193900D01*
X314530D01*
X313997Y194433D01*
Y195500D01*
X314530Y196033D01*
X316130D01*
X317196D02*
Y194433D01*
X317729Y193900D01*
X318262Y194433D01*
X318795Y193900D01*
X319328Y194433D01*
Y196033D01*
X320928D02*
X321994D01*
X322528Y195500D01*
Y193900D01*
X320928D01*
X320395Y194433D01*
X320928Y194966D01*
X322528D01*
X323594Y196033D02*
Y193900D01*
Y194966D01*
X324127Y195500D01*
X324660Y196033D01*
X325193D01*
X328392Y193900D02*
X327326D01*
X326793Y194433D01*
Y195500D01*
X327326Y196033D01*
X328392D01*
X328925Y195500D01*
Y194966D01*
X326793D01*
X305999Y207499D02*
X304933D01*
X304400Y206966D01*
Y204833D01*
X304933Y204300D01*
X305999D01*
X306533Y204833D01*
Y206966D01*
X305999Y207499D01*
X307599Y203234D02*
Y206433D01*
X309198D01*
X309732Y205900D01*
Y204833D01*
X309198Y204300D01*
X307599D01*
X312397D02*
X311331D01*
X310798Y204833D01*
Y205900D01*
X311331Y206433D01*
X312397D01*
X312931Y205900D01*
Y205366D01*
X310798D01*
X313997Y204300D02*
Y206433D01*
X315596D01*
X316130Y205900D01*
Y204300D01*
X207833Y4799D02*
X205700D01*
Y1600D01*
X207833D01*
X205700Y3199D02*
X206766D01*
X212098Y1600D02*
Y4799D01*
X213164Y3733D01*
X214231Y4799D01*
Y1600D01*
X216896Y4799D02*
X215830D01*
X215297Y4266D01*
Y2133D01*
X215830Y1600D01*
X216896D01*
X217430Y2133D01*
Y4266D01*
X216896Y4799D01*
X218496D02*
X220628D01*
X219562D01*
Y1600D01*
X223294Y4799D02*
X222228D01*
X221695Y4266D01*
Y2133D01*
X222228Y1600D01*
X223294D01*
X223828Y2133D01*
Y4266D01*
X223294Y4799D01*
X224894Y1600D02*
Y4799D01*
X226493D01*
X227027Y4266D01*
Y3199D01*
X226493Y2666D01*
X224894D01*
X225960D02*
X227027Y1600D01*
X103625Y156625D02*
X100426D01*
Y158225D01*
X100959Y158758D01*
X102026D01*
X102559Y158225D01*
Y156625D01*
Y157692D02*
X103625Y158758D01*
X100426Y159824D02*
X103625Y161957D01*
X100426D02*
X103625Y159824D01*
X22675Y212425D02*
X19176D01*
Y214175D01*
X19759Y214758D01*
X20925D01*
X21508Y214175D01*
Y212425D01*
Y213592D02*
X22675Y214758D01*
X19176Y218257D02*
Y215924D01*
X22675D01*
Y218257D01*
X20925Y215924D02*
Y217090D01*
X19759Y221756D02*
X19176Y221172D01*
Y220006D01*
X19759Y219423D01*
X20342D01*
X20925Y220006D01*
Y221172D01*
X21508Y221756D01*
X22092D01*
X22675Y221172D01*
Y220006D01*
X22092Y219423D01*
X19176Y225254D02*
Y222922D01*
X22675D01*
Y225254D01*
X20925Y222922D02*
Y224088D01*
X19176Y226421D02*
Y228753D01*
Y227587D01*
X22675D01*
X306633Y201466D02*
X306100Y201999D01*
X305033D01*
X304500Y201466D01*
Y200933D01*
X305033Y200399D01*
X306100D01*
X306633Y199866D01*
Y199333D01*
X306100Y198800D01*
X305033D01*
X304500Y199333D01*
X308232Y198800D02*
X309298D01*
X309832Y199333D01*
Y200399D01*
X309298Y200933D01*
X308232D01*
X307699Y200399D01*
Y199333D01*
X308232Y198800D01*
X310898Y200933D02*
Y199333D01*
X311431Y198800D01*
X313031D01*
Y200933D01*
X314097D02*
Y198800D01*
Y199866D01*
X314630Y200399D01*
X315163Y200933D01*
X315696D01*
X319428D02*
X317829D01*
X317296Y200399D01*
Y199333D01*
X317829Y198800D01*
X319428D01*
X322094D02*
X321028D01*
X320495Y199333D01*
Y200399D01*
X321028Y200933D01*
X322094D01*
X322627Y200399D01*
Y199866D01*
X320495D01*
G54D67*
X44700Y202956D02*
X44040Y203337D01*
Y202575D01*
X44700Y202956D01*
X40698Y211657D02*
X40037Y212038D01*
Y211276D01*
X40698Y211657D01*
X277097Y132142D02*
X276437Y132524D01*
Y131761D01*
X277097Y132142D01*
X273683Y186143D02*
X273022Y186524D01*
Y185762D01*
X273683Y186143D01*
X82732Y224996D02*
X110282D01*
X116482D02*
Y247546D01*
X76482D02*
X116482D01*
X76482Y224996D02*
Y247546D01*
Y224996D02*
X82732D01*
Y221246D02*
Y224996D01*
Y221246D02*
X110282D01*
Y224996D01*
X116482D01*
X41393D02*
X68943D01*
X75143D02*
Y247546D01*
X35143D02*
X75143D01*
X35143Y224996D02*
Y247546D01*
Y224996D02*
X41393D01*
Y221246D02*
Y224996D01*
Y221246D02*
X68943D01*
Y224996D01*
X75143D01*
X82682Y271118D02*
X110232D01*
X76482Y248568D02*
Y271118D01*
Y248568D02*
X116482D01*
Y271118D01*
X110232D02*
X116482D01*
X110232D02*
Y274868D01*
X82682D02*
X110232D01*
X82682Y271118D02*
Y274868D01*
X76482Y271118D02*
X82682D01*
X41343D02*
X68893D01*
X35143Y248568D02*
Y271118D01*
Y248568D02*
X75143D01*
Y271118D01*
X68893D02*
X75143D01*
X68893D02*
Y274868D01*
X41343D02*
X68893D01*
X41343Y271118D02*
Y274868D01*
X35143Y271118D02*
X41343D01*
X124021D02*
X151570D01*
X117821Y248568D02*
Y271118D01*
Y248568D02*
X157820D01*
Y271118D01*
X151570D02*
X157820D01*
X151570D02*
Y274868D01*
X124021D02*
X151570D01*
X124021Y271118D02*
Y274868D01*
X117821Y271118D02*
X124021D01*
X356300Y39050D02*
X406300D01*
Y240550D01*
X356300D02*
X406300D01*
X356300Y39050D02*
Y240550D01*
X267742Y35811D02*
X270498Y33055D01*
X270498Y12189D02*
Y33055D01*
X263806Y35811D02*
X267742D01*
X245302Y12189D02*
Y33055D01*
X245302D02*
X248058Y35811D01*
X251994D01*
X245302Y12189D02*
X251994D01*
X263806D02*
X270498D01*
X128453Y110343D02*
X131209Y113098D01*
Y113098D02*
X152075D01*
X128453Y106405D02*
Y110343D01*
X131209Y87902D02*
X152075D01*
X128453Y90658D02*
X131209Y87902D01*
X128453Y90658D02*
Y94595D01*
X152075Y87902D02*
Y94595D01*
Y106405D02*
Y113098D01*
X80250Y113168D02*
X83006Y115924D01*
Y115924D02*
X103872D01*
X80250Y109231D02*
Y113168D01*
X83006Y90727D02*
X103872D01*
X80250Y93483D02*
X83006Y90727D01*
X80250Y93483D02*
Y97420D01*
X103872Y90727D02*
Y97420D01*
Y109231D02*
Y115924D01*
X261842Y73011D02*
X264598Y70255D01*
X264598Y49389D02*
Y70255D01*
X257906Y73011D02*
X261842D01*
X239402Y49389D02*
Y70255D01*
X239402D02*
X242158Y73011D01*
X246094D01*
X239402Y49389D02*
X246094D01*
X257906D02*
X264598D01*
X320942Y112011D02*
X323698Y109255D01*
X323698Y88389D02*
Y109255D01*
X317005Y112011D02*
X320942D01*
X298502Y88389D02*
Y109255D01*
X298502D02*
X301257Y112011D01*
X305194D01*
X298502Y88389D02*
X305194D01*
X317005D02*
X323698D01*
X35089Y113542D02*
X37845Y116298D01*
Y116298D02*
X58711D01*
X35089Y109606D02*
Y113542D01*
X37845Y91102D02*
X58711D01*
X35089Y93858D02*
X37845Y91102D01*
X35089Y93858D02*
Y97795D01*
X58711Y91102D02*
Y97795D01*
Y109606D02*
Y116298D01*
X38025Y23075D02*
X49225D01*
Y26825D01*
X76775Y23075D02*
X88025D01*
Y525D02*
Y23075D01*
X38025Y525D02*
X88025D01*
X38025D02*
Y23075D01*
X83537Y6025D02*
Y17534D01*
X42425Y6025D02*
X83537D01*
X42425D02*
Y17534D01*
X83537D01*
X49152Y23048D02*
X76702D01*
X49225Y26825D02*
X76775D01*
Y23075D02*
Y26825D01*
X71025Y25825D02*
X76775D01*
X71025Y23048D02*
Y26825D01*
Y24825D02*
X76675D01*
X71025Y23925D02*
X76775D01*
X122206D02*
X127956D01*
X122206Y24825D02*
X127856D01*
X122206Y23048D02*
Y26825D01*
Y25825D02*
X127956D01*
Y23075D02*
Y26825D01*
X100406D02*
X127956D01*
X100333Y23048D02*
X127883D01*
X93606Y17534D02*
X134718D01*
X93606Y6025D02*
Y17534D01*
Y6025D02*
X134718D01*
Y17534D01*
X89206Y525D02*
Y23075D01*
Y525D02*
X139206D01*
Y23075D01*
X127956D02*
X139206D01*
X100406D02*
Y26825D01*
X89206Y23075D02*
X100406D01*
X140387Y50634D02*
X151587D01*
Y54384D01*
X179137Y50634D02*
X190387D01*
Y28084D02*
Y50634D01*
X140387Y28084D02*
X190387D01*
X140387D02*
Y50634D01*
X185899Y33584D02*
Y45093D01*
X144787Y33584D02*
X185899D01*
X144787D02*
Y45093D01*
X185899D01*
X151514Y50607D02*
X179064D01*
X151587Y54384D02*
X179137D01*
Y50634D02*
Y54384D01*
X173387Y53384D02*
X179137D01*
X173387Y50607D02*
Y54384D01*
Y52384D02*
X179037D01*
X173387Y51484D02*
X179137D01*
X173387Y23925D02*
X179137D01*
X173387Y24825D02*
X179037D01*
X173387Y23048D02*
Y26825D01*
Y25825D02*
X179137D01*
Y23075D02*
Y26825D01*
X151587D02*
X179137D01*
X151514Y23048D02*
X179064D01*
X144787Y17534D02*
X185899D01*
X144787Y6025D02*
Y17534D01*
Y6025D02*
X185899D01*
Y17534D01*
X140387Y525D02*
Y23075D01*
Y525D02*
X190387D01*
Y23075D01*
X179137D02*
X190387D01*
X151587D02*
Y26825D01*
X140387Y23075D02*
X151587D01*
X191608Y23115D02*
X202808D01*
Y26865D01*
X230358Y23115D02*
X241608D01*
Y565D02*
Y23115D01*
X191608Y565D02*
X241608D01*
X191608D02*
Y23115D01*
X237120Y6065D02*
Y17573D01*
X196008Y6065D02*
X237120D01*
X196008D02*
Y17573D01*
X237120D01*
X202734Y23087D02*
X230285D01*
X202808Y26865D02*
X230358D01*
Y23115D02*
Y26865D01*
X224608Y25865D02*
X230358D01*
X224608Y23087D02*
Y26865D01*
Y24865D02*
X230258D01*
X224608Y23965D02*
X230358D01*
X272150Y118550D02*
Y126457D01*
X275900D01*
X274946Y118557D02*
Y126457D01*
X274025Y118577D02*
Y126457D01*
X273046Y118550D02*
Y126457D01*
X272250Y159950D02*
Y167857D01*
X276000D01*
X275046Y159957D02*
Y167857D01*
X274125Y159977D02*
Y167857D01*
X273146Y159950D02*
Y167857D01*
X225389Y184609D02*
Y192515D01*
X221639Y184609D02*
X225389D01*
X222594D02*
Y192509D01*
X223514Y184609D02*
Y192488D01*
X224494Y184609D02*
Y192515D01*
X225389Y153506D02*
Y161413D01*
X221639Y153506D02*
X225389D01*
X222594D02*
Y161406D01*
X223514Y153506D02*
Y161386D01*
X224494Y153506D02*
Y161413D01*
X225389Y122404D02*
Y130311D01*
X221639Y122404D02*
X225389D01*
X222594D02*
Y130304D01*
X223514Y122404D02*
Y130283D01*
X224494Y122404D02*
Y130311D01*
X272150Y118550D02*
Y146100D01*
X249600Y152300D02*
X272150D01*
X249600Y112300D02*
Y152300D01*
Y112300D02*
X272150D01*
Y118550D01*
X275900D01*
Y146100D01*
X272150D02*
X275900D01*
X272150D02*
Y152300D01*
X272250Y159950D02*
Y187500D01*
X249700Y193700D02*
X272250D01*
X249700Y153700D02*
Y193700D01*
Y153700D02*
X272250D01*
Y159950D01*
X276000D01*
Y187500D01*
X272250D02*
X276000D01*
X272250D02*
Y193700D01*
X225389Y163765D02*
X247939D01*
Y193765D01*
X225389D02*
X247939D01*
X225389Y192515D02*
Y193765D01*
X221639Y192515D02*
X225389D01*
X221639Y164965D02*
Y192515D01*
Y164965D02*
X225389D01*
Y163765D02*
Y164965D01*
Y101561D02*
X247939D01*
Y131561D01*
X225389D02*
X247939D01*
X225389Y130311D02*
Y131561D01*
X221639Y130311D02*
X225389D01*
X221639Y102761D02*
Y130311D01*
Y102761D02*
X225389D01*
Y101561D02*
Y102761D01*
X-12376Y176797D02*
X49684D01*
X-12376Y130269D02*
Y176797D01*
Y130269D02*
X49684D01*
Y176797D01*
X274672Y31289D02*
X292430D01*
X274672Y21368D02*
X292430D01*
X225389Y132663D02*
X247939D01*
Y162663D01*
X225389D02*
X247939D01*
X225389Y161413D02*
Y162663D01*
X221639Y161413D02*
X225389D01*
X221639Y133863D02*
Y161413D01*
Y133863D02*
X225389D01*
Y132663D02*
Y133863D01*
X274581Y9383D02*
X292339D01*
X274581Y19304D02*
X292339D01*
X280100Y112900D02*
X297858D01*
X280100Y122821D02*
X297858D01*
X331200Y183100D02*
X348958D01*
X331200Y193021D02*
X348958D01*
X124071Y224996D02*
X151620D01*
X157820D02*
Y247546D01*
X117821D02*
X157820D01*
X117821Y224996D02*
Y247546D01*
Y224996D02*
X124071D01*
Y221246D02*
Y224996D01*
Y221246D02*
X151620D01*
Y224996D01*
X157820D01*
X404800Y33900D02*
Y35899D01*
Y34900D01*
X398802D01*
X399802Y33900D01*
G54D70*
X339300Y277699D02*
Y274366D01*
X339966Y273700D01*
X341299D01*
X341966Y274366D01*
Y277699D01*
X343299Y277032D02*
X343965Y277699D01*
X345298D01*
X345965Y277032D01*
Y276366D01*
X345298Y275699D01*
X344632D01*
X345298D01*
X345965Y275033D01*
Y274366D01*
X345298Y273700D01*
X343965D01*
X343299Y274366D01*
X289100Y261999D02*
Y258000D01*
X291766D01*
X293099D02*
X294432D01*
X293765D01*
Y261999D01*
X293099Y261332D01*
X350301Y232600D02*
X354300D01*
Y234599D01*
X353634Y235266D01*
X350968D01*
X350301Y234599D01*
Y232600D01*
X354300Y236599D02*
Y237932D01*
Y237265D01*
X350301D01*
X350968Y236599D01*
Y239931D02*
X350301Y240597D01*
Y241930D01*
X350968Y242597D01*
X351634D01*
X352301Y241930D01*
X352967Y242597D01*
X353634D01*
X354300Y241930D01*
Y240597D01*
X353634Y239931D01*
X352967D01*
X352301Y240597D01*
X351634Y239931D01*
X350968D01*
X352301Y240597D02*
Y241930D01*
X281800Y250000D02*
X277801D01*
Y251999D01*
X278468Y252666D01*
X279801D01*
X280467Y251999D01*
Y250000D01*
X278468Y253999D02*
X277801Y254665D01*
Y255998D01*
X278468Y256664D01*
X279134D01*
X279801Y255998D01*
Y255332D01*
Y255998D01*
X280467Y256664D01*
X281134D01*
X281800Y255998D01*
Y254665D01*
X281134Y253999D01*
X379566Y245899D02*
X378233D01*
X378899D01*
Y242566D01*
X378233Y241900D01*
X377566D01*
X376900Y242566D01*
X380899Y241900D02*
X382232D01*
X381565D01*
Y245899D01*
X380899Y245232D01*
X60525Y186024D02*
Y182692D01*
X61192Y182025D01*
X62524D01*
X63191Y182692D01*
Y186024D01*
X64524Y182025D02*
X65857D01*
X65190D01*
Y186024D01*
X64524Y185357D01*
X245291Y5824D02*
X243958D01*
X244624D01*
Y2492D01*
X243958Y1825D01*
X243292D01*
X242625Y2492D01*
X246624Y1825D02*
X247957D01*
X247290D01*
Y5824D01*
X246624Y5158D01*
X252622Y1825D02*
X249956D01*
X252622Y4491D01*
Y5158D01*
X251956Y5824D01*
X250623D01*
X249956Y5158D01*
X145291Y61124D02*
X143958D01*
X144624D01*
Y57792D01*
X143958Y57125D01*
X143292D01*
X142625Y57792D01*
X146624Y57125D02*
X147957D01*
X147290D01*
Y61124D01*
X146624Y60457D01*
X149956Y57125D02*
X151289D01*
X150623D01*
Y61124D01*
X149956Y60457D01*
X144891Y66424D02*
X143558D01*
X144225D01*
Y63092D01*
X143558Y62425D01*
X142892D01*
X142225Y63092D01*
X146224Y62425D02*
X147557D01*
X146890D01*
Y66424D01*
X146224Y65758D01*
X149556D02*
X150223Y66424D01*
X151556D01*
X152222Y65758D01*
Y63092D01*
X151556Y62425D01*
X150223D01*
X149556Y63092D01*
Y65758D01*
X92891Y28224D02*
X91558D01*
X92225D01*
Y24892D01*
X91558Y24225D01*
X90892D01*
X90225Y24892D01*
X94224D02*
X94890Y24225D01*
X96223D01*
X96890Y24892D01*
Y27558D01*
X96223Y28224D01*
X94890D01*
X94224Y27558D01*
Y26891D01*
X94890Y26224D01*
X96890D01*
X32791Y5024D02*
X31458D01*
X32125D01*
Y1692D01*
X31458Y1025D01*
X30792D01*
X30125Y1692D01*
X34124Y4358D02*
X34790Y5024D01*
X36123D01*
X36790Y4358D01*
Y3691D01*
X36123Y3025D01*
X36790Y2358D01*
Y1692D01*
X36123Y1025D01*
X34790D01*
X34124Y1692D01*
Y2358D01*
X34790Y3025D01*
X34124Y3691D01*
Y4358D01*
X34790Y3025D02*
X36123D01*
X214691Y112224D02*
X213358D01*
X214024D01*
Y108892D01*
X213358Y108225D01*
X212692D01*
X212025Y108892D01*
X218690Y112224D02*
X217357Y111557D01*
X216024Y110224D01*
Y108892D01*
X216690Y108225D01*
X218023D01*
X218690Y108892D01*
Y109558D01*
X218023Y110224D01*
X216024D01*
X204091Y165924D02*
X202758D01*
X203425D01*
Y162592D01*
X202758Y161925D01*
X202092D01*
X201425Y162592D01*
X205424Y165258D02*
X206090Y165924D01*
X207423D01*
X208090Y165258D01*
Y164591D01*
X207423Y163925D01*
X206757D01*
X207423D01*
X208090Y163258D01*
Y162592D01*
X207423Y161925D01*
X206090D01*
X205424Y162592D01*
X213366Y189899D02*
X212033D01*
X212699D01*
Y186566D01*
X212033Y185900D01*
X211366D01*
X210700Y186566D01*
X217365Y185900D02*
X214699D01*
X217365Y188566D01*
Y189232D01*
X216698Y189899D01*
X215365D01*
X214699Y189232D01*
X286066Y159467D02*
Y162132D01*
X285399Y162799D01*
X284066D01*
X283400Y162132D01*
Y159467D01*
X284066Y158800D01*
X285399D01*
X284733Y160133D02*
X286066Y158800D01*
X285399D02*
X286066Y159467D01*
X290065Y158800D02*
X287399D01*
X290065Y161466D01*
Y162132D01*
X289398Y162799D01*
X288065D01*
X287399Y162132D01*
X275491Y36592D02*
Y39257D01*
X274825Y39924D01*
X273492D01*
X272825Y39257D01*
Y36592D01*
X273492Y35925D01*
X274825D01*
X274158Y37258D02*
X275491Y35925D01*
X274825D02*
X275491Y36592D01*
X276824Y35925D02*
X278157D01*
X277490D01*
Y39924D01*
X276824Y39257D01*
X7866Y240032D02*
X7199Y240699D01*
X5866D01*
X5200Y240032D01*
Y239366D01*
X5866Y238699D01*
X7199D01*
X7866Y238033D01*
Y237366D01*
X7199Y236700D01*
X5866D01*
X5200Y237366D01*
X9199Y236700D02*
X10532D01*
X9865D01*
Y240699D01*
X9199Y240032D01*
X700Y181999D02*
X3366Y178000D01*
Y181999D02*
X700Y178000D01*
X7365D02*
X4699D01*
X7365Y180666D01*
Y181332D01*
X6698Y181999D01*
X5365D01*
X4699Y181332D01*
X307666Y188967D02*
Y191632D01*
X306999Y192299D01*
X305666D01*
X305000Y191632D01*
Y188967D01*
X305666Y188300D01*
X306999D01*
X306333Y189633D02*
X307666Y188300D01*
X306999D02*
X307666Y188967D01*
X311665Y192299D02*
X308999D01*
Y190299D01*
X310332Y190966D01*
X310998D01*
X311665Y190299D01*
Y188967D01*
X310998Y188300D01*
X309665D01*
X308999Y188967D01*
X95500Y146899D02*
Y143567D01*
X96166Y142900D01*
X97499D01*
X98166Y143567D01*
Y146899D01*
X99499Y142900D02*
X100832D01*
X100165D01*
Y146899D01*
X99499Y146232D01*
X102831D02*
X103497Y146899D01*
X104830D01*
X105497Y146232D01*
Y143567D01*
X104830Y142900D01*
X103497D01*
X102831Y143567D01*
Y146232D01*
X291466Y5499D02*
X288800D01*
Y3499D01*
X290133D01*
X288800D01*
Y1500D01*
X295464D02*
X292799D01*
X295464Y4166D01*
Y4832D01*
X294798Y5499D01*
X293465D01*
X292799Y4832D01*
X322366Y192499D02*
X319700D01*
Y190499D01*
X321033D01*
X319700D01*
Y188500D01*
X323699Y191832D02*
X324365Y192499D01*
X325698D01*
X326364Y191832D01*
Y191166D01*
X325698Y190499D01*
X325032D01*
X325698D01*
X326364Y189833D01*
Y189166D01*
X325698Y188500D01*
X324365D01*
X323699Y189166D01*
X161500Y200700D02*
Y204199D01*
X163249D01*
X163833Y203616D01*
Y202449D01*
X163249Y201866D01*
X161500D01*
X164999Y200700D02*
X166165D01*
X165582D01*
Y204199D01*
X164999Y203616D01*
X161500Y195800D02*
Y199299D01*
X163249D01*
X163833Y198716D01*
Y197549D01*
X163249Y196966D01*
X161500D01*
X167331Y195800D02*
X164999D01*
X167331Y198133D01*
Y198716D01*
X166748Y199299D01*
X165582D01*
X164999Y198716D01*
X357566Y5899D02*
X354900D01*
Y3899D01*
X356233D01*
X354900D01*
Y1900D01*
X358899D02*
X360232D01*
X359565D01*
Y5899D01*
X358899Y5232D01*
X342900Y203799D02*
Y199800D01*
X344899D01*
X345566Y200466D01*
Y201133D01*
X344899Y201799D01*
X342900D01*
X344899D01*
X345566Y202466D01*
Y203132D01*
X344899Y203799D01*
X342900D01*
X349565D02*
X346899D01*
Y199800D01*
X349565D01*
X346899Y201799D02*
X348232D01*
X350897Y203799D02*
Y199800D01*
X352897D01*
X353563Y200466D01*
Y203132D01*
X352897Y203799D01*
X350897D01*
X185766Y89799D02*
X183100D01*
Y85800D01*
X185766D01*
X183100Y87799D02*
X184433D01*
X187099Y85800D02*
Y89799D01*
X189098D01*
X189764Y89132D01*
Y87799D01*
X189098Y87133D01*
X187099D01*
X188432D02*
X189764Y85800D01*
X193763Y89799D02*
X191097D01*
Y85800D01*
X193763D01*
X191097Y87799D02*
X192430D01*
X197762Y89799D02*
X195096D01*
Y87799D01*
X196429D01*
X195096D01*
Y85800D01*
X192026Y61925D02*
Y64591D01*
X192693D01*
X195359Y61925D01*
X196025D01*
Y64591D01*
Y65924D02*
X192026D01*
Y67923D01*
X192693Y68590D01*
X194026D01*
X194692Y67923D01*
Y65924D01*
Y67257D02*
X196025Y68590D01*
X192026Y72588D02*
Y69923D01*
X196025D01*
Y72588D01*
X194026Y69923D02*
Y71255D01*
X192026Y76587D02*
Y73921D01*
X194026D01*
Y75254D01*
Y73921D01*
X196025D01*
X144525Y79124D02*
X147191Y75125D01*
Y79124D02*
X144525Y75125D01*
X148524D02*
Y79124D01*
X150523D01*
X151190Y78457D01*
Y77125D01*
X150523Y76458D01*
X148524D01*
X149857D02*
X151190Y75125D01*
X155188Y79124D02*
X152523D01*
Y75125D01*
X155188D01*
X152523Y77125D02*
X153856D01*
X159187Y79124D02*
X156521D01*
Y77125D01*
X157854D01*
X156521D01*
Y75125D01*
X210925Y165899D02*
X213591D01*
X212258D01*
Y161900D01*
X214924D02*
X216257D01*
X215590D01*
Y165899D01*
X214924Y165232D01*
X18000Y122099D02*
Y119100D01*
X18600Y118500D01*
X19799D01*
X20399Y119100D01*
Y122099D01*
X21599Y118500D02*
X22798D01*
X22199D01*
Y122099D01*
X21599D01*
X25198Y121499D02*
Y120899D01*
X24598D01*
X25798D01*
X25198D01*
Y119100D01*
X25798Y118500D01*
X27597D02*
X28796D01*
X28197D01*
Y120899D01*
X27597D01*
X30596Y118500D02*
Y122099D01*
X31795Y120899D01*
X32995Y122099D01*
Y118500D01*
X34795Y120899D02*
X35994D01*
X36594Y120299D01*
Y118500D01*
X34795D01*
X34195Y119100D01*
X34795Y119700D01*
X36594D01*
X40193Y120899D02*
X38393D01*
X37794Y120299D01*
Y119100D01*
X38393Y118500D01*
X40193D01*
X41392Y122099D02*
Y118500D01*
Y120299D01*
X41992Y120899D01*
X43192D01*
X43792Y120299D01*
Y118500D01*
X44991D02*
X46191D01*
X45591D01*
Y120899D01*
X44991D01*
X47990Y118500D02*
Y120899D01*
X49790D01*
X50389Y120299D01*
Y118500D01*
X53389D02*
X52189D01*
X51589Y119100D01*
Y120299D01*
X52189Y120899D01*
X53389D01*
X53988Y120299D01*
Y119700D01*
X51589D01*
X260266Y109399D02*
X257600D01*
Y105400D01*
X260266D01*
X257600Y107399D02*
X258933D01*
X261599Y109399D02*
X264264Y105400D01*
Y109399D02*
X261599Y105400D01*
X265597Y109399D02*
X268263D01*
X266930D01*
Y105400D01*
X269596D02*
Y109399D01*
X271596D01*
X272262Y108732D01*
Y107399D01*
X271596Y106733D01*
X269596D01*
X270929D02*
X272262Y105400D01*
X273595Y109399D02*
Y106067D01*
X274261Y105400D01*
X275594D01*
X276261Y106067D01*
Y109399D01*
X277594D02*
Y105400D01*
X279593D01*
X280259Y106067D01*
Y108732D01*
X279593Y109399D01*
X277594D01*
X284258D02*
X281592D01*
Y105400D01*
X284258D01*
X281592Y107399D02*
X282925D01*
X285591Y105400D02*
Y109399D01*
X287590D01*
X288257Y108732D01*
Y107399D01*
X287590Y106733D01*
X285591D01*
X286924D02*
X288257Y105400D01*
G54D121*
X186925Y188025D02*
D03*
X54000Y192800D02*
D03*
X41517Y193525D02*
D03*
G54D145*
X70151Y159608D02*
X69364D01*
X70151D01*
X190050Y183718D02*
X189312Y184144D01*
Y183292D01*
X190050Y183718D01*
X13665Y77613D02*
X12927Y78040D01*
Y77187D01*
X13665Y77613D01*
X58403Y74013D02*
X57665Y74440D01*
Y73587D01*
X58403Y74013D01*
X103403D02*
X102665Y74440D01*
Y73587D01*
X103403Y74013D01*
X199803D02*
X199065Y74440D01*
Y73587D01*
X199803Y74013D01*
X121216Y222458D02*
X120478Y222884D01*
Y222031D01*
X121216Y222458D01*
X353227Y247052D02*
X352489Y247478D01*
Y246626D01*
X353227Y247052D01*
G54D146*
X186507Y175647D02*
X186062Y176571D01*
X185063Y176799D01*
X184262Y176160D01*
Y175135D01*
X185063Y174496D01*
X186062Y174724D01*
X186507Y175647D01*
G54D147*
X14800Y121100D02*
X14678Y122105D01*
X14319Y123052D01*
X13744Y123885D01*
X12986Y124557D01*
X12089Y125027D01*
X11106Y125269D01*
X10094D01*
X9111Y125027D01*
X8214Y124557D01*
X7456Y123885D01*
X6881Y123052D01*
X6522Y122105D01*
X6400Y121100D01*
X6522Y120095D01*
X6881Y119148D01*
X7456Y118315D01*
X8214Y117643D01*
X9111Y117173D01*
X10094Y116931D01*
X11106D01*
X12089Y117173D01*
X12986Y117643D01*
X13744Y118315D01*
X14319Y119148D01*
X14678Y120095D01*
X14800Y121100D01*
X335048Y217401D02*
X353552D01*
Y229999D01*
X335048D02*
X353552D01*
X335048Y217401D02*
Y229999D01*
Y204401D02*
X353552D01*
Y216999D01*
X335048D02*
X353552D01*
X335048Y204401D02*
Y216999D01*
X289999Y195148D02*
Y213652D01*
X277401D02*
X289999D01*
X277401Y195148D02*
Y213652D01*
Y195148D02*
X289999D01*
X303099Y190448D02*
Y208952D01*
X290501D02*
X303099D01*
X290501Y190448D02*
Y208952D01*
Y190448D02*
X303099D01*
X69600Y162600D02*
Y163781D01*
Y181419D02*
Y182600D01*
X88419Y162600D02*
X89600D01*
X69600D02*
X70781D01*
X89600D02*
Y163781D01*
Y181419D02*
Y182600D01*
X88419D02*
X89600D01*
X69600D02*
X70781D01*
X297045Y79639D02*
X324545D01*
Y1639D02*
Y79639D01*
X297045Y1639D02*
X324545D01*
X297045D02*
Y79639D01*
X354050Y102900D02*
Y180900D01*
X326550D02*
X354050D01*
X326550Y102900D02*
Y180900D01*
Y102900D02*
X354050D01*
X62101Y149100D02*
X74700D01*
X62101Y139179D02*
Y149100D01*
Y139179D02*
X74700D01*
Y149100D01*
X215268Y156365D02*
X223732D01*
X215268Y152035D02*
X223732D01*
X215071Y156365D02*
X215268D01*
X214579Y155873D02*
X215071Y156365D01*
X215071Y152035D02*
X215268D01*
X214579Y152527D02*
X215071Y152035D01*
X214579Y152527D02*
Y155873D01*
X214185Y155480D02*
X214579Y155873D01*
X214185Y152920D02*
Y155480D01*
Y152920D02*
X214579Y152527D01*
X213985Y181020D02*
X214379Y180627D01*
X213985Y181020D02*
Y183580D01*
X214379Y183973D01*
Y180627D02*
Y183973D01*
Y180627D02*
X214871Y180135D01*
X215068D01*
X214379Y183973D02*
X214871Y184465D01*
X215068D01*
Y180135D02*
X223532D01*
X215068Y184465D02*
X223532D01*
X215068Y175535D02*
X223532D01*
X215068Y179865D02*
X223532D01*
Y175535D02*
X223729D01*
X224221Y176027D01*
X223532Y179865D02*
X223729D01*
X224221Y179373D01*
Y176027D02*
Y179373D01*
Y176027D02*
X224615Y176420D01*
Y178980D01*
X224221Y179373D02*
X224615Y178980D01*
X224421Y151273D02*
X224815Y150880D01*
Y148320D02*
Y150880D01*
X224421Y147927D02*
X224815Y148320D01*
X224421Y147927D02*
Y151273D01*
X223929Y151765D02*
X224421Y151273D01*
X223732Y151765D02*
X223929D01*
X223929Y147435D02*
X224421Y147927D01*
X223732Y147435D02*
X223929D01*
X215268Y151765D02*
X223732D01*
X215268Y147435D02*
X223732D01*
X211321Y125835D02*
X219786D01*
X211321Y130165D02*
X219786D01*
Y125835D02*
X219983D01*
X220475Y126327D01*
X219786Y130165D02*
X219983D01*
X220475Y129673D01*
Y126327D02*
Y129673D01*
Y126327D02*
X220868Y126720D01*
Y129279D01*
X220475Y129673D02*
X220868Y129279D01*
X210185Y131321D02*
X210579Y130927D01*
X210185Y131321D02*
Y133879D01*
X210579Y134273D01*
Y130927D02*
Y134273D01*
Y130927D02*
X211071Y130435D01*
X211268D01*
X210579Y134273D02*
X211071Y134765D01*
X211268D01*
Y130435D02*
X219732D01*
X211268Y134765D02*
X219732D01*
X287365Y181968D02*
Y190432D01*
X283035Y181968D02*
Y190432D01*
X287365D02*
Y190629D01*
X286873Y191121D02*
X287365Y190629D01*
X283035Y190432D02*
Y190629D01*
X283527Y191121D01*
X286873D01*
X286479Y191515D02*
X286873Y191121D01*
X283921Y191515D02*
X286479D01*
X283527Y191121D02*
X283921Y191515D01*
X200880Y107085D02*
X201273Y107479D01*
X198320Y107085D02*
X200880D01*
X197927Y107479D02*
X198320Y107085D01*
X197927Y107479D02*
X201273D01*
X201765Y107971D01*
Y108168D01*
X197435Y107971D02*
X197927Y107479D01*
X197435Y107971D02*
Y108168D01*
X201765D02*
Y116632D01*
X197435Y108168D02*
Y116632D01*
X197165Y108168D02*
Y116632D01*
X192835Y108168D02*
Y116632D01*
X197165D02*
Y116829D01*
X196673Y117321D02*
X197165Y116829D01*
X192835Y116632D02*
Y116829D01*
X193327Y117321D01*
X196673D01*
X196280Y117715D02*
X196673Y117321D01*
X193720Y117715D02*
X196280D01*
X193327Y117321D02*
X193720Y117715D01*
X281480Y180885D02*
X281873Y181279D01*
X278921Y180885D02*
X281480D01*
X278527Y181279D02*
X278921Y180885D01*
X278527Y181279D02*
X281873D01*
X282365Y181771D01*
Y181968D01*
X278035Y181771D02*
X278527Y181279D01*
X278035Y181771D02*
Y181968D01*
X282365D02*
Y190432D01*
X278035Y181968D02*
Y190432D01*
X111714Y152300D02*
Y164899D01*
Y152300D02*
X121636D01*
Y164899D01*
X111714D02*
X121636D01*
X326050Y79600D02*
X353550D01*
Y1600D02*
Y79600D01*
X326050Y1600D02*
X353550D01*
X326050D02*
Y79600D01*
X328450Y243450D02*
Y245200D01*
X328800Y243400D02*
Y245550D01*
X329300Y243400D02*
Y246050D01*
X328200Y243400D02*
X329700D01*
X328450Y232200D02*
Y233950D01*
X328850Y231800D02*
Y233950D01*
X329300Y231350D02*
Y234000D01*
X328100D02*
X329700D01*
X328100Y232550D02*
X329700Y230950D01*
X328100Y232550D02*
Y244850D01*
X329700Y246450D01*
X348300D01*
X329700Y243400D02*
Y246450D01*
X348300Y243400D02*
Y246450D01*
X329700Y230950D02*
Y234000D01*
X348300Y230950D02*
Y234000D01*
X329700Y230950D02*
X348300D01*
X110600Y193699D02*
X112266Y191200D01*
Y193699D02*
X110600Y191200D01*
X113099D02*
X113932D01*
X113516D01*
Y193699D01*
X113099Y193283D01*
X148066Y219899D02*
X147233D01*
X147650D01*
Y217816D01*
X147233Y217400D01*
X146817D01*
X146400Y217816D01*
X148899Y217400D02*
X149732D01*
X149316D01*
Y219899D01*
X148899Y219483D01*
X150982D02*
X151398Y219899D01*
X152231D01*
X152648Y219483D01*
Y219066D01*
X152231Y218650D01*
X152648Y218233D01*
Y217816D01*
X152231Y217400D01*
X151398D01*
X150982Y217816D01*
Y218233D01*
X151398Y218650D01*
X150982Y219066D01*
Y219483D01*
X151398Y218650D02*
X152231D01*
X76332Y223791D02*
X75498D01*
X75915D01*
Y221708D01*
X75498Y221291D01*
X75082D01*
X74665Y221708D01*
X77165Y221291D02*
X77998D01*
X77581D01*
Y223791D01*
X77165Y223374D01*
X79247Y223791D02*
X80913D01*
Y223374D01*
X79247Y221708D01*
Y221291D01*
X126600Y124999D02*
X128266D01*
X127433D01*
Y122500D01*
X129099D02*
Y124999D01*
X130349D01*
X130765Y124583D01*
Y123750D01*
X130349Y123333D01*
X129099D01*
X131598Y122500D02*
X132431D01*
X132015D01*
Y124999D01*
X131598Y124583D01*
X133681Y122500D02*
X134514D01*
X134098D01*
Y124999D01*
X133681Y124583D01*
X116066Y276599D02*
X115233D01*
X115650D01*
Y274517D01*
X115233Y274100D01*
X114816D01*
X114400Y274517D01*
X116899Y274100D02*
X117732D01*
X117316D01*
Y276599D01*
X116899Y276183D01*
X120648Y276599D02*
X118982D01*
Y275350D01*
X119815Y275766D01*
X120231D01*
X120648Y275350D01*
Y274517D01*
X120231Y274100D01*
X119398D01*
X118982Y274517D01*
X76166Y276699D02*
X75333D01*
X75750D01*
Y274617D01*
X75333Y274200D01*
X74916D01*
X74500Y274617D01*
X76999Y274200D02*
X77832D01*
X77416D01*
Y276699D01*
X76999Y276283D01*
X80331Y274200D02*
Y276699D01*
X79082Y275450D01*
X80748D01*
X34766Y276599D02*
X33933D01*
X34350D01*
Y274517D01*
X33933Y274100D01*
X33516D01*
X33100Y274517D01*
X35599Y274100D02*
X36432D01*
X36016D01*
Y276599D01*
X35599Y276183D01*
X37682D02*
X38098Y276599D01*
X38932D01*
X39348Y276183D01*
Y275766D01*
X38932Y275350D01*
X38515D01*
X38932D01*
X39348Y274933D01*
Y274517D01*
X38932Y274100D01*
X38098D01*
X37682Y274517D01*
X273526Y114691D02*
Y113858D01*
Y114275D01*
X275609D01*
X276025Y113858D01*
Y113442D01*
X275609Y113025D01*
X273526Y117191D02*
Y115524D01*
X274776D01*
X274359Y116357D01*
Y116774D01*
X274776Y117191D01*
X275609D01*
X276025Y116774D01*
Y115941D01*
X275609Y115524D01*
X1525Y186524D02*
Y184025D01*
X3191D01*
X5691Y186524D02*
X4024D01*
Y184025D01*
X5691D01*
X4024Y185275D02*
X4857D01*
X6524Y186524D02*
Y184025D01*
X7773D01*
X8190Y184442D01*
Y186108D01*
X7773Y186524D01*
X6524D01*
X9023D02*
X10689D01*
Y186108D01*
X9023Y184442D01*
Y184025D01*
X1225Y204124D02*
Y201625D01*
X2891D01*
X5390Y204124D02*
X3724D01*
Y201625D01*
X5390D01*
X3724Y202875D02*
X4558D01*
X6224Y204124D02*
Y201625D01*
X7473D01*
X7890Y202042D01*
Y203708D01*
X7473Y204124D01*
X6224D01*
X8723Y201625D02*
X9556D01*
X9139D01*
Y204124D01*
X8723Y203708D01*
X44300Y213399D02*
X45966Y210900D01*
Y213399D02*
X44300Y210900D01*
X46799D02*
X47632D01*
X47216D01*
Y213399D01*
X46799Y212983D01*
X48882Y213399D02*
X50548D01*
Y212983D01*
X48882Y211316D01*
Y210900D01*
X35666Y223799D02*
X34833D01*
X35250D01*
Y221716D01*
X34833Y221300D01*
X34416D01*
X34000Y221716D01*
X36499Y221300D02*
X37332D01*
X36916D01*
Y223799D01*
X36499Y223383D01*
X40248Y223799D02*
X39415Y223383D01*
X38582Y222550D01*
Y221716D01*
X38998Y221300D01*
X39832D01*
X40248Y221716D01*
Y222133D01*
X39832Y222550D01*
X38582D01*
X21225Y185125D02*
Y187624D01*
X22475D01*
X22891Y187208D01*
Y186375D01*
X22475Y185958D01*
X21225D01*
X23724Y187624D02*
Y185125D01*
X24557Y185958D01*
X25390Y185125D01*
Y187624D01*
X26224Y185125D02*
Y187624D01*
X27473D01*
X27890Y187208D01*
Y186375D01*
X27473Y185958D01*
X26224D01*
X27057D02*
X27890Y185125D01*
X21225Y193325D02*
Y194991D01*
X22058Y195824D01*
X22891Y194991D01*
Y193325D01*
Y194575D01*
X21225D01*
X25390Y195408D02*
X24974Y195824D01*
X24141D01*
X23724Y195408D01*
Y193742D01*
X24141Y193325D01*
X24974D01*
X25390Y193742D01*
X26224Y195824D02*
X27890D01*
X27057D01*
Y193325D01*
X263280Y116180D02*
X261614D01*
Y114931D01*
X262447D01*
X261614D01*
Y113681D01*
X264113D02*
Y115347D01*
X264946Y116180D01*
X265779Y115347D01*
Y113681D01*
Y114931D01*
X264113D01*
X266613Y113681D02*
Y116180D01*
X268279Y113681D01*
Y116180D01*
X269112Y115764D02*
X269528Y116180D01*
X270361D01*
X270778Y115764D01*
Y114098D01*
X270361Y113681D01*
X269528D01*
X269112Y114098D01*
Y115764D01*
X266766Y197699D02*
X265100D01*
Y196450D01*
X265933D01*
X265100D01*
Y195200D01*
X267599D02*
Y196866D01*
X268432Y197699D01*
X269265Y196866D01*
Y195200D01*
Y196450D01*
X267599D01*
X270098Y195200D02*
Y197699D01*
X271764Y195200D01*
Y197699D01*
X272598Y195200D02*
X273431D01*
X273014D01*
Y197699D01*
X272598Y197283D01*
X272025Y76224D02*
Y73725D01*
Y74975D01*
X273691D01*
Y76224D01*
Y73725D01*
X276190Y76224D02*
X274524D01*
Y73725D01*
X276190D01*
X274524Y74975D02*
X275358D01*
X277024Y73725D02*
Y75391D01*
X277857Y76224D01*
X278690Y75391D01*
Y73725D01*
Y74975D01*
X277024D01*
X279523Y76224D02*
X281189D01*
X280356D01*
Y73725D01*
X282022Y74975D02*
X283688D01*
X284521Y75808D02*
X284938Y76224D01*
X285771D01*
X286187Y75808D01*
Y74142D01*
X285771Y73725D01*
X284938D01*
X284521Y74142D01*
Y75808D01*
G54D148*
X207400Y111500D02*
D03*
X116500D02*
D03*
Y199200D02*
D03*
G54D149*
X217725Y76325D02*
D03*
X204525Y76125D02*
D03*
X217025Y41825D02*
D03*
X204225Y47725D02*
D03*
X122225Y42125D02*
D03*
X108025Y43525D02*
D03*
X121625Y76525D02*
D03*
X108125Y76025D02*
D03*
X75325D02*
D03*
X64825Y76125D02*
D03*
X77125Y43125D02*
D03*
X63425Y48025D02*
D03*
X32725Y50225D02*
D03*
X18125Y47825D02*
D03*
X30025Y80025D02*
D03*
X18125D02*
D03*
X296725Y30425D02*
D03*
X294225Y19425D02*
D03*
X322625Y124325D02*
D03*
X300425Y123025D02*
D03*
X287425Y134425D02*
D03*
X277425Y123625D02*
D03*
X219925Y124525D02*
D03*
X209525Y135225D02*
D03*
X225300Y147000D02*
D03*
X213737Y156939D02*
D03*
X225525Y175125D02*
D03*
X213525Y185025D02*
D03*
X81125Y220425D02*
D03*
X70925Y232125D02*
D03*
G54D150*
X90813Y144104D02*
D03*
X299728Y112290D02*
D03*
X350828Y182490D02*
D03*
G54D151*
X328100Y262715D02*
Y270314D01*
X324198Y262715D02*
X328100D01*
X324198D02*
Y270314D01*
X328100D01*
X316386Y266500D02*
X323985D01*
Y262598D02*
Y266500D01*
X316386Y262598D02*
X323985D01*
X316386D02*
Y266500D01*
X320501Y270798D02*
Y274700D01*
Y270798D02*
X328100D01*
Y274700D01*
X320501D02*
X328100D01*
X316401Y266698D02*
Y270600D01*
Y266698D02*
X324000D01*
Y270600D01*
X316401D02*
X324000D01*
X347786Y272500D02*
X355385D01*
Y268598D02*
Y272500D01*
X347786Y268598D02*
X355385D01*
X347786D02*
Y272500D01*
X355600Y248586D02*
Y256185D01*
X359502D01*
Y248586D02*
Y256185D01*
X355600Y248586D02*
X359502D01*
X328444Y220180D02*
Y230220D01*
X333956D01*
Y220180D02*
Y230220D01*
X328444Y220180D02*
X333956D01*
X332500Y268386D02*
Y275985D01*
X336402D01*
Y268386D02*
Y275985D01*
X332500Y268386D02*
X336402D01*
X211701Y201098D02*
Y205000D01*
Y201098D02*
X219300D01*
Y205000D01*
X211701D02*
X219300D01*
X204399Y196100D02*
Y200002D01*
X196800D02*
X204399D01*
X196800Y196100D02*
Y200002D01*
Y196100D02*
X204399D01*
X211691Y196998D02*
Y200900D01*
Y196998D02*
X219290D01*
Y200900D01*
X211691D02*
X219290D01*
X204399Y192000D02*
Y195902D01*
X196800D02*
X204399D01*
X196800Y192000D02*
Y195902D01*
Y192000D02*
X204399D01*
X247399Y194700D02*
Y198602D01*
X239800D02*
X247399D01*
X239800Y194700D02*
Y198602D01*
Y194700D02*
X247399D01*
X232101Y200598D02*
Y204500D01*
Y200598D02*
X239700D01*
Y204500D01*
X232101D02*
X239700D01*
X355598Y271799D02*
X359500D01*
X355598Y264200D02*
Y271799D01*
Y264200D02*
X359500D01*
Y271799D01*
X134100Y215901D02*
X138002D01*
Y223500D01*
X134100D02*
X138002D01*
X134100Y215901D02*
Y223500D01*
X74665Y215390D02*
Y219291D01*
X67066D02*
X74665D01*
X67066Y215390D02*
Y219291D01*
Y215390D02*
X74665D01*
X208500Y190500D02*
X216099D01*
X208500D02*
Y194402D01*
X216099D01*
Y190500D02*
Y194402D01*
X193198Y124699D02*
X197100D01*
X193198Y117100D02*
Y124699D01*
Y117100D02*
X197100D01*
Y124699D01*
X212480Y36144D02*
X222520D01*
X212480D02*
Y41656D01*
X222520D01*
Y36144D02*
Y41656D01*
X195620Y51544D02*
Y57056D01*
X185580D02*
X195620D01*
X185580Y51544D02*
Y57056D01*
Y51544D02*
X195620D01*
X202880Y33456D02*
X212920D01*
Y27944D02*
Y33456D01*
X202880Y27944D02*
X212920D01*
X202880D02*
Y33456D01*
X212744Y97320D02*
X218256D01*
X212744Y87280D02*
Y97320D01*
Y87280D02*
X218256D01*
Y97320D01*
X225044Y31003D02*
Y41043D01*
X230556D01*
Y31003D02*
Y41043D01*
X225044Y31003D02*
X230556D01*
X236244Y42420D02*
X241756D01*
X236244Y32380D02*
Y42420D01*
Y32380D02*
X241756D01*
Y42420D01*
X233899Y58600D02*
Y62502D01*
X226300D02*
X233899D01*
X226300Y58600D02*
Y62502D01*
Y58600D02*
X233899D01*
X218200Y77800D02*
X225799D01*
X218200D02*
Y81702D01*
X225799D01*
Y77800D02*
Y81702D01*
X196300Y50901D02*
X200202D01*
Y58500D01*
X196300D02*
X200202D01*
X196300Y50901D02*
Y58500D01*
X231800Y63600D02*
Y71199D01*
X227898Y63600D02*
X231800D01*
X227898D02*
Y71199D01*
X231800D01*
X226201Y71998D02*
Y75900D01*
Y71998D02*
X233800D01*
Y75900D01*
X226201D02*
X233800D01*
X227844Y76580D02*
Y86620D01*
X233356D01*
Y76580D02*
Y86620D01*
X227844Y76580D02*
X233356D01*
X226520Y81744D02*
Y87256D01*
X216480D02*
X226520D01*
X216480Y81744D02*
Y87256D01*
Y81744D02*
X226520D01*
X224880Y41344D02*
X234920D01*
X224880D02*
Y46856D01*
X234920D01*
Y41344D02*
Y46856D01*
X115469Y33206D02*
X120981D01*
Y43245D01*
X115469D02*
X120981D01*
X115469Y33206D02*
Y43245D01*
X93680Y42744D02*
X103720D01*
X93680D02*
Y48256D01*
X103720D01*
Y42744D02*
Y48256D01*
X124780Y35444D02*
Y40956D01*
Y35444D02*
X134820D01*
Y40956D01*
X124780D02*
X134820D01*
X106380Y82344D02*
X116420D01*
X106380D02*
Y87856D01*
X116420D01*
Y82344D02*
Y87856D01*
X155444Y57380D02*
X160956D01*
Y67420D01*
X155444D02*
X160956D01*
X155444Y57380D02*
Y67420D01*
X173880Y62456D02*
X183920D01*
Y56944D02*
Y62456D01*
X173880Y56944D02*
X183920D01*
X173880D02*
Y62456D01*
X130700Y59000D02*
X138299D01*
X130700D02*
Y62902D01*
X138299D01*
Y59000D02*
Y62902D01*
X99900Y51101D02*
X103802D01*
Y58700D01*
X99900D02*
X103802D01*
X99900Y51101D02*
Y58700D01*
X121900Y77700D02*
X129499D01*
X121900D02*
Y81602D01*
X129499D01*
Y77700D02*
Y81602D01*
X131398Y71199D02*
X135300D01*
X131398Y63600D02*
Y71199D01*
Y63600D02*
X135300D01*
Y71199D01*
X130401Y75900D02*
X138000D01*
Y71998D02*
Y75900D01*
X130401Y71998D02*
X138000D01*
X130401D02*
Y75900D01*
X131780Y75944D02*
Y81456D01*
Y75944D02*
X141820D01*
Y81456D01*
X131780D02*
X141820D01*
X120180Y81644D02*
X130220D01*
X120180D02*
Y87156D01*
X130220D01*
Y81644D02*
Y87156D01*
X138920Y42044D02*
Y47556D01*
X128880D02*
X138920D01*
X128880Y42044D02*
Y47556D01*
Y42044D02*
X138920D01*
X75280Y81644D02*
X85320D01*
X75280D02*
Y87156D01*
X85320D01*
Y81644D02*
Y87156D01*
X89720Y41944D02*
Y47456D01*
X79680D02*
X89720D01*
X79680Y41944D02*
Y47456D01*
Y41944D02*
X89720D01*
X64680Y34756D02*
X74720D01*
Y29244D02*
Y34756D01*
X64680Y29244D02*
X74720D01*
X64680D02*
Y34756D01*
X58645Y44169D02*
Y49681D01*
X48605D02*
X58645D01*
X48605Y44169D02*
Y49681D01*
Y44169D02*
X58645D01*
X80681Y31605D02*
Y41645D01*
X75169Y31605D02*
X80681D01*
X75169D02*
Y41645D01*
X80681D01*
X71144Y97220D02*
X76656D01*
X71144Y87180D02*
Y97220D01*
Y87180D02*
X76656D01*
Y97220D01*
X91481Y31605D02*
Y41645D01*
X85969Y31605D02*
X91481D01*
X85969D02*
Y41645D01*
X91481D01*
X117880Y27444D02*
Y32956D01*
Y27444D02*
X127920D01*
Y32956D01*
X117880D02*
X127920D01*
X92399Y58800D02*
Y62702D01*
X84800D02*
X92399D01*
X84800Y58800D02*
Y62702D01*
Y58800D02*
X92399D01*
X76800Y77700D02*
X84399D01*
X76800D02*
Y81602D01*
X84399D01*
Y77700D02*
Y81602D01*
X54800Y50001D02*
X58702D01*
Y57600D01*
X54800D02*
X58702D01*
X54800Y50001D02*
Y57600D01*
X90300Y63500D02*
Y71099D01*
X86398Y63500D02*
X90300D01*
X86398D02*
Y71099D01*
X90300D01*
X84739Y71898D02*
Y75800D01*
Y71898D02*
X92338D01*
Y75800D01*
X84739D02*
X92338D01*
X86444Y76180D02*
Y86220D01*
X91956D01*
Y76180D02*
Y86220D01*
X86444Y76180D02*
X91956D01*
X301544Y123020D02*
X307056D01*
X301544Y112980D02*
Y123020D01*
Y112980D02*
X307056D01*
Y123020D01*
X329731Y96194D02*
X339770D01*
X329731D02*
Y101706D01*
X339770D01*
Y96194D02*
Y101706D01*
X328980Y90444D02*
Y95956D01*
Y90444D02*
X339020D01*
Y95956D01*
X328980D02*
X339020D01*
X339680Y90444D02*
X349720D01*
X339680D02*
Y95956D01*
X349720D01*
Y90444D02*
Y95956D01*
X205101Y160198D02*
Y164100D01*
Y160198D02*
X212700D01*
Y164100D01*
X205101D02*
X212700D01*
X159892Y74644D02*
X167491D01*
X159892D02*
Y78546D01*
X167491D01*
Y74644D02*
Y78546D01*
X168887Y90983D02*
Y94884D01*
X161287D02*
X168887D01*
X161287Y90983D02*
Y94884D01*
Y90983D02*
X168887D01*
X167668Y74644D02*
X175267D01*
X167668D02*
Y78546D01*
X175267D01*
Y74644D02*
Y78546D01*
X176367Y90983D02*
Y94884D01*
X168768D02*
X176367D01*
X168768Y90983D02*
Y94884D01*
Y90983D02*
X176367D01*
X175444Y78546D02*
X183043D01*
Y74644D02*
Y78546D01*
X175444Y74644D02*
X183043D01*
X175444D02*
Y78546D01*
X176544Y90983D02*
Y94884D01*
Y90983D02*
X184143D01*
Y94884D01*
X176544D02*
X184143D01*
X43053Y180801D02*
Y188400D01*
X46954D01*
Y180801D02*
Y188400D01*
X43053Y180801D02*
X46954D01*
X82966Y144769D02*
X86868D01*
X82966Y137170D02*
Y144769D01*
Y137170D02*
X86868D01*
Y144769D01*
X118659Y137761D02*
Y145360D01*
X114757Y137761D02*
X118659D01*
X114757D02*
Y145360D01*
X118659D01*
X114757Y120235D02*
X118659D01*
Y127835D01*
X114757D02*
X118659D01*
X114757Y120235D02*
Y127835D01*
X82966Y119947D02*
Y127546D01*
X86868D01*
Y119947D02*
Y127546D01*
X82966Y119947D02*
X86868D01*
X314680Y122456D02*
X324720D01*
Y116944D02*
Y122456D01*
X314680Y116944D02*
X324720D01*
X314680D02*
Y122456D01*
X296220Y31644D02*
Y37156D01*
X286180D02*
X296220D01*
X286180Y31644D02*
Y37156D01*
Y31644D02*
X296220D01*
X167900Y189601D02*
X171802D01*
Y197200D01*
X167900D02*
X171802D01*
X167900Y189601D02*
Y197200D01*
X200901Y179800D02*
X208500D01*
Y175898D02*
Y179800D01*
X200901Y175898D02*
X208500D01*
X200901D02*
Y179800D01*
X52300Y125700D02*
Y133470D01*
X67868Y125700D02*
Y133470D01*
X52300D02*
X67868D01*
X52300Y125700D02*
X67868D01*
X202525Y170529D02*
X210124D01*
Y166628D02*
Y170529D01*
X202525Y166628D02*
X210124D01*
X202525D02*
Y170529D01*
X106498Y162599D02*
X110400D01*
X106498Y155000D02*
Y162599D01*
Y155000D02*
X110400D01*
Y162599D01*
X111892Y147120D02*
X119491D01*
X111892D02*
Y151022D01*
X119491D01*
Y147120D02*
Y151022D01*
X81765Y156779D02*
Y160680D01*
X74165D02*
X81765D01*
X74165Y156779D02*
Y160680D01*
Y156779D02*
X81765D01*
X72301Y154300D02*
X79900D01*
Y150398D02*
Y154300D01*
X72301Y150398D02*
X79900D01*
X72301D02*
Y154300D01*
X56900Y140301D02*
X60802D01*
Y147900D01*
X56900D02*
X60802D01*
X56900Y140301D02*
Y147900D01*
X59300Y174900D02*
X66899D01*
X59300D02*
Y178802D01*
X66899D01*
Y174900D02*
Y178802D01*
X107501Y166349D02*
Y170250D01*
Y166349D02*
X115100D01*
Y170250D01*
X107501D02*
X115100D01*
X59300Y162500D02*
X66899D01*
X59300D02*
Y166402D01*
X66899D01*
Y162500D02*
Y166402D01*
X52301Y133698D02*
Y137600D01*
Y133698D02*
X59900D01*
Y137600D01*
X52301D02*
X59900D01*
X31300Y211600D02*
Y219199D01*
X27398Y211600D02*
X31300D01*
X27398D02*
Y219199D01*
X31300D01*
X158062Y113878D02*
Y117780D01*
Y113878D02*
X165661D01*
Y117780D01*
X158062D02*
X165661D01*
X197600Y133828D02*
Y141427D01*
X201502D01*
Y133828D02*
Y141427D01*
X197600Y133828D02*
X201502D01*
X122998Y171499D02*
X126900D01*
X122998Y163900D02*
Y171499D01*
Y163900D02*
X126900D01*
Y171499D01*
X200950Y174663D02*
X208550D01*
Y170761D02*
Y174663D01*
X200950Y170761D02*
X208550D01*
X200950D02*
Y174663D01*
X30680Y84144D02*
X40720D01*
X30680D02*
Y89656D01*
X40720D01*
Y84144D02*
Y89656D01*
X48320Y45144D02*
Y50656D01*
X38280D02*
X48320D01*
X38280Y45144D02*
Y50656D01*
Y45144D02*
X48320D01*
X30144Y36480D02*
Y46520D01*
X35656D01*
Y36480D02*
Y46520D01*
X30144Y36480D02*
X35656D01*
X14620Y46744D02*
Y52256D01*
X4580D02*
X14620D01*
X4580Y46744D02*
Y52256D01*
Y46744D02*
X14620D01*
X41356Y35080D02*
Y45120D01*
X35844Y35080D02*
X41356D01*
X35844D02*
Y45120D01*
X41356D01*
X25144Y99120D02*
X30656D01*
X25144Y89080D02*
Y99120D01*
Y89080D02*
X30656D01*
Y99120D01*
X47106Y33703D02*
Y43742D01*
X41594Y33703D02*
X47106D01*
X41594D02*
Y43742D01*
X47106D01*
X47394Y43720D02*
X52906D01*
X47394Y33680D02*
Y43720D01*
Y33680D02*
X52906D01*
Y43720D01*
X47299Y62600D02*
Y66502D01*
X39700D02*
X47299D01*
X39700Y62600D02*
Y66502D01*
Y62600D02*
X47299D01*
X45700Y67200D02*
Y74799D01*
X41798Y67200D02*
X45700D01*
X41798D02*
Y74799D01*
X45700D01*
X10200Y53401D02*
X14102D01*
Y61000D01*
X10200D02*
X14102D01*
X10200Y53401D02*
Y61000D01*
X31200Y80300D02*
X38799D01*
X31200D02*
Y84202D01*
X38799D01*
Y80300D02*
Y84202D01*
X40001Y75498D02*
Y79400D01*
Y75498D02*
X47600D01*
Y79400D01*
X40001D02*
X47600D01*
X41544Y79580D02*
X47056D01*
Y89620D01*
X41544D02*
X47056D01*
X41544Y79580D02*
Y89620D01*
X158199Y272200D02*
Y276102D01*
X150600D02*
X158199D01*
X150600Y272200D02*
Y276102D01*
Y272200D02*
X158199D01*
X276700Y261101D02*
Y268700D01*
X280602D01*
Y261101D02*
Y268700D01*
X276700Y261101D02*
X280602D01*
X59300Y156100D02*
X66899D01*
X59300D02*
Y160002D01*
X66899D01*
Y156100D02*
Y160002D01*
X82322Y209713D02*
X89921D01*
X82322D02*
Y213614D01*
X89921D01*
Y209713D02*
Y213614D01*
X98689Y201909D02*
Y209509D01*
X102591D01*
Y201909D02*
Y209509D01*
X98689Y201909D02*
X102591D01*
X48256Y214991D02*
Y222590D01*
X44354Y214991D02*
X48256D01*
X44354D02*
Y222590D01*
X48256D01*
X89939Y214803D02*
Y222402D01*
X93840D01*
Y214803D02*
Y222402D01*
X89939Y214803D02*
X93840D01*
X108900Y205300D02*
Y212899D01*
X104998Y205300D02*
X108900D01*
X104998D02*
Y212899D01*
X108900D01*
X110313Y181877D02*
X117912D01*
Y177976D02*
Y181877D01*
X110313Y177976D02*
X117912D01*
X110313D02*
Y181877D01*
X211850Y34900D02*
Y42670D01*
X193150D02*
X211850D01*
X193150Y34900D02*
Y42670D01*
Y34900D02*
X211850D01*
X106775Y95825D02*
X125476D01*
Y88055D02*
Y95825D01*
X106775Y88055D02*
X125476D01*
X106775D02*
Y95825D01*
X204725Y81275D02*
X212495D01*
Y99976D01*
X204725D02*
X212495D01*
X204725Y81275D02*
Y99976D01*
X55375Y35725D02*
X74076D01*
X55375D02*
Y43495D01*
X74076D01*
Y35725D02*
Y43495D01*
X115176Y34825D02*
Y42595D01*
X96475D02*
X115176D01*
X96475Y34825D02*
Y42595D01*
Y34825D02*
X115176D01*
X63200Y81450D02*
Y100150D01*
X70970D01*
Y81450D02*
Y100150D01*
X63200Y81450D02*
X70970D01*
X29950Y38800D02*
Y46570D01*
X11250D02*
X29950D01*
X11250Y38800D02*
Y46570D01*
Y38800D02*
X29950D01*
X17200Y85650D02*
Y104350D01*
X24970D01*
Y85650D02*
Y104350D01*
X17200Y85650D02*
X24970D01*
X74224Y128924D02*
X78125D01*
X74224Y121325D02*
Y128924D01*
Y121325D02*
X78125D01*
Y128924D01*
X216301Y192898D02*
Y196800D01*
Y192898D02*
X223900D01*
Y196800D01*
X216301D02*
X223900D01*
X65070Y119944D02*
Y125456D01*
X55030D02*
X65070D01*
X55030Y119944D02*
Y125456D01*
Y119944D02*
X65070D01*
X278001Y272298D02*
Y276200D01*
Y272298D02*
X285600D01*
Y276200D01*
X278001D02*
X285600D01*
X293999Y272200D02*
Y276102D01*
X286400D02*
X293999D01*
X286400Y272200D02*
Y276102D01*
Y272200D02*
X293999D01*
X201400Y117100D02*
Y124699D01*
X197498Y117100D02*
X201400D01*
X197498D02*
Y124699D01*
X201400D01*
X210401Y121698D02*
Y125600D01*
Y121698D02*
X218000D01*
Y125600D01*
X210401D02*
X218000D01*
X205100Y156300D02*
X212699D01*
X205100D02*
Y160202D01*
X212699D01*
Y156300D02*
Y160202D01*
X211900Y139501D02*
X215802D01*
Y147100D01*
X211900D02*
X215802D01*
X211900Y139501D02*
Y147100D01*
X278800Y124500D02*
X286399D01*
X278800D02*
Y128402D01*
X286399D01*
Y124500D02*
Y128402D01*
X291900Y179501D02*
X295802D01*
Y187100D01*
X291900D02*
X295802D01*
X291900Y179501D02*
Y187100D01*
X278801Y132500D02*
X286400D01*
Y128598D02*
Y132500D01*
X278801Y128598D02*
X286400D01*
X278801D02*
Y132500D01*
X142101Y210698D02*
Y214600D01*
Y210698D02*
X149700D01*
Y214600D01*
X142101D02*
X149700D01*
X141700Y198801D02*
Y206400D01*
X145602D01*
Y198801D02*
Y206400D01*
X141700Y198801D02*
X145602D01*
X108200Y216101D02*
X112102D01*
Y223700D01*
X108200D02*
X112102D01*
X108200Y216101D02*
Y223700D01*
X105300Y189701D02*
Y197300D01*
X109202D01*
Y189701D02*
Y197300D01*
X105300Y189701D02*
X109202D01*
X94348Y201914D02*
Y209513D01*
X90446Y201914D02*
X94348D01*
X90446D02*
Y209513D01*
X94348D01*
X90248Y201914D02*
Y209513D01*
X86346Y201914D02*
X90248D01*
X86346D02*
Y209513D01*
X90248D01*
X232600Y63601D02*
Y71200D01*
X236502D01*
Y63601D02*
Y71200D01*
X232600Y63601D02*
X236502D01*
X136100D02*
X140002D01*
Y71200D01*
X136100D02*
X140002D01*
X136100Y63601D02*
Y71200D01*
X92400Y55501D02*
Y63100D01*
X96302D01*
Y55501D02*
Y63100D01*
X92400Y55501D02*
X96302D01*
X355598Y263999D02*
X359500D01*
X355598Y256400D02*
Y263999D01*
Y256400D02*
X359500D01*
Y263999D01*
X328398Y275999D02*
X332300D01*
X328398Y268400D02*
Y275999D01*
Y268400D02*
X332300D01*
Y275999D01*
X153000Y193101D02*
Y200700D01*
X156902D01*
Y193101D02*
Y200700D01*
X153000Y193101D02*
X156902D01*
X212398Y175099D02*
X216300D01*
X212398Y167500D02*
Y175099D01*
Y167500D02*
X216300D01*
Y175099D01*
X214300Y113900D02*
Y121499D01*
X210398Y113900D02*
X214300D01*
X210398D02*
Y121499D01*
X214300D01*
X216000Y139501D02*
X219902D01*
Y147100D01*
X216000D02*
X219902D01*
X216000Y139501D02*
Y147100D01*
X216600Y171400D02*
X224199D01*
X216600D02*
Y175302D01*
X224199D01*
Y171400D02*
Y175302D01*
X145598Y205199D02*
X149500D01*
X145598Y197600D02*
Y205199D01*
Y197600D02*
X149500D01*
Y205199D01*
X53053Y180801D02*
Y188400D01*
X49151Y180801D02*
X53053D01*
X49151D02*
Y188400D01*
X53053D01*
X275501Y138898D02*
Y142800D01*
Y138898D02*
X283100D01*
Y142800D01*
X275501D02*
X283100D01*
X290300Y127100D02*
Y134699D01*
X286398Y127100D02*
X290300D01*
X286398D02*
Y134699D01*
X290300D01*
X59301Y170698D02*
Y174600D01*
Y170698D02*
X66900D01*
Y174600D01*
X59301D02*
X66900D01*
X59301Y170500D02*
X66900D01*
Y166598D02*
Y170500D01*
X59301Y166598D02*
X66900D01*
X59301D02*
Y170500D01*
X334201Y194298D02*
Y198200D01*
Y194298D02*
X341800D01*
Y198200D01*
X334201D02*
X341800D01*
X200298Y181898D02*
Y189497D01*
X204200D01*
Y181898D02*
Y189497D01*
X200298Y181898D02*
X204200D01*
X192562Y185594D02*
Y189495D01*
Y185594D02*
X200161D01*
Y189495D01*
X192562D02*
X200161D01*
X39898Y195712D02*
X43799D01*
Y203311D01*
X39898D02*
X43799D01*
X39898Y195712D02*
Y203311D01*
X31498Y219199D02*
X35400D01*
X31498Y211600D02*
Y219199D01*
Y211600D02*
X35400D01*
Y219199D01*
X287440Y63650D02*
X295039D01*
X287440D02*
Y67551D01*
X295039D01*
Y63650D02*
Y67551D01*
X287401Y67798D02*
Y71700D01*
Y67798D02*
X295000D01*
Y71700D01*
X287401D02*
X295000D01*
X269900Y68300D02*
X277499D01*
X269900D02*
Y72202D01*
X277499D01*
Y68300D02*
Y72202D01*
X212101Y134998D02*
Y138900D01*
Y134998D02*
X219700D01*
Y138900D01*
X212101D02*
X219700D01*
X20901Y192000D02*
X28500D01*
Y188098D02*
Y192000D01*
X20901Y188098D02*
X28500D01*
X20901D02*
Y192000D01*
X224199Y167200D02*
Y171102D01*
X216600D02*
X224199D01*
X216600Y167200D02*
Y171102D01*
Y167200D02*
X224199D01*
X58856Y170580D02*
Y180619D01*
X53344Y170580D02*
X58856D01*
X53344D02*
Y180619D01*
X58856D01*
X53344Y160081D02*
X58856D01*
Y170120D01*
X53344D02*
X58856D01*
X53344Y160081D02*
Y170120D01*
X47500Y57501D02*
Y65100D01*
X51402D01*
Y57501D02*
Y65100D01*
X47500Y57501D02*
X51402D01*
X157100Y189801D02*
X161002D01*
Y197400D01*
X157100D02*
X161002D01*
X157100Y189801D02*
Y197400D01*
X288101Y179300D02*
X295700D01*
Y175398D02*
Y179300D01*
X288101Y175398D02*
X295700D01*
X288101D02*
Y179300D01*
X277701Y175398D02*
Y179300D01*
Y175398D02*
X285300D01*
Y179300D01*
X277701D02*
X285300D01*
X291700Y179500D02*
Y187099D01*
X287798Y179500D02*
X291700D01*
X287798D02*
Y187099D01*
X291700D01*
X20926Y200100D02*
X28525D01*
Y196198D02*
Y200100D01*
X20926Y196198D02*
X28525D01*
X20926D02*
Y200100D01*
X164425Y95425D02*
Y103024D01*
X160524Y95425D02*
X164425D01*
X160524D02*
Y103024D01*
X164425D01*
X200301Y131750D02*
X207900D01*
Y127849D02*
Y131750D01*
X200301Y127849D02*
X207900D01*
X200301D02*
Y131750D01*
X203101Y151250D02*
X210700D01*
Y147349D02*
Y151250D01*
X203101Y147349D02*
X210700D01*
X203101D02*
Y151250D01*
Y147350D02*
X210700D01*
Y143449D02*
Y147350D01*
X203101Y143449D02*
X210700D01*
X203101D02*
Y147350D01*
X124201Y220300D02*
X131800D01*
Y216398D02*
Y220300D01*
X124201Y216398D02*
X131800D01*
X124201D02*
Y220300D01*
X187400Y192601D02*
Y200200D01*
X191302D01*
Y192601D02*
Y200200D01*
X187400Y192601D02*
X191302D01*
X181700D02*
Y200200D01*
X185602D01*
Y192601D02*
Y200200D01*
X181700Y192601D02*
X185602D01*
X175900Y192501D02*
Y200100D01*
X179802D01*
Y192501D02*
Y200100D01*
X175900Y192501D02*
X179802D01*
X142101Y210500D02*
X149700D01*
Y206598D02*
Y210500D01*
X142101Y206598D02*
X149700D01*
X142101D02*
Y210500D01*
X150001Y214600D02*
X157600D01*
Y210698D02*
Y214600D01*
X150001Y210698D02*
X157600D01*
X150001D02*
Y214600D01*
X115201Y173100D02*
X122800D01*
Y169198D02*
Y173100D01*
X115201Y169198D02*
X122800D01*
X115201D02*
Y173100D01*
X147771Y118400D02*
X155370D01*
Y114498D02*
Y118400D01*
X147771Y114498D02*
X155370D01*
X147771D02*
Y118400D01*
X150500Y201300D02*
X158099D01*
X150500D02*
Y205202D01*
X158099D01*
Y201300D02*
Y205202D01*
X152800Y189900D02*
Y197499D01*
X148898Y189900D02*
X152800D01*
X148898D02*
Y197499D01*
X152800D01*
X150001Y210000D02*
X157600D01*
Y206098D02*
Y210000D01*
X150001Y206098D02*
X157600D01*
X150001D02*
Y210000D01*
X138200Y215600D02*
X145799D01*
X138200D02*
Y219502D01*
X145799D01*
Y215600D02*
Y219502D01*
X135101Y194500D02*
X142700D01*
Y190598D02*
Y194500D01*
X135101Y190598D02*
X142700D01*
X135101D02*
Y194500D01*
X221501Y205200D02*
X229100D01*
Y201298D02*
Y205200D01*
X221501Y201298D02*
X229100D01*
X221501D02*
Y205200D01*
X138201Y223600D02*
X145800D01*
Y219698D02*
Y223600D01*
X138201Y219698D02*
X145800D01*
X138201D02*
Y223600D01*
X354980Y14556D02*
X365020D01*
Y9044D02*
Y14556D01*
X354980Y9044D02*
X365020D01*
X354980D02*
Y14556D01*
X364944Y37820D02*
X370456D01*
X364944Y27780D02*
Y37820D01*
Y27780D02*
X370456D01*
Y37820D01*
X364944Y15980D02*
Y26020D01*
X370456D01*
Y15980D02*
Y26020D01*
X364944Y15980D02*
X370456D01*
X44100Y213815D02*
Y221414D01*
X40198Y213815D02*
X44100D01*
X40198D02*
Y221414D01*
X44100D01*
X98000Y215030D02*
Y222629D01*
X94098Y215030D02*
X98000D01*
X94098D02*
Y222629D01*
X98000D01*
X110786Y178000D02*
X118385D01*
Y174098D02*
Y178000D01*
X110786Y174098D02*
X118385D01*
X110786D02*
Y178000D01*
X52390Y214991D02*
Y222590D01*
X48488Y214991D02*
X52390D01*
X48488D02*
Y222590D01*
X52390D01*
X89779Y214783D02*
Y222382D01*
X85877Y214783D02*
X89779D01*
X85877D02*
Y222382D01*
X89779D01*
X118264Y177926D02*
X125864D01*
X118264D02*
Y181827D01*
X125864D01*
Y177926D02*
Y181827D01*
X67030Y219500D02*
X74629D01*
X67030D02*
Y223402D01*
X74629D01*
Y219500D02*
Y223402D01*
X97186Y213600D02*
X104785D01*
Y209698D02*
Y213600D01*
X97186Y209698D02*
X104785D01*
X97186D02*
Y213600D01*
X99015Y213800D02*
X106614D01*
X99015D02*
Y217702D01*
X106614D01*
Y213800D02*
Y217702D01*
X82258Y201905D02*
Y209504D01*
X86160D01*
Y201905D02*
Y209504D01*
X82258Y201905D02*
X86160D01*
X94555Y201909D02*
Y209509D01*
X98457D01*
Y201909D02*
Y209509D01*
X94555Y201909D02*
X98457D01*
X105300Y197501D02*
Y205100D01*
X109202D01*
Y197501D02*
Y205100D01*
X105300Y197501D02*
X109202D01*
X120100Y215986D02*
X124002D01*
Y223585D01*
X120100D02*
X124002D01*
X120100Y215986D02*
Y223585D01*
G54D152*
X245670Y203698D02*
Y274643D01*
X270867Y203698D02*
Y274643D01*
X245670D02*
X270867D01*
X245670Y203698D02*
X270867D01*
X137294Y127616D02*
Y179584D01*
X189263Y127616D02*
Y179584D01*
X137294Y127616D02*
X189263D01*
X137294Y179584D02*
X189263D01*
X163528Y210902D02*
X234472D01*
X163528Y236098D02*
X234472D01*
X163528Y210902D02*
Y236098D01*
X234472Y210902D02*
Y236098D01*
X163528Y248402D02*
X234472D01*
X163528Y273598D02*
X234472D01*
X163528Y248402D02*
Y273598D01*
X234472Y248402D02*
Y273598D01*
X335263Y82250D02*
X343137D01*
X335263Y88550D02*
X343137D01*
X357150Y21963D02*
Y29837D01*
X363450Y21963D02*
Y29837D01*
X15732Y53007D02*
X17405D01*
X15732D02*
Y54680D01*
X35319Y53007D02*
X36992D01*
Y54680D01*
Y76531D02*
Y78204D01*
X35319D02*
X36992D01*
X15732D02*
X17405D01*
X15732Y76531D02*
Y78204D01*
X60470Y72931D02*
Y74604D01*
X62143D01*
X80057D02*
X81730D01*
Y72931D02*
Y74604D01*
Y49407D02*
Y51080D01*
X80057Y49407D02*
X81730D01*
X60470D02*
Y51080D01*
Y49407D02*
X62143D01*
X105470D02*
X107143D01*
X105470D02*
Y51080D01*
X125057Y49407D02*
X126730D01*
Y51080D01*
Y72931D02*
Y74604D01*
X125057D02*
X126730D01*
X105470D02*
X107143D01*
X105470Y72931D02*
Y74604D01*
X201870Y72931D02*
Y74604D01*
X203543D01*
X221457D02*
X223130D01*
Y72931D02*
Y74604D01*
Y49407D02*
Y51080D01*
X221457Y49407D02*
X223130D01*
X201870D02*
Y51080D01*
Y49407D02*
X203543D01*
X112654Y219603D02*
X119346D01*
X112654Y219997D02*
X119346D01*
X112654Y219603D02*
Y219997D01*
X119346Y219603D02*
Y219997D01*
X336101Y267642D02*
X348699D01*
X336101Y247957D02*
X348699D01*
X336101D02*
Y267642D01*
X348699Y247957D02*
Y267642D01*
G54D153*
X85728Y215453D02*
Y221752D01*
X82579Y215453D02*
Y221752D01*
X85728D01*
X82579Y215453D02*
X85728D01*
X53225Y215750D02*
Y222050D01*
X56375Y215750D02*
Y222050D01*
X53225Y215750D02*
X56375D01*
X53225Y222050D02*
X56375D01*
X126066Y182939D02*
X132365D01*
X126066Y179790D02*
X132365D01*
X126066D02*
Y182939D01*
X132365Y179790D02*
Y182939D01*
X282550Y142925D02*
Y146075D01*
X276250Y142925D02*
Y146075D01*
Y142925D02*
X282550D01*
X276250Y146075D02*
X282550D01*
X274450Y124776D02*
X277600D01*
X274450Y131075D02*
X277600D01*
X274450Y124776D02*
Y131075D01*
X277600Y124776D02*
Y131075D01*
X231038Y30169D02*
Y38831D01*
X235762Y30169D02*
Y38831D01*
X231038Y30169D02*
X235762D01*
X231038Y38831D02*
X235762D01*
X213669Y27938D02*
X222331D01*
X213669Y32662D02*
X222331D01*
Y27938D02*
Y32662D01*
X213669Y27938D02*
Y32662D01*
X196938Y24069D02*
Y32731D01*
X201662Y24069D02*
Y32731D01*
X196938Y24069D02*
X201662D01*
X196938Y32731D02*
X201662D01*
X170169Y51438D02*
X178831D01*
X170169Y56162D02*
X178831D01*
Y51438D02*
Y56162D01*
X170169Y51438D02*
Y56162D01*
X159269Y51438D02*
X167931D01*
X159269Y56162D02*
X167931D01*
Y51438D02*
Y56162D01*
X159269Y51438D02*
Y56162D01*
X145569Y51438D02*
X154231D01*
X145569Y56162D02*
X154231D01*
Y51438D02*
Y56162D01*
X145569Y51438D02*
Y56162D01*
X46963Y24694D02*
Y33356D01*
X51687Y24694D02*
Y33356D01*
X46963Y24694D02*
X51687D01*
X46963Y33356D02*
X51687D01*
X215950Y161175D02*
X222250D01*
X215950Y158025D02*
X222250D01*
X215950D02*
Y161175D01*
X222250Y158025D02*
Y161175D01*
X126950Y190325D02*
X133250D01*
X126950Y193475D02*
X133250D01*
Y190325D02*
Y193475D01*
X126950Y190325D02*
Y193475D01*
X116869Y189238D02*
Y193962D01*
X125531Y189238D02*
Y193962D01*
X116869D02*
X125531D01*
X116869Y189238D02*
X125531D01*
X106194Y33787D02*
X114856D01*
X106194Y29063D02*
X114856D01*
X106194D02*
Y33787D01*
X114856Y29063D02*
Y33787D01*
X191369Y47962D02*
X200031D01*
X191369Y43238D02*
X200031D01*
X191369D02*
Y47962D01*
X200031Y43238D02*
Y47962D01*
X202538Y125031D02*
X207262D01*
X202538Y116369D02*
X207262D01*
Y125031D01*
X202538Y116369D02*
Y125031D01*
X213531Y179838D02*
Y184562D01*
X204869Y179838D02*
Y184562D01*
Y179838D02*
X213531D01*
X204869Y184562D02*
X213531D01*
X57969Y151138D02*
X66631D01*
X57969Y155862D02*
X66631D01*
Y151138D02*
Y155862D01*
X57969Y151138D02*
Y155862D01*
X38663Y24694D02*
Y33356D01*
X43387Y24694D02*
Y33356D01*
X38663Y24694D02*
X43387D01*
X38663Y33356D02*
X43387D01*
X56463Y24676D02*
Y33338D01*
X61187Y24676D02*
Y33338D01*
X56463Y24676D02*
X61187D01*
X56463Y33338D02*
X61187D01*
X64694Y24263D02*
X73356D01*
X64694Y28987D02*
X73356D01*
Y24263D02*
Y28987D01*
X64694Y24263D02*
Y28987D01*
X76294Y24163D02*
X84956D01*
X76294Y28887D02*
X84956D01*
Y24163D02*
Y28887D01*
X76294Y24163D02*
Y28887D01*
X80963Y32994D02*
Y41656D01*
X85687Y32994D02*
Y41656D01*
X80963Y32994D02*
X85687D01*
X80963Y41656D02*
X85687D01*
X94394Y29063D02*
X103056D01*
X94394Y33787D02*
X103056D01*
Y29063D02*
Y33787D01*
X94394Y29063D02*
Y33787D01*
X129694Y24663D02*
X138356D01*
X129694Y29387D02*
X138356D01*
Y24663D02*
Y29387D01*
X129694Y24663D02*
Y29387D01*
G54D154*
X164972Y67050D02*
Y73002D01*
X177275Y67050D02*
Y73002D01*
Y81026D02*
Y86979D01*
X164972Y81026D02*
Y86979D01*
Y96577D02*
Y102530D01*
X177275Y96577D02*
Y102530D01*
X99730Y190529D02*
Y196482D01*
X87428Y190529D02*
Y196482D01*
X48517Y197013D02*
Y201735D01*
X45342Y197013D02*
Y201735D01*
X39175Y212877D02*
Y217600D01*
X36000Y212877D02*
Y217600D01*
X323728Y125439D02*
Y153019D01*
X298133Y125439D02*
Y153019D01*
X277877Y136400D02*
X282600D01*
X277877Y133225D02*
X282600D01*
X277500Y180200D02*
Y184923D01*
X274325Y180200D02*
Y184923D01*
G54D155*
X11500Y198105D02*
D03*
Y190105D02*
D03*
X290700Y142095D02*
D03*
X349300Y196695D02*
D03*
X277200Y64593D02*
D03*
G54D156*
X11500Y200500D02*
D03*
Y192500D02*
D03*
X290700Y139700D02*
D03*
X349300Y194300D02*
D03*
X277200Y62198D02*
D03*
G54D157*
X11500Y195738D02*
D03*
Y187738D02*
D03*
X290700Y144462D02*
D03*
X349300Y199062D02*
D03*
X277200Y66960D02*
D03*
G54D158*
X285502Y26360D02*
D03*
X285410Y14378D02*
D03*
X290929Y117895D02*
D03*
X342030Y188095D02*
D03*
G54D159*
X310887Y133405D02*
D03*
G54D160*
X96867Y172949D02*
D03*
X96782Y159582D02*
D03*
X293605Y131500D02*
D03*
G54D161*
X94472Y172949D02*
D03*
X99177Y159582D02*
D03*
X296000Y131500D02*
D03*
G54D162*
X99234Y172949D02*
D03*
X94415Y159582D02*
D03*
X291238Y131500D02*
D03*
M02*
