G04 Layer_Physical_Order=2*
G04 Layer_Color=32768*
%FSLAX25Y25*%
%MOIN*%
G70*
G01*
G75*
%ADD67C,0.01000*%
%ADD69C,0.02000*%
%ADD123C,0.05943*%
G04:AMPARAMS|DCode=124|XSize=83.433mil|YSize=83.433mil|CornerRadius=0mil|HoleSize=0mil|Usage=FLASHONLY|Rotation=0.000|XOffset=0mil|YOffset=0mil|HoleType=Round|Shape=Relief|Width=8mil|Gap=12mil|Entries=4|*
%AMTHD124*
7,0,0,0.08343,0.05943,0.00800,45*
%
%ADD124THD124*%
%ADD125C,0.06400*%
G04:AMPARAMS|DCode=126|XSize=88mil|YSize=88mil|CornerRadius=0mil|HoleSize=0mil|Usage=FLASHONLY|Rotation=0.000|XOffset=0mil|YOffset=0mil|HoleType=Round|Shape=Relief|Width=8mil|Gap=12mil|Entries=4|*
%AMTHD126*
7,0,0,0.08800,0.06400,0.00800,45*
%
%ADD126THD126*%
%ADD127C,0.08400*%
G04:AMPARAMS|DCode=128|XSize=108mil|YSize=108mil|CornerRadius=0mil|HoleSize=0mil|Usage=FLASHONLY|Rotation=0.000|XOffset=0mil|YOffset=0mil|HoleType=Round|Shape=Relief|Width=8mil|Gap=12mil|Entries=4|*
%AMTHD128*
7,0,0,0.10800,0.08400,0.00800,45*
%
%ADD128THD128*%
%ADD129C,0.07900*%
G04:AMPARAMS|DCode=130|XSize=86mil|YSize=86mil|CornerRadius=0mil|HoleSize=0mil|Usage=FLASHONLY|Rotation=0.000|XOffset=0mil|YOffset=0mil|HoleType=Round|Shape=Relief|Width=8mil|Gap=12mil|Entries=4|*
%AMTHD130*
7,0,0,0.08600,0.06200,0.00800,45*
%
%ADD130THD130*%
%ADD131C,0.06200*%
%ADD132C,0.11100*%
%ADD133C,0.08300*%
%ADD134C,0.14211*%
%ADD135C,0.03900*%
%ADD136C,0.08700*%
%ADD137C,0.03400*%
G54D67*
X25Y185600D02*
X37125D01*
Y202125D01*
X49600Y214600D01*
X101206Y150344D02*
Y198746D01*
Y150344D02*
X106325Y145225D01*
Y120125D02*
Y145225D01*
X104425Y118225D02*
X106325Y120125D01*
X2379Y118225D02*
X104425D01*
X80600Y198746D02*
X101206D01*
X80600D02*
Y210800D01*
X76800Y214600D02*
X80600Y210800D01*
X49600Y214600D02*
X76800D01*
X25Y115872D02*
X2379Y118225D01*
G54D69*
X0Y0D02*
X413400D01*
Y279500D01*
X0D02*
X413400D01*
X0Y0D02*
Y279500D01*
G54D123*
X253269Y259171D02*
D03*
X263268D02*
D03*
X253269Y249171D02*
D03*
Y239171D02*
D03*
X263268D02*
D03*
Y229171D02*
D03*
X253269Y219171D02*
D03*
X263268D02*
D03*
X219000Y228500D02*
D03*
Y218500D02*
D03*
X209000Y228500D02*
D03*
Y218500D02*
D03*
X199000Y228500D02*
D03*
Y218500D02*
D03*
X189000Y228500D02*
D03*
Y218500D02*
D03*
X179000D02*
D03*
X219000Y266000D02*
D03*
Y256000D02*
D03*
X209000Y266000D02*
D03*
Y256000D02*
D03*
X199000Y266000D02*
D03*
Y256000D02*
D03*
X189000Y266000D02*
D03*
Y256000D02*
D03*
X179000D02*
D03*
G54D124*
X263268Y249171D02*
D03*
X253269Y229171D02*
D03*
X179000Y228500D02*
D03*
Y266000D02*
D03*
G54D125*
X106482Y236246D02*
D03*
X86482D02*
D03*
X65143D02*
D03*
X45143D02*
D03*
X86482Y259868D02*
D03*
X106482D02*
D03*
X45143D02*
D03*
X65143D02*
D03*
X127821D02*
D03*
X147820D02*
D03*
X48025Y11825D02*
D03*
X58025D02*
D03*
X68025D02*
D03*
X78025D02*
D03*
X129206D02*
D03*
X119206D02*
D03*
X109206D02*
D03*
X99206D02*
D03*
X150387Y39384D02*
D03*
X160387D02*
D03*
X170387D02*
D03*
X180387D02*
D03*
Y11825D02*
D03*
X170387D02*
D03*
X160387D02*
D03*
X150387D02*
D03*
X201608Y11865D02*
D03*
X211608D02*
D03*
X221608D02*
D03*
X231608D02*
D03*
X260900Y142300D02*
D03*
Y132300D02*
D03*
Y122300D02*
D03*
X261000Y183700D02*
D03*
Y173700D02*
D03*
Y163700D02*
D03*
X236639Y173765D02*
D03*
Y111561D02*
D03*
X10873Y229398D02*
D03*
X403667Y42151D02*
D03*
X236639Y142663D02*
D03*
X147820Y236246D02*
D03*
X127821D02*
D03*
G54D126*
X96482D02*
D03*
X55143D02*
D03*
X96482Y259868D02*
D03*
X55143D02*
D03*
X137820D02*
D03*
X236639Y183765D02*
D03*
Y121561D02*
D03*
X10873Y211598D02*
D03*
X236639Y152663D02*
D03*
X137820Y236246D02*
D03*
G54D127*
X365300Y221050D02*
D03*
Y188550D02*
D03*
Y123550D02*
D03*
Y58550D02*
D03*
G54D128*
Y156050D02*
D03*
Y91050D02*
D03*
G54D129*
X282700Y95900D02*
D03*
X262700D02*
D03*
G54D130*
X74853Y208056D02*
D03*
X38284Y148568D02*
D03*
X134900Y210000D02*
D03*
G54D131*
X74853Y198056D02*
D03*
X64853Y208056D02*
D03*
Y198056D02*
D03*
X54853Y208056D02*
D03*
Y198056D02*
D03*
X38284Y158490D02*
D03*
X46184D02*
D03*
Y148568D02*
D03*
X114900Y200000D02*
D03*
Y210000D02*
D03*
X124900Y200000D02*
D03*
Y210000D02*
D03*
X134900Y200000D02*
D03*
G54D132*
X27584Y129868D02*
D03*
Y177190D02*
D03*
G54D133*
X20673Y206698D02*
D03*
Y234298D02*
D03*
G54D134*
X393726Y19710D02*
D03*
Y259868D02*
D03*
X19710D02*
D03*
Y19710D02*
D03*
G54D135*
X393726Y9710D02*
D03*
Y29710D02*
D03*
X403726Y19710D02*
D03*
X383726D02*
D03*
X386726Y26710D02*
D03*
X400726D02*
D03*
Y12710D02*
D03*
X386726D02*
D03*
X393726Y249868D02*
D03*
Y269868D02*
D03*
X403726Y259868D02*
D03*
X383726D02*
D03*
X386726Y266868D02*
D03*
X400726D02*
D03*
Y252868D02*
D03*
X386726D02*
D03*
X19710Y249868D02*
D03*
Y269868D02*
D03*
X29710Y259868D02*
D03*
X9710D02*
D03*
X12710Y266868D02*
D03*
X26710D02*
D03*
Y252868D02*
D03*
X12710D02*
D03*
X19710Y9710D02*
D03*
Y29710D02*
D03*
X29710Y19710D02*
D03*
X9710D02*
D03*
X12710Y26710D02*
D03*
X26710D02*
D03*
Y12710D02*
D03*
X12710D02*
D03*
X346000Y205000D02*
D03*
X346100Y221800D02*
D03*
X346000Y218600D02*
D03*
X124902Y172146D02*
D03*
X346425Y24025D02*
D03*
X339925Y58625D02*
D03*
X15525Y177525D02*
D03*
X315000Y45100D02*
D03*
X300200Y176100D02*
D03*
X359100Y227900D02*
D03*
X204800Y114900D02*
D03*
X35800Y198100D02*
D03*
X38017Y195500D02*
D03*
X51500Y135500D02*
D03*
X51600Y128100D02*
D03*
Y131300D02*
D03*
X65000Y161600D02*
D03*
X225700Y149500D02*
D03*
X220800Y136800D02*
D03*
X221900Y128000D02*
D03*
X218500Y164800D02*
D03*
X225400Y177800D02*
D03*
X205125Y126425D02*
D03*
X217200Y114000D02*
D03*
X201200Y133300D02*
D03*
X119500Y143500D02*
D03*
X256900Y66400D02*
D03*
X260700Y66300D02*
D03*
X359400Y213600D02*
D03*
X262500Y39500D02*
D03*
X253300Y39472D02*
D03*
Y34200D02*
D03*
X262500D02*
D03*
X253300Y29000D02*
D03*
X262500D02*
D03*
X297300Y14200D02*
D03*
X292800Y8400D02*
D03*
X288000D02*
D03*
X297300Y18500D02*
D03*
Y10000D02*
D03*
X300200Y172100D02*
D03*
X48800Y173100D02*
D03*
X51600Y165900D02*
D03*
X81817Y142939D02*
D03*
X92840Y173647D02*
D03*
X46819Y206105D02*
D03*
X82013Y125714D02*
D03*
X96370Y186316D02*
D03*
X85360Y196088D02*
D03*
X56300Y153500D02*
D03*
X82702Y193332D02*
D03*
X41800Y193900D02*
D03*
X76300Y189200D02*
D03*
X79813Y156074D02*
D03*
X157200Y116300D02*
D03*
X214300Y102700D02*
D03*
X35600Y206400D02*
D03*
X326500Y168300D02*
D03*
X333600Y156400D02*
D03*
X347100Y156500D02*
D03*
X340400Y175500D02*
D03*
X354300Y168400D02*
D03*
X365400Y179100D02*
D03*
Y198200D02*
D03*
X375000Y188300D02*
D03*
X381700Y185300D02*
D03*
X381600Y177500D02*
D03*
X372000Y166800D02*
D03*
X357100Y179600D02*
D03*
X373300Y179700D02*
D03*
X326400Y115300D02*
D03*
X333700Y105100D02*
D03*
X336000Y125500D02*
D03*
X346900D02*
D03*
X355300Y115500D02*
D03*
X346900Y104900D02*
D03*
X379200Y106800D02*
D03*
X379000Y128800D02*
D03*
X374500Y123600D02*
D03*
X365400Y132500D02*
D03*
X356100Y123300D02*
D03*
X365300Y113500D02*
D03*
X381200Y117900D02*
D03*
X342500Y131600D02*
D03*
X363700Y105100D02*
D03*
X304400Y77400D02*
D03*
X310200Y58900D02*
D03*
X317400Y57400D02*
D03*
X326700Y91400D02*
D03*
X325600Y85400D02*
D03*
X326600Y79400D02*
D03*
X322700Y75600D02*
D03*
X317800Y77300D02*
D03*
X353400Y89200D02*
D03*
X353000Y79700D02*
D03*
X352500Y85400D02*
D03*
X362500Y79800D02*
D03*
X379200Y63500D02*
D03*
X365400Y68100D02*
D03*
X365600Y49000D02*
D03*
X357000Y54100D02*
D03*
X374800Y58500D02*
D03*
X360300Y39800D02*
D03*
X360300Y27700D02*
D03*
X375325Y35225D02*
D03*
X304400Y23500D02*
D03*
X300200Y180100D02*
D03*
X325500Y177100D02*
D03*
Y184900D02*
D03*
X317000D02*
D03*
X304900D02*
D03*
X325500Y181000D02*
D03*
X300200Y184700D02*
D03*
X256900Y71500D02*
D03*
Y76500D02*
D03*
X33400Y220100D02*
D03*
X120000Y125900D02*
D03*
X172625Y192225D02*
D03*
X213900Y186500D02*
D03*
X276400Y84000D02*
D03*
X275500Y93100D02*
D03*
X260700Y71500D02*
D03*
X260400Y76100D02*
D03*
X321000Y184900D02*
D03*
X312900D02*
D03*
X309000D02*
D03*
X327400Y14100D02*
D03*
X339700Y74600D02*
D03*
X346200Y56900D02*
D03*
X333500Y57300D02*
D03*
X336700Y37600D02*
D03*
X333200Y47800D02*
D03*
X357300Y22600D02*
D03*
X363100Y22700D02*
D03*
X333000Y23500D02*
D03*
X354725Y17825D02*
D03*
X341325Y125025D02*
D03*
X340225Y157225D02*
D03*
X291100Y117000D02*
D03*
X370900Y213900D02*
D03*
X346000Y207900D02*
D03*
Y214900D02*
D03*
Y211300D02*
D03*
X300200Y168000D02*
D03*
X288800Y206700D02*
D03*
X285900D02*
D03*
X278500D02*
D03*
X282900D02*
D03*
X274200Y206600D02*
D03*
X269100Y206300D02*
D03*
X271300Y209800D02*
D03*
X334100Y180500D02*
D03*
X375000Y223600D02*
D03*
Y218300D02*
D03*
X364500Y210600D02*
D03*
X363300Y231200D02*
D03*
X359200Y206900D02*
D03*
X366900D02*
D03*
X370900Y209700D02*
D03*
X359100Y233800D02*
D03*
X368200Y230800D02*
D03*
G54D136*
X317495Y67139D02*
D03*
X304095D02*
D03*
Y14139D02*
D03*
X317495D02*
D03*
X333600Y168400D02*
D03*
X347000D02*
D03*
Y115400D02*
D03*
X333600D02*
D03*
X346500Y67100D02*
D03*
X333100D02*
D03*
Y14100D02*
D03*
X346500D02*
D03*
G54D137*
X198000Y241600D02*
D03*
X111700Y182300D02*
D03*
X138500Y205100D02*
D03*
X121700Y195500D02*
D03*
X128900Y175000D02*
D03*
X106900Y213200D02*
D03*
X116000Y192800D02*
D03*
X113225Y171225D02*
D03*
X107800Y180100D02*
D03*
X116000Y190500D02*
D03*
X118049Y179877D02*
D03*
X143100Y195200D02*
D03*
X93000Y213700D02*
D03*
X129400Y224600D02*
D03*
X135000Y224000D02*
D03*
X143000Y192200D02*
D03*
X139300Y224000D02*
D03*
X141600Y215000D02*
D03*
X150400Y201500D02*
D03*
X143000Y224300D02*
D03*
X75800Y218800D02*
D03*
X118100Y224900D02*
D03*
X199000Y273736D02*
D03*
X65766Y225916D02*
D03*
X125098Y140847D02*
D03*
X81100Y221500D02*
D03*
X102953Y203839D02*
D03*
X246200Y101800D02*
D03*
X341425Y101625D02*
D03*
X349125Y98325D02*
D03*
X198125Y160025D02*
D03*
X294325Y154225D02*
D03*
X289525D02*
D03*
X91900Y155500D02*
D03*
X381600Y196000D02*
D03*
X351600Y45800D02*
D03*
X126600Y190900D02*
D03*
X145500Y161600D02*
D03*
X158200Y56200D02*
D03*
X244700Y218500D02*
D03*
X176100Y177100D02*
D03*
X177600Y135700D02*
D03*
X156025Y131225D02*
D03*
X316900Y168239D02*
D03*
X320900D02*
D03*
Y172239D02*
D03*
X316900D02*
D03*
Y176239D02*
D03*
X320900D02*
D03*
Y180239D02*
D03*
X316900D02*
D03*
X308900D02*
D03*
X304900D02*
D03*
Y176239D02*
D03*
X308900D02*
D03*
Y172239D02*
D03*
X304900D02*
D03*
Y168239D02*
D03*
X308900D02*
D03*
X312900D02*
D03*
Y172239D02*
D03*
Y180239D02*
D03*
Y176239D02*
D03*
X273681Y50768D02*
D03*
X269681D02*
D03*
X277681D02*
D03*
X281681D02*
D03*
Y46768D02*
D03*
Y42768D02*
D03*
X277681D02*
D03*
Y46768D02*
D03*
X273681D02*
D03*
Y42768D02*
D03*
X269681D02*
D03*
Y46768D02*
D03*
Y54768D02*
D03*
Y58768D02*
D03*
X273681D02*
D03*
Y54768D02*
D03*
X277681D02*
D03*
Y58768D02*
D03*
X281681D02*
D03*
Y54768D02*
D03*
X29400Y190000D02*
D03*
X33325Y210825D02*
D03*
X172725Y215125D02*
D03*
X222800Y223400D02*
D03*
X116525Y28825D02*
D03*
X36700Y50500D02*
D03*
X223900Y46800D02*
D03*
X78200Y87400D02*
D03*
X204800Y106700D02*
D03*
X92849Y159191D02*
D03*
X84500Y158700D02*
D03*
X84700Y147500D02*
D03*
X86325Y136025D02*
D03*
X125000Y135100D02*
D03*
X115600Y136300D02*
D03*
X117400Y129300D02*
D03*
X125200Y132000D02*
D03*
X182479Y143800D02*
D03*
X147500Y114600D02*
D03*
X140983Y175300D02*
D03*
X144100D02*
D03*
X137900Y166000D02*
D03*
X137883Y161600D02*
D03*
X140983D02*
D03*
Y157100D02*
D03*
X137883Y151600D02*
D03*
X144083D02*
D03*
X123425Y146625D02*
D03*
X188679Y143800D02*
D03*
X199900Y153500D02*
D03*
X201000Y125700D02*
D03*
X185579Y143800D02*
D03*
X141000Y166000D02*
D03*
X144083Y157100D02*
D03*
X140983Y151600D02*
D03*
X125098Y143996D02*
D03*
X169325Y128225D02*
D03*
X169350Y133250D02*
D03*
X159300Y131300D02*
D03*
X172700Y105100D02*
D03*
X155700Y56200D02*
D03*
X215400Y86200D02*
D03*
X214600Y83900D02*
D03*
X219100Y45000D02*
D03*
X162200Y104100D02*
D03*
X38400Y95600D02*
D03*
X12800Y109100D02*
D03*
X21300Y109800D02*
D03*
X23900Y107600D02*
D03*
X60800Y84100D02*
D03*
X52900Y90300D02*
D03*
X87400Y95000D02*
D03*
X78200Y89800D02*
D03*
X68700Y106700D02*
D03*
X53125Y96125D02*
D03*
X56025Y95125D02*
D03*
X46200Y109500D02*
D03*
X40700Y111100D02*
D03*
X127700Y119200D02*
D03*
X33700Y93100D02*
D03*
X58525Y93425D02*
D03*
X63300Y77600D02*
D03*
X95600Y98400D02*
D03*
X103200Y98300D02*
D03*
X99400Y98400D02*
D03*
X192900Y99000D02*
D03*
X94400Y49700D02*
D03*
X94000Y54400D02*
D03*
X121300Y102300D02*
D03*
X132700Y114100D02*
D03*
X136200Y88200D02*
D03*
X139500Y82300D02*
D03*
X219500Y88000D02*
D03*
X209800Y106700D02*
D03*
X117700Y86000D02*
D03*
X119000Y84000D02*
D03*
X17200Y84300D02*
D03*
X193900Y23200D02*
D03*
X180129Y72117D02*
D03*
X198500Y33300D02*
D03*
X215500Y34900D02*
D03*
X29000Y87200D02*
D03*
X26800D02*
D03*
X17200Y82100D02*
D03*
X7600Y45300D02*
D03*
X9800D02*
D03*
X79100Y46800D02*
D03*
X6300Y61700D02*
D03*
X32900Y90800D02*
D03*
X39200Y51200D02*
D03*
X98400Y52500D02*
D03*
X72700Y86000D02*
D03*
X53100Y51100D02*
D03*
Y54100D02*
D03*
Y57100D02*
D03*
X178300Y113500D02*
D03*
X182800Y108600D02*
D03*
X179500Y105400D02*
D03*
X175900Y105100D02*
D03*
X8700Y111800D02*
D03*
X128300Y44300D02*
D03*
X222500D02*
D03*
X237700Y83200D02*
D03*
X230500Y87600D02*
D03*
X162019Y84715D02*
D03*
X179342Y84715D02*
D03*
X201100Y104000D02*
D03*
X196500Y103800D02*
D03*
X189800D02*
D03*
X199700Y99100D02*
D03*
X166300Y105100D02*
D03*
X43325Y89625D02*
D03*
X150600Y69100D02*
D03*
X108000Y81000D02*
D03*
X103000Y80100D02*
D03*
X94600Y86900D02*
D03*
X133928Y88200D02*
D03*
X92100Y105000D02*
D03*
X93693Y102068D02*
D03*
X219100Y42800D02*
D03*
X195900Y33300D02*
D03*
X218000Y34900D02*
D03*
X232200Y40100D02*
D03*
X234800D02*
D03*
X185400Y92900D02*
D03*
X170400Y59700D02*
D03*
X168100D02*
D03*
X33300Y47900D02*
D03*
X36600Y46300D02*
D03*
X47925Y43925D02*
D03*
X42525D02*
D03*
X59400Y45300D02*
D03*
X62500Y45200D02*
D03*
X105400Y45300D02*
D03*
X107900D02*
D03*
X128300Y46800D02*
D03*
X79100Y44200D02*
D03*
X219600Y90400D02*
D03*
X47900Y84900D02*
D03*
X63300Y80100D02*
D03*
X143200Y93800D02*
D03*
X186000Y198200D02*
D03*
X180525Y198225D02*
D03*
X146600Y215700D02*
D03*
X192100Y198300D02*
D03*
X80700Y99500D02*
D03*
X83900D02*
D03*
X29000Y102600D02*
D03*
Y105200D02*
D03*
X126600Y114500D02*
D03*
X131500Y104300D02*
D03*
X134500D02*
D03*
X80625Y185025D02*
D03*
X77025Y130925D02*
D03*
X83225Y135925D02*
D03*
X371400Y228100D02*
D03*
X144600Y129500D02*
D03*
X155525Y149425D02*
D03*
X211125Y150125D02*
D03*
X158925Y89825D02*
D03*
X285200Y187000D02*
D03*
X278500Y70300D02*
D03*
X34447Y31325D02*
D03*
X37125D02*
D03*
X45625Y27725D02*
D03*
Y30325D02*
D03*
X55125Y30525D02*
D03*
Y27925D02*
D03*
X62525Y28400D02*
D03*
Y26000D02*
D03*
X75025Y27825D02*
D03*
X74925Y25225D02*
D03*
X91425Y41925D02*
D03*
X92825Y32725D02*
D03*
Y30125D02*
D03*
X116500Y31400D02*
D03*
X131525Y30925D02*
D03*
X134225D02*
D03*
X191890Y194510D02*
D03*
X186010D02*
D03*
X180490Y194410D02*
D03*
X148900Y206300D02*
D03*
X74000Y84000D02*
D03*
X88325Y86525D02*
D03*
X204200Y80900D02*
D03*
Y78400D02*
D03*
X73225Y100825D02*
D03*
X276870Y132835D02*
D03*
X157925Y207825D02*
D03*
X47400Y224900D02*
D03*
X57300Y218200D02*
D03*
X150600Y138400D02*
D03*
X150550Y128800D02*
D03*
X151600Y132100D02*
D03*
X155400Y136000D02*
D03*
X285900Y274300D02*
D03*
X350100Y246500D02*
D03*
X196200Y198000D02*
D03*
X196300Y193900D02*
D03*
X237300Y196700D02*
D03*
X209100Y196000D02*
D03*
X204300Y191000D02*
D03*
X207000Y192800D02*
D03*
X225100Y197100D02*
D03*
X286300Y135700D02*
D03*
X290500Y138400D02*
D03*
X160825Y208625D02*
D03*
X230600Y212700D02*
D03*
X230300Y209700D02*
D03*
X276200Y175900D02*
D03*
X199500Y111600D02*
D03*
X287300Y124600D02*
D03*
X331200Y219400D02*
D03*
X361500Y266200D02*
D03*
X338000Y272400D02*
D03*
X275100Y272900D02*
D03*
X286800Y177500D02*
D03*
M02*
