M48
;Layer_Color=9474304
;FILE_FORMAT=4:4
METRIC,TZ
;TYPE=PLATED
T1F00S00C0.2540
T2F00S00C0.3810
T3F00S00C0.9000
T4F00S00C0.9652
T5F00S00C1.0160
T6F00S00C1.3970
T7F00S00C1.4986
T8F00S00C1.5240
T9F00S00C1.6002
T10F00S00C2.2098
;TYPE=NON_PLATED
T11F00S00C3.0000
%
T01
X6414Y6414
X74232Y7938
X106490Y21146
X105982Y45276
X92012Y39180
X92266Y55944
X94298Y79566
X87495
X96012Y87630
X81534Y92202
X56198Y94044
X42418Y96012
X35306
X24956Y95060
X24892Y115062
X19304
Y134366
X19368Y143320
X42482Y137758
Y131916
X52388Y114618
X84582Y121666
X92964Y117602
X93218Y128270
X99568Y130048
X97028Y137414
X90424
X123762Y129096
X134874Y129794
Y137414
Y145034
X135446Y111824
X139256Y105474
X121730Y111570
X108014
X116142Y84900
X115888Y77026
Y70422
X140018Y70930
Y77534
X8446Y76518
X158814Y72136
Y66040
X159258Y91694
X158750Y114808
X150876Y115062
X156210Y122428
Y128016
X169594Y140994
X180594
X191594
X203962Y128524
X209550
X214186Y124778
X200914Y118872
Y112268
X232220Y106490
X236474Y91440
X243332
X235776Y83122
Y76518
X225870Y79566
X194628Y78804
X190564Y70676
X190310Y64072
X212916Y42990
X215202Y23686
X239078Y24448
X289878Y20130
X344488Y21400
X344234Y46546
X367602Y46800
Y90234
X350584Y98108
X342646Y96774
X347218Y105156
X339408Y125032
X350076Y130620
X329502Y135700
X324358Y128016
X318358
X325882Y118872
Y112522
X309626Y92710
X295910Y79756
X295974Y73216
X319278Y67310
X334074Y78550
X340932
X396050Y71692
X395478Y142748
X401828
X461264Y141986
X502222Y127826
X508508Y128016
X515112
X513906Y106744
Y93536
X504190Y84582
X497586
X488950Y95504
Y101854
X473774Y72962
X474028Y49848
X492506Y58928
X497650Y41720
X497904Y22162
X473266Y21908
X420180Y20892
X534416Y67818
X539750Y140994
X528750
X305894
X294894
X283894
X270256Y128524
Y122936
X267716Y115062
X274066
X262192Y126302
X247142Y123952
X239776Y126238
X238760Y138176
X249936Y133350
X160338Y20384
X550482Y21400
X604076
X603314Y52134
X604774Y79756
X596392Y101854
X589788
X598678Y114554
X568706Y118872
X565150Y112522
X556514Y114300
Y108712
X553720Y88646
X547370
X568706Y94234
X569976Y128016
X563214
X550750Y140994
X684990Y139110
Y128950
X695150
X705310
X715470
Y118790
Y108630
X705310
Y118790
X695150
Y108630
X684990
Y118790
X695150Y139110
X705310
X715470
X834962Y136970
X826580Y86424
X863156Y60516
X933958Y68580
X893064Y116332
X624904Y66866
X625412Y35878
X941578Y76708
X974408Y107506
X1020128Y86678
X1036638Y70422
X1030034Y154496
X1028256Y213424
X1029526Y297498
X1030288Y345504
X1030542Y397574
X991934Y384366
X968312Y379794
X967296Y417640
X992188Y436944
X977710Y501206
X969264Y497840
X994728Y538544
X956628Y349060
X979742Y319596
X979234Y270066
X973392Y182436
X861378Y204788
X867220Y258128
X886778Y249746
X729742Y316484
X727202Y344678
X737870Y351536
X735394Y391732
X747586
X774446Y427328
Y437488
Y447648
Y457808
X784606
Y447648
Y437488
Y427328
X794766
X804926
X815086
Y437488
X804926
Y447648
X815086
Y457808
X804926
X794766
Y447648
Y437488
X728472Y450850
X724408Y474980
X705168Y485791
X701548Y446786
X700278Y543052
X647954Y508000
X602742Y499618
X571754Y500634
X584962Y532638
X585724Y540258
X615760Y421450
X625412Y421704
X625158Y338138
X616268
X578422Y355410
X566738Y297752
X551434Y249174
X557784Y229616
X557530Y223520
X570738Y223266
Y229616
X585470Y222504
X603758Y211328
X612902Y231902
X625348Y258572
X619824Y268542
X590360Y255842
X547116Y218948
X545084Y213106
X550750Y173994
Y162994
Y151994
X572516Y159027
X577342Y175895
X707390Y178562
X705310Y149270
X695150
X684990
X715470
X703250Y337402
X510540Y319278
X506730Y283464
X487172Y281178
X482092Y263652
X499110
X510794Y264160
X507238Y251714
X489966Y251460
X470916Y235966
X460311Y227449
X455528Y215176
X460528Y202176
X457528Y183176
X457708Y171196
X475996Y162052
X477324Y148024
X486728Y148146
X528750Y151994
X539750
Y162994
Y173994
X528750
Y162994
X515232Y187078
X514096Y193040
X518668Y199136
Y205486
X517398Y243840
X532638Y257048
X532892Y271018
X520192
X464312Y275844
X455930Y267716
X446786Y266954
X438658
X422402
X411988Y264414
X396494Y265684
X389636
X374650Y291084
X337058Y289814
X321564Y290830
X324358Y302768
X318008Y335280
X317500Y343154
X317750Y357750
Y365750
X313500Y372428
X307658Y379540
X293624Y346202
X298196Y328422
X367284Y328930
X382397Y327152
X385064Y335534
X396304Y333312
X404622Y333502
X394716Y345440
X382524Y351536
X373634Y351282
X359664Y345694
X358096Y385064
X350222
X365970
Y399034
X358096
Y410464
X350222
X350266Y421640
X358140
X369570Y410464
X373952Y398844
X395034Y414338
X415862
X413258Y445028
X395034Y445092
X373888Y445262
X366014
X358096
X327406Y444500
X338458Y460666
X321564Y484886
X331216Y497840
X309118Y496570
X294640Y489712
Y483870
X275844Y478282
X273812Y457454
X283718Y463042
X299844Y456888
X302514Y447548
X287592Y434912
X277876Y435356
X261684Y424498
X260922Y398082
X233426Y394970
X235838Y404346
X214630Y403098
X211684Y428904
X202184
Y438404
X192734
X192612Y447995
X202184Y447904
X211684
Y438404
X192684Y428654
X204788Y469964
X209500Y509500
X243404Y535250
X236220Y542798
X271526Y541528
X263652Y529336
X261500Y517750
X351790Y520954
X378206Y524002
X382016Y511810
X363474Y495808
X363220Y488188
X401130Y527876
X408496Y529908
X458534Y503492
X458444Y493802
X472466Y494056
X472440Y503428
X487934Y503682
X487400Y494056
X498602Y492506
X498348Y502920
X531114Y497840
X525780Y489712
X518922Y485140
X532638Y482346
X507492Y460756
X503238Y406464
X507746Y389890
X536258Y381318
X479244Y365252
X471370
X463496
X458788Y377508
X451104Y344678
X459296Y329248
X430086Y325692
X430150Y338456
X415290Y366522
X398780Y365252
X395034Y379540
X451612Y414274
Y429260
X447294Y449834
X453136Y455168
X452882Y288290
X430778Y228176
X414338Y228156
X403670
X411528Y215176
X411778Y202176
X430778Y200426
X432816Y151638
X426974
X411226Y165100
X382524Y175514
X362712Y176784
X332486Y176149
X328168Y159512
X305894Y162994
Y173994
X294894
X283894
Y162994
X294894
Y151994
X283894
X305894
X302260Y213360
X298958Y218440
X293878Y225044
X274320Y205740
X261620Y203454
X268732Y193040
X270764Y187198
X218948Y175641
X213868Y159258
X191594Y162994
Y173994
X180594
Y162994
X169594
Y173994
Y151994
X180594
X191594
X187960Y213360
X184658Y218440
X198628Y221996
Y228092
X211074
Y221996
X224346Y219774
X240284Y220726
X242824Y249936
X252476
X262128Y249682
X280670Y259080
X285750Y263906
X308102Y259842
X334010Y264922
X341630
X340176Y224028
X345948
X333502Y219710
X335534Y214376
X354330Y209042
X366268Y216662
X363728Y238252
X221996Y241300
X213106Y252730
X204978
X197612Y250444
X191262
X185992Y256096
X165354Y261620
Y268224
X174498Y271018
X157734Y253746
X148654Y237300
X154432Y213614
X160782Y203454
Y197104
X154528Y192278
X156560Y186690
X237981Y259252
X233934Y266700
X219266Y345504
X211392Y345250
X195644Y332550
X197612Y377190
X215138Y374650
X476250Y190500
X104902Y185166
X99337Y168171
X77960Y172138
Y183138
X66960
X55960
Y172138
X66960
Y161138
X55960
Y150138
X66960
X77960
Y161138
X73660Y221488
X68072
X83566Y230632
X85598Y236474
X97600Y235014
Y229172
X97536Y242824
X110046Y227648
X121666Y215646
X134366Y229362
X134938Y244158
X142304Y241618
X117348Y278130
X103378Y282194
X73660Y267208
Y260604
X72200Y253048
X60706Y273304
X54102Y278892
X32512Y277114
X22098Y283972
X18352Y290640
X41148Y257556
Y250444
X43688Y214122
Y208534
X40894Y201422
X42926Y195834
X16002Y156718
X20130Y453708
X7430Y494348
X78550Y496126
X74676Y482600
X84646Y535496
X105918Y541528
X141478Y370840
X145542Y554228
X139700Y574548
X120396Y571246
X86678Y575374
X47562Y572834
X48324Y558102
X5652Y559372
X6922Y604076
X33846Y612204
X71946Y622872
X113602Y630746
X104902Y689102
X65850Y700596
X8192Y652082
X194374Y668338
X209042Y688340
X183198Y697802
X270066Y697040
X311912Y689610
X433000Y686500
X423500Y661500
X418148Y644970
X424688Y626110
X446342Y622618
X475552Y607632
X502920Y613664
X490728Y632206
X518224Y629730
X538798Y618300
X527304Y692658
X505460Y695290
X438722Y546418
X394462Y569722
X363220
X353822Y568960
X342900
X328676Y570484
X299974Y571246
X289605Y570947
X257048Y568452
X256032Y554482
X207264
X205994Y562610
X192532Y555752
X163322
X167046Y573826
X176530Y579628
X307086Y547878
X359664Y546100
X372364Y547878
X565912Y567436
X584264Y601028
X584962Y619506
X604584Y635318
X591630Y651828
X569532Y653860
Y672148
X555308Y633286
X616522Y655130
Y591122
X621538Y554990
X598932Y543814
X653796Y701802
X698754Y693166
X726186Y696722
X858520Y691896
X864196Y665812
X875196
Y654812
X864196
Y643812
X875196
X889254Y626110
X928116Y597408
X939610Y598234
X918210Y676148
X841248Y557276
X943356Y579374
X994728Y571310
X1030288Y571564
X1029780Y615252
X970344Y623888
X1032320Y695008
T02
X32284Y32284
X50064Y24664
X67844Y32284
X75464Y50064
X67844Y67844
X50064Y75464
X32284Y67844
X24664Y50064
X643382Y48260
Y35052
Y22098
X666750
Y35306
Y48260
Y73660
Y86868
Y100330
X643382Y100260
Y86868
Y73660
X686054Y67310
X711772Y71307
Y60641
X712978Y30988
X712470Y22098
X731520Y21336
X743712
X755142Y25400
Y36068
Y46990
X773176Y59690
X755460Y109792
X747522Y109728
Y122428
X755460Y122492
Y134938
X747522Y135128
X804418Y129794
X806196Y145796
X800100Y114554
X830326Y105918
X846328Y121412
X847090Y145542
X879348Y144526
X906780Y137414
X928624Y124460
X915162Y101092
X915162Y70358
X922274Y57658
X907542Y57404
X901002Y45276
X879920Y61024
X845820Y59690
X831596Y35814
X855218Y95504
X725170Y87376
X685824Y34328
X651764Y116332
Y129540
Y142494
X628396
Y129540
Y116332
X668274Y135382
X928878Y29972
X982284Y32284
X1000064Y24664
X1017844Y32284
X1025464Y50064
X1017844Y67844
X1000064Y75464
X982284Y67844
X974664Y50064
X953326Y89472
X951992Y148590
X963168Y161290
X952500Y231648
X963168Y271272
X968248Y299466
X951230Y313944
X962660Y327152
X950976Y396240
X944880Y423672
X948182Y456438
X952500Y478282
X969518Y470662
X969264Y450850
X1023684Y449136
X1020064Y522478
X942086Y532638
Y543306
X925830Y534924
X931926Y525526
X912368
X912876Y542544
X878840Y536702
Y528066
Y520700
X839978Y497840
X826770Y469646
Y459740
Y449834
X829310Y427482
X847344Y397256
X864172Y399352
X881634Y397510
X904748Y396494
X899922Y427736
X907034Y456184
X928116Y454914
Y503428
X864616Y445770
X848614Y458470
X815340Y469646
X805180
X794766
X784860
X774446
X762508Y469138
Y457454
Y447294
Y437134
Y426720
X765054Y405012
Y397806
X765048Y389636
X767906Y381826
X775970Y371094
X788670
X801624
X809308Y371158
X809816Y379794
X794512Y405130
X781812Y404876
X741934Y420624
X722376Y424180
X727272Y396164
X739394Y297180
X772922Y283718
X778510Y241554
Y228600
Y215392
X801878
Y228600
Y241554
X829818Y232156
X827024Y216916
X829564Y201676
X819658Y192024
X807212Y196342
X773176Y196596
X787908Y149606
X863410Y148908
X862838Y189484
X867664Y225806
X856234
X897636Y226568
X895350Y216916
X896620Y202438
X920750Y202692
X928116Y172974
Y253492
X923798Y266954
X927862Y288290
X902462Y293370
X904494Y313182
X881126Y318770
X866966Y317564
X853440Y318770
X869950Y334264
X928116Y336550
X927862Y372872
X881126Y266446
X847598Y266954
X835788Y251080
X829056Y292862
X818896Y293740
X904240Y234442
X699770Y236474
X702056Y213360
X661416Y193294
X652526Y194310
Y181610
X662178
Y168402
X652526Y168656
X625094Y151638
X633476Y216408
X635508Y278638
X551688Y289560
X544322Y260858
X563626Y325120
Y336804
X560832Y347472
X573278Y379730
X543814Y405892
X554990Y418592
X572516Y451612
Y463042
X683514Y524002
X696468Y524764
X707390Y525018
X718566
X726186
X733552
X728218Y512064
X714502
X747522Y500634
X760730
X689102Y532892
X543306Y473710
X532130Y451612
X532638Y438658
X535242Y428054
X515176Y349822
X511048Y338582
X521018Y321120
X520192Y291846
X423164Y295402
X399288
X304800Y319786
X286844Y307516
X304038Y353060
X303530Y364490
X276858Y379766
X304292Y425704
X316230Y414782
X317250Y437250
X235814Y441064
X244780Y473243
X210064Y491064
X216814Y498064
X193802Y480568
X155702Y456946
X155448Y410210
X165100Y410464
X193040Y396240
X202724Y396428
X207814Y363064
X207836Y353124
X208314Y319314
Y309564
X174244Y325120
Y333248
X155194Y344424
X438468Y488252
Y497904
X129794Y481330
X114554
X106172Y492506
X96564Y496570
X90932Y503174
X90424Y524256
X118920Y523508
X66802Y542290
X39434Y450914
X123952Y439674
X131064Y421386
X143002Y389890
X130810Y344170
X131064Y333502
Y325374
X20066Y322326
X84836Y559054
X67844Y642284
X50064Y634664
X32284Y642284
X24664Y660064
X32284Y677844
X50064Y685464
X67844Y677844
X75464Y660064
X374650Y696722
X755904Y700278
X868934Y688594
X878332
X880110Y675894
X869442
X861060
X858520Y633222
Y622808
X870204
X869950Y633222
X880872
X880618Y623062
X912114Y593852
Y578866
X922782Y587248
X935228Y586232
X879094Y563372
X878840Y555244
Y545846
X952500Y554482
Y567944
X982284Y642284
X1000064Y634664
X1017844Y642284
X1025464Y660064
X1017844Y677844
X1000064Y685464
X982284Y677844
X974664Y660064
T03
X454660Y554990
X480060
X505460
X530860
Y580390
X505460
X480060
X454660
Y650240
X480060
X505460
X530860
Y675640
X505460
X480060
X454660
X556260
Y650240
Y580390
Y554990
X643302Y556694
Y582094
Y607494
Y632894
Y658294
X668702
Y632894
Y607494
Y582094
Y556694
T04
X164726Y503062
X190126
Y528462
X164726
X291846Y533400
Y508000
X317246
Y533400
X342646
Y508000
X139326Y503062
Y528462
X117308Y402564
X97242
Y377364
X117308
T05
X121984Y30036
X147384
X172784
X198184
X251984
X277384
X302784
X328184
X381984
X407384
X432784
X458184
X512084Y30136
X537484
X458184Y100036
X432784
X407384
X381984
X562884Y30136
X588284
X1025314Y107064
X662686Y310642
Y336042
Y361442
X662940Y415798
Y441198
Y466598
X601064Y466764
Y441364
Y387764
Y362364
Y308764
Y283364
X27618Y537458
Y582670
X114664Y600064
X140064
Y660064
X114664
X165464
X219664
X245064
X270464
X324664
X350064
X375464
Y600064
X350064
X324664
X270464
X245064
X219664
X165464
T06
X667258Y243586
X718058
T07
X52510Y525012
Y595116
T08
X927862Y148717
Y231267
Y313817
Y396367
Y478917
Y561467
T09
X772402Y35914
X806438
X846074Y35814
X880110
Y170434
X846074
X806438Y170534
X772402
X847344Y293116
X881380
Y427736
X847344
T10
X70064Y329866
Y450064
T11
X50064Y50064
X1000064
X50064Y660064
X1000064
M30
