G04 Layer_Color=128*
%FSLAX25Y25*%
%MOIN*%
G70*
G01*
G75*
%ADD151C,0.00200*%
G54D151*
X251497Y259171D02*
X255040D01*
X253269Y257399D02*
Y260943D01*
X261497Y259171D02*
X265040D01*
X263268Y257399D02*
Y260943D01*
X251497Y249171D02*
X255040D01*
X253269Y247399D02*
Y250942D01*
X261497Y249171D02*
X265040D01*
X263268Y247399D02*
Y250942D01*
X251497Y239171D02*
X255040D01*
X253269Y237399D02*
Y240943D01*
X261497Y239171D02*
X265040D01*
X263268Y237399D02*
Y240943D01*
X251497Y229171D02*
X255040D01*
X253269Y227399D02*
Y230943D01*
X261497Y229171D02*
X265040D01*
X263268Y227399D02*
Y230943D01*
X251497Y219171D02*
X255040D01*
X253269Y217399D02*
Y220942D01*
X261497Y219171D02*
X265040D01*
X263268Y217399D02*
Y220942D01*
X104482Y236246D02*
X108482D01*
X106482Y234246D02*
Y238246D01*
X94482Y236246D02*
X98482D01*
X96482Y234246D02*
Y238246D01*
X84482Y236246D02*
X88482D01*
X86482Y234246D02*
Y238246D01*
X63143Y236246D02*
X67143D01*
X65143Y234246D02*
Y238246D01*
X53143Y236246D02*
X57143D01*
X55143Y234246D02*
Y238246D01*
X43143Y236246D02*
X47143D01*
X45143Y234246D02*
Y238246D01*
X84482Y259868D02*
X88482D01*
X86482Y257868D02*
Y261868D01*
X94482Y259868D02*
X98482D01*
X96482Y257868D02*
Y261868D01*
X104482Y259868D02*
X108482D01*
X106482Y257868D02*
Y261868D01*
X43143Y259868D02*
X47143D01*
X45143Y257868D02*
Y261868D01*
X53143Y259868D02*
X57143D01*
X55143Y257868D02*
Y261868D01*
X63143Y259868D02*
X67143D01*
X65143Y257868D02*
Y261868D01*
X125821Y259868D02*
X129821D01*
X127821Y257868D02*
Y261868D01*
X135820Y259868D02*
X139821D01*
X137820Y257868D02*
Y261868D01*
X145820Y259868D02*
X149820D01*
X147820Y257868D02*
Y261868D01*
X362300Y221050D02*
X368300D01*
X365300Y218050D02*
Y224050D01*
X362300Y188550D02*
X368300D01*
X365300Y185550D02*
Y191550D01*
X362300Y156050D02*
X368300D01*
X365300Y153050D02*
Y159050D01*
X362300Y123550D02*
X368300D01*
X365300Y120550D02*
Y126550D01*
X362300Y91050D02*
X368300D01*
X365300Y88050D02*
Y94050D01*
X362300Y58550D02*
X368300D01*
X365300Y55550D02*
Y61550D01*
X46025Y11825D02*
X50025D01*
X48025Y9825D02*
Y13825D01*
X56025Y11825D02*
X60025D01*
X58025Y9825D02*
Y13825D01*
X66025Y11825D02*
X70025D01*
X68025Y9825D02*
Y13825D01*
X76025Y11825D02*
X80025D01*
X78025Y9825D02*
Y13825D01*
X127206Y11825D02*
X131206D01*
X129206Y9825D02*
Y13825D01*
X117206Y11825D02*
X121206D01*
X119206Y9825D02*
Y13825D01*
X107206Y11825D02*
X111206D01*
X109206Y9825D02*
Y13825D01*
X97206Y11825D02*
X101206D01*
X99206Y9825D02*
Y13825D01*
X148387Y39384D02*
X152387D01*
X150387Y37384D02*
Y41384D01*
X158387Y39384D02*
X162387D01*
X160387Y37384D02*
Y41384D01*
X168387Y39384D02*
X172387D01*
X170387Y37384D02*
Y41384D01*
X178387Y39384D02*
X182387D01*
X180387Y37384D02*
Y41384D01*
X178387Y11825D02*
X182387D01*
X180387Y9825D02*
Y13825D01*
X168387Y11825D02*
X172387D01*
X170387Y9825D02*
Y13825D01*
X158387Y11825D02*
X162387D01*
X160387Y9825D02*
Y13825D01*
X148387Y11825D02*
X152387D01*
X150387Y9825D02*
Y13825D01*
X199608Y11865D02*
X203608D01*
X201608Y9865D02*
Y13865D01*
X209608Y11865D02*
X213608D01*
X211608Y9865D02*
Y13865D01*
X219608Y11865D02*
X223608D01*
X221608Y9865D02*
Y13865D01*
X229608Y11865D02*
X233608D01*
X231608Y9865D02*
Y13865D01*
X217228Y228500D02*
X220772D01*
X219000Y226728D02*
Y230272D01*
X217228Y218500D02*
X220772D01*
X219000Y216728D02*
Y220272D01*
X207228Y228500D02*
X210772D01*
X209000Y226728D02*
Y230272D01*
X207228Y218500D02*
X210772D01*
X209000Y216728D02*
Y220272D01*
X197228Y228500D02*
X200772D01*
X199000Y226728D02*
Y230272D01*
X197228Y218500D02*
X200772D01*
X199000Y216728D02*
Y220272D01*
X187228Y228500D02*
X190772D01*
X189000Y226728D02*
Y230272D01*
X187228Y218500D02*
X190772D01*
X189000Y216728D02*
Y220272D01*
X177228Y228500D02*
X180772D01*
X179000Y226728D02*
Y230272D01*
X177228Y218500D02*
X180772D01*
X179000Y216728D02*
Y220272D01*
X217228Y266000D02*
X220772D01*
X219000Y264228D02*
Y267772D01*
X217228Y256000D02*
X220772D01*
X219000Y254228D02*
Y257772D01*
X207228Y266000D02*
X210772D01*
X209000Y264228D02*
Y267772D01*
X207228Y256000D02*
X210772D01*
X209000Y254228D02*
Y257772D01*
X197228Y266000D02*
X200772D01*
X199000Y264228D02*
Y267772D01*
X197228Y256000D02*
X200772D01*
X199000Y254228D02*
Y257772D01*
X187228Y266000D02*
X190772D01*
X189000Y264228D02*
Y267772D01*
X187228Y256000D02*
X190772D01*
X189000Y254228D02*
Y257772D01*
X177228Y266000D02*
X180772D01*
X179000Y264228D02*
Y267772D01*
X177228Y256000D02*
X180772D01*
X179000Y254228D02*
Y257772D01*
X258900Y142300D02*
X262900D01*
X260900Y140300D02*
Y144300D01*
X258900Y132300D02*
X262900D01*
X260900Y130300D02*
Y134300D01*
X258900Y122300D02*
X262900D01*
X260900Y120300D02*
Y124300D01*
X259000Y183700D02*
X263000D01*
X261000Y181700D02*
Y185700D01*
X259000Y173700D02*
X263000D01*
X261000Y171700D02*
Y175700D01*
X259000Y163700D02*
X263000D01*
X261000Y161700D02*
Y165700D01*
X234639Y173765D02*
X238639D01*
X236639Y171765D02*
Y175765D01*
X234639Y183765D02*
X238639D01*
X236639Y181765D02*
Y185765D01*
X234639Y111561D02*
X238639D01*
X236639Y109561D02*
Y113561D01*
X234639Y121561D02*
X238639D01*
X236639Y119561D02*
Y123561D01*
X279950Y95900D02*
X285450D01*
X282700Y93150D02*
Y98650D01*
X259950Y95900D02*
X265450D01*
X262700Y93150D02*
Y98650D01*
X72953Y208056D02*
X76753D01*
X74853Y206156D02*
Y209956D01*
X72953Y198056D02*
X76753D01*
X74853Y196156D02*
Y199956D01*
X62953Y208056D02*
X66753D01*
X64853Y206156D02*
Y209956D01*
X62953Y198056D02*
X66753D01*
X64853Y196156D02*
Y199956D01*
X52953Y208056D02*
X56753D01*
X54853Y206156D02*
Y209956D01*
X52953Y198056D02*
X56753D01*
X54853Y196156D02*
Y199956D01*
X23234Y129868D02*
X31934D01*
X27584Y125519D02*
Y134219D01*
X23234Y177190D02*
X31934D01*
X27584Y172840D02*
Y181541D01*
X36384Y148568D02*
X40184D01*
X38284Y146669D02*
Y150469D01*
X36384Y158490D02*
X40184D01*
X38284Y156590D02*
Y160390D01*
X44284Y158490D02*
X48084D01*
X46184Y156590D02*
Y160390D01*
X44284Y148568D02*
X48084D01*
X46184Y146669D02*
Y150469D01*
X17723Y206698D02*
X23623D01*
X20673Y203748D02*
Y209648D01*
X17723Y234298D02*
X23623D01*
X20673Y231348D02*
Y237248D01*
X8873Y211598D02*
X12873D01*
X10873Y209598D02*
Y213598D01*
X8873Y229398D02*
X12873D01*
X10873Y227398D02*
Y231398D01*
X387821Y19710D02*
X399632D01*
X393726Y13805D02*
Y25616D01*
X392976Y9710D02*
X394476D01*
X393726Y8960D02*
Y10460D01*
X392976Y29710D02*
X394476D01*
X393726Y28960D02*
Y30460D01*
X402976Y19710D02*
X404476D01*
X403726Y18960D02*
Y20460D01*
X382976Y19710D02*
X384476D01*
X383726Y18960D02*
Y20460D01*
X385976Y26710D02*
X387476D01*
X386726Y25960D02*
Y27460D01*
X399976Y26710D02*
X401476D01*
X400726Y25960D02*
Y27460D01*
X399976Y12710D02*
X401476D01*
X400726Y11960D02*
Y13460D01*
X385976Y12710D02*
X387476D01*
X386726Y11960D02*
Y13460D01*
X401667Y42151D02*
X405667D01*
X403667Y40151D02*
Y44151D01*
X387821Y259868D02*
X399632D01*
X393726Y253962D02*
Y265773D01*
X392976Y249868D02*
X394476D01*
X393726Y249118D02*
Y250618D01*
X392976Y269868D02*
X394476D01*
X393726Y269118D02*
Y270618D01*
X402976Y259868D02*
X404476D01*
X403726Y259118D02*
Y260618D01*
X382976Y259868D02*
X384476D01*
X383726Y259118D02*
Y260618D01*
X385976Y266868D02*
X387476D01*
X386726Y266118D02*
Y267618D01*
X399976Y266868D02*
X401476D01*
X400726Y266118D02*
Y267618D01*
X399976Y252868D02*
X401476D01*
X400726Y252118D02*
Y253618D01*
X385976Y252868D02*
X387476D01*
X386726Y252118D02*
Y253618D01*
X13805Y259868D02*
X25616D01*
X19710Y253962D02*
Y265773D01*
X18960Y249868D02*
X20460D01*
X19710Y249118D02*
Y250618D01*
X18960Y269868D02*
X20460D01*
X19710Y269118D02*
Y270618D01*
X28960Y259868D02*
X30460D01*
X29710Y259118D02*
Y260618D01*
X8960Y259868D02*
X10460D01*
X9710Y259118D02*
Y260618D01*
X11960Y266868D02*
X13460D01*
X12710Y266118D02*
Y267618D01*
X25960Y266868D02*
X27460D01*
X26710Y266118D02*
Y267618D01*
X25960Y252868D02*
X27460D01*
X26710Y252118D02*
Y253618D01*
X11960Y252868D02*
X13460D01*
X12710Y252118D02*
Y253618D01*
X13805Y19710D02*
X25616D01*
X19710Y13805D02*
Y25616D01*
X18960Y9710D02*
X20460D01*
X19710Y8960D02*
Y10460D01*
X18960Y29710D02*
X20460D01*
X19710Y28960D02*
Y30460D01*
X28960Y19710D02*
X30460D01*
X29710Y18960D02*
Y20460D01*
X8960Y19710D02*
X10460D01*
X9710Y18960D02*
Y20460D01*
X11960Y26710D02*
X13460D01*
X12710Y25960D02*
Y27460D01*
X25960Y26710D02*
X27460D01*
X26710Y25960D02*
Y27460D01*
X25960Y12710D02*
X27460D01*
X26710Y11960D02*
Y13460D01*
X11960Y12710D02*
X13460D01*
X12710Y11960D02*
Y13460D01*
X314345Y67139D02*
X320645D01*
X317495Y63989D02*
Y70289D01*
X300945Y67139D02*
X307245D01*
X304095Y63989D02*
Y70289D01*
X300945Y14139D02*
X307245D01*
X304095Y10989D02*
Y17289D01*
X314345Y14139D02*
X320645D01*
X317495Y10989D02*
Y17289D01*
X330450Y168400D02*
X336750D01*
X333600Y165250D02*
Y171550D01*
X343850Y168400D02*
X350150D01*
X347000Y165250D02*
Y171550D01*
X343850Y115400D02*
X350150D01*
X347000Y112250D02*
Y118550D01*
X330450Y115400D02*
X336750D01*
X333600Y112250D02*
Y118550D01*
X234639Y142663D02*
X238639D01*
X236639Y140663D02*
Y144663D01*
X234639Y152663D02*
X238639D01*
X236639Y150663D02*
Y154663D01*
X343350Y67100D02*
X349650D01*
X346500Y63950D02*
Y70250D01*
X329950Y67100D02*
X336250D01*
X333100Y63950D02*
Y70250D01*
X329950Y14100D02*
X336250D01*
X333100Y10950D02*
Y17250D01*
X343350Y14100D02*
X349650D01*
X346500Y10950D02*
Y17250D01*
X145820Y236246D02*
X149820D01*
X147820Y234246D02*
Y238246D01*
X135820Y236246D02*
X139821D01*
X137820Y234246D02*
Y238246D01*
X125821Y236246D02*
X129821D01*
X127821Y234246D02*
Y238246D01*
X113000Y200000D02*
X116800D01*
X114900Y198100D02*
Y201900D01*
X113000Y210000D02*
X116800D01*
X114900Y208100D02*
Y211900D01*
X123000Y200000D02*
X126800D01*
X124900Y198100D02*
Y201900D01*
X123000Y210000D02*
X126800D01*
X124900Y208100D02*
Y211900D01*
X133000Y200000D02*
X136800D01*
X134900Y198100D02*
Y201900D01*
X133000Y210000D02*
X136800D01*
X134900Y208100D02*
Y211900D01*
X345250Y205000D02*
X346750D01*
X346000Y204250D02*
Y205750D01*
X345350Y221800D02*
X346850D01*
X346100Y221050D02*
Y222550D01*
X345250Y218600D02*
X346750D01*
X346000Y217850D02*
Y219350D01*
X197500Y241600D02*
X198500D01*
X198000Y241100D02*
Y242100D01*
X118600Y176200D02*
X119600D01*
X119100Y175700D02*
Y176700D01*
X108100Y188300D02*
X109100D01*
X108600Y187800D02*
Y188800D01*
X111200Y182300D02*
X112200D01*
X111700Y181800D02*
Y182800D01*
X138000Y205100D02*
X139000D01*
X138500Y204600D02*
Y205600D01*
X121200Y195500D02*
X122200D01*
X121700Y195000D02*
Y196000D01*
X129900D02*
X130900D01*
X130400Y195500D02*
Y196500D01*
X128400Y175000D02*
X129400D01*
X128900Y174500D02*
Y175500D01*
X124152Y172146D02*
X125652D01*
X124902Y171396D02*
Y172896D01*
X103300Y208400D02*
X104300D01*
X103800Y207900D02*
Y208900D01*
X106400Y213200D02*
X107400D01*
X106900Y212700D02*
Y213700D01*
X113518Y224782D02*
X114518D01*
X114018Y224282D02*
Y225282D01*
X120400Y215700D02*
X121400D01*
X120900Y215200D02*
Y216200D01*
X115500Y192800D02*
X116500D01*
X116000Y192300D02*
Y193300D01*
X112725Y171225D02*
X113725D01*
X113225Y170725D02*
Y171725D01*
X107300Y180100D02*
X108300D01*
X107800Y179600D02*
Y180600D01*
X115500Y190500D02*
X116500D01*
X116000Y190000D02*
Y191000D01*
X117549Y179877D02*
X118549D01*
X118049Y179377D02*
Y180377D01*
X142600Y195200D02*
X143600D01*
X143100Y194700D02*
Y195700D01*
X92500Y213700D02*
X93500D01*
X93000Y213200D02*
Y214200D01*
X95328Y210728D02*
X96328D01*
X95828Y210228D02*
Y211228D01*
X128900Y224600D02*
X129900D01*
X129400Y224100D02*
Y225100D01*
X134500Y224000D02*
X135500D01*
X135000Y223500D02*
Y224500D01*
X142500Y192200D02*
X143500D01*
X143000Y191700D02*
Y192700D01*
X138800Y224000D02*
X139800D01*
X139300Y223500D02*
Y224500D01*
X141100Y215000D02*
X142100D01*
X141600Y214500D02*
Y215500D01*
X149900Y201500D02*
X150900D01*
X150400Y201000D02*
Y202000D01*
X142500Y224300D02*
X143500D01*
X143000Y223800D02*
Y224800D01*
X154800Y224300D02*
X155800D01*
X155300Y223800D02*
Y224800D01*
X81100Y218300D02*
X82100D01*
X81600Y217800D02*
Y218800D01*
X75300D02*
X76300D01*
X75800Y218300D02*
Y219300D01*
X117600Y224900D02*
X118600D01*
X118100Y224400D02*
Y225400D01*
X198500Y273736D02*
X199500D01*
X199000Y273236D02*
Y274236D01*
X65266Y225916D02*
X66266D01*
X65766Y225416D02*
Y226416D01*
X124598Y140847D02*
X125598D01*
X125098Y140347D02*
Y141347D01*
X80600Y221500D02*
X81600D01*
X81100Y221000D02*
Y222000D01*
X102453Y203839D02*
X103453D01*
X102953Y203339D02*
Y204339D01*
X345675Y24025D02*
X347175D01*
X346425Y23275D02*
Y24775D01*
X339175Y58625D02*
X340675D01*
X339925Y57875D02*
Y59375D01*
X79100Y172600D02*
X80100D01*
X79600Y172100D02*
Y173100D01*
X79100Y176340D02*
X80100D01*
X79600Y175840D02*
Y176840D01*
X75331Y176376D02*
X76331D01*
X75831Y175876D02*
Y176876D01*
X75380Y172600D02*
X76380D01*
X75880Y172100D02*
Y173100D01*
X75360Y168761D02*
X76360D01*
X75860Y168261D02*
Y169261D01*
X79100Y168860D02*
X80100D01*
X79600Y168360D02*
Y169360D01*
X82840Y168860D02*
X83840D01*
X83340Y168360D02*
Y169360D01*
X82840Y172600D02*
X83840D01*
X83340Y172100D02*
Y173100D01*
X82840Y176340D02*
X83840D01*
X83340Y175840D02*
Y176840D01*
X296675Y43225D02*
X298175D01*
X297425Y42475D02*
Y43975D01*
X296675Y48225D02*
X298175D01*
X297425Y47475D02*
Y48975D01*
X296675Y53125D02*
X298175D01*
X297425Y52375D02*
Y53875D01*
X7425Y178625D02*
X8425D01*
X7925Y178125D02*
Y179125D01*
X14775Y177525D02*
X16275D01*
X15525Y176775D02*
Y178275D01*
X248650Y85200D02*
X250150D01*
X249400Y84450D02*
Y85950D01*
X245700Y101800D02*
X246700D01*
X246200Y101300D02*
Y102300D01*
X213350Y159800D02*
X214850D01*
X214100Y159050D02*
Y160550D01*
X340925Y101625D02*
X341925D01*
X341425Y101125D02*
Y102125D01*
X348625Y98325D02*
X349625D01*
X349125Y97825D02*
Y98825D01*
X197625Y160025D02*
X198625D01*
X198125Y159525D02*
Y160525D01*
X293825Y154225D02*
X294825D01*
X294325Y153725D02*
Y154725D01*
X289025Y154225D02*
X290025D01*
X289525Y153725D02*
Y154725D01*
X105825Y274425D02*
X106825D01*
X106325Y273925D02*
Y274925D01*
X91400Y155500D02*
X92400D01*
X91900Y155000D02*
Y156000D01*
X381100Y196000D02*
X382100D01*
X381600Y195500D02*
Y196500D01*
X351100Y45800D02*
X352100D01*
X351600Y45300D02*
Y46300D01*
X314250Y45100D02*
X315750D01*
X315000Y44350D02*
Y45850D01*
X126100Y190900D02*
X127100D01*
X126600Y190400D02*
Y191400D01*
X145000Y161600D02*
X146000D01*
X145500Y161100D02*
Y162100D01*
X197225Y50325D02*
X198225D01*
X197725Y49825D02*
Y50825D01*
X187423Y58277D02*
X188423D01*
X187923Y57777D02*
Y58777D01*
X181100Y55900D02*
X182100D01*
X181600Y55400D02*
Y56400D01*
X161400Y65000D02*
X162400D01*
X161900Y64500D02*
Y65500D01*
X157700Y56200D02*
X158700D01*
X158200Y55700D02*
Y56700D01*
X256900Y276300D02*
X257900D01*
X257400Y275800D02*
Y276800D01*
X299450Y176100D02*
X300950D01*
X300200Y175350D02*
Y176850D01*
X244200Y218500D02*
X245200D01*
X244700Y218000D02*
Y219000D01*
X175600Y177100D02*
X176600D01*
X176100Y176600D02*
Y177600D01*
X177100Y135700D02*
X178100D01*
X177600Y135200D02*
Y136200D01*
X358350Y227900D02*
X359850D01*
X359100Y227150D02*
Y228650D01*
X155525Y131225D02*
X156525D01*
X156025Y130725D02*
Y131725D01*
X144225Y35525D02*
X145225D01*
X144725Y35025D02*
Y36025D01*
X316400Y168239D02*
X317400D01*
X316900Y167739D02*
Y168739D01*
X320400Y168239D02*
X321400D01*
X320900Y167739D02*
Y168739D01*
X320400Y172239D02*
X321400D01*
X320900Y171739D02*
Y172739D01*
X316400Y172239D02*
X317400D01*
X316900Y171739D02*
Y172739D01*
X316400Y176239D02*
X317400D01*
X316900Y175739D02*
Y176739D01*
X320400Y176239D02*
X321400D01*
X320900Y175739D02*
Y176739D01*
X320400Y180239D02*
X321400D01*
X320900Y179739D02*
Y180739D01*
X316400Y180239D02*
X317400D01*
X316900Y179739D02*
Y180739D01*
X308400Y180239D02*
X309400D01*
X308900Y179739D02*
Y180739D01*
X304400Y180239D02*
X305400D01*
X304900Y179739D02*
Y180739D01*
X304400Y176239D02*
X305400D01*
X304900Y175739D02*
Y176739D01*
X308400Y176239D02*
X309400D01*
X308900Y175739D02*
Y176739D01*
X308400Y172239D02*
X309400D01*
X308900Y171739D02*
Y172739D01*
X304400Y172239D02*
X305400D01*
X304900Y171739D02*
Y172739D01*
X304400Y168239D02*
X305400D01*
X304900Y167739D02*
Y168739D01*
X308400Y168239D02*
X309400D01*
X308900Y167739D02*
Y168739D01*
X312400Y168239D02*
X313400D01*
X312900Y167739D02*
Y168739D01*
X312400Y172239D02*
X313400D01*
X312900Y171739D02*
Y172739D01*
X312400Y180239D02*
X313400D01*
X312900Y179739D02*
Y180739D01*
X312400Y176239D02*
X313400D01*
X312900Y175739D02*
Y176739D01*
X273181Y50768D02*
X274181D01*
X273681Y50268D02*
Y51268D01*
X269181Y50768D02*
X270181D01*
X269681Y50268D02*
Y51268D01*
X277181Y50768D02*
X278181D01*
X277681Y50268D02*
Y51268D01*
X281181Y50768D02*
X282181D01*
X281681Y50268D02*
Y51268D01*
X281181Y46768D02*
X282181D01*
X281681Y46268D02*
Y47268D01*
X281181Y42768D02*
X282181D01*
X281681Y42268D02*
Y43268D01*
X277181Y42768D02*
X278181D01*
X277681Y42268D02*
Y43268D01*
X277181Y46768D02*
X278181D01*
X277681Y46268D02*
Y47268D01*
X273181Y46768D02*
X274181D01*
X273681Y46268D02*
Y47268D01*
X273181Y42768D02*
X274181D01*
X273681Y42268D02*
Y43268D01*
X269181Y42768D02*
X270181D01*
X269681Y42268D02*
Y43268D01*
X269181Y46768D02*
X270181D01*
X269681Y46268D02*
Y47268D01*
X269181Y54768D02*
X270181D01*
X269681Y54268D02*
Y55268D01*
X269181Y58768D02*
X270181D01*
X269681Y58268D02*
Y59268D01*
X273181Y58768D02*
X274181D01*
X273681Y58268D02*
Y59268D01*
X273181Y54768D02*
X274181D01*
X273681Y54268D02*
Y55268D01*
X277181Y54768D02*
X278181D01*
X277681Y54268D02*
Y55268D01*
X277181Y58768D02*
X278181D01*
X277681Y58268D02*
Y59268D01*
X281181Y58768D02*
X282181D01*
X281681Y58268D02*
Y59268D01*
X281181Y54768D02*
X282181D01*
X281681Y54268D02*
Y55268D01*
X28900Y190000D02*
X29900D01*
X29400Y189500D02*
Y190500D01*
X32825Y210825D02*
X33825D01*
X33325Y210325D02*
Y211325D01*
X120625Y149425D02*
X121625D01*
X121125Y148925D02*
Y149925D01*
X172225Y215125D02*
X173225D01*
X172725Y214625D02*
Y215625D01*
X222300Y223400D02*
X223300D01*
X222800Y222900D02*
Y223900D01*
X146700Y175300D02*
X147700D01*
X147200Y174800D02*
Y175800D01*
X146725Y157025D02*
X147725D01*
X147225Y156525D02*
Y157525D01*
X146600Y138300D02*
X147600D01*
X147100Y137800D02*
Y138800D01*
X163000Y144300D02*
X164000D01*
X163500Y143800D02*
Y144800D01*
X180125Y148625D02*
X181125D01*
X180625Y148125D02*
Y149125D01*
X201900Y76000D02*
X202900D01*
X202400Y75500D02*
Y76500D01*
X116025Y28825D02*
X117025D01*
X116525Y28325D02*
Y29325D01*
X36200Y50500D02*
X37200D01*
X36700Y50000D02*
Y51000D01*
X223900Y50400D02*
X224900D01*
X224400Y49900D02*
Y50900D01*
X223400Y46800D02*
X224400D01*
X223900Y46300D02*
Y47300D01*
X77300Y98600D02*
X78300D01*
X77800Y98100D02*
Y99100D01*
X61138Y73500D02*
X62138D01*
X61638Y73000D02*
Y74000D01*
X60338Y75700D02*
X61338D01*
X60838Y75200D02*
Y76200D01*
X37700Y54100D02*
X38700D01*
X38200Y53600D02*
Y54600D01*
X16225Y51935D02*
X17225D01*
X16725Y51435D02*
Y52435D01*
X15600Y79300D02*
X16600D01*
X16100Y78800D02*
Y79800D01*
X16225Y54235D02*
X17225D01*
X16725Y53735D02*
Y54735D01*
X77700Y87400D02*
X78700D01*
X78200Y86900D02*
Y87900D01*
X82600Y89800D02*
X83600D01*
X83100Y89300D02*
Y90300D01*
X204050Y114900D02*
X205550D01*
X204800Y114150D02*
Y115650D01*
X204300Y106700D02*
X205300D01*
X204800Y106200D02*
Y107200D01*
X50350Y189500D02*
X51850D01*
X51100Y188750D02*
Y190250D01*
X44350Y189500D02*
X45850D01*
X45100Y188750D02*
Y190250D01*
X35050Y198100D02*
X36550D01*
X35800Y197350D02*
Y198850D01*
X37267Y195500D02*
X38767D01*
X38017Y194750D02*
Y196250D01*
X50750Y135500D02*
X52250D01*
X51500Y134750D02*
Y136250D01*
X67850Y131200D02*
X69350D01*
X68600Y130450D02*
Y131950D01*
X67850Y128000D02*
X69350D01*
X68600Y127250D02*
Y128750D01*
X50850Y128100D02*
X52350D01*
X51600Y127350D02*
Y128850D01*
X50850Y131300D02*
X52350D01*
X51600Y130550D02*
Y132050D01*
X64250Y161600D02*
X65750D01*
X65000Y160850D02*
Y162350D01*
X92349Y159191D02*
X93349D01*
X92849Y158691D02*
Y159691D01*
X84000Y158700D02*
X85000D01*
X84500Y158200D02*
Y159200D01*
X84200Y147500D02*
X85200D01*
X84700Y147000D02*
Y148000D01*
X85825Y136025D02*
X86825D01*
X86325Y135525D02*
Y136525D01*
X124500Y135100D02*
X125500D01*
X125000Y134600D02*
Y135600D01*
X119050Y167600D02*
X120550D01*
X119800Y166850D02*
Y168350D01*
X115100Y136300D02*
X116100D01*
X115600Y135800D02*
Y136800D01*
X116900Y129300D02*
X117900D01*
X117400Y128800D02*
Y129800D01*
X124700Y132000D02*
X125700D01*
X125200Y131500D02*
Y132500D01*
X162200Y175208D02*
X163200D01*
X162700Y174708D02*
Y175708D01*
X177900Y179200D02*
X178900D01*
X178400Y178700D02*
Y179700D01*
X181979Y143800D02*
X182979D01*
X182479Y143300D02*
Y144300D01*
X147000Y114600D02*
X148000D01*
X147500Y114100D02*
Y115100D01*
X140483Y175300D02*
X141483D01*
X140983Y174800D02*
Y175800D01*
X143600Y175300D02*
X144600D01*
X144100Y174800D02*
Y175800D01*
X137400Y166000D02*
X138400D01*
X137900Y165500D02*
Y166500D01*
X137383Y161600D02*
X138383D01*
X137883Y161100D02*
Y162100D01*
X140483Y161600D02*
X141483D01*
X140983Y161100D02*
Y162100D01*
X140483Y157100D02*
X141483D01*
X140983Y156600D02*
Y157600D01*
X137383Y151600D02*
X138383D01*
X137883Y151100D02*
Y152100D01*
X143583Y151600D02*
X144583D01*
X144083Y151100D02*
Y152100D01*
X122925Y146625D02*
X123925D01*
X123425Y146125D02*
Y147125D01*
X188179Y143800D02*
X189179D01*
X188679Y143300D02*
Y144300D01*
X199400Y153500D02*
X200400D01*
X199900Y153000D02*
Y154000D01*
X200500Y125700D02*
X201500D01*
X201000Y125200D02*
Y126200D01*
X185079Y143800D02*
X186079D01*
X185579Y143300D02*
Y144300D01*
X140500Y166000D02*
X141500D01*
X141000Y165500D02*
Y166500D01*
X143583Y157100D02*
X144583D01*
X144083Y156600D02*
Y157600D01*
X140483Y151600D02*
X141483D01*
X140983Y151100D02*
Y152100D01*
X124598Y143996D02*
X125598D01*
X125098Y143496D02*
Y144496D01*
X168825Y128225D02*
X169825D01*
X169325Y127725D02*
Y128725D01*
X168850Y133250D02*
X169850D01*
X169350Y132750D02*
Y133750D01*
X158800Y131300D02*
X159800D01*
X159300Y130800D02*
Y131800D01*
X146750Y274300D02*
X148250D01*
X147500Y273550D02*
Y275050D01*
X172200Y105100D02*
X173200D01*
X172700Y104600D02*
Y105600D01*
X221150Y132600D02*
X222650D01*
X221900Y131850D02*
Y133350D01*
X224950Y149500D02*
X226450D01*
X225700Y148750D02*
Y150250D01*
X220050Y136800D02*
X221550D01*
X220800Y136050D02*
Y137550D01*
X221150Y128000D02*
X222650D01*
X221900Y127250D02*
Y128750D01*
X217750Y164800D02*
X219250D01*
X218500Y164050D02*
Y165550D01*
X309750Y146100D02*
X311250D01*
X310500Y145350D02*
Y146850D01*
X304750Y146100D02*
X306250D01*
X305500Y145350D02*
Y146850D01*
X224650Y177800D02*
X226150D01*
X225400Y177050D02*
Y178550D01*
X202075Y137725D02*
X203575D01*
X202825Y136975D02*
Y138475D01*
X204375Y126425D02*
X205875D01*
X205125Y125675D02*
Y127175D01*
X216450Y114000D02*
X217950D01*
X217200Y113250D02*
Y114750D01*
X171875Y196025D02*
X173375D01*
X172625Y195275D02*
Y196775D01*
X200450Y133300D02*
X201950D01*
X201200Y132550D02*
Y134050D01*
X118750Y143500D02*
X120250D01*
X119500Y142750D02*
Y144250D01*
X249450Y109700D02*
X250950D01*
X250200Y108950D02*
Y110450D01*
X155200Y56200D02*
X156200D01*
X155700Y55700D02*
Y56700D01*
X400850Y205700D02*
X402350D01*
X401600Y204950D02*
Y206450D01*
X402275Y176825D02*
X403775D01*
X403025Y176075D02*
Y177575D01*
X315950Y51100D02*
X317450D01*
X316700Y50350D02*
Y51850D01*
X262350Y53300D02*
X263850D01*
X263100Y52550D02*
Y54050D01*
X256150Y66400D02*
X257650D01*
X256900Y65650D02*
Y67150D01*
X259950Y66300D02*
X261450D01*
X260700Y65550D02*
Y67050D01*
X355250Y92300D02*
X356750D01*
X356000Y91550D02*
Y93050D01*
X364650Y99800D02*
X366150D01*
X365400Y99050D02*
Y100550D01*
X374250Y91200D02*
X375750D01*
X375000Y90450D02*
Y91950D01*
X373650Y156000D02*
X375150D01*
X374400Y155250D02*
Y156750D01*
X364550Y146800D02*
X366050D01*
X365300Y146050D02*
Y147550D01*
X355450Y156100D02*
X356950D01*
X356200Y155350D02*
Y156850D01*
X358650Y213600D02*
X360150D01*
X359400Y212850D02*
Y214350D01*
X237600Y31400D02*
X238600D01*
X238100Y30900D02*
Y31900D01*
X223400Y37100D02*
X224400D01*
X223900Y36600D02*
Y37600D01*
X240800Y91300D02*
X241800D01*
X241300Y90800D02*
Y91800D01*
X143700Y85300D02*
X144700D01*
X144200Y84800D02*
Y85800D01*
X142300Y69600D02*
X143300D01*
X142800Y69100D02*
Y70100D01*
X235200Y45100D02*
X236200D01*
X235700Y44600D02*
Y45600D01*
X199700Y50400D02*
X200700D01*
X200200Y49900D02*
Y50900D01*
X187000Y75000D02*
X188000D01*
X187500Y74500D02*
Y75500D01*
X186900Y63800D02*
X187900D01*
X187400Y63300D02*
Y64300D01*
X224200Y87900D02*
X225200D01*
X224700Y87400D02*
Y88400D01*
X214900Y86200D02*
X215900D01*
X215400Y85700D02*
Y86700D01*
X214100Y83900D02*
X215100D01*
X214600Y83400D02*
Y84400D01*
X209200Y101200D02*
X210200D01*
X209700Y100700D02*
Y101700D01*
X203200Y96000D02*
X204200D01*
X203700Y95500D02*
Y96500D01*
X192000Y40100D02*
X193000D01*
X192500Y39600D02*
Y40600D01*
X192000Y37600D02*
X193000D01*
X192500Y37100D02*
Y38100D01*
X218600Y45000D02*
X219600D01*
X219100Y44500D02*
Y45500D01*
X161700Y104100D02*
X162700D01*
X162200Y103600D02*
Y104600D01*
X321650Y115646D02*
X323150D01*
X322400Y114896D02*
Y116396D01*
X261750Y39500D02*
X263250D01*
X262500Y38750D02*
Y40250D01*
X252550Y39472D02*
X254050D01*
X253300Y38722D02*
Y40222D01*
X252550Y34200D02*
X254050D01*
X253300Y33450D02*
Y34950D01*
X261750Y34200D02*
X263250D01*
X262500Y33450D02*
Y34950D01*
X252550Y29000D02*
X254050D01*
X253300Y28250D02*
Y29750D01*
X261750Y29000D02*
X263250D01*
X262500Y28250D02*
Y29750D01*
X296550Y14200D02*
X298050D01*
X297300Y13450D02*
Y14950D01*
X292050Y8400D02*
X293550D01*
X292800Y7650D02*
Y9150D01*
X287250Y8400D02*
X288750D01*
X288000Y7650D02*
Y9150D01*
X296550Y18500D02*
X298050D01*
X297300Y17750D02*
Y19250D01*
X296550Y10000D02*
X298050D01*
X297300Y9250D02*
Y10750D01*
X255850Y56100D02*
X257350D01*
X256600Y55350D02*
Y56850D01*
X246650Y56100D02*
X248150D01*
X247400Y55350D02*
Y56850D01*
X246650Y51000D02*
X248150D01*
X247400Y50250D02*
Y51750D01*
X255850Y51000D02*
X257350D01*
X256600Y50250D02*
Y51750D01*
X246650Y45800D02*
X248150D01*
X247400Y45050D02*
Y46550D01*
X255850Y45800D02*
X257350D01*
X256600Y45050D02*
Y46550D01*
X261750Y19000D02*
X263250D01*
X262500Y18250D02*
Y19750D01*
X252550Y19000D02*
X254050D01*
X253300Y18250D02*
Y19750D01*
X252550Y13800D02*
X254050D01*
X253300Y13050D02*
Y14550D01*
X261750Y13900D02*
X263250D01*
X262500Y13150D02*
Y14650D01*
X252550Y8700D02*
X254050D01*
X253300Y7950D02*
Y9450D01*
X261750Y8700D02*
X263250D01*
X262500Y7950D02*
Y9450D01*
X326150Y41700D02*
X327650D01*
X326900Y40950D02*
Y42450D01*
X293550Y53200D02*
X295050D01*
X294300Y52450D02*
Y53950D01*
X37900Y95600D02*
X38900D01*
X38400Y95100D02*
Y96100D01*
X15700Y101400D02*
X16700D01*
X16200Y100900D02*
Y101900D01*
X12300Y109100D02*
X13300D01*
X12800Y108600D02*
Y109600D01*
X20800Y109800D02*
X21800D01*
X21300Y109300D02*
Y110300D01*
X23400Y107600D02*
X24400D01*
X23900Y107100D02*
Y108100D01*
X60300Y84100D02*
X61300D01*
X60800Y83600D02*
Y84600D01*
X52400Y90300D02*
X53400D01*
X52900Y89800D02*
Y90800D01*
X61600Y99900D02*
X62600D01*
X62100Y99400D02*
Y100400D01*
X74800Y98600D02*
X75800D01*
X75300Y98100D02*
Y99100D01*
X64600Y105600D02*
X65600D01*
X65100Y105100D02*
Y106100D01*
X64600Y103000D02*
X65600D01*
X65100Y102500D02*
Y103500D01*
X86900Y95000D02*
X87900D01*
X87400Y94500D02*
Y95500D01*
X77700Y89800D02*
X78700D01*
X78200Y89300D02*
Y90300D01*
X68200Y106700D02*
X69200D01*
X68700Y106200D02*
Y107200D01*
X52625Y96125D02*
X53625D01*
X53125Y95625D02*
Y96625D01*
X55525Y95125D02*
X56525D01*
X56025Y94625D02*
Y95625D01*
X45700Y109500D02*
X46700D01*
X46200Y109000D02*
Y110000D01*
X40200Y111100D02*
X41200D01*
X40700Y110600D02*
Y111600D01*
X127200Y119200D02*
X128200D01*
X127700Y118700D02*
Y119700D01*
X37925Y92525D02*
X38925D01*
X38425Y92025D02*
Y93025D01*
X37925Y90225D02*
X38925D01*
X38425Y89725D02*
Y90725D01*
X33200Y93100D02*
X34200D01*
X33700Y92600D02*
Y93600D01*
X58025Y93425D02*
X59025D01*
X58525Y92925D02*
Y93925D01*
X62800Y77600D02*
X63800D01*
X63300Y77100D02*
Y78100D01*
X95100Y98400D02*
X96100D01*
X95600Y97900D02*
Y98900D01*
X102700Y98300D02*
X103700D01*
X103200Y97800D02*
Y98800D01*
X98900Y98400D02*
X99900D01*
X99400Y97900D02*
Y98900D01*
X192400Y99000D02*
X193400D01*
X192900Y98500D02*
Y99500D01*
X112181Y121069D02*
X113681D01*
X112931Y120319D02*
Y121819D01*
X93900Y49700D02*
X94900D01*
X94400Y49200D02*
Y50200D01*
X93500Y54400D02*
X94500D01*
X94000Y53900D02*
Y54900D01*
X120800Y102300D02*
X121800D01*
X121300Y101800D02*
Y102800D01*
X132200Y114100D02*
X133200D01*
X132700Y113600D02*
Y114600D01*
X135700Y88200D02*
X136700D01*
X136200Y87700D02*
Y88700D01*
X130800Y86500D02*
X131800D01*
X131300Y86000D02*
Y87000D01*
X139000Y82300D02*
X140000D01*
X139500Y81800D02*
Y82800D01*
X224200Y90400D02*
X225200D01*
X224700Y89900D02*
Y90900D01*
X219000Y88000D02*
X220000D01*
X219500Y87500D02*
Y88500D01*
X209300Y106700D02*
X210300D01*
X209800Y106200D02*
Y107200D01*
X117200Y86000D02*
X118200D01*
X117700Y85500D02*
Y86500D01*
X118500Y84000D02*
X119500D01*
X119000Y83500D02*
Y84500D01*
X35100Y54100D02*
X36100D01*
X35600Y53600D02*
Y54600D01*
X16400Y77100D02*
X17400D01*
X16900Y76600D02*
Y77600D01*
X16700Y84300D02*
X17700D01*
X17200Y83800D02*
Y84800D01*
X7150Y126900D02*
X8650D01*
X7900Y126150D02*
Y127650D01*
X60450Y161500D02*
X61950D01*
X61200Y160750D02*
Y162250D01*
X299450Y172100D02*
X300950D01*
X300200Y171350D02*
Y172850D01*
X193400Y23200D02*
X194400D01*
X193900Y22700D02*
Y23700D01*
X48050Y173100D02*
X49550D01*
X48800Y172350D02*
Y173850D01*
X50850Y165900D02*
X52350D01*
X51600Y165150D02*
Y166650D01*
X81067Y142939D02*
X82566D01*
X81817Y142189D02*
Y143689D01*
X81075Y139025D02*
X82575D01*
X81825Y138275D02*
Y139775D01*
X75250Y156000D02*
X76750D01*
X76000Y155250D02*
Y156750D01*
X208950Y172700D02*
X210450D01*
X209700Y171950D02*
Y173450D01*
X209975Y168525D02*
X211475D01*
X210725Y167775D02*
Y169275D01*
X165850Y116300D02*
X167350D01*
X166600Y115550D02*
Y117050D01*
X123750Y163300D02*
X125250D01*
X124500Y162550D02*
Y164050D01*
X108249Y149514D02*
X109749D01*
X108999Y148764D02*
Y150264D01*
X169098Y89833D02*
X170098D01*
X169598Y89333D02*
Y90333D01*
X180810Y79597D02*
X181810D01*
X181310Y79097D02*
Y80097D01*
X169098Y78908D02*
X170098D01*
X169598Y78408D02*
Y79408D01*
X208750Y177800D02*
X210250D01*
X209500Y177050D02*
Y178550D01*
X92090Y173647D02*
X93590D01*
X92840Y172897D02*
Y174397D01*
X60550Y179900D02*
X62050D01*
X61300Y179150D02*
Y180650D01*
X46069Y206105D02*
X47569D01*
X46819Y205356D02*
Y206856D01*
X81263Y121876D02*
X82763D01*
X82013Y121126D02*
Y122626D01*
X81263Y125714D02*
X82763D01*
X82013Y124964D02*
Y126464D01*
X161617Y79597D02*
X162617D01*
X162117Y79097D02*
Y80097D01*
X95620Y186316D02*
X97120D01*
X96370Y185566D02*
Y187066D01*
X179629Y72117D02*
X180629D01*
X180129Y71617D02*
Y72616D01*
X162625Y89825D02*
X163625D01*
X163125Y89325D02*
Y90325D01*
X84610Y196088D02*
X86110D01*
X85360Y195338D02*
Y196838D01*
X55550Y153500D02*
X57050D01*
X56300Y152750D02*
Y154250D01*
X60350Y135600D02*
X61850D01*
X61100Y134850D02*
Y136350D01*
X81952Y193332D02*
X83452D01*
X82702Y192582D02*
Y194082D01*
X293550Y43200D02*
X295050D01*
X294300Y42450D02*
Y43950D01*
X293550Y48200D02*
X295050D01*
X294300Y47450D02*
Y48950D01*
X300452Y156616D02*
X301952D01*
X301202Y155867D02*
Y157367D01*
X300450Y153400D02*
X301950D01*
X301200Y152650D02*
Y154150D01*
X279475Y28074D02*
X280975D01*
X280225Y27324D02*
Y28824D01*
X41050Y193900D02*
X42550D01*
X41800Y193150D02*
Y194650D01*
X75550Y189200D02*
X77050D01*
X76300Y188450D02*
Y189950D01*
X198000Y33300D02*
X199000D01*
X198500Y32800D02*
Y33800D01*
X215000Y34900D02*
X216000D01*
X215500Y34400D02*
Y35400D01*
X79063Y156074D02*
X80563D01*
X79813Y155324D02*
Y156824D01*
X28500Y87200D02*
X29500D01*
X29000Y86700D02*
Y87700D01*
X26300Y87200D02*
X27300D01*
X26800Y86700D02*
Y87700D01*
X16700Y82100D02*
X17700D01*
X17200Y81600D02*
Y82600D01*
X7100Y45300D02*
X8100D01*
X7600Y44800D02*
Y45800D01*
X9300Y45300D02*
X10300D01*
X9800Y44800D02*
Y45800D01*
X61000Y50400D02*
X62000D01*
X61500Y49900D02*
Y50900D01*
X78600Y46800D02*
X79600D01*
X79100Y46300D02*
Y47300D01*
X5800Y61700D02*
X6800D01*
X6300Y61200D02*
Y62200D01*
X38609Y66209D02*
X39609D01*
X39109Y65709D02*
Y66709D01*
X32400Y90800D02*
X33400D01*
X32900Y90300D02*
Y91300D01*
X82600Y87400D02*
X83600D01*
X83100Y86900D02*
Y87900D01*
X38700Y51200D02*
X39700D01*
X39200Y50700D02*
Y51700D01*
X105900Y50600D02*
X106900D01*
X106400Y50100D02*
Y51100D01*
X97900Y52500D02*
X98900D01*
X98400Y52000D02*
Y53000D01*
X83700Y62700D02*
X84700D01*
X84200Y62200D02*
Y63200D01*
X72200Y86000D02*
X73200D01*
X72700Y85500D02*
Y86500D01*
X85700Y69150D02*
X86700D01*
X86200Y68650D02*
Y69650D01*
X40800Y72900D02*
X41800D01*
X41300Y72400D02*
Y73400D01*
X52600Y51100D02*
X53600D01*
X53100Y50600D02*
Y51600D01*
X52600Y54100D02*
X53600D01*
X53100Y53600D02*
Y54600D01*
X52600Y57100D02*
X53600D01*
X53100Y56600D02*
Y57600D01*
X177800Y113500D02*
X178800D01*
X178300Y113000D02*
Y114000D01*
X130400Y69350D02*
X131400D01*
X130900Y68850D02*
Y69850D01*
X224900Y62609D02*
X225900D01*
X225400Y62109D02*
Y63109D01*
X226800Y69250D02*
X227800D01*
X227300Y68750D02*
Y69750D01*
X202347Y73653D02*
X203347D01*
X202847Y73153D02*
Y74153D01*
X202300Y50400D02*
X203300D01*
X202800Y49900D02*
Y50900D01*
X182300Y108600D02*
X183300D01*
X182800Y108100D02*
Y109100D01*
X179000Y105400D02*
X180000D01*
X179500Y104900D02*
Y105900D01*
X175400Y105100D02*
X176400D01*
X175900Y104600D02*
Y105600D01*
X156450Y116300D02*
X157950D01*
X157200Y115550D02*
Y117050D01*
X8200Y111800D02*
X9200D01*
X8700Y111300D02*
Y112300D01*
X127800Y44300D02*
X128800D01*
X128300Y43800D02*
Y44800D01*
X221238Y50400D02*
X222238D01*
X221738Y49900D02*
Y50900D01*
X222000Y44300D02*
X223000D01*
X222500Y43800D02*
Y44800D01*
X179700Y67400D02*
X180700D01*
X180200Y66900D02*
Y67900D01*
X237200Y83200D02*
X238200D01*
X237700Y82700D02*
Y83700D01*
X230000Y87600D02*
X231000D01*
X230500Y87100D02*
Y88100D01*
X161519Y84715D02*
X162519D01*
X162019Y84215D02*
Y85215D01*
X178842Y84715D02*
X179842D01*
X179342Y84215D02*
Y85215D01*
X180725Y89547D02*
X181725D01*
X181225Y89047D02*
Y90047D01*
X200600Y104000D02*
X201600D01*
X201100Y103500D02*
Y104500D01*
X196000Y103800D02*
X197000D01*
X196500Y103300D02*
Y104300D01*
X189300Y103800D02*
X190300D01*
X189800Y103300D02*
Y104300D01*
X199200Y99100D02*
X200200D01*
X199700Y98600D02*
Y99600D01*
X165800Y105100D02*
X166800D01*
X166300Y104600D02*
Y105600D01*
X42825Y89625D02*
X43825D01*
X43325Y89125D02*
Y90125D01*
X150100Y69100D02*
X151100D01*
X150600Y68600D02*
Y69600D01*
X107500Y81000D02*
X108500D01*
X108000Y80500D02*
Y81500D01*
X102500Y80100D02*
X103500D01*
X103000Y79600D02*
Y80600D01*
X94100Y86900D02*
X95100D01*
X94600Y86400D02*
Y87400D01*
X115200Y88600D02*
X116200D01*
X115700Y88100D02*
Y89100D01*
X133428Y88200D02*
X134428D01*
X133928Y87700D02*
Y88700D01*
X112000Y103900D02*
X113000D01*
X112500Y103400D02*
Y104400D01*
X110000Y102000D02*
X111000D01*
X110500Y101500D02*
Y102500D01*
X91600Y105000D02*
X92600D01*
X92100Y104500D02*
Y105500D01*
X93193Y102068D02*
X94193D01*
X93693Y101568D02*
Y102568D01*
X218600Y42800D02*
X219600D01*
X219100Y42300D02*
Y43300D01*
X195400Y33300D02*
X196400D01*
X195900Y32800D02*
Y33800D01*
X217500Y34900D02*
X218500D01*
X218000Y34400D02*
Y35400D01*
X231700Y40100D02*
X232700D01*
X232200Y39600D02*
Y40600D01*
X234300Y40100D02*
X235300D01*
X234800Y39600D02*
Y40600D01*
X209900Y26700D02*
X210900D01*
X210400Y26200D02*
Y27200D01*
X184900Y92900D02*
X185900D01*
X185400Y92400D02*
Y93400D01*
X216600Y98100D02*
X217600D01*
X217100Y97600D02*
Y98600D01*
X213550Y102700D02*
X215050D01*
X214300Y101950D02*
Y103450D01*
X169900Y59700D02*
X170900D01*
X170400Y59200D02*
Y60200D01*
X167600Y59700D02*
X168600D01*
X168100Y59200D02*
Y60200D01*
X136200Y41400D02*
X137200D01*
X136700Y40900D02*
Y41900D01*
X134400Y38100D02*
X135400D01*
X134900Y37600D02*
Y38600D01*
X92600Y36000D02*
X93600D01*
X93100Y35500D02*
Y36500D01*
X125200Y26500D02*
X126200D01*
X125700Y26000D02*
Y27000D01*
X83825Y49125D02*
X84825D01*
X84325Y48625D02*
Y49625D01*
X121400Y36500D02*
X122400D01*
X121900Y36000D02*
Y37000D01*
X32800Y47900D02*
X33800D01*
X33300Y47400D02*
Y48400D01*
X36100Y46300D02*
X37100D01*
X36600Y45800D02*
Y46800D01*
X13400Y37800D02*
X14400D01*
X13900Y37300D02*
Y38300D01*
X16200Y37800D02*
X17200D01*
X16700Y37300D02*
Y38300D01*
X52825Y44025D02*
X53825D01*
X53325Y43525D02*
Y44525D01*
X54325Y41525D02*
X55325D01*
X54825Y41025D02*
Y42025D01*
X62200Y36100D02*
X63200D01*
X62700Y35600D02*
Y36600D01*
X47425Y43925D02*
X48425D01*
X47925Y43425D02*
Y44425D01*
X37300Y34500D02*
X38300D01*
X37800Y34000D02*
Y35000D01*
X31600Y36300D02*
X32600D01*
X32100Y35800D02*
Y36800D01*
X42025Y43925D02*
X43025D01*
X42525Y43425D02*
Y44425D01*
X58900Y45300D02*
X59900D01*
X59400Y44800D02*
Y45800D01*
X62000Y45200D02*
X63000D01*
X62500Y44700D02*
Y45700D01*
X104900Y45300D02*
X105900D01*
X105400Y44800D02*
Y45800D01*
X107400Y45300D02*
X108400D01*
X107900Y44800D02*
Y45800D01*
X127800Y46800D02*
X128800D01*
X128300Y46300D02*
Y47300D01*
X78600Y44200D02*
X79600D01*
X79100Y43700D02*
Y44700D01*
X219100Y90400D02*
X220100D01*
X219600Y89900D02*
Y90900D01*
X47400Y84900D02*
X48400D01*
X47900Y84400D02*
Y85400D01*
X62800Y80100D02*
X63800D01*
X63300Y79600D02*
Y80600D01*
X142700Y93800D02*
X143700D01*
X143200Y93300D02*
Y94300D01*
X7100Y52900D02*
X8100D01*
X7600Y52400D02*
Y53400D01*
X279750Y8700D02*
X281250D01*
X280500Y7950D02*
Y9450D01*
X185500Y198200D02*
X186500D01*
X186000Y197700D02*
Y198700D01*
X180025Y198225D02*
X181025D01*
X180525Y197725D02*
Y198725D01*
X146100Y215700D02*
X147100D01*
X146600Y215200D02*
Y216200D01*
X34850Y206400D02*
X36350D01*
X35600Y205650D02*
Y207150D01*
X191600Y198300D02*
X192600D01*
X192100Y197800D02*
Y198800D01*
X325750Y168300D02*
X327250D01*
X326500Y167550D02*
Y169050D01*
X332850Y156400D02*
X334350D01*
X333600Y155650D02*
Y157150D01*
X346350Y156500D02*
X347850D01*
X347100Y155750D02*
Y157250D01*
X339650Y175500D02*
X341150D01*
X340400Y174750D02*
Y176250D01*
X353550Y168400D02*
X355050D01*
X354300Y167650D02*
Y169150D01*
X364650Y179100D02*
X366150D01*
X365400Y178350D02*
Y179850D01*
X364650Y198200D02*
X366150D01*
X365400Y197450D02*
Y198950D01*
X374250Y188300D02*
X375750D01*
X375000Y187550D02*
Y189050D01*
X380950Y185300D02*
X382450D01*
X381700Y184550D02*
Y186050D01*
X380850Y177500D02*
X382350D01*
X381600Y176750D02*
Y178250D01*
X371250Y166800D02*
X372750D01*
X372000Y166050D02*
Y167550D01*
X356350Y179600D02*
X357850D01*
X357100Y178850D02*
Y180350D01*
X372550Y179700D02*
X374050D01*
X373300Y178950D02*
Y180450D01*
X328300Y98850D02*
X329800D01*
X329050Y98100D02*
Y99600D01*
X325650Y115300D02*
X327150D01*
X326400Y114550D02*
Y116050D01*
X332950Y105100D02*
X334450D01*
X333700Y104350D02*
Y105850D01*
X335250Y125500D02*
X336750D01*
X336000Y124750D02*
Y126250D01*
X346150Y125500D02*
X347650D01*
X346900Y124750D02*
Y126250D01*
X354550Y115500D02*
X356050D01*
X355300Y114750D02*
Y116250D01*
X346150Y104900D02*
X347650D01*
X346900Y104150D02*
Y105650D01*
X378450Y106800D02*
X379950D01*
X379200Y106050D02*
Y107550D01*
X378250Y128800D02*
X379750D01*
X379000Y128050D02*
Y129550D01*
X373750Y123600D02*
X375250D01*
X374500Y122850D02*
Y124350D01*
X364650Y132500D02*
X366150D01*
X365400Y131750D02*
Y133250D01*
X355350Y123300D02*
X356850D01*
X356100Y122550D02*
Y124050D01*
X364550Y113500D02*
X366050D01*
X365300Y112750D02*
Y114250D01*
X380450Y117900D02*
X381950D01*
X381200Y117150D02*
Y118650D01*
X341750Y131600D02*
X343250D01*
X342500Y130850D02*
Y132350D01*
X362950Y105100D02*
X364450D01*
X363700Y104350D02*
Y105850D01*
X303650Y77400D02*
X305150D01*
X304400Y76650D02*
Y78150D01*
X309450Y58900D02*
X310950D01*
X310200Y58150D02*
Y59650D01*
X316650Y57400D02*
X318150D01*
X317400Y56650D02*
Y58150D01*
X325950Y91400D02*
X327450D01*
X326700Y90650D02*
Y92150D01*
X324850Y85400D02*
X326350D01*
X325600Y84650D02*
Y86150D01*
X336350Y88900D02*
X337850D01*
X337100Y88150D02*
Y89650D01*
X340850Y88900D02*
X342350D01*
X341600Y88150D02*
Y89650D01*
X325850Y79400D02*
X327350D01*
X326600Y78650D02*
Y80150D01*
X321950Y75600D02*
X323450D01*
X322700Y74850D02*
Y76350D01*
X317050Y77300D02*
X318550D01*
X317800Y76550D02*
Y78050D01*
X352650Y89200D02*
X354150D01*
X353400Y88450D02*
Y89950D01*
X352250Y79700D02*
X353750D01*
X353000Y78950D02*
Y80450D01*
X351750Y85400D02*
X353250D01*
X352500Y84650D02*
Y86150D01*
X361750Y79800D02*
X363250D01*
X362500Y79050D02*
Y80550D01*
X378450Y63500D02*
X379950D01*
X379200Y62750D02*
Y64250D01*
X364650Y68100D02*
X366150D01*
X365400Y67350D02*
Y68850D01*
X364850Y49000D02*
X366350D01*
X365600Y48250D02*
Y49750D01*
X356250Y54100D02*
X357750D01*
X357000Y53350D02*
Y54850D01*
X374050Y58500D02*
X375550D01*
X374800Y57750D02*
Y59250D01*
X359550Y39800D02*
X361050D01*
X360300Y39050D02*
Y40550D01*
X359550Y27700D02*
X361050D01*
X360300Y26950D02*
Y28450D01*
X374575Y35225D02*
X376075D01*
X375325Y34475D02*
Y35975D01*
X279475Y23874D02*
X280975D01*
X280225Y23124D02*
Y24624D01*
X269350Y26500D02*
X270850D01*
X270100Y25750D02*
Y27250D01*
X303650Y23500D02*
X305150D01*
X304400Y22750D02*
Y24250D01*
X245350Y59700D02*
X246850D01*
X246100Y58950D02*
Y60450D01*
X299450Y180100D02*
X300950D01*
X300200Y179350D02*
Y180850D01*
X324750Y177100D02*
X326250D01*
X325500Y176350D02*
Y177850D01*
X324750Y184900D02*
X326250D01*
X325500Y184150D02*
Y185650D01*
X316250Y184900D02*
X317750D01*
X317000Y184150D02*
Y185650D01*
X304150Y184900D02*
X305650D01*
X304900Y184150D02*
Y185650D01*
X324750Y181000D02*
X326250D01*
X325500Y180250D02*
Y181750D01*
X299450Y184700D02*
X300950D01*
X300200Y183950D02*
Y185450D01*
X284750Y34400D02*
X286250D01*
X285500Y33650D02*
Y35150D01*
X269259Y13515D02*
X270759D01*
X270009Y12765D02*
Y14265D01*
X279950Y12200D02*
X281450D01*
X280700Y11450D02*
Y12950D01*
X256150Y71500D02*
X257650D01*
X256900Y70750D02*
Y72250D01*
X256150Y76500D02*
X257650D01*
X256900Y75750D02*
Y77250D01*
X303550Y111700D02*
X305050D01*
X304300Y110950D02*
Y112450D01*
X108900Y171400D02*
X109900D01*
X109400Y170900D02*
Y171900D01*
X32650Y220100D02*
X34150D01*
X33400Y219350D02*
Y220850D01*
X25550Y213500D02*
X27050D01*
X26300Y212750D02*
Y214250D01*
X119250Y125900D02*
X120750D01*
X120000Y125150D02*
Y126650D01*
X118950Y139000D02*
X120450D01*
X119700Y138250D02*
Y139750D01*
X171875Y192225D02*
X173375D01*
X172625Y191475D02*
Y192975D01*
X213150Y186500D02*
X214650D01*
X213900Y185750D02*
Y187250D01*
X15700Y98600D02*
X16700D01*
X16200Y98100D02*
Y99100D01*
X79800Y50600D02*
X80800D01*
X80300Y50100D02*
Y51100D01*
X82000Y50600D02*
X83000D01*
X82500Y50100D02*
Y51100D01*
X48225Y50825D02*
X49225D01*
X48725Y50325D02*
Y51325D01*
X105300Y76000D02*
X106300D01*
X105800Y75500D02*
Y76500D01*
X106100Y73700D02*
X107100D01*
X106600Y73200D02*
Y74200D01*
X105900Y48400D02*
X106900D01*
X106400Y47900D02*
Y48900D01*
X127200Y50400D02*
X128200D01*
X127700Y49900D02*
Y50900D01*
X124838Y50400D02*
X125838D01*
X125338Y49900D02*
Y50900D01*
X152900Y104600D02*
X153900D01*
X153400Y104100D02*
Y105100D01*
X155600Y104600D02*
X156600D01*
X156100Y104100D02*
Y105100D01*
X96800Y48800D02*
X97800D01*
X97300Y48300D02*
Y49300D01*
X95300Y36000D02*
X96300D01*
X95800Y35500D02*
Y36500D01*
X128700Y62800D02*
X129700D01*
X129200Y62300D02*
Y63300D01*
X131600Y84400D02*
X132600D01*
X132100Y83900D02*
Y84900D01*
X80200Y99500D02*
X81200D01*
X80700Y99000D02*
Y100000D01*
X83400Y99500D02*
X84400D01*
X83900Y99000D02*
Y100000D01*
X28500Y102600D02*
X29500D01*
X29000Y102100D02*
Y103100D01*
X28500Y105200D02*
X29500D01*
X29000Y104700D02*
Y105700D01*
X126100Y114500D02*
X127100D01*
X126600Y114000D02*
Y115000D01*
X131000Y104300D02*
X132000D01*
X131500Y103800D02*
Y104800D01*
X134000Y104300D02*
X135000D01*
X134500Y103800D02*
Y104800D01*
X314950Y84800D02*
X316450D01*
X315700Y84050D02*
Y85550D01*
X305750Y84800D02*
X307250D01*
X306500Y84050D02*
Y85550D01*
X314950Y90000D02*
X316450D01*
X315700Y89250D02*
Y90750D01*
X305750Y90000D02*
X307250D01*
X306500Y89250D02*
Y90750D01*
X305750Y95100D02*
X307250D01*
X306500Y94350D02*
Y95850D01*
X314950Y95100D02*
X316450D01*
X315700Y94350D02*
Y95850D01*
X80125Y185025D02*
X81125D01*
X80625Y184525D02*
Y185525D01*
X76525Y130925D02*
X77525D01*
X77025Y130425D02*
Y131425D01*
X82725Y135925D02*
X83725D01*
X83225Y135425D02*
Y136425D01*
X155025Y163125D02*
X156025D01*
X155525Y162625D02*
Y163625D01*
X163225Y163125D02*
X164225D01*
X163725Y162625D02*
Y163625D01*
X155025Y175233D02*
X156025D01*
X155525Y174733D02*
Y175733D01*
X177300Y169000D02*
X178300D01*
X177800Y168500D02*
Y169500D01*
X177300Y163100D02*
X178300D01*
X177800Y162600D02*
Y163600D01*
X180325Y129625D02*
X181325D01*
X180825Y129125D02*
Y130125D01*
X28725Y3125D02*
X29725D01*
X29225Y2625D02*
Y3625D01*
X2025Y2525D02*
X3025D01*
X2525Y2025D02*
Y3025D01*
X2825Y30125D02*
X3825D01*
X3325Y29625D02*
Y30625D01*
X9325Y37425D02*
X10325D01*
X9825Y36925D02*
Y37925D01*
X35725Y15425D02*
X36725D01*
X36225Y14925D02*
Y15925D01*
X35825Y22025D02*
X36825D01*
X36325Y21525D02*
Y22525D01*
X84225Y9325D02*
X85225D01*
X84725Y8825D02*
Y9825D01*
X93625Y9625D02*
X94625D01*
X94125Y9125D02*
Y10125D01*
X20125Y45125D02*
X21125D01*
X20625Y44625D02*
Y45625D01*
X7125Y56425D02*
X8125D01*
X7625Y55925D02*
Y56925D01*
X21625Y37025D02*
X22625D01*
X22125Y36525D02*
Y37525D01*
X83325Y16925D02*
X84325D01*
X83825Y16425D02*
Y17425D01*
X41225Y17825D02*
X42225D01*
X41725Y17325D02*
Y18325D01*
X41425Y8325D02*
X42425D01*
X41925Y7825D02*
Y8825D01*
X129225Y53425D02*
X130225D01*
X129725Y52925D02*
Y53925D01*
X133125Y49225D02*
X134125D01*
X133625Y48725D02*
Y49725D01*
X137525Y38625D02*
X138525D01*
X138025Y38125D02*
Y39125D01*
X135125Y8425D02*
X136125D01*
X135625Y7925D02*
Y8925D01*
X135025Y18325D02*
X136025D01*
X135525Y17825D02*
Y18825D01*
X144225Y18425D02*
X145225D01*
X144725Y17925D02*
Y18925D01*
X62625Y8025D02*
X63625D01*
X63125Y7525D02*
Y8525D01*
X164925Y8225D02*
X165925D01*
X165425Y7725D02*
Y8725D01*
X137325Y51425D02*
X138325D01*
X137825Y50925D02*
Y51925D01*
X155425Y28225D02*
X156425D01*
X155925Y27725D02*
Y28725D01*
X191125Y58325D02*
X192125D01*
X191625Y57825D02*
Y58825D01*
X186025Y28725D02*
X187025D01*
X186525Y28225D02*
Y29225D01*
X186125Y19625D02*
X187125D01*
X186625Y19125D02*
Y20125D01*
X185825Y8625D02*
X186825D01*
X186325Y8125D02*
Y9125D01*
X195425Y16425D02*
X196425D01*
X195925Y15925D02*
Y16925D01*
X195525Y8725D02*
X196525D01*
X196025Y8225D02*
Y9225D01*
X216225Y8425D02*
X217225D01*
X216725Y7925D02*
Y8925D01*
X201825Y42025D02*
X202825D01*
X202325Y41525D02*
Y42525D01*
X201825Y36825D02*
X202825D01*
X202325Y36325D02*
Y37325D01*
X237025Y20525D02*
X238025D01*
X237525Y20025D02*
Y21025D01*
X237325Y8425D02*
X238325D01*
X237825Y7925D02*
Y8925D01*
X245725Y14125D02*
X246725D01*
X246225Y13625D02*
Y14625D01*
X245525Y26325D02*
X246525D01*
X246025Y25825D02*
Y26825D01*
X328225Y53925D02*
X329225D01*
X328725Y53425D02*
Y54425D01*
X324925Y34025D02*
X325925D01*
X325425Y33525D02*
Y34525D01*
X407625Y27725D02*
X408625D01*
X408125Y27225D02*
Y28225D01*
X383125Y42325D02*
X384125D01*
X383625Y41825D02*
Y42825D01*
X382725Y71825D02*
X383725D01*
X383225Y71325D02*
Y72325D01*
X405025Y60825D02*
X406025D01*
X405525Y60325D02*
Y61325D01*
X404325Y84025D02*
X405325D01*
X404825Y83525D02*
Y84525D01*
X338625Y80625D02*
X339625D01*
X339125Y80125D02*
Y81125D01*
X385025Y106325D02*
X386025D01*
X385525Y105825D02*
Y106825D01*
X385225Y125825D02*
X386225D01*
X385725Y125325D02*
Y126325D01*
X404825Y117125D02*
X405825D01*
X405325Y116625D02*
Y117625D01*
X405125Y136025D02*
X406125D01*
X405625Y135525D02*
Y136525D01*
X405225Y156525D02*
X406225D01*
X405725Y156025D02*
Y157025D01*
X390025Y151325D02*
X391025D01*
X390525Y150825D02*
Y151825D01*
X376125Y137425D02*
X377125D01*
X376625Y136925D02*
Y137925D01*
X380325Y164425D02*
X381325D01*
X380825Y163925D02*
Y164925D01*
X390125Y172025D02*
X391125D01*
X390625Y171525D02*
Y172525D01*
X380725Y149525D02*
X381725D01*
X381225Y149025D02*
Y150025D01*
X384425Y197325D02*
X385425D01*
X384925Y196825D02*
Y197825D01*
X370900Y228100D02*
X371900D01*
X371400Y227600D02*
Y228600D01*
X391125Y212025D02*
X392125D01*
X391625Y211525D02*
Y212525D01*
X381525Y245625D02*
X382525D01*
X382025Y245125D02*
Y246125D01*
X391125Y224925D02*
X392125D01*
X391625Y224425D02*
Y225425D01*
X405125Y225025D02*
X406125D01*
X405625Y224525D02*
Y225525D01*
X404925Y242225D02*
X405925D01*
X405425Y241725D02*
Y242725D01*
X369425Y235525D02*
X370425D01*
X369925Y235025D02*
Y236025D01*
X364900Y235200D02*
X365900D01*
X365400Y234700D02*
Y235700D01*
X405925Y273625D02*
X406925D01*
X406425Y273125D02*
Y274125D01*
X254600Y200000D02*
X255600D01*
X255100Y199500D02*
Y200500D01*
X241925Y165925D02*
X242925D01*
X242425Y165425D02*
Y166425D01*
X245725Y166025D02*
X246725D01*
X246225Y165525D02*
Y166525D01*
X242125Y133125D02*
X243125D01*
X242625Y132625D02*
Y133625D01*
X245625Y133125D02*
X246625D01*
X246125Y132625D02*
Y133625D01*
X227225Y139925D02*
X228225D01*
X227725Y139425D02*
Y140425D01*
X222625Y117225D02*
X223625D01*
X223125Y116725D02*
Y117725D01*
X242225Y232725D02*
X243225D01*
X242725Y232225D02*
Y233225D01*
X237525Y250125D02*
X238525D01*
X238025Y249625D02*
Y250625D01*
X242225Y257925D02*
X243225D01*
X242725Y257425D02*
Y258425D01*
X232425Y256625D02*
X233425D01*
X232925Y256125D02*
Y257125D01*
X229525Y236625D02*
X230525D01*
X230025Y236125D02*
Y237125D01*
X229800Y243900D02*
X230800D01*
X230300Y243400D02*
Y244400D01*
X223725Y257425D02*
X224725D01*
X224225Y256925D02*
Y257925D01*
X218125Y249325D02*
X219125D01*
X218625Y248825D02*
Y249825D01*
X211625Y243425D02*
X212625D01*
X212125Y242925D02*
Y243925D01*
X203525Y247925D02*
X204525D01*
X204025Y247425D02*
Y248425D01*
X192700Y248900D02*
X193700D01*
X193200Y248400D02*
Y249400D01*
X207100Y272700D02*
X208100D01*
X207600Y272200D02*
Y273200D01*
X169972Y270276D02*
X170972D01*
X170472Y269776D02*
Y270776D01*
X166232Y260433D02*
X167232D01*
X166732Y259933D02*
Y260933D01*
X164125Y253925D02*
X165125D01*
X164625Y253425D02*
Y254425D01*
X166700Y246500D02*
X167700D01*
X167200Y246000D02*
Y247000D01*
X175225Y245125D02*
X176225D01*
X175725Y244625D02*
Y245625D01*
X186725Y239225D02*
X187725D01*
X187225Y238725D02*
Y239725D01*
X122300Y271500D02*
X123300D01*
X122800Y271000D02*
Y272000D01*
X81800Y271000D02*
X82800D01*
X82300Y270500D02*
Y271500D01*
X76025Y263125D02*
X77025D01*
X76525Y262625D02*
Y263625D01*
X71625Y274725D02*
X72625D01*
X72125Y274225D02*
Y275225D01*
X40800Y271300D02*
X41800D01*
X41300Y270800D02*
Y271800D01*
X25425Y275825D02*
X26425D01*
X25925Y275325D02*
Y276325D01*
X2725Y256725D02*
X3725D01*
X3225Y256225D02*
Y257225D01*
X12825Y241025D02*
X13825D01*
X13325Y240525D02*
Y241525D01*
X2225Y237825D02*
X3225D01*
X2725Y237325D02*
Y238325D01*
X27825Y245225D02*
X28825D01*
X28325Y244725D02*
Y245725D01*
X44225Y248325D02*
X45225D01*
X44725Y247825D02*
Y248825D01*
X18225Y225525D02*
X19225D01*
X18725Y225025D02*
Y226025D01*
X33625Y226525D02*
X34625D01*
X34125Y226025D02*
Y227025D01*
X18525Y219725D02*
X19525D01*
X19025Y219225D02*
Y220225D01*
X1725D02*
X2725D01*
X2225Y219725D02*
Y220725D01*
X2425Y194625D02*
X3425D01*
X2925Y194125D02*
Y195125D01*
X30425Y195325D02*
X31425D01*
X30925Y194825D02*
Y195825D01*
X102225Y156725D02*
X103225D01*
X102725Y156225D02*
Y157225D01*
X102525Y167125D02*
X103525D01*
X103025Y166625D02*
Y167625D01*
X6725Y114425D02*
X7725D01*
X7225Y113925D02*
Y114925D01*
X231925Y100725D02*
X232925D01*
X232425Y100225D02*
Y101225D01*
X243525Y105725D02*
X244525D01*
X244025Y105225D02*
Y106225D01*
X81980Y200591D02*
X82980D01*
X82480Y200091D02*
Y201091D01*
X102725Y49725D02*
X103725D01*
X103225Y49225D02*
Y50225D01*
X144100Y129500D02*
X145100D01*
X144600Y129000D02*
Y130000D01*
X155025Y149425D02*
X156025D01*
X155525Y148925D02*
Y149925D01*
X210625Y150125D02*
X211625D01*
X211125Y149625D02*
Y150625D01*
X158425Y89825D02*
X159425D01*
X158925Y89325D02*
Y90325D01*
X284700Y187000D02*
X285700D01*
X285200Y186500D02*
Y187500D01*
X275650Y84000D02*
X277150D01*
X276400Y83250D02*
Y84750D01*
X274750Y93100D02*
X276250D01*
X275500Y92350D02*
Y93850D01*
X278000Y70300D02*
X279000D01*
X278500Y69800D02*
Y70800D01*
X259950Y71500D02*
X261450D01*
X260700Y70750D02*
Y72250D01*
X259650Y76100D02*
X261150D01*
X260400Y75350D02*
Y76850D01*
X320250Y184900D02*
X321750D01*
X321000Y184150D02*
Y185650D01*
X312150Y184900D02*
X313650D01*
X312900Y184150D02*
Y185650D01*
X308250Y184900D02*
X309750D01*
X309000Y184150D02*
Y185650D01*
X224650Y182300D02*
X226150D01*
X225400Y181550D02*
Y183050D01*
X113625Y7925D02*
X114625D01*
X114125Y7425D02*
Y8425D01*
X33947Y31325D02*
X34947D01*
X34447Y30825D02*
Y31825D01*
X36625Y31325D02*
X37625D01*
X37125Y30825D02*
Y31825D01*
X45125Y27725D02*
X46125D01*
X45625Y27225D02*
Y28225D01*
X45125Y30325D02*
X46125D01*
X45625Y29825D02*
Y30825D01*
X54625Y30525D02*
X55625D01*
X55125Y30025D02*
Y31025D01*
X54625Y27925D02*
X55625D01*
X55125Y27425D02*
Y28425D01*
X62025Y28400D02*
X63025D01*
X62525Y27900D02*
Y28900D01*
X62025Y26000D02*
X63025D01*
X62525Y25500D02*
Y26500D01*
X76125Y31025D02*
X77125D01*
X76625Y30525D02*
Y31525D01*
X74525Y27825D02*
X75525D01*
X75025Y27325D02*
Y28325D01*
X74425Y25225D02*
X75425D01*
X74925Y24725D02*
Y25725D01*
X90925Y41925D02*
X91925D01*
X91425Y41425D02*
Y42425D01*
X88425Y31325D02*
X89425D01*
X88925Y30825D02*
Y31825D01*
X92325Y32725D02*
X93325D01*
X92825Y32225D02*
Y33225D01*
X92325Y30125D02*
X93325D01*
X92825Y29625D02*
Y30625D01*
X116000Y31400D02*
X117000D01*
X116500Y30900D02*
Y31900D01*
X131025Y30925D02*
X132025D01*
X131525Y30425D02*
Y31425D01*
X133725Y30925D02*
X134725D01*
X134225Y30425D02*
Y31425D01*
X191390Y194510D02*
X192390D01*
X191890Y194010D02*
Y195010D01*
X185510Y194510D02*
X186510D01*
X186010Y194010D02*
Y195010D01*
X179990Y194410D02*
X180990D01*
X180490Y193910D02*
Y194910D01*
X148400Y206300D02*
X149400D01*
X148900Y205800D02*
Y206800D01*
X326650Y14100D02*
X328150D01*
X327400Y13350D02*
Y14850D01*
X367200Y27000D02*
X368200D01*
X367700Y26500D02*
Y27500D01*
X370200Y30200D02*
X371200D01*
X370700Y29700D02*
Y30700D01*
X338950Y74600D02*
X340450D01*
X339700Y73850D02*
Y75350D01*
X345450Y56900D02*
X346950D01*
X346200Y56150D02*
Y57650D01*
X332750Y57300D02*
X334250D01*
X333500Y56550D02*
Y58050D01*
X335950Y37600D02*
X337450D01*
X336700Y36850D02*
Y38350D01*
X332450Y47800D02*
X333950D01*
X333200Y47050D02*
Y48550D01*
X356550Y22600D02*
X358050D01*
X357300Y21850D02*
Y23350D01*
X362350Y22700D02*
X363850D01*
X363100Y21950D02*
Y23450D01*
X332250Y23500D02*
X333750D01*
X333000Y22750D02*
Y24250D01*
X364950Y11800D02*
X366450D01*
X365700Y11050D02*
Y12550D01*
X339325Y23825D02*
X340325D01*
X339825Y23325D02*
Y24325D01*
X353975Y17825D02*
X355475D01*
X354725Y17075D02*
Y18575D01*
X318075Y149525D02*
X319575D01*
X318825Y148775D02*
Y150275D01*
X301575Y150325D02*
X303075D01*
X302325Y149575D02*
Y151075D01*
X223725Y264625D02*
X224725D01*
X224225Y264125D02*
Y265125D01*
X21531Y72102D02*
X22532D01*
X22031Y71602D02*
Y72602D01*
X30193Y59109D02*
X31193D01*
X30693Y58609D02*
Y59610D01*
X25862Y59109D02*
X26862D01*
X26362Y58609D02*
Y59610D01*
X21531Y59109D02*
X22532D01*
X22031Y58609D02*
Y59610D01*
X30193Y63440D02*
X31193D01*
X30693Y62940D02*
Y63940D01*
X25862Y63440D02*
X26862D01*
X26362Y62940D02*
Y63940D01*
X21531Y63440D02*
X22532D01*
X22031Y62940D02*
Y63940D01*
X30193Y67771D02*
X31193D01*
X30693Y67271D02*
Y68271D01*
X25862Y67771D02*
X26862D01*
X26362Y67271D02*
Y68271D01*
X21531Y67771D02*
X22532D01*
X22031Y67271D02*
Y68271D01*
X30193Y72102D02*
X31193D01*
X30693Y71602D02*
Y72602D01*
X25862Y72102D02*
X26862D01*
X26362Y71602D02*
Y72602D01*
X70600Y68502D02*
X71600D01*
X71100Y68002D02*
Y69002D01*
X74931Y68502D02*
X75931D01*
X75431Y68002D02*
Y69002D01*
X66269Y64171D02*
X67269D01*
X66769Y63671D02*
Y64671D01*
X70600Y64171D02*
X71600D01*
X71100Y63671D02*
Y64671D01*
X74931Y64171D02*
X75931D01*
X75431Y63671D02*
Y64671D01*
X66269Y59840D02*
X67269D01*
X66769Y59340D02*
Y60340D01*
X70600Y59840D02*
X71600D01*
X71100Y59340D02*
Y60340D01*
X74931Y59840D02*
X75931D01*
X75431Y59340D02*
Y60340D01*
X66269Y55510D02*
X67269D01*
X66769Y55010D02*
Y56010D01*
X70600Y55510D02*
X71600D01*
X71100Y55010D02*
Y56010D01*
X74931Y55510D02*
X75931D01*
X75431Y55010D02*
Y56010D01*
X66269Y68502D02*
X67269D01*
X66769Y68002D02*
Y69002D01*
X111269Y68502D02*
X112269D01*
X111769Y68002D02*
Y69002D01*
X119931Y55510D02*
X120931D01*
X120431Y55010D02*
Y56010D01*
X115600Y55510D02*
X116600D01*
X116100Y55010D02*
Y56010D01*
X111269Y55510D02*
X112269D01*
X111769Y55010D02*
Y56010D01*
X119931Y59840D02*
X120931D01*
X120431Y59340D02*
Y60340D01*
X115600Y59840D02*
X116600D01*
X116100Y59340D02*
Y60340D01*
X111269Y59840D02*
X112269D01*
X111769Y59340D02*
Y60340D01*
X119931Y64171D02*
X120931D01*
X120431Y63671D02*
Y64671D01*
X115600Y64171D02*
X116600D01*
X116100Y63671D02*
Y64671D01*
X111269Y64171D02*
X112269D01*
X111769Y63671D02*
Y64671D01*
X119931Y68502D02*
X120931D01*
X120431Y68002D02*
Y69002D01*
X115600Y68502D02*
X116600D01*
X116100Y68002D02*
Y69002D01*
X212000Y68502D02*
X213000D01*
X212500Y68002D02*
Y69002D01*
X216331Y68502D02*
X217331D01*
X216831Y68002D02*
Y69002D01*
X207669Y64171D02*
X208669D01*
X208169Y63671D02*
Y64671D01*
X212000Y64171D02*
X213000D01*
X212500Y63671D02*
Y64671D01*
X216331Y64171D02*
X217331D01*
X216831Y63671D02*
Y64671D01*
X207669Y59840D02*
X208669D01*
X208169Y59340D02*
Y60340D01*
X212000Y59840D02*
X213000D01*
X212500Y59340D02*
Y60340D01*
X216331Y59840D02*
X217331D01*
X216831Y59340D02*
Y60340D01*
X207669Y55510D02*
X208669D01*
X208169Y55010D02*
Y56010D01*
X212000Y55510D02*
X213000D01*
X212500Y55010D02*
Y56010D01*
X216331Y55510D02*
X217331D01*
X216831Y55010D02*
Y56010D01*
X207669Y68502D02*
X208669D01*
X208169Y68002D02*
Y69002D01*
X45225Y33425D02*
X46225D01*
X45725Y32925D02*
Y33925D01*
X27925Y99625D02*
X28925D01*
X28425Y99125D02*
Y100125D01*
X61000Y48200D02*
X62000D01*
X61500Y47700D02*
Y48700D01*
X73500Y84000D02*
X74500D01*
X74000Y83500D02*
Y84500D01*
X87825Y86525D02*
X88825D01*
X88325Y86025D02*
Y87025D01*
X203700Y80900D02*
X204700D01*
X204200Y80400D02*
Y81400D01*
X203700Y78400D02*
X204700D01*
X204200Y77900D02*
Y78900D01*
X72725Y100825D02*
X73725D01*
X73225Y100325D02*
Y101325D01*
X77300Y148500D02*
X78300D01*
X77800Y148000D02*
Y149000D01*
X55200Y146000D02*
X56200D01*
X55700Y145500D02*
Y146500D01*
X340575Y125025D02*
X342075D01*
X341325Y124275D02*
Y125775D01*
X339475Y157225D02*
X340975D01*
X340225Y156475D02*
Y157975D01*
X401125Y34125D02*
X402125D01*
X401625Y33625D02*
Y34625D01*
X276370Y132835D02*
X277370D01*
X276870Y132335D02*
Y133335D01*
X157425Y207825D02*
X158425D01*
X157925Y207325D02*
Y208325D01*
X132751Y181365D02*
X133751D01*
X133251Y180865D02*
Y181865D01*
X69000Y228200D02*
X70000D01*
X69500Y227700D02*
Y228700D01*
X100300Y218300D02*
X101300D01*
X100800Y217800D02*
Y218800D01*
X100700Y223800D02*
X101700D01*
X101200Y223300D02*
Y224300D01*
X41200Y213200D02*
X42200D01*
X41700Y212700D02*
Y213700D01*
X46900Y224900D02*
X47900D01*
X47400Y224400D02*
Y225400D01*
X56800Y218200D02*
X57800D01*
X57300Y217700D02*
Y218700D01*
X54500Y226200D02*
X55500D01*
X55000Y225700D02*
Y226700D01*
X63800Y218800D02*
X64800D01*
X64300Y218300D02*
Y219300D01*
X141100Y136100D02*
X142100D01*
X141600Y135600D02*
Y136600D01*
X156500Y143800D02*
X157500D01*
X157000Y143300D02*
Y144300D01*
X150100Y138400D02*
X151100D01*
X150600Y137900D02*
Y138900D01*
X150050Y128800D02*
X151050D01*
X150550Y128300D02*
Y129300D01*
X151100Y132100D02*
X152100D01*
X151600Y131600D02*
Y132600D01*
X199300Y181400D02*
X200300D01*
X199800Y180900D02*
Y181900D01*
X154900Y136000D02*
X155900D01*
X155400Y135500D02*
Y136500D01*
X285400Y274300D02*
X286400D01*
X285900Y273800D02*
Y274800D01*
X349600Y246500D02*
X350600D01*
X350100Y246000D02*
Y247000D01*
X195700Y198000D02*
X196700D01*
X196200Y197500D02*
Y198500D01*
X195800Y193900D02*
X196800D01*
X196300Y193400D02*
Y194400D01*
X236800Y196700D02*
X237800D01*
X237300Y196200D02*
Y197200D01*
X208600Y196000D02*
X209600D01*
X209100Y195500D02*
Y196500D01*
X203800Y191000D02*
X204800D01*
X204300Y190500D02*
Y191500D01*
X206500Y192800D02*
X207500D01*
X207000Y192300D02*
Y193300D01*
X209200Y189900D02*
X210200D01*
X209700Y189400D02*
Y190400D01*
X224600Y197100D02*
X225600D01*
X225100Y196600D02*
Y197600D01*
X275200Y213800D02*
X276200D01*
X275700Y213300D02*
Y214300D01*
X285800Y135700D02*
X286800D01*
X286300Y135200D02*
Y136200D01*
X290000Y138400D02*
X291000D01*
X290500Y137900D02*
Y138900D01*
X314850Y146100D02*
X316350D01*
X315600Y145350D02*
Y146850D01*
X317875Y146125D02*
X319375D01*
X318625Y145375D02*
Y146875D01*
X160325Y208625D02*
X161325D01*
X160825Y208125D02*
Y209125D01*
X230100Y212700D02*
X231100D01*
X230600Y212200D02*
Y213200D01*
X235300Y214100D02*
X236300D01*
X235800Y213600D02*
Y214600D01*
X229800Y209700D02*
X230800D01*
X230300Y209200D02*
Y210200D01*
X283650Y167000D02*
X285150D01*
X284400Y166250D02*
Y167750D01*
X275700Y175900D02*
X276700D01*
X276200Y175400D02*
Y176400D01*
X199000Y111600D02*
X200000D01*
X199500Y111100D02*
Y112100D01*
X191300Y110700D02*
X192300D01*
X191800Y110200D02*
Y111200D01*
X290350Y117000D02*
X291850D01*
X291100Y116250D02*
Y117750D01*
X285578Y155970D02*
X287078D01*
X286328Y155220D02*
Y156720D01*
X286800Y124600D02*
X287800D01*
X287300Y124100D02*
Y125100D01*
X370150Y213900D02*
X371650D01*
X370900Y213150D02*
Y214650D01*
X345250Y207900D02*
X346750D01*
X346000Y207150D02*
Y208650D01*
X345250Y214900D02*
X346750D01*
X346000Y214150D02*
Y215650D01*
X345250Y211300D02*
X346750D01*
X346000Y210550D02*
Y212050D01*
X330700Y219400D02*
X331700D01*
X331200Y218900D02*
Y219900D01*
X361000Y266200D02*
X362000D01*
X361500Y265700D02*
Y266700D01*
X337500Y272400D02*
X338500D01*
X338000Y271900D02*
Y272900D01*
X274600D02*
X275600D01*
X275100Y272400D02*
Y273400D01*
X341750Y249300D02*
X343250D01*
X342500Y248550D02*
Y250050D01*
X291350Y165600D02*
X292850D01*
X292100Y164850D02*
Y166350D01*
X307050Y159400D02*
X308550D01*
X307800Y158650D02*
Y160150D01*
X299450Y168000D02*
X300950D01*
X300200Y167250D02*
Y168750D01*
X312050Y159500D02*
X313550D01*
X312800Y158750D02*
Y160250D01*
X300452Y159453D02*
X301952D01*
X301202Y158703D02*
Y160204D01*
X286300Y177500D02*
X287300D01*
X286800Y177000D02*
Y178000D01*
X346050Y249300D02*
X347550D01*
X346800Y248550D02*
Y250050D01*
X337250Y249300D02*
X338750D01*
X338000Y248550D02*
Y250050D01*
X341850Y245200D02*
X343350D01*
X342600Y244450D02*
Y245950D01*
X337250Y245200D02*
X338750D01*
X338000Y244450D02*
Y245950D01*
X280550Y201600D02*
X282050D01*
X281300Y200850D02*
Y202350D01*
X341350Y271100D02*
X342850D01*
X342100Y270350D02*
Y271850D01*
X345750Y266100D02*
X347250D01*
X346500Y265350D02*
Y266850D01*
X341550Y266100D02*
X343050D01*
X342300Y265350D02*
Y266850D01*
X338250Y266100D02*
X339750D01*
X339000Y265350D02*
Y266850D01*
X345050Y271100D02*
X346550D01*
X345800Y270350D02*
Y271850D01*
X293550Y197100D02*
X295050D01*
X294300Y196350D02*
Y197850D01*
X285950Y201600D02*
X287450D01*
X286700Y200850D02*
Y202350D01*
X298750Y197100D02*
X300250D01*
X299500Y196350D02*
Y197850D01*
X345950Y245300D02*
X347450D01*
X346700Y244550D02*
Y246050D01*
X296850Y275700D02*
X298350D01*
X297600Y274950D02*
Y276450D01*
X288050Y206700D02*
X289550D01*
X288800Y205950D02*
Y207450D01*
X285150Y206700D02*
X286650D01*
X285900Y205950D02*
Y207450D01*
X277750Y206700D02*
X279250D01*
X278500Y205950D02*
Y207450D01*
X282150Y206700D02*
X283650D01*
X282900Y205950D02*
Y207450D01*
X273450Y206600D02*
X274950D01*
X274200Y205850D02*
Y207350D01*
X268350Y206300D02*
X269850D01*
X269100Y205550D02*
Y207050D01*
X270550Y209800D02*
X272050D01*
X271300Y209050D02*
Y210550D01*
X329950Y196000D02*
X331450D01*
X330700Y195250D02*
Y196750D01*
X333350Y180500D02*
X334850D01*
X334100Y179750D02*
Y181250D01*
X374250Y223600D02*
X375750D01*
X375000Y222850D02*
Y224350D01*
X374250Y218300D02*
X375750D01*
X375000Y217550D02*
Y219050D01*
X363750Y210600D02*
X365250D01*
X364500Y209850D02*
Y211350D01*
X362550Y231200D02*
X364050D01*
X363300Y230450D02*
Y231950D01*
X277125Y191256D02*
X278125D01*
X277625Y190756D02*
Y191756D01*
X339735Y262131D02*
X340735D01*
X340235Y261631D02*
Y262631D01*
X344065Y262131D02*
X345065D01*
X344565Y261631D02*
Y262631D01*
X339735Y257800D02*
X340735D01*
X340235Y257300D02*
Y258300D01*
X344065Y257800D02*
X345065D01*
X344565Y257300D02*
Y258300D01*
X339735Y253469D02*
X340735D01*
X340235Y252969D02*
Y253969D01*
X344065Y253469D02*
X345065D01*
X344565Y252969D02*
Y253969D01*
X358450Y206900D02*
X359950D01*
X359200Y206150D02*
Y207650D01*
X366150Y206900D02*
X367650D01*
X366900Y206150D02*
Y207650D01*
X370150Y209700D02*
X371650D01*
X370900Y208950D02*
Y210450D01*
X358350Y233800D02*
X359850D01*
X359100Y233050D02*
Y234550D01*
X367450Y230800D02*
X368950D01*
X368200Y230050D02*
Y231550D01*
M02*
