G04 Layer_Color=16711935*
%FSLAX24Y24*%
%MOIN*%
G70*
G01*
G75*
%ADD12C,0.0100*%
%ADD122C,0.0300*%
%ADD129C,0.0840*%
%ADD214C,0.0631*%
G04:AMPARAMS|DCode=217|XSize=118.7mil|YSize=118.7mil|CornerRadius=59.4mil|HoleSize=0mil|Usage=FLASHONLY|Rotation=90.000|XOffset=0mil|YOffset=0mil|HoleType=Round|Shape=RoundedRectangle|*
%AMROUNDEDRECTD217*
21,1,0.1187,0.0000,0,0,90.0*
21,1,0.0000,0.1187,0,0,90.0*
1,1,0.1187,0.0000,0.0000*
1,1,0.1187,0.0000,0.0000*
1,1,0.1187,0.0000,0.0000*
1,1,0.1187,0.0000,0.0000*
%
%ADD217ROUNDEDRECTD217*%
G04:AMPARAMS|DCode=258|XSize=54mil|YSize=54mil|CornerRadius=27mil|HoleSize=0mil|Usage=FLASHONLY|Rotation=270.000|XOffset=0mil|YOffset=0mil|HoleType=Round|Shape=RoundedRectangle|*
%AMROUNDEDRECTD258*
21,1,0.0540,0.0000,0,0,270.0*
21,1,0.0000,0.0540,0,0,270.0*
1,1,0.0540,0.0000,0.0000*
1,1,0.0540,0.0000,0.0000*
1,1,0.0540,0.0000,0.0000*
1,1,0.0540,0.0000,0.0000*
%
%ADD258ROUNDEDRECTD258*%
%ADD269R,0.0631X0.0631*%
%ADD270C,0.0631*%
%ADD271O,0.0640X0.1240*%
%ADD272R,0.0640X0.1240*%
%ADD273O,0.1340X0.1400*%
%ADD274R,0.0631X0.0631*%
%ADD275O,0.1240X0.0640*%
%ADD276O,0.0865X0.1690*%
%ADD277P,0.0714X8X22.5*%
%ADD278C,0.1345*%
%ADD279C,0.0580*%
%ADD280C,0.1040*%
%ADD281P,0.0801X8X292.5*%
G04:AMPARAMS|DCode=282|XSize=137mil|YSize=87mil|CornerRadius=0mil|HoleSize=0mil|Usage=FLASHONLY|Rotation=270.000|XOffset=0mil|YOffset=0mil|HoleType=Round|Shape=Octagon|*
%AMOCTAGOND282*
4,1,8,-0.0217,-0.0685,0.0217,-0.0685,0.0435,-0.0467,0.0435,0.0467,0.0217,0.0685,-0.0217,0.0685,-0.0435,0.0467,-0.0435,-0.0467,-0.0217,-0.0685,0.0*
%
%ADD282OCTAGOND282*%

%ADD283C,0.0100*%
%ADD284R,0.0704X0.0354*%
%ADD285R,0.0631X0.0631*%
G04:AMPARAMS|DCode=286|XSize=62mil|YSize=62mil|CornerRadius=31mil|HoleSize=0mil|Usage=FLASHONLY|Rotation=270.000|XOffset=0mil|YOffset=0mil|HoleType=Round|Shape=RoundedRectangle|*
%AMROUNDEDRECTD286*
21,1,0.0620,0.0000,0,0,270.0*
21,1,0.0000,0.0620,0,0,270.0*
1,1,0.0620,0.0000,0.0000*
1,1,0.0620,0.0000,0.0000*
1,1,0.0620,0.0000,0.0000*
1,1,0.0620,0.0000,0.0000*
%
%ADD286ROUNDEDRECTD286*%
%ADD287R,0.0532X0.0375*%
G04:AMPARAMS|DCode=288|XSize=54mil|YSize=54mil|CornerRadius=27mil|HoleSize=0mil|Usage=FLASHONLY|Rotation=0.000|XOffset=0mil|YOffset=0mil|HoleType=Round|Shape=RoundedRectangle|*
%AMROUNDEDRECTD288*
21,1,0.0540,0.0000,0,0,0.0*
21,1,0.0000,0.0540,0,0,0.0*
1,1,0.0540,0.0000,0.0000*
1,1,0.0540,0.0000,0.0000*
1,1,0.0540,0.0000,0.0000*
1,1,0.0540,0.0000,0.0000*
%
%ADD288ROUNDEDRECTD288*%
G04:AMPARAMS|DCode=289|XSize=50mil|YSize=67mil|CornerRadius=13.5mil|HoleSize=0mil|Usage=FLASHONLY|Rotation=270.000|XOffset=0mil|YOffset=0mil|HoleType=Round|Shape=RoundedRectangle|*
%AMROUNDEDRECTD289*
21,1,0.0500,0.0400,0,0,270.0*
21,1,0.0230,0.0670,0,0,270.0*
1,1,0.0270,-0.0200,-0.0115*
1,1,0.0270,-0.0200,0.0115*
1,1,0.0270,0.0200,0.0115*
1,1,0.0270,0.0200,-0.0115*
%
%ADD289ROUNDEDRECTD289*%
G36*
X29756Y84441D02*
X28966Y84141D01*
X29086Y84261D01*
Y84621D01*
X28966Y84741D01*
X29756Y84441D01*
D02*
G37*
G36*
Y83441D02*
X28966Y83141D01*
X29086Y83261D01*
Y83621D01*
X28966Y83741D01*
X29756Y83441D01*
D02*
G37*
G36*
Y82441D02*
X28966Y82141D01*
X29086Y82261D01*
Y82621D01*
X28966Y82741D01*
X29756Y82441D01*
D02*
G37*
G36*
Y81441D02*
X28966Y81141D01*
X29086Y81261D01*
Y81621D01*
X28966Y81741D01*
X29756Y81441D01*
D02*
G37*
G36*
Y80441D02*
X28966Y80141D01*
X29086Y80261D01*
Y80621D01*
X28966Y80741D01*
X29756Y80441D01*
D02*
G37*
G36*
X37020Y74670D02*
X36110D01*
Y76060D01*
X37020D01*
Y74670D01*
D02*
G37*
G36*
Y69370D02*
X36110D01*
Y70760D01*
X37020D01*
Y69370D01*
D02*
G37*
G36*
X34069Y64544D02*
X33159D01*
Y65934D01*
X34069D01*
Y64544D01*
D02*
G37*
G36*
X36970Y64540D02*
X36060D01*
Y65930D01*
X36970D01*
Y64540D01*
D02*
G37*
G36*
X34069Y59244D02*
X33159D01*
Y60634D01*
X34069D01*
Y59244D01*
D02*
G37*
G36*
X36970Y59240D02*
X36060D01*
Y60630D01*
X36970D01*
Y59240D01*
D02*
G37*
G36*
X29756Y56449D02*
X28966Y56149D01*
X29086Y56269D01*
Y56629D01*
X28966Y56749D01*
X29756Y56449D01*
D02*
G37*
G36*
Y55449D02*
X28966Y55149D01*
X29086Y55269D01*
Y55629D01*
X28966Y55749D01*
X29756Y55449D01*
D02*
G37*
G36*
Y54449D02*
X28966Y54149D01*
X29086Y54269D01*
Y54629D01*
X28966Y54749D01*
X29756Y54449D01*
D02*
G37*
G36*
Y53449D02*
X28966Y53149D01*
X29086Y53269D01*
Y53629D01*
X28966Y53749D01*
X29756Y53449D01*
D02*
G37*
G36*
Y52449D02*
X28966Y52149D01*
X29086Y52269D01*
Y52629D01*
X28966Y52749D01*
X29756Y52449D01*
D02*
G37*
G36*
X37020Y46678D02*
X36110D01*
Y48068D01*
X37020D01*
Y46678D01*
D02*
G37*
G36*
Y41378D02*
X36110D01*
Y42768D01*
X37020D01*
Y41378D01*
D02*
G37*
G36*
X34069Y36551D02*
X33159D01*
Y37942D01*
X34069D01*
Y36551D01*
D02*
G37*
G36*
X36970Y36548D02*
X36060D01*
Y37938D01*
X36970D01*
Y36548D01*
D02*
G37*
G36*
X34069Y31251D02*
X33159D01*
Y32641D01*
X34069D01*
Y31251D01*
D02*
G37*
G36*
X36970Y31248D02*
X36060D01*
Y32638D01*
X36970D01*
Y31248D01*
D02*
G37*
G36*
X29756Y28456D02*
X28966Y28156D01*
X29086Y28276D01*
Y28636D01*
X28966Y28756D01*
X29756Y28456D01*
D02*
G37*
G36*
Y27456D02*
X28966Y27156D01*
X29086Y27276D01*
Y27636D01*
X28966Y27756D01*
X29756Y27456D01*
D02*
G37*
G36*
Y26456D02*
X28966Y26156D01*
X29086Y26276D01*
Y26636D01*
X28966Y26756D01*
X29756Y26456D01*
D02*
G37*
G36*
Y25456D02*
X28966Y25156D01*
X29086Y25276D01*
Y25636D01*
X28966Y25756D01*
X29756Y25456D01*
D02*
G37*
G36*
Y24456D02*
X28966Y24156D01*
X29086Y24276D01*
Y24636D01*
X28966Y24756D01*
X29756Y24456D01*
D02*
G37*
G36*
X37020Y18685D02*
X36110D01*
Y20075D01*
X37020D01*
Y18685D01*
D02*
G37*
G36*
Y13385D02*
X36110D01*
Y14775D01*
X37020D01*
Y13385D01*
D02*
G37*
G36*
X34069Y8559D02*
X33159D01*
Y9949D01*
X34069D01*
Y8559D01*
D02*
G37*
G36*
X36970Y8555D02*
X36060D01*
Y9945D01*
X36970D01*
Y8555D01*
D02*
G37*
G36*
X34069Y3259D02*
X33159D01*
Y4649D01*
X34069D01*
Y3259D01*
D02*
G37*
G36*
X36970Y3255D02*
X36060D01*
Y4645D01*
X36970D01*
Y3255D01*
D02*
G37*
G54D12*
X27728Y99328D02*
Y98728D01*
X28028D01*
X28128Y98828D01*
Y98928D01*
X28028Y99028D01*
X27728D01*
X28028D01*
X28128Y99128D01*
Y99228D01*
X28028Y99328D01*
X27728D01*
X28428Y98728D02*
X28628D01*
X28728Y98828D01*
Y99028D01*
X28628Y99128D01*
X28428D01*
X28328Y99028D01*
Y98828D01*
X28428Y98728D01*
X29028Y99228D02*
Y99128D01*
X28928D01*
X29128D01*
X29028D01*
Y98828D01*
X29128Y98728D01*
X29528Y99228D02*
Y99128D01*
X29428D01*
X29628D01*
X29528D01*
Y98828D01*
X29628Y98728D01*
X30028D02*
X30228D01*
X30328Y98828D01*
Y99028D01*
X30228Y99128D01*
X30028D01*
X29928Y99028D01*
Y98828D01*
X30028Y98728D01*
X30527D02*
Y99128D01*
X30627D01*
X30727Y99028D01*
Y98728D01*
Y99028D01*
X30827Y99128D01*
X30927Y99028D01*
Y98728D01*
X32127Y99228D02*
X32027Y99328D01*
X31827D01*
X31727Y99228D01*
Y99128D01*
X31827Y99028D01*
X32027D01*
X32127Y98928D01*
Y98828D01*
X32027Y98728D01*
X31827D01*
X31727Y98828D01*
X32427Y98728D02*
X32627D01*
X32727Y98828D01*
Y99028D01*
X32627Y99128D01*
X32427D01*
X32327Y99028D01*
Y98828D01*
X32427Y98728D01*
X32927D02*
X33127D01*
X33027D01*
Y99328D01*
X32927D01*
X33826D02*
Y98728D01*
X33526D01*
X33426Y98828D01*
Y99028D01*
X33526Y99128D01*
X33826D01*
X34326Y98728D02*
X34126D01*
X34026Y98828D01*
Y99028D01*
X34126Y99128D01*
X34326D01*
X34426Y99028D01*
Y98928D01*
X34026D01*
X34626Y99128D02*
Y98728D01*
Y98928D01*
X34726Y99028D01*
X34826Y99128D01*
X34926D01*
X35226Y98728D02*
Y99128D01*
X35326D01*
X35426Y99028D01*
Y98728D01*
Y99028D01*
X35526Y99128D01*
X35626Y99028D01*
Y98728D01*
X35926Y99128D02*
X36126D01*
X36226Y99028D01*
Y98728D01*
X35926D01*
X35826Y98828D01*
X35926Y98928D01*
X36226D01*
X36426Y98728D02*
X36725D01*
X36825Y98828D01*
X36725Y98928D01*
X36525D01*
X36426Y99028D01*
X36525Y99128D01*
X36825D01*
X37025Y98728D02*
Y99328D01*
Y98928D02*
X37325Y99128D01*
X37025Y98928D02*
X37325Y98728D01*
G54D122*
X10499Y19799D02*
D03*
Y20173D02*
D03*
X10123Y20177D02*
D03*
X10127Y19799D02*
D03*
X10125Y19416D02*
D03*
X10499Y19425D02*
D03*
X10873D02*
D03*
Y19799D02*
D03*
Y20173D02*
D03*
X34229Y19363D02*
D03*
X34629D02*
D03*
Y19763D02*
D03*
X34229D02*
D03*
Y20163D02*
D03*
X34629D02*
D03*
Y20563D02*
D03*
X34229D02*
D03*
X33429D02*
D03*
X33029D02*
D03*
Y20163D02*
D03*
X33429D02*
D03*
Y19763D02*
D03*
X33029D02*
D03*
Y19363D02*
D03*
X33429D02*
D03*
X33829D02*
D03*
Y19763D02*
D03*
Y20563D02*
D03*
Y20163D02*
D03*
X29907Y7616D02*
D03*
X29507D02*
D03*
X30307D02*
D03*
X30707D02*
D03*
Y7216D02*
D03*
Y6816D02*
D03*
X30307D02*
D03*
Y7216D02*
D03*
X29907D02*
D03*
Y6816D02*
D03*
X29507D02*
D03*
Y7216D02*
D03*
Y8016D02*
D03*
Y8416D02*
D03*
X29907D02*
D03*
Y8016D02*
D03*
X30307D02*
D03*
Y8416D02*
D03*
X30707D02*
D03*
Y8016D02*
D03*
X4743Y9750D02*
D03*
X5609Y8450D02*
D03*
X5176D02*
D03*
X4743D02*
D03*
X5609Y8883D02*
D03*
X5176D02*
D03*
X4743D02*
D03*
X5609Y9316D02*
D03*
X5176D02*
D03*
X4743D02*
D03*
X5609Y9750D02*
D03*
X5176D02*
D03*
X9649Y9390D02*
D03*
X10082D02*
D03*
X9216Y8956D02*
D03*
X9649D02*
D03*
X10082D02*
D03*
X9216Y8523D02*
D03*
X9649D02*
D03*
X10082D02*
D03*
X9216Y8090D02*
D03*
X9649D02*
D03*
X10082D02*
D03*
X9216Y9390D02*
D03*
X13716D02*
D03*
X14582Y8090D02*
D03*
X14149D02*
D03*
X13716D02*
D03*
X14582Y8523D02*
D03*
X14149D02*
D03*
X13716D02*
D03*
X14582Y8956D02*
D03*
X14149D02*
D03*
X13716D02*
D03*
X14582Y9390D02*
D03*
X14149D02*
D03*
X23789D02*
D03*
X24222D02*
D03*
X23356Y8956D02*
D03*
X23789D02*
D03*
X24222D02*
D03*
X23356Y8523D02*
D03*
X23789D02*
D03*
X24222D02*
D03*
X23356Y8090D02*
D03*
X23789D02*
D03*
X24222D02*
D03*
X23356Y9390D02*
D03*
X10499Y47792D02*
D03*
Y48166D02*
D03*
X10123Y48169D02*
D03*
X10127Y47792D02*
D03*
X10125Y47408D02*
D03*
X10499Y47417D02*
D03*
X10873D02*
D03*
Y47792D02*
D03*
Y48166D02*
D03*
X34229Y47355D02*
D03*
X34629D02*
D03*
Y47755D02*
D03*
X34229D02*
D03*
Y48155D02*
D03*
X34629D02*
D03*
Y48555D02*
D03*
X34229D02*
D03*
X33429D02*
D03*
X33029D02*
D03*
Y48155D02*
D03*
X33429D02*
D03*
Y47755D02*
D03*
X33029D02*
D03*
Y47355D02*
D03*
X33429D02*
D03*
X33829D02*
D03*
Y47755D02*
D03*
Y48555D02*
D03*
Y48155D02*
D03*
X29907Y35608D02*
D03*
X29507D02*
D03*
X30307D02*
D03*
X30707D02*
D03*
Y35208D02*
D03*
Y34808D02*
D03*
X30307D02*
D03*
Y35208D02*
D03*
X29907D02*
D03*
Y34808D02*
D03*
X29507D02*
D03*
Y35208D02*
D03*
Y36008D02*
D03*
Y36408D02*
D03*
X29907D02*
D03*
Y36008D02*
D03*
X30307D02*
D03*
Y36408D02*
D03*
X30707D02*
D03*
Y36008D02*
D03*
X4743Y37742D02*
D03*
X5609Y36442D02*
D03*
X5176D02*
D03*
X4743D02*
D03*
X5609Y36876D02*
D03*
X5176D02*
D03*
X4743D02*
D03*
X5609Y37309D02*
D03*
X5176D02*
D03*
X4743D02*
D03*
X5609Y37742D02*
D03*
X5176D02*
D03*
X9649Y37382D02*
D03*
X10082D02*
D03*
X9216Y36949D02*
D03*
X9649D02*
D03*
X10082D02*
D03*
X9216Y36516D02*
D03*
X9649D02*
D03*
X10082D02*
D03*
X9216Y36082D02*
D03*
X9649D02*
D03*
X10082D02*
D03*
X9216Y37382D02*
D03*
X13716D02*
D03*
X14582Y36082D02*
D03*
X14149D02*
D03*
X13716D02*
D03*
X14582Y36516D02*
D03*
X14149D02*
D03*
X13716D02*
D03*
X14582Y36949D02*
D03*
X14149D02*
D03*
X13716D02*
D03*
X14582Y37382D02*
D03*
X14149D02*
D03*
X23789D02*
D03*
X24222D02*
D03*
X23356Y36949D02*
D03*
X23789D02*
D03*
X24222D02*
D03*
X23356Y36516D02*
D03*
X23789D02*
D03*
X24222D02*
D03*
X23356Y36082D02*
D03*
X23789D02*
D03*
X24222D02*
D03*
X23356Y37382D02*
D03*
X10499Y75784D02*
D03*
Y76158D02*
D03*
X10123Y76161D02*
D03*
X10127Y75784D02*
D03*
X10125Y75400D02*
D03*
X10499Y75410D02*
D03*
X10873D02*
D03*
Y75784D02*
D03*
Y76158D02*
D03*
X34229Y75348D02*
D03*
X34629D02*
D03*
Y75748D02*
D03*
X34229D02*
D03*
Y76148D02*
D03*
X34629D02*
D03*
Y76548D02*
D03*
X34229D02*
D03*
X33429D02*
D03*
X33029D02*
D03*
Y76148D02*
D03*
X33429D02*
D03*
Y75748D02*
D03*
X33029D02*
D03*
Y75348D02*
D03*
X33429D02*
D03*
X33829D02*
D03*
Y75748D02*
D03*
Y76548D02*
D03*
Y76148D02*
D03*
X29907Y63600D02*
D03*
X29507D02*
D03*
X30307D02*
D03*
X30707D02*
D03*
Y63200D02*
D03*
Y62800D02*
D03*
X30307D02*
D03*
Y63200D02*
D03*
X29907D02*
D03*
Y62800D02*
D03*
X29507D02*
D03*
Y63200D02*
D03*
Y64000D02*
D03*
Y64400D02*
D03*
X29907D02*
D03*
Y64000D02*
D03*
X30307D02*
D03*
Y64400D02*
D03*
X30707D02*
D03*
Y64000D02*
D03*
X4743Y65734D02*
D03*
X5609Y64435D02*
D03*
X5176D02*
D03*
X4743D02*
D03*
X5609Y64868D02*
D03*
X5176D02*
D03*
X4743D02*
D03*
X5609Y65301D02*
D03*
X5176D02*
D03*
X4743D02*
D03*
X5609Y65734D02*
D03*
X5176D02*
D03*
X9649Y65374D02*
D03*
X10082D02*
D03*
X9216Y64941D02*
D03*
X9649D02*
D03*
X10082D02*
D03*
X9216Y64508D02*
D03*
X9649D02*
D03*
X10082D02*
D03*
X9216Y64075D02*
D03*
X9649D02*
D03*
X10082D02*
D03*
X9216Y65374D02*
D03*
X13716D02*
D03*
X14582Y64075D02*
D03*
X14149D02*
D03*
X13716D02*
D03*
X14582Y64508D02*
D03*
X14149D02*
D03*
X13716D02*
D03*
X14582Y64941D02*
D03*
X14149D02*
D03*
X13716D02*
D03*
X14582Y65374D02*
D03*
X14149D02*
D03*
X23789D02*
D03*
X24222D02*
D03*
X23356Y64941D02*
D03*
X23789D02*
D03*
X24222D02*
D03*
X23356Y64508D02*
D03*
X23789D02*
D03*
X24222D02*
D03*
X23356Y64075D02*
D03*
X23789D02*
D03*
X24222D02*
D03*
X23356Y65374D02*
D03*
G54D129*
X42906Y6754D02*
D03*
Y34747D02*
D03*
Y62739D02*
D03*
G54D214*
X28866Y24456D02*
D03*
Y25456D02*
D03*
Y26456D02*
D03*
Y27456D02*
D03*
Y28456D02*
D03*
Y52449D02*
D03*
Y53449D02*
D03*
Y54449D02*
D03*
Y55449D02*
D03*
Y56449D02*
D03*
Y80441D02*
D03*
Y81441D02*
D03*
Y82441D02*
D03*
Y83441D02*
D03*
Y84441D02*
D03*
G54D217*
X3789Y1289D02*
D03*
X42528Y1328D02*
D03*
Y87726D02*
D03*
G54D258*
X22699Y26699D02*
D03*
X6699Y24699D02*
D03*
X7699Y4699D02*
D03*
X8699D02*
D03*
X9699D02*
D03*
X10699D02*
D03*
X12699D02*
D03*
X15699D02*
D03*
X23699D02*
D03*
X24699D02*
D03*
X32699Y14699D02*
D03*
X31699Y17699D02*
D03*
X30699Y19699D02*
D03*
X21699Y5699D02*
D03*
X23699D02*
D03*
X22699D02*
D03*
X24699D02*
D03*
X17699D02*
D03*
X19699D02*
D03*
X18699D02*
D03*
X20699D02*
D03*
X9699D02*
D03*
X13699D02*
D03*
X12699D02*
D03*
X14699D02*
D03*
X3699Y6699D02*
D03*
X30669Y4379D02*
D03*
X24699Y14699D02*
D03*
X26699Y24699D02*
D03*
X7699Y5699D02*
D03*
X6699D02*
D03*
X8699D02*
D03*
X17699Y10699D02*
D03*
X19699Y9699D02*
D03*
X21699Y10699D02*
D03*
X7699Y18699D02*
D03*
X6699Y19699D02*
D03*
X16699Y22699D02*
D03*
X10699Y26699D02*
D03*
X21699Y11699D02*
D03*
X38699Y28699D02*
D03*
X22699Y54692D02*
D03*
X6699Y52691D02*
D03*
X7699Y32692D02*
D03*
X8699D02*
D03*
X9699D02*
D03*
X10699D02*
D03*
X12699D02*
D03*
X15699D02*
D03*
X23699D02*
D03*
X24699D02*
D03*
X32699Y42691D02*
D03*
X31699Y45691D02*
D03*
X30699Y47691D02*
D03*
X21699Y33691D02*
D03*
X23699D02*
D03*
X22699D02*
D03*
X24699D02*
D03*
X17699D02*
D03*
X19699D02*
D03*
X18699D02*
D03*
X20699D02*
D03*
X9699D02*
D03*
X13699D02*
D03*
X12699D02*
D03*
X14699D02*
D03*
X3699Y34692D02*
D03*
X30669Y32371D02*
D03*
X24699Y42691D02*
D03*
X26699Y52691D02*
D03*
X7699Y33691D02*
D03*
X6699D02*
D03*
X8699D02*
D03*
X17699Y38691D02*
D03*
X19699Y37692D02*
D03*
X21699Y38691D02*
D03*
X7699Y46691D02*
D03*
X6699Y47691D02*
D03*
X16699Y50691D02*
D03*
X10699Y54692D02*
D03*
X21699Y39692D02*
D03*
X38699Y56691D02*
D03*
X22699Y82684D02*
D03*
X6699Y80684D02*
D03*
X7699Y60684D02*
D03*
X8699D02*
D03*
X9699D02*
D03*
X10699D02*
D03*
X12699D02*
D03*
X15699D02*
D03*
X23699D02*
D03*
X24699D02*
D03*
X32699Y70684D02*
D03*
X31699Y73684D02*
D03*
X30699Y75684D02*
D03*
X21699Y61684D02*
D03*
X23699D02*
D03*
X22699D02*
D03*
X24699D02*
D03*
X17699D02*
D03*
X19699D02*
D03*
X18699D02*
D03*
X20699D02*
D03*
X9699D02*
D03*
X13699D02*
D03*
X12699D02*
D03*
X14699D02*
D03*
X3699Y62684D02*
D03*
X30669Y60364D02*
D03*
X24699Y70684D02*
D03*
X26699Y80684D02*
D03*
X7699Y61684D02*
D03*
X6699D02*
D03*
X8699D02*
D03*
X17699Y66684D02*
D03*
X19699Y65684D02*
D03*
X21699Y66684D02*
D03*
X7699Y74684D02*
D03*
X6699Y75684D02*
D03*
X16699Y78684D02*
D03*
X10699Y82684D02*
D03*
X21699Y67684D02*
D03*
X38699Y84684D02*
D03*
G54D269*
X27866Y28456D02*
D03*
Y56449D02*
D03*
Y84441D02*
D03*
G54D270*
Y27456D02*
D03*
Y26456D02*
D03*
Y25456D02*
D03*
Y24456D02*
D03*
X24439Y25389D02*
D03*
Y24389D02*
D03*
X23439Y25389D02*
D03*
Y24389D02*
D03*
X22439Y25389D02*
D03*
Y24389D02*
D03*
X21439Y25389D02*
D03*
Y24389D02*
D03*
X20439Y25389D02*
D03*
X24439Y29139D02*
D03*
Y28139D02*
D03*
X23439Y29139D02*
D03*
Y28139D02*
D03*
X22439Y29139D02*
D03*
Y28139D02*
D03*
X21439Y29139D02*
D03*
Y28139D02*
D03*
X20439Y29139D02*
D03*
X27866Y55449D02*
D03*
Y54449D02*
D03*
Y53449D02*
D03*
Y52449D02*
D03*
X24439Y53382D02*
D03*
Y52382D02*
D03*
X23439Y53382D02*
D03*
Y52382D02*
D03*
X22439Y53382D02*
D03*
Y52382D02*
D03*
X21439Y53382D02*
D03*
Y52382D02*
D03*
X20439Y53382D02*
D03*
X24439Y57132D02*
D03*
Y56132D02*
D03*
X23439Y57132D02*
D03*
Y56132D02*
D03*
X22439Y57132D02*
D03*
Y56132D02*
D03*
X21439Y57132D02*
D03*
Y56132D02*
D03*
X20439Y57132D02*
D03*
X27866Y83441D02*
D03*
Y82441D02*
D03*
Y81441D02*
D03*
Y80441D02*
D03*
X24439Y81374D02*
D03*
Y80374D02*
D03*
X23439Y81374D02*
D03*
Y80374D02*
D03*
X22439Y81374D02*
D03*
Y80374D02*
D03*
X21439Y81374D02*
D03*
Y80374D02*
D03*
X20439Y81374D02*
D03*
X24439Y85124D02*
D03*
Y84124D02*
D03*
X23439Y85124D02*
D03*
Y84124D02*
D03*
X22439Y85124D02*
D03*
Y84124D02*
D03*
X21439Y85124D02*
D03*
Y84124D02*
D03*
X20439Y85124D02*
D03*
G54D271*
X13188Y26164D02*
D03*
X12188D02*
D03*
X9054D02*
D03*
X8054D02*
D03*
X11188Y28526D02*
D03*
X12188D02*
D03*
X7054D02*
D03*
X8054D02*
D03*
X15321D02*
D03*
X16321D02*
D03*
X7342Y3722D02*
D03*
X8342D02*
D03*
X9342D02*
D03*
X14460D02*
D03*
X13460D02*
D03*
X12460D02*
D03*
X17578Y6478D02*
D03*
X18578D02*
D03*
X19578D02*
D03*
Y3722D02*
D03*
X18578D02*
D03*
X17578D02*
D03*
X22700Y3726D02*
D03*
X23700D02*
D03*
X24700D02*
D03*
X17321Y26164D02*
D03*
X16321D02*
D03*
X13188Y54156D02*
D03*
X12188D02*
D03*
X9054D02*
D03*
X8054D02*
D03*
X11188Y56518D02*
D03*
X12188D02*
D03*
X7054D02*
D03*
X8054D02*
D03*
X15321D02*
D03*
X16321D02*
D03*
X7342Y31714D02*
D03*
X8342D02*
D03*
X9342D02*
D03*
X14460D02*
D03*
X13460D02*
D03*
X12460D02*
D03*
X17578Y34470D02*
D03*
X18578D02*
D03*
X19578D02*
D03*
Y31714D02*
D03*
X18578D02*
D03*
X17578D02*
D03*
X22700Y31718D02*
D03*
X23700D02*
D03*
X24700D02*
D03*
X17321Y54156D02*
D03*
X16321D02*
D03*
X13188Y82148D02*
D03*
X12188D02*
D03*
X9054D02*
D03*
X8054D02*
D03*
X11188Y84510D02*
D03*
X12188D02*
D03*
X7054D02*
D03*
X8054D02*
D03*
X15321D02*
D03*
X16321D02*
D03*
X7342Y59706D02*
D03*
X8342D02*
D03*
X9342D02*
D03*
X14460D02*
D03*
X13460D02*
D03*
X12460D02*
D03*
X17578Y62462D02*
D03*
X18578D02*
D03*
X19578D02*
D03*
Y59706D02*
D03*
X18578D02*
D03*
X17578D02*
D03*
X22700Y59710D02*
D03*
X23700D02*
D03*
X24700D02*
D03*
X17321Y82148D02*
D03*
X16321D02*
D03*
G54D272*
X11188Y26164D02*
D03*
X7054D02*
D03*
X13188Y28526D02*
D03*
X9054D02*
D03*
X17321D02*
D03*
X10342Y3722D02*
D03*
X15460D02*
D03*
X20578Y6478D02*
D03*
Y3722D02*
D03*
X25700Y3726D02*
D03*
X15321Y26164D02*
D03*
X11188Y54156D02*
D03*
X7054D02*
D03*
X13188Y56518D02*
D03*
X9054D02*
D03*
X17321D02*
D03*
X10342Y31714D02*
D03*
X15460D02*
D03*
X20578Y34470D02*
D03*
Y31714D02*
D03*
X25700Y31718D02*
D03*
X15321Y54156D02*
D03*
X11188Y82148D02*
D03*
X7054D02*
D03*
X13188Y84510D02*
D03*
X9054D02*
D03*
X17321D02*
D03*
X10342Y59706D02*
D03*
X15460D02*
D03*
X20578Y62462D02*
D03*
Y59706D02*
D03*
X25700Y59710D02*
D03*
X15321Y82148D02*
D03*
G54D273*
X39069Y24644D02*
D03*
Y21394D02*
D03*
Y18144D02*
D03*
Y14894D02*
D03*
Y11644D02*
D03*
Y8394D02*
D03*
Y52636D02*
D03*
Y49387D02*
D03*
Y46136D02*
D03*
Y42887D02*
D03*
Y39636D02*
D03*
Y36386D02*
D03*
Y80629D02*
D03*
Y77379D02*
D03*
Y74129D02*
D03*
Y70879D02*
D03*
Y67629D02*
D03*
Y64379D02*
D03*
G54D274*
X20439Y24389D02*
D03*
Y28139D02*
D03*
Y52382D02*
D03*
Y56132D02*
D03*
Y80374D02*
D03*
Y84124D02*
D03*
G54D275*
X28629Y16769D02*
D03*
Y15769D02*
D03*
Y14769D02*
D03*
X28639Y20909D02*
D03*
Y19909D02*
D03*
Y18909D02*
D03*
X26203Y19916D02*
D03*
Y20916D02*
D03*
Y13695D02*
D03*
Y14695D02*
D03*
Y16806D02*
D03*
Y17806D02*
D03*
X28629Y44762D02*
D03*
Y43762D02*
D03*
Y42762D02*
D03*
X28639Y48902D02*
D03*
Y47902D02*
D03*
Y46901D02*
D03*
X26203Y47908D02*
D03*
Y48908D02*
D03*
Y41688D02*
D03*
Y42688D02*
D03*
Y44798D02*
D03*
Y45798D02*
D03*
X28629Y72754D02*
D03*
Y71754D02*
D03*
Y70754D02*
D03*
X28639Y76894D02*
D03*
Y75894D02*
D03*
Y74894D02*
D03*
X26203Y75900D02*
D03*
Y76900D02*
D03*
Y69680D02*
D03*
Y70680D02*
D03*
Y72790D02*
D03*
Y73790D02*
D03*
G54D276*
X30809Y12129D02*
D03*
X28809D02*
D03*
X30809Y40121D02*
D03*
X28809D02*
D03*
X30809Y68114D02*
D03*
X28809D02*
D03*
G54D277*
X10025Y23345D02*
D03*
Y22345D02*
D03*
X9025Y23345D02*
D03*
Y22345D02*
D03*
X8025Y23345D02*
D03*
Y22345D02*
D03*
X14029Y22539D02*
D03*
Y23539D02*
D03*
X15029Y22539D02*
D03*
Y23539D02*
D03*
X16029Y22539D02*
D03*
Y23539D02*
D03*
X10025Y51337D02*
D03*
Y50337D02*
D03*
X9025Y51337D02*
D03*
Y50337D02*
D03*
X8025Y51337D02*
D03*
Y50337D02*
D03*
X14029Y50532D02*
D03*
Y51532D02*
D03*
X15029Y50532D02*
D03*
Y51532D02*
D03*
X16029Y50532D02*
D03*
Y51532D02*
D03*
X10025Y79329D02*
D03*
Y78329D02*
D03*
X9025Y79329D02*
D03*
Y78329D02*
D03*
X8025Y79329D02*
D03*
Y78329D02*
D03*
X14029Y78524D02*
D03*
Y79524D02*
D03*
X15029Y78524D02*
D03*
Y79524D02*
D03*
X16029Y78524D02*
D03*
Y79524D02*
D03*
G54D278*
X5298Y15526D02*
D03*
Y20258D02*
D03*
Y43518D02*
D03*
Y48251D02*
D03*
Y71510D02*
D03*
Y76243D02*
D03*
G54D279*
X6368Y17396D02*
D03*
Y18388D02*
D03*
X7158D02*
D03*
Y17396D02*
D03*
X6368Y45388D02*
D03*
Y46380D02*
D03*
X7158D02*
D03*
Y45388D02*
D03*
X6368Y73380D02*
D03*
Y74373D02*
D03*
X7158D02*
D03*
Y73380D02*
D03*
G54D280*
X4607Y23209D02*
D03*
Y25969D02*
D03*
Y51201D02*
D03*
Y53961D02*
D03*
Y79193D02*
D03*
Y81953D02*
D03*
G54D281*
X3627Y23699D02*
D03*
Y25479D02*
D03*
Y51691D02*
D03*
Y53471D02*
D03*
Y79683D02*
D03*
Y81463D02*
D03*
G54D282*
X34289Y9253D02*
D03*
X32949D02*
D03*
Y3953D02*
D03*
X34289D02*
D03*
X35899Y19379D02*
D03*
X37239D02*
D03*
Y14079D02*
D03*
X35899D02*
D03*
X37189Y9249D02*
D03*
X35849D02*
D03*
Y3949D02*
D03*
X37189D02*
D03*
X34289Y37245D02*
D03*
X32949D02*
D03*
Y31945D02*
D03*
X34289D02*
D03*
X35899Y47372D02*
D03*
X37239D02*
D03*
Y42071D02*
D03*
X35899D02*
D03*
X37189Y37241D02*
D03*
X35849D02*
D03*
Y31941D02*
D03*
X37189D02*
D03*
X34289Y65238D02*
D03*
X32949D02*
D03*
Y59938D02*
D03*
X34289D02*
D03*
X35899Y75364D02*
D03*
X37239D02*
D03*
Y70064D02*
D03*
X35899D02*
D03*
X37189Y65234D02*
D03*
X35849D02*
D03*
Y59934D02*
D03*
X37189D02*
D03*
G54D283*
X36563Y28752D02*
D03*
X36996D02*
D03*
X36563Y28319D02*
D03*
X36996D02*
D03*
X36563Y27886D02*
D03*
X36996D02*
D03*
X36563Y56745D02*
D03*
X36996D02*
D03*
X36563Y56311D02*
D03*
X36996D02*
D03*
X36563Y55878D02*
D03*
X36996D02*
D03*
X36563Y84737D02*
D03*
X36996D02*
D03*
X36563Y84304D02*
D03*
X36996D02*
D03*
X36563Y83871D02*
D03*
X36996D02*
D03*
G54D284*
X11323Y21203D02*
D03*
X41914Y26282D02*
D03*
X6174Y3332D02*
D03*
X5994Y26942D02*
D03*
X41917Y6700D02*
D03*
X11323Y49195D02*
D03*
X41914Y54274D02*
D03*
X6174Y31324D02*
D03*
X5994Y54934D02*
D03*
X41917Y34692D02*
D03*
X11323Y77188D02*
D03*
X41914Y82266D02*
D03*
X6174Y59316D02*
D03*
X5994Y82926D02*
D03*
X41917Y62684D02*
D03*
G54D285*
X30146Y24456D02*
D03*
Y25456D02*
D03*
Y26456D02*
D03*
Y27456D02*
D03*
Y28456D02*
D03*
Y52449D02*
D03*
Y53449D02*
D03*
Y54449D02*
D03*
Y55449D02*
D03*
Y56449D02*
D03*
Y80441D02*
D03*
Y81441D02*
D03*
Y82441D02*
D03*
Y83441D02*
D03*
Y84441D02*
D03*
G54D286*
X14699Y25699D02*
D03*
Y53692D02*
D03*
Y81684D02*
D03*
G54D287*
X3122Y21466D02*
D03*
Y20738D02*
D03*
X4142Y21466D02*
D03*
Y20738D02*
D03*
X3122Y49458D02*
D03*
Y48730D02*
D03*
X4142Y49458D02*
D03*
Y48730D02*
D03*
X3122Y77450D02*
D03*
Y76722D02*
D03*
X4142Y77450D02*
D03*
Y76722D02*
D03*
G54D288*
X37699Y6699D02*
D03*
X35699D02*
D03*
X33699D02*
D03*
X17699Y29699D02*
D03*
X5699Y17699D02*
D03*
X6699Y16699D02*
D03*
X9699Y21699D02*
D03*
X6699Y22699D02*
D03*
X8699Y21699D02*
D03*
X9699Y20699D02*
D03*
X12699Y27699D02*
D03*
X9699Y26699D02*
D03*
X15699Y21699D02*
D03*
X20699Y23699D02*
D03*
X13699Y21699D02*
D03*
X24699Y19699D02*
D03*
Y16699D02*
D03*
X32699Y15699D02*
D03*
X40699Y19699D02*
D03*
X28699Y10699D02*
D03*
X40699Y21699D02*
D03*
X10699Y15699D02*
D03*
Y17699D02*
D03*
Y18699D02*
D03*
X13699Y16699D02*
D03*
X14699Y15699D02*
D03*
X13699D02*
D03*
X37699Y34692D02*
D03*
X35699D02*
D03*
X33699D02*
D03*
X17699Y57691D02*
D03*
X5699Y45691D02*
D03*
X6699Y44692D02*
D03*
X9699Y49692D02*
D03*
X6699Y50691D02*
D03*
X8699Y49692D02*
D03*
X9699Y48692D02*
D03*
X12699Y55691D02*
D03*
X9699Y54692D02*
D03*
X15699Y49692D02*
D03*
X20699Y51691D02*
D03*
X13699Y49692D02*
D03*
X24699Y47691D02*
D03*
Y44692D02*
D03*
X32699Y43692D02*
D03*
X40699Y47691D02*
D03*
X28699Y38691D02*
D03*
X40699Y49692D02*
D03*
X10699Y43692D02*
D03*
Y45691D02*
D03*
Y46691D02*
D03*
X13699Y44692D02*
D03*
X14699Y43692D02*
D03*
X13699D02*
D03*
X37699Y62684D02*
D03*
X35699D02*
D03*
X33699D02*
D03*
X17699Y85684D02*
D03*
X5699Y73684D02*
D03*
X6699Y72684D02*
D03*
X9699Y77684D02*
D03*
X6699Y78684D02*
D03*
X8699Y77684D02*
D03*
X9699Y76684D02*
D03*
X12699Y83684D02*
D03*
X9699Y82684D02*
D03*
X15699Y77684D02*
D03*
X20699Y79684D02*
D03*
X13699Y77684D02*
D03*
X24699Y75684D02*
D03*
Y72684D02*
D03*
X32699Y71684D02*
D03*
X40699Y75684D02*
D03*
X28699Y66684D02*
D03*
X40699Y77684D02*
D03*
X10699Y71684D02*
D03*
Y73684D02*
D03*
Y74684D02*
D03*
X13699Y72684D02*
D03*
X14699Y71684D02*
D03*
X13699D02*
D03*
G54D289*
X11331Y20893D02*
D03*
Y21493D02*
D03*
X41922Y26572D02*
D03*
Y25972D02*
D03*
X6182Y3622D02*
D03*
Y3022D02*
D03*
X6002Y27232D02*
D03*
Y26632D02*
D03*
X41909Y6409D02*
D03*
Y7009D02*
D03*
X11331Y48886D02*
D03*
Y49486D02*
D03*
X41922Y54564D02*
D03*
Y53964D02*
D03*
X6182Y31614D02*
D03*
Y31014D02*
D03*
X6002Y55224D02*
D03*
Y54624D02*
D03*
X41909Y34402D02*
D03*
Y35001D02*
D03*
X11331Y76878D02*
D03*
Y77478D02*
D03*
X41922Y82556D02*
D03*
Y81956D02*
D03*
X6182Y59606D02*
D03*
Y59006D02*
D03*
X6002Y83216D02*
D03*
Y82616D02*
D03*
X41909Y62394D02*
D03*
Y62994D02*
D03*
M02*
