G04 Layer_Color=0*
%FSLAX24Y24*%
%MOIN*%
G70*
G01*
G75*
%ADD12C,0.0100*%
G54D12*
X0Y0D02*
Y89016D01*
X46000D01*
Y0D02*
Y89016D01*
X0Y0D02*
X46000D01*
X19328Y96128D02*
Y96728D01*
X19628D01*
X19728Y96628D01*
Y96428D01*
X19628Y96328D01*
X19328D01*
X20028Y96528D02*
X20228D01*
X20328Y96428D01*
Y96128D01*
X20028D01*
X19928Y96228D01*
X20028Y96328D01*
X20328D01*
X20528Y96128D02*
Y96528D01*
X20828D01*
X20928Y96428D01*
Y96128D01*
X21428D02*
X21228D01*
X21128Y96228D01*
Y96428D01*
X21228Y96528D01*
X21428D01*
X21528Y96428D01*
Y96328D01*
X21128D01*
X21728Y96128D02*
X21928D01*
X21828D01*
Y96728D01*
X21728D01*
X23127D02*
X22927D01*
X22827Y96628D01*
Y96228D01*
X22927Y96128D01*
X23127D01*
X23227Y96228D01*
Y96628D01*
X23127Y96728D01*
X23427Y96528D02*
Y96228D01*
X23527Y96128D01*
X23827D01*
Y96528D01*
X24127Y96628D02*
Y96528D01*
X24027D01*
X24227D01*
X24127D01*
Y96228D01*
X24227Y96128D01*
X24527D02*
X24727D01*
X24627D01*
Y96728D01*
X24527D01*
X25027Y96128D02*
X25226D01*
X25126D01*
Y96528D01*
X25027D01*
X25526Y96128D02*
Y96528D01*
X25826D01*
X25926Y96428D01*
Y96128D01*
X26426D02*
X26226D01*
X26126Y96228D01*
Y96428D01*
X26226Y96528D01*
X26426D01*
X26526Y96428D01*
Y96328D01*
X26126D01*
M02*
