G04 Layer_Color=8388736*
%FSLAX24Y24*%
%MOIN*%
G70*
G01*
G75*
%ADD12C,0.0100*%
%ADD68C,0.0060*%
%ADD149C,0.0050*%
G54D12*
X32488Y25902D02*
Y27477D01*
X34850D01*
Y25902D02*
Y27477D01*
X32488Y25902D02*
X34850D01*
X33132Y20308D02*
X36897D01*
Y23838D01*
X33132D02*
X36897D01*
X33132Y20308D02*
Y23838D01*
X32488Y53894D02*
Y55469D01*
X34850D01*
Y53894D02*
Y55469D01*
X32488Y53894D02*
X34850D01*
X33132Y48300D02*
X36897D01*
Y51830D01*
X33132D02*
X36897D01*
X33132Y48300D02*
Y51830D01*
X32488Y81887D02*
Y83461D01*
X34850D01*
Y81887D02*
Y83461D01*
X32488Y81887D02*
X34850D01*
X33132Y76292D02*
X36897D01*
Y79822D01*
X33132D02*
X36897D01*
X33132Y76292D02*
Y79822D01*
G54D68*
X34491Y26366D02*
Y26046D01*
X34331D01*
X34277Y26099D01*
Y26152D01*
X34331Y26206D01*
X34491D01*
X34331D01*
X34277Y26259D01*
Y26312D01*
X34331Y26366D01*
X34491D01*
X34118Y26046D02*
X34011D01*
X33958Y26099D01*
Y26206D01*
X34011Y26259D01*
X34118D01*
X34171Y26206D01*
Y26099D01*
X34118Y26046D01*
X33798Y26312D02*
Y26259D01*
X33851D01*
X33744D01*
X33798D01*
Y26099D01*
X33744Y26046D01*
X33051Y26312D02*
X33104Y26366D01*
X33211D01*
X33264Y26312D01*
Y26259D01*
X33211Y26206D01*
X33104D01*
X33051Y26152D01*
Y26099D01*
X33104Y26046D01*
X33211D01*
X33264Y26099D01*
X32945Y26046D02*
X32838D01*
X32891D01*
Y26259D01*
X32945D01*
X32678Y26046D02*
X32571D01*
X32625D01*
Y26366D01*
X32678D01*
X32411Y26046D02*
Y26366D01*
Y26152D02*
X32251Y26259D01*
X32411Y26152D02*
X32251Y26046D01*
X36351Y21209D02*
Y20810D01*
X36151D01*
X36084Y20876D01*
Y20943D01*
X36151Y21010D01*
X36351D01*
X36151D01*
X36084Y21076D01*
Y21143D01*
X36151Y21209D01*
X36351D01*
X35884Y20810D02*
X35751D01*
X35684Y20876D01*
Y21010D01*
X35751Y21076D01*
X35884D01*
X35951Y21010D01*
Y20876D01*
X35884Y20810D01*
X35485Y21143D02*
Y21076D01*
X35551D01*
X35418D01*
X35485D01*
Y20876D01*
X35418Y20810D01*
X34552Y21143D02*
X34618Y21209D01*
X34751D01*
X34818Y21143D01*
Y21076D01*
X34751Y21010D01*
X34618D01*
X34552Y20943D01*
Y20876D01*
X34618Y20810D01*
X34751D01*
X34818Y20876D01*
X34418Y20810D02*
X34285D01*
X34352D01*
Y21076D01*
X34418D01*
X34085Y20810D02*
X33952D01*
X34018D01*
Y21209D01*
X34085D01*
X33752Y20810D02*
Y21209D01*
Y20943D02*
X33552Y21076D01*
X33752Y20943D02*
X33552Y20810D01*
X34491Y54358D02*
Y54038D01*
X34331D01*
X34277Y54091D01*
Y54145D01*
X34331Y54198D01*
X34491D01*
X34331D01*
X34277Y54251D01*
Y54305D01*
X34331Y54358D01*
X34491D01*
X34118Y54038D02*
X34011D01*
X33958Y54091D01*
Y54198D01*
X34011Y54251D01*
X34118D01*
X34171Y54198D01*
Y54091D01*
X34118Y54038D01*
X33798Y54305D02*
Y54251D01*
X33851D01*
X33744D01*
X33798D01*
Y54091D01*
X33744Y54038D01*
X33051Y54305D02*
X33104Y54358D01*
X33211D01*
X33264Y54305D01*
Y54251D01*
X33211Y54198D01*
X33104D01*
X33051Y54145D01*
Y54091D01*
X33104Y54038D01*
X33211D01*
X33264Y54091D01*
X32945Y54038D02*
X32838D01*
X32891D01*
Y54251D01*
X32945D01*
X32678Y54038D02*
X32571D01*
X32625D01*
Y54358D01*
X32678D01*
X32411Y54038D02*
Y54358D01*
Y54145D02*
X32251Y54251D01*
X32411Y54145D02*
X32251Y54038D01*
X36351Y49202D02*
Y48802D01*
X36151D01*
X36084Y48868D01*
Y48935D01*
X36151Y49002D01*
X36351D01*
X36151D01*
X36084Y49068D01*
Y49135D01*
X36151Y49202D01*
X36351D01*
X35884Y48802D02*
X35751D01*
X35684Y48868D01*
Y49002D01*
X35751Y49068D01*
X35884D01*
X35951Y49002D01*
Y48868D01*
X35884Y48802D01*
X35485Y49135D02*
Y49068D01*
X35551D01*
X35418D01*
X35485D01*
Y48868D01*
X35418Y48802D01*
X34552Y49135D02*
X34618Y49202D01*
X34751D01*
X34818Y49135D01*
Y49068D01*
X34751Y49002D01*
X34618D01*
X34552Y48935D01*
Y48868D01*
X34618Y48802D01*
X34751D01*
X34818Y48868D01*
X34418Y48802D02*
X34285D01*
X34352D01*
Y49068D01*
X34418D01*
X34085Y48802D02*
X33952D01*
X34018D01*
Y49202D01*
X34085D01*
X33752Y48802D02*
Y49202D01*
Y48935D02*
X33552Y49068D01*
X33752Y48935D02*
X33552Y48802D01*
X34491Y82350D02*
Y82030D01*
X34331D01*
X34277Y82083D01*
Y82137D01*
X34331Y82190D01*
X34491D01*
X34331D01*
X34277Y82243D01*
Y82297D01*
X34331Y82350D01*
X34491D01*
X34118Y82030D02*
X34011D01*
X33958Y82083D01*
Y82190D01*
X34011Y82243D01*
X34118D01*
X34171Y82190D01*
Y82083D01*
X34118Y82030D01*
X33798Y82297D02*
Y82243D01*
X33851D01*
X33744D01*
X33798D01*
Y82083D01*
X33744Y82030D01*
X33051Y82297D02*
X33104Y82350D01*
X33211D01*
X33264Y82297D01*
Y82243D01*
X33211Y82190D01*
X33104D01*
X33051Y82137D01*
Y82083D01*
X33104Y82030D01*
X33211D01*
X33264Y82083D01*
X32945Y82030D02*
X32838D01*
X32891D01*
Y82243D01*
X32945D01*
X32678Y82030D02*
X32571D01*
X32625D01*
Y82350D01*
X32678D01*
X32411Y82030D02*
Y82350D01*
Y82137D02*
X32251Y82243D01*
X32411Y82137D02*
X32251Y82030D01*
X36351Y77194D02*
Y76794D01*
X36151D01*
X36084Y76860D01*
Y76927D01*
X36151Y76994D01*
X36351D01*
X36151D01*
X36084Y77060D01*
Y77127D01*
X36151Y77194D01*
X36351D01*
X35884Y76794D02*
X35751D01*
X35684Y76860D01*
Y76994D01*
X35751Y77060D01*
X35884D01*
X35951Y76994D01*
Y76860D01*
X35884Y76794D01*
X35485Y77127D02*
Y77060D01*
X35551D01*
X35418D01*
X35485D01*
Y76860D01*
X35418Y76794D01*
X34552Y77127D02*
X34618Y77194D01*
X34751D01*
X34818Y77127D01*
Y77060D01*
X34751Y76994D01*
X34618D01*
X34552Y76927D01*
Y76860D01*
X34618Y76794D01*
X34751D01*
X34818Y76860D01*
X34418Y76794D02*
X34285D01*
X34352D01*
Y77060D01*
X34418D01*
X34085Y76794D02*
X33952D01*
X34018D01*
Y77194D01*
X34085D01*
X33752Y76794D02*
Y77194D01*
Y76927D02*
X33552Y77060D01*
X33752Y76927D02*
X33552Y76794D01*
G54D149*
X34600Y22222D02*
Y21972D01*
X34550Y21922D01*
X34451D01*
X34401Y21972D01*
Y22222D01*
X34301D02*
Y21922D01*
X34101D01*
X34600Y50214D02*
Y49964D01*
X34550Y49914D01*
X34451D01*
X34401Y49964D01*
Y50214D01*
X34301D02*
Y49914D01*
X34101D01*
X34600Y78206D02*
Y77956D01*
X34550Y77906D01*
X34451D01*
X34401Y77956D01*
Y78206D01*
X34301D02*
Y77906D01*
X34101D01*
M02*
